<svg xmlns="http://www.w3.org/2000/svg" viewBox="0 0 1758 1593"><g fill="none" stroke-width="2"><path stroke="#1e121c" d="m397.4 822-2.3-.4a1.3 1.2 61.2 0 1-.5-.1q-4.4-2.5-8.3-2.6l-16.6-.7q-7.8-.4-10.4-6.6-10.7-25.4-11.8-27.6-3.3-6.8-5.3-10.4c-4.7-8.3-13.1-13-22-7.3-5.7 3.6-8 12.9-9.2 19.1-2 11.3-3.7 20.6-4.7 31.5-.6 7.4-4.1 18-5 24.6q-1.4 11.4-4.2 22.6c-1 4.2-3.6 8.3-4.7 12.9a46 46 0 0 1-3.5 11.5 1 1 43.8 0 1-1.5 0 27 27 0 0 1-3.4-8.6c-1-5.7-2.4-12.5-3.2-19.3q-2-19-3.8-31c-1.7-11.7-2.7-26.9-4-37-2.2-15.7-3.9-30.3-6.3-47.7q-2.2-15.7-3-26.1-1.8-23.4-3.2-31.6l-3-17.5q-.7-7-2.1-24.8c-.6-7.7-1.7-13.4-2-19.8-.5-9.3-2.7-20-3.4-28.7-.7-9.5-2.7-19-4-29.1q-.5-4.2-1.9-7.9c-4.6-12.4-23-12-25.4 1.7-1.4 8-3.6 18-4.5 26.8l-2.3 18c-.7 5.4-.8 11.1-1.8 16.5-2 9.5-3.6 17.4-4.4 26.2-1 10.5-2.8 19.5-4 30.6-1 9.2-1.4 15.8-2.8 24.7-1.4 9.5-3 17-4.3 27.9q-2.7 21.2-3.6 25-2.3 10.6-3 17.1-1.3 13.9-4.5 26a1.4 1.4 33.9 0 1-2.6.5q-2.8-3.7-4.7-7.8-6.6-14.9-8-21.4c-1-4.7-3.7-8.6-5-13-.8-3.2-3.1-7.6-4.8-9.6-4.8-6-12.3-6-18.7-2.2l-.7.8q-3.5 5.3-4.8 8.8c-3.4 9-5.8 14.5-8 22.2q-4 14.4-11 31.6-1.9 5-4.2 8.5a1 1-74.7 0 1-.8.4q-27 1.7-55.7 1.6c-10.4 0-23-2.3-32.3 3.4-5.2 3.1-6.5 8-6.8 13.7a3 3 26.6 0 0 .8 2.1c5.7 6.6 12.5 7.9 21.7 7.7l31.5-.7c16.1-.6 32.1.4 47.3.6 11.2.2 16.7-1.8 21-12.3q1.3-3.1 7.8-22.3a.5.5 0 0 1 .7-.3c4.5 1.7 6.9 5.4 8.8 10 6.3 14.3 12.6 33.3 16.6 44.3 2.4 6.6 6.2 13.5 13 16.8q3.5 1.8 11.4 2.4l1-.3q6.8-4.6 8-12.3 1.9-12.8 3.8-30.1 2.8-24.6 7.4-53.3c1-6.4 1.4-11.5 1.9-17.9.4-6.2 2.3-14.5 3.3-21.2q2.8-21 5.1-42.7.2-1.7 1.9-6.8a1 1 0 0 1 .8-.6l2.4.3a1 1-3.9 0 1 .8.6q2.4 9.8 2.5 11.1.8 16.7 3.3 28.4c2.1 10 2.4 16.7 4.1 28.3q1 6.2 1.4 17 .7 18 3.7 35c1.5 8.7 1.5 17.5 3.3 26.4 1.5 7.5.8 13.7 2.1 21 2.5 13.7 3.6 31 5.8 47 1.2 9 .3 18.4 1.8 27.6q2.7 16 5.8 32.2c1.6 8.5 1.7 18 2.3 26.7.3 4.8 1.3 9.9 2 15.4q.7 5 1.9 7.4c3 6.3 8.2 10 15.4 8.7 8-1.4 11.8-11.4 13.1-18.3l2.5-12.4c1.7-8 2.1-16.4 3.9-24.8 1.6-7.4 2.7-16 4.5-27.3q.8-5.1 3.1-14.7c3.7-15.5 5.5-31.5 7.7-47.3q1.5-10.5 4.9-25 1.9-8.2 2.2-10.5c1-7.5 1.4-15.8 5.4-22a1.5 1.5-39.5 0 1 2.6.2c2.7 6.8 5 12 12.8 13.7q7 1.5 15.6 1.6 15.4.4 28.2-1.3 1.6-.3 4-2.2" vector-effect="non-scaling-stroke"/><path stroke="#272a3c" d="M398.3 843.3q.6-.2 1-.1l.5.6q-.3 2 0 4.4c.5 6 1 16.2 2.7 23.8q5.2 25.1 9 38.8 6.7 23.7 19 48.2 14.2 28.3 38.4 54.4 1.6 1.7 1.7 3.8c2.2 30.8 11 61.5 23.6 90q9 20.2 19.5 40 8.6 16.1 16.4 27.8 2.3 3.5 2.4 5.7c.6 9.4.2 18 .2 28.7l.4 177.4c0 7-.4 12.4 1.2 17.9 4.9 16.7 22.5 27 38.6 32.4q27.3 9.1 55.5 6.6c12.7-1 23.4-4 35-8.6 13.3-5.2 30.7-18 31.3-34.1q.3-7.7 1-48.5l.4-4.5a.4.4 18.5 0 1 .5-.3q1.5.9 13.6 9.4c5.3 3.7 10.6 6.6 15.9 10.6q3.4 2.5 12 7.8c8.8 5.4 19.2 12 29 17.8q41.6 24 82 42.5 35.8 16.3 73.1 30 40.5 14.7 80.4 24.8l30.8 7.8q12.4 3 37.3 7.4c25.2 4.5 49.6 6.1 74.8 3.8q40.3-3.8 74.8-26.5 30.2-19.8 51.2-47.8 16-21.3 27.3-42.5 12.8-23.6 24-52.7l6.5-18q3.7-10.2 6-18.2 9.7-33.1 13.8-52.3 13.7-63.9 17.2-134.9c2.7-54.8-4-107.2-15.1-159.8q-2.6-12-7.3-28.4-4.4-15.5-9.3-27.9-3.2-8.2-10.2-23.3-3-6.5-8.4-15.7l-9-15.5" vector-effect="non-scaling-stroke"/><path stroke="#1e121c" d="M1307 846.2q12.8 1.5 17.4 1.3c8.6-.6 18.5-1.3 27.8-1q19.8.5 45.9-.5 7-.2 10.9-4.3 4.3-4.7 5.2-7.7 3.2-11.2 7.6-21.2c1.1-2.5 2.3-6.7 3.6-10.5a1 1 0 0 1 1.5-.1c4.2 7 7.6 17.6 11.7 26.6q3.6 8.1 4.1 10.2 3.7 16.4 12.1 35.6 4.8 10.9 15.3 10.1c8-.5 12.1-7.2 13.4-14.5q2.7-15 5.8-37.6 1.3-8.9 3.7-17.1.8-3.2 2.1-12.4c1.8-11.6 4.5-31.1 7.5-45.6 1.7-8.7 2.8-20.6 4.2-31q.5-3 1.2-5.6a97 97 0 0 0 3.3-14.1q2.2-14.8 3.4-25.6a1.1 1.1 0 0 1 2.2-.2q5.4 16.5 6.1 36.5.3 8.7 1.2 21.2c.5 6.1 3 12.5 3.7 19l2.5 16.6c1.8 11.3 1.8 24 2.5 35 .3 4.7 3.2 10 3.2 15.9q0 6.5.7 12.8c1.5 12.3 2.3 24.4 3.5 36.4.8 6.8 2.9 13.7 3.5 21.2.9 10.3 1.5 20.1 3 30.3 1 6.8 1 16 1.4 21 .5 5.8 1.8 10.6 4 21.7q1.7 8.1 2.4 16 1 10.8 2 25 .3 4.1 1.8 10.4c1.3 5.5 4.2 10.9 9.6 12.7 6.7 2.1 13.3-.2 16.7-6.5q2-3.6 3.4-9c4.3-17 6.6-27.2 9.3-37.2q3-11.6 4.2-19.5c1-7.8 5-15.2 6.2-21.8q2.6-13.5 5.2-22.8c1.3-5.1 1.7-10.7 2.8-15.6 3-12.9 6.4-24 9.3-36.1 1.6-7.3 2.6-11.9 4.6-16a2.4 2.3-79.3 0 1 2-1.4q10-.7 21.8-.7h70.2q5 0 11.2-.5 6.9-.6 10.1-5.5c4-6 2.5-13.8-2.9-18.2q-2.3-1.9-8-2.5-8.9-1.1-14.5-.7c-4.2.3-8.4 1.7-12.8 2q-.8 0 0 0 1.6-.2 2.8.3" vector-effect="non-scaling-stroke"/><path stroke="#8a3d3c" d="m1709.6 821-66.6.1" vector-effect="non-scaling-stroke"/><path stroke="#1e121c" d="m1643 821.1 14.8-1.5a.2.2-45.4 0 0 0-.5q-14.4-1.2-29.6-1c-7.6 0-12.8-.2-17.7 3.1q-3.3 2.2-4.3 4-4 7-5.6 15-1.2 5.6-1.8 7.7c-2.3 9-4.5 19.7-6.5 28L1580 925q-.3 1.2-1 1.9a1 1 0 0 1-1.5-.4q-1.5-3.8-2.3-9.4c-1.7-12.3-3.5-24-4.5-34l-1-7.7c-1.6-10.3-1.8-19.7-3.2-29.7q-1.9-13.8-2.5-20.9c-1.4-15.3-4.2-29.8-5.4-45q-.8-8.5-2.8-24.1-3.2-23.9-4.5-41.5c-.8-11-3.3-22.3-4.1-34.3-.6-10-3.2-22-4.2-34q-1-12.4-2-20.9-2.6-22.4-7-55.6-1.1-9.3-3.3-14.3l-.6-.8q-4.7-3.1-7-3.5-13.7-2.4-16.9 11.3-2 8.5-3.3 18.7c-.4 3-2 8.9-2.4 12.8q-1.8 14.8-4.4 28.3-2.9 14.5-4.3 25.6c-1.3 11.1-6 29.9-7.6 46q-.5 5.4-2.5 15.3-5.5 27.3-10.1 56.5c-.5 2.9-1.8 7.6-2.1 10.3-.9 7-1.1 11.2-2.8 18.2q-1.4 5.7-2.1 12.1a2.2 2.2 7.1 0 1-2.5 2q-1.2-.2-1.5-1.2-1.6-6.2-4.6-12.6c-4.8-10.5-8.4-20.4-12.3-29.7-1.6-3.9-2.3-6.5-3.9-11.4-2.6-8.2-9.3-10.7-17.4-9.1q-7.5 1.7-9.8 9-9.3 28-19.8 54.6-3.7 9.3-14.3 10.3-14.5 1.3-30.7 1.5c-14 0-29.8-.4-46.5-.2-4.3 0-9.3 1.3-13.6 2" vector-effect="non-scaling-stroke"/><path stroke="#272a3c" d="m1287.8 821.1-8.1-7.9a2 2 37.3 0 1-.3-2.4q4-6.9 5.4-10.2 2.4-5.5 4.2-13.1 4.6-20.3 5.8-38.5.6-9.2.7-19.5a1.3 1.3 89.3 0 1 1.2-1.3c5.9-.2 9.8-.7 15.4-.5q7.7.2 22 .2h9.9c9-1.3 16.4-11.2 19.6-19q2.6-6.5 3.6-12.9 3.7-23.1-2.3-45.3-2.1-7.8-8-15.4a20 20 0 0 0-13.6-8.1q-5-.7-16.3-1.2c-6.5-.4-19.2-1.5-27.8-1.4a.3.3 0 0 1-.2-.7q11.5-5.2 28.1-12a16 16 0 0 0 10.3-12.3 74 74 0 0 0-12.5-58q-6.2-8.7-11.3-13.6c-7.4-7.2-15.4-12-26.1-8q-18.4 7-26.2 9.6-7.2 2.3-52.2 19l-6.6 2.3a4 4 52.4 0 1-3.7-.5q-26.9-18-58-25.9a.4.4 41.6 0 1-.1-.8q8.3-3.1 17.6-6 41.2-12.8 85.6-16.6 17.4-1.5 47.7-2 6.9-.2 9.3-1a45 45 0 0 0 25.5-24.5c12.7-28.4 12.6-61 2.1-90.3-5-14.2-16.1-28.2-31-31.3q-8.3-1.7-11.2-1.8-32.4-1.4-57-.5c-10 .4-24 1-35 2.3q-16.2 2-33 4.6a1.4 1.4-11.9 0 1-1.5-1 225 225 0 0 0-24.6-59q-7.6-12.6-22.8-31-5.6-6.7-13.2-13.4l-15-12.8q-3.4-2.8-3.5-6.9c-.3-16.7 5.4-32.5 12.7-47.4l7.1-14.8q4.5-9.3 5-11.4 1.5-7-.4-12.2-3.9-10.5-12.6-18.6-18.6-17.4-43.7-23.2c-9-2-21.6-2.1-29.2 4.2q-2.5 2-5.8 9-9.6 20-17.8 34.4a.4.4 0 0 1-.8-.2q0-2.2.3-4.6c1.5-9.3 4-20.3 5.9-31 1-6.7 3.7-14.3-.8-21.2q-7.2-11-19-15.3-20.9-7.5-44.6-6-9.3.6-19.1 4a24 24 0 0 0-17.7 20.3c-.6 3.6-.4 9-1 13.7q-3 25-4.6 35.1-3.4 22.7-10.6 46.2l-.3.4a1 1 0 0 1-1.2 0c-4.1-5.9-7.2-13.7-13.4-27q-4.8-10.4-9.4-22.3l-12-31c-3.8-9.5-5.2-17.7-15.8-22q-4.6-1.8-8-2.2a92 92 0 0 0-46.6 9.3q-11 4.8-19.8 12-5.9 4.9-8.6 9.4c-4 6.7-6.1 14.7-3.3 22.3 3.2 8.3 8.4 18.6 11.6 26.6q3.3 8.2 7.8 20.8a.3.3 0 0 1-.5.3q-15.7-19.7-39.7-13.5-3.4.9-7.3 2.7-4.5 2.1-6.8 3.9c-2.6 2-6.9 5.2-10 8-12.2 10.8-17.4 15-25.3 23.2a.7.7-30.2 0 1-1.3-.3l-14-55.4c-5.5-21.7-24-26.9-43.9-27.5A160 160 0 0 0 549 144q-9.7 4.1-16 8.2a69 69 0 0 0-22.9 22.3q-5.2 9.8-2.5 21.2 9.6 40.2 15 73.6 4.6 28.9 6.6 51.7l.6 8a1.1 1-9.1 0 1-.8 1.1q-11.4 3-26.1 6.1c-7.3 1.6-12.6 3.2-21 5.6-10.4 3-20 6.8-30.9 10.6q-12.7 4.4-15.4 5.9c-14.4 7.5-20.7 23-23 39.2a105 105 0 0 0 15.2 73.6c6.4 9.3 16.7 16.1 28.3 12.8 24.4-6.9 48.2-13 72.2-16a.8.8 0 0 1 .9 1l-6.5 36.8q0 1.5-.4 3.7a436 436 0 0 1-16.2 54.3l-.9 1.4-4.3 4q-7.2 6.5-15.6 15.5-8.9 9.4-14.6 16.6-26.2 33-43 71.5-9.8 22.7-13.8 36.3-5.6 18.8-7.4 27.3-8.4 39.4-8.5 79.7a2.6 2.3-42.4 0 1 0 .5q-.5 2.5.3 5 .1.5-.8.4" vector-effect="non-scaling-stroke"/><path stroke="#302534" d="m1287.8 821.1 8.7.5" vector-effect="non-scaling-stroke"/><path stroke="#9c5054" d="M1296.5 821.6h-7.5a.3.3 0 0 0-.2.5l15 19.7a3 3-18.5 0 0 2.2 1h45.2" vector-effect="non-scaling-stroke"/><path stroke="#302534" d="M1351.2 842.9h-45.9a.5.5 0 0 0-.3.8l2 2.4m-908.7-2.8-1.3-.2" vector-effect="non-scaling-stroke"/><path stroke="#9c6769" d="M397 843q1.7.4 1.6-1l-.3-1.8" vector-effect="non-scaling-stroke"/><path stroke="#9c5054" d="M398.3 840.2q-.5-8.6-.4-17.2 0-.4-.5-1" vector-effect="non-scaling-stroke"/><path stroke="#933733" d="M1643 821.1h-18q-8.4 0-11.3 1.5-5.1 2.5-6.7 8.9-9.6 39-14.9 61.8-5 22.1-8 33.8-7 27.4-8.4 33.7h-.1l-1-8.5q-1.2-12.8-10.7-98.2-4.2-38-11.4-98.2c-4.9-40.5-8.7-78-14.3-123.6-2.6-21.7-5-44.7-7.8-67.5q-.7-4.9-1.6-6.6c-4.7-8.7-17.5-6-19 3.3q-10.4 61.6-17.8 107.6l-5.2 31.4-20.2 120-1.3 8.5q0 .5-.5.4t-.8-.9q-10.8-31.6-27.6-75.5a10 10 0 0 0-19.2 0q-12.5 33-23.6 67a2 2 0 0 1-1.8 1.4l-95.3.2m-899.1.4-36-.2a2 2-13.7 0 1-2-1.2q-1.7-3.4-4.4-9.6-10.8-24.8-17.7-39-2.5-5-8-5.2c-6.7-.3-10.8 4.5-11.9 10.6q-14.8 83-27.2 154.8l-3 18.1h-.3q-.5-7.2-1.5-16.4c-2.4-20.5-5.3-49-8-71.5-7.4-59.4-10.6-89.4-18.2-153-6.1-51.7-10.9-97.5-16.9-145.9q-.7-5.8-4.3-8.3-4.2-3-9.3-1.3-6 2-7.1 9.7-21.2 153.7-31.3 228.4-3.2 23.9-4.5 36.7a.3.3 0 0 1-.6 0q-6-16.1-27.3-74.8c-3.5-9.6-16.2-10-19.7 0l-1.2 3.5q-18.5 57.4-20 61.6l-1.1 3a1 1 0 0 1-1 .7l-84.2.2c-7 0-13.3 6-11 13.4 1.6 4.9 6.9 7.5 11.8 7.6q25.2.1 91-.1c7 0 10.5-5.3 12.4-11.6q8.4-27.5 13.6-43.3h.3l30.6 86.2q1.6 4.4 3.3 6 2.6 2.4 6.1 2.9 6.1.8 9.6-3.3 1.9-2.3 2.9-10c6-48 13.2-96.1 19.6-146q6.5-51.4 8.8-68l1.3-9.1a.2.2 0 0 1 .4 0q.7 8.3 2.3 23.2c3.6 32.4 9.7 79.4 14 118.8q9.2 84 22.9 197.9 1.7 14.3 3.9 29.6l1 6.5a11 11 0 0 0 13 7c4.2-.8 6.7-4.6 7.4-8.7q11.6-66 14.7-84.7 9.4-56.4 20.3-116.8l1.8-8.5h.3q5.4 12.8 11.6 24.7 2.6 5 8.3 6.4" vector-effect="non-scaling-stroke"/><path stroke="#934f48" d="M352.9 843H397" vector-effect="non-scaling-stroke"/><path stroke="#ff7a68" d="M398.3 840.2q-6.7 1.5-11.2 1.2-5.8-.4-22-.5-7.2 0-12.2 2" vector-effect="non-scaling-stroke"/><path stroke="#933733" d="M1709.6 821h16.7q8 0 9.4.4c6.2 1.6 11.5 8.4 8.5 14.6q-3.1 6.5-11 6.5H1627a1 1 0 0 0-.9.8c-3.6 16.9-8.2 33.3-13 53-9.5 38.3-17.2 71.3-29.1 122.5-1.3 5.7-3.9 11.3-10.7 11.4q-9.7 0-11-9.4-3-23.5-16.4-138.8-10.8-94.2-16.4-144.7-6.8-61.2-10.8-95.7h-.3q-9 51-15.3 89.6c-6.8 41.5-13.8 81.3-20.9 124.8l-3 17.8c-1.1 5.2-4.8 8.2-10.2 8.4q-7.7.3-10.8-8-4.5-12-12.6-35.5-10.7-31-18-51.2a.3.3 0 0 0-.5 0l-9.4 26.3q-4.6 13.2-8 20.9-1.7 4-3.4 5.2-4 2.8-9.7 2.8l-45.3.1" vector-effect="non-scaling-stroke"/><path stroke="#9c6769" d="M735 326.8q-10.1 15.1-13 20-16.4 28.6-26.3 60.1A297 297 0 0 0 684 521.4l.5.6 15.5 5.6" vector-effect="non-scaling-stroke"/><path stroke="#9c5054" d="M700 527.6q11.2 5.2 20.6 10.8 21 12.4 37.3 31.1" vector-effect="non-scaling-stroke"/><path stroke="#894347" d="M758 569.5q6.3 7.8 9.6 12.9 9.5 14.2 14.3 31.8" vector-effect="non-scaling-stroke"/><path stroke="#41394e" d="M781.9 614.2q-.5 2 1.2 3.4h.6l8.7-10q1.9-2 12-16.5l-.2-.2h-.3l-5.5 6a.3.3 0 0 1-.4-.2v-2.2" vector-effect="non-scaling-stroke"/><path stroke="#894347" d="M798 594.5q20-28.2 42.3-54.7 1.6-1.8 1-3.8-3-9.7-4.7-18.4-1.7-9-2.2-19-1.3-30.2 9-58.7a175 175 0 0 1 7.5-17q3.3-6.8 11.4-18 8.2-11.5 19.7-20.3c27.1-20.7 61.3-29 94.5-18.2q18.1 5.8 31.6 19.8h.3q.3 0 .5.3 1.7 2.3 5.4 1.8 17.7-2 30.4-4.5" vector-effect="non-scaling-stroke"/><path stroke="#41394e" d="M1044.7 383.8c5.3 3.3 8.4 1.7 14 .4q16.7-3.9 28.4-7c9.6-2.5 21.2-4.5 30.9-7.5 4.6-1.5 9.8-2.3 14-3.5 6-1.7 6.1-6.9 4.5-12a180 180 0 0 0-14.7-34.2c-4.5-7.8-11-20.8-18.4-29.9q-8.2-10-17.9-18.8a247 247 0 0 1-21-20.8c-8.7-10.2-7.3-21.8-4.9-34q1.7-8.6 4.8-17.2 5-13.8 7.3-18.6 4-8.2 7.8-15.2c4.6-8.6 6.6-14-1-20.5q-6.2-5.2-14.3-10a41 41 0 0 0-22.4-7.5c-10.3.4-10.8 7-14.6 14.2q-4 7.7-8.6 18.8a80 80 0 0 1-5.9 11q-9.8 15.5-19 34.3c-3 6.6-10.9 15.3-19 13.3-7.8-1.9-7.6-15.4-7.3-21.3a531 531 0 0 1 11.5-79c1.7-8.9 2.1-14.2-7.2-17.4q-16.1-5.6-33.3-5.4c-8.8 0-16.2 4.8-17 14.2a463 463 0 0 1-10 62.2q-1.9 8.2-3 14.1-1 6.4-4.9 16.6c-3 8.4-6.7 15.6-14.6 18.4-7.6 2.7-16.4-2.5-20.6-8.7-8.3-12.2-12.8-22.6-20.3-37.7-4.6-9.2-9.7-23.2-14.2-33.2q-4-8.7-6.1-14.8c-3.3-9.8-2.4-15.4-14.5-16.4a3.9 3.8 41.4 0 0-1 0 69 69 0 0 0-25.6 8.2l-14.9 8.6c-6.7 3.8-5 10.4-2 16q7.9 14.4 13.6 30.6c1.7 4.8 2.6 10 3.4 14.3 1 6.6 2.8 12.5 4.7 20.1q1.3 5.5 1.5 9.5c1 19.8-2.1 42.8-17.4 57.3-4.6 4.3-11.6 10.7-16.6 16.9q-12.3 15.2-20.6 27.3-2 3-3.2 7.3" vector-effect="non-scaling-stroke"/><path stroke="#913f41" d="m1044.7 383.8 8.7-1.7" vector-effect="non-scaling-stroke"/><path stroke="#a46363" d="m1053.4 382.1 17.6-4.4" vector-effect="non-scaling-stroke"/><path stroke="#a44c4e" d="M1071 377.8c21-6 42.1-11.5 63.9-15.5a.4.4 0 0 0 .3-.5q-4.9-17.4-12.2-33.2c-2.8-6-6-11.4-8.5-16.2q-3.2-6.2-7.2-11.8a201 201 0 0 0-34.2-37.3q-3.9-3.3-9.8-9c-11-10.9-9.4-27.3-6.6-41.1q3.5-17 12-35l5-10.1c2.6-5 5.5-9.2 7.5-14a3 3 0 0 0-.6-3q-14.4-14.7-34-20.7-4.7-1.4-9-1.7a1.6 1.5 13.4 0 0-1.5 1q-18.8 43.4-43.4 82.4c-4 6.3-8.7 12.1-17.1 10.5q-9-1.7-10.2-11.6-1-8 0-21.8 2.5-39.3 11.8-78.5c.7-2.7 1.6-4.1-1.5-5.2-15.4-5.8-33.4-8.8-49.2-3.7a1 1 83.5 0 0-.8.9q-2.2 32-7.8 62a247 247 0 0 1-9.4 34.8q-2 6-5.7 13c-7.3 14.4-23.7 16.4-34.9 5-2.6-2.7-4.3-6.2-6.5-9.9q-7.3-12.5-17-33.9a501 501 0 0 1-22.8-57.6 3 3 0 0 0-2.6-2q-5.4 0-11 1.2-13.7 2.9-25.7 9.1" vector-effect="non-scaling-stroke"/><path stroke="#a46363" d="M782.3 124.4q-6.2 3.4-11.3 7.8-1.8 1.5-.9 3.4c13.3 26.5 23.8 51.3 26.6 78.7a81 81 0 0 1-15.8 60c-7.6 9.4-14.8 16.7-30.4 33.2q-4 4.3-15.4 19.3" vector-effect="non-scaling-stroke"/><path stroke="#ec6d5b" d="M1053.3 380.4q.3.5 0 1.7" vector-effect="non-scaling-stroke"/><path stroke="#913f41" d="m798 594.5-14.9 22a.4.4 0 0 1-.6-.2l-.6-2.1" vector-effect="non-scaling-stroke"/><path stroke="#ff7a68" d="m1071 377.8-5.8-2.2-.9-.1q-6 .9-11 5" vector-effect="non-scaling-stroke"/><path stroke="#ec5546" d="M1053.3 380.4q-4.4-5.8-9-11-20.8-21.8-48-33.7-14-6.2-27-8.7c-18.3-3.3-39-3-57.9 1.7q-11.6 2.9-14 3.9-15 6-18.4 7.7a168 168 0 0 0-62.8 56.1l-5.9 9.1a248 248 0 0 0-18.7 40.7q-7.1 20.5-10.5 42-1.6 10.7-3.6 27.8-1 7.6-1.7 11.4a81 81 0 0 1-6.4 22q-3.5 6.6-8.4 14.3h-.4l-13.2-12h-.2l-.2.1v.3l12.5 12.5.2.8-1.8 4.1" vector-effect="non-scaling-stroke"/><path stroke="#ff7a68" d="M700 527.6q-1.5-6.6-1.4-13.6.5-20 3.3-40c1.4-9.7 4.6-22.6 6.1-29.5q2.5-11.1 5.3-20 5.7-17.4 6.6-19.6l6.4-15.1q2.6-6.3 9-18.5c1.9-3.6 4.7-7.6 6.7-11.3q1.7-3.4 5.2-8.4 11.8-17 19.6-26 6.1-7 18.3-19.1 7.6-7.5 10.5-11.1 7-8.9 8.8-12.5c6-13 9.7-25.4 10.7-39.4q1.5-20.3-2.3-39.6-1.5-7.7-5.3-19.2a536 536 0 0 0-18.3-46.5l-3.4-7-3.5-6.8" vector-effect="non-scaling-stroke"/><path stroke="#474e6b" d="m580.2 158.2-10 2.8q-14.8 4.7-26.2 12.5-5.4 3.7-8.9 8.5a1.7 1.7 0 0 0 1 2.6q11.3 3.4 23.4 2.7c9-.5 18-1.5 26.6-3.9l10-2.9q14.8-4.6 26.3-12.4 5.4-3.7 8.8-8.6a1.7 1.7 0 0 0-.9-2.6q-11.4-3.3-23.4-2.6c-9 .5-18 1.4-26.7 3.9" vector-effect="non-scaling-stroke"/><path stroke="#636f88" d="M557 207.7q-10.3.8-20-2a.3.3 0 0 0-.3.4q6.7 30.9 11.8 63 2 12.6 4 30.8l3.3 30.8q7.6 76.3-3 152.2-4.2 30.6-12.8 58.9a.3.3 0 0 0 .5.3c7.4-3.8 13-6.7 20.6-9.7l8.4-3.6" vector-effect="non-scaling-stroke"/><path stroke="#525b76" d="M569.5 528.8q25-9.4 49.7-12.4" vector-effect="non-scaling-stroke"/><path stroke="#474e6b" d="M619.2 516.4q19.8-1.6 38.4.6a1.2 1.2.6 0 0 1.4-1.3c-.5-5-1.3-9.4-1.3-14.3q-.2-17.5.2-22.9 2.3-36.1 11-71 1.7-6.7 6-18.8 11.4-32 27.8-58.3c4.2-6.8 9.3-14 13.8-20.4q3.3-4.9 14.1-17.4 10.5-12 21.3-23.8l-.1-.3q-7.5-3.6-14-10.4" vector-effect="non-scaling-stroke"/><path stroke="#525b76" d="M737.7 258q-11.8-15.3-20-34-2-4.6-3-9.5a1 1 0 0 0-1-.4L686 238.6c-7.4 6.2-15.6 18.8-26.2 10.5a14 14 0 0 1-4.6-7.6q-6.4-27-15.5-61.2a.2.2 0 0 0-.4-.1 95 95 0 0 1-34.2 18.3q-16.7 5.8-34.7 8.3-6.7 1-13.4 1" vector-effect="non-scaling-stroke"/><path stroke="#5f6c8d" d="M737.7 258q-11.5 10-21.8 21.1l-8.4 8.7q-6 6-20.7 23.2a198 198 0 0 0-23.8 34.5l-8.7 15.8q-5.1 9.6-12.3 27.9a336 336 0 0 0-20.9 93.3q-1.7 19.2-2 33.9" vector-effect="non-scaling-stroke"/><path stroke="#7b8daa" d="M569.5 528.8q9.9-40.3 13.1-76.6 5.3-59.8-1-121-1.8-17.2-2.4-21-1.5-9.4-3.2-22.2-1.3-10.2-4-22.2-6.3-29.7-8.4-38.2l-4.6-19-.6-.6-1.4-.3" vector-effect="non-scaling-stroke"/><path stroke="#525b76" d="M732.3 200.1a1 1 85.1 0 0-.8 1c-.7 13.4 4.3 24.5 11.3 36.7 4 7 9.8 14.8 16.7 19.3q1.7 1.1 3.5-.3 4-3.1 4.5-8v-1q-.8-5.2-2.9-9.9c-6.4-14.6-15.3-29.3-29.3-37.1q-1.7-1-3-.7m-295 205.4Q435.6 423 441 441" vector-effect="non-scaling-stroke"/><path stroke="#474e6b" d="M441 441q2 5.2 4.6 10.6c1.8 3.4 4.4 7.4 8.1 6.4 9.4-2.7 20-5.7 30.2-7.8q24-5 47.6-8a1 1 87.6 0 0 .9-1l1.1-24.9" vector-effect="non-scaling-stroke"/><path stroke="#525b76" d="M533.5 416.3q1.1-18.8 0-37.3" vector-effect="non-scaling-stroke"/><path stroke="#636f88" d="m533.4 379-.9-22.8a1 1-7 0 0-1-.8q-20 4.1-39.7 10.2-22.9 7-42 14.3-2 .8-6.4 3.6l-1 1a54 54 0 0 0-5 21" vector-effect="non-scaling-stroke"/><path stroke="#7b8daa" d="M533.4 379q0 .8-1.7.4a2.5 2.3-41.3 0 0-.9 0q-28.2 4.7-45 10.1l-37 12-11.5 4" vector-effect="non-scaling-stroke"/><path stroke="#5f6c8d" d="M533.5 416.3q-16.8 2-28.1 4.8-10.7 2.6-37.4 10.3-5 1.4-10 3.3l-10 3.6q-3.5 1.2-7 2.7" vector-effect="non-scaling-stroke"/><path stroke="#525b76" d="M962.8 415q-11.9-1.7-18.5-3-19-4.2-36.5-12.8a3 3 39.9 0 0-3.2.3q-31.2 22.8-40.7 59.8" vector-effect="non-scaling-stroke"/><path stroke="#636f88" d="m863.9 459.3-3 18.4a2 2-67 0 0 .8 1.8c10.6 8.2 13.8 20 14.4 33q.6 15.7-8.7 29.9-8.8 13.3-19.8 27.7-22.3 29-40 54.6-2.6 3.7-5.7 9.1a1 1 0 0 0 .8 1.4q14.8.1 31.8 2.3" vector-effect="non-scaling-stroke"/><path stroke="#525b76" d="M834.5 637.6q17.8 2.1 38.6 7Q900.7 651 926 661" vector-effect="non-scaling-stroke"/><path stroke="#474e6b" d="M926 660.9q5.8 2.6 11.4 5.5l11.4 5.5q13 6.2 24.5 14c6.4 4.5 12.9 7.7 18.3 13a.4.4-67.5 0 0 .6-.3q.4-20.2 3.9-40.6 3.4-20 12.2-41.7c2.2-5.5 4.8-9.7 7-14.5q2-4.5 5.7-10.5 10.2-16.4 17.8-25.5 10.7-12.5 18.5-19.5l7.6-6.6c9.5-8.3 20.2-15.7 30.4-22 8.2-5 18.4-9.8 26.8-14q1.8-1 8.5-3.6 15.7-6 39.2-12.3 7.7-2 18.6-4.1c14.5-2.8 23.7-4.6 35.1-5.9q19.3-2.1 44-3.7a.7.7 0 0 0 .5-1q-6.6-13-9.5-27.2" vector-effect="non-scaling-stroke"/><path stroke="#525b76" d="M1258.6 446q-3.8-24.7 2-50.1" vector-effect="non-scaling-stroke"/><path stroke="#636f88" d="M1260.7 395.9q2.5-10.1 7.8-20.2a.6.6-73.7 0 0-.5-.8q-3-.3-9.7-.3c-23.4-.2-47.5 1.6-71.4 4.6q-24 3-48.6 8-13.5 2.7-42.7 10.4-23.3 6-42.8 10.4c-30 6.7-59.6 9.6-90 7" vector-effect="non-scaling-stroke"/><path stroke="#7b8daa" d="M1260.7 395.9q-29.5-.8-58.5 3.4-25.2 3.6-46.8 8.2-24.5 5.1-54 13-1.2.2-29.7 8.2c-28.9 8.2-59 12.8-88.3 8.1a73 73 0 0 1-34.3-13.4 1 1-43.9 0 1 0-1.4q7.3-5.4 13.7-7" vector-effect="non-scaling-stroke"/><path stroke="#5f6c8d" d="M1258.6 446q-28.9 0-44.1 1.1-17.8 1.4-35.8 4a415 415 0 0 0-60.3 14.8q-13 4.2-30.4 11.5a265 265 0 0 0-81.8 55c-4 4-7 8-11 12.1-5 5.3-10.5 12.8-14.6 17.8q-3.1 3.8-6.4 8.6-12.1 17.6-22.4 36.7c-3.7 7-7.4 15.2-10.8 21.6q-2 3.7-11 23.6c-1.1 2.6-2.8 5.3-4 8" vector-effect="non-scaling-stroke"/><path stroke="#7b8daa" d="M834.5 637.6q6.7-8.6 11.8-16.3 13.9-20.6 23.1-33.4c7-9.7 13-19 17.2-28q7.6-16 10-33.2 2.2-15-1.6-30-3-11.7-13-22.8-8.7-9.8-18.1-14.6" vector-effect="non-scaling-stroke"/><path stroke="#474e6b" d="M1281.6 453.9c2 6.3 8.9 23 18 14.8 2.4-2.2 6.1-8.8 7.3-12.2a105 105 0 0 0 1.2-57.3c-1.4-6.3-6-18.4-12.4-20.2q-4.6-1.4-7.6 3.8-6.3 10.6-8.7 23.3-4.7 24.5 2.2 47.8" vector-effect="non-scaling-stroke"/><path stroke="#9c6769" d="M575.2 553.6q-26.8 11.3-49.4 29" vector-effect="non-scaling-stroke"/><path stroke="#41394e" d="M525.9 582.5q-10.5 4-18.7 12.7c-5.3 5.5-11.2 11-16 17-8 10.1-12.2 14.9-17.8 23.5q-14.7 22.4-24.9 45-.6 1.6-7 13.7a51 51 0 0 0-4.7 12q-3.7 17-7.5 29.4c-2.8 9.2-4 18.3-5.9 27.7q-1.2 6-1.5 9c-.5 7.3-1.4 15-1.5 22.7q-.1 11.4-.4 22.2c-.3 8.3 1.1 16.2 2 24.7q.2 1.7 0 7.7c-.5 8.7 1 19.7 4 28.5q2.4 6.7 4 14.3c3.1 14 8.9 28.2 13.9 40.6 3.7 9 8.7 17.3 12.7 26q2.2 4.9 6.1 10.4l7 10q.4.5 1 .3t.8.3a1.7 1.7-38.4 0 0 3 .2c4.7-7.6 8-17.2 10.3-26.8q2-8.2 2.7-10 4.1-10 9-23 2.7-7.2 5.2-11.5 5.3-9.3 11.6-21.8 6.5-12.8 14.4-22.5c5-6.2 12.4-15.5 20-22.8q10.5-10.2 22.2-22.2l1.2-1.6 2.4-4.2v-.4q-.5-1.2-3 .6" vector-effect="non-scaling-stroke"/><path stroke="#894347" d="M570.4 814.2q14.5-12.4 29.6-24 4.2-3.2 7.9-5.6 27.8-18 55-34.2 14.9-8.8 23.7-15 9.3-6.5 22.3-17 23.5-19.1 38.2-44.4 5.6-9.7 8.1-17.5 5.3-15.7 2.9-32" vector-effect="non-scaling-stroke"/><path stroke="#9c5054" d="M758 624.4q-3.6-20-16.7-34.2" vector-effect="non-scaling-stroke"/><path stroke="#9c6769" d="M741.3 590.2q-31.4-38.7-80-47.4" vector-effect="non-scaling-stroke"/><path stroke="#41394e" d="M661.3 542.8q-3-1.4-8.2-2.5-18.2-4-35-1.5-16 2.3-21.3 3.8C585 546 573.6 551.3 565 555l-.1.4.3.1q4.8-2 10-1.8" vector-effect="non-scaling-stroke"/><path stroke="#a46363" d="M661.3 542.8q-44.7-6.6-86.1 10.8" vector-effect="non-scaling-stroke"/><path stroke="#ff7a68" d="M741.3 590.2q-19.2-6.8-38.2-12.6c-8.3-2.5-17-3.9-25.2-5.5q-8.7-1.6-24.4-2.2-25-1-48.8 4.6c-4.2 1-8.4 2.5-12.7 3.6a97 97 0 0 0-15.8 6c-6 2.4-14.7 7.5-17.7 9.2q-8.5 4.8-11 6.5-22.1 15.3-36 29.4-7.6 7.7-19.6 23.6c-4.2 5.7-6.4 9.5-11.3 17q-11 16.8-21.7 40.4-1.3 3-2.2 6a.6.6 37.3 0 1-1.1 0l-.2-.2" vector-effect="non-scaling-stroke"/><path stroke="#ec6d5b" d="M455.4 716q6-30.8 18.1-59.6 3-6.9 6.4-13.5 3.5-6.7 6.6-13.5 1.1-2.4 4-7 .9-1.3 4.7-8.5" vector-effect="non-scaling-stroke"/><path stroke="#a46363" d="M495.2 614q10.3-13.7 17.3-19.7 6.6-5.6 13.4-11.8" vector-effect="non-scaling-stroke"/><path stroke="#913f41" d="m495.2 614-3.6 3.6q-2 2-3.5 4-20.6 26.6-34.2 56-26.1 56.2-29.5 118.9-1.2 23 1.3 49.5c.2 1.8 0 3.6.3 5.1q.7 5.8 2.4 16.4 7 44.2 28 84.5 7.6 14.5 17.7 27a.5.5 0 0 0 .9-.1q14.8-78.2 67.7-137.5 11.3-12.6 27.7-27.2" vector-effect="non-scaling-stroke"/><path stroke="#ec5546" d="M758 624.4q-.4 2.9-1.7 4.2a2 1.9-19.8 0 0-.6 1.1l-1.8 17.8.7-16.9q.4-9-.8-14c-1-4-5.7-16.5-10.5-18a.4.4-80.5 0 0-.5.4c-.1 3.4-.1 6-1 9.3-1.1 4.9-1.7 9.2-3.4 14.6q-7.4 22.8-21.2 41.4-16.7 22.7-40.5 41-22 16.9-46.3 31.3-5 3-31.2 17.8c-9 5-18.2 10.7-26 15.5q-27.2 16.7-47.3 37.8L509.5 825a66 66 0 0 1-18.7 15.5c-20.9 10.2-31.8-13.5-35-29.2q-2.4-11.4-3.3-20.3-3.6-36.1 2.4-73l.5-2" vector-effect="non-scaling-stroke"/><path stroke="#894347" d="m1246.1 594.7 13.3 19.2a1 1 0 0 0 1.4.4q25.6-12.7 52.4-22.8a2 2-10.9 0 0 1.2-1.7q-.3-11-4-21.4" vector-effect="non-scaling-stroke"/><path stroke="#9c5054" d="M1310.4 568.4q-4.4-13.2-15.3-24a2 2 0 0 0-1.7-.3c-2.9 1.2-6.2 2.8-9 3.8L1235 566q-6.3 2.3-10.3 4.1a.6.6 0 0 0-.2.9q11.5 11 21.6 23.7" vector-effect="non-scaling-stroke"/><path stroke="#ec5546" d="M1310.4 568.4q0 1-.7 1.6-.3.3-2.4.6-4.4.6-8.4 1.8a248 248 0 0 0-30.8 12q-11 5-22 10.3" vector-effect="non-scaling-stroke"/><path stroke="#894347" d="M1074.5 564.8q-22 21.6-36.3 49-5.4 10.2-8.7 19.5-4 10.8-6.3 20.3-4.8 19.3-5 40 0 4.5 2.9 8.3 6 8.3 11.9 14" vector-effect="non-scaling-stroke"/><path stroke="#41394e" d="M1033 716q5.2 7.6 7 9.3 9.8 8.4 21.5 13.8 9.3 4.3 16.9 7 4.2 1.4 5.1-2.2" vector-effect="non-scaling-stroke"/><path stroke="#894347" d="M1083.6 743.9c20.8 5.7 42.4 9.1 63.6 13a379 379 0 0 1 70.5 18.9" vector-effect="non-scaling-stroke"/><path stroke="#41394e" d="M1217.7 775.8a47 47 0 0 0 25.6 11" vector-effect="non-scaling-stroke"/><path stroke="#894347" d="m1243.3 786.9 13.7 8.6a1.2 1.2 0 0 0 1.8-.6l4.4-13.4" vector-effect="non-scaling-stroke"/><path stroke="#9c6769" d="M1263.2 781.5q5.4-18.3 6.2-35.4c1.3-28.4-5-58.5-15.5-85.8-24.2-63.2-81-113.2-151-115.2q-3 0-4.9 1.1-11.6 7.3-23.5 18.6" vector-effect="non-scaling-stroke"/><path stroke="#ec6d5b" d="M1263.2 781.5q-1.2-1-2-2.6" vector-effect="non-scaling-stroke"/><path stroke="#ff7a68" d="m1261.2 779-3-8a1.5 1.4 33.4 0 1 0-.3c-1.7-18.8-2.5-30.1-6.5-45.1-6.6-24.4-17-47.5-29.8-68.9q-15.6-26.2-37.2-46.2-16.7-15.6-40.5-28.5-3-1.6-6-2.7c-5-1.7-9.5-4-15.1-5.7q-19.3-6.3-39.9-8.4h-1.7" vector-effect="non-scaling-stroke"/><path stroke="#ec6d5b" d="m1081.5 565.2-7-.4" vector-effect="non-scaling-stroke"/><path stroke="#ec5546" d="m1081.5 565.2.1.4-.1.4q-19 21.7-25 47.5-6.5 28 5.8 52.9c11.8 24 31.9 40.4 56.8 50 4.5 1.7 8.4 2.6 13.5 4q4.2 1.3 10.2 2.6 29.9 6.6 47.4 12.1a169 169 0 0 1 53.4 28.5c6 4.8 12.4 9.3 17.6 15.3" vector-effect="non-scaling-stroke"/><path stroke="#913f41" d="M1243.3 786.9q-12.5-6.3-25.6-11.1m-134.1-31.9q-23.4-6.8-41.3-20-2.1-1.4-9.3-8" vector-effect="non-scaling-stroke"/><path stroke="#894347" d="m1286.1 677.2 5.6 25.4a1 1-7.7 0 0 1 .9q22.6-1.2 44.5-.8a2 2-80.7 0 0 1.8-1.3q3.7-12 3.4-24.2" vector-effect="non-scaling-stroke"/><path stroke="#9c5054" d="M1342.4 677.2c-.1-4.7-1.6-22.9-5.6-25.4l-.8-.3q-5.3-.7-11.5-.8-23.3-.6-46.3-.3l-.5.7 8.4 26" vector-effect="non-scaling-stroke"/><path stroke="#ec5546" d="m1342.4 677.2-.2 3.3a.5.5-82.1 0 1-.6.5q-28.4-5.8-55.5-3.8" vector-effect="non-scaling-stroke"/><path stroke="#9c5054" d="M789.7 659.9h-8.2a1 1-82.6 0 0-1 .8q-2.4 9.1-7.2 18.6-9.2 18.4-21.4 32.4-8.4 9.6-13 14-24.2 23.4-52.9 40.6-13.2 8-32.9 19.4-23.3 13.5-47.4 32.3" vector-effect="non-scaling-stroke"/><path stroke="#894347" d="M605.7 818q-19 14.3-35.6 31.4-6.6 6.9-13 13.9" vector-effect="non-scaling-stroke"/><path stroke="#41394e" d="M557.2 863.3q-2.9 2.2-5.6 2.6a2 1.9-75.6 0 0-1.2.8c-6.4 8.5-12.8 16.6-18.4 26.2q-2.7 4.8-7 11.9a1 1-66.4 0 0 .6 1.5q.7.2 2.2-.3" vector-effect="non-scaling-stroke"/><path stroke="#894347" d="M527.8 906q-15.4 27.3-22.6 54.5-5.8 21.8-7.9 40.3-1.8 16.4 1.6 32.5c1.8 7.9 3.7 19 6.6 28.1q9 29.4 22.7 57.6 3.4 6.8 6.4 12l4.9 9q14.1 24.4 30.8 48l12.8 16.8q7.5 9.6 13.4 16.4 33.7 38.8 71.2 70.3 13.5 11.3 32.2 25.7" vector-effect="non-scaling-stroke"/><path stroke="#41394e" d="m699.9 1317.2-6.4-3a.5.5 0 0 0-.5.8 23 23 0 0 0 4.9 4.7q11.7 8 21.7 15.7c2.8 2.2 6.3 3.8 8.8 5.2q2.4 1.3 6.4 4.3 12.8 9.5 20.4 14.1l19.6 12c12.7 8.2 26.7 14 39.8 21.8q3.6 2 10.1 5.1 12.1 5.6 18.4 8.3c6 2.5 11.9 6.2 17.4 8.9q14 6.9 50.9 21.8c11.4 4.7 39.7 13.8 63.8 22.4q11.1 4 17.5 5.7 5.3 1.4 9.6 1.6a1.6 1.6-85 0 0 1.7-1.4c.8-6.4-.1-11.5-2.3-18.8-3.5-11.8-4.5-22.7-6.7-34.3q-1.7-9-2.2-18l-1.4-23.7q-.3-8.2 1.2-31.6.4-6.8 2.2-20c1.4-10.2 1.9-18.2 3.7-25.5 3.6-13.8 7.5-31.7 12.6-47.8 1.8-5.7 2.8-11.7 4.8-17.8 2-5.8 3.3-9.5 4.3-14.3q1.1-5.6 3.2-11.5 4.3-12 6.4-17.2 4-9.4 5.9-16.5.5-2.3 5.7-16.6 1.4-4 17.3-54 1-3.3 2-7.4l5.4-25.7q2.4-11.6 4.5-26l5-36.9c1.5-12 .4-29.6.8-40.8.3-7.7.8-19.2 0-28.2q-1.1-11.7-3.9-32.8c-1-8-3.2-15-3.8-22.1q-.5-5.9-2.9-14.9-7-26.8-16.7-52.2c-2.1-5.6-5.6-10.8-8.2-16.3q-7-14.3-19.2-32-4.4-6.4-10.5-9.3" vector-effect="non-scaling-stroke"/><path stroke="#9c5054" d="m1011.3 753-11.7-13.6q-13-14.2-29.9-26-12.2-8.4-25-15.6-13-7.2-26.8-12.8-40-16.3-82.7-22.6-11.5-1.7-23.2-2.3" vector-effect="non-scaling-stroke"/><path stroke="#41394e" d="M812 660.1q-5.6-2.9-12.3-2.4-10.4.8-18.2 2-.4.1.3.1h8" vector-effect="non-scaling-stroke"/><path stroke="#a44c4e" d="m812 660.1-22.3-.2m221.6 93.1q4.1 5.3 7.9 10.7c3.2 5 6.8 9.6 9.7 14.4q12.9 21.1 20.2 40.5a422 422 0 0 1 25.1 133.6q.6 16.4-1.5 35.3" vector-effect="non-scaling-stroke"/><path stroke="#ec5546" d="M1072.8 987.5c-2.8 7.5-4.3 16.4-5.6 22.5-1.6 7.8-3.6 14-6.2 23.2q-2.6 9-5.2 15.8l-3.1 8.5q-4.2 11.5-8.4 22.4a531 531 0 0 1-15 35.4 903 903 0 0 1-27.2 53.8q-17.9 31.9-37.2 58.8-19 26.6-42 46.8-8.5 7.5-17.6 13.4-23.4 15.2-51.6 17.7c-19.9 1.9-41-3.4-59-12.1a337 337 0 0 1-73.8-50.4q-54.5-48.2-94.7-109c-5.2-7.8-10.2-16.6-15.2-24.5q-5-8.2-10.6-18.9-14.8-28.5-23.7-55.2-10.5-31.4-14.7-59.1-2.8-19-2.9-25 0-13.6.5-22.3 1.9-30 13-58.8c2.4-6.3 5.6-12.2 8.5-17.9q3.4-6.6 10.8-17.3 1.7-2.4 5.1-6.3 4.6-4.7 8.7-11" vector-effect="non-scaling-stroke"/><path stroke="#913f41" d="m699.9 1317.2 24.3 17.6q7.8 5.7 31.4 20.6 26.4 16.6 43.5 25.9 63.4 34.4 127.8 58c26.1 9.5 49.7 16.5 75.7 24.4a.6.6-88.1 0 0 .8-.7q-.8-3.1-2.1-6.7-2.6-7.1-5-19.3-7.7-38-7.4-78 0-14 1.8-29.5 1.8-17 4-29.2 6-34.9 17-70l9.7-30.4 20-58.8q7.5-21.7 12.8-41.4 13.4-49 18-100.6.3-4 .5-11.6M527.8 906q8.7-15 15-24.2 5.4-8 14.4-18.5" vector-effect="non-scaling-stroke"/><path stroke="#41394e" d="M1050.3 764.5q.6 5.3 2 8.4 8.4 18.1 16.5 36.9 4 8.9 6.9 18.5 6.6 21.4 11.4 43.8 3 13.5 4 27.7c.5 6.5 2.4 15.3 3 23.4l2.6 29q.5 5.9-.2 12.7-1.7 16.4-3.1 27.4c-1.1 9-1.3 19.6-2.3 27.7-2.2 17.2-3.4 33-7 49-4.5 20.3-9.7 41-17 60.9-4.4 12.2-6.8 24.7-11 36.8q-4 11.2-7.1 22.6-3.8 13.4-6.3 19l-9.4 25.1q-2 5.3-7.2 25.3-2.7 10.5-5.2 25.7l-6.3 36.8q-2 11.2-1.6 21.4 1 30.4.4 49-.3 11 .7 18.6 2.6 19.2 8.7 35.5c2.6 7 3.7 12 5.6 18.7q2.5 8.8 11.4 11.5c13.8 4.3 28 6.3 43.9 8.3q18 2.4 32.9 2.3 28.5-.2 51.7-4.4 2.8-.5 5-1.3 15.7-6 20-8.1 13.4-7 17.3-10.1 19.7-15 33.5-30.2 12.1-13.2 24.5-32.6c4.6-7.1 9-15.5 13.7-23.7 2.7-4.6 4.5-9.2 6.3-14 3.7-9.8 9.2-19 12.6-28.8l10-28c3-8.3 5.2-20.5 8-29.6q5.9-18.8 10-40.1 5-26.6 6.8-37.4 3-18 5-37.6c.8-8 1-19.2 1.5-26.8 1-19.5.9-32.6 1.3-58.1q.4-18.7-2.5-37l-2.5-17.7q-4.2-33.9-7.4-48.6-2-9.2-3-13-5.3-20-12.9-44.4c-2.2-7-5.3-14.3-8.5-20.3q-11.1-21.2-15.6-29.3-4-7.2-15.4-22.2c-3.2-4.2-6.5-7.2-9.7-11q-3.2-3.8-7.5-7.6-13.6-12-29.3-21.1-10.7-6.2-24-9.2-5.7-1.3-10-2.8-12.6-4.4-15.8-5l-28.3-6.1q3.6 1.3 6.4 4.2" vector-effect="non-scaling-stroke"/><path stroke="#9c5054" d="m1157.8 784.6-47.5-8.5" vector-effect="non-scaling-stroke"/><path stroke="#41394e" d="M1110.3 776.1q-2.8-3.5-4.4-3.9-14.4-3-34.3-9-3.8-1.2-8.3 0" vector-effect="non-scaling-stroke"/><path stroke="#9c6769" d="M1063.3 763.3q-9.5-3.1-18.3-8a.4.4 87.9 0 0-.4.5l5.7 8.7" vector-effect="non-scaling-stroke"/><path stroke="#a46363" d="m1063.3 763.3.4.3" vector-effect="non-scaling-stroke"/><path stroke="#ff7a68" d="M1063.7 763.6q-5 3.7-8.5 9" vector-effect="non-scaling-stroke"/><path stroke="#a46363" d="m1055.2 772.6-5-8.1" vector-effect="non-scaling-stroke"/><path stroke="#a44c4e" d="M1157.8 784.6q22.8 4.6 48.4 13.5a142 142 0 0 1 44.4 23.2 174 174 0 0 1 33.3 37q7 10.4 14 24.4 12 24 19.5 48.9 10 32.8 15.8 69.2 1.5 9.6 2.7 19" vector-effect="non-scaling-stroke"/><path stroke="#ec5546" d="M1335.9 1019.8q-1.2 15.2-2 30.2-.6 10-2 19-3.7 26.6-9 53a522 522 0 0 1-23.7 79.7q-14.4 37.3-36.2 74.7-10.8 18.6-21 32c-20.6 27.5-43.5 53.3-75.5 67a85 85 0 0 1-52.6 5q-11.6-2.7-23.6-10-23-14.1-35-37.3-5.6-10.6-9.4-24.9a197 197 0 0 1-5.4-57l.8-14.2c.3-4.7 1.3-9.5 1.8-14l-.2-.7q-.7-.8-1.8-.3" vector-effect="non-scaling-stroke"/><path stroke="#a44c4e" d="M1041 1222q3.4-9.8 6.5-19.7 3.7-11.8 6.6-19.7 14-39.3 22.1-66.3 15.5-52 21-109.5l1.6-17.1q.5-5.1.5-7.9c0-6.5.7-12.8.7-19.4q-.4-36.6-6-72.2-5.1-32.6-16.2-66.2-9.2-27.8-22.6-51.4" vector-effect="non-scaling-stroke"/><path stroke="#913f41" d="M1041 1222c-5.5 15.1-10 31.3-13.3 44.6q-4.5 17.5-9 46-1.4 8.7-2.4 18.4-1.4 14.3-1.6 18.5-.6 14.8.2 40 .1 1.9.5 3l.1.5q1.1 14.4 2.6 23 4 23.3 13.8 53.3.8 2.4 2.9 2.9 40.2 9.8 79.4 11.8 30.5 1.5 58.2-7 24.6-7.4 44.3-23.3 12.1-9.8 19.1-17.1 9.8-10.3 19.9-24.4 10.2-14.5 14.7-22.3c9.3-16 16.2-31.1 24.4-50.4q5.3-12.3 10.5-28.1a667 667 0 0 0 34-181.2q1.3-33.3 1-56.2-.5-26.3-4.4-54.2" vector-effect="non-scaling-stroke"/><path stroke="#a44c4e" d="M1110.3 776.1q-24-4.3-46.6-12.5" vector-effect="non-scaling-stroke"/><path stroke="#41394e" d="M1171 765a.7.1-175.3 0 0 .7.2.7.1-175.3 0 0 .7 0 .7.1-175.3 0 0-.7-.1.7.1-175.3 0 0-.7 0" vector-effect="non-scaling-stroke"/><path stroke="#525b76" d="M558.2 1267.3q0 63.6.5 127.2 0 6.1 5.2 9.9 4.7 3.4 8.4 5c17.6 7.8 37.6 11 56.8 8.3" vector-effect="non-scaling-stroke"/><path stroke="#474e6b" d="M629 1417.7q15.2-1.8 29.9-9.4c4.5-2.3 9.3-5.4 9.7-11.1l.5-7.7c-.2-20.3.3-40.3.3-60.4 0-2.7-.7-4-2.7-5.7q-21-16.3-41.2-34.9l-2.2-2q-19.4-17.8-43.2-44.3-11-12.3-21.2-27a.5.5-62.9 0 0-.9.3l.2 51.8" vector-effect="non-scaling-stroke"/><path stroke="#5f6c8d" d="M629 1417.7q-1.5-34.4-5.7-68.5a70 70 0 0 0-7.2-25q-1.8-3.3-6.4-8.3c-3.3-3.6-7.4-8.4-11-12q-18.6-18.4-39.4-38.2h-.2q-.6 0-.9 1.6" vector-effect="non-scaling-stroke"/><path stroke="#ff7a68" d="M1061.6 377.5a.6.1-14 0 0-.5 0 .6.1-14 0 0-.6.3.6.1-14 0 0 .6 0 .6.1-14 0 0 .5-.3M920.2 726.7c-1.2 1.7-1.3 4 .3 5.4q19 17.4 35.1 37.3 23 28.3 35.3 63.3c18 50.9 17.5 105.8 7 158.3q-2.6 13.4-7 30.7-7.4 29.2-13.9 52.5a2 2 0 0 0 1.3 2.4q6.2 2.3 12.8.6a5 5-77.1 0 0 3-1.8q3.3-4 5.8-9.5a354 354 0 0 0 16.2-40c4.6-14.4 9-26.4 12.4-40.2q3.9-15.7 5.5-24.7c7-38.4 8-78.4-1-116.6q-2.5-10.8-6.3-21.9-4.8-13.5-8.3-21.2-3.7-8-11-20.8-6-10.5-13.2-19-8.5-10-15.9-17-4-3.8-8.8-6.8-6-3.6-17.1-9.7a41 41 0 0 0-23.6-5.8q-5.7.2-8.6 4.4m20.3 455.7q3.7-5 10.7-15.6l11.3-19.2q5.4-9.4 8.3-17.6c1.3-3.8 2.4-16.9-6-13-2.8 1.2-5 5-5.8 7.6q-8.2 23.7-18.8 57.6a.2.2 0 0 0 .3.2m354-62q.2-.2.4-.9 3.3-12 5-21 1.4-8.2 3-26.6 1-12 .4-40.3-.5-24.1-4.7-48.4-4.3-25.3-7.8-39-6-24.3-18-49.2-7.7-16.1-15.2-26.3-10.4-14.4-18.4-22.3-12.3-12.2-30.3-21.3-8.5-4.3-24.5-8.6-7.2-2-14.6-2.4a78 78 0 0 0-25.5 1.4q-2 .5-3.4 1.7a1.4 1.4 44.3 0 0 0 2.2q2.5 2 6 4c2.6 1.7 6.8 3 9.3 4.4q9.4 5.2 13 7c1.7.8 2.8 2.1 4.6 3q1.4.7 3.5 2.1 10.1 6.9 13.3 9.4 20 15.6 34.6 34.6 15 19.4 26.6 42.3 19.2 37.8 28.3 78.5c3.8 17.1 7.3 31 9.2 48.3q4 34.6 4.6 67.2a.3.3 0 0 0 .6.2" vector-effect="non-scaling-stroke"/></g><path fill="#151724" d="M1758 0v1593H0V0zM397.4 822l-2.3-.4a1.3 1.2 61.2 0 1-.5-.1q-4.4-2.5-8.3-2.6l-16.6-.7q-7.8-.4-10.4-6.6-10.7-25.4-11.8-27.6-3.3-6.8-5.3-10.4c-4.7-8.3-13.1-13-22-7.3-5.7 3.6-8 12.9-9.2 19.1-2 11.3-3.7 20.6-4.7 31.5-.6 7.4-4.1 18-5 24.6q-1.4 11.4-4.2 22.6c-1 4.2-3.6 8.3-4.7 12.9a46 46 0 0 1-3.5 11.5 1 1 43.8 0 1-1.5 0 27 27 0 0 1-3.4-8.6c-1-5.7-2.4-12.5-3.2-19.3q-2-19-3.8-31c-1.7-11.7-2.7-26.9-4-37-2.2-15.7-3.9-30.3-6.3-47.7q-2.2-15.7-3-26.1-1.8-23.4-3.2-31.6l-3-17.5q-.7-7-2.1-24.8c-.6-7.7-1.7-13.4-2-19.8-.5-9.3-2.7-20-3.4-28.7-.7-9.5-2.7-19-4-29.1q-.5-4.2-1.9-7.9c-4.6-12.4-23-12-25.4 1.7-1.4 8-3.6 18-4.5 26.8l-2.3 18c-.7 5.4-.8 11.1-1.8 16.5-2 9.5-3.6 17.4-4.4 26.2-1 10.5-2.8 19.5-4 30.6-1 9.2-1.4 15.8-2.8 24.7-1.4 9.5-3 17-4.3 27.9q-2.7 21.2-3.6 25-2.3 10.6-3 17.1-1.3 13.9-4.5 26a1.4 1.4 33.9 0 1-2.6.5q-2.8-3.7-4.7-7.8-6.6-14.9-8-21.4c-1-4.7-3.7-8.6-5-13-.8-3.2-3.1-7.6-4.8-9.6-4.8-6-12.3-6-18.7-2.2l-.7.8q-3.5 5.3-4.8 8.8c-3.4 9-5.8 14.5-8 22.2q-4 14.4-11 31.6-1.9 5-4.2 8.5a1 1-74.7 0 1-.8.4q-27 1.7-55.7 1.6c-10.4 0-23-2.3-32.3 3.4-5.2 3.1-6.5 8-6.8 13.7a3 3 26.6 0 0 .8 2.1c5.7 6.6 12.5 7.9 21.7 7.7l31.5-.7c16.1-.6 32.1.4 47.3.6 11.2.2 16.7-1.8 21-12.3q1.3-3.1 7.8-22.3a.5.5 0 0 1 .7-.3c4.5 1.7 6.9 5.4 8.8 10 6.3 14.3 12.6 33.3 16.6 44.3 2.4 6.6 6.2 13.5 13 16.8q3.5 1.8 11.4 2.4l1-.3q6.8-4.6 8-12.3 1.9-12.8 3.8-30.1 2.8-24.6 7.4-53.3c1-6.4 1.4-11.5 1.9-17.9.4-6.2 2.3-14.5 3.3-21.2q2.8-21 5.1-42.7.2-1.7 1.9-6.8a1 1 0 0 1 .8-.6l2.4.3a1 1-3.9 0 1 .8.6q2.4 9.8 2.5 11.1.8 16.7 3.3 28.4c2.1 10 2.4 16.7 4.1 28.3q1 6.2 1.4 17 .7 18 3.7 35c1.5 8.7 1.5 17.5 3.3 26.4 1.5 7.5.8 13.7 2.1 21 2.5 13.7 3.6 31 5.8 47 1.2 9 .3 18.4 1.8 27.6q2.7 16 5.8 32.2c1.6 8.5 1.7 18 2.3 26.7.3 4.8 1.3 9.9 2 15.4q.7 5 1.9 7.4c3 6.3 8.2 10 15.4 8.7 8-1.4 11.8-11.4 13.1-18.3l2.5-12.4c1.7-8 2.1-16.4 3.9-24.8 1.6-7.4 2.7-16 4.5-27.3q.8-5.1 3.1-14.7c3.7-15.5 5.5-31.5 7.7-47.3q1.5-10.5 4.9-25 1.9-8.2 2.2-10.5c1-7.5 1.4-15.8 5.4-22a1.5 1.5-39.5 0 1 2.6.2c2.7 6.8 5 12 12.8 13.7q7 1.5 15.6 1.6 15.4.4 28.2-1.3 1.6-.3 4-2.2.6-.2 1-.1l.5.6q-.3 2 0 4.4c.5 6 1 16.2 2.7 23.8q5.2 25.1 9 38.8 6.7 23.7 19 48.2 14.2 28.3 38.4 54.4 1.6 1.7 1.7 3.8c2.2 30.8 11 61.5 23.6 90q9 20.2 19.5 40 8.6 16.1 16.4 27.8 2.3 3.5 2.4 5.7c.6 9.4.2 18 .2 28.7l.4 177.4c0 7-.4 12.4 1.2 17.9 4.9 16.7 22.5 27 38.6 32.4q27.3 9.1 55.5 6.6c12.7-1 23.4-4 35-8.6 13.3-5.2 30.7-18 31.3-34.1q.3-7.7 1-48.5l.4-4.5a.4.4 18.5 0 1 .5-.3q1.5.9 13.6 9.4c5.3 3.7 10.6 6.6 15.9 10.6q3.4 2.5 12 7.8c8.8 5.4 19.2 12 29 17.8q41.6 24 82 42.5 35.8 16.3 73.1 30 40.5 14.7 80.4 24.8l30.8 7.8q12.4 3 37.3 7.4c25.2 4.5 49.6 6.1 74.8 3.8q40.3-3.8 74.8-26.5 30.2-19.8 51.2-47.8 16-21.3 27.3-42.5 12.8-23.6 24-52.7l6.5-18q3.7-10.2 6-18.2 9.7-33.1 13.8-52.3 13.7-63.9 17.2-134.9c2.7-54.8-4-107.2-15.1-159.8q-2.6-12-7.3-28.4-4.4-15.5-9.3-27.9-3.2-8.2-10.2-23.3-3-6.5-8.4-15.7l-9-15.5q12.8 1.6 17.4 1.4c8.6-.6 18.5-1.3 27.8-1q19.8.5 45.9-.5 7-.2 10.9-4.3 4.3-4.7 5.2-7.7 3.2-11.2 7.6-21.2c1.1-2.5 2.3-6.7 3.6-10.5a1 1 0 0 1 1.5-.1c4.2 7 7.6 17.6 11.7 26.6q3.6 8.1 4.1 10.2 3.7 16.4 12.1 35.6 4.8 10.9 15.3 10.1c8-.5 12.1-7.2 13.4-14.5q2.7-15 5.8-37.6 1.3-8.9 3.7-17.1.8-3.2 2.1-12.4c1.8-11.6 4.5-31.1 7.5-45.6 1.7-8.7 2.8-20.6 4.2-31q.5-3 1.2-5.6a97 97 0 0 0 3.3-14.1q2.2-14.8 3.4-25.6a1.1 1.1 0 0 1 2.2-.2q5.4 16.5 6.1 36.5.3 8.7 1.2 21.2c.5 6.1 3 12.5 3.7 19l2.5 16.6c1.8 11.3 1.8 24 2.5 35 .3 4.7 3.2 10 3.2 15.9q0 6.5.7 12.8c1.5 12.3 2.3 24.4 3.5 36.4.8 6.8 2.9 13.7 3.5 21.2.9 10.3 1.5 20.1 3 30.3 1 6.8 1 16 1.4 21 .5 5.8 1.8 10.6 4 21.7q1.7 8.1 2.4 16 1 10.8 2 25 .3 4.1 1.8 10.4c1.3 5.5 4.2 10.9 9.6 12.7 6.7 2.1 13.3-.2 16.7-6.5q2-3.6 3.4-9c4.3-17 6.6-27.2 9.3-37.2q3-11.6 4.2-19.5c1-7.8 5-15.2 6.2-21.8q2.6-13.5 5.2-22.8c1.3-5.1 1.7-10.7 2.8-15.6 3-12.9 6.4-24 9.3-36.1 1.6-7.3 2.6-11.9 4.6-16a2.4 2.3-79.3 0 1 2-1.4q10-.7 21.8-.7h70.2q5 0 11.2-.5 6.9-.6 10.1-5.5c4-6 2.5-13.8-2.9-18.2q-2.3-1.9-8-2.5-8.9-1.1-14.5-.7c-4.2.3-8.4 1.7-12.8 2q-.8 0 0 0 1.6-.2 2.8.3l-66.6.1 14.8-1.5a.2.2-45.4 0 0 0-.5q-14.4-1.2-29.6-1c-7.6 0-12.8-.2-17.7 3.1q-3.3 2.2-4.3 4-4 7-5.6 15-1.2 5.6-1.8 7.7c-2.3 9-4.5 19.7-6.5 28L1580 925q-.3 1.2-1 1.9a1 1 0 0 1-1.5-.4q-1.5-3.8-2.3-9.4c-1.7-12.3-3.5-24-4.5-34l-1-7.7c-1.6-10.3-1.8-19.7-3.2-29.7q-1.9-13.8-2.5-20.9c-1.4-15.3-4.2-29.8-5.4-45q-.8-8.5-2.8-24.1-3.2-23.9-4.5-41.5c-.8-11-3.3-22.3-4.1-34.3-.6-10-3.2-22-4.2-34q-1-12.4-2-20.9-2.6-22.4-7-55.6-1.1-9.3-3.3-14.3l-.6-.8q-4.7-3.1-7-3.5-13.7-2.4-16.9 11.3-2 8.5-3.3 18.7c-.4 3-2 8.9-2.4 12.8q-1.8 14.8-4.4 28.3-2.9 14.5-4.3 25.6c-1.3 11.1-6 29.9-7.6 46q-.5 5.4-2.5 15.3-5.5 27.3-10.1 56.5c-.5 2.9-1.8 7.6-2.1 10.3-.9 7-1.1 11.2-2.8 18.2q-1.4 5.7-2.1 12.1a2.2 2.2 7.1 0 1-2.5 2q-1.2-.2-1.5-1.2-1.6-6.2-4.6-12.6c-4.8-10.5-8.4-20.4-12.3-29.7-1.6-3.9-2.3-6.5-3.9-11.4-2.6-8.2-9.3-10.7-17.4-9.1q-7.5 1.7-9.8 9-9.3 28-19.8 54.6-3.7 9.3-14.3 10.3-14.5 1.3-30.7 1.5c-14 0-29.8-.4-46.5-.2-4.3 0-9.3 1.3-13.6 2l-8.1-7.9a2 2 37.3 0 1-.3-2.4q4-6.9 5.4-10.2 2.4-5.5 4.2-13.1 4.6-20.3 5.8-38.5.6-9.2.7-19.5a1.3 1.3 89.3 0 1 1.2-1.3c5.9-.2 9.8-.7 15.4-.5q7.7.2 22 .2h9.9c9-1.3 16.4-11.2 19.6-19q2.6-6.5 3.6-12.9 3.7-23.1-2.3-45.3-2.1-7.8-8-15.4a20 20 0 0 0-13.6-8.1q-5-.7-16.3-1.2c-6.5-.4-19.2-1.5-27.8-1.4a.3.3 0 0 1-.2-.7q11.5-5.2 28.1-12a16 16 0 0 0 10.3-12.3 74 74 0 0 0-12.5-58q-6.2-8.7-11.3-13.6c-7.4-7.2-15.4-12-26.1-8q-18.4 7-26.2 9.6-7.2 2.3-52.2 19l-6.6 2.3a4 4 52.4 0 1-3.7-.5q-26.9-18-58-25.9a.4.4 41.6 0 1-.1-.8q8.3-3.1 17.6-6 41.2-12.8 85.6-16.6 17.4-1.5 47.7-2 6.9-.2 9.3-1a45 45 0 0 0 25.5-24.5c12.7-28.4 12.6-61 2.1-90.3-5-14.2-16.1-28.2-31-31.3q-8.3-1.7-11.2-1.8-32.4-1.4-57-.5c-10 .4-24 1-35 2.3q-16.2 2-33 4.6a1.4 1.4-11.9 0 1-1.5-1 225 225 0 0 0-24.6-59q-7.6-12.6-22.8-31-5.6-6.7-13.2-13.4l-15-12.8q-3.4-2.8-3.5-6.9c-.3-16.7 5.4-32.5 12.7-47.4l7.1-14.8q4.5-9.3 5-11.4 1.5-7-.4-12.2-3.9-10.5-12.6-18.6-18.6-17.4-43.7-23.2c-9-2-21.6-2.1-29.2 4.2q-2.5 2-5.8 9-9.6 20-17.8 34.4a.4.4 0 0 1-.8-.2q0-2.2.3-4.6c1.5-9.3 4-20.3 5.9-31 1-6.7 3.7-14.3-.8-21.2q-7.2-11-19-15.3-20.9-7.5-44.6-6-9.3.6-19.1 4a24 24 0 0 0-17.7 20.3c-.6 3.6-.4 9-1 13.7q-3 25-4.6 35.1-3.4 22.7-10.6 46.2l-.3.4a1 1 0 0 1-1.2 0c-4.1-5.9-7.2-13.7-13.4-27q-4.8-10.4-9.4-22.3l-12-31c-3.8-9.5-5.2-17.7-15.8-22q-4.6-1.8-8-2.2a92 92 0 0 0-46.6 9.3q-11 4.8-19.8 12-5.9 4.9-8.6 9.4c-4 6.7-6.1 14.7-3.3 22.3 3.2 8.3 8.4 18.6 11.6 26.6q3.3 8.2 7.8 20.8a.3.3 0 0 1-.5.3q-15.7-19.7-39.7-13.5-3.4.9-7.3 2.7-4.5 2.1-6.8 3.9c-2.6 2-6.9 5.2-10 8-12.2 10.8-17.4 15-25.3 23.2a.7.7-30.2 0 1-1.3-.3l-14-55.4c-5.5-21.7-24-26.9-43.9-27.5A160 160 0 0 0 549 144q-9.7 4.1-16 8.2a69 69 0 0 0-22.9 22.3q-5.2 9.8-2.5 21.2 9.6 40.2 15 73.6 4.6 28.9 6.6 51.7l.6 8a1.1 1-9.1 0 1-.8 1.1q-11.4 3-26.1 6.1c-7.3 1.6-12.6 3.2-21 5.6-10.4 3-20 6.8-30.9 10.6q-12.7 4.4-15.4 5.9c-14.4 7.5-20.7 23-23 39.2a105 105 0 0 0 15.2 73.6c6.4 9.3 16.7 16.1 28.3 12.8 24.4-6.9 48.2-13 72.2-16a.8.8 0 0 1 .9 1l-6.5 36.8q0 1.5-.4 3.7a436 436 0 0 1-16.2 54.3l-.9 1.4-4.3 4q-7.2 6.5-15.6 15.5-8.9 9.4-14.6 16.6-26.2 33-43 71.5-9.8 22.7-13.8 36.3-5.6 18.8-7.4 27.3-8.4 39.4-8.5 79.7a2.6 2.3-42.4 0 1 0 .5q-.5 2.5.3 5 .1.5-.8.4"/><g fill="#ff6253"><path d="m1071 377.8-5.8-2.2-.9-.1q-6 .9-11 5-4.4-6-9-11-20.8-22-48-33.9-14-6.2-27-8.6c-18.3-3.3-39-3-57.9 1.7q-11.6 2.9-14 3.9-15 6-18.4 7.7a168 168 0 0 0-62.8 56.1l-5.9 9.1a248 248 0 0 0-18.7 40.7q-7.1 20.5-10.5 42-1.6 10.7-3.6 27.8-1 7.6-1.7 11.4a81 81 0 0 1-6.4 22q-3.5 6.6-8.4 14.3h-.4l-13.2-12h-.2l-.2.1v.3l12.5 12.5.2.8-1.8 4.1q-16.4-18.7-37.3-31.1-9.4-5.6-20.5-10.8-1.6-6.6-1.5-13.6.5-20 3.3-40c1.4-9.7 4.6-22.6 6.1-29.5q2.5-11.1 5.3-20 5.7-17.4 6.6-19.6l6.4-15.1q2.6-6.3 9-18.5c1.9-3.6 4.7-7.6 6.7-11.3q1.7-3.4 5.2-8.4 11.8-17 19.6-26 6.1-7 18.3-19.1 7.6-7.5 10.5-11.1 7-8.9 8.8-12.5c6-13 9.7-25.4 10.7-39.4q1.5-20.3-2.3-39.6-1.5-7.7-5.3-19.2a536 536 0 0 0-18.3-46.5l-3.4-7-3.5-6.8q12-6.2 25.7-9.1 5.6-1.2 11-1.2a3 3 0 0 1 2.6 2 501 501 0 0 0 22.7 57.6q9.8 21.4 17.1 34c2.2 3.6 3.9 7.1 6.5 9.8 11.2 11.4 27.6 9.4 35-5q3.5-7 5.6-13a247 247 0 0 0 9.4-34.8q5.6-30 7.8-62a1 1 83.5 0 1 .8-1c15.8-5 33.9-2 49.2 3.8 3 1 2.2 2.5 1.5 5.2q-9.3 39.2-11.9 78.5-.9 13.8.1 21.8 1.3 9.9 10.2 11.6c8.4 1.6 13.1-4.2 17-10.5q24.7-39 43.5-82.5a1.6 1.5 13.4 0 1 1.5-1q4.3.4 9 1.8 19.6 6 34 20.6a3 3 0 0 1 .6 3c-2 4.9-5 9-7.5 14l-5 10.2q-8.5 18-12 35c-2.8 13.8-4.5 30.2 6.6 41q6 5.8 9.8 9a201 201 0 0 1 34.2 37.4q4 5.6 7.2 11.8c2.5 4.8 5.7 10.3 8.5 16.2q7.3 15.8 12.2 33.2a.4.4 0 0 1-.3.5c-21.8 4-42.8 9.6-63.9 15.4"/><ellipse rx=".6" ry=".1" transform="rotate(-14 2068.5 -4132)"/><path d="M1310.4 568.4q0 1-.7 1.6-.3.3-2.4.6-4.4.6-8.4 1.8a248 248 0 0 0-30.8 12q-11 5-22 10.3-10.1-12.7-21.5-23.7a1 1 0 0 1 .1-.9q4-1.8 10.3-4.1 21-7.8 49.5-18.1c2.7-1 6-2.6 9-3.8a2 2 0 0 1 1.6.4q11 10.7 15.3 24M1643 821.1h83.3q8 0 9.4.3c6.2 1.6 11.5 8.4 8.5 14.6q-3.1 6.5-11 6.5H1627a1 1 0 0 0-.9.8c-3.6 16.9-8.2 33.3-13 53-9.5 38.3-17.2 71.3-29.1 122.5-1.3 5.7-3.9 11.3-10.7 11.4q-9.7 0-11-9.4-3-23.5-16.4-138.8-10.8-94.2-16.4-144.7-6.8-61.2-10.8-95.7h-.3q-9 51-15.3 89.6c-6.8 41.5-13.8 81.3-20.9 124.8l-3 17.8c-1.1 5.2-4.8 8.2-10.2 8.4q-7.7.3-10.8-8-4.5-12-12.6-35.5-10.7-31-18-51.2a.3.3 0 0 0-.5 0l-9.4 26.3q-4.6 13.2-8 20.9-1.7 4-3.4 5.2-4 2.8-9.7 2.8l-45.3.1H1306a3 3-18.5 0 1-2.2-1l-15-19.7a.3.3 0 0 1 .2-.5h7.5l95.3-.2a2 2 0 0 0 1.8-1.4q11-34 23.7-67a10 10 0 0 1 19 0q17 43.9 27.7 75.5.3.8.8.9t.5-.4q.2-2.5 1.3-8.5l20.2-120 5.2-31.4q7.4-46 17.8-107.6c1.5-9.2 14.3-12 19-3.4q1 1.8 1.6 6.7c2.8 22.8 5.2 45.8 7.8 67.5 5.6 45.6 9.4 83 14.3 123.6q7.2 60.2 11.4 98.2l10.8 98.1.9 8.6h.1q1.4-6.3 8.4-33.7 3-11.7 8-33.8 5.3-22.8 14.9-61.8 1.6-6.4 6.7-9 3-1.4 11.2-1.4zm-1245.6.9q.5.6.5 1 0 8.6.4 17.2-6.7 1.5-11.2 1.2-5.8-.4-22-.5-7.2 0-12.2 2-5.7-1.3-8.3-6.3-6.2-12-11.6-24.7h-.3l-1.8 8.5q-10.8 60.4-20.3 116.8-3.1 18.7-14.7 84.7c-.7 4.1-3.2 7.9-7.5 8.7a11 11 0 0 1-12.9-7l-1-6.5q-2.2-15.3-3.9-29.6-13.7-113.8-23-197.9c-4.2-39.4-10.3-86.4-13.9-118.8q-1.6-14.9-2.3-23.2a.2.2 0 0 0-.4 0l-1.3 9q-2.3 16.7-8.8 68.1c-6.4 49.9-13.6 98-19.6 146q-1 7.7-3 10-3.4 4.1-9.5 3.3-3.5-.5-6.1-3-1.7-1.5-3.3-5.9L148.8 789h-.3q-5.2 15.9-13.6 43.3c-2 6.3-5.3 11.5-12.4 11.6q-65.8.2-91 0c-5 0-10.2-2.6-11.7-7.5-2.4-7.4 3.9-13.4 11-13.4l84-.2a1 1 0 0 0 1-.7q.7-1.4 1.2-3 1.5-4.2 20-61.6l1.2-3.5c3.5-10 16.2-9.6 19.7 0l27.3 74.9a.3.3 0 0 0 .6 0q1.3-13 4.5-36.8 10.1-74.7 31.3-228.4 1-7.8 7-9.7 5.2-1.6 9.4 1.3 3.6 2.5 4.3 8.3c6 48.4 10.8 94.2 17 146 7.5 63.5 10.7 93.5 18 152.9 2.8 22.5 5.7 51 8 71.5q1.1 9.2 1.6 16.4a.2.2 0 0 0 .4 0q1.3-9 2.9-18.1 12.4-71.7 27.2-154.8c1.1-6.1 5.2-10.9 11.9-10.6q5.5.3 8 5.3 6.9 14 17.7 39 2.7 6.1 4.5 9.5a2 2-13.7 0 0 2 1.2zm863.8-43c-5.2-6.1-11.6-10.6-17.6-15.4a169 169 0 0 0-53.4-28.5q-17.5-5.5-47.5-12-6-1.4-10.2-2.6c-5-1.5-9-2.4-13.4-4-24.9-9.7-45-26.2-56.8-50.1q-12.3-24.9-5.8-52.9 6-25.8 25-47.5.2-.1.1-.4l-.1-.4h1.7q20.6 2.1 39.9 8.3c5.6 1.9 10.1 4 15.1 5.8q3 1 6 2.7 23.8 12.9 40.5 28.5 21.6 20 37.2 46.2a276 276 0 0 1 29.8 68.9c4 15 4.8 26.3 6.5 45a1.5 1.4 33.4 0 0 0 .5zM741.3 590.2q13 14.3 16.8 34.2-.5 2.9-1.9 4.2a2 1.9-19.8 0 0-.5 1.1l-1.8 17.8.7-16.9q.4-9-.8-14c-1-4-5.7-16.5-10.5-18a.4.4-80.5 0 0-.5.4c-.1 3.4-.1 6-1 9.3-1.1 4.9-1.7 9.2-3.4 14.6q-7.4 22.8-21.2 41.4-16.7 22.7-40.5 41-22 16.9-46.3 31.3-5 3-31.2 17.8c-9 5-18.2 10.7-26 15.5q-27.2 16.7-47.3 37.8L509.5 825a66 66 0 0 1-18.7 15.5c-20.9 10.2-31.8-13.5-35-29.2q-2.4-11.4-3.3-20.3-3.6-36.1 2.4-73l.5-2 .2.3a.6.6 37.3 0 0 1-.2q1-3 2.3-6 10.7-23.5 21.7-40.3c4.9-7.5 7-11.3 11.3-17q12-15.9 19.6-23.6 13.9-14 36-29.4 2.5-1.7 11-6.5c3-1.7 11.7-6.7 17.7-9.3 5.1-2.2 10.3-4.5 15.8-5.9 4.3-1 8.5-2.6 12.7-3.6q23.7-5.6 48.8-4.6 15.7.6 24.4 2.3c8.2 1.5 16.9 2.9 25.2 5.4q19 5.8 38.2 12.6m601.1 87-.2 3.3a.5.5-82.1 0 1-.6.5q-28.4-5.8-55.5-3.8l-8.4-26a.6.6 0 0 1 .5-.8q23-.3 46.3.3 6.2.1 11.5.8l.8.3c4 2.6 5.5 20.7 5.6 25.4M812 660.1q11.7.5 23.2 2.3Q878 668.7 918 685q13.8 5.6 26.7 12.8t25.1 15.7q17 11.7 29.8 25.8l11.8 13.7q4.1 5.3 7.9 10.7c3.2 5 6.8 9.6 9.7 14.4q12.9 21.1 20.2 40.5a422 422 0 0 1 25.1 133.6q.6 16.4-1.5 35.3c-2.7 7.5-4.2 16.4-5.5 22.5-1.6 7.8-3.6 14-6.2 23.2q-2.6 9-5.2 15.8l-3.1 8.5q-4.2 11.5-8.4 22.4a531 531 0 0 1-15 35.4 903 903 0 0 1-27.2 53.8q-17.9 31.9-37.2 58.8-19 26.6-42 46.8-8.5 7.5-17.6 13.4-23.4 15.2-51.6 17.7c-19.9 1.9-41-3.4-59-12.1a337 337 0 0 1-73.8-50.4q-54.5-48.2-94.7-109c-5.2-7.8-10.2-16.6-15.2-24.5q-5-8.2-10.6-18.9-14.8-28.5-23.7-55.2-10.5-31.4-14.7-59.1-2.8-19-2.9-25 0-13.6.5-22.3 1.9-30 13-58.8c2.4-6.3 5.6-12.2 8.5-17.9q3.4-6.6 10.8-17.3 1.7-2.4 5.1-6.3 4.6-4.7 8.7-11 24.1-18.8 47.4-32.3 19.7-11.4 33-19.4 28.6-17.2 52.9-40.6 4.5-4.4 13-14 12-14 21.3-32.4 4.8-9.5 7.2-18.6a1 1-82.6 0 1 1-.7l8.2-.1zm108 66.5c-1.1 1.8-1.2 4 .4 5.5q19 17.4 35.1 37.3 23 28.3 35.3 63.3c18 50.9 17.5 105.8 7 158.3q-2.6 13.4-7 30.7-7.4 29.2-13.9 52.5a2 2 0 0 0 1.3 2.4q6.2 2.3 12.8.6a5 5-77.1 0 0 3-1.8q3.3-4 5.8-9.5a354 354 0 0 0 16.2-40c4.6-14.4 9-26.4 12.4-40.2q3.9-15.7 5.5-24.7c7-38.4 8-78.4-1-116.6q-2.5-10.8-6.3-21.9-4.8-13.5-8.3-21.2-3.7-8-11-20.8-6-10.5-13.2-19-8.5-10-15.9-17-4-3.8-8.8-6.8-6-3.6-17.1-9.7a41 41 0 0 0-23.6-5.8q-5.7.2-8.6 4.4m20.4 455.7q3.7-5 10.7-15.6l11.3-19.2q5.4-9.4 8.3-17.6c1.3-3.8 2.4-16.9-6-13-2.8 1.2-5 5-5.8 7.6q-8.2 23.7-18.8 57.6a.2.2 0 0 0 .3.2"/><path d="m1110.3 776.1 47.5 8.5q22.8 4.6 48.4 13.5a142 142 0 0 1 44.4 23.2 174 174 0 0 1 33.3 37q7 10.4 14 24.4 12 24 19.5 48.9 10 32.8 15.8 69.2 1.5 9.6 2.7 19-1.2 15.2-2 30.2-.6 10-2 19-3.7 26.6-9 53a522 522 0 0 1-23.7 79.7q-14.4 37.3-36.2 74.7-10.8 18.6-21 32c-20.6 27.5-43.5 53.3-75.5 67a85 85 0 0 1-52.6 5q-11.6-2.7-23.6-10-23-14.1-35-37.3-5.6-10.6-9.4-24.9a197 197 0 0 1-5.4-57l.8-14.2c.3-4.7 1.3-9.5 1.8-14l-.2-.7q-.7-.8-1.8-.3 3.3-9.8 6.4-19.7 3.7-11.8 6.6-19.7 14-39.3 22.1-66.3 15.5-52 21-109.5l1.6-17.1q.5-5.1.5-7.9c0-6.5.7-12.8.7-19.4q-.4-36.6-6-72.2-5.1-32.6-16.2-66.2-9.2-27.8-22.6-51.4 3.6-5.3 8.5-9 22.6 8.2 46.6 12.5m184.2 344.2q.2-.2.4-.9 3.3-12 5-21 1.4-8.2 3-26.6 1-12 .4-40.3-.5-24.1-4.7-48.4-4.3-25.3-7.8-39-6-24.3-18-49.2-7.7-16.1-15.2-26.3-10.4-14.4-18.4-22.3-12.3-12.2-30.3-21.3-8.5-4.3-24.5-8.6-7.2-2-14.6-2.4a78 78 0 0 0-25.5 1.4q-2 .5-3.4 1.7a1.4 1.4 44.3 0 0 0 2.2q2.5 2 6 4c2.6 1.7 6.8 3 9.3 4.4q9.4 5.2 13 7c1.7.8 2.8 2.1 4.6 3q1.4.7 3.5 2.1 10.1 6.9 13.3 9.4 20 15.6 34.6 34.6 15 19.4 26.6 42.3 19.2 37.8 28.3 78.5c3.8 17.1 7.3 31 9.2 48.3q4 34.6 4.6 67.2a.3.3 0 0 0 .6.2"/></g><g fill="#6a7998"><path d="M737.7 258q-11.5 10-21.8 21.1l-8.4 8.7q-6 6-20.7 23.2a198 198 0 0 0-23.8 34.5l-8.7 15.8q-5.1 9.6-12.3 27.9a336 336 0 0 0-20.9 93.3q-1.7 19.2-2 33.9-24.5 3-49.6 12.4 9.9-40.3 13.1-76.6 5.3-59.8-1-121-1.8-17.2-2.4-21-1.5-9.4-3.2-22.2-1.3-10.2-4-22.2-6.3-29.7-8.4-38.2l-4.6-19-.6-.6-1.4-.3q6.7 0 13.4-.9 18-2.5 34.7-8.4a95 95 0 0 0 34.2-18.2.2.2 0 0 1 .4 0q9.1 34.4 15.5 61.3c.7 2.7 2.3 5.8 4.6 7.6 10.6 8.3 18.8-4.3 26.2-10.5l27.6-24.5a.7.7 0 0 1 1.2.4q.9 5 3 9.6 8.1 18.6 20 34m-5.5-58q1.3-.3 3 .7c14 7.8 23 22.5 29.3 37.1q2 4.7 2.9 10v.8q-.6 5-4.5 8-1.8 1.5-3.5.4a57 57 0 0 1-16.7-19.3c-7-12.2-12-23.3-11.3-36.7a1 1 85.1 0 1 .8-1M533.4 379q1.2 18.5.1 37.3-16.8 2-28.1 4.8-10.7 2.6-37.4 10.3-5 1.4-10 3.3l-10 3.6q-3.5 1.2-7 2.7-5.4-18-3.7-35.5l11.4-4 37.1-12q16.8-5.4 45-10a2.5 2.3-41.3 0 1 1 0q1.6.3 1.6-.5m727.3 16.9q-5.9 25.4-2.2 50-28.8 0-44 1.2-17.8 1.4-35.8 4a415 415 0 0 0-60.3 14.8q-13 4.2-30.4 11.5a265 265 0 0 0-81.8 55c-4 4-7 8-11 12.1-5 5.3-10.5 12.8-14.6 17.8q-3.1 3.8-6.4 8.6-12.1 17.6-22.4 36.7c-3.7 7-7.4 15.2-10.8 21.6q-2 3.7-11 23.6c-1.1 2.6-2.8 5.3-4 8q-25.3-9.8-52.9-16.2-20.9-4.9-38.6-7 6.7-8.6 11.8-16.3 13.9-20.6 23.1-33.4 10.7-14.5 17.2-28 7.6-16 10-33.2 2.2-15-1.6-30-3-11.7-13-22.8-8.7-9.8-18.1-14.6 9.5-37 40.7-59.8a3 3 39.9 0 1 3.2-.3q17.6 8.6 36.5 12.7 6.6 1.4 18.5 3.1-6.4 1.6-13.7 7a1 1-43.9 0 0 0 1.4 73 73 0 0 0 34.3 13.4c29.2 4.7 59.4 0 88.3-8l29.6-8.4q29.6-7.8 54-13 21.8-4.5 47-8.1 28.9-4.2 58.4-3.4M629 1417.7c-19.1 2.7-39-.5-56.7-8.2q-3.7-1.7-8.4-5.1-5.2-3.8-5.2-9.9-.4-63.6-.5-127.2.3-1.6.9-1.6h.2q20.8 19.8 39.4 38.2c3.6 3.6 7.7 8.4 11 12q4.6 5 6.4 8.3a71 71 0 0 1 7.2 25q4.2 34.1 5.8 68.5"/></g><path fill="#393d54" d="m1287.8 821.1 8.7.5h-7.5a.3.3 0 0 0-.2.5l15 19.7a3 3-18.5 0 0 2.2 1h45.2-45.9a.5.5 0 0 0-.3.9l2 2.4 9 15.4q5.4 9.3 8.4 15.8 7 15.1 10.2 23.3 4.9 12.4 9.3 27.9 4.7 16.3 7.3 28.4a615 615 0 0 1 15 159.8q-3.4 71-17.1 135-4.1 19-13.8 52.2-2.3 8-6 18.1l-6.5 18q-11.2 29.2-24 52.8-11.4 21.2-27.3 42.5-21 28-51.2 47.8-34.5 22.7-74.8 26.5c-25.2 2.3-49.6.7-74.8-3.8q-24.9-4.4-37.3-7.5l-30.8-7.7q-39.9-10.1-80.4-24.9-37.3-13.6-73-29.9-40.5-18.5-82-42.5c-10-5.7-20.3-12.4-29.1-17.8q-8.6-5.3-12-7.8c-5.3-4-10.6-6.9-15.9-10.6q-12-8.5-13.6-9.4a.4.4 18.5 0 0-.5.3l-.4 4.5q-.7 40.8-1 48.5c-.6 16-18 29-31.3 34.1a121 121 0 0 1-35 8.6q-28.2 2.5-55.5-6.6c-16-5.4-33.7-15.7-38.6-32.4-1.6-5.5-1.2-10.8-1.2-18q0-69.4-.4-177.3c0-10.7.4-19.3-.2-28.7q0-2.2-2.4-5.7-7.8-11.7-16.4-27.9-10.5-19.7-19.5-40a270 270 0 0 1-23.6-89.9q-.1-2-1.7-3.8-24.2-26-38.4-54.4-12.3-24.5-19-48.2-3.8-13.7-9-38.8c-1.6-7.6-2.2-17.7-2.8-23.8q-.2-2.4.1-4.4l-.4-.6h-1.1l-1.3-.1q1.7.3 1.6-1l-.3-2q-.5-8.5-.4-17.1 0-.4-.5-1 1 0 .8-.5-.8-2.5-.4-5a2.6 2.3-42.4 0 0 0-.5q.1-40.3 8.6-79.7 1.8-8.5 7.4-27.3 4-13.6 13.9-36.3 16.7-38.4 43-71.5 5.6-7.2 14.5-16.6 8.4-9 15.6-15.5l4.3-4 .9-1.5a436 436 0 0 0 16.2-54.2q.4-2.2.4-3.6l6.5-37a1 1 0 0 0-.9-.9c-24 3-47.9 9.1-72.3 16-11.5 3.3-21.8-3.5-28.2-12.8a105 105 0 0 1-15.2-73.6c2.3-16.2 8.6-31.7 23-39.2q2.7-1.5 15.4-5.9c11-3.8 20.5-7.5 31-10.6 8.4-2.4 13.6-4 20.9-5.6q14.7-3.1 26-6a1.1 1-9.1 0 0 .9-1.2l-.6-8q-2-22.8-6.7-51.7-5.3-33.4-14.9-73.6-2.7-11.3 2.5-21.2c4.7-8.8 14-16.4 23-22.3q6.2-4 16-8.2a160 160 0 0 1 67.3-12.8c19.8.6 38.3 5.8 43.8 27.5l14 55.4a.7.7-30.2 0 0 1.3.3c8-8.2 13-12.4 25.3-23.2 3.1-2.8 7.4-6 10-8q2.3-1.8 6.8-3.9 3.9-1.8 7.3-2.7 24-6.2 39.8 13.5a.3.3 0 0 0 .4-.3q-4.5-12.6-7.8-20.8c-3.2-8-8.4-18.3-11.6-26.6-2.8-7.6-.6-15.6 3.3-22.3q2.7-4.5 8.6-9.4 8.8-7.2 19.8-12a92 92 0 0 1 46.5-9.3q3.5.4 8 2.2c10.7 4.3 12.1 12.5 15.9 22l12 31q4.6 12 9.4 22.2c6.2 13.4 9.3 21.2 13.4 27.1a1 1 0 0 0 1.2 0l.3-.4q7.2-23.5 10.6-46.2 1.5-10.2 4.6-35.1c.6-4.6.4-10.1 1-13.7A24 24 0 0 1 918 78.3q9.8-3.5 19.1-4 23.7-1.6 44.6 5.9 11.8 4.2 19 15.3c4.5 7 1.9 14.5.8 21.2-1.9 10.7-4.4 21.7-5.9 31q-.3 2.4-.3 4.6a.4.4 0 0 0 .8.2q8.2-14.4 17.8-34.4 3.4-7 5.8-9c7.6-6.3 20.2-6.3 29.2-4.2q25 5.8 43.7 23.2 8.7 8 12.6 18.6 2 5.2.4 12.2-.5 2.1-5 11.4l-7 14.8a103 103 0 0 0-12.8 47.4q0 4 3.5 6.8l15 13q7.6 6.6 13.2 13.4 15.2 18.3 22.8 30.9a225 225 0 0 1 24.6 59 1.4 1.4-11.9 0 0 1.5 1q16.8-2.7 33-4.6c11-1.4 25-1.9 35-2.3q24.6-1 57 .5 3 .1 11.2 1.8c14.9 3.1 26 17.1 31 31.3a122 122 0 0 1-2.1 90.3 45 45 0 0 1-25.6 24.6q-2.3.7-9.2.8-30.3.6-47.7 2.1-44.4 3.8-85.6 16.6-9.3 2.9-17.6 6a.4.4 41.6 0 0 0 .8q31.2 8 58 25.9a4 4 52.4 0 0 3.8.5l6.6-2.3q45-16.7 52.2-19 7.8-2.6 26.2-9.6c10.7-4 18.7.8 26 8q5.2 4.9 11.5 13.6a74 74 0 0 1 12.4 58 16 16 0 0 1-10.3 12.3q-16.5 6.8-28 12a.3.3 0 0 0 0 .7c8.7-.1 21.4 1 27.9 1.4q11.3.5 16.3 1.2 8 1 13.7 8.1 5.8 7.6 7.9 15.4 6 22.2 2.3 45.3-1 6.4-3.6 12.8c-3.2 8-10.6 17.8-19.6 19h-10l-21.9-.1c-5.6-.2-9.5.3-15.4.5a1.3 1.3 89.3 0 0-1.2 1.3q-.1 10.3-.7 19.5-1.2 18.2-5.8 38.5-1.8 7.6-4.2 13.1-1.4 3.3-5.4 10.2a2 2 37.3 0 0 .3 2.5zM735 326.8q-10.2 15.1-13 20-16.5 28.6-26.4 60.1A297 297 0 0 0 684 521.4l.5.6 15.5 5.6q11.1 5.2 20.5 10.8 21 12.4 37.3 31.1 6.4 7.8 9.8 12.9 9.4 14.2 14.2 31.8-.5 2 1.2 3.4h.6l8.7-10q1.9-2 12-16.5l-.2-.2h-.3l-5.5 6a.3.3 0 0 1-.4-.2v-2.2q20-28.2 42.3-54.7 1.6-1.8 1-3.8-3-9.7-4.7-18.4-1.7-9-2.2-19-1.3-30.2 9-58.7a175 175 0 0 1 7.5-17q3.3-6.8 11.4-18 8.2-11.5 19.7-20.3c27.1-20.7 61.3-29 94.5-18.2q18.1 5.8 31.6 19.8h.3q.3 0 .5.3 1.7 2.3 5.4 1.8 17.7-2 30.4-4.5c5.3 3.3 8.4 1.7 14 .4q16.7-3.9 28.4-7c9.6-2.5 21.2-4.5 30.9-7.5 4.6-1.5 9.8-2.3 14-3.5 6-1.7 6.1-6.9 4.5-12a180 180 0 0 0-14.7-34.2c-4.5-7.8-11-20.8-18.4-29.9q-8.2-10-17.9-18.8a247 247 0 0 1-21-20.8c-8.7-10.2-7.3-21.8-4.9-34q1.7-8.6 4.8-17.2 5-13.8 7.3-18.6 4-8.2 7.8-15.2c4.6-8.6 6.6-14-1-20.5q-6.2-5.2-14.3-10a41 41 0 0 0-22.4-7.5c-10.3.4-10.8 7-14.6 14.2q-4 7.7-8.6 18.8a80 80 0 0 1-5.9 11q-9.8 15.5-19 34.3c-3 6.6-10.9 15.3-19 13.3-7.8-1.9-7.6-15.4-7.3-21.3a531 531 0 0 1 11.5-79c1.7-8.9 2.1-14.2-7.2-17.4q-16.1-5.6-33.3-5.4c-8.8 0-16.2 4.8-17 14.2a463 463 0 0 1-10 62.2q-1.9 8.2-3 14.1-1 6.4-4.9 16.6c-3 8.4-6.7 15.6-14.6 18.4-7.6 2.7-16.4-2.5-20.6-8.7-8.3-12.2-12.8-22.6-20.3-37.7-4.6-9.2-9.7-23.2-14.2-33.2q-4-8.7-6.1-14.8c-3.3-9.8-2.4-15.4-14.5-16.4a3.9 3.8 41.4 0 0-1 0 69 69 0 0 0-25.6 8.2l-14.9 8.6c-6.7 3.8-5 10.4-2 16q7.9 14.4 13.6 30.6c1.7 4.8 2.6 10 3.4 14.3 1 6.6 2.8 12.5 4.7 20.1q1.3 5.5 1.5 9.5c1 19.8-2.1 42.8-17.4 57.3-4.6 4.3-11.6 10.7-16.6 16.9q-12.3 15.2-20.6 27.3-2 3-3.2 7.3M580.2 158.2l-10 2.8q-14.8 4.7-26.2 12.5-5.4 3.7-8.9 8.5a1.7 1.7 0 0 0 1 2.6q11.3 3.4 23.4 2.7c9-.5 18-1.5 26.6-3.9l10-2.9q14.8-4.6 26.3-12.4 5.4-3.7 8.8-8.6a1.7 1.7 0 0 0-.9-2.6q-11.4-3.3-23.4-2.6c-9 .5-18 1.4-26.7 3.9M557 207.7q-10.3.8-20-2a.3.3 0 0 0-.3.4q6.7 30.9 11.8 63 2 12.6 4 30.8l3.3 30.8q7.6 76.3-3 152.2-4.2 30.6-12.8 58.9a.3.3 0 0 0 .5.3c7.4-3.8 13-6.7 20.6-9.7l8.4-3.6q25-9.4 49.7-12.4 19.8-1.6 38.4.6a1.2 1.2.6 0 0 1.4-1.3c-.5-5-1.3-9.4-1.3-14.3q-.2-17.5.2-22.9 2.3-36.1 11-71 1.7-6.7 6-18.8 11.4-32 27.8-58.3c4.2-6.8 9.3-14 13.8-20.4q3.3-4.9 14.1-17.4 10.5-12 21.3-23.8l-.1-.3q-7.5-3.6-14-10.4-11.9-15.4-20-34-2.1-4.6-3-9.6a.7.7 0 0 0-1.2-.4L686 238.6c-7.4 6.2-15.6 18.8-26.2 10.5a14 14 0 0 1-4.6-7.6q-6.4-27-15.5-61.2a.2.2 0 0 0-.4-.1 95 95 0 0 1-34.2 18.3q-16.7 5.8-34.7 8.3-6.7 1-13.4 1m175.3-7.6a1 1 85.1 0 0-.8 1c-.7 13.4 4.3 24.5 11.3 36.7 4 7 9.8 14.8 16.7 19.3q1.7 1.1 3.5-.3 4-3.1 4.5-8v-1q-.8-5.2-2.9-9.9c-6.4-14.6-15.3-29.3-29.3-37.1q-1.7-1-3-.7m-295 205.4Q435.6 423 441 441q2 5.2 4.6 10.6c1.8 3.4 4.4 7.4 8.1 6.4 9.4-2.7 20-5.7 30.2-7.8q24-5 47.6-8a1 1 87.6 0 0 .9-1l1.1-24.9q1.1-18.8 0-37.3l-1-22.8a1 1-7 0 0-1-.8q-20 4.1-39.7 10.2-22.9 7-42 14.3-2 .8-6.4 3.6l-1 1a54 54 0 0 0-5 21m525.5 9.5q-11.9-1.7-18.5-3-19-4.2-36.5-12.8a3 3 39.9 0 0-3.2.3q-31.2 22.8-40.7 59.8l-3 18.4a2 2-67 0 0 .8 1.8c10.6 8.2 13.8 20 14.4 33q.6 15.7-8.7 29.9-8.8 13.3-19.8 27.7-22.3 29-40 54.6-2.6 3.7-5.7 9.1a1 1 0 0 0 .8 1.4q14.8.1 31.8 2.3 17.8 2.3 38.6 7.1Q900.7 651 926 661q5.8 2.6 11.4 5.5l11.4 5.5q13 6.2 24.5 14c6.4 4.5 12.9 7.7 18.3 13a.4.4-67.5 0 0 .6-.3q.4-20.2 3.9-40.6 3.4-20 12.2-41.7c2.2-5.5 4.8-9.7 7-14.5q2-4.5 5.7-10.5 10.2-16.4 17.8-25.5 10.7-12.5 18.5-19.5l7.6-6.6c9.5-8.3 20.2-15.7 30.4-22 8.2-5 18.4-9.8 26.8-14q1.8-1 8.5-3.6 15.7-6 39.2-12.3 7.7-2 18.6-4.1c14.5-2.8 23.7-4.6 35.1-5.9q19.3-2.1 44-3.7a.7.7 0 0 0 .5-1q-6.6-13-9.5-27.2-3.7-24.6 2.2-50 2.5-10.1 7.8-20.2a.6.6-73.7 0 0-.5-.8q-3-.3-9.7-.3c-23.4-.2-47.5 1.6-71.4 4.6q-24 3-48.6 8-13.5 2.7-42.7 10.4-23.3 6-42.8 10.4c-30 6.7-59.6 9.6-90 7m318.8 38.9c2 6.3 8.9 23 18 14.8 2.4-2.2 6.1-8.8 7.3-12.2a105 105 0 0 0 1.2-57.3c-1.4-6.3-6-18.4-12.4-20.2q-4.6-1.4-7.6 3.8-6.3 10.6-8.7 23.3-4.7 24.5 2.2 47.8m-706.4 99.7q-26.8 11.3-49.4 29-10.4 4-18.6 12.6c-5.3 5.5-11.2 11-16 17-8 10.1-12.2 14.9-17.8 23.5q-14.7 22.4-24.9 45-.6 1.6-7 13.7a51 51 0 0 0-4.7 12q-3.7 17-7.5 29.4c-2.8 9.2-4 18.3-5.9 27.7q-1.2 6-1.5 9c-.5 7.3-1.4 15-1.5 22.7q-.1 11.4-.4 22.2c-.3 8.3 1.1 16.2 2 24.7q.2 1.7 0 7.7c-.5 8.7 1 19.7 4 28.5q2.4 6.7 4 14.3c3.1 14 8.9 28.2 13.9 40.6 3.7 9 8.7 17.3 12.7 26q2.2 4.9 6.1 10.4l7 10q.4.5 1 .3t.8.3a1.7 1.7-38.4 0 0 3 .2c4.7-7.6 8-17.2 10.3-26.8q2-8.2 2.7-10 4.1-10 9-23 2.7-7.2 5.2-11.5 5.3-9.3 11.6-21.8 6.5-12.8 14.4-22.5c5-6.2 12.4-15.5 20-22.8q10.5-10.2 22.2-22.2l1.2-1.6 2.4-4.2v-.4q-.5-1.2-3 .6 14.4-12.4 29.5-24 4.2-3.2 7.9-5.6 27.8-18 55-34.2 14.9-8.8 23.7-15 9.3-6.5 22.3-17 23.5-19.1 38.2-44.4 5.6-9.7 8.1-17.5 5.3-15.7 2.9-32-3.7-20-16.8-34.3-31.4-38.7-80-47.4-3-1.4-8.2-2.5-18.2-4-35-1.5-16 2.3-21.3 3.8C585 546 573.6 551.3 565 555l-.1.4.3.1q4.8-2 10-1.8m671 41 13.2 19.3a1 1 0 0 0 1.4.4q25.6-12.7 52.4-22.8a2 2-10.9 0 0 1.2-1.7q-.3-11-4-21.4-4.4-13.2-15.3-24a2 2 0 0 0-1.7-.3c-2.9 1.2-6.2 2.8-9 3.8l-49.4 18q-6.3 2.3-10.3 4.1a.6.6 0 0 0-.2.9q11.5 11 21.6 23.7m-171.7-29.8q-22 21.6-36.3 49-5.4 10.2-8.7 19.5-4 10.8-6.3 20.3-4.8 19.3-5 40 0 4.5 2.9 8.3 6 8.3 11.9 14 5.2 7.8 7 9.4 9.8 8.4 21.5 13.8 9.3 4.3 16.9 7 4.2 1.4 5.1-2.2c21 5.7 42.5 9.1 63.7 13a379 379 0 0 1 70.5 18.9 47 47 0 0 0 25.6 11l13.7 8.7a1.2 1.2 0 0 0 1.8-.6l4.4-13.4q5.4-18.3 6.2-35.4c1.3-28.4-5-58.5-15.5-85.8-24.2-63.2-81-113.2-151-115.2q-3 0-4.9 1.1-11.6 7.3-23.5 18.6M1286 677.3l5.6 25.4a1 1-7.7 0 0 1 .9q22.6-1.2 44.5-.8a2 2-80.7 0 0 1.8-1.3q3.7-12 3.4-24.2c-.1-4.7-1.6-22.9-5.6-25.4l-.8-.3q-5.3-.7-11.5-.8-23.3-.6-46.3-.3l-.5.7zM789.6 660h-8.2a1 1-82.6 0 0-1 .8q-2.4 9.1-7.2 18.6-9.2 18.4-21.4 32.4-8.4 9.6-13 14-24.2 23.4-52.9 40.6-13.2 8-32.9 19.4-23.3 13.5-47.4 32.3-19 14.3-35.6 31.4-6.6 6.9-13 13.9-2.8 2.2-5.5 2.6a2 1.9-75.6 0 0-1.2.8c-6.4 8.5-12.8 16.6-18.4 26.2q-2.7 4.8-7 11.9a1 1-66.4 0 0 .6 1.5q.7.2 2.2-.3-15.4 27.3-22.6 54.5-5.8 21.8-7.9 40.3-1.8 16.4 1.6 32.5c1.8 7.9 3.7 19 6.6 28.1q9 29.4 22.7 57.6 3.4 6.8 6.4 12l4.9 9q14.1 24.4 30.8 48l12.8 16.8q7.5 9.6 13.4 16.4 33.7 38.8 71.2 70.3 13.5 11.3 32.2 25.7l-6.4-3a.5.5 0 0 0-.5.8 23 23 0 0 0 4.9 4.7q11.7 8 21.7 15.7c2.8 2.2 6.3 3.8 8.8 5.2q2.4 1.3 6.4 4.3 12.8 9.5 20.4 14.1l19.6 12c12.7 8.2 26.7 14 39.8 21.8q3.6 2 10.1 5.1 12.1 5.6 18.4 8.3c6 2.5 11.9 6.2 17.4 8.9q14 6.9 50.9 21.8c11.4 4.7 39.7 13.8 63.8 22.4q11.1 4 17.5 5.7 5.3 1.4 9.6 1.6a1.6 1.6-85 0 0 1.7-1.4c.8-6.4-.1-11.5-2.3-18.8-3.5-11.8-4.5-22.7-6.7-34.3q-1.7-9-2.2-18l-1.4-23.7q-.3-8.2 1.2-31.6.4-6.8 2.2-20c1.4-10.2 1.9-18.2 3.7-25.5 3.6-13.8 7.5-31.7 12.6-47.8 1.8-5.7 2.8-11.7 4.8-17.8 2-5.8 3.3-9.5 4.3-14.3q1.1-5.6 3.2-11.5 4.3-12 6.4-17.2 4-9.4 5.9-16.5.5-2.3 5.7-16.6 1.4-4 17.3-54 1-3.3 2-7.4l5.4-25.7q2.4-11.6 4.5-26l5-36.9c1.5-12 .4-29.6.8-40.8.3-7.7.8-19.2 0-28.2q-1.1-11.7-3.9-32.8c-1-8-3.2-15-3.8-22.1q-.5-5.9-2.9-14.9-7-26.8-16.7-52.2c-2.1-5.6-5.6-10.8-8.2-16.3q-7-14.3-19.2-32-4.4-6.4-10.5-9.3l-11.7-13.6q-12.8-14.2-29.8-26-12.2-8.4-25-15.6-13-7.2-26.8-12.8-40-16.3-82.7-22.6-11.5-1.7-23.2-2.3-5.6-2.9-12.3-2.4-10.4.8-18.2 2-.4.1.3.1zm260.6 104.6q.6 5.3 2 8.4 8.4 18.1 16.5 36.9 4 8.9 6.9 18.5 6.6 21.4 11.4 43.8 3 13.5 4 27.7c.5 6.5 2.4 15.3 3 23.4l2.6 29q.5 5.9-.2 12.7-1.7 16.4-3.1 27.4c-1.1 9-1.3 19.6-2.3 27.7-2.2 17.2-3.4 33-7 49-4.5 20.3-9.7 41-17 60.9-4.4 12.2-6.8 24.7-11 36.8q-4 11.2-7.1 22.6-3.8 13.4-6.3 19l-9.4 25.1q-2 5.3-7.2 25.3-2.7 10.5-5.2 25.7l-6.3 36.8q-2 11.2-1.6 21.4 1 30.4.4 49-.3 11 .7 18.6 2.6 19.2 8.7 35.5c2.6 7 3.7 12 5.6 18.7q2.5 8.8 11.4 11.5c13.8 4.3 28 6.3 43.9 8.3q18 2.4 32.9 2.3 28.5-.2 51.7-4.4 2.8-.5 5-1.3 15.7-6 20-8.1 13.4-7 17.3-10.1 19.7-15 33.5-30.2 12.1-13.2 24.5-32.6c4.6-7.1 9-15.5 13.7-23.7 2.7-4.6 4.5-9.2 6.3-14 3.7-9.8 9.2-19 12.6-28.8l10-28c3-8.3 5.2-20.5 8-29.6q5.9-18.8 10-40.1 5-26.6 6.8-37.4 3-18 5-37.6c.8-8 1-19.2 1.5-26.8 1-19.5.9-32.6 1.3-58.1q.4-18.7-2.5-37l-2.5-17.7q-4.2-33.9-7.4-48.6-2-9.2-3-13-5.3-20-12.9-44.4c-2.2-7-5.3-14.3-8.5-20.3q-11.1-21.2-15.6-29.3-4-7.2-15.4-22.2c-3.2-4.2-6.5-7.2-9.7-11q-3.2-3.8-7.5-7.6-13.6-12-29.3-21.1-10.7-6.2-24-9.2-5.7-1.3-10-2.8-12.6-4.4-15.8-5l-28.3-6.1q3.6 1.3 6.4 4.2l-47.5-8.5q-2.8-3.5-4.4-3.9-14.4-3-34.3-9-3.8-1.2-8.3 0-9.5-3-18.3-8a.4.4 87.9 0 0-.4.6zm120.7.6a.7.1-175.3 0 0 .7.1.7.1-175.3 0 0 .7 0 .7.1-175.3 0 0-.7-.1.7.1-175.3 0 0-.7 0m-612.8 502.2q0 63.6.5 127.2 0 6.1 5.2 9.9 4.7 3.4 8.4 5c17.6 7.8 37.6 11 56.8 8.3q15.1-1.8 29.8-9.4c4.5-2.3 9.3-5.4 9.7-11.1l.5-7.7c-.2-20.3.3-40.3.3-60.4 0-2.7-.7-4-2.7-5.7q-21-16.3-41.2-34.9l-2.2-2q-19.4-17.8-43.2-44.3-11-12.3-21.2-27a.5.5-62.9 0 0-.9.3z"/><g fill="#d84839"><path d="M1053.3 380.4q.3.5 0 1.7l-8.6 1.7q-12.7 2.6-30.5 4.4-3.5.7-5.3-1.7-.2-.3-.5-.2l-.3-.1q-13.5-14-31.6-19.8c-33.2-10.8-67.4-2.4-94.5 18.2q-11.5 8.8-19.7 20.2-8 11.3-11.4 18c-2.3 4.6-5.3 11.2-7.5 17q-10.3 28.6-9 58.8.5 10 2.2 19 1.7 8.7 4.7 18.4.6 2-1 3.8-22.3 26.5-42.3 54.7l-14.9 22a.4.4 0 0 1-.6-.2l-.6-2.1q-4.8-17.6-14.2-31.9-3.4-5-9.8-12.8l1.8-4a1 1-55.9 0 0-.2-.9L747 552.1v-.3l.2-.2h.2l13.2 12.1h.4q4.9-7.7 8.4-14.3a81 81 0 0 0 6.4-22q.8-3.8 1.7-11.4 2-17 3.6-27.7 3.4-21.6 10.5-42.1c5-14.6 12-28.9 18.7-40.7l5.9-9a168 168 0 0 1 62.8-56.2q3.4-1.8 18.3-7.7 2.5-1 14.1-4c18.9-4.7 39.6-5 57.8-1.6q13 2.4 27.2 8.6 27 12 47.9 33.8 4.7 5.2 9 11m21.2 184.4 7 .4.1.4-.1.4q-19 21.7-25 47.5-6.5 28 5.8 52.9c11.8 24 31.9 40.4 56.8 50 4.5 1.7 8.4 2.6 13.5 4q4.2 1.3 10.2 2.6 29.9 6.6 47.4 12.1a169 169 0 0 1 53.4 28.5c6 4.8 12.4 9.3 17.6 15.3q.8 1.7 2 2.6l-4.5 13.4a1.2 1.2 0 0 1-1.7.6l-13.7-8.6q-12.5-6.3-25.6-11.1a379 379 0 0 0-70.5-19c-21.2-3.8-42.8-7.2-63.7-13q-23.3-6.7-41.2-19.8-2.1-1.5-9.3-8-5.9-5.8-12-14-2.7-3.9-2.7-8.5.1-20.6 5-40 2.3-9.4 6.2-20.2 3.3-9.3 8.7-19.4 14.4-27.5 36.3-49m171.6 29.8 22-10.3c11.1-5.2 20.4-8.7 30.8-12q4-1.2 8.4-1.8 2-.3 2.5-.6.5-.5.6-1.6 3.7 10.3 4 21.4a2 2-10.9 0 1-1.2 1.7q-26.8 10-52.4 22.8a1 1 0 0 1-1.4-.4zM758 624.4q2.5 16.4-2.8 32-2.5 8-8.1 17.6-14.7 25.3-38.2 44.4-13 10.5-22.3 17-8.8 6.2-23.7 15-27.2 16.3-55 34.2-3.7 2.4-8 5.6-15 11.6-29.5 24-16.4 14.6-27.7 27.2-53 59.3-67.7 137.5a.5.5 0 0 1-1 .2q-10-12.6-17.5-27-21.1-40.4-28.1-84.6-1.7-10.6-2.4-16.4l-.3-5.1q-2.5-26.4-1.3-49.5 3.4-62.7 29.5-119 13.6-29.3 34.3-56 1.4-1.9 3.4-3.9l3.6-3.7q-3.8 7.2-4.7 8.5-2.9 4.6-4 7-3.1 6.8-6.6 13.5-3.5 6.6-6.4 13.5-12.2 28.8-18.1 59.6l-.4 2q-6 36.9-2.5 73 .9 9 3.2 20.3c3.3 15.7 14.2 39.4 35 29.2a66 66 0 0 0 18.8-15.5l16.4-17.3q20.1-21.1 47.3-37.8c7.8-4.8 17-10.5 26-15.5q26.2-14.8 31.2-17.8 24.3-14.4 46.3-31.4 23.8-18.2 40.5-41 13.8-18.5 21.2-41.3c1.7-5.4 2.3-9.7 3.5-14.6.8-3.3.8-6 1-9.3l.4-.3c4.8 1.4 9.6 14 10.5 17.9q1.2 5 .8 14l-.7 17a.4.1-58.3 0 0 0-.1l1.8-17.8a2 1.9-19.8 0 1 .5-1.1q1.4-1.3 1.9-4.2m584.3 52.8q.3 12.2-3.4 24.2a2 2-80.7 0 1-1.8 1.3q-21.9-.4-44.5.8a1 1-7.7 0 1-1-.9l-5.6-25.4q27.1-2 55.5 3.8a.5.5-82.1 0 0 .6-.5z"/><path d="M605.7 818a80 80 0 0 1-8.7 11q-3.4 3.9-5.1 6.3-7.4 10.7-10.8 17.3-4.5 8.5-8.5 18-11.1 28.8-13 58.7-.5 8.7-.5 22.3 0 6 3 25 4 27.7 14.6 59 9 26.8 23.7 55.3 5.6 10.7 10.6 18.8c5 8 10 16.8 15.1 24.6q40.3 60.8 94.8 109c22 19.5 47.2 37.5 73.7 50.4 18 8.7 39.2 14 59 12.1q28.3-2.5 51.7-17.7 9-5.9 17.6-13.4 23-20.2 42-46.8 19.3-27 37.2-58.8c9.8-17.3 19.6-38 27.1-53.8a531 531 0 0 0 15.1-35.4l8.4-22.4 3.1-8.5q2.6-6.9 5.2-15.8c2.6-9.3 4.6-15.4 6.2-23.2 1.3-6.1 2.8-15 5.5-22.5q-.2 7.6-.6 11.6-4.5 51.6-17.9 100.6-5.3 19.7-12.8 41.4l-20 58.8q-2 6-9.6 30.4-11 35.1-17.1 70-2.2 12.2-4 29.3-1.7 15.3-1.8 29.4-.3 40 7.4 78 2.4 12.2 5 19.3 1.3 3.6 2 6.7a.6.6-88.1 0 1-.7.7c-26-7.9-49.6-15-75.7-24.5q-64.4-23.5-127.8-58-17-9.2-43.5-25.8-23.6-14.9-31.4-20.6l-24.3-17.6q-18.7-14.4-32.2-25.7-37.5-31.5-71.2-70.3-5.9-6.8-13.4-16.4-10.9-14-12.8-16.8-16.7-23.6-30.8-48l-4.9-9q-3-5.2-6.4-12-13.6-28.2-22.7-57.6c-2.9-9.2-4.8-20.2-6.6-28.1q-3.4-16.1-1.6-32.5 2-18.5 7.9-40.3 7.2-27.2 22.6-54.5 8.7-15 15-24.2 5.4-8 14.4-18.5 6.3-7 13-14 16.5-17 35.5-31.2"/><path d="M1041 1222q1.2-.5 1.9.3l.2.7c-.5 4.5-1.5 9.3-1.8 14l-.7 14.3a197 197 0 0 0 5.3 57q3.8 14.2 9.3 24.8 12.1 23.2 35 37.2 12.1 7.4 23.7 10a84 84 0 0 0 52.6-5c32-13.6 54.9-39.3 75.5-66.8q10.2-13.5 21-32.1 21.8-37.4 36.2-74.7a506 506 0 0 0 23.7-79.8q5.3-26.3 9-52.9 1.4-9 2-19 .8-15 2-30.2 3.9 27.9 4.3 54.2.4 22.9-1 56.3a667 667 0 0 1-33.9 181q-5.2 16-10.5 28.3a443 443 0 0 1-24.4 50.3q-4.5 7.8-14.7 22.3-10 14.1-19.9 24.4-7 7.3-19.1 17-19.7 16-44.3 23.5-27.7 8.4-58.2 6.9-39.2-2-79.4-11.8-2-.5-2.9-3-9.8-29.9-13.8-53.2-1.5-8.6-2.6-23v-.5q-.5-1.1-.6-3-.8-25.2-.2-40 .2-4.2 1.6-18.5 1-9.7 2.4-18.5 4.5-28.4 9-46c3.3-13.2 7.8-29.4 13.4-44.5"/></g><g fill="#8ca0bc"><path d="m557 207.7 1.4.3.6.6 4.6 19q2 8.5 8.5 38.2 2.6 12 3.9 22.1 1.7 12.9 3.2 22.4.6 3.7 2.4 21 6.3 61 1 121-3.2 36.2-13.1 76.5l-8.4 3.6c-7.5 3-13.2 5.9-20.6 9.7a.3.3 0 0 1-.5-.4q8.6-28.2 12.9-58.8 10.5-75.9 2.9-152.2l-3.2-30.8q-2-18.2-4-30.8-5.2-32.1-12-63a.3.3 0 0 1 .5-.4q9.6 2.8 19.9 2M533.4 379q0 .8-1.7.4a2.5 2.3-41.3 0 0-.9 0q-28.2 4.7-45 10.1l-37 12-11.5 4a54 54 0 0 1 5.2-21l.9-1q4.4-2.8 6.3-3.6 19.2-7.3 42-14.3 19.8-6 39.8-10.2a1 1-7 0 1 1 .8zm727.3 16.9q-29.5-.8-58.5 3.4-25.2 3.6-46.8 8.2-24.5 5.1-54 13-1.2.2-29.7 8.2c-28.9 8.2-59 12.8-88.3 8.1a73 73 0 0 1-34.3-13.4 1 1-43.9 0 1 0-1.4q7.3-5.4 13.7-7c30.4 2.6 60-.3 90-7q19.5-4.3 42.8-10.4 29.3-7.7 42.7-10.4 24.6-5 48.6-8c23.9-3 48-4.8 71.3-4.6q6.8 0 9.8.3a.6.6-73.7 0 1 .5.8q-5.3 10-7.8 20.2M834.5 637.6q-17-2.3-31.8-2.4a1 1 0 0 1-.8-1.4q3.1-5.4 5.8-9.1 17.6-25.6 39.9-54.6 11-14.4 19.8-27.7 9.3-14.2 8.7-29.9c-.6-13-3.8-24.8-14.4-33a2 2-67 0 1-.7-1.8l2.9-18.4q9.4 4.8 18.2 14.6 9.8 11.1 12.9 22.9 3.8 14.9 1.7 30-2.5 17.2-10 33.1-6.6 13.5-17.3 28-9.2 12.8-23 33.4-5.2 7.7-12 16.3"/></g><g fill="#545f81"><path d="M586.1 183.4c-8.6 2.4-17.6 3.4-26.6 3.9q-12 .7-23.5-2.7a1.7 1.7 0 0 1-.9-2.6q3.5-4.8 8.9-8.5 11.4-7.8 26.3-12.5l10-2.8a123 123 0 0 1 26.6-4q12-.6 23.4 2.7a1.7 1.7 0 0 1 .9 2.6q-3.4 4.9-8.9 8.6-11.4 7.8-26.2 12.4zm33.1 333q.1-14.7 1.9-33.9c3-32 9-63.6 20.9-93.3q7.2-18.3 12.3-28l8.7-15.7c7-13 14.6-23.8 23.8-34.5q14.6-17.1 20.7-23.2l8.4-8.7q10.3-11.1 21.8-21 6.5 6.8 14.1 10.4v.3q-10.7 11.7-21.2 23.8-10.8 12.5-14.1 17.4c-4.5 6.4-9.6 13.6-13.8 20.4q-16.4 26.4-27.8 58.3-4.3 12-6 18.8-8.7 34.9-11 71-.4 5.4-.2 23c0 4.9.8 9.1 1.3 14.2a1.2 1.2.6 0 1-1.4 1.3q-18.6-2.2-38.4-.6m680.3-47.7c-9 8.3-16-8.5-17.9-14.8q-7-23.2-2.2-47.8 2.4-12.7 8.7-23.3 3-5.2 7.6-3.9c6.5 1.9 11 14 12.4 20.3a105 105 0 0 1-1.2 57.3c-1.2 3.4-4.9 10-7.4 12.2m-766-52.4-1.1 24.9a1 1 87.6 0 1-.9 1q-23.6 3-47.6 8a429 429 0 0 0-30.2 7.8c-3.7 1-6.3-3-8-6.4q-2.8-5.4-4.7-10.6 3.5-1.5 7-2.7l10-3.6q5-1.9 10-3.3 26.7-7.7 37.4-10.3 11.3-2.7 28.1-4.8m725.1 29.7q2.8 14.1 9.4 27a.7.7 0 0 1-.6 1.1q-24.6 1.6-43.9 3.7c-11.4 1.3-20.6 3-35.1 5.9q-10.9 2-18.6 4.1-23.5 6.3-39.2 12.3l-8.5 3.5c-8.4 4.3-18.6 9-26.7 14a231 231 0 0 0-30.5 22.1l-7.6 6.6q-7.8 7-18.5 19.5-7.6 9-17.8 25.5-3.7 6-5.7 10.5c-2.2 4.8-4.8 9-7 14.5Q999.5 638 996 658q-3.5 20.4-3.9 40.6a.4.4-67.5 0 1-.6.3c-5.4-5.3-11.9-8.5-18.3-13q-11.5-7.8-24.5-14l-11.4-5.5q-5.6-2.9-11.4-5.5c1.2-2.8 2.9-5.5 4-8q9-20 11-23.7c3.4-6.4 7-14.7 10.8-21.6q10.3-19 22.4-36.7 3.3-4.8 6.4-8.6c4.1-5 9.5-12.5 14.6-17.8 4-4.2 7-8.2 11-12a265 265 0 0 1 81.8-55q17.3-7.4 30.4-11.6a405 405 0 0 1 60.3-14.7q18-2.7 35.8-4 15.2-1.2 44-1.3M629 1417.7q-1.5-34.4-5.7-68.5a70 70 0 0 0-7.2-25q-1.8-3.3-6.4-8.3c-3.3-3.6-7.4-8.4-11-12q-18.6-18.4-39.4-38.2h-.2q-.6 0-.9 1.6l-.2-51.8a.5.5-62.9 0 1 .9-.3q10.2 14.7 21.2 27 23.8 26.5 43.2 44.3l2.2 2q20.2 18.6 41.1 35c2.1 1.5 2.8 2.9 2.8 5.6 0 20-.5 40.1-.3 60.4l-.5 7.7c-.4 5.7-5.2 8.8-9.7 11.1q-14.7 7.6-29.8 9.4"/></g><g fill="#ff917d"><path d="m782.3 124.4 3.5 6.8 3.4 7a536 536 0 0 1 18.3 46.5q3.8 11.5 5.3 19.2 3.8 19.3 2.3 39.6c-1 14-4.6 26.4-10.7 39.4q-1.7 3.6-8.8 12.5-2.9 3.6-10.5 11-12.2 12.1-18.3 19.2-7.8 9-19.6 26-3.5 5-5.2 8.4c-2 3.8-4.8 7.7-6.7 11.3q-6.4 12.2-9 18.5-3 7.5-6.4 15-1 2.3-6.6 19.7-2.8 8.9-5.3 20c-1.5 7-4.7 19.8-6 29.5q-3 20-3.4 40-.1 7 1.5 13.6l-15.5-5.6-.5-.6a296 296 0 0 1 11.6-114.5q10-31.5 26.3-60 2.9-5 13-20 11.5-15 15.5-19.4c15.6-16.5 22.8-23.8 30.4-33.1a81 81 0 0 0 15.8-60.1c-2.8-27.4-13.3-52.2-26.6-78.7q-.9-1.9.9-3.4 5-4.4 11.3-7.8M1071 377.8l-17.6 4.3q.2-1.2-.1-1.7 5-4 11-5l1 .2zm-9.4-.3a.6.1-14 0 0-.5 0 .6.1-14 0 0-.6.3.6.1-14 0 0 .6 0 .6.1-14 0 0 .5-.3M661.3 542.8q48.6 8.7 80 47.4-19.2-6.8-38.2-12.6c-8.3-2.5-17-3.9-25.2-5.5q-8.7-1.6-24.4-2.2-25-1-48.8 4.6c-4.2 1-8.4 2.5-12.7 3.6a97 97 0 0 0-15.8 6c-6 2.4-14.7 7.5-17.7 9.2q-8.5 4.8-11 6.5-22.1 15.3-36 29.4-7.6 7.7-19.6 23.6c-4.2 5.7-6.4 9.5-11.3 17q-11 16.8-21.7 40.4-1.3 3-2.2 6a.6.6 37.3 0 1-1.1 0l-.2-.2q6-30.8 18.1-59.6 3-6.9 6.4-13.5 3.5-6.7 6.6-13.5 1.1-2.4 4-7 .9-1.3 4.7-8.5 10.3-13.6 17.3-19.6 6.6-5.6 13.4-11.8 22.5-17.6 49.3-29 41.4-17.3 86-10.7m602 238.7q-1.2-1-2-2.6l-3-7.8a1.5 1.4 33.4 0 1 0-.4c-1.7-18.8-2.5-30.1-6.5-45.1-6.6-24.4-17-47.5-29.8-68.9q-15.6-26.2-37.2-46.2-16.7-15.6-40.5-28.5-3-1.6-6-2.7c-5-1.7-9.5-4-15.1-5.7q-19.3-6.3-39.9-8.4h-1.7l-7-.4q11.9-11.3 23.5-18.6 2-1.2 5-1.1c70 2 126.7 52 151 115.2a217 217 0 0 1 15.4 85.8q-.8 17-6.2 35.4m-342.7-49.4c-1.6-1.4-1.5-3.7-.4-5.5q3-4.2 8.7-4.4a41 41 0 0 1 23.6 5.8q11.1 6.1 17.1 9.7 4.9 3 8.8 6.8 7.4 7 15.9 17 7.1 8.5 13.2 19 7.3 12.8 11 20.8 3.5 7.7 8.3 21.2 3.8 11.1 6.3 21.9c9 38.2 8 78.3 1 116.6q-1.6 9-5.5 24.7c-3.3 13.8-7.8 25.8-12.4 40.2a354 354 0 0 1-16.2 40q-2.5 5.4-5.9 9.5a5 5-77.1 0 1-2.9 1.8q-6.6 1.7-12.8-.6a2 2 0 0 1-1.3-2.4q6.5-23.3 13.9-52.5 4.4-17.3 7-30.7c10.5-52.5 11-107.4-7-158.4q-12.3-34.9-35.3-63.2-16-19.9-35.1-37.3m142.8 31.2.4.3q-5 3.7-8.5 9l-5-8.1-5.6-8.7a.4.4 87.9 0 1 .4-.5q8.8 4.9 18.3 8m231.2 357a.3.3 0 0 1-.6-.2q-.7-32.6-4.6-67.2c-1.9-17.2-5.4-31.2-9.2-48.3q-9-40.7-28.3-78.5-11.6-22.9-26.6-42.3-14.7-19-34.6-34.6-3.2-2.5-13.3-9.4-2-1.4-3.5-2.1c-1.8-.9-3-2.2-4.6-3q-3.6-1.8-13-7c-2.5-1.4-6.7-2.7-9.4-4.3q-3.4-2-5.9-4.1a1.4 1.4 44.3 0 1 0-2.2q1.4-1.2 3.4-1.7c8-2 15.4-2 25.5-1.4q7.4.5 14.7 2.4 16 4.3 24.4 8.6 18 9.1 30.3 21.3 8 7.9 18.4 22.3 7.5 10.2 15.2 26.3 12 24.9 18 49.2 3.5 13.7 7.8 39 4.2 24.3 4.7 48.4.6 28.3-.4 40.3-1.6 18.4-3 26.6-1.7 9-5 21zM398.3 840.2l.3 1.8q.1 1.4-1.6 1h-44q5-2.1 12.1-2 16.3 0 22.1.4 4.4.4 11.2-1.2m542.1 342.1a.2.2 0 0 1-.3-.2q10.6-33.9 18.8-57.6c.9-2.7 3-6.4 5.8-7.7 8.4-3.8 7.3 9.3 6 13q-3 8.3-8.3 17.7-10.2 17.6-11.3 19.2-7 10.6-10.7 15.6"/></g><g fill="#260c13"><path d="M1643 821.1h-18q-8.4 0-11.3 1.5-5.1 2.5-6.7 8.9-9.6 39-14.9 61.8-5 22.1-8 33.8-7 27.4-8.4 33.7h-.1l-1-8.5q-1.2-12.8-10.7-98.2-4.2-38-11.4-98.2c-4.9-40.5-8.7-78-14.3-123.6-2.6-21.7-5-44.7-7.8-67.5q-.7-4.9-1.6-6.6c-4.7-8.7-17.5-6-19 3.3q-10.4 61.6-17.8 107.6l-5.2 31.4-20.2 120-1.3 8.5q0 .5-.5.4t-.8-.9q-10.8-31.6-27.6-75.5a10 10 0 0 0-19.2 0q-12.5 33-23.6 67a2 2 0 0 1-1.8 1.4l-95.3.2-8.7-.5c4.3-.7 9.3-2 13.6-2 16.7-.2 32.4.3 46.5.1q16.2-.1 30.7-1.5 10.6-1 14.3-10.2 10.5-26.5 19.8-54.6 2.3-7.3 9.8-9c8-1.6 14.8.9 17.4 9 1.5 5 2.3 7.6 4 11.5 3.8 9.3 7.4 19.2 12.2 29.7q3 6.4 4.7 12.6.2 1 1.4 1.1a2.2 2.2 7.1 0 0 2.5-1.9q.7-6.4 2.1-12c1.7-7 2-11.3 2.8-18.3.3-2.7 1.6-7.4 2-10.3q4.7-29.2 10.2-56.5 2-9.9 2.5-15.3c1.6-16.1 6.3-34.9 7.6-46q1.4-11.1 4.3-25.6 2.6-13.5 4.4-28.3c.4-4 2-9.9 2.4-12.8q1.4-10.2 3.3-18.7 3.2-13.7 17-11.3 2.2.4 7 3.5l.5.8q2.2 5 3.4 14.3 4.3 33.2 7 55.6 1 8.5 2 20.8c.9 12 3.5 24 4.1 34.1.8 12 3.3 23.2 4.1 34.4q1.3 17.5 4.5 41.4 2 15.5 2.8 24.1c1.2 15.2 4 29.7 5.4 45q.6 7 2.5 20.9c1.4 10 1.6 19.4 3.2 29.7l1 7.7c1 10 2.8 21.7 4.5 34q.8 5.6 2.3 9.4a1 1 0 0 0 1.6.4q.6-.7.9-1.9l12.2-49.1c2-8.3 4.2-19 6.5-28q.6-2 1.8-7.8 1.7-7.9 5.6-14.9 1-1.8 4.3-4c5-3.3 10.1-3 17.7-3.1q15.2-.2 29.6 1a.2.2-45.4 0 1 0 .5zm-1245.6.9-36-.2a2 2-13.7 0 1-2-1.2q-1.7-3.4-4.4-9.6-10.8-24.8-17.7-39-2.5-5-8-5.2c-6.7-.3-10.8 4.5-11.9 10.6q-14.8 83-27.2 154.8l-3 18.1h-.3q-.5-7.2-1.5-16.4c-2.4-20.5-5.3-49-8-71.5-7.4-59.4-10.6-89.4-18.2-153-6.1-51.7-10.9-97.5-16.9-145.9q-.7-5.8-4.3-8.3-4.2-3-9.3-1.3-6 2-7.1 9.7-21.2 153.7-31.3 228.4-3.2 23.9-4.5 36.7a.3.3 0 0 1-.6 0q-6-16.1-27.3-74.8c-3.5-9.6-16.2-10-19.7 0l-1.2 3.5q-18.5 57.4-20 61.6l-1.1 3a1 1 0 0 1-1 .7l-84.2.2c-7 0-13.3 6-11 13.4 1.6 4.9 6.9 7.5 11.8 7.6q25.2.1 91-.1c7 0 10.5-5.3 12.4-11.6q8.4-27.5 13.6-43.3h.3l30.6 86.2q1.6 4.4 3.3 6 2.6 2.4 6.1 2.9 6.1.8 9.6-3.3 1.9-2.3 2.9-10c6-48 13.2-96.1 19.6-146q6.5-51.4 8.8-68l1.3-9.1a.2.2 0 0 1 .4 0q.7 8.3 2.3 23.2c3.6 32.4 9.7 79.4 14 118.8q9.2 84 22.9 197.9 1.7 14.3 3.9 29.6l1 6.5a11 11 0 0 0 13 7c4.2-.8 6.7-4.6 7.4-8.7q11.6-66 14.7-84.7 9.4-56.4 20.3-116.8l1.8-8.5h.3q5.4 12.8 11.6 24.7 2.6 5 8.3 6.4H397l1.3.3q-2.4 2-4 2.2-12.8 1.6-28.2 1.3-8.7-.1-15.6-1.6c-7.8-1.7-10-7-12.8-13.7a1.5 1.5-39.5 0 0-2.6-.2c-4 6.2-4.4 14.5-5.4 22q-.3 2.3-2.2 10.5-3.4 14.5-5 25c-2.1 15.8-4 31.8-7.6 47.3q-2.3 9.6-3.1 14.7c-1.8 11.3-3 19.9-4.5 27.3-1.8 8.4-2.2 16.7-4 24.8l-2.4 12.4c-1.3 6.9-5.1 16.9-13 18.3-7.3 1.4-12.6-2.4-15.5-8.7q-1.2-2.4-1.8-7.4c-.8-5.5-1.8-10.6-2.1-15.4-.6-8.7-.7-18.2-2.3-26.7q-3.1-16.2-5.8-32.2c-1.5-9.2-.6-18.6-1.8-27.6-2.2-16-3.3-33.3-5.8-47-1.3-7.3-.6-13.5-2-21-2-8.9-1.9-17.7-3.4-26.4q-3-17-3.7-35-.5-10.8-1.4-17c-1.7-11.6-2-18.4-4.1-28.3q-2.5-11.7-3.3-28.4 0-1.3-2.5-11.1a1 1-3.9 0 0-.8-.6l-2.4-.3a1 1 0 0 0-.8.6q-1.7 5.1-1.9 6.8-2.3 21.6-5.1 42.7c-1 6.7-2.9 15-3.3 21.2-.5 6.4-.8 11.5-1.8 17.9q-4.7 28.6-7.5 53.3-2 17.3-3.8 30.1-1.2 7.7-8 12.3l-1 .3q-8-.6-11.4-2.4c-6.8-3.3-10.6-10.2-13-16.8-4-11-10.3-30-16.6-44.4-1.9-4.5-4.3-8.2-8.8-10a.5.5 0 0 0-.7.4q-6.5 19.2-7.7 22.3c-4.4 10.5-10 12.5-21 12.4-15.3-.3-31.3-1.3-47.4-.7q-6.7.3-31.5.7c-9.2.1-16-1.1-21.7-7.7a3 3 26.6 0 1-.8-2.1c.3-5.7 1.6-10.6 6.8-13.7 9.3-5.7 21.9-3.5 32.3-3.4q28.6 0 55.7-1.6a1 1-74.7 0 0 .8-.4q2.3-3.6 4.3-8.5 7-17.2 11-31.6c2-7.7 4.5-13.2 7.9-22.2q1.3-3.5 4.8-8.8l.8-.8c6.3-3.8 13.8-3.8 18.6 2.2 1.7 2 4 6.4 4.8 9.5 1.3 4.5 4 8.4 5 13q1.4 6.6 8 21.5 1.9 4 4.7 7.8a1.4 1.4 33.9 0 0 2.6-.5q3.2-12.1 4.6-26 .6-6.5 3-17.2.8-3.7 3.5-25c1.4-10.8 2.9-18.4 4.3-27.8 1.4-8.9 1.8-15.5 2.8-24.7 1.2-11 3-20.1 4-30.6.8-8.8 2.5-16.7 4.4-26.2 1-5.4 1-11.1 1.8-16.5l2.3-18c1-8.9 3-18.9 4.5-26.8 2.4-13.6 20.8-14.1 25.4-1.7q1.4 3.7 2 7.9c1.3 10.2 3.2 19.6 3.9 29 .7 8.8 3 19.5 3.4 28.8.3 6.4 1.4 12.1 2 19.8q1.4 17.8 2.2 24.8l2.9 17.5q1.4 8.1 3.1 31.5.9 10.5 3 26.2c2.5 17.4 4.2 32 6.3 47.6 1.4 10.2 2.4 25.4 4.1 37q1.8 12 3.8 31c.8 7 2.2 13.7 3.2 19.4q1 4.5 3.4 8.6a1 1 43.8 0 0 1.5 0 46 46 0 0 0 3.5-11.5c1-4.6 3.7-8.7 4.7-13q2.8-11 4.3-22.5c.8-6.5 4.3-17.2 5-24.6.9-11 2.5-20.2 4.6-31.5 1.1-6.2 3.5-15.5 9.2-19 8.9-5.7 17.3-1.1 22 7.2q2 3.6 5.3 10.4l11.8 27.6q2.6 6.2 10.4 6.6l16.6.7q4 .1 8.3 2.6a1.3 1.2 61.2 0 0 .5.1z"/><path d="M1709.6 821q-1.2-.5-2.8-.4-.8.1 0 0c4.4-.2 8.6-1.6 12.8-1.9q5.6-.4 14.6.7 5.6.6 7.9 2.5a13.7 13.7 0 0 1 3 18.2q-3.3 4.9-10.2 5.5-6.3.5-11.2.5h-70.2q-11.8 0-21.8.7a2.4 2.3-79.3 0 0-2 1.3c-2 4.3-3 8.8-4.7 16-2.8 12.2-6.2 23.3-9.2 36.2-1.1 4.9-1.5 10.5-2.8 15.6q-2.6 9.3-5.2 22.8c-1.2 6.6-5.1 14-6.2 21.8q-1.1 8-4.2 19.5c-2.7 10-5 20.2-9.3 37.1q-1.4 5.5-3.4 9.1c-3.4 6.3-10 8.6-16.7 6.5-5.4-1.8-8.3-7.2-9.7-12.7q-1.5-6.3-1.7-10.3-1-14.3-2-25-.7-8-2.3-16.1c-2.3-11.1-3.6-16-4.1-21.7-.4-5-.4-14.2-1.4-21-1.5-10.2-2.1-20-3-30.3-.6-7.5-2.7-14.4-3.5-21.2-1.2-12-2-24.1-3.5-36.4q-.7-6.3-.7-12.8c0-6-2.9-11.2-3.2-16-.7-10.9-.7-23.6-2.5-34.9l-2.5-16.6c-.8-6.5-3.2-12.9-3.7-19q-.9-12.5-1.2-21.2-.7-20-6.1-36.5a1.1 1.1 0 0 0-2.2.2q-1.2 10.8-3.4 25.6c-.8 5.4-2 9.3-3.3 14q-.7 2.6-1.2 5.8c-1.4 10.3-2.5 22.2-4.2 31-3 14.4-5.7 34-7.5 45.5q-1.3 9.2-2.1 12.4-2.4 8.3-3.7 17-3.1 22.7-5.8 37.7c-1.3 7.3-5.3 14-13.4 14.5q-10.5.8-15.3-10-8.4-19.3-12-35.7-.6-2-4.2-10.1c-4.1-9.1-7.5-19.7-11.7-26.7a1 1 0 0 0-1.5.1c-1.3 3.8-2.5 8-3.6 10.5q-4.4 10-7.6 21.2-.9 3-5.2 7.7-3.9 4.1-11 4.3-26 1-45.8.4c-9.3-.2-19.2.5-27.8 1q-4.6.4-17.5-1.2l-2-2.5a.5.5 0 0 1 .4-.8h46l45.2-.2q5.7 0 9.7-2.8 1.7-1.1 3.5-5.2 3.3-7.7 7.9-20.9l9.4-26.3a.3.3 0 0 1 .5 0q7.3 20.2 18 51.2 8 23.5 12.6 35.5 3.1 8.3 10.8 8a10 10 0 0 0 10.1-8.4q1.2-5.8 3.1-17.8c7-43.5 14.1-83.2 21-124.8q6.3-38.6 15.2-89.7h.3l10.8 95.8q5.6 50.5 16.4 144.7 13.3 115.3 16.4 138.8 1.3 9.5 11 9.4c6.8-.1 9.4-5.7 10.7-11.4 11.9-51.2 19.6-84.2 29-122.5 5-19.7 9.5-36.1 13.1-53a1 1 0 0 1 1-.7h106.2q7.9 0 11-6.6c3-6.2-2.3-13-8.5-14.6q-1.4-.3-9.4-.4z"/></g><g fill="#493548"><path d="m1044.7 383.8 8.7-1.7 17.6-4.4c21-5.8 42.1-11.4 63.9-15.4a.4.4 0 0 0 .3-.5q-4.9-17.4-12.2-33.2c-2.8-6-6-11.4-8.5-16.2q-3.2-6.2-7.2-11.8a201 201 0 0 0-34.2-37.3q-3.9-3.3-9.8-9c-11-10.9-9.4-27.3-6.6-41.1q3.5-17 12-35l5-10.1c2.6-5 5.5-9.2 7.5-14a3 3 0 0 0-.6-3q-14.4-14.7-34-20.7-4.7-1.4-9-1.7a1.6 1.5 13.4 0 0-1.5 1q-18.8 43.4-43.4 82.4c-4 6.3-8.7 12.1-17.1 10.5q-9-1.7-10.2-11.6-1-8 0-21.8 2.5-39.3 11.8-78.5c.7-2.7 1.6-4.1-1.5-5.2-15.4-5.8-33.4-8.8-49.2-3.7a1 1 83.5 0 0-.8.9q-2.2 32-7.8 62a247 247 0 0 1-9.4 34.8q-2 6-5.7 13c-7.3 14.4-23.7 16.4-34.9 5-2.6-2.7-4.3-6.2-6.5-9.9q-7.3-12.5-17-33.9a501 501 0 0 1-22.8-57.6 3 3 0 0 0-2.6-2q-5.4 0-11 1.2-13.7 2.9-25.7 9.1-6.2 3.4-11.3 7.8-1.8 1.5-.9 3.4c13.3 26.5 23.8 51.3 26.6 78.7a81 81 0 0 1-15.8 60c-7.6 9.4-14.8 16.7-30.4 33.2q-4 4.3-15.4 19.3 1.1-4.2 3.2-7.3 8.3-12.1 20.6-27.3c5-6.2 12-12.6 16.6-17 15.3-14.4 18.5-37.4 17.4-57.2q-.2-4-1.5-9.5c-2-7.6-3.6-13.5-4.7-20-.8-4.5-1.7-9.6-3.4-14.4q-5.7-16.2-13.5-30.5c-3-5.7-4.8-12.2 2-16.1l14.8-8.6a69 69 0 0 1 25.6-8.1 3.9 3.8 41.4 0 1 1 0c12.1.9 11.2 6.5 14.5 16.3q2 6 6 14.8c4.6 10 9.7 24 14.3 33.2 7.5 15 12 25.5 20.3 37.7 4.2 6.2 13 11.4 20.6 8.7 8-2.8 11.5-10 14.6-18.4q3.8-10.2 5-16.6 1-6 3-14c4.1-18 8.2-41.7 10-62.3.7-9.4 8-14.1 16.9-14.2q17.2-.2 33.3 5.4c9.3 3.2 9 8.5 7.2 17.4a531 531 0 0 0-11.5 79c-.3 6-.5 19.4 7.3 21.3 8.1 2 16-6.7 19-13.3q9.2-18.8 19-34.4a83 83 0 0 0 6-10.9q4.5-11 8.5-18.8c3.8-7.2 4.3-13.8 14.6-14.2 8-.2 14.7 3 22.4 7.5q8.1 4.8 14.2 10c7.7 6.6 5.7 12 1.1 20.5l-7.8 15.2q-2.4 4.8-7.3 18.7-3.1 8.5-4.8 17.2c-2.4 12-3.8 23.7 4.9 34a247 247 0 0 0 21 20.7q9.7 8.8 17.9 18.8c7.3 9 14 22.1 18.4 30 6 10.6 11.1 22.7 14.7 34.1 1.6 5.1 1.5 10.3-4.6 12-4.2 1.2-9.3 2-13.9 3.5-9.7 3-21.3 5-30.9 7.5q-11.7 3.1-28.4 7c-5.6 1.3-8.7 2.9-14-.4m-383.4 159q-44.7-6.6-86.1 10.8-5.2-.2-10 1.8l-.3-.1.1-.4c8.6-3.6 20.1-9 31.8-12.3q5.3-1.5 21.3-3.8 16.8-2.5 35 1.5 5.1 1.1 8.2 2.5m-135.4 39.7q-6.8 6.2-13.4 11.8-7 6-17.3 19.6l-3.6 3.8q-2 1.9-3.5 3.8-20.6 26.7-34.2 56-26.1 56.3-29.5 119-1.2 23 1.3 49.5c.2 1.8 0 3.6.3 5.1q.7 5.8 2.4 16.4 7 44.2 28 84.5 7.6 14.5 17.7 27a.5.5 0 0 0 .9-.1q14.8-78.2 67.7-137.5 11.3-12.6 27.7-27.2 2.6-1.8 3.2-.6v.4l-2.5 4.2-1.2 1.6q-11.7 12-22.2 22.2c-7.6 7.3-15 16.6-20 22.8q-8 9.7-14.4 22.5-6.3 12.5-11.6 21.8-2.5 4.3-5.2 11.5-4.9 13-9 23-.8 1.8-2.7 10a95 95 0 0 1-10.3 26.8 1.7 1.7-38.4 0 1-3-.2q-.1-.5-.8-.3-.6.2-1-.3l-7-10q-3.9-5.5-6.1-10.4c-4-8.7-9-17-12.7-26-5-12.4-10.8-26.6-13.8-40.6q-1.7-7.6-4-14.3a81 81 0 0 1-4.2-28.5q.3-6 .1-7.7c-.9-8.5-2.3-16.4-2-24.7q.3-10.8.4-22.2c0-7.6 1-15.4 1.5-22.7q.3-3 1.5-9c2-9.4 3.1-18.5 6-27.7q3.7-12.4 7.4-29.5c.7-3.3 2.6-7.9 4.7-11.9q6.4-12.1 7-13.6 10.2-22.7 24.9-45.1c5.6-8.6 9.8-13.4 17.9-23.5 4.7-6 10.6-11.5 15.9-17q8.2-8.6 18.7-12.7m256 31.7.6 2.1a.4.4 0 0 0 .6.1l14.9-21.9v2.1a.3.3 0 0 0 .4.2l5.5-5.9h.3l.2.2q-10.1 14.6-12 16.6-5.2 5.8-8.6 9.9h-.7q-1.7-1.4-1.2-3.4m30.1 45.9-22.3-.2h-8q-.6 0-.2-.1 7.8-1.3 18.2-2 6.7-.6 12.3 2.3m271.6 83.8q-1 3.6-5.2 2.1-7.6-2.6-16.9-6.9-11.7-5.4-21.4-13.8-1.9-1.6-7.1-9.3 7.2 6.5 9.3 8 17.9 13.1 41.3 19.9m-383.7 573.3 24.3 17.6q7.8 5.7 31.4 20.6 26.4 16.6 43.5 25.9 63.4 34.4 127.8 58c26.1 9.5 49.7 16.5 75.7 24.4a.6.6-88.1 0 0 .8-.7q-.8-3.1-2.1-6.7-2.6-7.1-5-19.3-7.7-38-7.4-78 0-14 1.8-29.5 1.8-17 4-29.2 6-34.9 17-70l9.7-30.4 20-58.8q7.5-21.7 12.8-41.4 13.4-49 18-100.6.3-4 .5-11.6 2.1-18.9 1.5-35.2a422 422 0 0 0-25.1-133.7q-7.3-19.4-20.2-40.5c-2.9-4.8-6.5-9.5-9.7-14.4q-3.8-5.4-8-10.7 6 2.9 10.5 9.3 12.3 17.7 19.2 32c2.6 5.5 6 10.7 8.2 16.3q9.8 25.4 16.7 52.2 2.4 9 2.9 14.9c.6 7.2 2.8 14 3.8 22.1q2.8 21.1 3.8 32.8c.9 9 .4 20.5.1 28.2-.4 11.2.7 28.8-.9 40.8q-1.6 12.9-5 37-2 14.3-4.4 25.9l-5.5 25.7q-.8 4-1.9 7.3-15.9 50-17.3 54-5.2 14.4-5.7 16.7-1.9 7.1-5.9 16.5-2.1 5.1-6.4 17.2-2 5.9-3.2 11.5c-1 4.8-2.3 8.5-4.3 14.3-2 6-3 12.1-4.8 17.8-5 16-9 34-12.6 47.8-1.8 7.3-2.3 15.3-3.7 25.6q-1.8 13.1-2.2 19.9-1.5 23.4-1.2 31.6l1.4 23.7q.5 9 2.2 18c2.2 11.7 3.2 22.5 6.7 34.3 2.2 7.3 3 12.4 2.3 18.8a1.6 1.6-85 0 1-1.7 1.4q-4.3-.2-9.6-1.6-6.4-1.7-17.6-5.7c-24-8.6-52.3-17.7-63.7-22.4q-36.9-15-51-21.8c-5.4-2.7-11.3-6.4-17.3-8.9q-6.3-2.7-18.4-8.3-6.5-3-10.1-5.1c-13-7.7-27.1-13.6-39.8-21.7l-19.6-12q-7.6-4.7-20.4-14.2-4-3-6.4-4.3c-2.5-1.4-6-3-8.8-5.2q-10-7.8-21.7-15.7a23 23 0 0 1-5-4.7.5.5 0 0 1 .6-.8zm410.4-541.1q-24-4.3-46.6-12.5l-.5-.4q4.6-1.2 8.4 0 19.9 6 34.3 9 1.6.4 4.4 4"/><path d="m1050.3 764.5 4.9 8.1q13.3 23.6 22.5 51.4 11.2 33.6 16.3 66.2 5.6 35.6 6 72.2c0 6.6-.7 12.9-.7 19.5q0 2.7-.5 7.8l-1.6 17q-5.5 57.7-21 109.5-8 27.1-22.1 66.4-2.9 7.9-6.6 19.7-3.1 9.9-6.4 19.7c-5.6 15.1-10 31.3-13.4 44.6q-4.5 17.5-9 46-1.4 8.7-2.4 18.4-1.4 14.3-1.6 18.5-.6 14.8.2 40 .1 1.9.5 3l.1.5q1.1 14.4 2.6 23 4 23.3 13.8 53.3.8 2.4 2.9 2.9 40.2 9.8 79.4 11.8 30.5 1.5 58.2-7 24.6-7.4 44.3-23.3 12.1-9.8 19.1-17.1 9.8-10.3 19.9-24.4 10.2-14.5 14.7-22.3c9.3-16 16.2-31.1 24.4-50.4q5.3-12.3 10.5-28.1a667 667 0 0 0 34-181.2q1.3-33.3 1-56.2-.5-26.3-4.4-54.2-1.2-9.4-2.7-19-5.8-36.4-15.8-69.2-7.6-24.8-19.5-49-7-13.9-14-24.4c-9.2-13.5-20-26.1-33.3-36.9a142 142 0 0 0-44.4-23.2q-25.6-9-48.4-13.5-2.7-2.9-6.4-4.2l28.3 6q3.2.8 15.7 5.1 4.4 1.5 10 2.8 13.4 3 24 9.2 15.8 9 29.4 21.1 4.3 3.8 7.5 7.6c3.2 3.8 6.5 6.8 9.7 11q11.4 15 15.4 22.2 4.5 8 15.6 29.3c3.2 6 6.3 13.3 8.5 20.3q7.6 24.4 12.9 44.3 1 3.9 3 13.1 3.2 14.7 7.4 48.6 1 8.5 2.5 17.8 2.9 18.2 2.5 36.9c-.4 25.5-.3 38.6-1.3 58.1-.4 7.5-.7 18.9-1.5 26.8q-2 19.5-5 37.6-1.8 10.8-6.9 37.4-4 21.3-9.8 40c-2.9 9.2-5 21.4-8 29.6l-10.1 28.1c-3.4 9.8-8.9 19-12.6 28.8a91 91 0 0 1-6.3 14c-4.7 8.2-9 16.6-13.7 23.8q-12.4 19.3-24.5 32.5-13.8 15.1-33.5 30.2-4 3-17.4 10-4.2 2.3-19.9 8.2-2.2.8-5 1.3-23.2 4.2-51.7 4.4-15 0-33-2.3c-15.8-2-30-4-43.8-8.3q-8.9-2.7-11.4-11.5c-2-6.7-3-11.7-5.6-18.7q-6-16.3-8.7-35.5-1-7.7-.7-18.5.6-18.7-.4-49.1-.4-10.2 1.6-21.4l6.3-36.8q2.5-15.2 5.2-25.7 5.3-20 7.3-25.3l9.3-25q2.5-5.7 6.3-19.1 3.1-11.4 7-22.6c4.3-12.1 6.7-24.6 11.2-36.8a516 516 0 0 0 17-60.9c3.5-16 4.7-31.8 6.9-49 1-8.1 1.2-18.7 2.3-27.7q1.4-11 3.1-27.4.7-6.8.2-12.7l-2.6-29c-.6-8.1-2.5-17-3-23.4q-1-14.2-4-27.7-4.8-22.4-11.4-43.8-3-9.6-6.9-18.5-8.1-18.7-16.5-36.9-1.4-3.1-2-8.4"/><ellipse rx=".7" ry=".1" transform="rotate(184.7 601.5 358.5)"/><path d="M1243.3 786.9c-9-.4-18.4-5.4-25.6-11.1q13.1 4.8 25.6 11m-686.1 76.5q-9 10.5-14.4 18.5-6.3 9.1-15 24.2-1.5.5-2.2.3a1 1-66.4 0 1-.6-1.5q4.3-7 7-11.9c5.6-9.6 12-17.7 18.4-26.2a2 1.9-75.6 0 1 1.2-.8q2.7-.4 5.6-2.6"/></g></svg>