<svg xmlns="http://www.w3.org/2000/svg" viewBox="0 0 832 770"><g fill="none" stroke-width="2"><path stroke="#292b3a" d="M701 770q-1.8-10.4-4.4-18.9-1.9-6.4-7-21.7-4.7-14.2-6.3-21.8-3.3-15.9-3.8-31.4-.9-24-.7-41 .1-7.9 1.4-21.5.9-9.6 2.6-16.1 3.6-13.3 8.8-28.8 4.7-14 6.3-19.4c4.1-14 8-30.1 10.5-41q1-3.8 4.5-25.2c1.4-8.3 1.8-15.8 3-24.9q1.1-7.7 1.5-18.7 1.3-33.6 1.2-38.1 0-30.7-2-62.5a590 590 0 0 0-6-51.7q-2-12.6-7.9-45.3-1.7-9.3-3.7-17.3c-4-16-10.5-39.4-15.4-61.2q-1.8-8.2-4.4-17.1-8.3-28.9-17.4-58.2-7.6-24.5-10.7-48.7c-.8-6.3-2.5-15.6-10.4-15.5q-16.3.2-27-.2-12.7-.4-27-.2l-36.5-.2h-42q-72-.3-166.4.3l-20.6-.2-20.7-.1q-78.8.3-93 .2c-6 0-9 7.1-9.5 12.4-.9 9.4-2.2 18-4.9 27.8L184.8 94c-3.4 12.3-7.6 25.2-10.2 33.4q-3.9 12-11.1 42.5a1177 1177 0 0 1-8.5 33.7c-7.9 29.8-13.2 59-17.6 88.9q-2.4 16-2.6 18.3-.3 4-2.1 18.5-.7 5.7-1.4 15.3a640 640 0 0 0-1.9 58.6c.2 8.6 1.3 20.5 1.7 26.9q.8 12 1.7 20.1c1.7 14.3 2 26.6 4.4 39.9q4.8 27.3 9.8 44.5 7.8 26.3 13 44.9l5 17.2q3.8 13.7 4.4 29 1 22.6.2 50.6-.3 13-2.8 22.8-4.4 17-12.5 42.1-2.7 8.3-6.6 28.7" vector-effect="non-scaling-stroke"/><path stroke="#5a627a" d="m682.5 770 1.9-.4.3-.3c0-.2-.7-.8-.9-1.5q-6.8-31.6-17.8-61.2c-2.9-7.7-6-14-9.4-20l-6.3-9.7q-2.6-3.9-6.8-9.3l-7.3-9.5" vector-effect="non-scaling-stroke"/><path stroke="#494e68" d="m636.2 658-5.7-7.8a1 1 0 0 0-1.2-.2c-5.4 3.9-8.4 9-12.8 16.1a125 125 0 0 0-14.1 39c-1.8 8.4-1 20.3 0 28 1 8 1 14.6 1.9 23.4q.3 3.8.4 13.5m-13.2 0q.6-.3 1.4-.4a.2.2 0 0 0 .2-.3l-.3-.8q-1.8-30-7-58.6-1.2-6.7-3.2-13.1l-4.2-12.9q-3.6-10.2-11-18.8a1 1 0 0 0-1.3-.1q-1.1.7-1.5 1.6-1.7 3.8-4.7 8.8a24.1 23.6 70.9 0 0-2 4.2q-4.4 12.3-5 15l-7 29.3q-4.9 19.9-9.2 46.1" vector-effect="non-scaling-stroke"/><path stroke="#292b3a" d="M508.4 770q-.8-.2-1.2-.5t0-1l2.5-10.2q3.2-13.5 4.9-24.6 1.4-9.2-1.5-19.3-3.6-12.9-5.1-17.1c-3.6-10-4.8-14-9.1-27.6a295 295 0 0 1-12.7-60.5l-2.7-23.3q-1.7-13.3-3.4-21.7-2.3-10.6-5.1-21.4-5.7-21.8-12.2-41.5-.5-1.3-4.8-15.8-2-6.6-3.9-16-1.7-8.2-4.7-19.6-7.8-29.3-12-58c-1.2-7.7-1.7-16.6-2.5-22.8q-2.5-19-3.7-38.2-.4-4.4-2-8.1a2 2 0 0 0-2.2-1.5q-2.7.1-3.6 2.4c-2.9 8-2.6 17.5-3.6 25l-1.3 11.1q-1.6 17.8-5.5 41.4-3 17.4-6.8 31.8l-4 14.7-4.6 17.9c-1 3.2-1.3 7.2-2.8 10.6a3.9 3.6 78.3 0 1-.5.8q-2.8 3.4-3.4 5.1c-2.6 7.8-4.6 16.5-7 24.4L380 519q-3 12-7.5 27.6a162 162 0 0 0-4.4 19.5q-2.7 17.6-4.5 32.9-2.1 17.4-6.9 41.8-3 15.6-6.3 25.4-10.6 31.6-11.8 35.6l-2.9 10a63 63 0 0 0-.2 31.7q3.5 14.5 5.7 25.3a1 1-20.2 0 1-.4.9q-.4.2-1.3.3" vector-effect="non-scaling-stroke"/><path stroke="#3d425b" d="M324.8 770q-3.3-16.7-6.6-28.7-4.6-17-13.7-33.4c-2.2-3.9-5.5-8.4-8-12.8" vector-effect="non-scaling-stroke"/><path stroke="#494e68" d="M296.5 695q-5.3-15.6-12.9-30.6a1 1 0 0 0-1.7-.3q-.4.3-.8 1c-3.2 6.2-7 10.8-9.5 17.8q-4.1 11.9-8 27-2.6 9.8-3.7 19.6l-4 39.5.4.6.8.4m-13.4 0 .5-7.7q1.7-22 3-34.2a71 71 0 0 0-.2-20.9l-3.3-13q-3-11.4-8.3-22c-2-4-5.2-8.3-7.3-12.2-2-3.6-5.3-6.8-8.1-9.5a1 1 0 0 0-1.3 0q-1.9 1.7-3.2 4.4" vector-effect="non-scaling-stroke"/><path stroke="#5a627a" d="M215.5 654.9q-7.7 8.7-10.9 13-4.4 6-13.2 19.7c-2.6 4-5.3 9.6-6.7 13.1q-3.1 8.6-9 25.9-2.6 7.4-3.8 12.5l-6.6 28q-.3 1.3-1 2.5" vector-effect="non-scaling-stroke"/><path stroke="#292b3a" d="m164.3 769.6-1 .4" vector-effect="non-scaling-stroke"/><path stroke="#545a73" d="M218.4 80.2c4.2-1.1 8.7-2.9 12.3-3.7q16-3.6 34-4.5 21.1-1.1 41.8 5c15 4.5 30.7 10 45.3 18q20 11 36.8 25.1 2.1 1.8 6 2.7" vector-effect="non-scaling-stroke"/><path stroke="#494e68" d="M394.5 122.8q19 19 30.7 44.9.7 1.5 2.2 1l.5-.4q10.8-25 28.8-45.3" vector-effect="non-scaling-stroke"/><path stroke="#545a73" d="M456.7 123q16-13.7 24.8-19c11.1-7 23-14 35.5-18.3q14.5-5 33-10.2 16.7-4.6 34.5-3.5 14.8.8 24.7 2.6 6.5 1 19.3 4.7" vector-effect="non-scaling-stroke"/><path stroke="#646a83" d="m628.5 79.3 15.6 6.5a.7.7 0 0 0 1-.7q.2-2.4-.8-5.4a250 250 0 0 1-10.3-41q-.4-2.4-2.5-2.7-3.8-.4-9.5.3" vector-effect="non-scaling-stroke"/><path stroke="#545a73" d="M622 36.3c-120.2 0-240.3.3-360.5 0q-16.2 0-31.7.4" vector-effect="non-scaling-stroke"/><path stroke="#646a83" d="M229.9 36.7q-5.2-.7-9.8-.7c-2.9 0-5.3-.1-5.8 2.9q-2.8 16.8-7 32c-1.2 4.6-3.6 9.5-3.4 13.6a1 1 0 0 0 1.3.8l13.2-5.1" vector-effect="non-scaling-stroke"/><path stroke="#7e88a3" d="M229.9 36.7q.3 1.2-.7 3.3-.8 1.9-1 3-2.5 14.2-6.1 27.7c-1.1 4.2.1 6.1-3.7 9.5" vector-effect="non-scaling-stroke"/><path stroke="#646c87" d="M456.7 123q-3.7.4-14.9 2.6-12.2 2.5-28.3.4-12.6-1.6-19-3.2" vector-effect="non-scaling-stroke"/><path stroke="#7e88a3" d="M628.5 79.3c-1.2-3.5-1.7-7-2.7-10.5q-3.7-12.5-4.4-20.1-.6-6.7-1.7-10.7l.3-.8q.9-.6 2-1" vector-effect="non-scaling-stroke"/><path stroke="#646a83" d="M212.5 94.3c-6.7 3-11.5 3.5-14.1 11q-11.1 32.3-18.8 63.7c-1.9 7.5-3.1 12.4 1.2 18.8q.9 1.3 8.9 16.2l2.2 4.2a1 1 0 0 0 1.5 0l1.5-3.4" vector-effect="non-scaling-stroke"/><path stroke="#545a73" d="M195 204.8q11.4-28 33.3-48.7 15.4-14.6 33.6-24l18.8-9.7c11.6-6.1 20.7-11.3 26.4-22.8q1.7-3.3 2.1-6.5a2 2 14.5 0 0-1-1.8q-11-4-23.5-6.6a98 98 0 0 0-37 .4q-18 3.3-35.2 9.2" vector-effect="non-scaling-stroke"/><path stroke="#7e88a3" d="m195 204.8-2.3-6.8c-2.1-6.6-2-12.3-1.5-19.3q.9-13.7 1.9-19.6c.7-4.3 1.9-7.7 2.4-11.1q.6-3.8 2.1-8.2 5.6-16 13.3-32.2 3-6.3 6.7-12a1 1 0 0 0-1-1.6l-4.2.3" vector-effect="non-scaling-stroke"/><path stroke="#646a83" d="M661 198q4-6 8.4-11.7 2.7-3.5 1.4-8.4-9.6-37.5-20.2-74.8-.8-2.7-2.7-3.7-5.6-2.9-15.1-5.8" vector-effect="non-scaling-stroke"/><path stroke="#545a73" d="M632.8 93.6q-13.4-4.3-27.1-7a109 109 0 0 0-38.4-2.7Q553.2 86 540 91a1.6 1.6 72.1 0 0-1 1.9c2 7.5 6.1 14.2 12.6 19.1 8 6.1 15.3 9.4 25.9 15a176 176 0 0 1 43.6 30q21.9 21.3 32.9 49.6a1.4 1.4-24.8 0 0 2 .7l.6-.8q2.4-4.2 4.4-8.7" vector-effect="non-scaling-stroke"/><path stroke="#7e88a3" d="m632.8 93.6-1.2.3a1 1 0 0 0-.5 1.4c2.2 3.3 4.5 6.2 6 10 4.8 11.6 8.9 20 12.3 31.4q3.7 12.4 4.7 17 .7 3.4 3.8 25.1c.8 6 .2 10.5-.3 15.8-.2 2 .8 4.3 3.4 3.3" vector-effect="non-scaling-stroke"/><path stroke="#904059" d="M437.2 182q-3 16.2-4 27.2-2.1 30 4.1 61.7.9 4.4 4.6 12" vector-effect="non-scaling-stroke"/><path stroke="#46304a" d="M441.9 283q2 9 10 14.1" vector-effect="non-scaling-stroke"/><path stroke="#904059" d="M452 297.1q11.8 14 25.7 21.2 10.7 5.6 20.3 8.9 12.3 4.2 30.3 7.8 5 1 28.3 3.7 6.2.7 8.3 1.2c7.3 1.6 13.4 2.5 20.5 4.9q9.2 3.1 17.8 7 8 3.6 14.5 9.6" vector-effect="non-scaling-stroke"/><path stroke="#9a4f67" d="m617.7 361.4 12.5 12a1 1-59.9 0 0 1.6-.4l2.6-9c.5-4 1.8-8 2.3-11.4q1-6 1.9-8.5 4-11.6 8.9-28.8 3-10.6 3.8-22c.5-6.9-2-10.6-6.4-15.2q-15.7-16.8-31.2-28.1c-7.3-5.4-16-10.6-22.8-15.8q-.4-.3-.5-.6a.4.4 0 0 1 .4-.5q2.1.6 4 1.4 13.8 5.7 28 13c9.9 5.2 19.2 13.6 25 18.4a.4.4 0 0 0 .7-.4q-1.7-5-4.7-9.4-15-21.9-34.6-39.8" vector-effect="non-scaling-stroke"/><path stroke="#46304a" d="M609.2 216.3c5.1.4 9 4.3 13.2 8.3q4.6 4.3 9 9a.9.9 32.3 0 0 1.6-.4v-.1a2 2-56.2 0 0-.5-2.4q-5.5-6.3-11.2-12-2-2-.7-4" vector-effect="non-scaling-stroke"/><path stroke="#9a4f67" d="M620.6 214.6q10.5 9.4 20 20c3 3.4 4.7 6.3 7.2 10.2a.8.8-50.1 0 0 1.4-.2c.4-.9-.2-6.2-.4-11.4q-.2-5.1-2.4-12" vector-effect="non-scaling-stroke"/><path stroke="#956674" d="m646.4 221.2-7-18" vector-effect="non-scaling-stroke"/><path stroke="#30293e" d="M639.5 203.2q1.3-.4 2-1.5l.1-.8q-4.7-8.9-6.3-11.4-6.4-10-17.8-23.8-3.5-4.2-8-8-11.9-10.2-24.6-17.5-7.1-4.2-29.6-15.3l-3.8-2c-3-2.2-6-3.6-9-6q-5.7-4.7-10-13.1-1-1.7-6.2-8.8l-.4-1q0-.5-.3-.8a1.2 1.2 58.2 0 0-1.6-.4q-3.4 2.2-8.4 4.3c-7.1 3-9.8 4.6-16.7 7.9q-4.3 2-7.8 4.2-14.4 9.3-26.2 19.1a33 33 0 0 0-5 5.4q-2 3-6.6 8.5a4.9 4.5-13.4 0 0-.5.8c-2.5 4.3-6 8.2-7.7 12.1l-.6.9c-2.3 3-3.3 6.6-4.8 9.4a1.6.9-54.2 0 0 0 .2l-3.4 9.5a4.3 4-35.1 0 0-.2 1l-1 4.4a3.7 3.5-43.1 0 0 0 .9q.2 3 2.1.5" vector-effect="non-scaling-stroke"/><path stroke="#8c535f" d="M639.5 203.2q-9.5-18.3-22.9-34c-15.1-18-34.8-27.8-58.1-39.4q-7.9-4-14.5-8.3a47 47 0 0 1-17-23.8 2 2-20.5 0 0-2.8-1.3q-20.9 7.5-39.7 20.3a118 118 0 0 0-41.8 49.5" vector-effect="non-scaling-stroke"/><path stroke="#903c52" d="M442.7 166.2q-3 6.5-4.5 13.3" vector-effect="non-scaling-stroke"/><path stroke="#872d44" d="m438.2 179.5-1 2.4" vector-effect="non-scaling-stroke"/><path stroke="#9d344f" d="M452 297.1q-6-6.5-10.1-14.2" vector-effect="non-scaling-stroke"/><path stroke="#a7425e" d="M620.6 214.6c-10.2-8.4-22.3-15-34-20.5l-5.5-1.9-.7.3a.6.6 26.1 0 0 .3.9q7.3 4 13 8.7 6.7 5.7 15.5 14.2" vector-effect="non-scaling-stroke"/><path stroke="#f1536d" d="M617.7 361.4q1-4.7 0-9l-.3-1q-4.2-6.2-10-10.8c-1.7-1.4-5.1-4.5-7.4-5.8-7.9-4.7-15.9-8.7-25.6-12-10.2-3.6-24.3-8.3-35.7-13q-11.3-4.7-14.2-6.3c-4.7-2.5-13.5-7-19.8-11.3q-29.4-20.2-45.9-50.7-9.7-18.2-14.6-40.6c-1.2-5.7-1.5-13.2-2-17.8l-.6-.5h-2.8l-.6-.5q-.2-1.2 0-2.6" vector-effect="non-scaling-stroke"/><path stroke="#f67988" d="M646.4 221.2q-1.2 1.2-2.6 1.1a1 1 0 0 1-.8-.6c-4.5-9.3-8.1-14.2-15-24.5-4.3-6.4-11.2-12.7-15.4-16.9a160 160 0 0 0-35.8-26.2q-14.2-7.9-22.8-12-2.3-1.1-15.3-6-9.2-3.4-15.7-4.2-28.5-3.5-50.4 14.2-8.6 7-20.1 20.1l-5.1 5.5q-2.1 2.1-4.7 6.3a1.6 1.6 0 0 1-2.9-.6l.3-1.9 2.6-9.3" vector-effect="non-scaling-stroke"/><path stroke="#9a4f67" d="M202 220q-3.6 12.9-3.6 26.1a.4.4 64.3 0 0 .7.3l7-9" vector-effect="non-scaling-stroke"/><path stroke="#46304a" d="m206.2 237.3 2.6 13.6" vector-effect="non-scaling-stroke"/><path stroke="#9a4f67" d="M208.8 251c-2.9 4.3-7.3 9.8-7.5 15.2a.3.3 0 0 0 .5.2q3.2-3.8 7-6.8 11.6-9 20-13.5t26.4-12.7q1-.4 1.8-.3a.6.6 0 0 1 .2 1q-7.6 5.8-15.2 10.7-10.7 7-15.2 10.8-11.2 9.6-19.3 17.7c-4.8 4.7-10.7 11.2-10.6 17.4a75 75 0 0 0 3.8 20q7.8 26.6 9.4 35 3.2 16.6 5.3 28.9a.4.4 0 0 0 .7.2l12.8-12.2" vector-effect="non-scaling-stroke"/><path stroke="#904059" d="M228.9 362.6q7.7-6.7 14.7-10 6.8-3 20.3-7.8 8.3-2.8 18.5-4.5 12-2 31.7-4.6c8.5-1.1 13.7-2.1 22.7-4.3q21.6-5.1 37.2-14.4 7-4 17.5-14 .7-.7 2.6-.6l1-.3q1.6-1 4.4-4.1 12.6-13.8 16.6-31.5c1.3-5.4 1.4-11.4 2-18.3q.3-3 .7-12.4l.5-12.3q.3-12.5-1-26.4-.3-2.8-1.3-7-.8-3.4-1.3-7" vector-effect="non-scaling-stroke"/><path stroke="#30293e" d="M415.7 183.2q2.6 7.3 3.7 15a.4.4-30.4 0 0 .8.2q.5-.7 1.2-1a1 1-13.1 0 0 .5-.8q-.5-6.1-.8-7-2.9-8.2-4.5-13.7a81 81 0 0 0-16.9-30.2c-2.1-2.5-6.8-5.8-9.8-9-9-9.5-18.8-19-29.6-25.4A283 283 0 0 0 331 96.5q-2.9-1.3-8.3-1.2a1 1 20.7 0 0-1 .4q-3.8 4.2-6.2 9.4-.8 1.8-7.1 9a9 9 4.1 0 1-2 1.8c-4.5 2.8-8 6-12.5 8.6q-7.8 4.5-16 8.5-12.7 6.2-16 8.3-12.5 7.8-17.2 11.8-9.4 8-16.9 15.9-4.5 4.8-12.7 16.2-1.7 2.5-3.4 5.6l-3.2 5.6q-3 5.1-6.8 15.9-1.7 4.6.2 7.7" vector-effect="non-scaling-stroke"/><path stroke="#872d44" d="M415.7 183.2q-2.4-8.7-6.3-17" vector-effect="non-scaling-stroke"/><path stroke="#8c535f" d="M409.4 166.2q-3.6-8.6-9.4-15.9c-2-2.4-3-4.5-4.5-6.7l-.6-.4h-2.4a1 1-13.5 0 1-.8-.4q-.6-1.2-2.2-2.9a153 153 0 0 0-31.6-27q-15-9-32.6-15.4-3-1-3.8 1.3a54 54 0 0 1-27.5 28.7c-5.1 2.7-10.2 5.6-14.6 7.6q-3.2 1.5-10.7 6-1 .7-10.7 6.2-8.4 4.7-17 12.4-18 16.1-29 37-5.5 10.8-9.7 22" vector-effect="non-scaling-stroke"/><path stroke="#903c52" d="M202.3 218.7q0 .6-.3 1.3" vector-effect="non-scaling-stroke"/><path stroke="#ec6a7a" d="M409.4 166.2q1.8 6.2 1 12.8" vector-effect="non-scaling-stroke"/><path stroke="#f67988" d="M410.3 179q-2.3-1.5-2.7-2.2-6-8.7-13.6-15.2l-9-7.6q-3.5-3.5-12-10.3c-16.4-13.3-39.8-15-59.3-8.1l-10.4 3.8q-14.8 6.2-38 19.2-25.3 14.1-40.6 34.3a5.4 4.8-87.8 0 1-.8.9q-3.7 3-6 6.6c-2.6 3.7-4.5 6-6.1 9.2-1.4 2.7-5.1 10.2-8.9 10.8l-.6-.4v-1.3" vector-effect="non-scaling-stroke"/><path stroke="#f1536d" d="M410.3 179q1 8.6-1.1 18.2-4.7 22.1-14.1 40.5a2.2 2.1-85 0 1-1.3 1l-1.1.5a3.4 3.3 3.8 0 0-2 1.7q-7.5 15.6-19.6 28.2-12.6 13.2-27.8 23.2-9.7 6.4-24.1 13.6c-14.2 7.2-28.4 11.8-44.8 17.3q-9.3 3-18.4 7.5-19.3 9.6-32.9 27.3a1 1 0 0 0 .3 1.6l5.5 3" vector-effect="non-scaling-stroke"/><path stroke="#a7425e" d="M208.8 251q9-13.5 17-22.2 15.5-16.7 38-33.3a3.7 3.5 1.9 0 0 .4-.4q2.1-2.3 5.3-4a.4.4 0 0 0-.3-.8q-3 .9-6.7 3-13.5 7.4-27.4 16.3-7.7 5-15.8 13.2-7 7-13.1 14.5" vector-effect="non-scaling-stroke"/><path stroke="#545a73" d="M690.5 407.2q-.3 1.2-.1 2.6a.3.3-3.4 0 1-.4.3h-.3l-.5-.6c-.1-4-1.5-7.7-2.2-12l-1.6-10.6c-1-8-3.6-16.9-5.8-23.4-4-11.4-9-24-13-36.5q-2.3-7.5-5.2-14a.8.8 0 0 0-1.4.1 458 458 0 0 0-10.8 46.7q-1.4 7-2.8 20.5-1.2 10.8 1.7 19.6 9.7 28.4 14.5 57.5.9 5.2 3.5 33.8 1.2 13.6 1.1 27.6c-.1 19-.8 32.7.8 48.5.3 2 0 4.5.4 6.8" vector-effect="non-scaling-stroke"/><path stroke="#646a83" d="M668.4 574v8a.5.5 0 0 0 1 .2q5.2-11.7 7.7-19.6c2.2-7.2 3.4-10.7 5-17q3.4-14.4 6.2-24.3l.1-.6q0-1.4.3-2.5 5.3-19 8.3-37c1.1-6.3 1.1-10.7 2.5-16.9q.4-2 1.7-12.6 3.6-28.2 3.6-56 0-16-1.8-43.2-2.2-31.6-5.6-51.2c-5.2-29-10.2-51.4-18-88.3-.7-3.6-1-8.6-2.5-12.2a1 1 0 0 0-1.5-.2q-1.7 2.1-3 4.3c-7 12-12.2 25.4-11.5 39.9q.6 12.9 4.6 35.4c1.6 8.6 6.5 19.3 8.5 25.1q6.8 20.4 9.9 35.8 3.9 19.8 5.6 38.9c.8 8.4.6 18 1 27.2" vector-effect="non-scaling-stroke"/><path stroke="#7e88a3" d="M668.4 574q.8-6.2 2.7-12.2 1.6-5.1 2-7.9c1.2-10 3.7-18.6 6.7-28.9q2.1-7.2 2.5-10c1-8.2 1.5-14.7 3.5-22.9q1.5-6.3 2-10.6l2.5-22.7q1.7-13.5 1-30.8l-.8-20.8" vector-effect="non-scaling-stroke"/><path stroke="#545a73" d="m175 575 4.3 8.6a.6.6 0 0 0 1.2-.2c.7-5.6-.3-11.7 0-16.5.2-4.2.6-8 .4-12.9q-1.2-31.1.8-63.8a249 249 0 0 1 7-46.5l6.8-25.4c1.4-5.4 3.4-10.1 4.8-14.3q2.4-7.2 3-13.4.4-4.4-.7-13.7-2.7-21-7.7-40.3-3.8-14.3-6.5-22.8a1 1 0 0 0-1.6-.2q-1 1.4-1.7 3.8-1.4 4.8-11.6 34-3.7 10.5-5.3 16.6-3.4 13.7-4 17-1.6 10.4-2.7 14.6c-1 4.3-1.3 8.1-2 12.2a.4.4 0 0 1-.8 0l-.5-1.3" vector-effect="non-scaling-stroke"/><path stroke="#646a83" d="M158.2 410.5q.5-9.3.7-18.5.2-11 .6-15.4a332 332 0 0 1 17-75.2q5-15 6.4-21.4 3.5-17.7 4-33.8.5-24.6-13.4-45a.6.6 0 0 0-1 0q-.7.9-1 2.3-2.6 13-9.4 41.8l-6.5 32a592 592 0 0 0-11.2 93q-.8 25.3.8 54.6.4 8 1.5 17.2 1.7 14.3 2.2 17c1.6 9.3 2 15.9 3.7 24.1q4.2 21.8 6.8 34.3 4 19.5 10.1 40.8 2.4 8.4 5.5 16.6" vector-effect="non-scaling-stroke"/><path stroke="#7e88a3" d="M158.2 410.5c-1.3 13.9-.7 25-.4 41.5q0 4.5 2.8 31.7c.7 7 2.9 13.1 3.7 20 .3 2.7 1.4 5.7 2.2 8q.7 2.1 1.3 6.1 2.3 13 3.3 21 1 7.8 3.8 15.8 2.8 7.7 3.7 12.3 2.3 11.2-3.6 8" vector-effect="non-scaling-stroke"/><path stroke="#3d425b" d="M275 488.8q-4.2 18-6 33.2a181 181 0 0 0-.2 44.9c1.5 10.5 1.8 19.4 4.2 29.7 3.6 15 5.3 23.5 9.9 34.1 8.4 19.7 12 28.8 17.3 39 3.6 6.7 5.4 12 9 21.1q1.2 3 3.6 5.2a.7.7 0 0 0 1-.6q-.7-4.6-2.6-13.6c-1.6-7.3-2.3-15.7-3.4-23.6" vector-effect="non-scaling-stroke"/><path stroke="#494e68" d="M307.8 658.2q-.4-5.7-1.1-11.4c-1.1-8-1.7-13.8-1.3-20.4q1.4-24.4 5.4-52.4.5-4 1.6-24l-.2-1q-.6-1.8-.6-2.3-1.8-20.9.5-40l.8-7.1.8-7.2c.8-5 1.2-9.4 2.4-14.5 1.2-5.5 1.8-10.4 3.1-15.8q3.4-13.7 6.5-29.1c.7-3.6 2.3-7.3 2.4-10.3a3 2.9-35 0 1 .2-.8q2.2-6.3-.2-14-6.4-20-16-53.3-.8-3-2.3-6.1a.6.6 0 0 0-1-.2 25 25 0 0 0-5 9q-5.1 13.8-9.9 28.6-3.3 10.4-6.9 26.2l-6 26.3q-5 21.6-6 50.4" vector-effect="non-scaling-stroke"/><path stroke="#4d546f" d="M307.8 658.2q-.5.6-1.2.5a1 1 0 0 1-.7-.7 65 65 0 0 0-3.6-14c-1.4-3.5-3-8.4-4.8-13q-5.4-12.8-6.5-16.8-3.6-13-6.4-25.4-4-20.8-5.2-40.2c-.4-7.1-1.6-14.1-2-21.7q-.8-23.3-1.4-27.9-1-7.7-1-10.2" vector-effect="non-scaling-stroke"/><path stroke="#3d425b" d="M519 413.6c-5 12.2-3.2 24.1-.7 37.1q2.5 12.8 2.8 17.3.3 2.8 3.7 25.4c1.3 9 3.5 19 5 28.7q2.2 13 6.7 25.2" vector-effect="non-scaling-stroke"/><path stroke="#494e68" d="M536.5 547.3q1.1 17.7 3.2 35.3 2 17.2 2.5 26.7 1 18 .5 27.5-.1 3.2-1.6 14.2" vector-effect="non-scaling-stroke"/><path stroke="#3d425b" d="M541 651q-1.7 6.3-1.5 9.6.5 13-2.7 25.4-1.1 4.5-1 9a.7.7 0 0 0 1.3.3c4.3-7.9 7.7-17.6 12.5-26.8q15.7-30 24-62.5 3-11.6 4.4-21.3a226 226 0 0 0 2.4-24.1c.3-13-.5-25.1-1.7-40.6q-.8-10.4-1.9-13.3l-3.3-9.4" vector-effect="non-scaling-stroke"/><path stroke="#494e68" d="M573.5 497.3c.1-23-1.8-46.2-7.6-68.4l-4.5-17.4-7.2-29.2q-4.4-15.3-11.7-29.5-1.3-2.4-3.1-3.6a1.3 1.3 0 0 0-2 .8c-5.3 19-9.2 30.8-18 58.4q-.5 1.3-.4 5.2" vector-effect="non-scaling-stroke"/><path stroke="#4d546f" d="m573.5 497.3-2.5 32.2c-.6 8.7-1.9 15.8-2 24.3q-.2 6.6-1.4 15.4l-3 19.6q-2.9 15.1-8 30.8c-2.2 6.6-6.5 15-8.7 19.8q-1.7 4-3 8.9l-.5.8q-1.4 1.4-3.3 2m-4.6-103.8c1.7-9.3 1.4-18.2 1.5-26 0-9.5-1-15-2.5-28.2q-1.1-9.2-3-18.1-3.6-17.3-4-20c-1.6-9.4-4.4-19.1-6.5-29.3q-1.3-5.9-3-12.1" vector-effect="non-scaling-stroke"/><path stroke="#494e68" d="m203.3 439-1.6 6.8" vector-effect="non-scaling-stroke"/><path stroke="#5a627a" d="M201.7 445.8q-.6 2.1-1 4.4-4.2 27-5.2 42l-.6 9.3q.1 2.7-.3 24-.2 6.2 0 24 .2 19.6-.7 34.8c-.5 7-1.6 12.8-2.2 18.5q-.3 2.6-2.3 13.8-2.8 16.1-2.8 32.6" vector-effect="non-scaling-stroke"/><path stroke="#494e68" d="M186.6 649.2v18.4l.6.4c2.7-1.5 4.4-4.4 6-7.2a4.6 4.2-13.5 0 1 .5-.8q8.4-10 10.1-12.7 4.8-7.7 7.6-11.2 9-11.4 12-16.4l8-14.3q3.8-6.8 7-14.8 6.2-15.5 9.7-28.5 4.7-17.4 6-24.8 1.6-9.8 3.7-34.5c.7-7.3 1.9-13.7 2.5-20q.8-8.1 2-15l4.8-29c1.7-10 5.5-23.8 7.3-32.4 2.2-9.7 5.4-19.7 8.2-28.9.5-1.9.8-4.6 1.8-7" vector-effect="non-scaling-stroke"/><path stroke="#3d425b" d="M284.4 370.5q4.2-8.5 7-18a1.3 1.2-84.1 0 0-1.4-1.6q-14.2 1.1-28.2 6.9c-9 3.7-17.8 9.9-27.2 17q-6 4.6-10.4 11.9c-5.5 8.9-10.5 16.6-13.9 26.8-2.6 7.8-6.5 15.6-7 25.4" vector-effect="non-scaling-stroke"/><path stroke="#4d546f" d="M284.4 370.5q-.8-1.2-3 .6-1.6 1.4-2.6 2c-12.8 6.3-22.8 11.1-33.4 18.1q-5 3.3-11.8 10.1l-10.9 11.2q-4.6 6.4-8.2 14.3-1.7 3.2-4 6.3l-.6.7q-3.8 2-6.6 5.1" vector-effect="non-scaling-stroke"/><path stroke="#6a748e" d="M186.6 649.2q0 2.3.6 3.8a1.6 1.6 0 0 0 3-.2q3.3-13.4 8.6-26c2-5 5.5-12 6.8-18.7q2.2-11.7 2.3-19.8l.2-35.4q0-5.8-.7-15.1l-1-15.1q-.7-17.1-1-20.8c-.4-5 .2-10.7-.2-16.6q-.6-8.4-.6-20.6c0-5 1.3-9.8 1-15q0-6 .8-10.8a1 1-30.9 0 0-2-.5l-2.7 7.4" vector-effect="non-scaling-stroke"/><path stroke="#494e68" d="M565.5 373.8c2.2 7.8 5.5 16.4 7 23.4q3.2 15.4 6.2 27.8 3 11.9 5.8 27.9 6.2 35 9 69.7 0 1.2.6 5.3c.7 4.3.8 8 2 13q4.7 19 9.6 36.6c1.2 4.5 3.1 9.9 4.8 13.5q4.5 9.1 9 19.2c3.6 7.8 8.4 15 13.3 21.7 7 9.6 11 16 17.5 24.2l9.1 11.8q1 1.3 3 2.7a.4.4 15.2 0 0 .6-.4l-1-11.8" vector-effect="non-scaling-stroke"/><path stroke="#5a627a" d="M662 658.4c0-18.7-2.6-34.9-5.4-55.7q-1-8-2-26.8-.1-3.6-.6-6.9-.6-8.8-.5-28 .1-27.5-2-59.2-1.4-22.6-6.7-44.5" vector-effect="non-scaling-stroke"/><path stroke="#494e68" d="m644.8 437.3-.3-3.3" vector-effect="non-scaling-stroke"/><path stroke="#3d425b" d="M644.5 434c-1.5-8-5-15.7-7.4-22.7q-2.7-7.9-5.6-13c-4.2-7.6-7.3-13.8-12.7-19Q601 362 577.5 355c-6.3-1.8-12.7-2.6-19.1-3.6a.9.9 0 0 0-1 1.3q4.9 10 8 21" vector-effect="non-scaling-stroke"/><path stroke="#4d546f" d="M644.5 434c-2.3-1.6-3.2 1.2-4.4 2.1a1 1-25.1 0 1-1.3-.5q-.3-1.4-2-4c-2.3-3.6-3.9-8.6-5.6-11.8-4.2-8-12-15.4-18.7-21.4q-9.8-8.8-21.4-14.7l-25-12.1-.6.2q-.2.8 0 2" vector-effect="non-scaling-stroke"/><path stroke="#6a748e" d="M644.8 437.3q-.7-.4-.9-1a.8.8-56.4 0 0-1.5.4c0 3.7 1 7.1 1.2 11.4q.6 9.7-.2 18.9c-.6 8-.7 14-.8 21q0 6.2-.7 15.9c-.9 12.2-1 23.5-2.4 37.5q-1.2 11.4-.8 23.9.5 17.4 2 32.2.3 4 1.3 8.2 1.6 7 2 8 1.8 4.4 6.4 17c2.5 7.2 4.1 14.7 6.8 20.6.8 2 1 4.7 1.4 6.6a2 2 77.3 0 0 2.5 1.6q.2 0 1-1.1" vector-effect="non-scaling-stroke"/><path stroke="#494e68" d="M358.4 483.4a.4.4 0 0 0 .7-.2c-.2-1.3 0-4.7.4-6.8 1-5 1.2-10.8 2-15.7l2.8-15.4q3.2-17.3 3.4-34 .2-9.2-1-16-3.1-19-17.5-31.8-4.3-3.9-7.2-5.2c-4.3-1.8-10.3-4.4-14.7-3.5a1 1 0 0 0-.9 1.3q3.5 14.4 8.8 30.4c2 6.2 3.3 11.5 5.2 16.8q2.6 7.2 4 12.5L349 434c3.3 12.6 6.3 25.8 7.8 39.2q1 8.8 1.6 10.2m132.2 3.2q.4-1.4.3-5 0-1.9 1.3-6.5a6 5.7-36.2 0 0 .2-1.2c.2-3.3.5-9.1 1.4-13.9q4-20 6.6-30.4l5-19.6c3.6-13.4 8.3-26.5 12.4-39.7q2-6 4.9-13.4a1.5 1.5-75.7 0 0-1.2-2.1q-3.5-.4-6.8.8-16.6 5.8-24.8 20.7-6.5 11.8-7.7 25.2-1.8 21.3 1.8 41.8 4.4 25 5.5 43.2a.6.6 0 0 0 1.1 0" vector-effect="non-scaling-stroke"/><path stroke="#3d425b" d="M501.6 498q-.4 8.6-1.7 12.4-2 6.2-2.6 12-1.5 16.7-1 31.2c.1 6.6 1.8 16 2.6 23q2.2 20.8 4.8 39.3 2.2 15.5 5.5 28.2c3 11.3 4.4 17.7 7.6 27l7.6 22a.6.6 0 0 0 1.1-.1l4.8-38.7" vector-effect="non-scaling-stroke"/><path stroke="#494e68" d="M530.3 654.3q1.8-7 1.9-12.3l-.3-24.6a333 333 0 0 0-5.7-51.1q-2-12-3.9-24.7-1.2-8.4-4.4-24.6c-2.2-11.4-3.7-21.3-6.4-34q-1.4-6.4-2-13.9c-.2-4.4-1.4-9.5-1.4-14.4a.6.6 0 0 0-1.2-.1q-.5 1.5-.5 3 0 5.7-.6 8.2a4.5 4.3-38.5 0 0-.1 1q-.4 11.7-1.3 15.9-1.5 7.5-2.8 15.3" vector-effect="non-scaling-stroke"/><path stroke="#4d546f" d="M530.3 654.3q-2-.6-2-4.6.1-2.7-.5-4.2c-3-8.3-5.3-17.2-8.3-25.9q-5.9-17-8.8-34.3-1.3-7.6-3-19.5c-2.4-15.4-3.6-31.8-5-47.6q-1-10.2-1-20.2" vector-effect="non-scaling-stroke"/><path stroke="#3d425b" d="M317.5 644q-.6 7 .1 10.4 4.2 19 4.8 37.7a.5.5 60.2 0 0 1 .2q2-3.2 3.3-7.1c3.4-11 8.6-25.9 11.4-38.5q3.2-14.5 6.3-29.9c2.1-10.4 2.7-21 4.2-32.4q1.6-12 2.1-24.4 1.2-28.2 1-36.7-.1-5-2.9-12-.7-1.7-1.3-7.8" vector-effect="non-scaling-stroke"/><path stroke="#494e68" d="M347.5 503.5c-.4-4.3-.5-8.8-1.4-13a135 135 0 0 1-2.7-20.8c-.2-3-.8-9.6-2.7-11.3l-.3.1v7.1a5.5 5.3-39.6 0 1-.1 1.1c-1 4.3-1 8.5-2.1 12.9q-2 8.4-2.9 14l-9.8 57.4q-1.4 8-7.4 50.3-.6 4.6-.9 10c-.5 11-1 21.8.3 32.7" vector-effect="non-scaling-stroke"/><path stroke="#4d546f" d="M347.5 503.5q.3 15.9-1 26l-3 26.5q-3.3 30-12 58.6-2.8 9.7-8 22.6l-.3 1.5-.5 1.2q-2.1 2.7-3.2 7.2a.8.8 0 0 1-1.6-.1l-.4-3" vector-effect="non-scaling-stroke"/><path stroke="#545a73" d="m578.5 660.4 4.7 6.6q6.6 9.5 9.8 20.7a.6.6 0 0 0 1 .3q.4-.3.5-.7c1.9-8.5 4.2-13.2 8.8-23.5 4.3-9.6 10.9-14.6 17-21.7" vector-effect="non-scaling-stroke"/><path stroke="#494e68" d="M620.3 642.1q2.6-2.3 1.1-4.8c-3.2-5.6-5.1-9.4-8-13.7q-6.2-9.2-10-19l-5.5-14c-1.8-4.2-3.1-9.3-4.4-12.4a.5.5 0 0 0-1 0l-.4 1.6a.6.4 62.1 0 0 0 .2q-.6 7.3-2.2 13.3-2.1 7.7-2.8 10.8-3 14.1-8.4 29-3.4 9.4-6 17.3a4 4 0 0 0 .5 3.3l5.3 6.7" vector-effect="non-scaling-stroke"/><path stroke="#646c87" d="M620.3 642.1c-.2-6-5.6-9-10.6-9.7-3.2-.4-7-1-11 .1q-11.3 3.3-16.1 14-3 6.6-4 14" vector-effect="non-scaling-stroke"/><path stroke="#5a627a" d="m230.5 632.2-3.9 6.4a3 3-51.7 0 0 .4 3.2c7.3 7.3 13 12.6 16.8 19.6q3.4 6.2 8.3 17.8 2 5.1 3.1 10a.7.7 41.2 0 0 1.4 0c1.2-9.5 6.7-17.1 11.6-24.9" vector-effect="non-scaling-stroke"/><path stroke="#494e68" d="M268.3 664.3q3.3-5.4 8-9.2 1.3-1 1.5-2.6l-.2-1.1q-1.6-3.1-2.5-6.5c-1.1-4.6-3.7-10-5.3-13.8q-1.3-3-2.6-7.4-6.7-22.3-10.2-44.5a.5.5 0 0 0-1 0q-6.8 18.9-15.8 37.4l-1.4 2.3q-4.7 6.4-8.3 13.3" vector-effect="non-scaling-stroke"/><path stroke="#6a748e" d="M268.3 664.3q.8-11-3.6-20.5c-3-6.8-14.2-12.4-21.4-12.4q-6.5 0-12.8.8m-11.2-94.5c.7-6 .5-13.2 1-19.3l1.3-17.1q.6-8.3 2-17l3.9-25.9q1.5-10 4.5-22.1l2.6-15q.3-1.7-.7-2.7a1 1-60.4 0 0-1.6.5q-1 3.5-2.3 5.7c-2.3 3.8-2.7 6-4.2 9.9q-.6 1.4-1.2 4.4c-1.6 8.3-4.7 18.3-6 27q-3.5 23-3.6 43.5c0 9.7 1 19.4 3.3 28.2a.5.5 0 0 0 1 0m411.4-.2q.8-3.4 1-7.6c.5-13.6 1.5-25.6.4-38.6q-1.7-21-6.4-43.4-2.5-12-8-26-.8-2.1-2.6-3.5a1.2 1.2 0 0 0-1.9 1.1q2.3 10.6 6.4 32.1 1.7 9 2.3 14.5t1.2 10.3q2.5 17.4 4.3 34.2c.3 3.1 1 6.5 1.3 9q.8 12.2 1 17.8a.5.5 0 0 0 1 .1m5.5 120.4c-1.4 3 .5 6.3 2.3 8.8q3.4 4.7 7 9c2.8 3.4 4 6.4 6 9.5q1.5 2 3.4 7.7 2.2 6.7 5.4 15.6c4.4 12.8 6.9 25.1 10.2 38 .5 1.8.6 4.4 1 6.1q2.5 8.7 4.1 17.3m-24.8 0q.5-14.8-1-24c-1-6.8-2.4-17.4-4.6-24.9-2-7-2.9-13.3-5.5-21.2q-1.2-3.8-3-11.6-.2-1.2-1.3-2.8h-.3v8c1.1 12.3 1.8 24.1 3 36.3l3.3 29.4.8 5.2c.2 1.5 0 3.8 1 5.6m-437.8 0q1.3-6.2 2-12.5l1.7-12.5q2.9-18.5 3.7-32 1-16.4 1.9-28c.2-2.3 1.8-4 2-7a.3.3 0 0 0-.5-.1q-1.5 1.4-2.3 4c-2 6.4-4 10.9-5.4 17-1.1 4.8-3.2 9.4-4 14.3q-2.8 14.5-5 28.9c-1.2 8.7-1 18.5-1.6 27.9m-24.6 0q.2-2.2 1.2-7.2 6.6-30.2 8.9-39.7 1.4-6 3.8-11.8c2.6-6.3 5.8-14.2 6.8-17.4q1.6-5.2 4.7-10.4l7-13.2c2.5-4.8 8-9 9.8-15.4" vector-effect="non-scaling-stroke"/><path stroke="#4a5061" d="m166 770-1.7-.4" vector-effect="non-scaling-stroke"/><path stroke="#4d546f" d="M296.5 695c.7 4.3 1.9 8.2 2.4 12.5l.6 3.2q5 20.2 9.4 45l2.3 14.3" vector-effect="non-scaling-stroke"/></g><g fill="#191921"><path d="M832 0v770H701q-1.8-10.4-4.4-18.9-1.9-6.4-7-21.7-4.7-14.2-6.3-21.8-3.3-15.9-3.8-31.4-.9-24-.7-41 .1-7.9 1.4-21.5.9-9.6 2.6-16.1 3.6-13.3 8.8-28.8 4.7-14 6.3-19.4c4.1-14 8-30.1 10.5-41q1-3.8 4.5-25.2c1.4-8.3 1.8-15.8 3-24.9q1.1-7.7 1.5-18.7 1.3-33.6 1.2-38.1 0-30.7-2-62.5a590 590 0 0 0-6-51.7q-2-12.6-7.9-45.3-1.7-9.3-3.7-17.3c-4-16-10.5-39.4-15.4-61.2q-1.8-8.2-4.4-17.1-8.3-28.9-17.4-58.2-7.6-24.5-10.7-48.7c-.8-6.3-2.5-15.6-10.4-15.5q-16.3.2-27-.2-12.7-.4-27-.2l-36.5-.2h-42q-72-.3-166.4.3l-20.6-.2-20.7-.1q-78.8.3-93 .2c-6 0-9 7.1-9.5 12.4-.9 9.4-2.2 18-4.9 27.8L184.8 94c-3.4 12.3-7.6 25.2-10.2 33.4q-3.9 12-11.1 42.5a1177 1177 0 0 1-8.5 33.7c-7.9 29.8-13.2 59-17.6 88.9q-2.4 16-2.6 18.3-.3 4-2.1 18.5-.7 5.7-1.4 15.3a640 640 0 0 0-1.9 58.6c.2 8.6 1.3 20.5 1.7 26.9q.8 12 1.7 20.1c1.7 14.3 2 26.6 4.4 39.9q4.8 27.3 9.8 44.5 7.8 26.3 13 44.9l5 17.2q3.8 13.7 4.4 29 1 22.6.2 50.6-.3 13-2.8 22.8-4.4 17-12.5 42.1-2.7 8.3-6.6 28.7H0V0z"/><path d="M508.4 770H339.5q.9 0 1.3-.3a1 1-20.2 0 0 .4-.9q-2.2-10.8-5.7-25.3a63 63 0 0 1 .2-31.8l3-9.9q1-4 11.7-35.6 3.3-9.8 6.4-25.4 4.7-24.4 6.8-41.8 1.8-15.3 4.5-32.9c1-6.2 2.5-13 4.4-19.5Q377 531 380 519l3.8-12.5c2.5-8 4.5-16.6 7-24.4q.7-1.7 3.5-5.1a3.9 3.6 78.3 0 0 .5-.8c1.5-3.4 1.9-7.4 2.8-10.6q1-3.2 4.7-18l3.9-14.6q3.8-14.4 6.8-31.8 4-23.6 5.5-41.4l1.3-11c1-7.6.7-17 3.6-25.1q.9-2.3 3.6-2.4a2 2 0 0 1 2.2 1.4q1.6 3.9 2 8.2 1.2 19.3 3.7 38.2c.8 6.2 1.3 15.1 2.5 22.8q4.2 28.7 12 58 3 11.4 4.7 19.5 2 9.5 4 16 4.2 14.6 4.7 15.9 6.5 19.7 12.2 41.5 2.8 10.8 5 21.4 1.8 8.4 3.5 21.7l2.7 23.4a296 296 0 0 0 12.7 60.4c4.3 13.5 5.5 17.5 9 27.6q1.6 4.3 5.3 17.1 2.8 10.1 1.4 19.3-1.7 11.1-5 24.6-1.5 6.9-2.5 10.1-.2.8.1 1.1t1.2.5m-344.1-.4 1.7.4h-2.8z"/></g><g fill="#6e7892"><path d="M622 36.3q-1.1.3-2 .9l-.3.8q1 4 1.7 10.7.7 7.6 4.4 20.1c1 3.4 1.5 7 2.7 10.5q-12.8-3.6-19.3-4.7-10-1.7-24.7-2.6-17.8-1.1-34.5 3.5-18.5 5.2-33 10.2a186 186 0 0 0-35.6 18.3q-8.6 5.3-24.7 19-3.7.4-14.9 2.6-12.2 2.5-28.3.4-12.6-1.6-19-3.2-3.7-.9-5.9-2.7-16.8-14-36.8-25a224 224 0 0 0-45.3-18q-20.7-6.2-41.7-5.1-18 .9-34.1 4.5c-3.6.8-8.1 2.6-12.3 3.7 3.8-3.4 2.6-5.3 3.7-9.5q3.6-13.5 6-27.6.3-1.2 1.1-3.1 1-2 .7-3.3 15.4-.4 31.6-.4c120.2.3 240.3 0 360.5 0"/><path d="m195 204.8-2.3-6.8c-2.1-6.6-2-12.3-1.5-19.3q.9-13.7 1.9-19.6c.7-4.3 1.9-7.7 2.4-11.1q.6-3.8 2.1-8.2 5.6-16 13.3-32.2 3-6.3 6.7-12a1 1 0 0 0-1-1.6l-4.2.3q17.4-5.9 35.3-9.2c11.9-2.1 24.6-3 37-.4q12.6 2.5 23.5 6.6a2 2 14.5 0 1 1 1.8q-.4 3.2-2 6.5c-5.8 11.5-14.9 16.7-26.5 22.8l-18.8 9.7q-18.2 9.4-33.6 24-21.9 20.7-33.4 48.7M632.8 93.6l-1.2.3a1 1 0 0 0-.5 1.4c2.2 3.3 4.5 6.2 6 10 4.8 11.6 8.9 20 12.3 31.4q3.7 12.4 4.7 17 .7 3.4 3.8 25.1c.8 6 .2 10.5-.3 15.8-.2 2 .8 4.3 3.4 3.3q-2 4.5-4.4 8.7l-.7.8a1.4 1.4-24.8 0 1-1.9-.7q-11-28.3-32.9-49.6a182 182 0 0 0-43.6-30c-10.6-5.6-17.9-8.9-26-15A35 35 0 0 1 539 93a1.6 1.6 72.1 0 1 1-2q13.2-4.9 27.3-7.1c12.7-2 24.9 0 38.4 2.7q13.7 2.7 27 7m57.8 313.6.9 20.8q.6 17.3-1 30.8l-2.7 22.8q-.4 4.2-2 10.5c-2 8.2-2.4 14.7-3.4 22.9q-.4 2.8-2.5 10c-3 10.3-5.5 19-6.7 28.9q-.4 2.8-2 7.9-1.9 6-2.7 12.3c-.3-2.3-.1-4.7-.4-6.8-1.6-15.8-1-29.5-.8-48.5q.1-14-1.1-27.6-2.6-28.6-3.5-33.8-4.8-29-14.5-57.5-2.9-8.7-1.7-19.6 1.4-13.6 2.8-20.5c3.1-16.4 6.1-31.3 10.8-46.7a.8.8 0 0 1 1.4 0q2.9 6.4 5.2 13.9c4 12.6 9 25.1 13 36.5 2.2 6.5 4.7 15.4 5.8 23.4q0 .8 1.6 10.6c.7 4.3 2 8 2.2 12l.5.6h.3a.3.3-3.4 0 0 .4-.3q-.2-1.4.1-2.6M175 575q5.9 3 3.6-8.1-.9-4.6-3.7-12.3-2.8-8-3.8-15.8-1-8-3.2-21-.7-4-1.4-6c-.8-2.4-1.9-5.4-2.2-8-.8-7-3-13-3.7-20.1q-2.7-27.2-2.8-31.7c-.3-16.4-.9-27.6.4-41.5l.5 1.4a.4.4 0 0 0 .7 0c.8-4.2 1.1-8 2.1-12.3q1-4.2 2.7-14.6.6-3.3 4-17 1.6-6.1 5.3-16.6 10.2-29.2 11.6-34 .7-2.4 1.7-3.8a1 1 0 0 1 1.6.2q2.7 8.5 6.5 22.8 5 19.3 7.7 40.3 1.1 9.3.7 13.7-.6 6.2-3 13.4c-1.4 4.2-3.4 8.9-4.8 14.3l-6.8 25.4a249 249 0 0 0-7 46.5q-2 32.7-.8 63.8c.2 4.9-.2 8.7-.5 12.9-.2 4.8.8 10.9.1 16.5a.6.6 0 0 1-1.2.2zm445.3 67.1c-6.1 7-12.7 12.1-17 21.7-4.6 10.3-7 15-8.8 23.5q0 .4-.6.8a.6.6 0 0 1-.9-.4q-3.2-11.2-9.8-20.7l-4.7-6.6q1.1-7.3 4-13.8 5-10.8 16.2-14c4-1.2 7.8-.6 11-.2 5 .6 10.4 3.7 10.6 9.7"/></g><g fill="#fa617b"><path d="M646.4 221.2q2.2 6.9 2.4 12c.2 5.2.8 10.5.4 11.4a.8.8-50.1 0 1-1.4.2c-2.5-3.9-4.2-6.8-7.3-10.2q-9.4-10.6-20-20c-10-8.4-22.2-15-34-20.5l-5.4-1.9-.7.3a.6.6 26.1 0 0 .3.9q7.3 4 13 8.7 6.7 5.7 15.5 14.2 19.6 18 34.6 39.8 3 4.3 4.7 9.4a.4.4 0 0 1-.6.4c-5.9-4.8-15.2-13.2-25.1-18.4q-14.2-7.3-28-13-1.9-.8-4-1.4a.4.4 0 0 0-.4.5q0 .3.5.6c6.8 5.2 15.5 10.4 22.8 15.8q15.5 11.3 31.2 28c4.3 4.7 7 8.4 6.4 15.3q-.8 11.4-3.8 22-5 17.2-9 28.8-.8 2.4-1.8 8.5c-.5 3.5-1.8 7.5-2.3 11.4l-2.6 9a1 1-59.9 0 1-1.5.4l-12.6-12q1-4.7 0-9l-.3-1q-4.2-6.2-10-10.8c-1.7-1.4-5.1-4.5-7.4-5.8-7.9-4.7-15.9-8.7-25.6-12-10.2-3.6-24.3-8.3-35.7-13q-11.3-4.7-14.2-6.3c-4.7-2.5-13.5-7-19.8-11.3q-29.4-20.2-45.9-50.7-9.7-18.2-14.6-40.6c-1.2-5.7-1.5-13.2-2-17.8l-.6-.5h-2.8l-.6-.5q-.2-1.2 0-2.6 1.5-6.8 4.5-13.3l-2.6 9.3-.3 1.9a1.6 1.6 0 0 0 3 .6q2.5-4.2 4.6-6.3 2.9-3 5-5.5 11.6-13 20.2-20 22-17.8 50.4-14.3 6.5.8 15.7 4.2 13 4.9 15.3 6 8.6 4.1 22.8 12a160 160 0 0 1 35.8 26.2c4.2 4.2 11.1 10.5 15.4 17 6.9 10.2 10.5 15.1 15 24.4a1 1 0 0 0 .8.6q1.4.1 2.6-1.1M410.3 179q1 8.6-1.1 18.2-4.7 22.1-14.1 40.5a2.2 2.1-85 0 1-1.3 1l-1.1.5a3.4 3.3 3.8 0 0-2 1.7q-7.5 15.6-19.6 28.2-12.6 13.2-27.8 23.2-9.7 6.4-24.1 13.6c-14.2 7.2-28.4 11.8-44.8 17.3q-9.3 3-18.4 7.5-19.3 9.6-32.9 27.3a1 1 0 0 0 .3 1.6l5.5 3-12.8 12.2a.4.4 0 0 1-.7-.2q-2.1-12.3-5.3-29-1.6-8.3-9.4-34.9a75 75 0 0 1-3.8-20c-.1-6.2 5.8-12.7 10.6-17.4q8.1-8.1 19.3-17.7 4.5-3.8 15.2-10.8 7.6-5 15.2-10.7a.6.6 0 0 0-.2-1q-.8-.1-1.8.3-18 8.3-26.3 12.8-8.5 4.5-20 13.4-3.9 3-7 6.8a.3.3 0 0 1-.6-.2c.2-5.4 4.6-11 7.5-15.3q9-13.4 17-22 15.5-16.8 38-33.4a3.7 3.5 1.9 0 0 .4-.4q2.1-2.3 5.3-4a.4.4 0 0 0-.3-.8q-3 .9-6.7 3-13.5 7.4-27.4 16.3-7.7 5-15.8 13.2-7 7-13.1 14.5l-7.1 9a.4.4 64.3 0 1-.7-.2q0-13.2 3.6-26.1.3-.7.3-1.3l.1 1.3.6.4c3.8-.7 7.5-8 8.9-10.8 1.6-3.2 3.5-5.5 6-9.2q2.4-3.5 6-6.6a5.4 4.8-87.8 0 0 .9-1q15.3-20 40.5-34.2 23.3-13 38-19.2l10.5-3.8c19.5-7 43-5.2 59.3 8q8.5 6.9 12 10.4l8.9 7.6q7.6 6.5 13.6 15.2.4.7 2.7 2.2"/></g><path fill="#393c53" d="M701 770h-18.5l1.9-.4.3-.3c0-.2-.7-.8-.9-1.5q-6.8-31.6-17.8-61.2c-2.9-7.7-6-14-9.4-20l-6.3-9.7q-2.6-3.9-6.8-9.3l-7.3-9.5-5.7-7.9a1 1 0 0 0-1.2-.2c-5.4 3.9-8.4 9-12.8 16.1a125 125 0 0 0-14.1 39c-1.8 8.4-1 20.3 0 28 1 8 1 14.6 1.9 23.4q.3 3.8.4 13.5h-13.2q.6-.3 1.4-.4a.2.2 0 0 0 .2-.3l-.3-.8q-1.8-30-7-58.6-1.2-6.7-3.2-13.1l-4.2-12.9q-3.6-10.2-11-18.8a1 1 0 0 0-1.3-.1q-1.1.7-1.5 1.6-1.7 3.8-4.7 8.8a24.1 23.6 70.9 0 0-2 4.2q-4.4 12.3-5 15l-7 29.3q-4.9 19.9-9.2 46.1h-28.4q-.7-.2-1-.5t-.2-1q1-3.3 2.6-10.2 3.2-13.5 4.9-24.6 1.4-9.2-1.5-19.3-3.6-12.9-5.1-17.1c-3.6-10-4.8-14-9.1-27.6a295 295 0 0 1-12.7-60.5l-2.7-23.3q-1.7-13.3-3.4-21.7-2.3-10.6-5.1-21.4-5.7-21.8-12.2-41.5-.5-1.3-4.8-15.8-2-6.6-3.9-16-1.7-8.2-4.7-19.6-7.8-29.3-12-58c-1.2-7.7-1.7-16.6-2.5-22.8q-2.5-19-3.7-38.2-.4-4.4-2-8.1a2 2 0 0 0-2.2-1.5q-2.7.1-3.6 2.4c-2.9 8-2.6 17.5-3.6 25l-1.3 11.1q-1.6 17.8-5.5 41.4-3 17.4-6.8 31.8l-4 14.7-4.6 17.9c-1 3.2-1.3 7.2-2.8 10.6a3.9 3.6 78.3 0 1-.5.8q-2.8 3.4-3.4 5.1c-2.6 7.8-4.6 16.5-7 24.4L380 519q-3 12-7.5 27.6a162 162 0 0 0-4.4 19.5q-2.7 17.6-4.5 32.9-2.1 17.4-6.9 41.8-3 15.6-6.3 25.4-10.6 31.6-11.8 35.6l-2.9 10a63 63 0 0 0-.2 31.7q3.5 14.5 5.7 25.3a1 1-20.2 0 1-.4.9q-.4.2-1.3.3h-14.7q-3.3-16.7-6.6-28.7-4.6-17-13.7-33.4c-2.2-3.9-5.5-8.4-8-12.8q-5.3-15.7-12.9-30.7a1 1 0 0 0-1.7-.3q-.4.3-.8 1c-3.2 6.2-7 10.8-9.5 17.8q-4.1 11.9-8 27-2.6 9.8-3.7 19.6l-4 39.5.4.6.8.4h-13.5l.6-7.7q1.7-22 3-34.2a71 71 0 0 0-.2-20.9l-3.3-13q-3-11.4-8.3-22c-2-4-5.2-8.3-7.3-12.2-2-3.6-5.3-6.8-8.1-9.5a1 1 0 0 0-1.3 0q-1.9 1.7-3.2 4.4-7.7 8.7-10.9 13-4.4 6-13.2 19.7c-2.6 4-5.3 9.6-6.7 13.1q-3.1 8.6-9 25.9-2.6 7.4-3.8 12.5l-6.6 28q-.3 1.3-1 2.5l-1 .4h-15.6q4-20.4 6.6-28.7 8.1-25 12.5-42.1 2.5-9.8 2.8-22.8.7-28-.2-50.6-.6-15.3-4.5-29l-4.8-17.2-13-44.9q-5.1-17.2-9.9-44.5c-2.3-13.3-2.7-25.6-4.4-39.9q-1-8.1-1.7-20.1c-.4-6.4-1.5-18.3-1.7-27q-.4-28.8 2-58.5.6-9.6 1.3-15.3 1.8-14.5 2.1-18.5.2-2.2 2.6-18.3c4.4-29.8 9.7-59 17.6-88.9a1177 1177 0 0 0 8.5-33.7q7.2-30.6 11-42.5c2.7-8.2 6.9-21 10.3-33.4l8.3-30.3c2.7-9.8 4-18.4 4.9-27.8.5-5.3 3.4-12.4 9.5-12.4l93-.2h20.7l20.6.3q94.3-.6 166.5-.3h42l36.5.2q14.2-.2 27 .2 10.6.4 27 .2c7.9 0 9.5 9.2 10.3 15.5q3.1 24.2 10.7 48.7 9.1 29.3 17.5 58.2 2.5 8.9 4.3 17c4.9 21.9 11.5 45.4 15.4 61.3q2 8 3.7 17.3 6 32.7 8 45.3a590 590 0 0 1 5.9 51.7q2 31.8 2 62.5 0 4.6-1.2 38.1-.4 11-1.5 18.7c-1.2 9-1.6 16.6-3 24.9q-3.6 21.4-4.5 25.3c-2.6 10.8-6.4 27-10.5 41q-1.6 5.3-6.3 19.3-5.2 15.5-8.8 28.8-1.7 6.5-2.6 16.1-1.3 13.6-1.4 21.5-.2 17 .7 41 .5 15.5 3.8 31.4 1.6 7.6 6.4 21.8l7 21.7q2.5 8.5 4.3 18.9M218.4 80.2c4.2-1.1 8.7-2.9 12.3-3.7q16-3.6 34-4.5 21.1-1.1 41.8 5c15 4.5 30.7 10 45.3 18q20 11 36.8 25.1 2.1 1.8 6 2.7 18.8 19 30.6 44.9.7 1.5 2.2 1l.5-.4q10.8-25 28.8-45.3 16-13.7 24.8-19c11.1-7 23-14 35.5-18.3q14.5-5 33-10.2 16.7-4.6 34.5-3.5 14.8.8 24.7 2.6 6.5 1 19.3 4.7l15.6 6.5a.7.7 0 0 0 1-.7q.2-2.4-.8-5.4a250 250 0 0 1-10.3-41q-.4-2.4-2.5-2.7-3.8-.4-9.5.3c-120.2 0-240.3.3-360.5 0q-16.2 0-31.7.4-5.1-.7-9.7-.7c-2.9 0-5.3-.1-5.8 2.9q-2.8 16.8-7 32c-1.2 4.6-3.6 9.5-3.4 13.6a1 1 0 0 0 1.3.8zm-6 14.1c-6.6 3-11.4 3.5-14 11q-11.1 32.3-18.8 63.7c-1.9 7.5-3.1 12.4 1.2 18.8q.9 1.3 8.9 16.2l2.2 4.2a1 1 0 0 0 1.5 0l1.5-3.4q11.5-28 33.4-48.7 15.4-14.6 33.6-24l18.8-9.7c11.6-6.1 20.7-11.3 26.4-22.8q1.7-3.3 2.1-6.5a2 2 14.5 0 0-1-1.8q-11-4-23.5-6.6a98 98 0 0 0-37 .4q-18 3.3-35.2 9.2M661 198q4-5.9 8.4-11.6 2.7-3.5 1.4-8.4-9.6-37.5-20.2-74.8-.8-2.7-2.7-3.7-5.6-2.9-15.1-5.8-13.4-4.3-27.1-7a109 109 0 0 0-38.4-2.7q-14.1 2-27.3 7a1.6 1.6 72.1 0 0-1 1.9c2 7.5 6.1 14.2 12.6 19.1 8 6.1 15.3 9.4 25.9 15a176 176 0 0 1 43.6 30q21.9 21.3 32.9 49.6a1.4 1.4-24.8 0 0 2 .7l.6-.8q2.4-4.2 4.4-8.7m-223.8-16q-3 16.3-4 27.3-2.1 30 4.1 61.7.9 4.4 4.6 12 2 9.1 10 14.2 12 14 25.8 21.2 10.7 5.6 20.3 8.9 12.3 4.2 30.3 7.8 5 1 28.3 3.7 6.2.7 8.3 1.2c7.3 1.6 13.4 2.5 20.5 4.9q9.2 3.1 17.8 7 8 3.6 14.5 9.6l12.5 12a1 1-59.9 0 0 1.6-.4l2.6-9c.5-4 1.8-8 2.3-11.4q1-6 1.9-8.5 4-11.6 8.9-28.8 3-10.6 3.8-22c.5-6.9-2-10.6-6.4-15.2q-15.7-16.8-31.2-28.1c-7.3-5.4-16-10.6-22.8-15.8q-.4-.3-.5-.6a.4.4 0 0 1 .4-.5q2.1.6 4 1.4 13.8 5.7 28 13c9.9 5.2 19.2 13.6 25 18.4a.4.4 0 0 0 .7-.4q-1.7-5-4.7-9.4-15-21.9-34.6-39.8c5.1.4 9 4.3 13.2 8.3q4.6 4.3 9 9a.9.9 32.3 0 0 1.6-.4v-.1a2 2-56.2 0 0-.5-2.4q-5.5-6.3-11.2-12-2-2-.7-4 10.5 9.3 20 19.9c3 3.4 4.7 6.3 7.2 10.2a.8.8-50.1 0 0 1.4-.2c.4-.9-.2-6.2-.4-11.4q-.2-5.1-2.4-12l-7-18q1.4-.4 2.2-1.5v-.8q-4.7-8.9-6.3-11.4-6.4-10-17.8-23.8-3.5-4.2-8-8-11.9-10.2-24.6-17.5-7.1-4.2-29.6-15.3l-3.8-2c-3-2.2-6-3.6-9-6q-5.7-4.7-10-13.1-1-1.7-6.2-8.8l-.4-1q0-.5-.3-.8a1.2 1.2 58.2 0 0-1.6-.4q-3.4 2.2-8.4 4.3c-7.1 3-9.8 4.6-16.7 7.9q-4.3 2-7.8 4.2-14.4 9.3-26.2 19.1a33 33 0 0 0-5 5.4q-2 3-6.6 8.5a4.9 4.5-13.4 0 0-.5.8c-2.5 4.3-6 8.2-7.7 12.1l-.6.9c-2.3 3-3.3 6.6-4.8 9.4a1.6.9-54.2 0 0 0 .2l-3.4 9.5a4.3 4-35.1 0 0-.2 1l-1 4.4a3.7 3.5-43.1 0 0 0 .9q.2 3 2.1.5M202 220q-3.6 12.9-3.6 26.1a.4.4 64.3 0 0 .7.3l7-9 2.7 13.5c-2.9 4.4-7.3 9.9-7.5 15.3a.3.3 0 0 0 .5.2q3.2-3.8 7-6.8 11.6-9 20-13.5t26.4-12.7q1-.4 1.8-.3a.6.6 0 0 1 .2 1q-7.6 5.8-15.2 10.7-10.7 7-15.2 10.8-11.2 9.6-19.3 17.7c-4.8 4.7-10.7 11.2-10.6 17.4a75 75 0 0 0 3.8 20q7.8 26.6 9.4 35 3.2 16.6 5.3 28.9a.4.4 0 0 0 .7.2l12.8-12.2q7.7-6.7 14.7-10 6.8-3 20.3-7.8 8.3-2.8 18.5-4.5 12-2 31.7-4.6c8.5-1.1 13.7-2.1 22.7-4.3q21.6-5.1 37.2-14.4 7-4 17.5-14 .7-.7 2.6-.6l1-.3q1.6-1 4.4-4.1 12.6-13.8 16.6-31.5c1.3-5.4 1.4-11.4 2-18.3q.3-3 .7-12.4l.5-12.3q.3-12.5-1-26.4-.3-2.8-1.3-7-.8-3.4-1.3-7 2.6 7.4 3.7 15.1a.4.4-30.4 0 0 .8.2q.5-.7 1.2-1a1 1-13.1 0 0 .5-.8q-.5-6.1-.8-7-2.9-8.2-4.5-13.7a81 81 0 0 0-16.9-30.2c-2.1-2.5-6.8-5.8-9.8-9-9-9.5-18.8-19-29.6-25.4A283 283 0 0 0 331 96.5q-2.9-1.3-8.3-1.2a1 1 20.7 0 0-1 .4q-3.8 4.2-6.2 9.4-.8 1.8-7.1 9a9 9 4.1 0 1-2 1.8c-4.5 2.8-8 6-12.5 8.6q-7.8 4.5-16 8.5-12.7 6.2-16 8.3-12.5 7.8-17.2 11.8-9.4 8-16.9 15.9-4.5 4.8-12.7 16.2-1.7 2.5-3.4 5.6l-3.2 5.6q-3 5.1-6.8 15.9-1.7 4.6.2 7.7m488.5 187.2q-.3 1.2-.1 2.6a.3.3-3.4 0 1-.4.3h-.3l-.5-.6c-.1-4-1.5-7.7-2.2-12l-1.6-10.6c-1-8-3.6-16.9-5.8-23.4-4-11.4-9-24-13-36.5q-2.3-7.5-5.2-14a.8.8 0 0 0-1.4.1 458 458 0 0 0-10.8 46.7q-1.4 7-2.8 20.5-1.2 10.8 1.7 19.6 9.7 28.4 14.5 57.5.9 5.2 3.5 33.8 1.2 13.6 1.1 27.6c-.1 19-.8 32.7.8 48.5.3 2 0 4.5.4 6.8v7.9a.5.5 0 0 0 1 .2q5.2-11.7 7.7-19.6c2.2-7.2 3.4-10.7 5-17q3.4-14.4 6.2-24.3l.1-.6q0-1.4.3-2.5 5.3-19 8.3-37c1.1-6.3 1.1-10.7 2.5-16.9q.4-2 1.7-12.6 3.6-28.2 3.6-56 0-16-1.8-43.2-2.2-31.6-5.6-51.2c-5.2-29-10.2-51.4-18-88.3-.7-3.6-1-8.6-2.5-12.2a1 1 0 0 0-1.5-.2q-1.7 2.1-3 4.3c-7 12-12.2 25.4-11.5 39.9q.6 12.9 4.6 35.4c1.6 8.6 6.5 19.3 8.5 25.1q6.8 20.4 9.9 35.8 3.9 19.8 5.6 38.9c.8 8.4.6 18 1 27.2M175 574.9l4.3 8.7a.6.6 0 0 0 1.2-.2c.7-5.6-.3-11.7 0-16.5.2-4.2.6-8 .4-12.9q-1.2-31.1.8-63.8a249 249 0 0 1 7-46.5l6.8-25.4c1.4-5.4 3.4-10.1 4.8-14.3q2.4-7.2 3-13.4.4-4.4-.7-13.7-2.7-21-7.7-40.3-3.8-14.3-6.5-22.8a1 1 0 0 0-1.6-.2q-1 1.4-1.7 3.8-1.4 4.8-11.6 34-3.7 10.5-5.3 16.6-3.4 13.7-4 17-1.6 10.4-2.7 14.6c-1 4.3-1.3 8.1-2 12.2a.4.4 0 0 1-.8 0l-.5-1.3q.5-9.3.7-18.5.2-11 .6-15.4a332 332 0 0 1 17-75.2q5-15 6.4-21.4 3.5-17.7 4-33.8.5-24.6-13.4-45a.6.6 0 0 0-1 0q-.7.9-1 2.3-2.6 13-9.4 41.8l-6.5 32a592 592 0 0 0-11.2 93q-.8 25.3.8 54.6.4 8 1.5 17.2 1.7 14.3 2.2 17c1.6 9.3 2 15.9 3.7 24.1q4.2 21.8 6.8 34.3 4 19.5 10.1 40.8 2.4 8.4 5.5 16.6m100-86.1q-4.2 18-6 33.2a181 181 0 0 0-.2 44.9c1.5 10.5 1.8 19.4 4.2 29.7 3.6 15 5.3 23.5 9.9 34.1 8.4 19.7 12 28.8 17.3 39 3.6 6.7 5.4 12 9 21.1q1.2 3 3.6 5.2a.7.7 0 0 0 1-.6q-.7-4.6-2.6-13.6c-1.6-7.3-2.3-15.7-3.4-23.6q-.4-5.7-1.1-11.4c-1.1-8-1.7-13.8-1.3-20.4q1.4-24.4 5.4-52.4.5-4 1.6-24l-.2-1q-.6-1.8-.6-2.3-1.8-20.9.5-40l.8-7.1.8-7.2c.8-5 1.2-9.4 2.4-14.5 1.2-5.5 1.8-10.4 3.1-15.8q3.4-13.7 6.5-29.1c.7-3.6 2.3-7.3 2.4-10.3a3 2.9-35 0 1 .2-.8q2.2-6.3-.2-14-6.4-20-16-53.3-.8-3-2.3-6.1a.6.6 0 0 0-1-.2 25 25 0 0 0-5 9q-5.1 13.8-9.9 28.6-3.3 10.4-6.9 26.2l-6 26.3q-5 21.6-6 50.4m244-75.2c-5 12.2-3.2 24.1-.7 37.1q2.5 12.8 2.8 17.3.3 2.8 3.7 25.4c1.3 9 3.5 19 5 28.7q2.2 13 6.7 25.2 1.1 17.7 3.2 35.3 2 17.2 2.5 26.7 1 18 .5 27.5-.1 3.2-1.6 14.2-1.8 6.3-1.6 9.6.5 13-2.7 25.4-1.1 4.5-1 9a.7.7 0 0 0 1.3.3c4.3-7.9 7.7-17.6 12.5-26.8q15.7-30 24-62.5 3-11.6 4.4-21.3a226 226 0 0 0 2.4-24.1c.3-13-.5-25.1-1.7-40.6q-.8-10.4-1.9-13.3l-3.3-9.4c.1-23-1.8-46.2-7.6-68.4l-4.5-17.4-7.2-29.2q-4.4-15.3-11.7-29.5-1.3-2.4-3.1-3.6a1.3 1.3 0 0 0-2 .8c-5.3 19-9.2 30.8-18 58.4q-.5 1.3-.4 5.2m-315.7 25.3-1.6 6.9q-.6 2.1-1 4.4-4.2 27-5.2 42l-.6 9.3q.1 2.7-.3 24-.2 6.2 0 24 .2 19.6-.7 34.8c-.5 7-1.6 12.8-2.2 18.5q-.3 2.6-2.3 13.8-2.8 16.1-2.8 32.6v18.4l.6.4c2.7-1.5 4.4-4.4 6-7.2a4.6 4.2-13.5 0 1 .5-.8q8.4-10 10.1-12.7 4.8-7.7 7.6-11.2 9-11.4 12-16.4l8-14.3q3.8-6.8 7-14.8 6.2-15.5 9.7-28.5 4.7-17.4 6-24.8 1.6-9.8 3.7-34.5c.7-7.3 1.9-13.7 2.5-20q.8-8.1 2-15l4.8-29c1.7-10 5.5-23.8 7.3-32.4 2.2-9.7 5.4-19.7 8.2-28.9.5-1.9.8-4.6 1.8-7q4.2-8.5 7-18a1.3 1.2-84.1 0 0-1.4-1.6q-14.2 1.1-28.2 6.9c-9 3.7-17.8 9.9-27.2 17q-6 4.6-10.4 11.9c-5.5 8.9-10.5 16.6-13.9 26.8-2.6 7.8-6.5 15.6-7 25.4m362.2-65c2.2 7.7 5.5 16.4 7 23.3q3.2 15.4 6.2 27.8 3 11.9 5.8 27.9 6.2 35 9 69.7 0 1.2.6 5.3c.7 4.3.8 8 2 13q4.7 19 9.6 36.6c1.2 4.5 3.1 9.9 4.8 13.5q4.5 9.1 9 19.2c3.6 7.8 8.4 15 13.3 21.7 7 9.6 11 16 17.5 24.2l9.1 11.8q1 1.3 3 2.7a.4.4 15.2 0 0 .6-.4l-1-11.8c0-18.7-2.6-34.9-5.4-55.7q-1-8-2-26.8-.1-3.6-.6-6.9-.6-8.8-.5-28 .1-27.5-2-59.2-1.4-22.6-6.7-44.5l-.3-3.3c-1.5-8-5-15.7-7.4-22.7q-2.7-7.9-5.6-13c-4.2-7.6-7.3-13.8-12.7-19Q601 362 577.5 355c-6.3-1.8-12.7-2.6-19.1-3.6a.9.9 0 0 0-1 1.3q4.9 10 8 21m-207 109.5a.4.4 0 0 0 .6-.2c-.2-1.3 0-4.7.4-6.8 1-5 1.2-10.8 2-15.7l2.8-15.4q3.2-17.3 3.4-34 .2-9.2-1-16-3.1-19-17.5-31.8-4.3-3.9-7.2-5.2c-4.3-1.8-10.3-4.4-14.7-3.5a1 1 0 0 0-.9 1.3q3.5 14.4 8.8 30.4c2 6.2 3.3 11.5 5.2 16.8q2.6 7.2 4 12.5L349 434c3.3 12.6 6.3 25.8 7.8 39.2q1 8.8 1.6 10.2m132.1 3.2q.4-1.4.3-5 0-1.9 1.3-6.5a6 5.7-36.2 0 0 .2-1.2c.2-3.3.5-9.1 1.4-13.9q4-20 6.6-30.4l5-19.6c3.6-13.4 8.3-26.5 12.4-39.7q2-6 4.9-13.4a1.5 1.5-75.7 0 0-1.2-2.1q-3.5-.4-6.8.8-16.6 5.8-24.8 20.7-6.5 11.8-7.7 25.2-1.8 21.3 1.8 41.8 4.4 25 5.5 43.2a.6.6 0 0 0 1.1 0m11 11.4q-.4 8.6-1.7 12.4-2 6.2-2.6 12-1.5 16.7-1 31.2c.1 6.6 1.8 16 2.6 23q2.2 20.8 4.8 39.3 2.2 15.5 5.5 28.2c3 11.3 4.4 17.7 7.6 27l7.6 22a.6.6 0 0 0 1.1-.1l4.8-38.7q1.8-7 1.9-12.3l-.3-24.6a333 333 0 0 0-5.7-51.1q-2-12-3.9-24.7-1.2-8.4-4.4-24.6c-2.2-11.4-3.7-21.3-6.4-34q-1.4-6.4-2-13.9c-.2-4.4-1.4-9.5-1.4-14.4a.6.6 0 0 0-1.2-.1q-.5 1.5-.5 3 0 5.7-.6 8.2a4.5 4.3-38.5 0 0-.1 1q-.4 11.7-1.3 15.9-1.5 7.5-2.8 15.3m-184 146q-.7 7 0 10.4 4.2 19 4.8 37.7a.5.5 60.2 0 0 1 .2q2-3.2 3.3-7.1c3.4-11 8.6-25.9 11.4-38.5q3.2-14.5 6.3-29.9c2.1-10.4 2.7-21 4.2-32.4q1.6-12 2.1-24.4 1.2-28.2 1-36.7-.1-5-2.9-12-.7-1.7-1.3-7.8c-.4-4.3-.5-8.8-1.4-13a135 135 0 0 1-2.7-20.8c-.2-3-.8-9.6-2.7-11.3l-.3.1v7.1a5.5 5.3-39.6 0 1-.1 1.1c-1 4.3-1 8.5-2.1 12.9q-2 8.4-2.9 14l-9.8 57.4q-1.4 8-7.4 50.3-.6 4.6-.9 10c-.5 11-1 21.8.3 32.7m261 16.4 4.6 6.6q6.6 9.5 9.8 20.7a.6.6 0 0 0 1 .3q.4-.3.5-.7c1.9-8.5 4.2-13.2 8.8-23.5 4.3-9.6 10.9-14.6 17-21.7q2.6-2.3 1.1-4.8c-3.2-5.6-5.1-9.4-8-13.7q-6.2-9.2-10-19l-5.5-14c-1.8-4.2-3.1-9.3-4.4-12.4a.5.5 0 0 0-1 0l-.4 1.6a.6.4 62.1 0 0 0 .2q-.6 7.3-2.2 13.3-2.1 7.7-2.8 10.8-3 14.1-8.4 29-3.4 9.4-6 17.3a4 4 0 0 0 .5 3.3zm-348-28.2-4 6.4a3 3-51.7 0 0 .4 3.2c7.3 7.3 13 12.6 16.8 19.6q3.4 6.2 8.3 17.8 2 5.1 3.1 10a.7.7 41.2 0 0 1.4 0c1.2-9.5 6.7-17.1 11.6-24.9q3.4-5.4 8.1-9.2 1.3-1 1.5-2.6l-.2-1.1q-1.6-3.1-2.5-6.5c-1.1-4.6-3.7-10-5.3-13.8q-1.3-3-2.6-7.4-6.7-22.3-10.2-44.5a.5.5 0 0 0-1 0Q249 598 240 616.5l-1.4 2.3q-4.7 6.4-8.3 13.3"/><g fill="#59607c"><path d="M456.7 123q-18 20.3-28.8 45.3l-.5.5q-1.5.4-2.2-1.2-11.8-25.8-30.7-44.8 6.4 1.6 19 3.2 16.1 2 28.3-.4 11.2-2.2 15-2.6m-149 535.2q-.5.6-1.2.5a1 1 0 0 1-.7-.7 65 65 0 0 0-3.6-14c-1.4-3.5-3-8.4-4.8-13q-5.4-12.8-6.5-16.8-3.6-13-6.4-25.4-4-20.8-5.2-40.2c-.4-7.1-1.6-14.1-2-21.7q-.8-23.3-1.4-27.9-1-7.7-1-10.2 1-28.8 6-50.4l6-26.3q3.6-15.8 7-26.2 4.7-14.8 9.9-28.6a25 25 0 0 1 5-9 .6.6 0 0 1 1 .2q1.4 3 2.3 6Q321.8 388 328 408q2.4 7.6.2 13.9a3 2.9-35 0 0-.2.8c-.1 3-1.7 6.7-2.4 10.3q-3 15.4-6.4 29c-1.4 5.5-2 10.4-3.2 16-1.2 5-1.6 9.3-2.4 14.4l-.8 7.2-.8 7.1q-2.3 19.1-.5 40 0 .5.6 2.3l.2 1q-1 20-1.6 24-4 28-5.4 52.4c-.4 6.6.2 12.5 1.3 20.4q.8 5.7 1 11.4m265.9-160.9-2.5 32.2c-.6 8.7-1.9 15.8-2 24.3q-.2 6.6-1.4 15.4l-3 19.6q-2.9 15.1-8 30.8c-2.2 6.6-6.5 15-8.7 19.8q-1.7 4-3 8.9l-.5.8q-1.4 1.4-3.3 2 1.5-11.1 1.6-14.4.5-9.5-.5-27.4-.5-9.5-2.5-26.7-2-17.6-3.2-35.3c1.7-9.3 1.4-18.2 1.5-26 0-9.5-1-15-2.5-28.2q-1.1-9.2-3-18.1-3.6-17.3-4-20c-1.6-9.4-4.4-19.1-6.5-29.3q-1.3-5.9-3-12.1 0-3.9.4-5.2c8.8-27.6 12.7-39.5 18-58.4a1.3 1.3 0 0 1 2-.8q1.8 1.2 3 3.6 7.4 14.2 11.8 29.5l7.2 29.2L566 429c5.8 22.2 7.7 45.4 7.6 68.4m-215.2-14q-.6-1.4-1.6-10.2A286 286 0 0 0 349 434l-4.7-18.2q-1.3-5.3-4-12.6c-1.9-5.2-3-10.5-5-16.7q-5.4-16-8.9-30.4a1 1 0 0 1 1-1.3c4.3-.9 10.3 1.7 14.6 3.5q2.9 1.3 7.2 5.2 14.4 12.9 17.6 31.8 1.1 6.8 1 16-.3 16.7-3.5 34l-2.8 15.4c-.8 4.9-1 10.6-2 15.7-.4 2.1-.6 5.5-.4 6.8a.4.4 0 0 1-.7.2m132.2 3.2a.6.6 0 0 1-1.1-.1q-1.1-18.2-5.5-43.2-3.6-20.5-1.8-41.8 1.2-13.4 7.7-25.2 8.2-14.9 24.8-20.7 3.3-1.2 6.8-.8a1.5 1.5-75.7 0 1 1.2 2q-3 7.5-4.9 13.5c-4.1 13.2-8.8 26.3-12.3 39.7l-5.1 19.6q-2.7 10.4-6.6 30.4c-1 4.8-1.2 10.6-1.4 13.9a6 5.7-36.2 0 1-.2 1.3q-1.4 4.5-1.3 6.3 0 3.8-.3 5m-206.2-116c-1 2.4-1.2 5.1-1.8 7-2.8 9.2-6 19.2-8.2 29-1.8 8.5-5.6 22.4-7.3 32.4l-4.9 29q-1.1 6.8-1.9 14.9c-.6 6.3-1.8 12.7-2.5 20q-2 24.7-3.7 34.5-1.3 7.5-6 24.8-3.5 13-9.7 28.5-3.2 8-7 14.8l-8 14.3q-3 5-12 16.4-2.8 3.5-7.6 11.2-1.7 2.7-10.1 12.7a4.6 4.2-13.5 0 0-.6.8 17 17 0 0 1-6 7.2l-.6-.4.1-18.4q0 2.3.6 3.8a1.6 1.6 0 0 0 3-.2q3.3-13.4 8.6-26c2-5 5.5-12 6.8-18.7q2.2-11.7 2.3-19.8l.2-35.4q0-5.8-.7-15.1l-1-15.1q-.7-17.1-1-20.8c-.4-5 .2-10.7-.2-16.6q-.6-8.4-.6-20.6c0-5 1.3-9.8 1-15q0-6 .8-10.8a1 1-30.9 0 0-2-.5l-2.7 7.4 1.6-6.9q2.8-3 6.6-5.1l.7-.7q2.2-2.9 4-6.4 3.5-7.8 8.1-14.2l10.9-11.2q6.8-6.8 11.8-10c10.6-7 20.6-11.9 33.3-18.3q1.1-.5 2.8-1.9 2-1.8 2.9-.6m-65.1 167.2c.7-6 .5-13.2 1-19.3l1.3-17.1q.6-8.3 2-17l3.9-25.9q1.5-10 4.5-22.1l2.6-15q.3-1.7-.7-2.7a1 1-60.4 0 0-1.6.5q-1 3.5-2.3 5.7c-2.3 3.8-2.7 6-4.2 9.9q-.6 1.4-1.2 4.4c-1.6 8.3-4.7 18.3-6 27q-3.5 23-3.6 43.5c0 9.7 1 19.4 3.3 28.2a.5.5 0 0 0 1 0M644.5 434l.3 3.3q-.7-.4-.9-1a.8.8-56.4 0 0-1.5.4c0 3.7 1 7.1 1.2 11.4q.6 9.7-.2 18.9c-.6 8-.7 14-.8 21q0 6.2-.7 15.9c-.9 12.2-1 23.5-2.4 37.5q-1.2 11.4-.8 23.9.5 17.4 2 32.2.3 4 1.3 8.2 1.6 7 2 8 1.8 4.4 6.4 17c2.5 7.2 4.1 14.7 6.8 20.6.8 2 1 4.7 1.4 6.6a2 2 77.3 0 0 2.5 1.6q.2 0 1-1.1l1 11.9a.4.4 15.2 0 1-.7.3q-2-1.4-3-2.7l-9.1-11.8c-6.4-8.2-10.6-14.6-17.5-24.2a122 122 0 0 1-13.2-21.7l-9-19.2c-1.8-3.6-3.7-9-5-13.5q-4.8-17.5-9.5-36.6c-1.2-5-1.3-8.7-2-13l-.7-5.3q-2.7-34.7-8.9-69.7-2.9-16-5.8-28-3-12.3-6.2-27.7c-1.5-7-4.8-15.6-7-23.4q-.2-1.2 0-2l.7-.2 24.9 12.1q11.6 5.9 21.4 14.7c6.7 6 14.5 13.4 18.7 21.4 1.7 3.2 3.3 8.2 5.6 11.9q1.7 2.6 2 4a1 1-25.1 0 0 1.4.4c1.1-.9 2-3.7 4.3-2m-13.8 103.6q.8-3.4 1-7.6c.5-13.6 1.5-25.6.4-38.6q-1.7-21-6.4-43.4-2.5-12-8-26-.8-2.1-2.6-3.5a1.2 1.2 0 0 0-1.9 1.1q2.3 10.6 6.4 32.1 1.7 9 2.3 14.5t1.2 10.3q2.5 17.4 4.3 34.2c.3 3.1 1 6.5 1.3 9q.8 12.2 1 17.8a.5.5 0 0 0 1 .1M530.3 654.3q-2-.6-2-4.6.1-2.7-.5-4.2c-3-8.3-5.3-17.2-8.3-25.9q-5.9-17-8.8-34.3-1.3-7.6-3-19.5c-2.4-15.4-3.6-31.8-5-47.6q-1-10.2-1-20.2 1.2-7.8 2.7-15.3.9-4.2 1.3-16a4.5 4.3-38.5 0 1 0-.9q.6-2.5.7-8.3 0-1.4.6-3a.6.6 0 0 1 1 .2c.1 4.9 1.3 10 1.6 14.4q.5 7.5 1.9 14c2.7 12.6 4.2 22.5 6.4 33.9q3.2 16.2 4.4 24.6 1.8 12.8 3.9 24.7c3 17.6 5.4 33.8 5.7 51l.3 24.7q-.1 5.3-2 12.3M347.5 503.5q.3 15.9-1 26l-3 26.5q-3.3 30-12 58.6-2.8 9.7-8 22.6l-.3 1.5-.5 1.2q-2.1 2.7-3.2 7.2a.8.8 0 0 1-1.6-.1l-.4-3a201 201 0 0 1-.3-32.8q.3-5.3 1-9.9 5.9-42.2 7.3-50.3l9.8-57.5q.8-5.5 2.9-14c1-4.3 1.1-8.5 2.1-12.8a5.5 5.3-39.6 0 0 .1-1.1v-7a.2.2 0 0 1 .3-.2c1.9 1.7 2.5 8.2 2.7 11.3a135 135 0 0 0 2.7 20.9c.9 4 1 8.6 1.4 13m272.8 138.5c-.2-6-5.6-9-10.6-9.7-3.2-.4-7-1-11 .1q-11.3 3.3-16.1 14-3 6.6-4 14l-5.4-6.8a4 4 0 0 1-.6-3.3l6.1-17.4q5.4-14.7 8.4-28.9l2.8-10.8q1.6-6 2.2-13.3a.6.4 62.1 0 1 0-.2l.5-1.5a.5.5 0 0 1 .9 0c1.3 3 2.6 8.1 4.4 12.3l5.5 14q3.8 9.8 10 19c2.9 4.3 4.8 8 8 13.7q1.5 2.5-1 4.8m-352.1 22.2q.8-11-3.6-20.5c-3-6.8-14.2-12.4-21.4-12.4q-6.5 0-12.8.8 3.6-6.9 8.3-13.3l1.4-2.3q9-18.5 15.8-37.5a.5.5 0 0 1 1 .1q3.4 22.2 10.2 44.5 1.3 4.5 2.6 7.4c1.6 3.8 4.2 9.2 5.3 13.8q.9 3.4 2.5 6.5l.2 1.1q-.2 1.5-1.5 2.6-4.7 3.8-8 9.2m367.9-6.3c-1.4 3 .5 6.3 2.3 8.8q3.4 4.7 7 9c2.8 3.4 4 6.4 6 9.5q1.5 2 3.4 7.7 2.2 6.7 5.4 15.6c4.4 12.8 6.9 25.1 10.2 38 .5 1.8.6 4.4 1 6.1q2.5 8.7 4.1 17.3h-24.8q.5-14.8-1-24c-1-6.8-2.4-17.4-4.6-24.9-2-7-2.9-13.3-5.5-21.2q-1.2-3.8-3-11.6-.2-1.2-1.3-2.8h-.3v8c1.1 12.3 1.8 24.1 3 36.3l3.3 29.4.8 5.2c.2 1.5 0 3.8 1 5.6h-38.5q0-9.7-.4-13.5c-1-8.8-1-15.5-2-23.3s-1.7-19.7 0-28.1c3-13.7 7-27.2 14.2-39 4.4-7.1 7.4-12.2 12.8-16a1 1 0 0 1 1.2.1zM243.7 770h-38.3q1.3-6.2 2-12.5l1.7-12.5q2.9-18.5 3.7-32 1-16.4 1.9-28c.2-2.3 1.8-4 2-7a.3.3 0 0 0-.5-.1q-1.5 1.4-2.3 4c-2 6.4-4 10.9-5.4 17-1.1 4.8-3.2 9.4-4 14.3q-2.8 14.5-5 28.9c-1.2 8.7-1 18.5-1.6 27.9h-24.6q.2-2.2 1.2-7.2 6.6-30.2 8.9-39.7 1.4-6 3.8-11.8c2.6-6.3 5.8-14.2 6.8-17.4q1.6-5.2 4.7-10.4l7-13.2c2.5-4.8 8-9 9.8-15.4q1.3-2.7 3.2-4.4a1 1 0 0 1 1.3 0c2.8 2.7 6 5.9 8 9.5 2.3 3.9 5.4 8.1 7.4 12.2q5.4 10.6 8.3 22l3.3 13a71 71 0 0 1 .2 20.9q-1.3 12.2-3 34.2zm52.8-75c.7 4.3 1.9 8.2 2.4 12.5l.6 3.2q5 20.2 9.4 45l2.3 14.3h-54l-.9-.4-.4-.6 4-39.5q1-9.9 3.6-19.5 4-15.2 8.1-27.1c2.5-7 6.3-11.6 9.5-17.8q.4-.7.8-1a1 1 0 0 1 1.7.3q7.6 15 12.9 30.7m295 74.9h-54.8q4.3-26.2 9.2-46.1l7-29.3q.6-2.7 5-15a24.1 23.6 70.9 0 1 2-4.2q3-5 4.7-8.8.4-.9 1.5-1.6a1 1 0 0 1 1.3.1q7.4 8.6 11 18.8l4.2 12.9q2 6.4 3.2 13 5.2 28.7 7 58.7 0 .4.3.8a.2.2 0 0 1-.2.3q-.8 0-1.4.4"/></g><g fill="#8e98b3"><path d="M229.9 36.7q.3 1.2-.7 3.3-.8 1.9-1 3-2.5 14.2-6.1 27.7c-1.1 4.2.1 6.1-3.7 9.5l-13.2 5.1a1 1 0 0 1-1.3-.8c-.2-4 2.2-9 3.5-13.6q4-15.2 7-32c.4-3 2.8-2.9 5.7-3q4.6 0 9.8.8m398.6 42.6c-1.2-3.5-1.7-7-2.7-10.5q-3.7-12.5-4.4-20.1-.6-6.7-1.7-10.7l.3-.8q.9-.6 2-1 5.7-.6 9.5-.2 2 .3 2.5 2.8a250 250 0 0 0 10.3 41q1 2.9.8 5.3a.7.7 0 0 1-1 .7zm4.3 14.3q9.5 3 15 5.8 2 1 2.8 3.7 10.5 37.3 20.2 74.8 1.3 5-1.4 8.4-4.5 5.7-8.4 11.6c-2.6 1-3.6-1.2-3.4-3.3.5-5.3 1-9.8.3-15.8q-3-21.7-3.8-25.1-1-4.6-4.7-17c-3.4-11.4-7.5-19.8-12.3-31.5-1.5-3.7-3.8-6.6-6-10a1 1 0 0 1 .5-1.3zM195 204.8l-1.6 3.3a1 1 0 0 1-1.5 0l-2.2-4.1q-8-14.9-9-16.2c-4.2-6.4-3-11.3-1.1-18.8q7.7-31.4 18.8-63.6c2.6-7.6 7.4-8 14-11l4.3-.4a1 1 0 0 1 1 1.7q-3.8 5.6-6.8 11.9-7.7 16.2-13.3 32.2-1.5 4.4-2.1 8.2c-.5 3.4-1.7 6.8-2.4 11q-1 6-1.9 19.7a50 50 0 0 0 1.5 19.3q1 3.4 2.3 6.8M668.4 574q.8-6.2 2.7-12.2 1.6-5.1 2-7.9c1.2-10 3.7-18.6 6.7-28.9q2.1-7.2 2.5-10c1-8.2 1.5-14.7 3.5-22.9q1.5-6.3 2-10.6l2.5-22.7q1.7-13.5 1-30.8l-.8-20.8c-.4-9.1-.2-18.8-1-27.2q-1.7-19-5.6-39-3-15.2-10-35.7c-2-5.8-6.8-16.5-8.4-25q-4-22.6-4.6-35.5a73 73 0 0 1 11.5-39.9q1.3-2.2 3-4.3a1 1 0 0 1 1.5.2c1.4 3.6 1.8 8.6 2.5 12.2 7.8 36.9 12.8 59.2 18 88.3q3.4 19.6 5.6 51.2 1.8 27.3 1.8 43.3 0 27.7-3.6 55.9-1.3 10.6-1.7 12.6c-1.4 6.2-1.4 10.6-2.5 17q-3 17.8-8.3 37-.3 1-.3 2.4v.6q-2.9 9.9-6.4 24.4c-1.5 6.2-2.7 9.7-5 17q-2.4 7.8-7.7 19.5a.5.5 0 0 1-.9-.2zM158.2 410.5c-1.3 13.9-.7 25-.4 41.5q0 4.5 2.8 31.7c.7 7 2.9 13.1 3.7 20 .3 2.7 1.4 5.7 2.2 8q.7 2.1 1.3 6.1 2.3 13 3.3 21 1 7.8 3.8 15.8 2.8 7.7 3.7 12.3 2.3 11.2-3.6 8-3-8.2-5.5-16.6-6-21.3-10.1-40.8-2.7-12.6-6.8-34.3c-1.6-8.2-2-14.8-3.7-24q-.5-2.8-2.2-17.1-1-9.2-1.5-17.2-1.6-29.3-.8-54.6c1-29.3 5-62.3 11.2-93l6.5-32q6.8-28.8 9.4-41.8.3-1.4 1-2.3a.6.6 0 0 1 1 0q14 20.4 13.3 45-.4 16-4 33.8-1.2 6.4-6.4 21.3a332 332 0 0 0-16.9 75.3q-.4 4.5-.6 15.4-.2 9.2-.7 18.5"/></g><g fill="#f19095"><path d="m639.5 203.2 6.9 18q-1.2 1.2-2.6 1.1a1 1 0 0 1-.8-.6c-4.5-9.3-8.1-14.2-15-24.5-4.3-6.4-11.2-12.7-15.4-16.9a160 160 0 0 0-35.8-26.2q-14.2-7.9-22.8-12-2.3-1.1-15.3-6-9.2-3.4-15.7-4.2-28.5-3.5-50.4 14.2-8.6 7-20.1 20.1l-5.1 5.5q-2.1 2.1-4.7 6.3a1.6 1.6 0 0 1-2.9-.6l.3-1.9 2.6-9.3a118 118 0 0 1 41.8-49.5q18.8-12.8 39.7-20.3a2 2-20.5 0 1 2.8 1.3 47 47 0 0 0 17 23.8q6.6 4.3 14.5 8.3c23.3 11.6 43 21.5 58.1 39.3q13.4 15.8 22.9 34.1m-230.1-37q1.8 6.2 1 12.8-2.4-1.5-2.8-2.2-6-8.7-13.6-15.2l-9-7.6q-3.5-3.5-12-10.3c-16.4-13.3-39.8-15-59.3-8.1l-10.4 3.8q-14.8 6.2-38 19.2-25.3 14.1-40.6 34.3a5.4 4.8-87.8 0 1-.8.9q-3.7 3-6 6.6c-2.6 3.7-4.5 6-6.1 9.2-1.4 2.7-5.1 10.2-8.9 10.8l-.6-.4v-1.3q4-11.2 9.7-22 10.8-20.9 28.9-37 8.6-7.7 17-12.4l10.7-6.1q7.5-4.6 10.7-6c4.4-2 9.5-5 14.6-7.7a54 54 0 0 0 27.5-28.7q.9-2.3 3.8-1.3 17.7 6.3 32.6 15.4a153 153 0 0 1 31.6 27q1.6 1.7 2.2 2.9a1 1-13.5 0 0 .8.4h2.4l.6.4c1.6 2.3 2.6 4.3 4.5 6.7q5.8 7.3 9.4 16"/></g><g fill="#e7445e"><path d="M415.7 183.2q.5 3.5 1.3 7 1 4 1.2 6.9 1.4 14 1.1 26.4l-.5 12.3q-.4 9.5-.7 12.3c-.6 7-.7 13-2 18.4q-4 17.7-16.6 31.5-2.8 3-4.4 4.1l-1 .3q-1.9 0-2.6.6-10.6 10-17.5 14-15.6 9.3-37.2 14.4c-9 2.2-14.2 3.2-22.7 4.3q-19.7 2.6-31.7 4.6-10.2 1.7-18.5 4.5-13.5 4.7-20.3 7.8-7 3.3-14.7 10l-5.5-3a1 1 0 0 1-.3-1.7q13.6-17.6 33-27.2 9-4.4 18.3-7.6c16.4-5.4 30.6-10 44.8-17.2q14.4-7.2 24.1-13.6 15.3-10 27.8-23.2 12.1-12.6 19.6-28.2a3.4 3.3 3.8 0 1 2-1.7l1.1-.4a2.2 2.1-85 0 0 1.3-1q9.4-18.5 14-40.6 2.1-9.6 1.2-18.2.9-6.6-1-12.8 4 8.3 6.4 17m22.5-3.7q-.2 1.4 0 2.6l.6.5h2.8l.5.5c.6 4.6.8 12.1 2 17.8q5 22.4 14.7 40.5 16.4 30.6 45.9 50.8c6.3 4.3 15 8.8 19.8 11.3q3 1.6 14.1 6.3c11.5 4.7 25.5 9.4 35.8 13 9.7 3.3 17.7 7.3 25.6 12 2.3 1.3 5.7 4.4 7.4 5.8q5.8 4.6 10 10.9l.4.9q.9 4.3 0 9-6.6-6-14.6-9.6-8.6-3.9-17.8-7c-7.1-2.4-13.2-3.3-20.5-4.9q-2-.5-8.3-1.2-23.3-2.7-28.4-3.7-18-3.6-30.2-7.8-9.6-3.3-20.3-8.9-13.9-7.2-25.8-21.2-5.9-6.5-10-14.2-3.7-7.6-4.6-12-6.2-31.7-4-61.7.8-11 4-27.3z"/></g><g fill="#532340"><path d="m208.8 251-2.6-13.7q6.1-7.4 13.1-14.5 8-8.2 15.8-13.2 13.9-8.9 27.4-16.4 3.7-2 6.7-2.9a.4.4 0 0 1 .3.8q-3.2 1.7-5.3 4a3.7 3.5 1.9 0 1-.5.4q-22.4 16.6-37.8 33.3-8 8.7-17 22.1m411.7-36.3q-1.3 2 .7 4.1 5.7 5.7 11.2 12a2 2-56.2 0 1 .5 2.4v.1a1 1 32.3 0 1-1.5.3q-4.5-4.6-9.1-8.9c-4.3-4-8-7.9-13.2-8.3q-8.8-8.5-15.6-14.2-5.6-4.7-13-8.7l-.2-.8.7-.4c2 .7 3.6 1 5.4 2 11.8 5.5 24 12 34 20.4M452 297.1q-8-5-10.1-14.2 4.1 7.7 10 14.2"/></g><g fill="#7b87a0"><path d="M219.3 537.7a.5.5 0 0 1-1 .1c-2.3-8.8-3.3-18.5-3.3-28.2q0-20.5 3.6-43.5c1.3-8.7 4.4-18.7 6-27q.6-3 1.2-4.4c1.5-4 1.9-6 4.2-10q1.2-2 2.3-5.6a1 1-60.4 0 1 1.6-.5q1 1 .7 2.7l-2.6 15q-3 12-4.5 22.1-1.8 13.2-4 25.9-1.3 8.7-2 17l-1.2 17.1c-.5 6.1-.3 13.3-1 19.3m411.4-.1a.5.5 0 0 1-1 0q-.2-5.7-1-17.8c-.2-2.6-1-6-1.4-9q-1.7-17-4.2-34.3-.7-4.7-1.2-10.3-.6-5.5-2.3-14.5-4.1-21.5-6.4-32a1.2 1.2 0 0 1 2-1.2q1.7 1.4 2.5 3.6 5.5 13.9 8 25.9 4.7 22.4 6.4 43.4c1 13 0 25-.5 38.6q-.1 4.2-.9 7.6m14.1-100.3q5.3 21.9 6.8 44.5 2 31.7 1.9 59.2-.1 19.2.5 28 .4 3.3.6 7 1 18.8 2 26.7c2.8 20.8 5.4 37 5.5 55.7l-1 1.1a2 2 77.3 0 1-2.5-1.6c-.3-1.9-.6-4.6-1.5-6.6-2.6-6-4.2-13.4-6.7-20.6l-6.3-17q-.5-1-2.1-8-1-4.3-1.4-8.2-1.4-14.8-1.9-32.2-.4-12.5.8-24c1.4-13.9 1.5-25.2 2.4-37.4q.6-9.7.7-15.8c.1-7.2.2-13.2.8-21.1q.8-9.2.2-18.9c-.2-4.3-1.3-7.7-1.2-11.4a.8.8-56.4 0 1 1.5-.3q.2.5.9 1M186.6 649.2q0-16.5 2.8-32.6 2-11.2 2.3-13.8c.6-5.7 1.8-11.6 2.2-18.5q1-15.1.7-34.8-.2-17.8 0-24 .4-21.3.3-24l.6-9.2q1-15 5.3-42.1.3-2.3 1-4.4l2.7-7.4a1 1-30.9 0 1 1.9.5q-1 4.9-.8 10.8c.3 5.2-1 10-1 15q0 12.2.6 20.6c.4 6-.2 11.7.2 16.6q.3 3.7 1 20.8l1 15q.7 9.4.7 15.2l-.2 35.4q-.1 8.1-2.3 19.8c-1.3 6.8-4.8 13.7-6.8 18.7q-5.3 12.6-8.5 26a1.6 1.6 0 0 1-3.1.3q-.6-1.6-.6-3.9m81.7 15.1c-5 7.8-10.5 15.4-11.7 24.8a.7.7 41.2 0 1-1.4.1q-1.1-4.9-3.1-10-5-11.6-8.3-17.8c-3.8-7-9.5-12.3-16.8-19.6a3 3-51.7 0 1-.4-3.2l4-6.4q6.3-.9 12.7-.8c7.2 0 18.3 5.6 21.4 12.4q4.4 9.6 3.6 20.5m-52.8-9.4c-1.8 6.4-7.3 10.6-9.8 15.4l-7 13.2q-3 5.2-4.7 10.4c-1 3.2-4.2 11.1-6.8 17.4q-2.4 5.7-3.8 11.8-2.3 9.5-8.9 39.7-1 5-1.2 7.2H166l-1.7-.4q.7-1.2 1-2.6l6.6-27.9q1.2-5 3.7-12.5 6-17.3 9.2-25.9c1.3-3.5 4-9 6.6-13.1q8.8-13.7 13.2-19.7 3.2-4.3 10.9-13m420.7 3.1q3.5 4.9 7.3 9.6 4.2 5.4 6.8 9.3l6.3 9.7c3.5 6 6.5 12.3 9.4 20q11 29.6 17.8 61.2c.2.7.9 1.3.9 1.5l-.3.3-2 .4h-6.7q-1.7-8.6-4.2-17.3c-.4-1.7-.5-4.3-1-6-3.3-13-5.8-25.3-10.2-38.1q-3.2-8.9-5.4-15.6-2-5.7-3.3-7.7c-2.1-3-3.3-6.1-6.1-9.5q-3.6-4.3-7-9c-1.8-2.5-3.6-5.8-2.3-8.7M205.4 770H198c.6-9.4.4-19.2 1.7-28q2.1-14.3 4.8-28.8c1-4.9 3-9.5 4-14.3 1.5-6.1 3.5-10.6 5.5-17q.8-2.6 2.3-4a.3.3 0 0 1 .5.2c-.2 2.9-1.8 4.6-2 7q-1 11.5-1.9 28-.8 13.4-3.7 31.9l-1.6 12.5q-.8 6.3-2 12.5m445.2 0H643c-1-1.9-.7-4.1-1-5.6l-.7-5.2-3.2-29.4c-1.3-12.2-2-24-3-36.3v-8h.2q1.1 1.6 1.4 2.8 1.7 7.8 3 11.6c2.5 8 3.3 14.2 5.4 21.2 2.2 7.5 3.6 18.1 4.7 25q1.4 9 .9 23.9"/></g><g fill="#414762"><path d="M284.4 370.5q-.8-1.2-3 .6-1.6 1.4-2.6 2c-12.8 6.3-22.8 11.1-33.4 18.1q-5 3.3-11.8 10.1l-10.9 11.2q-4.6 6.4-8.2 14.3-1.7 3.2-4 6.3l-.6.7q-3.8 2-6.6 5.1c.5-9.8 4.4-17.6 7-25.4 3.4-10.2 8.4-18 13.9-26.8q4.4-7.3 10.4-11.8a123 123 0 0 1 27.2-17.1q14-5.8 28.2-7a1.3 1.2-84.1 0 1 1.3 1.7q-2.7 9.5-7 18M644.5 434c-2.3-1.6-3.2 1.2-4.4 2.1a1 1-25.1 0 1-1.3-.5q-.3-1.4-2-4c-2.3-3.6-3.9-8.6-5.6-11.8-4.2-8-12-15.4-18.7-21.4q-9.8-8.8-21.4-14.7l-25-12.1-.6.2q-.2.8 0 2-3.2-11-8-21a1 1 0 0 1 .9-1.3c6.4 1 12.8 1.8 19.1 3.6q23.6 7 41.3 24.1c5.4 5.3 8.5 11.6 12.7 19.1q2.9 5.1 5.6 13c2.3 7 5.9 14.7 7.4 22.7m-108 113.3q-4.5-12.2-6.6-25.2c-1.6-9.8-3.8-19.7-5.1-28.7q-3.4-22.6-3.7-25.4-.3-4.5-2.8-17.2c-2.5-13.1-4.4-25 .7-37.2q1.7 6.2 3 12c2.1 10.3 4.9 20 6.5 29.5q.4 2.6 4 19.9 1.9 9 3 18c1.6 13.2 2.6 18.8 2.5 28.3-.1 7.8.2 16.7-1.5 26M275 488.8q0 2.5 1 10.2.6 4.6 1.5 27.9c.3 7.6 1.5 14.6 2 21.7q1.1 19.4 5.1 40.2 2.7 12.4 6.4 25.4 1 4 6.5 16.8c1.9 4.6 3.4 9.5 4.8 13a65 65 0 0 1 3.6 14 1 1 0 0 0 .7.7q.7.1 1.2-.5c1.1 7.9 1.8 16.3 3.4 23.6q1.9 9 2.7 13.6a.7.7 0 0 1-1.1.6q-2.4-2.2-3.6-5.2c-3.6-9-5.4-14.4-9-21.1-5.4-10.2-9-19.3-17.3-39-4.6-10.6-6.3-19.2-9.9-34-2.4-10.4-2.7-19.3-4.2-29.8a181 181 0 0 1 .2-45q1.8-15.1 6-33.1m298.5 8.5q1.5 4.7 3.3 9.4 1 2.9 1.9 13.3c1.2 15.5 2 27.7 1.7 40.6-.2 7.9-1.5 17-2.4 24.1q-1.4 9.7-4.3 21.3-8.4 32.5-24 62.5c-4.9 9.2-8.3 19-12.6 26.8a.7.7 0 0 1-1.3-.3q-.1-4.5 1-9 3.2-12.3 2.7-25.4-.2-3.3 1.6-9.6 2-.5 3.3-1.9l.5-.8q1.3-4.9 3-8.9c2.2-4.9 6.5-13.1 8.7-19.8q5.1-15.7 8-30.8l3-19.6q1.2-8.8 1.4-15.4c.1-8.5 1.4-15.6 2-24.3zm-71.9.7q0 10 1 20.2c1.5 15.8 2.7 32.2 5 47.6l3 19.5q3 17.3 8.9 34.3c3 8.7 5.3 17.6 8.3 25.9q.6 1.5.6 4.2 0 4 1.9 4.6l-4.8 38.7a.6.6 0 0 1-1.1 0l-7.6-22c-3.2-9.2-4.6-15.6-7.6-27q-3.3-12.6-5.5-28.1-2.6-18.5-4.8-39.3c-.8-7-2.5-16.4-2.7-23q-.4-14.5 1.1-31.1.6-5.9 2.6-12 1.3-3.9 1.7-12.5M317.5 644l.4 3a.8.8 0 0 0 1.6 0q1-4.4 3.2-7.1l.5-1.2q.1-.9.4-1.5 5-13 8-22.6 8.6-28.6 12-58.6 1.2-11.5 3-26.4 1.2-10.2 1-26 .5 6 1.2 7.7 2.8 7 3 12 .1 8.5-1 36.7-.6 12.5-2.2 24.4c-1.6 11.4-2 22-4.2 32.4q-3.1 15.4-6.3 29.9c-2.8 12.6-8 27.5-11.4 38.5q-1.3 3.9-3.3 7.1a.5.5 60.2 0 1-1-.2q-.6-18.8-4.8-37.7-.7-3.3 0-10.4m7.2 126h-13.6l-2.3-14.3q-4.4-24.8-9.4-45l-.6-3.2c-.5-4.3-1.7-8.2-2.4-12.4 2.5 4.4 5.8 9 8 12.8q9 16.4 13.7 33.4 3.3 12 6.6 28.7"/></g><g fill="#261629"><path d="M639.5 203.2q-9.5-18.3-22.9-34c-15.1-18-34.8-27.8-58.1-39.4q-7.9-4-14.5-8.3a47 47 0 0 1-17-23.8 2 2-20.5 0 0-2.8-1.3q-20.9 7.5-39.7 20.3a118 118 0 0 0-41.8 49.5q-3 6.5-4.5 13.3l-1 2.4q-1.9 2.4-2-.5a3.7 3.5-43.1 0 1 0-1l.9-4.3a4.3 4-35.1 0 1 .2-1l3.3-9.5a1.6.9-54.2 0 1 .1-.2c1.5-2.8 2.5-6.5 4.8-9.4l.6-.9c1.7-3.9 5.2-7.8 7.7-12.1a4.9 4.5-13.4 0 1 .5-.8q4.5-5.4 6.6-8.5c1.3-1.8 3.4-4 5-5.3q11.8-10 26.2-19.2 3.5-2.2 7.8-4.2c6.9-3.3 9.6-5 16.7-7.9q5-2.1 8.4-4.3a1.2 1.2 58.2 0 1 1.6.4l.3.8.4 1q5.3 7 6.2 8.8 4.3 8.4 10 13.1c3 2.4 6 3.8 9 6l3.8 2q22.5 11.1 29.6 15.3 12.7 7.3 24.6 17.5 4.5 3.8 8 8 11.4 13.8 17.8 23.8 1.6 2.5 6.3 11.4v.8q-.8 1.1-2.1 1.5m-223.8-20q-2.4-8.7-6.3-17-3.6-8.6-9.4-15.9c-2-2.4-3-4.5-4.5-6.7l-.6-.4h-2.4a1 1-13.5 0 1-.8-.4q-.6-1.2-2.2-2.9a153 153 0 0 0-31.6-27q-15-9-32.6-15.4-3-1-3.8 1.3a54 54 0 0 1-27.5 28.7c-5.1 2.7-10.2 5.6-14.6 7.6q-3.2 1.5-10.7 6-1 .7-10.7 6.2-8.4 4.7-17 12.4-18 16.1-29 37-5.5 10.8-9.7 22 0 .6-.3 1.3-1.9-3.1-.2-7.7 3.8-10.8 6.8-16l3.2-5.6q1.7-3 3.4-5.5 8.2-11.4 12.8-16.2 7.4-7.8 16.8-15.9 4.7-4 17.2-11.8 3.3-2.1 16-8.3 8.2-4 16-8.5c4.4-2.6 8-5.8 12.5-8.6l2-1.7q6.3-7.3 7.1-9.1 2.4-5.2 6.2-9.4a1 1 20.7 0 1 1-.4q5.4 0 8.3 1.2 14.9 6.5 29.2 14.8a141 141 0 0 1 29.6 25.4c3 3.2 7.7 6.5 9.9 9 7.6 9 13.4 18.7 16.8 30.2q1.6 5.5 4.5 13.7.3.9.8 7a1 1-13.1 0 1-.5.9q-.7.3-1.2.9a.4.4-30.4 0 1-.8-.2q-1-7.7-3.7-15"/></g></svg>