<svg xmlns="http://www.w3.org/2000/svg" viewBox="0 0 1698 1536"><g fill="none" stroke-width="2"><path stroke="#23263a" d="M360.7 956.3a424 424 0 0 0 31.8 74.6l7.7 14.1c5.3 9.7 13.5 22.6 18.7 33.6a142 142 0 0 1 11.5 43.7q3.6 26.9 1.7 54-2.2 31.5-8.3 80.7-4.8 38-2.3 73.5.6 8.6 2.2 15.8 1.8 8 3.8 11.3 3.8 6.4 11.7 9.9 19 8.4 43.4 17 35.4 12.7 78.7 23.6 44.2 11.2 67.3 15.7 46 9 98.7 15.9 30.2 4 69 6.3 35.5 2.1 69 .7 45.3-1.8 78.8-6 31-3.7 68.6-9.5 24.4-3.8 49.3-9.4l49-11.2q22.3-5.5 51.4-14.2c16.5-4.9 33.9-11.2 47.3-15.7q4.7-1.6 26.5-10.5 9.3-3.8 12.8-7.3 5.3-5.3 7.1-12.9 3.7-15.6 3.8-34c0-20-.9-41.4-4-64.3-3.3-23.8-6.1-50.7-7.8-76.2q-2.2-34.6 4.4-68.8a142 142 0 0 1 18.5-45.7q19.1-32 34.1-65.8 8.8-19.8 14.2-39.7a.2.2 0 0 1 .4 0q2.4 9.3 4.8 16.3l1.3 5.6q3.1 12.2 11.3 35c4.7 13.3 10.4 29 16 42 4.5 10.4 9 22 14 33q11.5 25.6 25.6 53.5 6.4 12.7 19 35 4 7.3 9 11.9c4.1 4 7.6 5.2 13.3 5q25.2-.8 49-6.7 18.2-4.5 44.2-16 3-1.4 6.5-3.4c5.4-3.3 11.3-6.3 16-9.4q8.7-5.6 23.1-17 8.7-6.9 18.2-16.9 15.4-16.2 17-18.2 17-21.7 30.4-44.8c11.3-19.6 20.2-42.3 19.8-65.4q-.5-24.4-3.9-47.7a456 456 0 0 0-14.5-69.8q-7-21.8-13-36.4-16.1-39.7-40.5-79.7-4.2-7-13.8-21.3-3.8-5.7-6-9.6-5-8.9-5.5-10.1a57 57 0 0 1-2.2-30q3.6-20.6 6-43.8c4.4-42 4-86-5-126.4q-5-22.5-9-34.4-11-32.7-28.4-63.4-31.2-54.8-79.5-92.2-30.8-23.8-70.5-38.1-10.5-3.8-27.7-8.5-14.2-3.9-28.4-6.2a12 12-25.6 0 1-3.8-1.3q-25.8-14.5-59-33.9-46-26.9-94-50-29-14-68-31.6-9-4-19.4-10.1a70 70 0 0 1-31.5-35.6c-5-14-4.8-29-4.7-44.7q0-4-2.2-9c-2.3-5-7-8-12.5-8.9H659.8c-6.3 0-11.9 4.8-14.2 10.3q-1.6 3.7-1.3 12.6c.3 9.2-.1 18.2-2 28.8-2 11.6-6.6 22-13.7 29.8q-8.4 9.3-19.7 16.3-11.1 7-18.6 10.2-24.6 10.7-58 26.3-6.8 3.2-34 16.7-25 12.4-61.8 33.4l-68 39.2a12.8 12.6 24.6 0 1-4 1.4 335 335 0 0 0-43.3 10.6q-19.3 6.2-28.4 10-12.3 5.1-29.9 15-14.2 8.2-26.4 17.8a313 313 0 0 0-69.7 77 340 340 0 0 0-40.9 89.6q-13.7 48.3-13.4 99c.1 31.8 3.7 63.2 9.2 94.8a51 51 0 0 1-2.3 28.8q-5.6 11-13.8 23.2-6 8.8-18.2 29.3c-5.4 8.9-11.8 21.8-15.3 28.2q-3 5.7-7.5 15.3-6.7 14.4-7 15.4-10.5 24.2-17.9 48.5-5.8 19.2-9.8 42-4 23-6.2 42.8-1.3 11.4-1.7 30c-.3 15.6 3 30.5 8.9 43.6q12 26.7 32.1 54.8 5.6 7.8 11.8 14.7c10.2 11.2 18.5 20.7 27.4 28.3q3.2 2.7 22.3 16.9 6.2 4.6 13 8.7 9.8 5.8 13.6 7.6 9 4.3 27.1 10.8 18.9 6.8 38.2 9.8 10.8 1.7 25.9 3 8.9.8 15-3.2 5.3-3.3 10-11l6-10.6c5.2-10 9.8-17.6 15.2-28.5q18.5-36.7 29.7-63c6.1-14.5 12.7-29 18-44 4.8-13 9.6-25.2 13.7-38.7q6-19.7 10.3-37.5a.3.3 0 0 1 .5 0" vector-effect="non-scaling-stroke"/><path stroke="#454d6b" d="M964.6 81.8 715 81.7" vector-effect="non-scaling-stroke"/><path stroke="#535b77" d="m715 81.7-41-.3a.4.4 0 0 0-.4.4q-.3 24.9-2 49.7-2.8 43.4-16.8 85-3.4 10.4-8 18.7c-4 7.2-9 15.6-14.5 23.1q-4.6 6.5-10.2 14a.4.4 0 0 1-.8 0q-.1-.8.1-1.4 13-33.4 13-34 1.5-3.8 2.3-6.7 3.3-13 5.7-26.1 1.5-8.4 3.4-27.1" vector-effect="non-scaling-stroke"/><path stroke="#606884" d="M645.8 177q1.3-7.3 1.4-17.3a.3.3 0 0 0-.5-.2q-14.7 12.2-31.9 21.3-5.5 3-30 14.2a1534 1534 0 0 0-111.7 55l-19.2 10.8c-12.8 7-26 15.4-39.3 22.3l-1.7 1.2a.8.8 32.6 0 0 .4 1.4l35.5 8.3" vector-effect="non-scaling-stroke"/><path stroke="#535b77" d="M448.8 294q6.2 1.9 12.7 4.3a1202 1202 0 0 0 47.4 16q19.5 6.2 41.6 9.5l16 2.6c45.8 7.6 57.9 9.8 98 16.4q26.6 4.4 63.3 11.4 2.6.5 4.8 1.5a.3.3-87.1 0 0 .4-.4q-6.6-20.3-11.4-41-4-16.9-6.1-24.5c-3.2-11.8-6.7-24.3-9.2-36.7l-2.6-12.3a.6.6 0 0 1 .9-.6 36 36 0 0 1 10 16.6q7.9 21.8 13.8 36.6c5.4 13.4 8.5 22.1 13.5 32.7l14.4 30q2 4 4.3 7.4a6.6 6.4 86 0 0 2.3 2c7.8 4.1 14.7 7.2 21 11.2q16.9 10.8 30.3 25.1a.3.3 0 0 0 .6-.3l-1-3q-11-26-15-40.4-4-14-6.7-21.5-2.2-6.3-6.4-21.7-4-14.5-9.5-32.5-8.5-28-17.4-61.4-6-22.2-10.8-44.7" vector-effect="non-scaling-stroke"/><path stroke="#454d6b" d="M748 176.3q-.4-1.7.3-1.9l.3.2q4 8.2 8 19l10.5 29.5c5 14.4 11.3 29.1 17 44.8 3 8.4 7.7 19.3 11.6 30q15 41 23.3 60.7 7.1 17 13.2 27.8 3 5.4 7.2 9.8a1 1 0 0 0 1.3 0q5-5.5 8.4-12.3 5.6-10.6 14-30.8 5.8-14 10.2-25.7l30.2-80c8.8-23.2 15.6-43.5 25.7-67.7q.5-1.4 1.7-2.9a.3.3 0 0 1 .6.2v.3" vector-effect="non-scaling-stroke"/><path stroke="#535b77" d="m931.5 177.3-7.4 33c-3 13.3-10 36.1-15.8 58.4q-2.4 9.3-4 14-1.9 5.5-8.8 29.3c-3.5 12.3-10.7 33.4-15.4 50.9q-2.7 10.3-5.3 16.2-5 11.8-7 16-1.3 2.6-2.4 5.9a.5.5 0 0 0 .5.6q.3 0 .7-.5c13.3-14.6 30-25.7 48-34.5 4.2-2 6-5.5 8.1-9.4q4.5-8.4 11.6-22.8 5.5-11 10.4-23.4 10.3-25.7 17.5-45 3.7-9.7 8.4-19.2 2-4 4.2-7a.5.5 0 0 1 1 .4q0 1.3-.3 3-.7 4.9-4.3 21.6c-2.8 13.2-7.4 28.8-11 42.8q-6.8 27.3-12.7 47.7a.5.5 0 0 0 .5.6q27.9-6.2 54.4-10.6l9.5-1.5q14.3-2.3 50-8.6c27.2-4.7 55.5-9.5 77.3-12.8 13-1.9 26.7-6 38.4-10 10-3.5 18.4-6 27.6-9.2q11.6-4.1 23.3-8" vector-effect="non-scaling-stroke"/><path stroke="#606884" d="m1228.5 295.3 39.4-10.1a.5.5 0 0 0 .1-1q-27-15.6-50.5-28.7c-42.4-23.7-90-46.6-135.4-66.8-12-5.5-22.7-11-33.2-17.8q-8.7-5.6-15-11.9a.6.6 0 0 0-1 .5l1.2 17.6" vector-effect="non-scaling-stroke"/><path stroke="#535b77" d="M1034.1 177q2.4 22.5 7.2 44.3 2.2 10 5.4 18.6 9.2 24.9 11.6 30.9.5 1.3.4 2.3a.4.4 0 0 1-.7.1q-10.4-14.7-17.8-26.2-11.1-17.5-16.9-36-4.7-15.1-7.6-28.6-2-9.5-4-21.5-3.3-19.7-4-40.3-.6-21.2-.8-38.8a1 1-.8 0 0-.8-.7l-41.5.7" vector-effect="non-scaling-stroke"/><path stroke="#808da9" d="M1034.1 177q5.2 4.3 11.4 11.8 7 8.5 19.7 15.8a155 155 0 0 0 15.7 8q18 7.7 37.4 16.9 26.9 12.8 41.8 20.4 11.9 6 44.5 25 9 5.3 19.1 12.2a7 7-85 0 1 2.3 2.8l2.5 5.4" vector-effect="non-scaling-stroke"/><path stroke="#657290" d="m931.5 177.3 33.1-95.5M715 81.7l33 94.6" vector-effect="non-scaling-stroke"/><path stroke="#808da9" d="M448.8 294q10-9.6 16.7-13.3 5.9-3.2 15-8.7 22.9-13.6 48.2-26.3 11.3-5.6 50.8-24 3.1-1.6 5.8-2.5c5.1-1.8 9.5-4.5 14.4-6.5q10.4-4.2 21.6-11.9 6.6-4.5 11.3-9.8l5-5.4 8.2-8.6" vector-effect="non-scaling-stroke"/><path stroke="#535b77" d="M150.2 684.3q3.8 32 11.2 63a.8.8 0 0 0 1.3.4l24.2-25.4q8.9-9.2 18.8-17.5c19.5-16.2 39.6-31.3 59-46.4 12.4-9.5 19.9-20 29.9-33.8q4.8-6.7 10.8-18.7c2.6-5.4 7-14 9.9-21q10-24.1 20.9-47.5 11.9-25.8 21.7-42.5 21.4-36.2 50.7-70.5a587 587 0 0 1 54-53.4 191 191 0 0 1 37-27 .7.7 46 0 0 0-1.2q-4.1-2.5-8.3-3.9-2.7-.8-17-6-7.5-2.8-17-5.6l-23.9-6.8q-2.5-.7-5-1" vector-effect="non-scaling-stroke"/><path stroke="#606884" d="M428.3 319.5q-15.8-5-32.1-8.4c-12.3-2.5-23.5-4-34.5-2.4a239 239 0 0 0-48.7 12.8q-17 6.2-31.7 14.7-18.8 10.9-34.6 23.5l-14.2 13.2a209 209 0 0 0-19.8 21.3q-11.2 13.9-21.8 30.4-28.5 44.3-40.9 97.2-4.8 20.5-6.6 43.2-3 38.6 1.3 76.8 2.4 21.3 5.5 42.5" vector-effect="non-scaling-stroke"/><path stroke="#808da9" d="M428.3 319.5c-6.3 1.3-13 1.8-19.2 3.4-28.4 7.5-53.5 13.6-79.2 26.8q-15.7 8-21.2 11.3-19.3 11.4-29.1 19-12 9.2-31.7 27.6a219 219 0 0 0-15.8 16.5q-19.1 23.3-34.9 49.4-12.9 21.4-21.8 43.9c-2.5 6.3-4.6 13.1-6.5 18.4q-2.5 6.7-4.4 14-6.6 24.6-9.6 50.5-1.5 10.5-2.2 20-1.6 20.6-2.2 45-.2 9.2.8 19v.4l-.2.2a.4.4 0 0 1-.7-.2q0-.3-.2-.4" vector-effect="non-scaling-stroke"/><path stroke="#535b77" d="M1250.3 319.8c-15.4 4-31.1 8-46 13.5-8.3 3-17.3 5.4-25.3 9.5a.4.4 0 0 0 0 .7q19.1 10.3 35.4 24.6 23.7 20.9 31.2 28.3l13.2 13.4q30.9 33.4 55.9 72 11.2 17.2 21.7 38.8 12.7 26 22.8 50.4a575 575 0 0 0 16.7 37.4q3.5 7 9.7 15.7c8.1 11.5 12.5 18 20.7 26.5q3 3 11.6 9.5 10.5 8 41.2 31.9 13.2 10.2 20.3 16.6c13.8 12.2 26 25 38.7 38.7a.4.4 0 0 0 .7-.2q2.9-15.4 6.3-30 2.5-11 4.6-31" vector-effect="non-scaling-stroke"/><path stroke="#606884" d="M1529.7 686q4.8-28.1 7.2-56c3.2-37.4 1.7-74.5-7.6-111.5-5.4-21.2-11.9-42-21.7-61.6q-18.7-37.4-44.5-67.7-8.7-10.3-14.4-15.7-6.3-6-16.3-14.5-2.2-2-15-11c-6.2-4.4-14.3-8.8-22-13.5q-6.9-4-16.9-8.3-16.5-7.1-34.4-12.1a111 111 0 0 0-42.6-5.7c-17 1.8-34.2 6.7-51.2 11.4" vector-effect="non-scaling-stroke"/><path stroke="#808da9" d="M1529.7 686q-1-18-1-35.7-.2-14.1-.5-20-.5-10.8-1.3-20.1-2.8-30.7-11.5-62.4c-2-7.3-5-14.5-8-23.2q-8.4-23.8-21.7-47.2c-5.2-9.1-12.6-19.8-17.2-26.9-4.7-7.3-9.6-13.1-14.8-19.8q-3-4-5.4-6.4c-5.2-5.3-9.5-10.6-14.4-15.4q-19-18-31.1-27.2-16.4-12.4-31.8-21.1-8.8-5-19.2-10.4-9.5-5-27.6-11.6c-6.2-2.4-16.1-5.8-25.3-8q-13.3-3.3-14.9-3.9c-3.3-1.1-6.3-2.4-9.7-3q-5.2-1-15-3.4-1.5-.3-6.7.5-1 .1-1.6 0-1.2-.2-.7-1" vector-effect="non-scaling-stroke"/><path stroke="#66324c" d="M368.6 521.8q-8.7 16.4-15.6 33.6-1.6 3.8-3.6 9.9c-2 6.4-4.7 13-6.4 19.3-1.3 5-2.2 9.9-3.7 14.8" vector-effect="non-scaling-stroke"/><path stroke="#393551" d="m339.3 599.4-.2 1a2.7 2.6 44.1 0 0 0 1 50 50 0 0 1-2.2 28.9q-.6 2-.4 3.5a49 49 0 0 1-.6 17.8 2.7 2.6 68.7 0 1-.3.8l-.8 1.2-.2 1q1.5 18.5 8.5 39 7.3 21.5 16.9 39.6a255 255 0 0 0 58.2 71 168 168 0 0 0 37.4 27q33.6 16.8 68.2 24.8 9 2.1 14.6 2.2c29.7.5 56.8-5.5 88.5-12.5q17.1-3.8 66-15.7 14.8-3.7 28.2-7.6 31.3-9.4 57.2-28.9c30.1-22.7 47-60.5 49-97.6 1.3-23.6.5-47-.3-72.3q-.5-15.1-2.8-39-1-10 .9-21a.8.7-71.3 0 0-.4-.8l-.6-.4" vector-effect="non-scaling-stroke"/><path stroke="#79425c" d="M824 562.4q.8.3.8-.4.3-12 1.1-19.5.4-4.1-.8-6.4" vector-effect="non-scaling-stroke"/><path stroke="#8c5c6c" d="M825.1 536q1.1-2.2 1-5.5l-.5-30.5q-.1-4.4-.7-11" vector-effect="non-scaling-stroke"/><path stroke="#393551" d="M824.9 489q-.6-13.7-1.5-18.3-2.3-11.9-10-25.4-1.5-2.6-2.8-4a95 95 0 0 1-7.7-9.8q-7.8-11.3-20.4-22.5a130 130 0 0 0-21.9-14.6q-5.8-3.4-10.3-5.2-14.1-5.4-34-11-4-1-7.6-1.6c-6.6-1.2-12.7-3-18.9-3.8-11-1.6-23.4-4.4-34.9-5.5s-22.1-3.6-34.7-5.9c-25-4.4-51.4-9.8-75.5-12-8-.6-15.8 1.3-24.2 3.3q-4.7 1-9.5 3.7c-10 5.5-16.3 9.9-25.4 15.2q-7.2 4.2-13.3 10-18.2 17.1-30.4 30.3-21.9 23.4-40.4 49.1-11.6 16.1-19.6 31c-4.4 8.2-9 20-13.3 29.8" vector-effect="non-scaling-stroke"/><path stroke="#935b6a" d="M824.9 489q-3.4-23.4-15-42.6-26-42.9-74.3-59.2-21.9-7.3-49-11.6l-17.4-2.9c-14.4-2.4-27.8-4.3-43.3-7.1-25.1-4.6-50.1-9.3-74-12.5a74 74 0 0 0-50.5 13.3 302 302 0 0 0-60.2 51.9" vector-effect="non-scaling-stroke"/><path stroke="#80405b" d="M441.2 418.3q-11 12-21.7 25.2-1.8 2.2-6.8 9.6" vector-effect="non-scaling-stroke"/><path stroke="#6c314b" d="m412.7 453-8.2 9-.3.4q-.4 1-1.2 2.1-8.4 12.2-14.5 22c-2.3 3.6-3.9 7.6-6.2 11q-2.7 3.8-5 8l-8.7 16.3m53.1 168.5 1-.2a.7.7 54.4 0 0 .1-1.3q-3.2-2-5.7-4.7a5.2 4.8-2 0 0-.7-.6l-5.7-4q-16.4-10.7-35.3-21.5c-11.3-6.5-21.4-13-32-19.9q-2.5-1.6-3.7-3a3.1 3 34.8 0 1-.5-2.9q1.8-5.3 5-10.3 7.1-11 15.4-21.3l8.5-9.9q3.5-4 9-9.3 12.4-12.1 15.4-14.6c5.3-4.3 9-8.4 14.2-12.4 6.7-5.3 14-11.5 22.3-16.9q6-4 12.6-8.9c3.4-2.5 6.8-5.2 7.6-9.3a.5.5 0 0 0-.5-.6q-1.7 0-3 .5-17.4 8.3-34.3 19.1-14.5 9.3-29.2 20.7-13.3 10.3-26.8 23.7-8.8 8.7-15.6 17.6a.2.2-28.2 0 1-.4 0v-1" vector-effect="non-scaling-stroke"/><path stroke="#d36876" d="M825.1 536q-5-25.5-12-44.9-7-19.2-20.8-36a158 158 0 0 0-71.2-46.3q-9.8-3.3-33-7.3c-24.1-4.2-54.2-9.5-81.3-16a493 493 0 0 0-34.6-6.7q-9.7-1.5-22-1.7c-14-.4-25.4 2.4-39.6 6.8q-27.9 8.8-53.2 23.9-2 1.1-8 5.3-4 2.7-8.2 5.2" vector-effect="non-scaling-stroke"/><path stroke="#80405b" d="M824 562.4q-4.3-5.7-8-9.1-8.9-8.1-20.5-15.7-27.3-17.9-57.5-26.4-13.7-3.8-24.8-4.8h-2.6a.2.2-38.1 0 0 0 .5l6.6 1.9q15 4.1 30.6 12l14.3 7.7q15 8.5 34 25a122 122 0 0 1 18.8 22.3q3.4 5 5.7 11.2 3.4 9.9 4 17.1 1.4 15.5.5 38.6" vector-effect="non-scaling-stroke"/><path stroke="#ad3e56" d="M825 642.7q-4.5-2.4-8.7-4.9-4.9-2.8-8.8-4.7-17.1-8.3-23.3-11-38.7-16.2-82-24.2-23.2-4.3-50.2-7.7-62.4-7.8-122-3-28.8 2.4-44.5 4.8-24 3.8-37.7 6.3-7.6 1.4-13.5 3-21.2 6-37 11.4l-2 .6a.5.5 0 0 0 .1 1q2.8.2 5.3 0c39-5.7 56.5-8.5 76.2-10.8 17.2-2 31.8-3.2 47.4-3.5 38.8-.8 75-.2 110.5 3.6q24.1 2.7 52.8 7.4 30.5 5 57.3 13.1a323 323 0 0 1 61.4 27.2q5.6 3 10.7 6.9 2.7 2 2.4 4.6c-.3 2.7-2.6 7.2-5 9.4-5.2 5.4-12 9-17.4 12.9q-7 5.1-17 9.4-19.4 8.4-22.8 9.7-15.6 6-33.7 10-25.7 5.7-54 8.8-1.4.2-2.7.6a.7.7 0 0 0 0 1.4q2.3.9 5 1.1c5.9.5 10.8 1 16.6 1 29.1.1 57.5-5.2 85.4-14.1q12.7-4 24.9-9.4 13-5.7 24-11.4a.6.6 0 0 1 .9.5l-.2 7.6" vector-effect="non-scaling-stroke"/><path stroke="#80405b" d="m823.4 700.3-.6 4.2" vector-effect="non-scaling-stroke"/><path stroke="#ad3e56" d="M822.8 704.5q-1.7 5-4.2 7.3c-2.9 2.7-5.5 5.6-8.3 7.7l-13 10.3q-7.7 6.5-13 10Q766.8 751 756 756q-25.9 12-54.4 20-46.9 13.3-95.9 14.8-14.3.5-21.6.2-7.8-.2-21.7-1.6-45.5-4.7-85.7-25.3-14.6-7.5-25.4-14.6-15.3-10.1-32.6-25.4-8.4-7.4-15.9-15.7-11.5-12.8-14.8-17-4-5.3-13.2-19a3.9 3.5 5.9 0 0-.6-.6q-1.8-1.6-1-2.2" vector-effect="non-scaling-stroke"/><path stroke="#80405b" d="m373.2 669.7 48.5 20.6" vector-effect="non-scaling-stroke"/><path stroke="#ad3e56" d="M421.7 690.3q14 6.1 28.3 11.5 28.2 10.5 57.1 17.2c10.8 2.5 22 4 32.9 5.8q7.5 1 25.8 1.6 5.7.1 9.4-.4 1.5-.3 2.1-1.2a.8.8-69.6 0 0-.5-1.3q-31.7-4.7-63-13.3c-15.8-4.3-26.2-8.3-44.4-15q-24.6-9.1-47.5-21.4-20.7-11.1-46.7-31.4-5.3-4.2-8.8-9-1.6-2-1.3-4.3c1-8.7 4.4-17 9.3-24.4q6.8-10.1 14.3-19.3 7.7-9.4 21.4-22.5 3.3-3.2 14.7-12.4 7.1-5.8 14.7-12.3c2.7-2.4 6-4.4 8.9-7q3.5-3.1 6.4-5.3 15.3-11.1 21.5-15.3 35.2-23.4 74.4-37.6c14-5 31.4-9.6 47.1-14l11.7-2.5a.4.4 80.4 0 0 .3-.5.4.4 0 0 0-.4-.4l-10.1.6q-8.4.4-18.7 2.4-34 6.7-66.4 17.7-19.5 6.6-33.6 12-40 15.5-76.2 39.3-11.7 7.7-28.1 19.8c-1 .7-1.9 1.8-3 2.4a.4.4 0 0 1-.6-.5q4.2-15.4 9.5-31.4 4.8-14.5 12.6-29.9l18-35" vector-effect="non-scaling-stroke"/><path stroke="#6c314b" d="m373.2 669.7-35.8-16.5a.8.8 0 0 0-1 .9q1.2 4.7 2.8 13.2c1.1 5.6 3.1 10.4 5.4 16.5a4.4 4.2 19.6 0 0 .4.9q1.2 1.8 1.4 2.6 1.2 5.4 3.7 10.7 6.8 15 17.5 35.4 3.4 6.6 13.3 22 5.1 7.8 12 16 11.6 13.7 13.2 15.4 13.5 14.6 31 27.3l9.8 6.9q5.6 3.9 10.3 6.2c8.3 4.1 14 7.6 21.7 10.4q10.1 3.6 19.8 6.7 30 9.6 61.7 7.8 30.7-1.7 71.4-12.2c4.6-1.1 10.4-2 15.6-3.3q38-9.5 48.6-12.9c9.4-3 18.5-5.2 27.3-8.5q14.4-5.4 25.7-10 10.6-4.3 17.1-8.2c9.2-5.5 17-10 22.6-16.8q7-8.2 12.7-16.1 5.6-7.7 10-18 8.7-19.9 11.4-41.6m.6-4.2q1.4-9.1 1.4-15-.2-21.9.3-42.6" vector-effect="non-scaling-stroke"/><path stroke="#8c5c6c" d="M1227.7 405.8q-21.7-21.2-46.8-38.2a74 74 0 0 0-45.6-15" vector-effect="non-scaling-stroke"/><path stroke="#393551" d="M1135.3 352.6a69 69 0 0 0-27.7-.3c-10.3 1.3-22.6 4.6-33.1 6.5-4 .7-7.2 1-12.6 1.4q-2.8.3-9.2 2-16.6 4.4-33.3 5.4c-7 .4-17.8 4-26.5 5q-6.4.8-9.9 1.4c-17.1 2.9-33 8.4-51.1 14.3-6.2 2-12.5 6.2-16.4 8.3q-4.6 2.4-9.6 6.3-13 10-21.7 19.3-23 24.4-30 57.5-5.3 24.4-4 53.7c.5 10.5 3.4 23.3 4.7 30.6q1.9 10.8 1.3 17.3l-2.3 23.9q-2.2 23.7-2.5 58.8-.2 26.6.9 37.3a141 141 0 0 0 17.6 56.6q6.8 11.6 12.3 18.8a105 105 0 0 0 36.4 28.5q33 16.6 67.8 25.2l39.2 9.8a970 970 0 0 0 71.6 15.2c24.3 4.2 47 2 71.1-3.2q14.2-3 24-7.6l28.2-12.7q15-6.7 27.6-16.6 19.2-15 36.3-33.7 15-16.3 27-38 12.4-22.3 19.5-38c8-17.6 12.6-33.5 14.3-51.6a2 2-8.3 0 0-2.8-2.1l-2.6 1a1 1 0 0 1-1-.1c-4.7-5.3-1-10.8 2.2-15.6l.4-1q1.4-5.9 1.6-8.5 1.1-19.3-1.9-38.3-.7-4.9-2.3-9.6-2.6-8.2-10.3-29.4a253 253 0 0 0-14.8-32.5c-7-13.3-14-27-22.7-39.6q-15.8-23-26.8-36-14.5-17.4-22.6-26.4-5.7-6.3-13.9-10.1" vector-effect="non-scaling-stroke"/><path stroke="#935b6a" d="M1135.3 352.6q-9.5.6-12 1-36.8 5.7-71.5 12c-30.5 5.6-60.5 9.6-90 16.8q-9 2.2-21 6.4-34.6 12.4-57.7 40.2a124 124 0 0 0-26.6 51.8q-2 8.7-2.4 23.3-.5 16.2 0 32.4" vector-effect="non-scaling-stroke"/><path stroke="#80405b" d="m854.2 536.5.8 26.8a.4.4 0 0 0 .7.3 81 81 0 0 1 16.8-17.5q5-4 9.3-6.9 17.9-11.6 33.8-18.8 23-10.5 52.5-14.3l.2.1.2.3a.4.4 0 0 1-.2.5 225 225 0 0 0-79.1 41.9q-5.6 4.5-10.3 9.5-8.9 9.5-15.7 20.3-5 7.7-6.4 17l-1.2 7.6q-1 7.2-1.1 10.6-.6 14 0 29.5" vector-effect="non-scaling-stroke"/><path stroke="#6c314b" d="M854.4 643.4q1 18.8.8 39.3-.1 5.8.7 11.6" vector-effect="non-scaling-stroke"/><path stroke="#80405b" d="m856 694.3 1.5 12.7" vector-effect="non-scaling-stroke"/><path stroke="#6c314b" d="M857.5 707q.7 9.6 3.3 17l5.9 17q1.7 5 6.2 13l2.5 4.6q1.8 3.3 4 5.6l1 1.2c2.3 5.3 6.5 9.6 9.5 13.5 2.8 3.7 6.8 7 9.4 8.6l11.6 7.7c3.7 2.6 5.7 3.4 9.6 5.6q3 1.6 7.6 3.4l25.1 10q7.8 3.1 13.2 4.6 7.2 2 13.4 4.1 6.7 2.3 20.1 5.6 17.2 4.3 31 8c4 1 9.3 1.9 14.3 3.3q2.6.8 5.7 1.3a15 14.7 58.2 0 1 2.8.6l1.8.7q31.5 6.5 46.6 8.4 21 2.5 37.9 1.4 19.4-1.3 41.4-8a155 155 0 0 0 27.7-9.9c7.7-3.8 17-8.1 24-12.9q14.4-10 25-19 14.2-12.3 31.1-33 2.9-3.6 6.1-8.6l6-8.8q10.7-15.8 20.3-35.2 6.4-13 12.1-27.6c2.1-5.4 3.6-10.5 5.6-16.7q3.1-9.2 4.9-19.2a.7.7 0 0 0-1-.7l-35.7 17" vector-effect="non-scaling-stroke"/><path stroke="#80405b" d="m1307.5 669.6-4.4 1.8q-15.5 8-28.3 12.6-10 3.6-15 5.8" vector-effect="non-scaling-stroke"/><path stroke="#6c314b" d="m1259.8 689.8-2.4-.1a.5.5 0 0 1-.3-.9q8-6.8 16.7-12.3 11-6.8 21.8-13.1 15-8.6 21.5-12.7l21.2-13.2q1.3-.9 2.4-1.9a1 1-26.5 0 0 .4-1.2c-.8-4.5-3-8.5-4.7-12.5q-1-2-2.5-4.2-8-11-9.3-12.3c-3.2-3.4-5.6-7-8.5-10.3q-16.2-18-32-31.5-13.2-11.4-19.8-16.4-11-8.3-25.9-19.1-4.8-3.6-7.7-7.9a1 1 0 0 1 .9-1.3q2.3.4 4.5 1.3 7.3 3.3 16 8.5 3 1.7 23.7 14.8 12.7 8 33.3 25 12.8 10.5 25.4 24.3 3.2 3.4 5.8 7.3a.3.3 0 0 0 .6-.3q-1.6-8.1-4-15.8-.4-1.3-1-4.6-.4-2-1.5-4.6-1.8-4-2.5-6.2-1-3.4-3.6-9.8l-.2-1.1q0-.6-.3-1-.5-.5-.7-1.5-.5-2-1-2.8c-1.5-2.8-2.4-5.6-4.1-9.4q-3.6-8.2-13.5-27.2c-4-7.6-7.7-13.4-11.6-20.7q-2.2-4.1-10.8-17l-16.5-24.5q-3.5-5.2-7.8-8.4" vector-effect="non-scaling-stroke"/><path stroke="#80405b" d="M1261.8 445.2q-11.9-15.4-24.6-28.6" vector-effect="non-scaling-stroke"/><path stroke="#935b6a" d="m1237.2 416.6-9.5-10.8" vector-effect="non-scaling-stroke"/><path stroke="#d36876" d="m1237.2 416.6-17.6-10.7q-4.1-2.6-25.7-12.7-13.5-6.4-34.2-11.9-13.9-3.7-23-4.1-11.5-.5-23.4.9-28.6 3.4-58.1 10.3c-23 5.3-41.7 9-59 12.2q-26.4 5-37.5 8.6-32.6 10.6-58.6 33.4a128 128 0 0 0-38 65.5q-1.5 5.7-6.3 28.2a1 1 9 0 1-.7.6q-.4 0-1-.4" vector-effect="non-scaling-stroke"/><path stroke="#ad3e56" d="M1261.8 445.2q1 2.5 3 5.8 8.8 14.7 18.8 34c10 19.3 17.6 41 23.3 61.3q.6 2.2.4 4.5a.4.4 0 0 1-.6.3q-33.6-29.2-74.6-48.5-32.7-15.3-67.1-27.2-16.2-5.6-36.5-10.4a314 314 0 0 0-55-9.2q-.7 0-1 .4l.3.6c22 5.6 43.3 11 64 18.7 32 11.7 61.7 29.7 88.8 50.2q5.5 4.1 32.7 27.3 14.9 12.6 24 22.6 12.3 13.3 20.9 25.4 6.7 9.5 8.7 15.1c1.3 3.5 4.2 12.7 2.2 16.2q-2.3 4-6.6 7.6-38 31.6-83.7 50.1a499 499 0 0 1-63.4 21.9q-28.9 7.4-57.3 11.7a.7.7 0 0 0-.6 1q.5 1.3 2.2 1.4 13.2 1 27-.5 32-3.5 59.5-11.3 28.1-7.9 35.5-10.7l19.6-7.4q7-2.5 13.5-6.3" vector-effect="non-scaling-stroke"/><path stroke="#ad3e56" d="M1307.5 669.6q0 1.5-1.4 3l-2 2.5q-8.6 12.8-13.1 17.9c-4.5 5-9.3 11-13.6 15.4q-23.8 25.1-53.1 43.9a247 247 0 0 1-141.8 38.7q-30-1-54-4.4Q989 781 949.8 767a227 227 0 0 1-69.6-39.2q-8-6.8-13.3-10.9-3.2-2.4-4.6-4.4-2-2.8-4.8-5.4" vector-effect="non-scaling-stroke"/><path stroke="#ad3e56" d="m856 694.3-.1-2.2a.6.6 0 0 1 .9-.5q13 6.8 27.2 12.9 15.8 6.8 40.5 13.7c7.6 2.2 12.5 3 21.5 4.8q20.4 4 45 4c7.6 0 16.6-.7 23-2.2a.7.7 0 0 0 .3-1.3q-.4-.3-1.3-.4-29.4-3.5-51.5-8-24-4.8-43.4-13l-16-6.8c-11.5-5-19.1-9.6-28.2-16-5.7-4.1-10.3-7.3-12.7-13q-1.7-3.8.8-6.4 2.9-3 4.1-3.8 19.6-11.4 30.5-16.7 19.8-9.7 42.2-16.3 22.7-6.7 57.7-12.5 40.7-6.8 78.5-9.4 37.3-2.5 84.9-1.5 16.3.3 33 2.5 43.7 5.8 85.7 12c2.7.4 5.1 1 7.8.6a.5.5 0 0 0 .2-1q-4.7-2.2-11.4-4-7.2-1.8-11-3-13.5-4.2-19-5.5-8.6-2-31.4-6.3a669 669 0 0 0-61.5-7.5q-33.2-2.7-68.3-1.7-27.3.8-47.2 3.3c-31.4 4-62.2 8.7-91.4 16.3q-16.8 4.4-39 12.5-6.8 2.4-16.7 7-11.1 5-16.4 7.7-8.5 4.3-18.9 10.8" vector-effect="non-scaling-stroke"/><path stroke="#535b77" d="M198.6 738.4q-13.3 11.1-18.5 17.5-10.2 12.7-14 18c-9 13.1-17.3 31-23.4 48.5q-2.3 6.7-7.7 21-3 7.7-8.7 28.7-12.4 46-18.6 91.6a339 339 0 0 0-3.5 62.6l1.4 25.5 4 29.6q.9 5.9 3 15 2 8.9 7.4 14.8a90 90 0 0 0 13.2 12.3c5.9 4 13.2 9 20.8 13.3" vector-effect="non-scaling-stroke"/><path stroke="#454d6b" d="M154 1136.8c13.5 8 29.4 15.3 45.2 19.6q18.7 5 40 7.7a2 2 21 0 0 2.1-.9c9.8-14 17.7-29.7 26.6-47.6q16.8-34 32.7-72.5 3.6-8.9 11.3-29.4c6.5-17.2 10.4-30 16.4-50 6.5-21.4 11-43.3 16.5-65.7q6.2-25.7 10-67 2.4-27.2.7-55.5a47 47 0 0 0-8.5-22 352 352 0 0 1-27.5-57.4l-11.2-28.6q-1.5-3.7-2.4-4.7a3 3-26.8 0 0-3-1c-3.5 1-6 2.7-9.1 4.7q-29 18.1-56 37.9-9.8 7.3-20 16.4-9.8 8.7-19.2 17.6" vector-effect="non-scaling-stroke"/><path stroke="#657290" d="M154 1136.8q5-3.7 10.1-7.2 7.3-5 10-7.5 9.9-8.5 18.8-19.7 17.1-21.8 26.8-40.7 10.2-20 15-31 10-23.1 18.4-47.3 3-8.3 10.9-34c6.3-20.3 10.5-41.5 16-64.7q4.4-17.9 6.5-30 1.6-9.2 4-30.5c2-16.6 2-34-2.8-50.1q-5-17.1-18.8-30a52 52 0 0 0-40.6-14.3q-3.8.6-13.6 3.2c-5.2 1.4-10.5 6.6-16.1 5.4" vector-effect="non-scaling-stroke"/><path stroke="#535b77" d="M1526 1137q10.2-6 19.8-12.5c5.5-3.7 10.2-9 14.4-13 6.1-5.6 8-15 9.6-22.7q3.8-20 5.7-44c1.2-15.8 2-30.6.8-46l-1.6-16.5-1.7-16.3q-7-54.3-22.9-107.8-3.2-10.7-9.5-27.5-7.9-20.9-11.5-28.8-7.6-16.7-17-30.2-12.2-17.6-27.2-31" vector-effect="non-scaling-stroke"/><path stroke="#454d6b" d="M1485 740.8q-19-18.5-33.6-29.7-30.2-23.3-69-47.2-2.7-1.6-5.2-2c-4-.5-4.2 1.8-5.5 5.3-11.4 30.8-18.8 50.8-31 73q-5.1 9.4-12.4 22.3-3.5 6-3.6 14.5c-.3 16.5-.8 31.1.5 47.6q3 35.1 6.7 56.1 5.4 30.3 15.9 67.6c10 35.5 21 69.8 35.2 102.6l12.1 27.6q6 13.6 12.7 27.2c12.1 24.4 19.4 39.5 30.6 56.9a2 2-18.7 0 0 2 1q29-2.3 56.2-12 3.6-1.3 8-3.5c4.6-2.3 9.6-4.3 14.9-7.3l6.6-3.8" vector-effect="non-scaling-stroke"/><path stroke="#657290" d="M1485 740.8q-7.3-2.2-14-5.5-6.3-3.1-9-3.7-6-1.5-12.3-2c-21.8-2-42.5 13.1-52.4 31.7-8.2 15.2-9.2 31-8.3 48a361 361 0 0 0 9.1 67l4.7 18.6 4.6 20q2.3 10.4 15.5 55.2 3 10.4 7.8 23.7 12.8 35.1 29.3 67.3a261 261 0 0 0 31.3 46.1q10 12.2 22.8 20.5c4.1 2.7 7.9 6.2 12 9.3" vector-effect="non-scaling-stroke"/><path stroke="#535b77" d="M474.7 989.7q5.7 10.6 9.9 17 13.6 21 32 42a344 344 0 0 1 11.2 13.5q4.8 6.1 13 14 2.5 2.5 3.6 4.8a.5.5 0 0 1-.6.7l-1.7-.8q-20.5-12.9-38.3-30.7a382 382 0 0 1-33.8-39.9" vector-effect="non-scaling-stroke"/><path stroke="#454d6b" d="m470 1010.3-9.1-13.7c-10.1-15-18-30.9-25.3-47.9q-4-9.3-6.2-18.5-.9-4-2.2-7.7a6 6-85.2 0 0-2.7-3.3c-7.4-4-11.7-8.7-18.8-15.7q-3.7-3.6-6.7-8-1.4-2.2-9-12.5-1.2-1.7-5.5-9.4c-1.4-2.5-2.7-4-4.5-6.6a.3.3-60 0 0-.6.1q-.8 9.4-2.8 20-1.8 9.2-1.5 12.8.5 7 2.7 14.6c3.8 13.6 7.1 25.1 12.8 39.6l9 23q7.4 19.3 19.5 41.8 11.5 21.2 22.8 39.8 6 9.8 19.2 29.3l19.3 29" vector-effect="non-scaling-stroke"/><path stroke="#535b77" d="M480.4 1117q2.2 4.3 6.5 10.6 32 45.9 67.9 85.8.8.9 1.2 1.8a.8.8 0 0 1-1.2 1 137 137 0 0 1-23-17.8c-8-8.4-17.1-16.4-25.8-25.9q-7.6-8.2-15-16.6" vector-effect="non-scaling-stroke"/><path stroke="#454d6b" d="M491 1156q-13.2-16-25.4-32.6-3.3-4.6-7-10.7a.2.2 0 0 0-.4 0q2.4 9.6 3 19.2 1.6 32-1.1 58.9c-.9 8-2.5 23-4.2 35.5a615 615 0 0 0-5 110.7q.1 3.2 3 4.6 14.7 6.7 25.6 10.6l18.2 6.7c11 4.1 21 6.7 34.2 10.6q8.5 2.5 17.6 4.6" vector-effect="non-scaling-stroke"/><path stroke="#535b77" d="M549.5 1374q44.3 13 87.5 20.8 22.7 4 34.4 6.6" vector-effect="non-scaling-stroke"/><path stroke="#454d6b" d="m671.4 1401.4 19 3.2" vector-effect="non-scaling-stroke"/><path stroke="#535b77" d="M690.4 1404.6q13.4 2.4 27.8 4.2c37 4.7 74.5 8 111.8 8.5" vector-effect="non-scaling-stroke"/><path stroke="#454d6b" d="M830 1417.3h18.8" vector-effect="non-scaling-stroke"/><path stroke="#535b77" d="M848.8 1417.4q18.7-.2 32.4-1 20.1-1.3 50.8-4.2 22.4-2.2 45.3-5.4" vector-effect="non-scaling-stroke"/><path stroke="#454d6b" d="m977.3 1406.8 25.3-4" vector-effect="non-scaling-stroke"/><path stroke="#535b77" d="M1002.6 1402.9c22.3-4.5 46.9-8.8 66.8-13.2q31.1-7 60.6-15.3" vector-effect="non-scaling-stroke"/><path stroke="#454d6b" d="M1130 1374.4a513 513 0 0 0 62.9-19.4q25.3-9.9 29.1-11.2 2.6-1 6-2.9a2 2-5.5 0 0 .8-1q.8-2.2.9-3.3c.5-11.4.3-20.3.3-33.5q-.1-32.4-3.5-60.3-1.6-13.2-4.6-34.3-3-20.7-3.5-48.7-.3-21.7 1.2-35c.4-3.5 1.2-7.4 1.6-10a.1.1 0 0 0-.2-.2c-9.7 14.4-21.4 29-33 42.9" vector-effect="non-scaling-stroke"/><path stroke="#535b77" d="M1188 1157.5q-18.5 21.6-39.5 40.7-11.2 10.1-22.5 17.5a.7.7 0 0 1-1-.9l.7-1.1q6-6.6 9-10.2l19.6-23.6q9.2-10.9 19-24l20.5-28.3q4.3-5.9 5.2-8.9" vector-effect="non-scaling-stroke"/><path stroke="#454d6b" d="M1199 1118.7q12-16.3 21.5-31.9c2.2-3.6 5.1-7.7 7.7-11.8q17.5-27.6 32.5-55.3 9.2-17.1 15.2-31 6.2-14.5 13-32 8.2-20.8 13.5-43.5 2.6-10.9 2.5-15.1l-.1-1.5-4.6-28.4a.5.5 0 0 0-.9 0c-5.2 10.8-13.6 21-20 30q-1.3 2-3.4 4l-8.8 8.6c-3.5 3.6-8.2 6.7-11.1 9a12 12 0 0 0-4.2 6.3q-4.5 16.2-6 19.7c-8.5 18.8-15.4 34.3-25.8 50l-9.1 13.8" vector-effect="non-scaling-stroke"/><path stroke="#535b77" d="M1210.9 1009.6c-6.6 8.5-13.5 18-19.9 25.3a232 232 0 0 1-34.5 33.3q-12.6 9.5-14.4 10.6-3.5 2.1-6.2 3a.4.4 0 0 1-.6-.7q.7-1.2 1.4-2 20.7-21.2 40.8-46.9 11-14 18.8-26.2 2.1-3.2 9-15.3" vector-effect="non-scaling-stroke"/><path stroke="#454d6b" d="M1205.4 990.7q3.3-5 5.9-9.7 6-11 11.7-22.4l4.3-8.5c3.1-5.4 4.4-11.2 7-17.3q.4-1 .5-2.1a1 1 0 0 0-1-.8c-4.6.6-9.7 3.6-14 4.5q-10 2.3-18.7 3.3a.7.7 0 0 1-.5-1.2 143 143 0 0 1 18.8-13.6q10.5-6.6 13.4-8.6 2.8-2 12.2-9.6a215 215 0 0 0 31.7-33q8.8-11 13.6-17.6c3.2-4.3 7.6-10.4 7.3-14.1q-1.5-17.7-1.7-35.7a.4.4 0 0 0-.7-.2q-5 4.6-10.2 9.9-5.8 5.7-22.6 19.1-1.5 1.2-15.1 10.8-9.2 6.5-15.7 9.9a181 181 0 0 1-47.5 17.7q-17 3.5-33.4 5.4-21 2.4-39 1-18-1.5-34.2-4.2-49.8-8.3-98.8-22.7-27.9-8.2-50.5-16.8-21.9-8.3-38.7-20.2-6-4.3-16.6-14.6-8.8-8.6-14.4-16.5a158 158 0 0 1-18-34.6.8.8 0 0 0-1.5 0 146 146 0 0 1-17.3 34.1q-5.1 7.9-13.2 16a131 131 0 0 1-34.3 26.1 450 450 0 0 1-72 26.4q-11.6 3.5-48.5 12.7-34.6 8.6-73.8 13.2-28.6 3.3-52.9 0-26.3-3.7-39.5-7.3-26.8-7.4-53.5-25.3c-6.3-4.2-17.3-11.5-25.2-18.1q-10-8.3-11.5-9.9l-12.4-12.6a.4.4 21.9 0 0-.6.3q.3 15.2-1.3 35c-.3 4 2.3 7.9 3.7 10.1q13 19.3 22.2 29.4 8.3 9.1 29.3 28.2 5.1 4.7 13.7 10.5 16.7 11.2 26.4 18.1.8.6 1.2 1.4a.8.8 0 0 1-.8 1.1q-16.6-2.2-32.3-8a.7.7 0 0 0-1 1q3.1 9.2 7.9 18.3l7.7 16q6 12.6 13.6 24.7" vector-effect="non-scaling-stroke"/><path stroke="#657290" d="M1205.4 990.7q-1.7-5.6-3.1-10.9-2.7-9.8-8-18.4-12.7-21-33.7-33.7l-7.6-4.5" vector-effect="non-scaling-stroke"/><path stroke="#454d6b" d="M1153 923.2q1.7-6.9 4.2-14.3 2-5.7 2.1-11.1.1-2.5-1.7-1.7l-.3.3-14.1 23" vector-effect="non-scaling-stroke"/><path stroke="#657290" d="M1143.2 919.4q-16.3-5.8-25.6-8c-17.8-4.4-45.4-9.4-64.3-14.8q-24.6-7-38.7-12.2-26.1-9.5-59.8-24c-10.4-4.5-19-7.8-29.3-11.9q-9.5-3.7-22.3-7.2a57 57 0 0 0-33-1c-18 5.6-19.5 27.4-14.4 42.4a63 63 0 0 0 19.3 28q5.1 4.2 15 8.7 15.6 7 31.9 11.6" vector-effect="non-scaling-stroke"/><path stroke="#454d6b" d="M922 931q8.9 5.5 21.4 10.8 2.5 1.1 11.2 5.6" vector-effect="non-scaling-stroke"/><path stroke="#7786a3" d="m954.6 947.4-1.3.5a1.3 1.2-39.8 0 1-.6 0l-25.8-7.5c-21-6.3-41.9-9-59.1 7.2q-6.8 6.3-9.6 15.9-4.7 15.8-3.7 33.3" vector-effect="non-scaling-stroke"/><path stroke="#657290" d="M854.5 996.8q-.7 14.8.3 33 1 17.6 7.5 32.4c3 7 4 10.7 9.5 14.5l7.6 5.2c4.2 2.4 8.7 2.3 13 2.5q2.9 0 7.5 1.3c23 6.3 43.3 9 69.5 12.9a151 151 0 0 0 46.7 1.3q26.3-4 41.9-25.4 5.2-7.2 8.9-14.5" vector-effect="non-scaling-stroke"/><path stroke="#7786a3" d="M1066.9 1060q2.8-6.1 4-13.8" vector-effect="non-scaling-stroke"/><path stroke="#657290" d="m1070.9 1046.2 6.3 12" vector-effect="non-scaling-stroke"/><path stroke="#454d6b" d="M1077.2 1058.1q-1 11.8-2.7 24.6-3.1 24.7-5.7 52.1-3.8 40-5.2 51.1-1.3 10.3-3.2 31.8-1.1 13.3-6 50.9-1.9 14-4.5 26.6c-.6 3.3-.7 6.9-1.2 10.3" vector-effect="non-scaling-stroke"/><path stroke="#657290" d="m1048.7 1305.6-.3-1.6a.5.5 0 0 0-1 0c-3 11.7-5.1 22.8-9.4 35.5q-4 12.4-9.2 27.2l-.5.8c-2.6 4-6.6 7.6-10 12.2-7.1 9.4-11.2 14.6-15.7 23.2m-25.3 3.9q7.8-8.3 10.8-13.5c4.3-7.5 10-15.7 14-24q3-6 5.6-13.4 7.6-22 10.8-39.9 2.5-14.2 1.7-34.4c0-2.7-1-7.4-2.4-10-2.3-3.8-5.3-3.3-9.7-2.6q-9.8 1.4-13.5 2.9l-13.8 5" vector-effect="non-scaling-stroke"/><path stroke="#7786a3" d="M980.8 1276.9c-13.2 2.7-27 6.2-40 7.8-14.3 1.7-31.1 2.2-42.4 3.7q-16 2.1-27.8 11.4-3.7 3-5.7 5.9a80 80 0 0 0-12 39.5q-1.5 30.9-2.4 45-.2 2.7.1 5.4" vector-effect="non-scaling-stroke"/><path stroke="#657290" d="M850.7 1395.6q-1.6 9.9-2 21.8m-18.7-.1-2.9-22.6" vector-effect="non-scaling-stroke"/><path stroke="#7786a3" d="M827.1 1394.7q-.1-5.9-.5-11.8c-1.1-15-.8-31.1-1.4-43.4q-.4-8.8-1.5-14a45 45 0 0 0-13.7-25.3 55 55 0 0 0-27.3-11.2q-8-1.2-13-1.6-20.6-1.6-36.8-3.3-6-.6-18-3.2" vector-effect="non-scaling-stroke"/><path stroke="#657290" d="M715 1280.9q-14.9-5.7-19-6.9a117 117 0 0 0-30.3-5.6c-4.2 0-4.7 3.7-5.2 7q-1.2 6.6-1.4 12.6-1 22.8 4 45.4 3.6 15.8 9.2 31.7 2.7 7.4 8.7 19.9l9.4 19.6m-19-3.2c-2.2-4.1-4.7-6.4-9.5-4.8l-.8-.2q-1.5-2-3.4-7.3-3.9-10.5-5.8-17.8c-.9-3.5-2.5-7.2-3.5-10.6q-1.2-4-2.7-8-8.5-22.1-13.5-45.6a.4.4 41 0 0-.7 0v1.7" vector-effect="non-scaling-stroke"/><path stroke="#454d6b" d="M631.4 1308.8q-1-11-2.9-21.8-2.7-16.5-3.3-21.8-2.7-21.2-5.1-42.3l-5.2-42.4q-5.7-44.3-9-89" vector-effect="non-scaling-stroke"/><path stroke="#657290" d="m605.9 1091.5.2.5a.3.3 0 0 0 .5-.1q.4-11.3 2.5-19.7 1.5-6.3 3.4-12.6a.3.3 0 0 1 .6 0 65 65 0 0 0 36.3 36.1q20.8 7.8 44.9 5 36.5-4.3 70.2-10.2 7.1-1.2 19.3-4.9c3.3-1 6-1.2 8.9-1.7 5.7-1 8.7-3.4 15.4-7.6 4.2-2.6 5.9-5.6 8.4-10.7q5.4-10.7 7.3-21.6 2.2-13 2.4-27 .1-16-.1-20.7" vector-effect="non-scaling-stroke"/><path stroke="#7786a3" d="M826 996.3q-.5-19.4-5.6-35.4c-2.7-8.9-9.7-14.6-17.9-19.4a56 56 0 0 0-31.2-6q-5.1.5-18.8 4.7-10.8 3.3-22 6.3" vector-effect="non-scaling-stroke"/><path stroke="#454d6b" d="M730.6 946.5q9.2-5.2 20.9-11 4.2-2 7.7-5.8" vector-effect="non-scaling-stroke"/><path stroke="#657290" d="M759.2 929.7q19.2-3.9 36.7-13.2 5.1-2.7 8.5-5.9 4-3.8 7.3-7.4 7.4-8 12.2-21.2c4.9-13.1 5.2-28-5.7-37.5-6.8-6-19-7.7-27.4-6.2q-10 1.7-23.9 6.7l-12 4.2q-5.6 2-26.3 11.1a1119 1119 0 0 1-48.4 19.9q-15.3 6-31.3 10.6c-13 3.7-25.7 8-38.9 10.8l-42.2 8.7q-16.6 3.4-30.4 9.2" vector-effect="non-scaling-stroke"/><path stroke="#454d6b" d="M537.4 919.5q-2-2.8-4.4-6.8-3.8-6.4-9.5-16.8a1.2 1.2 37.4 0 0-2.2.3q-.6 2.5.2 5.5 2.7 9.9 5.5 19.4" vector-effect="non-scaling-stroke"/><path stroke="#657290" d="m527 921.1-2.4 2.2q-1.1 1-2.6 2-23 14-37 37.2a95 95 0 0 0-10.4 27.2" vector-effect="non-scaling-stroke"/><path stroke="#656f8a" d="M730.6 946.5q-19.4 7.4-39 16.4-15.8 7.4-24.1 12.4l-15 9c-9.8 6-20.5 14-31 20.9" vector-effect="non-scaling-stroke"/><path stroke="#535b77" d="M621.5 1005.2q-7.2 2.8-9.4 3.4c-8.4 2.3-17.3.3-24.5-4q-14-8.5-25-21.7-13-15.4-23.9-34-7.5-13-11.7-27.8m616.2-1.7-11.3 17q-7.2 10.9-12 16.6-8.5 10.3-16.7 19.4-6.5 7-15.1 13.1c-4.4 3.3-10.7 5.9-16 4q-7.1-2.4-13.5-6.6c-9.4-5.8-18.4-12.5-28-17.4-13.8-7-26.3-12.9-40.3-17.3l-14.3-5a263 263 0 0 0-49.5-12.4q-1.4-.2-4.5.2" vector-effect="non-scaling-stroke"/><path stroke="#8593af" d="M621.5 1005.2q-1.6 3-3.4 5.8-10 15.3-7.6 33 1 6.9 2.3 13.2a.3.3 0 0 0 .5 0q4.3-19.6 17.4-34.2 22.7-25.3 52.8-39.2 4-1.9 11.8-4.7c9.9-3.5 20-7.7 30-10.5q19.1-5.3 40-8.6a61 61 0 0 1 43 10.1c9.3 7 14.3 16.1 16.3 27.1q.2.8.8.9l.4-.3.3-1.5" vector-effect="non-scaling-stroke"/><path stroke="#535b77" d="m605.9 1091.5-5.4-48.1a.3.3 0 0 0-.5 0q-1 3.8-1.4 7.7-2.5 36.5-2 69.9.1 6.1 1.3 28.5 2.9 54.1 10.3 99.4 3 18.7 5.2 26.8 5.6 21.2 11.8 41.6c3 9.7 6.7 20.2 9.6 28a.4.4 0 0 0 .8-.2q-.1-6.5-.9-13.3-.2-2.2-1.9-11.5-1-5.7-1.4-11.5" vector-effect="non-scaling-stroke"/><path stroke="#657290" d="M549.5 1374q-2.7-5.6-7.1-10.3a9.7 9.5 7.6 0 1-1.2-1.5c-5-7.8-8.8-13-12.4-20.5l-9.3-19.4q-6-12.4-10.3-31.2-3.7-15.8-5-26.9c-1.7-15.6-1.3-39.7-2-52q-.7-14.1-2-24.3-1.5-11.5-5.8-23.4c-1-2.8-2.7-5.5-4-7.9a.4.4 60.8 0 1 .1-.6h.5" vector-effect="non-scaling-stroke"/><path stroke="#8593af" d="M850.7 1395.6q3-3.8 3.4-9.4a4.9 4.8 56.9 0 1 .2-1.1q6.2-18.6 13.7-42.6 2.4-7.7 8.5-17.7c5-8.1 12.7-14.5 21.1-17.5q10-3.4 26-6l17-2.7q24.6-5 49-18.8 3.3-2 4.3-2.8a.4.4 0 0 0 0-.6q-.3-.2-.9-.1-6.1.8-12.2.6" vector-effect="non-scaling-stroke"/><path stroke="#657290" d="M1188 1157.5q.3-.2.5-.1a.4.4-66.7 0 1 .3.6q-6.3 10.8-7.8 24.5c-1.7 15.7-3.2 24.8-3.3 36q-.2 27.2-1 37.7-2 25.7-11.2 55c-3.1 9.8-8.7 18.9-13 27.2q-3.1 6.1-7.5 13l-15 23" vector-effect="non-scaling-stroke"/><path stroke="#535b77" d="m1048.7 1305.6-3 28.4q-.5 5.2-1.8 12.2v.5l.2.3h.3q3.7-8.2 6.3-16 4.8-13.8 14.2-47.3 3.5-12.3 5.3-23.7 11.4-69.5 13.3-140.7.6-22.1-2.3-60.7c-.2-3.7-1-7.9-1.9-11.8a.3.3 0 0 0-.5 0l-1.6 11.3" vector-effect="non-scaling-stroke"/><path stroke="#8593af" d="M1070.9 1046.2q.5-12.3-3-25-.7-2.5-2.6-6.9-1.5-3.3-2.7-6.9M715 1280.9q-8.1.1-16.2-1.4l-14.6-2.7a.3.3 0 0 0-.2.5l4.7 3c17 8.7 33 15.4 50.8 18.8q11.3 2 32.6 5.3 13 2 23 10.1c7.3 6 11.5 14 14.8 22.6 4 10.4 7.2 24.4 10.2 34.4q4 13.2 5.8 23.4l.5.5h.2l.4-.3.1-.4" vector-effect="non-scaling-stroke"/><path stroke="#535b77" d="M1153 923.2q-3.4 11.8-9.1 22-12 21.4-28 40-10.3 12-23.2 19.7a32 32 0 0 1-24.5 4l-5.6-1.5" vector-effect="non-scaling-stroke"/><path stroke="#656f8a" d="M1062.6 1007.4q-6.4-3-11.5-6.8-20.5-15-41-26.5-22.5-12.8-53.5-25.5-1.1-.4-2-1.2" vector-effect="non-scaling-stroke"/><path stroke="#8593af" d="M1066.9 1060q-.5-5.6-2.2-11.2-4.3-14.2-13.7-24.5-21.9-24-50.4-38.4-7.8-4-20.8-8.7-13.8-5-21.3-7.4-6.1-2-23.6-6.4-18.2-4.6-36.2-2.6-14.8 1.7-23.1 6.9-10.5 6.5-16.5 17.5-.5 1-2.1 5.9-1 3-2.5 5.7" vector-effect="non-scaling-stroke"/><path stroke="#535b77" d="M759.2 929.7a299 299 0 0 0-55.5 13.6c-12 4.3-22.7 7.6-32.5 12a247 247 0 0 0-43.7 24.2q-3.9 2.8-10.4 6.2c-6.5 3.4-11.5 5.9-17.5 3.6q-3.7-1.4-8.4-4.6-6.5-4.5-10.5-8.7a306 306 0 0 1-31.8-38.7c-3.2-4.8-7.5-11-11.5-17.8" vector-effect="non-scaling-stroke"/><path stroke="#657290" d="M470 1010.3q-1.7 3.6-1.6 6.2.5 22.5.9 30.8 1 19.3 5.3 40.1l2.7 11.2q2.2 9 3 18.5m718.7 1.6q3-21 7.7-40.3 2.3-9.7 3-16.2 2.6-22.2 1.6-44.6l-.4-8" vector-effect="non-scaling-stroke"/><path stroke="#535b77" d="M1542.2 778q-.6 2.6.8 6 11 25.7 19.4 51.6 9.7 30 18 70.2 6.4 30.6 10 78.5 1.2 17 .8 39.5-.3 19.5-2.9 36c-1.7 11-2 15-3.5 26.8a.3.3-21.8 0 0 .6.3 311 311 0 0 0 28-41.4q6.4-11.2 11.3-23" vector-effect="non-scaling-stroke"/><path stroke="#606884" d="M1624.7 1022.4q2.1-6 2.4-8.1 1.4-10.2 1.3-21.3-.2-29.5-5.4-58a418 418 0 0 0-13.6-58.2q-9.5-28.5-24-58.6c-11-22.7-25.9-45.6-38.4-65.5a.4.4 0 0 0-.8.2l-4 25.2" vector-effect="non-scaling-stroke"/><path stroke="#808da9" d="M1624.7 1022.4q-.7-1.8-.8-3.4a371 371 0 0 0-4.8-43.5c-1.5-7.8-3.7-23.2-6.5-34q-8.3-32-14.5-52-3.9-12.5-9.8-26.6-13.7-32.9-31.8-63.3-2.8-4.7-7-10.8l-7.3-10.7" vector-effect="non-scaling-stroke"/><path stroke="#535b77" d="M58 1027q4.5 10.7 10.6 20.7l15.2 24.5q2.4 3.7 11.3 14.3a.2.2 23.4 0 0 .3-.2l-1-9.7q-4.4-32.4-5.1-53.1-.9-25 2.2-57 5-51 19.3-106.7a536 536 0 0 1 21.9-64.6l5.7-12.6q.8-1.6-.3-4.5" vector-effect="non-scaling-stroke"/><path stroke="#606884" d="m138.1 778.2-4-25.2a.4.3 57.1 0 0-.7-.1q-19 28.5-33.5 55.7-14.3 26.8-26.8 63c-7.7 22.3-13 46-17 70q-4.4 26.2-4 55c.3 12 1.2 20 5.9 30.5" vector-effect="non-scaling-stroke"/><path stroke="#808da9" d="M138.1 778.2q-11.8 16-19 29.6-11.2 20.7-15.2 28.6Q88 867 78 901.9q-6.7 23-12 46.6l-3.3 16.9c-2.7 15.6-5.4 31-6.2 44.6-.3 5.7.8 11.2 1.4 17" vector-effect="non-scaling-stroke"/><path stroke="#8593af" d="M386.9 375.6q-.2-2.2-.6-3a2 2 70.8 0 0-1.7-.8q-11.8 1.5-23.3 4.5a205 205 0 0 0-74.2 36.6A152 152 0 0 0 245 466a202 202 0 0 0-19.5 59c-.4 3-1.2 7.3.5 8.6a2.6 2.6-48.2 0 0 3.4-.2q1.5-1.4 2.6-3.6 7.3-14.3 14.4-26.2 10-16.7 15.7-25.3 20.4-30.3 47.2-53 15.4-12.9 34.8-25.4a402 402 0 0 1 39.8-21.5q1.4-.7 2.7-2l.3-.8M1454 534q1.3-1.4.7-5a210 210 0 0 0-7.4-33.2c-10-30.3-28.1-61.4-53-81.7a211 211 0 0 0-98.5-43 2 2 14.1 0 0-1.8 1q-.9 2.5-.6 3.9l.5.9q1.7 1.5 3.8 2.4 38.4 17.2 71.8 45c21 17.6 40 40.1 55 64.8q10.6 17.3 19.6 34.6 3.5 6.7 5.6 9.9.7 1 3.3.8a1 1 19.1 0 0 1-.4" vector-effect="non-scaling-stroke"/><path stroke="#d36876" d="M438.3 482.3q4.2-1 9.4-4c6.6-3.5 14.5-9.3 21.6-13.1 19.4-10.3 37.7-20.2 57-26.4q10-3.3 33.1-9c19.6-4.8 37.9-7 59.6-9.9q5.5-.7 25.9-5.3 1.2-.3 1.7-.7a1 1 0 0 0-.1-1.7q-3.5-1.6-7.2-2-11.5-1.2-22.5-1.1-38.7.4-77 11-25.2 6.9-44.8 17.2-21.4 11.2-40 26.5a119 119 0 0 0-17.1 17.8.4.4 0 0 0 .4.7m213.8 24.2q2.3 1.4 4.9 2 28.4 7.3 33.6 8.9 14.9 4.5 22 7.5c10.4 4.3 17 6.7 24.2 10.3q16.4 8.3 29 16.7 12.3 8.2 17 12.6c5.5 5.3 11 11.3 12.8 12a1 1 0 0 0 1.3-1.1c-1.3-13-15.5-26.4-26-33.2q-13.6-9-30.3-17.2a190 190 0 0 0-80.8-20.9q-4.3 0-7.5.8a1 1 0 0 0-.2 1.6m591.3-23.3q-8.1-11.1-18.6-19.7-34.3-28-76.2-41-40-12.5-81.3-13.5c-11.5-.3-23.4-.1-33.7 3.1a1.4 1.4 0 0 0-.8 2l.5.3q2.8 1 7.5 1.8 19.1 3.4 43.2 6.8 19.7 2.8 30.4 5.4c22.7 5.5 38.6 9.3 56.6 17.1q28.7 12.4 58 31.1 7 4.5 14 7.2a.4.4 0 0 0 .4-.6m-214.8 21.6a52 52 0 0 0-16.8-.2q-22.6 2.1-40.7 7.7-32.2 10-61 29.5-12.7 8.7-20.6 18.7c-2.9 3.5-6.5 9.4-6.2 14.1a1.3 1.3 65.5 0 0 2.1.8q12.7-13.3 27.6-23 20.6-13.2 37.8-20.6 23-9.8 39.3-14.2l30.9-8.4q3.9-1.1 7.6-3.4a.6.6 0 0 0 0-1" vector-effect="non-scaling-stroke"/><path stroke="#8593af" d="M153.3 1017.5a1 1-80 0 0 1.2-.9q.5-2.4.7-5.1c1-15.3 3.2-28.5 5.8-45.2 3.3-21.1 8.6-44.4 12.4-61.4q6.7-29.9 18.7-66 3.5-10.4 9.7-27 .8-2.4 0-4c-2.1-4.1-6 2-7.3 3.9a415 415 0 0 0-28.5 58.7q-9.4 23-15.6 47.2-3.4 13.6-4.8 25.4a221 221 0 0 0 2 61q.7 3.7 2.3 10.2.7 2.8 3.4 3.2m1372.7-.5a1.4 1.4 40.4 0 0 2.1-.1c2.5-3.5 3.7-11.3 4.7-17.4 3.5-20.8 4-42.7.4-64q-2.7-15.7-7.3-30.4-8-26-19.2-51.9-9.6-22-20.5-40.2-2-3.4-3.8-5.6a2.2 2.1 55.7 0 0-2.7-.6q-1.5.8-1.8 2.2v.9q.9 4 1.5 5.7 13.4 34.5 21.5 66.4 8.9 35.2 13.3 56.3 7.8 37.8 10.7 76 .2 1.8 1.1 2.7" vector-effect="non-scaling-stroke"/><path stroke="#657290" d="M854.3 1175.3q-.7 13.6-.8 29.2-.1 12.2 2.4 21 5.3 18.7 22.2 30.2c10.2 7 21.3 8.3 34.4 8.5q18.8.3 32.8-2.4c9.2-1.7 13.8-2 24-3.5 15.3-2 31.2-5.7 43.9-13.4q23.8-14.6 29.8-44c2.5-12.3 3.6-25.5 2.3-37.4q0-.5-.3-.8" vector-effect="non-scaling-stroke"/><path stroke="#7786a3" d="M1045 1162.7q.2-.9 0-1.4-1.7-6-4.4-13.4c-2-5.4-4.8-7.6-10.1-10.3a134 134 0 0 0-42-12q-15.4-2.3-72.5-10c-13.5-1.9-26-3.4-39-.4q-7.4 1.8-12.1 6.2-8.8 8.3-10.5 19-2.3 14.9 0 34.9" vector-effect="non-scaling-stroke"/><path stroke="#8593af" d="M1045 1162.7q-.2.3-.6.4-.3 0-.7-.3-4.7-3.1-11.4-5.6-14.8-5.6-26-8.2-17.1-3.8-37.3-6.8l-30.6-4.6-32.6-5.4c-11.1-1.9-22.5-1.3-31 5.3q-4.6 3.6-9.6 12.7-6.4 11.5-10.9 25" vector-effect="non-scaling-stroke"/><path stroke="#657290" d="M635.2 1189.1q.8 16.7 8.4 31a69 69 0 0 0 39.7 32.4q12.4 4.3 23.2 5.7 16.6 2.1 17.1 2l15.3 2.3q17.5 2.6 37.1 2 12-.4 22.1-6.4a56 56 0 0 0 28.1-47.8c.5-10.2.4-16.8-.1-28.8-.2-4.7.6-11.8-.1-17.9" vector-effect="non-scaling-stroke"/><path stroke="#7786a3" d="M826 1163.6c-1-10.5-1-19.3-3.3-27.6-2.3-8.2-7.6-16-15.8-18.9a66 66 0 0 0-30.9-2.4q-30.5 3.9-50.2 6.8c-13.8 2-27.1 3.4-41.3 5.7q-18.8 3-34 10.4c-4.5 2.2-8.7 4.5-10.7 8.7q-5.2 10.7-6 22.4-.5 6 1.4 20.4" vector-effect="non-scaling-stroke"/><path stroke="#8593af" d="m826 1163.6-.6 10a.6.6 0 0 1-1.2.2l-.3-1.2q-2.4-5.8-4.5-12.3-1.7-5.2-5.5-11.7c-5.3-9.2-13.3-16-24.2-17q-9.2-.7-19.3 1.3-27.5 5.7-57.5 9.3a336 336 0 0 0-38.4 6.1q-16 3.9-31.4 12.3-3 1.7-3.7 5-2.1 9.9-4.2 23.5" vector-effect="non-scaling-stroke"/></g><path fill="#131522" d="M1698 0v1536H0V0zM360.7 956.3a424 424 0 0 0 31.8 74.6l7.7 14.1c5.3 9.7 13.5 22.6 18.7 33.6a142 142 0 0 1 11.5 43.7q3.6 26.9 1.7 54-2.2 31.5-8.3 80.7-4.8 38-2.3 73.5.6 8.6 2.2 15.8 1.8 8 3.8 11.3 3.8 6.4 11.7 9.9 19 8.4 43.4 17 35.4 12.7 78.7 23.6 44.2 11.2 67.3 15.7 46 9 98.7 15.9 30.2 4 69 6.3 35.5 2.1 69 .7 45.3-1.8 78.8-6 31-3.7 68.6-9.5 24.4-3.8 49.3-9.4l49-11.2q22.3-5.5 51.4-14.2c16.5-4.9 33.9-11.2 47.3-15.7q4.7-1.6 26.5-10.5 9.3-3.8 12.8-7.3 5.3-5.3 7.1-12.9 3.7-15.6 3.8-34c0-20-.9-41.4-4-64.3-3.3-23.8-6.1-50.7-7.8-76.2q-2.2-34.6 4.4-68.8a142 142 0 0 1 18.5-45.7q19.1-32 34.1-65.8 8.8-19.8 14.2-39.7a.2.2 0 0 1 .4 0q2.4 9.3 4.8 16.3l1.3 5.6q3.1 12.2 11.3 35c4.7 13.3 10.4 29 16 42 4.5 10.4 9 22 14 33q11.5 25.6 25.6 53.5 6.4 12.7 19 35 4 7.3 9 11.9c4.1 4 7.6 5.2 13.3 5q25.2-.8 49-6.7 18.2-4.5 44.2-16 3-1.4 6.5-3.4c5.4-3.3 11.3-6.3 16-9.4q8.7-5.6 23.1-17 8.7-6.9 18.2-16.9 15.4-16.2 17-18.2 17-21.7 30.4-44.8c11.3-19.6 20.2-42.3 19.8-65.4q-.5-24.4-3.9-47.7a456 456 0 0 0-14.5-69.8q-7-21.8-13-36.4-16.1-39.7-40.5-79.7-4.2-7-13.8-21.3-3.8-5.7-6-9.6-5-8.9-5.5-10.1a57 57 0 0 1-2.2-30q3.6-20.6 6-43.8c4.4-42 4-86-5-126.4q-5-22.5-9-34.4-11-32.7-28.4-63.4-31.2-54.8-79.5-92.2-30.8-23.8-70.5-38.1-10.5-3.8-27.7-8.5-14.2-3.9-28.4-6.2a12 12-25.6 0 1-3.8-1.3q-25.8-14.5-59-33.9-46-26.9-94-50-29-14-68-31.6-9-4-19.4-10.1a70 70 0 0 1-31.5-35.6c-5-14-4.8-29-4.7-44.7q0-4-2.2-9c-2.3-5-7-8-12.5-8.9H659.8c-6.3 0-11.9 4.8-14.2 10.3q-1.6 3.7-1.3 12.6c.3 9.2-.1 18.2-2 28.8-2 11.6-6.6 22-13.7 29.8q-8.4 9.3-19.7 16.3-11.1 7-18.6 10.2-24.6 10.7-58 26.3-6.8 3.2-34 16.7-25 12.4-61.8 33.4l-68 39.2a12.8 12.6 24.6 0 1-4 1.4 335 335 0 0 0-43.3 10.6q-19.3 6.2-28.4 10-12.3 5.1-29.9 15-14.2 8.2-26.4 17.8a313 313 0 0 0-69.7 77 340 340 0 0 0-40.9 89.6q-13.7 48.3-13.4 99c.1 31.8 3.7 63.2 9.2 94.8a51 51 0 0 1-2.3 28.8q-5.6 11-13.8 23.2-6 8.8-18.2 29.3c-5.4 8.9-11.8 21.8-15.3 28.2q-3 5.7-7.5 15.3-6.7 14.4-7 15.4-10.5 24.2-17.9 48.5-5.8 19.2-9.8 42-4 23-6.2 42.8-1.3 11.4-1.7 30c-.3 15.6 3 30.5 8.9 43.6q12 26.7 32.1 54.8 5.6 7.8 11.8 14.7c10.2 11.2 18.5 20.7 27.4 28.3q3.2 2.7 22.3 16.9 6.2 4.6 13 8.7 9.8 5.8 13.6 7.6 9 4.3 27.1 10.8 18.9 6.8 38.2 9.8 10.8 1.7 25.9 3 8.9.8 15-3.2 5.3-3.3 10-11l6-10.6c5.2-10 9.8-17.6 15.2-28.5q18.5-36.7 29.7-63c6.1-14.5 12.7-29 18-44 4.8-13 9.6-25.2 13.7-38.7q6-19.7 10.3-37.5a.3.3 0 0 1 .5 0"/><g fill="#737f9c"><path d="M1034.1 177q5.2 4.3 11.4 11.8 7 8.5 19.7 15.8a155 155 0 0 0 15.7 8q18 7.7 37.4 16.9 26.9 12.8 41.8 20.4 11.9 6 44.5 25 9 5.3 19.1 12.2a7 7-85 0 1 2.3 2.8l2.5 5.4q-11.7 3.8-23.3 7.9c-9.2 3.3-17.6 5.7-27.6 9.2-11.7 4-25.3 8.1-38.4 10-21.8 3.3-50 8-77.2 12.8q-35.8 6.3-50.1 8.6l-9.5 1.5Q976 349.7 948 356a.5.5 0 0 1-.5-.6q5.9-20.4 12.8-47.7c3.5-14 8.1-29.6 11-42.8q3.5-16.7 4.2-21.6.3-1.7.3-3a.5.5 0 0 0-1-.3q-2.3 3-4.2 7-4.7 9.4-8.4 19-7.2 19.4-17.5 45.1-4.9 12.4-10.4 23.4-7.1 14.4-11.6 22.8c-2 4-4 7.4-8 9.4-18.1 8.8-34.8 20-48.1 34.5l-.7.5a.5.5 0 0 1-.5-.6q1-3.3 2.4-6 2-4.1 7-16 2.6-5.8 5.3-16.1c4.7-17.5 11.9-38.6 15.4-50.9q6.9-23.8 8.8-29.3 1.6-4.7 4-14c5.8-22.3 12.8-45 15.8-58.4l7.4-33 33.1-95.5 41.5-.7a1 1-.8 0 1 .8.7q.2 17.6.9 38.8c.4 13.6 1.7 27.4 3.9 40.3q2 12 4 21.5 3 13.5 7.6 28.5 5.8 18.6 17 36 7.3 11.6 17.7 26.3a.4.4 0 0 0 .7-.1q.1-1-.4-2.3-2.4-6-11.6-30.9-3.2-8.6-5.4-18.6-4.8-21.8-7.2-44.2M715 81.7l33 94.6q4.8 22.5 10.8 44.7 8.9 33.4 17.5 61.4 5.4 18 9.4 32.5 4.2 15.4 6.4 21.7 2.7 7.6 6.6 21.5 4 14.3 15 40.5.3.5 1 3a.3.3 0 0 1-.5.2q-13.4-14.3-30.3-25.1c-6.3-4-13.2-7-21-11.1a6.6 6.4 86 0 1-2.4-2.1q-2.3-3.4-4.2-7.3L742 326c-5-10.6-8.1-19.3-13.5-32.7q-6-14.7-13.7-36.6a36 36 0 0 0-10.1-16.6.6.6 0 0 0-1 .6l2.7 12.3c2.5 12.4 6 24.9 9.2 36.7q2 7.6 6 24.6 5 20.6 11.5 40.9a.3.3-87.1 0 1-.4.4q-2.2-1-4.8-1.5-36.7-7-63.2-11.4c-40.2-6.6-52.3-8.8-98.1-16.4l-16-2.6q-22-3.3-41.6-9.5a1202 1202 0 0 1-47.4-16q-6.5-2.4-12.7-4.3 10-9.6 16.7-13.3 5.9-3.2 15-8.7 22.9-13.6 48.2-26.3 11.3-5.6 50.8-24 3.1-1.6 5.8-2.5c5.1-1.8 9.5-4.5 14.4-6.5q10.4-4.2 21.6-11.9 6.6-4.5 11.3-9.8l5-5.4 8.2-8.6q-1.9 18.7-3.4 27-2.4 13.1-5.7 26.2-.8 3-2.2 6.8l-13 33.9q-.3.6-.2 1.3a.4.4 0 0 0 .8.2l10.2-14.1c5.4-7.5 10.5-16 14.4-23q4.6-8.4 8.1-18.7 14-41.7 16.9-85.1 1.6-24.8 2-49.7a.4.4 0 0 1 .4-.4zM150.2 684.3q.2.1.2.4a.4.4 0 0 0 .7.2l.1-.2.1-.3q-1-9.9-.8-19.1.6-24.4 2.2-45 .7-9.5 2.2-20 3-26 9.6-50.5 2-7.3 4.4-14c2-5.2 4-12.1 6.5-18.4q9-22.5 21.8-44 15.8-26 34.9-49.3a219 219 0 0 1 15.8-16.5q19.8-18.4 31.7-27.5 9.8-7.7 29-19.1 5.6-3.4 21.3-11.3c25.7-13.2 50.8-19.3 79.2-26.8 6.2-1.6 13-2 19.2-3.4q2.6.3 5.1 1l23.8 6.8q9.6 2.8 17.2 5.6 14.2 5.2 16.9 6 4.2 1.4 8.4 4a.7.7 46 0 1 0 1.1 191 191 0 0 0-37.2 27 587 587 0 0 0-53.9 53.4q-29.3 34.3-50.7 70.5-9.8 16.7-21.7 42.5-10.8 23.4-21 47.5c-2.9 7-7.2 15.6-9.8 21q-6 12-10.8 18.7a145 145 0 0 1-29.9 33.8c-19.4 15-39.5 30.2-59 46.4q-10 8.3-18.8 17.5l-24.2 25.4a.8.8 0 0 1-1.3-.4q-7.4-31-11.2-63m236.7-308.7q-.2-2.2-.6-3a2 2 70.8 0 0-1.7-.8q-11.8 1.5-23.3 4.5a205 205 0 0 0-74.2 36.6A152 152 0 0 0 245 466a202 202 0 0 0-19.5 59c-.4 3-1.2 7.3.5 8.6a2.6 2.6-48.2 0 0 3.4-.2q1.5-1.4 2.6-3.6 7.3-14.3 14.4-26.2 10-16.7 15.7-25.3 20.4-30.3 47.2-53 15.4-12.9 34.8-25.4a402 402 0 0 1 39.8-21.5q1.4-.7 2.7-2zm863.4-55.8q-.5.8.7 1 .7.1 1.6 0 5.2-.8 6.7-.5 9.8 2.4 15 3.4c3.4.6 6.4 1.9 9.7 3q1.6.6 14.9 3.8c9.2 2.3 19 5.8 25.3 8q18.1 6.7 27.6 11.7 10.4 5.4 19.2 10.4 15.4 8.7 31.8 21.1 12.2 9.2 31 27.3c5 4.7 9.3 10 14.5 15.3q2.3 2.3 5.4 6.4c5.2 6.7 10 12.5 14.8 19.8 4.6 7 12 17.8 17.2 27q13.3 23.3 21.7 47.1c3 8.7 6 15.9 8 23.2q8.7 31.7 11.5 62.4.8 9.3 1.3 20 .3 6 .4 20 .2 17.8 1 35.9-2 20-4.5 31-3.4 14.6-6.3 30a.4.4 0 0 1-.7.2 552 552 0 0 0-38.7-38.7q-7.2-6.4-20.3-16.6l-41.2-31.9q-8.6-6.5-11.6-9.5c-8.2-8.4-12.6-15-20.7-26.5q-6.2-8.8-9.7-15.7a575 575 0 0 1-16.7-37.4q-10.1-24.5-22.8-50.4-10.5-21.6-21.7-38.8-25-38.6-56-72-1.5-1.7-13.1-13.4-7.5-7.4-31.2-28.3-16.3-14.3-35.4-24.6a.4.4 0 0 1 0-.7c8-4 17-6.4 25.3-9.5 14.9-5.6 30.6-9.5 46-13.5M1453.9 534q1.4-1.4.8-5a210 210 0 0 0-7.4-33.2c-10-30.3-28.1-61.4-53-81.7a211 211 0 0 0-98.5-43 2 2 14.1 0 0-1.8 1q-.9 2.5-.6 3.9l.5.9q1.7 1.5 3.8 2.4 38.4 17.2 71.8 45c21 17.6 40 40.1 55 64.8q10.6 17.3 19.6 34.6 3.5 6.7 5.6 9.9.7 1 3.3.8a1 1 19.1 0 0 1-.4M154 1136.8c-7.6-4.3-15-9.2-20.8-13.2a93 93 0 0 1-13.2-12.3q-5.4-6-7.4-15-2.1-9-3-14.9l-4-29.6-1.4-25.5c-1.2-21.4.8-43 3.5-62.6q6.2-45.7 18.6-91.6 5.8-21 8.7-28.6 5.4-14.4 7.7-21.1a216 216 0 0 1 23.5-48.5q3.7-5.3 14-18 5.1-6.4 18.4-17.5c5.6 1.2 10.8-4 16-5.4q9.9-2.6 13.7-3.2a52 52 0 0 1 40.6 14.3q13.8 12.9 18.8 30a128 128 0 0 1 2.8 50.1q-2.4 21.3-4 30.5-2.1 12.1-6.4 30c-5.6 23.1-9.8 44.4-16.1 64.8q-8 25.6-10.9 33.9-8.4 24.2-18.4 47.3-4.8 11-15 31-9.7 19-26.8 40.7-9 11.2-18.7 19.7-2.8 2.5-10 7.5-5.2 3.5-10.2 7.2m-.7-119.3a1 1-80 0 0 1.2-.9q.5-2.4.7-5.1c1-15.3 3.2-28.5 5.8-45.2 3.3-21.1 8.6-44.4 12.4-61.4q6.7-29.9 18.7-66 3.5-10.4 9.7-27 .8-2.4 0-4c-2.1-4.1-6 2-7.3 3.9a415 415 0 0 0-28.5 58.7q-9.4 23-15.6 47.2-3.4 13.6-4.8 25.4a221 221 0 0 0 2 61q.7 3.7 2.3 10.2.7 2.8 3.4 3.2M1485 740.8q15 13.3 27 30.9 9.5 13.5 17.1 30.2 3.6 7.9 11.5 28.8 6.3 16.8 9.5 27.5 15.8 53.5 22.9 107.8l1.7 16.3 1.6 16.5c1.2 15.4.4 30.2-.8 46q-1.9 24-5.7 44c-1.5 7.7-3.5 17.1-9.6 22.7-4.2 4-9 9.3-14.4 13q-9.6 6.5-19.7 12.5c-4.1-3.1-7.9-6.6-12-9.3q-12.8-8.3-22.8-20.5a263 263 0 0 1-31.3-46.1q-16.5-32.2-29.3-67.3-4.8-13.2-7.8-23.7-13.2-44.8-15.5-55.2l-4.6-20-4.7-18.5a361 361 0 0 1-9.1-67.2c-1-17 .1-32.7 8.3-48 9.9-18.5 30.6-33.5 52.4-31.6q6.4.5 12.3 2 2.7.6 9 3.7 6.7 3.3 14 5.5m41 276.2a1.4 1.4 40.4 0 0 2.1-.1c2.5-3.5 3.7-11.3 4.7-17.4 3.5-20.8 4-42.7.4-64q-2.7-15.7-7.3-30.4-8-26-19.2-51.9-9.6-22-20.5-40.2-2-3.4-3.8-5.6a2.2 2.1 55.7 0 0-2.7-.6q-1.5.8-1.8 2.2v.9q.9 4 1.5 5.7 13.4 34.5 21.5 66.4 8.9 35.2 13.3 56.3 7.8 37.8 10.7 76 .2 1.8 1.1 2.7"/><path d="m1542.2 778 7.3 10.8q4.2 6 7 10.8 18.1 30.4 31.8 63.3 5.9 14 9.8 26.7 6.2 19.9 14.5 52c2.8 10.7 5 26.1 6.5 34 2.6 13.6 3.8 28.5 4.8 43.4q.1 1.6.8 3.4-5 11.9-11.3 23a311 311 0 0 1-28 41.5.3.3-21.8 0 1-.6-.3c1.4-11.9 1.8-15.9 3.5-26.8q2.6-16.5 3-36 .3-22.5-1-39.5-3.5-47.9-9.9-78.5-8.3-40.2-18-70.2-8.4-26-19.4-51.6-1.4-3.4-.8-6m-1404.1.2q1.1 2.8.3 4.4-4.8 10.2-5.7 12.5a536 536 0 0 0-21.8 64.7q-14.5 55.7-19.4 106.7-3 32-2.2 57 .7 20.7 5 53 .5 3.5 1 9.8l-.2.2q-9-10.6-11.3-14.3l-15.2-24.5q-6.1-10-10.6-20.6c-.6-5.9-1.7-11.4-1.4-17.1.8-13.5 3.5-29 6.2-44.6q1.8-9.6 3.4-17Q71.4 925 78 902q10-34.8 25.8-65.5 4-8 15.1-28.6 7.3-13.5 19.1-29.6m621.2 151.4a299 299 0 0 0-55.5 13.6c-12 4.3-22.7 7.6-32.5 12a247 247 0 0 0-43.7 24.2q-3.9 2.8-10.4 6.2c-6.5 3.4-11.5 5.9-17.5 3.6q-3.7-1.4-8.4-4.6-6.5-4.5-10.5-8.7a306 306 0 0 1-31.8-38.7c-3.2-4.8-7.5-11-11.5-17.8q13.8-5.8 30.4-9.2l42.2-8.7c13.1-2.7 26-7 38.9-10.8q16-4.6 31.3-10.6c18-7 30.3-11.9 48.4-19.9q20.7-9.1 26.3-11l12-4.3q14-5 23.9-6.7c8.4-1.5 20.6.2 27.4 6.2 11 9.6 10.5 24.4 5.7 37.5q-4.8 13.1-12.2 21.2-3.2 3.6-7.3 7.4-3.4 3.2-8.5 6-17.5 9.2-36.7 13.1m384-10.3-11.3 17q-7.2 10.9-12 16.6-8.5 10.3-16.7 19.4-6.5 7-15.1 13.1c-4.4 3.3-10.7 5.9-16 4q-7.1-2.4-13.5-6.6c-9.4-5.8-18.4-12.5-28-17.4-13.8-7-26.3-12.9-40.3-17.3l-14.3-5a263 263 0 0 0-49.5-12.4q-1.4-.2-4.5.2-16.3-4.5-32-11.6-9.8-4.5-14.9-8.6a63 63 0 0 1-19.2-28.1c-5.1-15-3.8-36.8 14.3-42.4 11.4-3.5 21.7-2 33 1q12.8 3.5 22.3 7.3c10.3 4 18.9 7.3 29.3 11.7q33.7 14.6 59.8 24.1 14.1 5.2 38.7 12.2c18.9 5.4 46.5 10.4 64.3 14.8q9.3 2.2 25.6 8"/><path d="M527 921.1q4.2 14.8 11.7 27.7 10.9 18.8 23.8 34.1 11.1 13.2 25.1 21.7c7.2 4.3 16 6.3 24.5 4q2.1-.6 9.4-3.4-1.6 3-3.4 5.8-10 15.3-7.6 33 1 6.9 2.3 13.2a.3.3 0 0 0 .5 0q4.3-19.6 17.4-34.2 22.7-25.3 52.8-39.2 4-1.9 11.8-4.7c9.9-3.5 20-7.7 30-10.5q19.1-5.3 40-8.6a61 61 0 0 1 43 10.1c9.3 7 14.3 16.1 16.3 27.1q.2.8.8.9l.4-.3.3-1.5q.2 4.6 0 20.7 0 14-2.3 27-1.9 10.9-7.3 21.6c-2.5 5-4.2 8-8.4 10.7-6.7 4.2-9.7 6.7-15.5 7.6-2.8.4-5.5.7-8.8 1.7q-12.2 3.7-19.3 5-33.7 5.8-70.2 10.1-24.1 2.8-44.9-5a65 65 0 0 1-36.3-36.2.3.3 0 0 0-.6 0q-1.9 6.4-3.4 12.8-2 8.3-2.5 19.6a.3.3 0 0 1-.5 0l-.2-.4-5.4-48.1a.3.3 0 0 0-.5 0q-1 3.8-1.4 7.7-2.5 36.5-2 69.9.1 6.1 1.3 28.5 2.9 54.1 10.3 99.4 3 18.7 5.2 26.8 5.6 21.2 11.8 41.6c3 9.7 6.7 20.2 9.6 28a.4.4 0 0 0 .8-.2q-.1-6.5-.9-13.3-.2-2.2-1.9-11.5-1-5.7-1.4-11.5l.1-1.7a.4.4 41 0 1 .8 0q5 23.5 13.4 45.7l2.7 8c1 3.3 2.6 7 3.5 10.5q2 7.3 5.8 17.8 1.9 5.3 3.4 7.3l.8.2c4.8-1.6 7.3.7 9.5 4.8q-11.7-2.5-34.4-6.6-43.2-7.9-87.5-20.7-2.7-5.7-7.1-10.4a9.7 9.5 7.6 0 1-1.2-1.5c-5-7.8-8.8-13-12.4-20.5l-9.3-19.4q-6-12.4-10.3-31.2-3.7-15.8-5-26.9c-1.7-15.6-1.3-39.7-2-52q-.7-14.1-2-24.3-1.5-11.5-5.8-23.4c-1-2.8-2.7-5.5-4-7.9a.4.4 60.8 0 1 .1-.6h.5q7.4 8.3 15 16.5c8.7 9.5 17.7 17.5 25.8 25.9a137 137 0 0 0 23 17.8.8.8 0 0 0 1.2-1q-.4-.9-1.2-1.8-35.8-40-67.9-85.8-4.3-6.3-6.5-10.5-1-9.5-3.1-18.5l-2.7-11.2q-4.3-20.9-5.3-40.2-.4-8.2-1-30.7 0-2.6 1.7-6.2c12.4 16.1 20.9 27 33.8 39.9q17.8 17.8 38.3 30.7l1.7.8a.5.5 0 0 0 .6-.7q-1.1-2.3-3.7-4.7-8-8-12.9-14.1a344 344 0 0 0-11.1-13.6q-18.5-21-32.1-42-4.2-6.3-10-17c3-10.7 5-18.5 10.4-27.1q14-23.1 37-37.3 1.5-.9 2.6-1.9zm678.4 69.6q-7 12-9.1 15.3-7.8 12.1-18.8 26.2-20 25.7-40.8 47-.7.7-1.4 2a.4.4 0 0 0 .5.5q2.8-.8 6.3-2.9 1.8-1 14.4-10.6c12.8-9.7 24-21.2 34.5-33.3 6.4-7.4 13.3-16.8 19.9-25.3l.4 8q1 22.4-1.5 44.6-.8 6.5-3.1 16.2-4.7 19.4-7.7 40.3-.9 3-5.2 8.9-10.2 14.2-20.6 28.2-9.7 13.2-18.9 24.1l-19.6 23.5q-3 3.7-9 10.3l-.7 1.1a.7.7 0 0 0 1 .9q11.3-7.4 22.5-17.5 21-19.1 39.5-40.7.3-.2.5-.1a.4.4-66.7 0 1 .3.6q-6.3 10.8-7.8 24.5c-1.7 15.7-3.2 24.8-3.3 36q-.2 27.2-1 37.7-2 25.7-11.2 55c-3.1 9.8-8.7 18.9-13 27.2q-3.1 6.1-7.5 13l-15 23q-29.5 8.3-60.6 15.3c-20 4.4-44.5 8.7-66.8 13.2 4.5-8.6 8.6-13.8 15.7-23.2 3.4-4.6 7.4-8.3 10-12.2l.5-.8 9.3-27.2c4.2-12.7 6.3-23.8 9.3-35.5a.5.5 0 0 1 1 0l.3 1.5-3 28.5q-.5 5.2-1.8 12.2v.5l.2.3h.3q3.7-8.2 6.3-16 4.8-13.8 14.2-47.3 3.5-12.3 5.3-23.7 11.4-69.5 13.3-140.7.6-22.1-2.3-60.7c-.2-3.7-1-7.9-1.9-11.8a.3.3 0 0 0-.5 0l-1.6 11.3-6.3-11.9q.5-12.3-3-25-.7-2.5-2.6-6.9-1.5-3.3-2.7-6.9l5.6 1.5a32 32 0 0 0 24.5-4q12.9-7.7 23.2-19.7 16-18.6 28-40 5.7-10.2 9.1-22l7.6 4.5q21 12.7 33.8 33.7 5.2 8.6 7.9 18.4z"/><path d="M1066.9 1060q-3.7 7.3-9 14.5-15.5 21.4-41.8 25.4a151 151 0 0 1-46.7-1.3c-26.2-3.9-46.5-6.6-69.5-12.9q-4.6-1.2-7.4-1.3c-4.4-.2-8.9-.1-13-2.5q-1.3-.7-7.7-5.2c-5.5-3.8-6.5-7.4-9.5-14.5q-6.5-14.8-7.5-32.5-1-18.1-.3-32.9 1.5-2.8 2.5-5.7 1.6-4.9 2.1-5.9 6-11 16.5-17.5 8.3-5.2 23.1-6.9 18-2 36.2 2.6 17.5 4.4 23.6 6.4 7.5 2.4 21.3 7.4 13 4.8 20.8 8.7 28.5 14.3 50.4 38.4 9.4 10.3 13.7 24.5 1.7 5.6 2.2 11.2m-21.9 102.7q.3.3.3.8c1.3 12 .2 25.1-2.3 37.3q-6 29.5-29.8 44a116 116 0 0 1-43.8 13.5c-10.3 1.5-15 1.8-24.1 3.5q-14 2.7-32.8 2.4c-13.1-.2-24.2-1.5-34.4-8.5q-16.9-11.5-22.2-30.2-2.5-8.8-2.4-21 .1-15.6.8-29.2 4.5-13.6 10.9-25 5-9.2 9.7-12.8c8.4-6.6 19.8-7.2 31-5.3q29 5 32.5 5.4l30.6 4.6q20.2 3 37.2 6.8 11.3 2.6 26.1 8.2 6.7 2.5 11.4 5.6.4.3.7.3.4 0 .6-.4m-219 .9c.7 6-.1 13.2 0 17.9.6 12 .7 18.6.3 28.8a56 56 0 0 1-28.2 47.8q-10 6-22 6.4-19.7.6-37.2-2l-15.3-2.2-17-2.1q-10.9-1.4-23.3-5.7a69 69 0 0 1-39.7-32.3q-7.6-14.4-8.4-31 2.1-13.7 4.2-23.6.7-3.3 3.7-5 15.4-8.4 31.4-12.3a336 336 0 0 1 38.4-6.1q30-3.6 57.5-9.3 10-2 19.3-1.3c10.9 1 18.9 7.8 24.2 17q3.8 6.5 5.5 11.7 2 6.5 4.5 12.3l.3 1.2a.6.6 0 0 0 1.2-.1zm-111 117.3q-8.1.1-16.2-1.4l-14.6-2.7a.3.3 0 0 0-.2.5l4.7 3c17 8.7 33 15.4 50.8 18.8q11.3 2 32.6 5.3 13 2 23 10.1c7.3 6 11.5 14 14.8 22.6 4 10.4 7.2 24.4 10.2 34.4q4 13.2 5.8 23.4l.5.5h.2l.4-.3.1-.4 3 22.6a996 996 0 0 1-111.9-8.5q-14.4-1.8-27.8-4.2L681 1385q-6-12.5-8.7-20-5.6-15.8-9.1-31.6-5.2-22.6-4.1-45.4.2-6 1.4-12.5c.5-3.4 1-7.2 5.2-7.1 10.1.2 19.1 2.5 30.2 5.6q4.3 1.2 19 6.9m262.4 125.9q-23 3.2-45.3 5.4-30.7 2.9-50.8 4.2-13.7.8-32.4 1 .3-12 1.9-21.8 3-3.8 3.4-9.4a4.9 4.8 56.9 0 1 .2-1.1q6.2-18.6 13.7-42.6 2.4-7.7 8.5-17.7c5-8.1 12.7-14.5 21.1-17.5q10-3.4 26-6l17-2.7q24.6-5 49-18.8 3.3-2 4.3-2.8a.4.4 0 0 0 0-.6q-.3-.2-.9-.1-6.1.8-12.2.6l13.8-5q3.7-1.5 13.4-3c4.5-.6 7.5-1.1 9.8 2.8 1.5 2.5 2.3 7.2 2.4 10q.8 20-1.7 34.3-3.2 17.9-10.8 39.9-2.6 7.4-5.6 13.4c-4 8.3-9.7 16.5-14 24q-3 5.2-10.8 13.5"/></g><g fill="#c04d66"><path d="M825.1 536q1.2 2.4.8 6.5-.8 7.5-1 19.5 0 .7-.8.4-4.4-5.7-8.1-9.1-8.9-8.1-20.5-15.7-27.3-17.9-57.5-26.4-13.7-3.8-24.8-4.8h-2.6a.2.2-38.1 0 0 0 .5l6.6 1.9q15 4.1 30.6 12l14.3 7.7q15 8.5 34 25a122 122 0 0 1 18.8 22.3q3.4 5 5.7 11.2 3.4 9.9 4 17.1 1.4 15.5.5 38.6-4.6-2.4-8.8-4.9-4.9-2.8-8.8-4.7-17.1-8.3-23.3-11-38.7-16.2-82-24.2-23.2-4.3-50.2-7.7-62.4-7.8-122-3-28.8 2.4-44.5 4.8-24 3.8-37.7 6.3-7.6 1.4-13.5 3-21.2 6-37 11.4l-2 .6a.5.5 0 0 0 .1 1q2.8.2 5.3 0c39-5.7 56.5-8.5 76.2-10.8 17.2-2 31.8-3.2 47.4-3.5 38.8-.8 75-.2 110.5 3.6q24.1 2.7 52.8 7.4 30.5 5 57.3 13.1a323 323 0 0 1 61.4 27.2q5.6 3 10.7 6.9 2.7 2 2.4 4.6c-.3 2.7-2.6 7.2-5 9.4-5.2 5.4-12 9-17.4 12.9q-7 5.1-17 9.4-19.4 8.4-22.8 9.7-15.6 6-33.7 10-25.7 5.7-54 8.8-1.4.2-2.7.6a.7.7 0 0 0 0 1.4q2.3.9 5 1.1c5.9.5 10.8 1 16.6 1 29.1.1 57.5-5.2 85.4-14.1q12.7-4 24.9-9.4 13-5.7 24-11.4a.6.6 0 0 1 .9.5l-.2 7.6-.6 4.2q-1.7 5-4.2 7.3c-2.9 2.7-5.5 5.6-8.3 7.7l-13 10.3q-7.7 6.5-13 10Q766.8 751 756 756q-25.9 12-54.4 20-46.9 13.3-95.9 14.8-14.3.5-21.6.2-7.8-.2-21.7-1.6-45.5-4.7-85.7-25.3-14.6-7.5-25.4-14.6-15.3-10.1-32.6-25.4-8.4-7.4-15.9-15.7-11.5-12.8-14.8-17-4-5.3-13.2-19a3.9 3.5 5.9 0 0-.6-.6q-1.8-1.6-1-2.2l48.4 20.6q14 6.1 28.3 11.5 28.2 10.5 57.1 17.2c10.8 2.5 22 4 32.9 5.8q7.5 1 25.8 1.6 5.7.1 9.4-.4 1.5-.3 2.1-1.2a.8.8-69.6 0 0-.5-1.3q-31.7-4.7-63-13.3c-15.8-4.3-26.2-8.3-44.4-15q-24.6-9.1-47.5-21.4-20.7-11.1-46.7-31.4-5.3-4.2-8.8-9-1.6-2-1.3-4.3c1-8.7 4.4-17 9.3-24.4q6.8-10.1 14.3-19.3 7.7-9.4 21.4-22.5 3.3-3.2 14.7-12.4 7.1-5.8 14.7-12.3c2.7-2.4 6-4.4 8.9-7q3.5-3.1 6.4-5.3 15.3-11.1 21.5-15.3 35.2-23.4 74.4-37.6c14-5 31.4-9.6 47.1-14l11.7-2.5a.4.4 80.4 0 0 .3-.5.4.4 0 0 0-.4-.4l-10.1.6q-8.4.4-18.7 2.4-34 6.7-66.4 17.7-19.5 6.6-33.6 12-40 15.5-76.2 39.3-11.7 7.7-28.1 19.8c-1 .7-1.9 1.8-3 2.4a.4.4 0 0 1-.6-.5q4.2-15.4 9.5-31.4 4.8-14.5 12.6-29.9l18-35q5-7.3 6.7-9.5 10.7-13.2 21.6-25.2 4.3-2.5 8.3-5.2 6-4.2 8-5.4 25.4-15 53.2-23.8c14.3-4.4 25.5-7.2 39.6-6.8q12.3.2 22 1.7c11.4 1.8 23.8 4.2 34.6 6.7 27.1 6.5 57.2 11.8 81.3 16q23.2 4 33 7.3a158 158 0 0 1 71.2 46.4q13.9 16.7 20.8 36t12 44.9m-386.8-53.7q4.2-1 9.4-4c6.6-3.5 14.5-9.3 21.6-13.1 19.4-10.3 37.7-20.2 57-26.4q10-3.3 33.1-9c19.6-4.8 37.9-7 59.6-9.9q5.5-.7 25.9-5.3 1.2-.3 1.7-.7a1 1 0 0 0-.1-1.7q-3.5-1.6-7.2-2-11.5-1.2-22.5-1.1-38.7.4-77 11-25.2 6.9-44.8 17.2-21.4 11.2-40 26.5a119 119 0 0 0-17.1 17.8.4.4 0 0 0 .4.7M652 506.5q2.3 1.4 4.9 2 28.4 7.3 33.6 8.9 14.9 4.5 22 7.5c10.4 4.3 17 6.7 24.2 10.3q16.4 8.3 29 16.7 12.3 8.2 17 12.6c5.5 5.3 11 11.3 12.8 12a1 1 0 0 0 1.3-1.1c-1.3-13-15.5-26.4-26-33.2q-13.6-9-30.3-17.2a190 190 0 0 0-80.8-20.9q-4.3 0-7.5.8a1 1 0 0 0-.2 1.6m585.2-89.9q12.7 13.2 24.6 28.6 1 2.5 3 5.8 8.8 14.7 18.8 34c10 19.3 17.6 41 23.3 61.3q.6 2.2.4 4.5a.4.4 0 0 1-.6.3q-33.6-29.2-74.6-48.5-32.7-15.3-67.1-27.2-16.2-5.6-36.5-10.4a314 314 0 0 0-55-9.2q-.7 0-1 .4l.3.6c22 5.6 43.3 11 64 18.7 32 11.7 61.7 29.7 88.8 50.2q5.5 4.1 32.7 27.3 14.9 12.6 24 22.6 12.3 13.3 20.9 25.4 6.7 9.5 8.7 15.1c1.3 3.5 4.2 12.7 2.2 16.2q-2.3 4-6.6 7.6-38 31.6-83.7 50.1a499 499 0 0 1-63.4 21.9q-28.9 7.4-57.3 11.7a.7.7 0 0 0-.6 1q.5 1.3 2.2 1.4 13.2 1 27-.5 32-3.5 59.5-11.3 28.1-7.9 35.5-10.7l19.6-7.4q7-2.5 13.5-6.3 5-2.2 15-5.8 12.8-4.7 28.3-12.6l4.4-1.8q0 1.5-1.4 3l-2 2.5q-8.6 12.8-13.1 17.9c-4.5 5-9.3 11-13.6 15.4q-23.8 25.1-53.1 43.9a247 247 0 0 1-141.8 38.7q-30-1-54-4.4Q989 781 949.8 767a227 227 0 0 1-69.6-39.2q-8-6.8-13.3-10.9-3.2-2.4-4.6-4.4-2-2.8-4.8-5.4l-1.6-12.7V692a.6.6 0 0 1 .9-.5q13 6.8 27.2 12.9 15.8 6.8 40.5 13.7c7.6 2.2 12.5 3 21.5 4.8q20.4 4 45 4c7.6 0 16.6-.7 23-2.2a.7.7 0 0 0 .3-1.3q-.4-.3-1.3-.4-29.4-3.5-51.5-8-24-4.8-43.4-13l-16-6.8c-11.5-5-19.1-9.6-28.2-16-5.7-4.1-10.3-7.3-12.7-13q-1.7-3.8.8-6.4 2.9-3 4.1-3.8 19.6-11.4 30.5-16.7 19.8-9.7 42.2-16.3 22.7-6.7 57.7-12.5 40.7-6.8 78.5-9.4 37.3-2.5 84.9-1.5 16.3.3 33 2.5 43.7 5.8 85.7 12c2.7.4 5.1 1 7.8.6a.5.5 0 0 0 .2-1q-4.7-2.2-11.4-4-7.2-1.8-11-3-13.5-4.2-19-5.5-8.6-2-31.4-6.3a669 669 0 0 0-61.5-7.5q-33.2-2.7-68.3-1.7-27.3.8-47.2 3.3c-31.4 4-62.2 8.7-91.4 16.3q-16.8 4.4-39 12.5-6.8 2.4-16.7 7-11.1 5-16.4 7.7-8.5 4.3-18.9 10.8-.5-15.6 0-29.5.2-3.4 1.2-10.6l1.2-7.6q1.5-9.3 6.4-17 6.8-10.8 15.7-20.3 4.7-5 10.3-9.5a225 225 0 0 1 79-42l.3-.4-.2-.3-.2-.1q-29.5 3.8-52.5 14.3-16 7.2-33.8 18.8-4.3 2.8-9.3 7a83 83 0 0 0-16.8 17.3.4.4 0 0 1-.7-.2l-.8-26.8.9.4a1 1 9 0 0 .7-.6q4.8-22.5 6.3-28.2a128 128 0 0 1 38-65.5q26-22.8 58.6-33.4 11.1-3.6 37.6-8.6a1340 1340 0 0 0 58.9-12.2q29.5-7 58.1-10.3 12-1.4 23.4-1 9.1.5 23 4.2 20.7 5.5 34.1 11.9 21.7 10.1 25.8 12.7zm6.2 66.6q-8.1-11.1-18.6-19.7-34.3-28-76.2-41-40-12.5-81.3-13.5c-11.5-.3-23.4-.1-33.7 3.1a1.4 1.4 0 0 0-.8 2l.5.3q2.8 1 7.5 1.8 19.1 3.4 43.2 6.8 19.7 2.8 30.4 5.4c22.7 5.5 38.6 9.3 56.6 17.1q28.7 12.4 58 31.1 7 4.5 14 7.2a.4.4 0 0 0 .4-.6m-214.8 21.6a52 52 0 0 0-16.8-.2q-22.6 2.1-40.7 7.7-32.2 10-61 29.5-12.7 8.7-20.6 18.7c-2.9 3.5-6.5 9.4-6.2 14.1a1.3 1.3 65.5 0 0 2.1.8q12.7-13.3 27.6-23 20.6-13.2 37.8-20.6 23-9.8 39.3-14.2l30.9-8.4q3.9-1.1 7.6-3.4a.6.6 0 0 0 0-1"/></g><g fill="#323652"><path d="M360.7 956.3a.3.3 0 0 0-.5 0Q356 974 350 993.8c-4.1 13.5-9 25.6-13.6 38.7-5.4 15-12 29.5-18.1 44q-11.2 26.3-29.7 63c-5.4 11-10 18.5-15.2 28.5l-6 10.6q-4.7 7.7-10 11-6.1 4-15 3.2-15-1.3-25.9-3-19.3-3-38.2-9.8-18-6.5-27.1-10.8-3.8-1.8-13.6-7.6-6.8-4.1-13-8.7-19.1-14.2-22.3-17c-8.9-7.5-17.2-17-27.4-28.2q-6.2-6.9-11.8-14.7-20-28.1-32.1-54.8c-6-13.1-9.2-28-8.9-43.7q.4-18.5 1.6-30 2.2-19.7 6.3-42.7 4-22.8 9.8-42 7.4-24.3 17.8-48.5l7.1-15.4q4.4-9.6 7.5-15.3c3.5-6.4 10-19.3 15.3-28.2q12.2-20.5 18.2-29.3 8.2-12.2 13.8-23.2c4-8 3.8-20 2.3-28.8-5.5-31.6-9-63-9.2-94.9q-.3-50.6 13.4-99a340 340 0 0 1 40.9-89.4q28.5-44.5 69.7-77 12.2-9.7 26.4-17.8 17.6-10 30-15.2 9-3.7 28.3-9.9a335 335 0 0 1 43.3-10.6 12.8 12.6 24.6 0 0 4-1.4q45.5-26.3 68-39.1 36.8-21.1 61.8-33.5 27.2-13.5 34-16.7 33.4-15.6 58-26.3 7.5-3.2 18.6-10.2 11.3-7 19.7-16.3c7-7.8 11.7-18.2 13.7-29.8 1.9-10.6 2.3-19.6 2-28.8q-.3-8.9 1.3-12.6c2.3-5.5 7.9-10.3 14.1-10.3h361.5c5.5.9 10.2 3.8 12.5 9q2.1 4.8 2.1 9c0 15.6-.2 30.6 4.8 44.6a70 70 0 0 0 31.5 35.6q10.4 6.1 19.4 10.1 39 17.6 68 31.6 48 23.1 94 50 33.2 19.4 59 33.9a12 12-25.6 0 0 3.8 1.3q14.2 2.3 28.4 6.2 17.2 4.7 27.7 8.5 39.7 14.3 70.5 38 48.3 37.5 79.5 92.3 17.4 30.7 28.3 63.4 4 12 9 34.4c9 40.3 9.5 84.4 5.1 126.4q-2.4 23.2-6 43.7a57 57 0 0 0 2.3 30.1q.5 1.2 5.4 10 2.2 4 6 9.7 9.6 14.4 13.8 21.3 24.4 40 40.6 79.7 6 14.6 12.9 36.4a445 445 0 0 1 14.5 69.8q3.4 23.3 3.9 47.7c.4 23-8.5 45.8-19.8 65.4q-13.3 23-30.4 44.8-1.6 2-17 18.2-9.5 10-18.2 17-14.4 11.3-23 17c-4.8 3-10.7 6-16 9.3q-3.5 2-6.6 3.4-26 11.5-44.2 16-23.8 5.9-49 6.7c-5.7.2-9.2-1-13.4-5q-4.9-4.6-9-11.9-12.5-22.3-19-35-14-27.9-25.5-53.4c-5-11-9.5-22.7-14-33.1-5.6-13-11.3-28.7-16-42q-8.2-22.8-11.3-35l-1.3-5.6q-2.4-7-4.8-16.3a.2.2 0 0 0-.4 0q-5.4 20-14.2 39.7-15 33.8-34.1 65.8a142 142 0 0 0-18.5 45.7q-6.6 34.2-4.4 68.8c1.7 25.5 4.5 52.4 7.8 76.2 3.1 22.9 4 44.2 4 64.4q-.1 18.3-3.8 34-1.8 7.5-7.1 12.8-3.5 3.5-12.8 7.3-21.8 9-26.5 10.5c-13.4 4.5-30.8 10.8-47.3 15.7q-29 8.7-51.3 14.1-5.4 1.4-49 11.3-25 5.6-49.4 9.4-37.5 5.8-68.6 9.6-33.5 4-78.7 6-33.6 1.3-69.2-.8-38.7-2.4-68.9-6.3-52.6-7-98.7-16-23.1-4.4-67.3-15.6-43.3-11-78.7-23.5-24.4-8.7-43.4-17.1-7.9-3.5-11.7-9.9-2-3.2-3.8-11.2-1.6-7.3-2.2-15.9-2.5-35.5 2.3-73.5 6.1-49.2 8.3-80.8 1.8-27-1.7-53.9a142 142 0 0 0-11.5-43.7c-5.2-11-13.4-23.9-18.7-33.5l-7.7-14.2c-5.6-10-10.7-21-15.2-30.7-6.7-14.5-10.5-26.1-16.6-44m604-874.5L715 81.6l-40.8-.3a.4.4 0 0 0-.5.4q-.3 24.9-2 49.7-2.8 43.4-16.8 85-3.4 10.4-8 18.7c-4 7.2-9 15.6-14.5 23.1q-4.6 6.5-10.2 14a.4.4 0 0 1-.8 0q-.1-.8.1-1.4 13-33.4 13-34 1.5-3.8 2.3-6.7 3.3-13 5.7-26.1 1.5-8.4 3.4-27.1 1.3-7.3 1.4-17.3a.3.3 0 0 0-.5-.2q-14.7 12.2-31.9 21.3-5.5 3-30 14.2a1534 1534 0 0 0-111.7 55L454 260.7c-12.8 7-26 15.4-39.3 22.3l-1.7 1.2a.8.8 32.6 0 0 .4 1.4l35.5 8.3q6.2 1.9 12.7 4.3a1202 1202 0 0 0 47.4 16q19.5 6.2 41.6 9.5l16 2.6c45.8 7.6 57.9 9.8 98 16.4q26.6 4.4 63.3 11.4 2.6.5 4.8 1.5a.3.3-87.1 0 0 .4-.4q-6.6-20.3-11.4-41-4-16.9-6.1-24.5c-3.2-11.8-6.7-24.3-9.2-36.7l-2.6-12.3a.6.6 0 0 1 .9-.6 36 36 0 0 1 10 16.6q7.9 21.8 13.8 36.6c5.4 13.4 8.5 22.1 13.5 32.7l14.4 30q2 4 4.3 7.4a6.6 6.4 86 0 0 2.3 2c7.8 4.1 14.7 7.2 21 11.2q16.9 10.8 30.3 25.1a.3.3 0 0 0 .6-.3l-1-3q-11-26-15-40.4-4-14-6.7-21.5-2.2-6.3-6.4-21.7-4-14.5-9.5-32.5-8.5-28-17.4-61.4-6-22.2-10.8-44.7-.4-1.7.3-1.9l.3.2q4 8.2 8 19l10.5 29.5c5 14.4 11.3 29.1 17 44.8 3 8.4 7.7 19.3 11.6 30q15 41 23.3 60.7 7.1 17 13.2 27.8 3 5.4 7.2 9.8a1 1 0 0 0 1.3 0q5-5.5 8.4-12.3 5.6-10.6 14-30.8 5.8-14 10.2-25.7l30.2-80c8.8-23.2 15.6-43.5 25.7-67.7q.5-1.4 1.7-2.9a.3.3 0 0 1 .6.2v.3l-7.4 33c-3 13.3-10 36.1-15.8 58.4q-2.4 9.3-4 14-1.9 5.5-8.8 29.3c-3.5 12.3-10.7 33.4-15.4 50.9q-2.7 10.3-5.3 16.2-5 11.8-7 16-1.3 2.6-2.4 5.9a.5.5 0 0 0 .5.6q.3 0 .7-.5c13.3-14.6 30-25.7 48-34.5 4.2-2 6-5.5 8.1-9.4q4.5-8.4 11.6-22.8 5.5-11 10.4-23.4 10.3-25.7 17.5-45 3.7-9.7 8.4-19.2 2-4 4.2-7a.5.5 0 0 1 1 .4q0 1.3-.3 3-.7 4.9-4.3 21.6c-2.8 13.2-7.4 28.8-11 42.8q-6.8 27.3-12.7 47.7a.5.5 0 0 0 .5.6q27.9-6.2 54.4-10.6l9.5-1.5q14.3-2.3 50-8.6c27.2-4.7 55.5-9.5 77.3-12.8 13-1.9 26.7-6 38.4-10 10-3.5 18.4-6 27.6-9.2q11.6-4.1 23.3-8l39.4-10a.5.5 0 0 0 .1-1q-27-15.6-50.5-28.7c-42.4-23.7-90-46.6-135.4-66.8-12-5.5-22.7-11-33.2-17.8q-8.7-5.6-15-11.9a.6.6 0 0 0-1 .5l1.2 17.6q2.4 22.4 7.2 44.2 2.2 10 5.4 18.6 9.2 24.9 11.6 30.9.5 1.3.4 2.3a.4.4 0 0 1-.7.1q-10.4-14.7-17.8-26.2-11.1-17.5-16.9-36-4.7-15.1-7.6-28.6-2-9.5-4-21.5c-2.2-13-3.5-26.7-4-40.3q-.6-21.2-.8-38.8a1 1-.8 0 0-.8-.7zM150.1 684.3q3.8 32 11.2 63a.8.8 0 0 0 1.3.4l24.2-25.4q8.9-9.2 18.8-17.5c19.5-16.2 39.6-31.3 59-46.4 12.4-9.5 19.9-20 29.9-33.8q4.8-6.7 10.8-18.7c2.6-5.4 7-14 9.9-21q10-24.1 20.9-47.5 11.9-25.8 21.7-42.5 21.4-36.2 50.7-70.5a587 587 0 0 1 54-53.4 191 191 0 0 1 37-27 .7.7 46 0 0 0-1.2q-4.1-2.5-8.3-3.9-2.7-.8-17-6-7.5-2.8-17-5.6l-23.9-6.8q-2.5-.7-5-1-16-5-32.2-8.4c-12.3-2.5-23.5-4-34.5-2.4a239 239 0 0 0-48.7 12.8q-17 6.2-31.7 14.7-18.8 10.9-34.6 23.5l-14.2 13.2a209 209 0 0 0-19.8 21.3q-11.2 13.9-21.8 30.4-28.5 44.3-40.9 97.2-4.8 20.5-6.6 43.2-3 38.6 1.3 76.8 2.4 21.3 5.5 42.5m1100-364.5c-15.3 4-31 8-46 13.5-8.2 3-17.2 5.4-25.2 9.5a.4.4 0 0 0 0 .7q19.1 10.3 35.4 24.6 23.7 20.9 31.2 28.3l13.2 13.4q30.9 33.4 55.9 72 11.2 17.2 21.7 38.8 12.7 26 22.8 50.4a575 575 0 0 0 16.7 37.4q3.5 7 9.7 15.7c8.1 11.5 12.5 18 20.7 26.5q3 3 11.6 9.5 10.5 8 41.2 31.9 13.2 10.2 20.3 16.6c13.8 12.2 26 25 38.7 38.7a.4.4 0 0 0 .7-.2q2.9-15.4 6.3-30 2.5-11 4.6-31 4.8-28.2 7.2-56.1c3.2-37.4 1.7-74.5-7.6-111.5-5.4-21.2-11.9-42-21.7-61.6q-18.7-37.4-44.5-67.7-8.7-10.3-14.4-15.7-6.3-6-16.3-14.5-2.2-2-15-11c-6.2-4.4-14.3-8.8-22-13.5q-6.9-4-16.9-8.3-16.5-7.1-34.4-12.1a111 111 0 0 0-42.6-5.7c-17 1.8-34.2 6.7-51.2 11.4m-881.6 202q-8.7 16.4-15.6 33.6-1.6 3.8-3.6 9.9c-2 6.4-4.7 13-6.4 19.3-1.3 5-2.2 9.9-3.7 14.8l-.2 1a2.7 2.6 44.1 0 0 0 1 50 50 0 0 1-2.2 28.9q-.6 2-.4 3.5a49 49 0 0 1-.6 17.8 2.7 2.6 68.7 0 1-.3.8l-.8 1.2-.2 1q1.5 18.5 8.5 39 7.3 21.5 16.9 39.6a255 255 0 0 0 58.2 71 168 168 0 0 0 37.4 27q33.6 16.8 68.2 24.8 9 2.1 14.6 2.2c29.7.5 56.8-5.5 88.5-12.5q17.1-3.8 66-15.7 14.8-3.7 28.2-7.6 31.3-9.4 57.2-28.9c30.1-22.7 47-60.5 49-97.6 1.3-23.6.5-47-.3-72.3q-.5-15.1-2.8-39-1-10 .9-21a.8.7-71.3 0 0-.4-.8l-.6-.4q.7.3.7-.4.3-12 1.1-19.5.4-4.1-.8-6.4 1.1-2.4 1-5.6l-.5-30.5q-.1-4.4-.7-11-.6-13.7-1.5-18.3-2.3-11.9-10-25.4-1.5-2.6-2.8-4a95 95 0 0 1-7.7-9.8q-7.8-11.3-20.4-22.5a130 130 0 0 0-21.9-14.6q-5.8-3.4-10.3-5.2-14.1-5.4-34-11-4-1-7.6-1.6c-6.6-1.2-12.7-3-18.9-3.8-11-1.6-23.4-4.4-34.9-5.5s-22.1-3.6-34.7-5.9c-25-4.4-51.4-9.8-75.5-12-8-.6-15.8 1.3-24.2 3.3q-4.7 1-9.5 3.7c-10 5.5-16.3 9.9-25.4 15.2q-7.2 4.2-13.3 10-18.2 17.1-30.4 30.3-21.9 23.4-40.4 49.1-11.6 16.1-19.6 31c-4.4 8.2-9 20-13.3 29.8m859.1-116q-21.7-21.2-46.8-38.2a74 74 0 0 0-45.6-15 69 69 0 0 0-27.7-.3c-10.3 1.3-22.6 4.6-33.1 6.5-4 .7-7.2 1-12.6 1.4q-2.8.3-9.2 2-16.6 4.4-33.3 5.4c-7 .4-17.8 4-26.5 5q-6.4.8-9.9 1.4c-17.1 2.9-33 8.4-51.1 14.3-6.2 2-12.5 6.2-16.4 8.3q-4.6 2.4-9.6 6.3-13 10-21.7 19.3-23 24.4-30 57.5-5.3 24.4-4 53.7c.5 10.5 3.4 23.3 4.7 30.6q1.9 10.8 1.3 17.3l-2.3 23.9q-2.2 23.7-2.5 58.8-.2 26.6.9 37.3a141 141 0 0 0 17.6 56.6q6.8 11.6 12.3 18.8a105 105 0 0 0 36.4 28.5q33 16.6 67.8 25.2l39.2 9.8a970 970 0 0 0 71.6 15.2c24.3 4.2 47 2 71.1-3.2q14.2-3 24-7.6l28.2-12.7q15-6.7 27.6-16.6 19.2-15 36.3-33.7 15-16.3 27-38 12.4-22.3 19.5-38c8-17.6 12.6-33.5 14.3-51.6a2 2-8.3 0 0-2.8-2.1l-2.6 1a1 1 0 0 1-1-.1c-4.7-5.3-1-10.8 2.2-15.6l.4-1q1.4-5.9 1.6-8.5 1.1-19.3-1.9-38.3-.7-4.9-2.3-9.6-2.6-8.2-10.3-29.4a253 253 0 0 0-14.8-32.5c-7-13.3-14-27-22.7-39.6q-15.8-23-26.8-36-14.5-17.4-22.6-26.4-5.7-6.3-13.9-10.1M198.6 738.4q-13.3 11.1-18.5 17.5-10.2 12.7-14 18c-9 13.1-17.3 31-23.4 48.5q-2.3 6.7-7.7 21-3 7.7-8.7 28.7-12.4 46-18.6 91.6a339 339 0 0 0-3.5 62.6l1.4 25.5 4 29.6q.9 5.9 3 15 2 8.9 7.4 14.8a90 90 0 0 0 13.2 12.3c5.9 4 13.2 9 20.8 13.3 13.5 8 29.4 15.3 45.2 19.6q18.7 5 40 7.7a2 2 21 0 0 2.1-.9c9.8-14 17.7-29.7 26.6-47.6q16.8-34 32.7-72.5 3.6-8.9 11.3-29.4c6.5-17.2 10.4-30 16.4-50 6.5-21.4 11-43.3 16.5-65.7q6.2-25.7 10-67 2.4-27.2.7-55.5a47 47 0 0 0-8.5-22 352 352 0 0 1-27.5-57.4l-11.2-28.6q-1.5-3.7-2.4-4.7a3 3-26.8 0 0-3-1c-3.5 1-6 2.7-9.1 4.7q-29 18.1-56 37.9-9.8 7.3-20 16.4-9.8 8.7-19.2 17.6M1526 1137q10-6 19.7-12.5c5.5-3.7 10.2-9 14.4-13 6.1-5.6 8-15 9.6-22.7q3.8-20 5.7-44c1.2-15.8 2-30.6.8-46l-1.6-16.5-1.7-16.3q-7-54.3-22.9-107.8-3.2-10.7-9.5-27.5-7.9-20.9-11.5-28.8-7.6-16.7-17-30.2-12.2-17.6-27.2-31-19-18.4-33.5-29.6-30.2-23.3-69-47.2-2.7-1.6-5.2-2c-4-.5-4.2 1.8-5.5 5.3-11.4 30.8-18.8 50.8-31 73q-5.1 9.4-12.4 22.3-3.5 6-3.6 14.5c-.3 16.5-.8 31.1.5 47.6q3 35.1 6.7 56.1 5.4 30.3 15.9 67.6c10 35.5 21 69.8 35.2 102.6l12.1 27.6q6 13.6 12.7 27.2c12.1 24.4 19.4 39.5 30.6 56.9a2 2-18.7 0 0 2 1q29-2.3 56.2-12 3.6-1.3 8-3.5c4.6-2.3 9.6-4.3 14.9-7.3zM474.7 989.7q5.7 10.6 9.9 17 13.6 21 32 42a344 344 0 0 1 11.2 13.5q4.8 6.1 13 14 2.5 2.5 3.6 4.8a.5.5 0 0 1-.6.7l-1.7-.8q-20.5-12.9-38.3-30.7a382 382 0 0 1-33.8-39.9l-9.1-13.7c-10.1-15-18-30.9-25.3-47.9q-4-9.3-6.2-18.5-.9-4-2.2-7.7a6 6-85.2 0 0-2.7-3.3c-7.4-4-11.7-8.7-18.8-15.7q-3.7-3.6-6.7-8-1.4-2.2-9-12.5-1.2-1.7-5.5-9.4c-1.4-2.5-2.7-4-4.5-6.6a.3.3-60 0 0-.6.1q-.8 9.4-2.8 20-1.8 9.2-1.5 12.8.5 7 2.7 14.6c3.8 13.6 7.1 25.1 12.8 39.6l9 23q7.4 19.3 19.5 41.8 11.5 21.2 22.8 39.8 6 9.8 19.2 29.3l19.3 29q2.2 4.3 6.5 10.6 32 45.9 67.9 85.8.8.9 1.2 1.8a.8.8 0 0 1-1.2 1 137 137 0 0 1-23-17.8c-8-8.4-17.1-16.4-25.8-25.9q-7.6-8.2-15-16.6-13.2-15.9-25.4-32.5-3.3-4.6-7-10.7a.2.2 0 0 0-.4 0q2.4 9.6 3 19.2 1.6 32-1.1 58.9c-.9 8-2.5 23-4.2 35.5a615 615 0 0 0-5 110.7q.1 3.2 3 4.6 14.7 6.7 25.6 10.6l18.2 6.7c11 4.1 21 6.7 34.2 10.6q8.5 2.5 17.6 4.6 44.3 12.8 87.5 20.7 22.7 4 34.4 6.6l19 3.2q13.4 2.4 27.8 4.2c37 4.7 74.5 8 111.8 8.5h18.8q18.7 0 32.4-1 20.1-1.2 50.8-4.1 22.4-2.2 45.3-5.4l25.3-4c22.3-4.4 46.9-8.7 66.8-13.1q31.1-7 60.6-15.3a513 513 0 0 0 62.9-19.4q25.3-9.9 29.1-11.2 2.6-1 6-2.9a2 2-5.5 0 0 .8-1q.8-2.2.9-3.3c.5-11.4.3-20.3.3-33.5q-.1-32.4-3.5-60.3-1.6-13.2-4.6-34.3-3-20.7-3.5-48.7-.3-21.7 1.2-35c.4-3.5 1.2-7.4 1.6-10a.1.1 0 0 0-.2-.2c-9.7 14.4-21.4 29-33 42.9q-18.5 21.6-39.5 40.7-11.2 10.1-22.5 17.5a.7.7 0 0 1-1-.9l.7-1.1q6-6.6 9-10.2l19.6-23.6q9.2-10.9 19-24l20.5-28.3q4.3-5.9 5.2-8.9 12-16.3 21.5-31.9c2.2-3.6 5.1-7.7 7.7-11.8q17.5-27.6 32.5-55.3 9.2-17.1 15.2-31 6.2-14.5 13-32 8.2-20.8 13.5-43.5 2.6-10.9 2.5-15.1l-.1-1.5-4.6-28.4a.5.5 0 0 0-.9 0c-5.2 10.8-13.6 21-20 30q-1.3 2-3.4 4l-8.8 8.6c-3.5 3.6-8.2 6.7-11.1 9a12 12 0 0 0-4.2 6.3q-4.5 16.2-6 19.7c-8.5 18.8-15.4 34.3-25.8 50l-9.1 13.8c-6.6 8.5-13.5 18-19.9 25.3a232 232 0 0 1-34.5 33.3q-12.6 9.5-14.4 10.6-3.5 2.1-6.2 3a.4.4 0 0 1-.6-.7q.7-1.2 1.4-2 20.7-21.2 40.8-46.9 11-14 18.8-26.2 2.1-3.2 9-15.3 3.4-5 6-9.7 6-11 11.7-22.4l4.3-8.5c3.1-5.4 4.4-11.2 7-17.3q.4-1 .5-2.1a1 1 0 0 0-1-.8c-4.6.6-9.7 3.6-14 4.5q-10 2.3-18.7 3.3a.7.7 0 0 1-.5-1.2 143 143 0 0 1 18.8-13.6q10.5-6.6 13.4-8.6 2.8-2 12.2-9.6a215 215 0 0 0 31.7-33q8.8-11 13.6-17.6c3.2-4.3 7.6-10.4 7.3-14.1q-1.5-17.7-1.7-35.7a.4.4 0 0 0-.7-.2q-5 4.6-10.2 9.9-5.8 5.7-22.6 19.1-1.5 1.2-15.1 10.8-9.2 6.5-15.7 9.9a181 181 0 0 1-47.5 17.7q-17 3.5-33.4 5.4-21 2.4-39 1-18-1.5-34.2-4.2-49.8-8.3-98.8-22.7-27.9-8.2-50.5-16.8-21.9-8.3-38.7-20.2-6-4.3-16.6-14.6-8.8-8.6-14.4-16.5a158 158 0 0 1-18-34.6.8.8 0 0 0-1.5 0 146 146 0 0 1-17.3 34.1q-5.1 7.9-13.2 16a131 131 0 0 1-34.3 26.1 450 450 0 0 1-72 26.4q-11.6 3.5-48.5 12.7-34.6 8.6-73.8 13.2-28.6 3.3-52.9 0-26.3-3.7-39.5-7.3-26.8-7.4-53.5-25.3c-6.3-4.2-17.3-11.5-25.2-18.1q-10-8.3-11.5-9.9l-12.4-12.6a.4.4 21.9 0 0-.6.3q.3 15.2-1.3 35c-.3 4 2.3 7.9 3.7 10.1q13 19.3 22.2 29.4 8.3 9.1 29.3 28.2 5.1 4.7 13.7 10.5 16.7 11.2 26.4 18.1.8.6 1.2 1.4a.8.8 0 0 1-.8 1.1q-16.6-2.2-32.3-8a.7.7 0 0 0-1 1q3.1 9.2 7.9 18.3l7.7 16q6 12.6 13.6 24.7M1542.2 778q-.6 2.5.8 5.9 11 25.7 19.4 51.6 9.7 30 18 70.2 6.4 30.6 10 78.5 1.2 17 .8 39.5-.3 19.5-2.9 36c-1.7 11-2 15-3.5 26.8a.3.3-21.8 0 0 .6.3 311 311 0 0 0 28-41.4q6.4-11.2 11.3-23 2.1-6.2 2.4-8.2 1.4-10.2 1.3-21.3-.2-29.5-5.4-58a418 418 0 0 0-13.6-58.2q-9.5-28.5-24-58.6c-11-22.7-25.9-45.6-38.4-65.5a.4.4 0 0 0-.8.2zM58 1027q4.5 10.6 10.6 20.6l15.2 24.5q2.4 3.7 11.3 14.3a.2.2 23.4 0 0 .3-.2l-1-9.7q-4.4-32.4-5.1-53.1-.9-25 2.2-57 5-51 19.3-106.7a536 536 0 0 1 21.9-64.6l5.7-12.6q.8-1.6-.3-4.5l-4-25a.4.3 57.1 0 0-.7-.2q-19 28.5-33.5 55.7-14.3 26.8-26.8 63c-7.7 22.3-13 46-17 70q-4.4 26.2-4 55c.3 12 1.2 20 5.9 30.5"/><path d="M537.4 919.5c4 6.9 8.3 13 11.5 17.8a306 306 0 0 0 31.8 38.7q4 4.2 10.5 8.7 4.6 3.2 8.4 4.6c6 2.3 11-.2 17.5-3.6q6.5-3.4 10.4-6.2a255 255 0 0 1 43.7-24.3c9.8-4.3 20.5-7.6 32.5-11.9a299 299 0 0 1 55.5-13.6q-3.5 3.8-7.7 5.8-11.7 5.8-21 11-19.3 7.4-38.8 16.4-15.9 7.4-24.2 12.4l-15 9c-9.8 6-20.5 14-31 20.9q-7.2 2.8-9.4 3.4c-8.4 2.3-17.3.3-24.5-4q-14-8.5-25-21.7-13-15.4-23.9-34-7.5-13-11.7-27.8-2.8-9.5-5.5-19.4-.8-3-.2-5.5a1.2 1.2 37.4 0 1 2.2-.3q5.7 10.4 9.5 16.8 2.3 4 4.4 6.8m615.6 3.7q-3.4 11.8-9.1 22-12 21.4-28 40-10.3 12-23.2 19.7a32 32 0 0 1-24.5 4l-5.6-1.5q-6.4-3-11.5-6.8-20.5-15-41-26.5-22.5-12.8-53.5-25.5-1.1-.4-2-1.2-8.7-4.5-11.2-5.6-12.5-5.3-21.4-10.8 3.1-.4 4.5-.2a263 263 0 0 1 49.5 12.4l14.3 5c14 4.4 26.5 10.2 40.3 17.3 9.6 4.9 18.6 11.6 28 17.4q6.3 4.1 13.6 6.7c5.2 1.8 11.5-.8 15.9-4q8.7-6.3 15.1-13.2 8.2-9 16.8-19.4 4.7-5.7 11.9-16.5l11.3-17 14-23 .4-.4q1.8-.8 1.7 1.6-.2 5.5-2.1 11.2-2.5 7.4-4.2 14.3m-547.1 168.3q3.3 44.7 9 89l5.2 42.4 5 42.3q.7 5.3 3.4 21.8 1.8 10.8 3 21.8.3 5.8 1.3 11.5 1.7 9.3 1.9 11.5.8 6.8.9 13.3a.4.4 0 0 1-.8.2 473 473 0 0 1-9.6-28q-6.2-20.4-11.8-41.6-2.2-8-5.2-26.8-7.4-45.3-10.3-99.4-1.2-22.4-1.3-28.5-.5-33.4 2-69.9.3-3.8 1.4-7.8a.3.3 0 0 1 .5 0zm442.8 214.1c.5-3.5.6-7.1 1.2-10.4q2.6-12.7 4.4-26.6 5-37.6 6.1-50.9 2-21.5 3.2-31.8 1.4-11 5.2-51 2.6-27.5 5.7-52.2 1.6-12.8 2.7-24.6l1.6-11.3a.3.3 0 0 1 .5 0q1.5 6 2 11.8 2.8 38.6 2.2 60.7-1.9 71.2-13.3 140.7-1.8 11.4-5.3 23.7-9.4 33.5-14.2 47.4-2.6 7.7-6.3 15.8h-.3l-.2-.2v-.5q1.3-7 1.8-12.2z"/></g><g fill="#576484"><path d="m964.6 81.8-33.1 95.5v-.3a.3.3 0 0 0-.6-.2q-1.2 1.5-1.7 2.9c-10.1 24.3-17 44.5-25.7 67.7l-30.2 80Q869 339 863.1 353q-8.4 20.2-14 30.8-3.5 6.8-8.4 12.3a1 1 0 0 1-1.3 0q-4.2-4.4-7.2-9.8-6-10.7-13.2-27.8-8.2-19.6-23.3-60.7c-4-10.7-8.5-21.6-11.6-30-5.7-15.7-12-30.4-17-44.8l-10.5-29.5q-4-10.8-8-19l-.3-.2q-.7.2-.3 1.9l-33-94.6zM154 1136.8q5-3.7 10.1-7.2 7.3-5 10-7.5 9.9-8.5 18.8-19.7 17.1-21.8 26.8-40.7 10.2-20 15-31 10-23.1 18.4-47.3 3-8.3 10.9-34c6.3-20.3 10.5-41.5 16-64.7q4.4-17.9 6.5-30 1.6-9.2 4-30.5c2-16.6 2-34-2.8-50.1q-5-17.1-18.8-30a52 52 0 0 0-40.6-14.3q-3.8.6-13.6 3.2c-5.2 1.4-10.5 6.6-16.1 5.4q9.4-9 19.1-17.6 10.3-9.1 20.2-16.4 27-19.8 55.9-38c3-1.9 5.6-3.6 9.1-4.6a3 3-26.8 0 1 3 1q.9 1 2.4 4.8l11.2 28.5q11.9 31.6 27.5 57.3c4.1 6.8 8 13.6 8.5 22.1q1.7 28.3-.8 55.5-3.7 41.3-10 67c-5.4 22.4-9.9 44.3-16.4 65.7-6 20-9.9 32.8-16.4 50q-7.7 20.5-11.3 29.4-16 38.6-32.7 72.5a364 364 0 0 1-26.6 47.6 2 2 21 0 1-2 1q-21.4-2.8-40.1-7.8a185 185 0 0 1-45.2-19.6m1331-396q-7.3-2.2-14-5.5-6.3-3.1-9-3.7-6-1.5-12.3-2c-21.8-2-42.5 13.1-52.4 31.7-8.2 15.2-9.2 31-8.3 48a361 361 0 0 0 9.1 67l4.7 18.6 4.6 20q2.3 10.4 15.5 55.2 3 10.4 7.8 23.7 12.8 35.1 29.3 67.3a261 261 0 0 0 31.3 46.1q10 12.2 22.8 20.5c4.1 2.7 7.9 6.2 12 9.3l-6.6 3.8c-5.3 3-10.3 5-14.8 7.3q-4.5 2.2-8.1 3.5-27.1 9.7-56.1 12a2 2-18.7 0 1-2.1-1c-11.2-17.4-18.5-32.5-30.6-57q-6.7-13.5-12.7-27.1l-12.1-27.6a812 812 0 0 1-35.2-102.6q-10.5-37.3-16-67.6-3.7-21-6.6-56c-1.3-16.6-.8-31.2-.5-47.7q.1-8.5 3.6-14.5l12.4-22.2c12.2-22.3 19.6-42.3 31-73.1 1.3-3.5 1.5-5.8 5.5-5.2q2.5.3 5.2 2 38.8 23.8 69 47.1 14.5 11.2 33.5 29.7m-279.5 249.9q-1.7-5.6-3.1-10.9-2.7-9.8-8-18.4-12.7-21-33.7-33.7l-7.6-4.5q1.7-6.9 4.2-14.3 2-5.7 2.1-11.1.1-2.5-1.7-1.7l-.3.3-14.1 23q-16.3-5.8-25.6-8c-17.8-4.4-45.4-9.4-64.3-14.8q-24.6-7-38.7-12.2-26.1-9.5-59.8-24c-10.4-4.5-19-7.8-29.3-11.9q-9.5-3.7-22.3-7.2a57 57 0 0 0-33-1c-18 5.6-19.5 27.4-14.4 42.4a63 63 0 0 0 19.3 28q5.1 4.2 15 8.7 15.6 7 31.9 11.6 8.9 5.5 21.4 10.8 2.5 1.1 11.2 5.6l-1.3.5a1.3 1.2-39.8 0 1-.6 0l-25.8-7.5c-21-6.3-41.9-9-59.1 7.2q-6.8 6.3-9.6 15.9-4.7 15.8-3.7 33.3-.7 14.8.3 33 1 17.6 7.5 32.4c3 7 4 10.7 9.5 14.5l7.6 5.2c4.2 2.4 8.7 2.3 13 2.5q2.9 0 7.5 1.3c23 6.3 43.3 9 69.5 12.9a151 151 0 0 0 46.7 1.3q26.3-4 41.9-25.4 5.2-7.2 8.9-14.5 2.8-6.1 4-13.8l6.3 12q-1 11.7-2.7 24.5-3.1 24.7-5.7 52.1-3.8 40-5.2 51.1-1.3 10.3-3.2 31.8-1.1 13.3-6 50.9-1.9 14-4.5 26.6c-.6 3.3-.7 6.9-1.2 10.3l-.3-1.5a.5.5 0 0 0-1 0c-3 11.7-5.1 22.8-9.4 35.5q-4 12.4-9.2 27.2l-.5.8c-2.6 4-6.6 7.6-10 12.2-7.1 9.4-11.2 14.6-15.7 23.2l-25.3 4q7.8-8.4 10.8-13.6c4.3-7.5 10-15.7 14-24q3-6 5.6-13.4 7.6-22 10.8-39.9 2.5-14.2 1.7-34.4c0-2.7-1-7.4-2.4-10-2.3-3.8-5.3-3.3-9.7-2.6q-9.8 1.4-13.5 2.9l-13.8 5c-13.2 2.7-27 6.2-40 7.8-14.3 1.7-31.1 2.2-42.4 3.7q-16 2.1-27.8 11.4-3.7 3-5.7 5.9a80 80 0 0 0-12 39.5q-1.5 30.9-2.4 45-.2 2.7.1 5.4-1.5 9.9-1.8 21.8H830l-3-22.7q-.1-5.9-.5-11.8c-1.1-15-.8-31.1-1.4-43.4q-.4-8.8-1.5-14a45 45 0 0 0-13.7-25.3 55 55 0 0 0-27.3-11.2q-8-1.2-13-1.6-20.6-1.6-36.8-3.3-6-.6-18-3.2-14.7-5.7-19-6.9a117 117 0 0 0-30.2-5.6c-4.2 0-4.7 3.7-5.2 7q-1.2 6.6-1.4 12.6-1 22.8 4 45.4 3.6 15.8 9.2 31.7 2.7 7.4 8.7 19.9l9.4 19.6-19-3.2c-2.2-4.1-4.7-6.4-9.5-4.8l-.8-.2q-1.5-2-3.4-7.3-3.9-10.5-5.8-17.8c-.9-3.5-2.5-7.2-3.5-10.6q-1.2-4-2.7-8-8.5-22.1-13.5-45.6a.4.4 41 0 0-.7 0v1.7q-1.2-11-3-21.8-2.7-16.5-3.3-21.8-2.7-21.2-5.1-42.3l-5.2-42.4q-5.7-44.3-9-89l.2.5a.3.3 0 0 0 .5-.1q.4-11.3 2.5-19.7 1.5-6.3 3.4-12.6a.3.3 0 0 1 .6 0 65 65 0 0 0 36.3 36.1q20.8 7.8 44.9 5 36.5-4.3 70.2-10.2 7.1-1.2 19.3-4.9c3.3-1 6-1.2 8.9-1.7 5.7-1 8.7-3.4 15.4-7.6 4.2-2.6 5.9-5.6 8.4-10.7q5.4-10.7 7.3-21.6 2.2-13 2.4-27 .1-16-.1-20.7-.6-19.4-5.7-35.4c-2.7-8.9-9.7-14.6-17.9-19.4a56 56 0 0 0-31.2-6q-5.1.5-18.8 4.7-10.8 3.3-22 6.3 9.3-5.2 21-11 4.2-2 7.7-5.8 19.2-3.9 36.7-13.2 5.1-2.7 8.5-5.9 4-3.8 7.3-7.4 7.4-8 12.2-21.2c4.9-13.1 5.2-28-5.7-37.5-6.8-6-19-7.7-27.4-6.2q-10 1.7-23.9 6.7l-12 4.2q-5.6 2-26.3 11.1a1119 1119 0 0 1-48.4 19.9q-15.3 6-31.3 10.6c-13 3.7-25.7 8-38.9 10.8l-42.2 8.7q-16.6 3.4-30.4 9.2-2-2.8-4.4-6.8-3.8-6.4-9.5-16.8a1.2 1.2 37.4 0 0-2.2.3q-.6 2.5.2 5.5 2.7 9.9 5.5 19.4l-2.4 2.2q-1.1 1-2.6 2-23 14-37 37.2a95 95 0 0 0-10.4 27.2q-7.6-12-13.6-24.7l-7.7-16q-4.8-9-7.9-18.3a.7.7 0 0 1 1-1q15.7 5.8 32.3 8a.8.8 0 0 0 .8-1.1q-.4-.8-1.2-1.4-9.7-6.9-26.4-18.1-8.6-5.8-13.7-10.5-21-19.1-29.3-28.2-9.3-10-22.2-29.4c-1.4-2.2-4-6.2-3.7-10q1.6-20 1.3-35a.4.4 21.9 0 1 .6-.4l12.4 12.6q1.6 1.6 11.5 9.9c7.9 6.6 18.9 14 25.2 18.1q26.7 17.9 53.5 25.3 13.2 3.6 39.5 7.2 24.3 3.4 52.9 0 39.3-4.5 73.8-13.1 37-9.2 48.5-12.7c24.4-7.4 49.1-15 72-26.4a131 131 0 0 0 34.3-26q8.1-8.2 13.2-16a145 145 0 0 0 17.3-34.2.8.8 0 0 1 1.5 0 158 158 0 0 0 18 34.6q5.6 8 14.4 16.5 10.6 10.3 16.6 14.6 16.8 11.9 38.7 20.2 22.6 8.6 50.5 16.8 49 14.4 98.8 22.7 16.1 2.7 34.3 4.1 18 1.5 39-.9 16.2-1.9 33.3-5.4c16.6-3.4 32.7-9.9 47.5-17.7q6.5-3.4 15.7-10 13.7-9.5 15-10.7 16.9-13.4 22.7-19.1 5.2-5.3 10.2-10a.4.4 0 0 1 .7.3q.2 18 1.6 35.7c.4 3.7-4 9.8-7.2 14q-4.8 6.7-13.6 17.7a220 220 0 0 1-31.7 33l-12.2 9.6-13.4 8.6a143 143 0 0 0-18.8 13.6.7.7 0 0 0 .5 1.2q8.7-1 18.8-3.3c4.2-1 9.3-3.9 14-4.5a1 1 0 0 1 .8.8q0 1-.4 2c-2.6 6.2-3.9 12-7 17.4l-4.3 8.5q-5.7 11.4-11.7 22.4-2.6 4.8-6 9.7m-351 184.6q-.8 13.6-1 29.2 0 12.2 2.5 21 5.3 18.7 22.2 30.2c10.2 7 21.3 8.3 34.4 8.5q18.8.3 32.8-2.4c9.2-1.7 13.8-2 24-3.5 15.3-2 31.2-5.7 43.9-13.4q23.8-14.6 29.8-44c2.5-12.3 3.6-25.5 2.3-37.4q0-.5-.3-.8.2-.9 0-1.4-1.7-6-4.4-13.4c-2-5.4-4.8-7.6-10.1-10.3a134 134 0 0 0-42-12q-15.4-2.3-72.5-10c-13.5-1.9-26-3.4-39-.4q-7.4 1.8-12.1 6.2-8.8 8.3-10.5 19-2.3 14.9 0 34.9M635.1 1189q.8 16.7 8.4 31a69 69 0 0 0 39.7 32.4q12.4 4.3 23.2 5.7 16.6 2.1 17.1 2l15.3 2.3q17.5 2.6 37.1 2 12-.4 22.1-6.4a56 56 0 0 0 28.1-47.8c.5-10.2.4-16.8-.1-28.8-.2-4.7.6-11.8-.1-17.9-1-10.5-1-19.3-3.3-27.6-2.3-8.2-7.6-16-15.8-18.9a66 66 0 0 0-30.9-2.4q-30.5 3.9-50.2 6.8c-13.8 2-27.1 3.4-41.3 5.7q-18.8 3-34 10.4c-4.5 2.2-8.7 4.5-10.7 8.7q-5.2 10.7-6 22.4-.5 6 1.4 20.4"/><path d="M470 1010.3q-1.7 3.6-1.6 6.2.5 22.5.9 30.8 1 19.3 5.3 40.1l2.7 11.2q2.2 9 3 18.5-9.6-14.8-19.2-29.1-13.2-19.5-19.2-29.3-11.3-18.6-22.8-39.8-12-22.5-19.5-41.7l-9-23c-5.7-14.6-9-26.1-12.8-39.7q-2.2-7.6-2.7-14.6-.3-3.6 1.5-12.7 2-10.7 2.8-20a.3.3-60 0 1 .6-.2c1.8 2.5 3.1 4.1 4.5 6.6q4.3 7.7 5.5 9.4 7.6 10.3 9 12.4 3 4.5 6.7 8c7.1 7 11.4 11.8 18.8 15.8a6 6-85.2 0 1 2.7 3.3q1.3 3.7 2.2 7.7 2.2 9.2 6.2 18.5c7.2 17 15.2 32.8 25.3 47.8zm729 108.4q3-21 7.7-40.3 2.3-9.7 3-16.2 2.6-22.2 1.6-44.6l-.4-8 9.1-13.8c10.4-15.7 17.3-31.2 25.8-50q1.5-3.5 6-19.7 1-3.7 4.2-6.4c2.9-2.2 7.6-5.3 11.1-8.9l8.8-8.6q2-2 3.5-4c6.3-9 14.6-19.2 20-30a.5.5 0 0 1 .8 0l4.6 28.4.1 1.5q0 4.2-2.5 15.1-5.3 22.7-13.4 43.5-6.9 17.5-13.1 32-6 13.9-15.2 31-15 27.7-32.5 55.3c-2.6 4-5.5 8.2-7.7 11.8q-9.4 15.6-21.5 32M491 1156h-.5a.4.4 60.8 0 0-.1.6c1.3 2.4 3 5 4 7.9q4.3 11.9 5.8 23.4 1.3 10.2 2 24.3c.7 12.3.3 36.4 2 52q1.3 11 5 27 4.3 18.7 10.3 31l9.4 19.5c3.5 7.5 7.4 12.7 12.3 20.5a9.7 9.5 7.6 0 0 1.1 1.5q4.5 4.7 7.2 10.4-9.1-2.1-17.6-4.6c-13.2-4-23.1-6.5-34.2-10.6l-18.2-6.7q-11-3.9-25.5-10.6-3-1.4-3.1-4.6a615 615 0 0 1 5-110.7c1.8-12.5 3.4-27.5 4.2-35.5q2.6-27 1-59-.5-9.5-2.9-19l.3-.1q3.8 6 7.1 10.7 12.2 16.6 25.4 32.5m639 218.5 15-23q4.4-6.9 7.5-13c4.3-8.3 9.9-17.4 13-27.2q9.2-29.3 11.2-55 .8-10.5 1-37.7c.1-11.2 1.6-20.3 3.3-36q1.5-13.7 7.8-24.5a.4.4-66.7 0 0-.3-.6h-.5a539 539 0 0 0 33-42.8.1.1 0 0 1 .2.1c-.4 2.7-1.2 6.6-1.6 10q-1.5 13.4-1.2 35 .5 28 3.5 48.8 3 21.1 4.6 34.3 3.4 27.9 3.5 60.3c0 13.2.2 22-.3 33.5q-.1 1-.9 3.3a2 2-5.5 0 1-.8 1q-3.4 2-6 2.9-3.8 1.3-29.1 11.2c-20.8 8.1-41.3 14-62.9 19.4"/></g><g fill="#992e46"><path d="M1259.8 689.8q-6.5 3.8-13.5 6.3l-19.6 7.4q-7.4 2.8-35.5 10.7-27.5 7.8-59.4 11.3-14 1.6-27 .5-1.8 0-2.3-1.4a.7.7 0 0 1 .6-1q28.4-4.3 57.3-11.7a499 499 0 0 0 63.4-21.9q45.7-18.5 83.7-50 4.3-3.7 6.6-7.7c2-3.5-1-12.6-2.2-16.2q-2-5.6-8.7-15-8.6-12.2-20.9-25.5-9.1-10-24-22.6-27.2-23.1-32.7-27.3a346 346 0 0 0-88.8-50.2c-20.7-7.6-42-13.1-64-18.7l-.2-.6q.2-.4 1-.4a314 314 0 0 1 55 9.2q20.2 4.8 36.4 10.4 34.4 11.9 67.1 27.2 41 19.3 74.6 48.5a.4.4 0 0 0 .6-.3q.2-2.3-.4-4.5c-5.7-20.3-13.2-42-23.3-61.4q-10-19.2-18.9-34-2-3.2-2.9-5.7 4.3 3.2 7.8 8.4l16.5 24.5q8.6 12.9 10.8 17c4 7.3 7.6 13 11.5 20.7q10 19 13.6 27.2c1.7 3.8 2.6 6.6 4.1 9.4q.5.9 1 2.8.2 1 .7 1.4.4.5.3 1l.2 1.2q2.5 6.4 3.6 9.8.7 2.2 2.5 6.2 1 2.6 1.5 4.6.6 3.3 1 4.6 2.4 7.7 4 15.8a.3.3 0 0 1-.6.3q-2.6-3.9-5.8-7.3-12.6-13.8-25.4-24.3-20.6-17-33.3-25l-23.7-14.8q-8.7-5.2-16-8.5-2.2-1-4.5-1.3a.9.9 0 0 0-1 1.4q3 4.3 7.8 7.8 14.9 10.8 26 19.1 6.5 5 19.7 16.4 15.8 13.5 32 31.5c2.9 3.2 5.3 6.9 8.5 10.3q1.3 1.3 9.3 12.3 1.6 2.2 2.5 4.2c1.8 4 4 8 4.7 12.5a1 1-26.5 0 1-.4 1.2q-1.1 1-2.4 1.9l-21.2 13.2q-6.4 4-21.5 12.7-10.8 6.3-21.8 13.1-8.7 5.5-16.7 12.3a.5.5 0 0 0 .3.9zM412.7 453l-17.9 35q-7.8 15.4-12.6 30-5.3 16-9.5 31.3a.4.4 0 0 0 .6.5c1.1-.6 2-1.7 3-2.4q16.4-12 28-19.8 36.3-23.8 76.3-39.2 14-5.5 33.6-12.1 32.3-11 66.4-17.7 10.3-2 18.7-2.4l10-.6a.4.4 0 0 1 .5.4.4.4 80.4 0 1-.3.5l-11.7 2.5c-15.7 4.4-33.1 9-47 14q-39.3 14.2-74.5 37.6-6.2 4.1-21.5 15.3-3 2.2-6.4 5.4c-2.8 2.5-6.2 4.5-9 6.9q-7.4 6.5-14.6 12.3-11.4 9.2-14.7 12.4-13.7 13-21.4 22.5-7.5 9.2-14.2 19.3-7.7 11.2-9.4 24.4-.3 2.2 1.3 4.3 3.5 4.8 8.8 9 26 20.3 46.7 31.4 23 12.3 47.5 21.3c18.2 6.8 28.6 10.8 44.4 15.1q31.3 8.6 63 13.3a.8.8-69.6 0 1 .5 1.3q-.6 1-2 1.2-3.8.5-9.5.4-18.3-.5-25.8-1.6c-10.9-1.7-22.1-3.3-32.9-5.8q-29-6.7-57.1-17.2-14.3-5.4-28.3-11.5l1-.2a.7.7 54.4 0 0 .1-1.3q-3.2-2-5.7-4.7a5.2 4.8-2 0 0-.7-.6l-5.7-4q-16.4-10.7-35.3-21.5c-11.3-6.5-21.4-13-32-19.9q-2.5-1.6-3.7-3a3.1 3 34.8 0 1-.5-2.9q1.8-5.3 5-10.3 7.1-11 15.4-21.3l8.5-9.9q3.5-4 9-9.3 12.4-12.1 15.4-14.6c5.3-4.3 9-8.4 14.2-12.4 6.7-5.3 14-11.5 22.3-16.9q6-4 12.6-8.9c3.4-2.5 6.8-5.2 7.6-9.3a.5.5 0 0 0-.5-.6q-1.7 0-3 .5-17.4 8.3-34.3 19.1-14.5 9.3-29.2 20.7-13.3 10.3-26.8 23.7-8.8 8.7-15.6 17.6a.2.2-28.2 0 1-.4 0v-1c1.4-4.8 2.3-9.7 3.6-14.7 1.7-6.3 4.3-12.9 6.4-19.3q2-6 3.6-9.9 6.9-17.2 15.6-33.6l8.7-16.3q2.3-4.2 5-8c2.3-3.4 4-7.4 6.2-11q6-9.8 14.5-22 .8-1 1.2-2l.3-.6z"/><path d="M825 642.7q-.4 20.7-.2 42.5 0 6-1.4 15l.2-7.5a.6.6 0 0 0-.9-.5q-11 5.7-24 11.4-12.2 5.4-24.9 9.4a279 279 0 0 1-85.4 14.2c-5.8 0-10.7-.6-16.6-1q-2.7-.3-5-1.2a.7.7 0 0 1 0-1.4q1.3-.4 2.7-.6 28.3-3.1 54-8.8 18.1-4 33.7-10 3.4-1.3 22.8-9.7 10-4.3 17-9.4c5.4-4 12.1-7.5 17.5-12.9 2.3-2.2 4.6-6.7 5-9.4q.2-2.6-2.5-4.6-5.1-3.8-10.7-6.9a323 323 0 0 0-61.4-27.2q-26.8-8.1-57.4-13.1-28.6-4.7-52.7-7.4a860 860 0 0 0-110.5-3.6c-15.6.3-30.2 1.5-47.4 3.5-19.7 2.3-37.2 5.1-76.2 10.7q-2.5.3-5.2.2a.5.5 0 0 1-.2-1l2-.7q15.8-5.3 37-11.3 6-1.7 13.5-3 13.7-2.6 37.7-6.4 15.7-2.4 44.5-4.8 59.6-4.8 122 3 27 3.4 50.2 7.7 43.3 8 82 24.3 6.2 2.6 23.3 10.9 4 1.9 8.8 4.7zm31 51.6q-1-5.8-.9-11.6.3-20.5-.7-39.3 10.4-6.5 19-10.8 5.2-2.6 16.3-7.7 9.9-4.6 16.7-7 22.2-8 39-12.5c29.2-7.6 60-12.3 91.4-16.3q19.9-2.5 47.2-3.3 35.1-1 68.3 1.7a669 669 0 0 1 61.5 7.5q22.8 4.2 31.5 6.3 5.4 1.3 19 5.6l11 3q6.6 1.7 11.3 4a.5.5 0 0 1-.2.9c-2.7.4-5.1-.1-7.8-.6q-42-6.2-85.7-12-16.7-2.2-33-2.5-47.6-1-84.9 1.5-37.8 2.6-78.5 9.4-35 5.8-57.7 12.5-22.4 6.6-42.2 16.3-10.9 5.3-30.5 16.7-1.2.7-4 3.8-2.6 2.6-.9 6.4c2.4 5.7 7 8.9 12.7 13 9 6.4 16.7 11 28.2 16l16 6.8q19.4 8.2 43.4 13 22.1 4.5 51.5 8 .9.1 1.3.4a.7.7 0 0 1-.3 1.3c-6.4 1.5-15.4 2.3-23 2.3q-24.6 0-45-4.1c-9-1.8-13.9-2.6-21.5-4.8q-24.7-6.9-40.5-13.7-14.1-6-27.2-12.9a.6.6 0 0 0-1 .5z"/><path d="M857.5 707q2.8 2.6 4.8 5.4 1.4 2 4.6 4.5 5.2 4 13.3 10.8c20.2 17 43.8 29.9 69.6 39.2q39.1 14.1 78.7 19.7 24 3.4 54 4.4a247 247 0 0 0 141.8-38.7q29.3-18.8 53.1-43.9c4.3-4.5 9-10.3 13.6-15.4q4.5-5.1 13-18l2.1-2.4q1.4-1.5 1.4-3l35.6-17a.7.7 0 0 1 1 .7q-1.7 10-4.7 19.2c-2.1 6.2-3.6 11.3-5.7 16.6q-5.7 14.6-12.1 27.7-9.6 19.4-20.3 35.2l-6 8.8q-3.2 5-6 8.6-17 20.7-31.2 33-10.6 9-25 19c-7 4.8-16.3 9-24 13-8.5 4.2-16 6.4-27.7 9.9q-22 6.6-41.4 7.9-17 1-37.9-1.4-15.1-1.9-46.6-8.4l-1.8-.6a15 14.7 58.2 0 0-2.8-.7q-3.1-.5-5.7-1.3c-5-1.4-10.3-2.2-14.3-3.3q-13.8-3.7-31-8-13.4-3.3-20.1-5.6-6.2-2-13.4-4-5.4-1.6-13.1-4.7l-25.2-10q-4.6-1.8-7.6-3.4c-3.9-2.2-5.9-3-9.6-5.6l-11.6-7.7a40 40 0 0 1-9.4-8.6c-3-4-7.2-8.2-9.6-13.5l-.8-1.2q-2.4-2.3-4.1-5.6l-2.5-4.5q-4.5-8-6.2-13-3.2-9.5-6-17.2-2.5-7.3-3.2-17m-484.3-37.2q-.7.6 1 2.1a3.9 3.5 5.9 0 1 .7.8q9.2 13.6 13.2 18.8 3.3 4.3 14.8 17.1 7.5 8.3 15.9 15.7 17.3 15.3 32.6 25.4 10.8 7.1 25.4 14.6 40.2 20.6 85.7 25.3 14 1.4 21.7 1.6 7.3.3 21.6-.2 49-1.5 95.9-14.7 28.5-8 54.4-20.1 10.7-5 28.2-16.4 5.3-3.4 13-10l13-10.2c2.9-2.1 5.4-5 8.3-7.7q2.5-2.4 4.2-7.3-2.7 21.8-11.4 41.7-4.4 10.2-10 17.9-5.8 7.9-12.7 16.1c-5.7 6.8-13.4 11.3-22.6 16.8q-6.5 3.9-17 8.2-11.4 4.6-25.8 10c-8.8 3.3-18 5.5-27.3 8.5q-10.5 3.4-48.6 12.9c-5.2 1.3-11 2.1-15.6 3.3q-40.7 10.5-71.4 12.2-31.7 1.8-61.7-7.8-9.7-3.1-19.8-6.7c-7.7-2.8-13.4-6.2-21.7-10.4q-4.7-2.3-10.3-6.2-8-5.5-9.8-6.9-17.5-12.7-31-27.3-1.6-1.7-13.1-15.4-7-8.2-12-16-10-15.4-13.4-22-10.7-20.5-17.5-35.4-2.5-5.3-3.7-10.6-.2-.9-1.4-2.7a4.4 4.2 19.6 0 1-.4-1c-2.3-6-4.3-10.8-5.4-16.4q-1.6-8.5-2.9-13.2a.8.8 0 0 1 1.1-1z"/></g><g fill="#e68285"><path d="M824.9 489q.6 6.6.7 11l.5 30.5q.1 3.3-1 5.6-5-25.6-12-45-7-19.2-20.8-36a158 158 0 0 0-71.2-46.3q-9.8-3.3-33-7.3c-24.1-4.2-54.2-9.5-81.3-16a493 493 0 0 0-34.6-6.7q-9.7-1.5-22-1.7c-14-.4-25.4 2.4-39.6 6.8q-27.9 8.8-53.2 23.9-2 1.1-8 5.3-4 2.7-8.2 5.2a302 302 0 0 1 60.2-52 74 74 0 0 1 50.6-13.2c23.8 3.2 48.8 7.9 74 12.5 15.4 2.8 28.8 4.7 43.2 7.1l17.3 2.9q27.2 4.3 49 11.6 48.3 16.3 74.3 59.2 11.7 19.2 15 42.6m402.9-83.2 9.5 10.8-17.6-10.7q-4.1-2.6-25.7-12.7-13.5-6.4-34.2-11.9-13.9-3.7-23-4.1-11.5-.5-23.4.9-28.6 3.4-58.1 10.3c-23 5.3-41.7 9-59 12.2q-26.4 5-37.5 8.6-32.6 10.6-58.6 33.4a128 128 0 0 0-38 65.5q-1.5 5.7-6.3 28.2a1 1 9 0 1-.7.6q-.4 0-1-.4-.5-16.2 0-32.4.4-14.6 2.4-23.3A124 124 0 0 1 883 429q23.1-27.8 57.8-40.2 11.9-4.2 21-6.4c29.4-7.2 59.4-11.2 90-16.8q34.6-6.3 71.3-12 2.6-.4 12.1-1a74 74 0 0 1 45.6 15q25.1 17 46.8 38.2"/><path d="M438.3 482.3a.4.4 0 0 1-.4-.7c5.2-6.5 10.4-12.2 17.1-17.8q18.6-15.3 40-26.5 19.6-10.3 44.8-17.3 38.3-10.5 77-11 11 0 22.5 1.2 3.7.4 7.2 2a1 1 0 0 1 .1 1.7q-.5.4-1.7.7-20.4 4.6-26 5.3c-21.6 3-39.9 5.1-59.5 10q-23 5.6-33 8.9a342 342 0 0 0-57 26.4c-7.2 3.8-15.1 9.6-21.7 13.2q-5.2 2.8-9.4 3.9m805.1.9a.4.4 0 0 1-.4.6q-7-2.7-14-7.2-29.3-18.7-58-31c-18-7.9-34-11.7-56.6-17.2q-10.7-2.6-30.4-5.4-24.1-3.4-43.2-6.8-4.7-.8-7.5-1.8l-.5-.3a1.4 1.4 0 0 1 .8-2c10.3-3.2 22.2-3.4 33.7-3.1q41.3 1 81.3 13.4 42 13 76.2 41 10.5 8.7 18.6 19.8m-214.8 21.6a.6.6 0 0 1 0 1q-3.7 2.3-7.6 3.4l-31 8.4q-16.1 4.4-39.2 14.2-17.2 7.4-37.8 20.7-14.9 9.6-27.6 23a1.3 1.3 65.5 0 1-2.1-.9c-.3-4.7 3.3-10.6 6.2-14.1q7.9-10 20.6-18.7 28.8-19.5 61-29.5 18-5.6 40.6-7.7a52 52 0 0 1 17 .1m-376.6 1.8a1 1 0 0 1 .2-1.6q3.2-.8 7.5-.8a190 190 0 0 1 80.8 20.9q16.7 8.2 30.4 17.2c10.4 6.8 24.6 20.1 26 33.2a1 1 0 0 1-1.4 1c-1.8-.6-7.3-6.6-12.9-11.9q-4.6-4.4-16.9-12.6-12.6-8.4-29-16.7c-7.2-3.6-13.8-6-24.2-10.3q-7.1-3-22-7.5-5.2-1.6-33.6-8.9-2.6-.6-4.9-2"/></g><g fill="#8d9ab5"><path d="m1228.5 295.3-2.5-5.4a7 7-85 0 0-2.3-2.8q-10-7-19-12.2-32.7-19-44.6-25-15-7.6-41.8-20.4-19.4-9.2-37.4-16.8a155 155 0 0 1-15.7-8.1q-12.7-7.3-19.7-15.8-6.2-7.6-11.4-11.7l-1.3-17.6a.6.6 0 0 1 1-.5q6.4 6.3 15 11.9a244 244 0 0 0 33.3 17.8c45.4 20.3 93 43 135.4 66.8q23.6 13 50.5 28.7a.5.5 0 0 1-.1 1zM645.8 177l-8.2 8.6-5 5.4q-4.7 5.3-11.3 9.8-11.2 7.7-21.6 11.9c-5 2-9.3 4.7-14.4 6.5l-5.8 2.4q-39.5 18.5-50.8 24.1-25.3 12.7-48.2 26.3-9.1 5.4-15 8.7-6.6 3.7-16.7 13.3l-35.6-8.3a.8.8 32.6 0 1-.2-1.4l1.6-1.2c13.4-7 26.5-15.4 39.3-22.3l19.2-10.7c35.1-19.8 70.2-36 111.7-55q24.5-11.3 30-14.3 17.2-9.1 31.9-21.4a.3.3 0 0 1 .5.3q-.1 10-1.4 17.3M428.3 319.5c-6.3 1.3-13 1.8-19.2 3.4-28.4 7.5-53.5 13.6-79.2 26.8q-15.7 8-21.2 11.3-19.3 11.4-29.1 19-12 9.2-31.7 27.6a219 219 0 0 0-15.8 16.5q-19.1 23.3-34.9 49.4-12.9 21.4-21.8 43.9c-2.5 6.3-4.6 13.1-6.5 18.4q-2.5 6.7-4.4 14-6.6 24.6-9.6 50.5-1.5 10.5-2.2 20-1.6 20.6-2.2 45-.2 9.2.8 19v.4l-.2.2a.4.4 0 0 1-.7-.2q0-.3-.2-.4-3.1-21.2-5.5-42.5-4.4-38.2-1.3-76.8 1.8-22.7 6.6-43.2 12.4-52.8 40.9-97.2 10.6-16.5 21.8-30.4c5.2-6.5 12.2-14.2 19.8-21.3l14.2-13.2q15.8-12.6 34.6-23.5 14.8-8.5 31.6-14.7a239 239 0 0 1 48.8-12.8c11-1.5 22.2 0 34.5 2.4q16.3 3.3 32.1 8.4M1529.7 686q-1-18-1-35.7-.2-14.1-.5-20-.5-10.8-1.3-20.1-2.8-30.7-11.5-62.4c-2-7.3-5-14.5-8-23.2q-8.4-23.8-21.7-47.2c-5.2-9.1-12.6-19.8-17.2-26.9-4.7-7.3-9.6-13.1-14.8-19.8q-3-4-5.4-6.4c-5.2-5.3-9.5-10.6-14.4-15.4q-19-18-31.1-27.2-16.4-12.4-31.8-21.1-8.8-5-19.2-10.4-9.5-5-27.6-11.6c-6.2-2.4-16.1-5.8-25.3-8q-13.3-3.3-14.9-3.9c-3.3-1.1-6.3-2.4-9.7-3q-5.2-1-15-3.4-1.5-.3-6.7.5-1 .1-1.6 0-1.2-.2-.7-1c17-4.7 34.1-9.6 51.2-11.4a111 111 0 0 1 42.6 5.7q17.9 5 34.5 12.1 10 4.3 16.7 8.3c7.8 4.7 16 9 22.2 13.5q12.7 9 15 11 10 8.6 16.2 14.5 5.7 5.4 14.4 15.6 25.8 30.4 44.5 67.8a301 301 0 0 1 21.7 61.6c9.3 37 10.8 74 7.6 111.5q-2.4 27.9-7.2 56m95 336.4q-.7-1.8-.8-3.4a371 371 0 0 0-4.8-43.5c-1.5-7.8-3.7-23.2-6.5-34q-8.3-32-14.5-52-3.9-12.5-9.8-26.6-13.7-32.9-31.8-63.3-2.8-4.7-7-10.8l-7.3-10.7 4-25.2a.4.4 0 0 1 .8-.2c12.5 20 27.4 42.8 38.4 65.5q14.5 30.1 24 58.6A418 418 0 0 1 1623 935q5.2 28.5 5.4 58 .1 11.1-1.3 21.3-.3 2-2.4 8.1M138.1 778.2q-11.8 16-19 29.6-11.2 20.7-15.2 28.6Q88 867 78 901.9q-6.7 23-12 46.6l-3.3 16.9c-2.7 15.6-5.4 31-6.2 44.6-.3 5.7.8 11.2 1.4 17a70 70 0 0 1-5.8-30.4q-.5-28.8 4-55c4-24 9.1-47.7 16.9-70q12.5-36.2 26.8-63 14.5-27.2 33.5-55.7a.4.3 57.1 0 1 .7.1z"/></g><g fill="#3f334f"><path d="M824.9 489q-3.4-23.4-15-42.6-26-42.9-74.3-59.2-21.9-7.3-49-11.6l-17.4-2.9c-14.4-2.4-27.8-4.3-43.3-7.1-25.1-4.6-50.1-9.3-74-12.5a74 74 0 0 0-50.5 13.3 302 302 0 0 0-60.2 51.9q-11 12-21.7 25.2-1.8 2.2-6.8 9.6l-8.2 8.8-.3.6q-.4 1-1.2 2-8.4 12.2-14.5 22c-2.3 3.6-3.9 7.6-6.2 11q-2.7 3.8-5 8l-8.7 16.3c4.3-9.9 9-21.6 13.3-29.7q8-15 19.6-31 18.5-25.8 40.4-49.2 12.2-13.1 30.4-30.3 6.1-5.8 13.3-10c9-5.3 15.5-9.7 25.4-15.2q4.8-2.6 9.5-3.7c8.4-2 16.3-4 24.2-3.2 24.1 2.1 50.4 7.5 75.4 12 12.7 2.2 23.3 4.8 34.8 5.8s23.9 3.9 35 5.5c6.1.9 12.2 2.6 18.8 3.8q3.6.6 7.5 1.7 20 5.5 34 11 4.6 1.7 10.4 5c6.7 4 15.7 9 22 14.7q12.5 11.2 20.3 22.5c2.9 4.2 4.5 6 7.7 9.8q1.3 1.4 2.8 4 7.7 13.5 10 25.4 1 4.6 1.5 18.3m310.4-136.4q-9.5.6-12 1-36.8 5.7-71.5 12c-30.5 5.6-60.5 9.6-90 16.8q-9 2.2-21 6.4-34.6 12.4-57.7 40.2a124 124 0 0 0-26.6 51.8q-2 8.7-2.4 23.3-.5 16.2 0 32.4l.9 26.8a.4.4 0 0 0 .7.3 81 81 0 0 1 16.8-17.5q5-4 9.3-6.9 17.9-11.6 33.8-18.8 23-10.5 52.5-14.3l.2.1.2.3a.4.4 0 0 1-.2.5 225 225 0 0 0-79.1 41.9q-5.6 4.5-10.3 9.5-8.9 9.5-15.7 20.3-5 7.7-6.4 17l-1.2 7.6q-1 7.2-1.1 10.6-.6 14 0 29.5.9 18.8.6 39.3 0 5.8.8 11.6l1.6 12.7q.7 9.6 3.3 17l5.9 17q1.7 5 6.2 13l2.5 4.6q1.8 3.3 4 5.6l1 1.2c2.3 5.3 6.5 9.6 9.5 13.5 2.8 3.7 6.8 7 9.4 8.6l11.6 7.7c3.7 2.6 5.7 3.4 9.6 5.6q3 1.6 7.6 3.4l25.1 10q7.8 3.1 13.2 4.6 7.2 2 13.4 4.1 6.7 2.3 20.1 5.6 17.2 4.3 31 8c4 1 9.3 1.9 14.3 3.3q2.6.8 5.7 1.3a15 14.7 58.2 0 1 2.8.6l1.8.7q31.5 6.5 46.6 8.4 21 2.5 37.9 1.4 19.4-1.3 41.4-8a155 155 0 0 0 27.7-9.9c7.7-3.8 17-8.1 24-12.9q14.4-10 25-19 14.2-12.3 31.1-33 2.9-3.6 6.1-8.6l6-8.8q10.7-15.8 20.3-35.2 6.4-13 12.1-27.6c2.1-5.4 3.6-10.5 5.6-16.7q3.1-9.2 4.9-19.2a.7.7 0 0 0-1-.7l-35.7 17-4.4 1.8q-15.5 8-28.3 12.6-10 3.6-15 5.8l-2.4-.1a.5.5 0 0 1-.3-.9q8-6.8 16.7-12.3 11-6.8 21.8-13.1 15-8.6 21.5-12.7l21.2-13.2q1.3-.9 2.4-1.9a1 1-26.5 0 0 .4-1.2c-.8-4.5-3-8.5-4.7-12.5q-1-2-2.5-4.2-8-11-9.3-12.3c-3.2-3.4-5.6-7-8.5-10.3q-16.2-18-32-31.5-13.2-11.4-19.8-16.4-11-8.3-25.9-19.1-4.8-3.6-7.7-7.9a1 1 0 0 1 .9-1.3q2.3.4 4.5 1.3 7.3 3.3 16 8.5 3 1.7 23.7 14.8 12.7 8 33.3 25 12.8 10.5 25.4 24.3 3.2 3.4 5.8 7.3a.3.3 0 0 0 .6-.3q-1.6-8.1-4-15.8-.4-1.3-1-4.6-.4-2-1.5-4.6-1.8-4-2.5-6.2-1-3.4-3.6-9.8l-.2-1.1q0-.6-.3-1-.5-.5-.7-1.5-.5-2-1-2.8c-1.5-2.8-2.4-5.6-4.1-9.4q-3.6-8.2-13.5-27.2c-4-7.6-7.7-13.4-11.6-20.7q-2.2-4.1-10.8-17l-16.5-24.5q-3.5-5.2-7.8-8.4-11.9-15.4-24.6-28.6l-9.5-10.8q8.2 3.8 13.9 10.1 8 9 22.6 26.4 11 13 26.8 36c8.6 12.6 15.7 26.3 22.7 39.6a260 260 0 0 1 14.8 32.5q7.7 21.2 10.3 29.4 1.6 4.7 2.3 9.6 3 19 1.9 38.3-.2 2.6-1.6 8.6l-.4.9c-3.2 4.8-6.9 10.3-2.2 15.5a1 1 0 0 0 1 .3l2.6-1.1a2 2-8.3 0 1 2.8 2 155 155 0 0 1-14.3 51.7q-7 15.7-19.5 38-12 21.7-27 38-17 18.7-36.3 33.7-12.7 10-27.6 16.6l-28.2 12.7q-9.8 4.5-24 7.6a181 181 0 0 1-71.1 3.2 970 970 0 0 1-71.6-15.2q-15.4-4-39.2-9.8-34.8-8.6-67.8-25.2a105 105 0 0 1-36.4-28.5q-5.5-7.2-12.3-18.8a141 141 0 0 1-17.6-56.6q-1.1-10.7-1-37.3.4-35.1 2.6-58.8l2.3-23.9q.6-6.5-1.3-17.3c-1.3-7.3-4.2-20.1-4.6-30.6q-1.4-29.3 3.8-53.7 7-33.1 30.1-57.5Q893 413 906 403q5-3.9 9.6-6.3c3.9-2.1 10.2-6.3 16.4-8.3 18-5.9 34-11.4 51.1-14.3q3.5-.6 9.9-1.4c8.7-1 19.6-4.6 26.5-5q16.7-1 33.3-5.4 6.4-1.7 9.2-2c5.4-.5 8.6-.7 12.6-1.4 10.5-2 22.8-5.2 33.1-6.5 10-1.3 18.3-2.2 27.7.3M824 562.4l.7.4a.8.7-71.3 0 1 .4.7q-1.9 11.1-1 21 2.4 24 3 39.1c.7 25.4 1.5 48.7.2 72.3-2 37.1-18.9 75-49 97.6q-26 19.5-57.2 28.9-13.4 4-28.2 7.6-48.9 11.9-66 15.7c-31.7 7-58.8 13-88.5 12.5q-5.6 0-14.6-2.2-34.5-8-68.2-24.9a168 168 0 0 1-37.4-26.8 255 255 0 0 1-58.2-71q-9.6-18.2-17-39.7-7-20.5-8.4-39l.2-1 .8-1.2a2.7 2.6 68.7 0 0 .3-.8 49 49 0 0 0 .6-17.8q-.2-1.5.4-3.5c3.2-10 4.7-18.4 2.3-28.9a2.7 2.6 44.1 0 1 0-1l.1-1v.8a.2.2-28.2 0 0 .5.1q6.8-8.9 15.6-17.6 13.5-13.4 26.8-23.7 14.7-11.4 29.2-20.7 16.9-10.8 34.3-19 1.3-.6 3-.6a.5.5 0 0 1 .5.6c-.8 4-4.2 6.8-7.6 9.3q-6.6 5-12.7 9c-8.1 5.3-15.5 11.5-22.2 16.8-5.1 4-9 8.1-14.2 12.4q-3 2.5-15.4 14.6-5.5 5.3-9 9.4l-8.5 9.8q-8.3 10.3-15.4 21.3-3.2 5-5 10.3a3.1 3 34.8 0 0 .5 3q1.2 1.3 3.6 3a673 673 0 0 0 32.1 19.8q18.9 10.8 35.3 21.5l5.7 4a5.2 4.8-2 0 1 .7.6q2.5 2.7 5.7 4.7a.7.7 54.4 0 1-.2 1.3l-1 .2-48.4-20.6-35.8-16.5a.8.8 0 0 0-1 .9q1.2 4.7 2.8 13.2c1.1 5.6 3.1 10.4 5.4 16.5a4.4 4.2 19.6 0 0 .4.9q1.2 1.8 1.4 2.6 1.2 5.4 3.7 10.7 6.8 15 17.5 35.4 3.4 6.6 13.3 22 5.1 7.8 12 16 11.6 13.7 13.2 15.4 13.5 14.6 31 27.3l9.8 6.9q5.6 3.9 10.3 6.2c8.3 4.1 14 7.6 21.7 10.4q10.1 3.6 19.8 6.7 30 9.6 61.7 7.8 30.7-1.7 71.4-12.2c4.6-1.1 10.4-2 15.6-3.3q38-9.5 48.6-12.9c9.4-3 18.5-5.2 27.3-8.5q14.4-5.4 25.7-10 10.6-4.3 17.1-8.2c9.2-5.5 17-10 22.6-16.8q7-8.2 12.7-16.1 5.6-7.7 10-18 8.7-19.9 11.4-41.6l.6-4.2q1.4-9.1 1.4-15-.2-21.9.3-42.6 1-23.1-.4-38.6-.7-7.2-4.1-17-2.3-6.4-5.7-11.3a122 122 0 0 0-18.8-22.3q-19-16.5-34-25-3.2-1.9-14.3-7.7a156 156 0 0 0-30.6-12l-6.7-2a.2.2-38.1 0 1 .1-.4h2.6q11 1 24.8 4.8 30.2 8.5 57.5 26.4 11.6 7.6 20.5 15.7 3.7 3.4 8 9.1"/></g><g fill="#97a7c2"><path d="M1453 534.4q-2.6.2-3.3-.8-2.1-3.2-5.6-10-9-17.2-19.5-34.5a266 266 0 0 0-55.1-64.8q-33.4-27.8-71.8-45-2-.9-3.8-2.4l-.5-1q-.3-1.3.6-3.8a2 2 14.1 0 1 1.8-1 211 211 0 0 1 98.5 43c24.9 20.3 43 51.4 53 81.7a207 207 0 0 1 7.4 33.2q.6 3.6-.8 5zm-1066.4-158q-1.3 1.3-2.7 2c-12.5 6-28.2 14-39.8 21.5q-19.4 12.5-34.8 25.5-26.8 22.6-47.2 52.9-5.7 8.6-15.7 25.3-7.1 11.9-14.4 26.1-1.1 2.3-2.6 3.7a2.6 2.6-48.2 0 1-3.4.2c-1.7-1.3-1-5.6-.5-8.6 3-20.5 10-39.7 19.5-59a152 152 0 0 1 42.1-53 205 205 0 0 1 74.2-36.7q11.5-3 23.3-4.5a2 2 70.8 0 1 1.7.8q.4.8.6 3zm-233.3 641.1q-2.7-.4-3.4-3.2-1.7-6.5-2.2-10.1a221 221 0 0 1-2-61q1.3-11.9 4.8-25.5 6-24.2 15.5-47.2a415 415 0 0 1 28.5-58.7c1.2-2 5.2-8 7.3-4q.8 1.7 0 4.1-6.2 16.6-9.7 27-12 36.1-18.7 66c-3.8 17-9.1 40.3-12.4 61.4-2.6 16.8-4.8 30-5.8 45.2q-.2 2.7-.7 5.1a1 1-80 0 1-1.2.9m1372.7-.5q-1-1-1-2.7-3-38.2-10.8-76-4.4-21.1-13.3-56.2-8.1-32-21.5-66.5-.6-1.7-1.5-5.7v-.9q.3-1.4 1.8-2.2a2.2 2.1 55.7 0 1 2.7.6q1.8 2.2 3.8 5.6 11 18.1 20.5 40.3Q1518 879 1526 905q4.6 14.7 7.3 30.4c3.6 21.3 3.1 43.2-.4 64-1 6-2.2 13.9-4.7 17.4a1.4 1.4 40.4 0 1-2 .1M826 996.3l-.2 1.5-.4.3q-.6-.1-.8-.9a41 41 0 0 0-16.4-27 60 60 0 0 0-42.8-10.2q-21 3.3-40 8.6c-10 2.8-20.2 7-30.1 10.5q-7.7 2.8-11.8 4.7-30.1 14-52.8 39.2-13 14.6-17.4 34.2a.3.3 0 0 1-.5 0q-1.4-6.3-2.3-13.2-2.5-17.7 7.6-33 1.8-2.8 3.4-5.8c10.5-6.8 21.2-14.9 31-20.9l15-9q8.3-5 24.2-12.4 19.5-9 38.8-16.4 11.2-3 22-6.3 13.7-4.2 18.8-4.6c10.1-1 22.3.8 31.2 6 8.2 4.7 15.1 10.4 18 19.3q5 16 5.6 35.4m128.5-48.9q.9.8 2 1.3 31 12.6 53.6 25.4 20.4 11.5 41 26.5 5 3.8 11.4 6.8 1.2 3.6 2.7 7 2 4.3 2.6 6.8 3.5 12.7 3 25-1.2 7.7-4 13.8-.5-5.6-2.2-11.2-4.3-14.2-13.7-24.5-21.9-24-50.4-38.4-7.8-4-20.8-8.7-13.8-5-21.3-7.4-6.1-2-23.6-6.4-18.2-4.6-36.2-2.6-14.8 1.7-23.1 6.9-10.5 6.5-16.5 17.5-.5 1-2.1 5.9-1 3-2.5 5.7-1-17.5 3.7-33.3 2.8-9.6 9.5-15.9c17.3-16.2 38.2-13.5 59.2-7.2l25.8 7.4a1.3 1.2-39.8 0 0 .6 0q.6 0 1.3-.4m90.4 215.3q-.2.3-.6.4-.3 0-.7-.3-4.7-3.1-11.4-5.6-14.8-5.6-26-8.2-17.1-3.8-37.3-6.8l-30.6-4.6-32.6-5.4c-11.1-1.9-22.5-1.3-31 5.3q-4.6 3.6-9.6 12.7-6.4 11.5-10.9 25-2.2-20 .1-34.7 1.7-10.8 10.5-19 4.7-4.5 12.1-6.3c13-3 25.5-1.5 39 .4q57.1 7.7 72.5 10c15.4 2.4 28.8 5.4 42 12 5.3 2.8 8.1 4.9 10.1 10.3q2.7 7.3 4.4 13.4.2.5 0 1.4m-219 .9-.6 10a.6.6 0 0 1-1.2.2l-.3-1.2q-2.4-5.8-4.5-12.3-1.7-5.2-5.5-11.7c-5.3-9.2-13.3-16-24.2-17q-9.2-.7-19.3 1.3-27.5 5.7-57.5 9.3a336 336 0 0 0-38.4 6.1q-16 3.9-31.4 12.3-3 1.7-3.7 5-2.1 9.9-4.2 23.5-1.9-14.3-1.4-20.4.8-11.7 6-22.5c2-4.2 6.2-6.4 10.8-8.6q15-7.3 33.9-10.4c14.2-2.3 27.5-3.7 41.3-5.7q19.7-3 50.2-6.8c10.4-1.3 21-1.1 30.9 2.4 8.2 3 13.5 10.7 15.8 19 2.3 8.2 2.4 17 3.3 27.5m24.7 232q-.4-2.7-.2-5.3 1-14.2 2.5-45a79 79 0 0 1 12-39.6q1.9-3 5.6-5.9 11.9-9.3 27.8-11.4c11.3-1.5 28.1-2 42.3-3.7 13.1-1.6 26.8-5.1 40-7.8q6.2.2 12.3-.6h.8a.4.4 0 0 1 .1.7q-1 .8-4.4 2.8a166 166 0 0 1-48.8 18.8q-1.1.3-17.1 2.8t-26 6a41 41 0 0 0-21 17.4q-6.2 10-8.6 17.7-7.5 24-13.7 42.6a4.9 4.8 56.9 0 0-.2 1.1q-.5 5.6-3.5 9.4M715 1280.9q11.8 2.6 17.9 3.2 16.2 1.7 36.9 3.3 5 .4 12.9 1.6a55 55 0 0 1 27.3 11.2 45 45 0 0 1 13.8 25.3q1 5.2 1.5 14c.5 12.3.2 28.3 1.3 43.4q.4 6 .5 11.8l-.1.4-.4.3h-.2l-.5-.5q-1.8-10.2-5.8-23.4c-3-10-6.2-24-10.2-34.4a52 52 0 0 0-14.9-22.6q-10-8.1-22.9-10-21.3-3.3-32.6-5.5c-17.8-3.3-33.8-10-50.8-18.8q-2-1-4.7-2.9a.3.3 0 0 1 .2-.5l14.6 2.7q8 1.5 16.1 1.4"/></g></svg>