<svg xmlns="http://www.w3.org/2000/svg" viewBox="0 0 1192 1575"><g fill="none" stroke-width="2"><path stroke="#22273b" d="M213.7 0c-1.4 2.9-2.7 6.7-3.6 9q-12.6 30.3-20.7 56.6-20.5 66.8-39.9 142.9-11.2 44-16.8 70.6-6.4 29.6-12.7 61.3c-5.7 28-9.6 55-14.3 85.5a2138 2138 0 0 0-16.1 174.6q-1.2 23.8-.9 39 1.2 51.3 5.6 111.4c2.7 36.4 8.7 71.3 15.6 107.3 4.3 22.4 9.3 42 16.3 62.1 8.5 24.6 16.4 49.5 24.6 73.9 5.5 16.4 9.3 31.7 12 47.8q7.3 43.4 8.3 82.7.8 32.3 2 50.2 1.2 20.1 1 32.3a291 291 0 0 1-6 63.4q-3.8 16.9-13 52.7-9.3 35.9-16 73.2-5 27.7-7.1 51-2.3 25.7-2.8 51.5-.3 21.2 1.4 36 1 8.5 7.9 11.7 3.2 1.5 11.8 1.5h330.5c3.2 0 10.8.3 14.4-1.6 9.3-5 8.3-13.7 8.4-23.1q.6-40.7-4-74.8-6.4-47.6-15.8-90-5.2-23.5-7.4-38.6c-3.7-24-2.2-50.9 6.1-74.3q20.8-58.5 29.7-118.3 6.8-45 9.4-82.5 4.5-63.6 5.1-70.5 5-52.6 16.4-106.7 2.5-11.4 12-50.1c7.3-29.4 14.1-58.6 20-89.7l7.5-39.7q12.7-73.2 20-146.6.7-6.3 4.6-54.7 1.3-15.2 1.8-30l1-30a2.2 2.2 0 0 1 2.2-2.3h3.6a2.3 2.3 89.6 0 1 2.3 2.3c0 3.2.6 7.1.6 10q.5 27.6 2.7 52l3.6 42.3q5.1 60 14.6 119.2 10 63 20.7 112.7 4.3 19.9 17.5 73.5 7.8 31.5 11.6 52.2 9.6 52 13.6 105.1l4.9 65.2q2.8 39.6 9.5 78.5 6.3 36.5 15.8 68.6 2.5 8.4 12.2 38.2 4.4 13.3 5.5 20 4.1 25.1 2.2 45.4-1.4 14.8-4.4 30c-5.3 26.3-11.6 51.6-15.5 77q-5.1 33.6-6.9 52.1-2.1 22.7-1.5 59.7c.2 8.6 1.4 14.4 8.7 18q3 1.5 12.3 1.5h337.6c8.6 0 14.8-6.8 14.9-15.2 0-8.2 1.1-19 1-28.3q-.1-38.6-4.7-72-4.4-32-8-50.6-6.3-31.9-21.3-90-4-15.1-6.1-26.7c-6.2-32.5-6-68.6-3.5-100.1l.6-17.6q1-38 2.2-51.2 2.6-27.7 7.3-55.7 4.2-24.4 12-47.4c7-20.7 12.3-38.3 20.5-62.1 8.4-24.1 14-43.3 18.5-65.8q5.7-29 9.9-53.8 3.4-20.2 5.1-36.9 10-95.7 5.8-192.9c-1-24.2-3.1-49.4-5-72.6q-3.2-39.4-9.7-82c-3.4-22.1-5.9-44.2-10.4-67.5q-6.5-33.4-13.5-66.8-6.7-32.3-18.2-76.8l-12.2-47.3q-8-30.8-14.3-52L1041.9 75q-6.6-22-13.7-41.3-2.7-7.3-3.9-10l-.4-1.7q-4.5-11.4-9.5-22.1" vector-effect="non-scaling-stroke"/><path stroke="#575f7d" d="M241.5 0q10.4 12.2 21.8 22.7c10.4 9.6 21.6 18.6 30.9 27.5 17.8 17.2 31.6 30.3 44.4 46.2 4 4.9 9 10 13.5 15" vector-effect="non-scaling-stroke"/><path stroke="#48506f" d="M352.1 111.4c14.1 16.6 29.4 35.7 41.4 50.4q9.9 12 18.6 23.6 17.4 23.2 30.5 39.8 11.7 14.8 22.7 31c5.1 7.6 12.8 20.5 20.3 31.4q4.4 6.4 6 9.1 17.3 30.8 27.3 46 10.4 16 23.5 28.2 18.8 17.5 44.1 25.9 11.4 3.7 26 4 19.7.2 36.4-6.6a121 121 0 0 0 37-23.3q14.9-14.3 26.2-32.3c7.6-12 14.6-25 22-37.6q3.6-6.2 10.3-16.2l11.5-18q12.7-19.8 28.7-40.2 14.5-18.4 21.1-27.2 21-27.8 27.2-35.3 9.5-11.5 20.5-25.5 5-6.4 20-23.8" vector-effect="non-scaling-stroke"/><path stroke="#575f7d" d="M873.4 114.8q1.7-2.1 3.6-4.1c6.2-6.4 12-13.5 17.6-20.1q5-6 14.5-15.5c15-15 22.2-22.7 34.8-33.8l22.2-19.5q7.4-6.5 20.2-21.8m-8 39.3c-7.2 6.3-14.8 12.1-21.3 19q-2 2-2.4 5-1 10-.8 21.2 0 13 3 43 4.6 49.8 19.9 98.9 7.9 25.5 18.9 48 11.6 24 22.9 41.2 17.8 27.3 31.5 51.3 9.3 16.2 19 32.2" vector-effect="non-scaling-stroke"/><path stroke="#636d8b" d="M1069 399a635 635 0 0 1 32.6 68 .4.4 0 0 0 .7-.1q0-3-.4-5.9l-6.4-44.8c-4.5-31.4-11.7-68.2-16.7-93.2q-8.5-42.7-19.5-86.9-17.7-71.4-32.6-122.1-13.4-45.5-19-63.2-4.7-14.4-10.7-28.6a.7.7 55.8 0 0-1.2-.3l-17.5 17.4" vector-effect="non-scaling-stroke"/><path stroke="#8a96b3" d="M1069 399q1-4.8.2-11-3.8-26-5.2-32.3c-2.9-13-5.4-28.5-7.8-39.3-2.9-13.3-5-25-8.2-38.8q-14.5-60.8-17.1-70l-13.4-48.5-5.3-18.1c-4.7-15.4-9-31-13.9-45.2l-10.2-30c-2-5.5-3-10.8-5.6-16.6q-2.2-4.9-4.2-9.9" vector-effect="non-scaling-stroke"/><path stroke="#575f7d" d="M158.9 400.6c7.5-12.6 15-26.7 21.8-38l10.6-17.5 20.8-33.5c5.6-8.8 10.3-17.4 15.3-26.2q4.2-7.4 9.6-19.9 11.3-26.2 18.6-52.7 8.1-29.9 12-54.4 5-31.8 6.7-69.9.5-10.6-.8-25.5a8 8 0 0 0-3.2-5.7q-10.1-8.8-20.3-17.4" vector-effect="non-scaling-stroke"/><path stroke="#636d8b" d="m250 40-17.3-17.7a.5.5 0 0 0-.8.2q-6.2 14-10.8 27.9c-8 24.4-16.5 53.6-22.5 74.6a2412 2412 0 0 0-62.7 274.4c-3.2 19-6 40.6-8.5 56.6q-.9 6-1.3 10.6a.4.4-32.1 0 0 .9.2q9.4-23.8 22.8-49.1l9-17.1" vector-effect="non-scaling-stroke"/><path stroke="#8a96b3" d="M250 40q-3.4 7.4-6 15-10.4 30.5-18.5 55.4-5.1 15.5-21 71.6a2011 2011 0 0 0-26.4 106.3q-1.5 6.9-7.7 39.1-4 20.7-5 24.4c-2.1 8.7-3.2 18.1-5 29q-1 5.7-1.5 19.8" vector-effect="non-scaling-stroke"/><path stroke="#48506f" d="M484 787.2q14 50.1 22.4 101.5c.7 4.2 1 9.2 1.9 13.6a.4.4 0 0 0 .8 0q2.9-14.8 6.3-29.8c1.3-6 1.9-11.1 1.4-16.5q-2-23.6-4.2-46.6a492 492 0 0 0-5.5-37.7c-1.4-8.6-3.1-21.7-5.3-32.8q-7.4-38.2-10-50.9c-3.6-16.5-7.8-31.3-11.6-47-.7-3-2.2-6.7-2.9-10.4" vector-effect="non-scaling-stroke"/><path stroke="#575f7d" d="M477.3 630.6c-4-20.7-9.7-38-16.2-61.6q-5.9-21-11.2-37.3-9.4-29-20.8-67.6-3.3-11-11-34.6-8.7-26-11.2-34.6c-6.6-23-9.3-33.7-15.6-53.6l-7-22.7q-4.3-15.5-17.2-65.7-7.2-28.3-11-46.8-3.3-17-6.5-31.2-3.6-15.7-6.4-31.1c-.7-4.4-1-8.3-2.1-12a7.4 7.3 17.9 0 0-1.4-2.5c-12.8-15.9-23.9-27.3-43.2-47.6q-.5-.5-1-.5l-.4.3q0 3.7.6 7.5 3 21.3 5.9 47 2.2 18.8 10.3 72.2 3.4 22.9 8.8 51l9.8 50.8q8.8 41.6 18.9 81.3c5.8 23 13 46.7 19.8 69.6q10 34 26.9 80.3l32.5 87 3.3 8.9q17 43 32.2 86.8 8.5 24.3 20 63.3" vector-effect="non-scaling-stroke"/><path stroke="#6e7996" d="M477.3 630.6q-.1 10 1 19.8 6.9 56.3 6.9 113.7 0 3.8-.4 11.3-.2 5.6.2 11.4l-.7.5h-.3" vector-effect="non-scaling-stroke"/><path stroke="#48506f" d="m751.1 629-7.3 28.2q-4 15-6.9 28.3-7.9 36.9-11.4 57.8l-5.3 32q-2.8 17.3-4.4 32-3.5 34-4.5 47.7-.5 6.9.1 10.5.4 2.6 7.8 36.6 0 .3.2.4l.4-.1q1.7-14.2 4.4-28.5 8.1-43.1 19.4-85" vector-effect="non-scaling-stroke"/><path stroke="#575f7d" d="M743.6 789q10-35 22-68.8 15.8-45.2 30.2-81.8 2.4-6.2 5.3-14.6 1.8-5.2 5.6-14.6c4.5-11 9-24.6 13.8-37q7.7-20.2 19.1-51c5.2-14 8.6-26 13.7-41.2 5.7-17.2 10.7-36 16.8-56.2q3.3-10.7 7-25.2 10.9-42.9 14.3-58.4c8-36.5 16.7-81.1 23.3-122.8l6.7-42.8q5.2-36.6 6.3-47.1 1.8-18.5 3.7-30.2 1.5-9.5 2-15.5a.7.7 0 0 0-1.2-.5l-19.3 20.1q-9.1 9.6-24 27.3-1.8 2-2.2 4.6c-7 41.4-16.3 81.6-26.5 122.7q-8.1 32.8-17.7 66-17.4 60.7-35.7 118-7.9 24.4-11.2 35.8-5.5 18.5-11 35.8c-9.6 29.4-15.7 51.8-26.8 91q-4.2 14.6-6.7 26.4" vector-effect="non-scaling-stroke"/><path stroke="#6e7996" d="m743.6 789-.5-28.2q-.1-9 .2-18.3c.6-24.5 1.9-48.5 4.7-73.4l3-26.7q.6-5 .1-13.4" vector-effect="non-scaling-stroke"/><path stroke="#575f7d" d="m797.2 403 7.4-24.2q24.2-76 41.6-150 9.6-41.2 11.5-51.3l2.6-13.7a.5.5 0 0 0-.8-.4l-47.7 61.9a778 778 0 0 0-39.4 55.1q-2.6 4.2-2.7 5.9-.2 16 2.1 31l3.6 20.9c2.6 15 8 32 12.4 44.3q4 10.7 9 20.6l.4-.1m-366.3-.3.7-.4c3.2-6.5 8-16.7 10.4-25.2q1.2-4 5.6-17.1 2-6.2 4.5-17.5a276 276 0 0 0 6.5-52.2q.2-5.4-1.8-8.5-4.3-6.7-19.6-28L420.8 231l-4-5.2c-3.7-4.4-6.6-9-10-13q-5.8-7-11.7-15c-4.9-6.6-11.7-15.2-17.4-22.8q-4.7-6.3-8.2-10l-.9-.9a.5.5 0 0 0-.7.5q.8 6.5 2.8 15 7.7 32.4 14.7 64.7.8 4 7 26c3 10.6 6.2 24.2 9.2 34.5 3 10 6.7 26 10.6 38q10.5 32.2 14.7 47.8L430 402l.5.6.3.1" vector-effect="non-scaling-stroke"/><path stroke="#8d3f52" d="M847 560q-6 16.5-12.9 32.6a22 22 0 0 0-2 11.3q1 23.6 4 46.4 8.1 63.3 25 121.2 6 20.9 15 51.1 3 9.8 11 41 13.8 52.9 16.4 101.9" vector-effect="non-scaling-stroke"/><path stroke="#636d8b" d="M903.5 965.5q2.3 40.8-6.8 80.4c-3.4 14.7-8 28-14.7 40.6q-10 18.4-26.5 32-2.8 2.3-6.2 4.3" vector-effect="non-scaling-stroke"/><path stroke="#575f7d" d="M849.3 1122.8q-8.8 5.3-17 7.7-12 3.5-25.7 1.6-15.4-2.1-29.6-10.4" vector-effect="non-scaling-stroke"/><path stroke="#48506f" d="M777 1121.7q-5.7-3.5-8.9-6a142 142 0 0 1-33-42.8.3.3 0 0 0-.6.2c1.2 13.6 4 32.6 5.3 43.5q1 8 3.3 19.3 4.5 23.2 6.5 32.3a559 559 0 0 0 29.3 91.3q12 28.5 21.6 44.5c8.5 14 13.5 22.5 23.5 38.6q18.7 30.4 32.7 63.6" vector-effect="non-scaling-stroke"/><path stroke="#575f7d" d="m856.7 1406.2 4.7 15.3c9.7 32 13.9 66.1 13.8 99.8a1 1 0 0 0 .7.8h44.4a1 1 3.4 0 0 .9-.7q6.6-50 18.5-98.7 15.5-63.3 45.6-122.7l2.7-5.8" vector-effect="non-scaling-stroke"/><path stroke="#636d8b" d="M988 1294.2q3-6.2 9.8-18.2 4-7 12-23.6 9.3-18.7 15.8-39.6 2.7-9 3-17.4 2.1-32 2.9-60.4c.8-28.8 2.3-55.8 6.8-83.2a.4.4 0 0 0-.8-.3q-13.8 25.3-25.6 51" vector-effect="non-scaling-stroke"/><path stroke="#575f7d" d="M1011.9 1102.4c-4.5 10-8.8 21.8-11.8 30.2q-6.9 19.7-8.4 38.9-1.5 19.5-2.5 28.3-2.5 22.7-10.7 46.5-4.6 13.2-14 29.5-6.6 11.7-13.2 19.2c-1.5 1.8-3.2 3.2-5.5 2.5q-4-1.3-2.4-5.4 2.8-8 9.9-26.3 3.6-9.3 6.3-18.7 7.8-27.2 11.3-56.1 2.4-19 1.8-38" vector-effect="non-scaling-stroke"/><path stroke="#636d8b" d="M972.7 1153q-1.5-11-2.7-14.2-4-10.7-6.5-16.7c-2.6-6.5-3.8-10.8-6.6-19.3-16-46.8-15.6-97-4.5-144.7" vector-effect="non-scaling-stroke"/><path stroke="#8d3f52" d="M952.4 958.1q5.6-23.7 8.8-33.1 16.1-48 31.8-94 8.3-24.4 12.7-40a723 723 0 0 0 17.3-73q3-17.3 5.3-32.8c1.6-11.4 3.7-23.4 4.7-34.2q6.2-65.2 2.6-130.7l-1.6-29.6q-1-14.7-3-29.4" vector-effect="non-scaling-stroke"/><path stroke="#984e5d" d="M1031 461.3q-5.2-51.3-13-102.3-1-6-3.3-10.2c-7.6-13.8-19.7-31-27.8-46a418 418 0 0 1-44.1-130.5.4.4 0 0 0-.8 0q-1.4 7.6-2.4 16.7-.7 5.5-3.4 23.2l-8.4 48.4q-3.5 20.3-7.6 39.7l-8.3 39.6Q887 452.2 847 560" vector-effect="non-scaling-stroke"/><path stroke="#f4575a" d="M1031 461.3q-1.2 11.3-1.4 14.5-1.4 40.1-3 62.7-6.1 90.6-27.2 179.2-4.5 19.1-12.7 46-9 29.6-20.6 53.7a94 94 0 0 1-17.7 27.4c-9 8.7-23 9.2-32.6 1.3a55 55 0 0 1-7.7-9q-5.6-7.7-11.6-20.5-12.9-27-21.2-60c-4.9-19.2-8.7-33.7-13-53.6-2-10.1-3.2-18.8-5.3-30.7q-2-10.9-3.6-23.1-5-37.3-6.2-75.2-.2-4 .8-10.5.2-1.6-1-3.5" vector-effect="non-scaling-stroke"/><path stroke="#c07688" d="M952.4 958.1q-1-.9-2.4.7a.2.2 0 0 1-.4-.2q0-.8.3-1.5-1.5 3-3.8 6.1v.1h.1q1.6-1.4 2.5-3.6a.3.3 0 0 1 .4-.2.2.2 0 0 1 .2.4q-1 2.2-3.4 4.6-7 6.9-15.6 8.2-14 2.2-24-7-.9-.7-2-2.2a.4.4 0 0 0-.7 0q-.5.7-.1 2" vector-effect="non-scaling-stroke"/><path stroke="#8a96b3" d="M972.7 1153q-7.8 15.6-17.9 25.8-12.2 12.8-29.7 16.1-10.6 2-18.4.8-4.8-.6-10.7-2.5-8.7-2.8-10.2-3.7-25.3-15-32.8-43-3-11-3.7-23.7M988 1294.2q-.3.3-.5.2-.5-.2-.3-.8 3.4-9 5.9-18.2l2.6-10q6-22 7-27.7 3.5-17.6 6.5-43.2 1.4-11 1.7-17.5.4-9 1-17.5.4-6.6-.4-44.5 0-2 .4-5 .5-3.8 0-7.6" vector-effect="non-scaling-stroke"/><path stroke="#6e7996" d="M777 1121.7q4.6 39.8 8.6 63.2 3.2 18.5 11.3 46.5 2.8 9.7 6.8 19.6 6.4 15.8 7.9 19.1c10.3 22.5 16.3 35.1 21 46.6 2.6 6.1 4 11.2 6.1 17q1.3 3.5 2.6 8 9.6 31.6 15.4 64.5" vector-effect="non-scaling-stroke"/><path stroke="#8d3f52" d="M197.4 460q-2 17.7-3.3 39-3.1 51.5-1.7 98.5 1 38.7 5.3 71.6 2.9 22.1 5.8 39.4c7.8 46.6 21 91.8 36.5 136.8l23.1 67.6q5.9 17 13 45.8" vector-effect="non-scaling-stroke"/><path stroke="#636d8b" d="M276 958.7q5.4 23.6 7.2 47.8 3.2 42.3-7.8 83.1-5 18.5-16.3 48-1.8 4.9-3.3 16.9" vector-effect="non-scaling-stroke"/><path stroke="#575f7d" d="M255.8 1154.5q0 48.8 14 95.4c4.2 14 10.6 30 15.2 42.2.8 2.2.2 4.6-2.4 5.3s-4.7-1.3-6.4-3.4a143 143 0 0 1-23.8-41.4 232 232 0 0 1-12-43q-1.7-12.1-2.2-19.3l-1.6-22.5q-1.6-14.2-6.2-28.2-7.2-22-13.6-35.6" vector-effect="non-scaling-stroke"/><path stroke="#636d8b" d="M216.8 1104q-2.6-6.7-6.5-14.5l-15.2-30.3q-3.3-6-4.3-7.5a.4.4 0 0 0-.7.3q.7 3.4 2.7 20 .8 6.4 2.8 35.2 1 15.5 1.6 35.2.5 21.2 2.5 51.6.8 11.9 2.8 17.9 11.5 35.2 29.8 67.4l7.4 14.2" vector-effect="non-scaling-stroke"/><path stroke="#575f7d" d="M239.7 1293.5q.7 2.4 2.2 5.1a607 607 0 0 1 53.8 154c3.4 16 5.7 31.4 8.7 49q.8 4.6 2.6 20l.7.5H352l.5-.5q.2-17 2-36.3 3.8-41 17.2-79.6" vector-effect="non-scaling-stroke"/><path stroke="#48506f" d="M371.8 1405.7q11.1-27 25.8-51.7 13.1-22.2 21.4-35.7 8.6-14 12.6-21.4 8.4-15.7 11.2-22a585 585 0 0 0 38.4-120q4.1-20.1 5.8-30.6 4-24.4 6.7-50.9a.3.3 0 0 0-.5-.2q-5.4 10.5-12 19.8-9.2 13.4-22.7 24.4c-2.7 2.2-5.6 3.8-8.6 5.6" vector-effect="non-scaling-stroke"/><path stroke="#575f7d" d="M449.9 1123a79 79 0 0 1-41.4 9.7q-9.3-.6-16.9-3.7-5-2-13-6.4" vector-effect="non-scaling-stroke"/><path stroke="#636d8b" d="M378.6 1122.6q-25.3-18-37.5-47-8.4-20-12.6-44.8-5.9-34.7-3.6-68" vector-effect="non-scaling-stroke"/><path stroke="#8d3f52" d="M325 962.7q2.1-33 6.4-55.9c7.8-42 20-82.6 32.4-123.7q4.3-14.3 7.6-27.2l7-27.4q6.1-27.8 11.2-58.7c3.6-21.9 5.6-43.5 7-64.6q.4-5.4-.6-7.7-8-19.5-15.4-39.3" vector-effect="non-scaling-stroke"/><path stroke="#984e5d" d="M380.6 558.2q-21.8-59.3-37.7-113.9-22.2-76.4-37.6-157.8-3.5-18.2-6.7-36.4-4-22.4-6.3-36.6l-6.3-39.7a.4.4 0 0 0-.8 0q-5.9 34.8-17 68-12.1 36.5-34.3 74.4-8.5 14.5-20 31.8-2.2 3.4-3 8.8-8.3 51.4-13.5 103.2" vector-effect="non-scaling-stroke"/><path stroke="#f4575a" d="M380.6 558.2q-.9 5.4.4 10.6a5.2 5 37.9 0 1 .1 1v7q-1.1 29.3-4.1 56-1.6 14.5-5.2 36.2l-6 36q-5.5 25.7-15.5 61-8.6 30.6-21.4 56.2-5.6 11.4-8.7 15-6.4 7.7-8.2 9c-12.3 9.2-26.5 6.5-35.8-5q-5-6.2-9-13.5-7.8-14.4-13.4-29-13.2-34.5-24.1-76.7-7-27.3-15-73.6-6-34-9-64-1.2-11.2-3.3-35.4c-.6-7.7-.6-14.3-1.3-21.9q-.6-5.5-1-16.3l-1.3-31q-.1-5.2.4-12.2v-.4l-1.8-7.2" vector-effect="non-scaling-stroke"/><path stroke="#c07688" d="M325 962.7q-9 9.4-19.5 10.2h-2.3q-.8-.1-2.3.1c-3.2.4-9.6-2-12.2-3.7q-6.5-4.3-11-11.2a.8.8 0 0 0-1.5.1l-.2.5" vector-effect="non-scaling-stroke"/><path stroke="#8a96b3" d="M378.6 1122.6q.7 1.7.5 2.6l-1.7 11.4c-.7 5.4-2 9-3.4 14.6-1.6 5.5-4.3 11-8.4 15.7l-9 11.1a47 47 0 0 1-12.5 10.8 60 60 0 0 1-42.3 5.9q-9.7-2.9-15-5.7-5.8-3.2-12.8-9.7-3.2-3-7-8.7c-2.6-3.7-6.3-8-9-12.7l-2.2-3.4" vector-effect="non-scaling-stroke"/><path stroke="#6e7996" d="M371.8 1405.7q2.5-15 7.2-34.7 6.7-28.7 16.3-53.5 4.5-11.8 11.2-25.7 5.7-11.8 11.8-25.5 8.8-20 12.4-32.1 3.4-11.6 8-30.7 3.4-14.3 5.8-31.2 3.4-23 6.2-48.8 0-.5-.8-.5" vector-effect="non-scaling-stroke"/><path stroke="#8a96b3" d="M216.8 1104q-1 30.3-.3 59.6c.1 5.5 1 11.5 1 17.2-.1 1.5.5 3.3.6 4.3l2.1 20.6q1 9 2.2 16l2.9 15.8c1.4 7.8 3.8 14.7 5.5 23q.7 3.4 2.5 9 1.6 4.8 4 15.2a6 5.8-65.4 0 0 .4 1.3q1.7 3.7 2 7.5" vector-effect="non-scaling-stroke"/><path stroke="#48506f" d="M716 370q-11.5 12.9-24.8 24-7.4 6-17.4 12.3-13.9 8.8-30.2 12.6a2 2 0 0 0-1.2 1.7q3.2 61.5 9.2 123.9 4.1 42.6 10.4 83.6 7.3 48.2 13.4 80 6.4 33.7 19.1 88.8.8 3 2 5.3a.2.2 0 0 0 .5-.1l4-34.2q1.7-13.2 5.4-32.1l9.3-46.6" vector-effect="non-scaling-stroke"/><path stroke="#575f7d" d="M715.7 689.2q9.6-43.8 17-71.4 10.3-38 32-111C772 482 781.5 455.1 788 432q.9-2.4-.6-4.6c-6.5-9.8-10.6-19.6-16.2-32.4q-4.7-10.6-7.5-20.1-4.9-16.7-5.9-20.7-4.7-19-5.5-39.1a.6.6 0 0 0-.9-.6q-.7.4-1.2 1.3-4.1 6.4-7.5 12.5-11.8 22-26.8 41.7" vector-effect="non-scaling-stroke"/><path stroke="#6e7996" d="M715.7 689.2q-1 .2-.7-1.3.2-1.2.1-1.8-.7-7.9-1.7-13.2-7.4-36.9-10.6-58.4a707 707 0 0 1-8.5-94.6q-.3-20.6 1.9-43.3 4-41 11.7-75.7 2.6-11.6 6.9-25.4.4-1.3 0-2.3l.2-.8q.9-1 1-2.4" vector-effect="non-scaling-stroke"/><path stroke="#48506f" d="M512.2 688.5q4.4 21.4 8.6 43 4 20.6 5.4 32.4l4.1 32.6.8 5.6a.4.4 0 0 0 .9 0l2.8-9.8q1.4-4.9 7.3-32.5c4.8-23 9-41.8 12.7-62.3q9.2-52 16-102 2.3-16.8 3.1-26c1.6-17.6 3.9-35 5.4-53.8q4.3-51.2 7-94.9a1.4 1.4 0 0 0-1-1.4q-5.6-1.5-11.9-3.6-5.6-2-11.3-5-13-7.2-19-11.7-14.5-11-29.7-28" vector-effect="non-scaling-stroke"/><path stroke="#575f7d" d="m513.4 371.2-11.5-15.3q-3.2-4.2-8.6-13.5c-7.8-13.7-12.2-21.6-16.4-27.2a.5.5 0 0 0-.9.2q-.4 8.2-1.4 16.5-4 24.3-12 48.5-2.8 8.8-7.5 18.9-7.2 15.6-8.8 18.3-3.8 6.3-6.2 11a2 2 54.6 0 0-.2 1.3q.2 1.5 1.2 4.8c5.7 20.5 14 44.1 20.6 66.3q12.9 42.8 27.3 93.5 9.8 34.2 18 70.7l5.2 23.3" vector-effect="non-scaling-stroke"/><path stroke="#6e7996" d="M513.4 371.2q0 3.4.4 4.9 6.5 21 10.6 44.4 8.5 48.3 9.5 92.5.3 15.3-.3 23.7-3.7 56.2-14.2 113.7-3 16.6-6 32a3.4 3.2 48.6 0 0 0 .8q.3 3.2-1.2 5.3" vector-effect="non-scaling-stroke"/><path stroke="#98656e" d="M153.3 456q-10.7 23.6-19.5 49.8-13.6 40.8-16.7 81.5-1.4 17.2-1.6 40.7-.4 34.5.4 57.5 1.7 46.4 8 97.5 8 65.1 24.5 121.2a614 614 0 0 0 45.8 110.4q10 19 36 70.2A220 220 0 0 1 244 1117a.5.5-42.8 0 0 .9 0q8.8-21.5 14.2-45.5a196 196 0 0 0 5-46" vector-effect="non-scaling-stroke"/><path stroke="#984e5d" d="M264 1025.4q-.2-16.5-1.8-28.8c-5.3-39.9-18.2-80-31.7-117.4q-18.8-51.8-32.2-100.5-9.8-35.7-15.6-72a925 925 0 0 1-8.2-211.5q1.8-24.5 3.8-46.5.7-6.9 2.8-23.7c.4-2.8.5-6.8 1-10q1.4-8.9 2.3-16.7a.3.3 0 0 0-.4-.4q-.3 0-.5.4-16.4 28.1-30.2 57.7" vector-effect="non-scaling-stroke"/><path stroke="#ff7c76" d="M264 1025.4q-2 .4-2 1.5a1.8 1.5-4.6 0 1-1.5 1.7q-1.8.1-3.1.9a2 1.7 18.7 0 1-.4.2q-5.5 1.3-8.8.8c-14.6-1.9-27-13.5-34.7-25.7q-9.6-15.3-17.8-32-7.8-16-18-43.7-4.7-13-10.4-34A765 765 0 0 1 145 758.6c-5.5-64.6-8-132.6-4.4-197.5 1.9-34 6.3-64.7 12.5-97.7q.5-2.8.3-7.3" vector-effect="non-scaling-stroke"/><path stroke="#98656e" d="M964 1028c.4 28 6.7 55.8 16.7 81.8" vector-effect="non-scaling-stroke"/><path stroke="#636d8b" d="m980.7 1109.8 3 7.6a.5.5 0 0 0 .8 0l2-6" vector-effect="non-scaling-stroke"/><path stroke="#98656e" d="M986.4 1111.3q3.9-11.6 8.5-20.4 26-50.4 46-90 29.8-59 45.8-121.9 4.2-16.3 8.1-34.7 3.1-14.5 6.1-35 10-69 11.7-132.3c.5-19.1-.1-40.4 0-57a332 332 0 0 0-6.6-70.7q-4.3-20.6-8-32.6-8.7-28.7-23.4-60.8" vector-effect="non-scaling-stroke"/><path stroke="#984e5d" d="M1074.6 456q-13-29.7-29.6-57.3l-.5-.4-.4-.4a.2.2-76.2 0 0-.3.2q1.8 12.5 4.9 38.4 3.3 28.2 6 69.5 1.1 17.3 1.6 33 2 67.6-5.8 132.5-4 32.6-11.3 68.6-4.9 24-13.3 52.8-9.5 32.6-16.2 52.1l-21.9 63.3c-10 29-18 59.3-22.1 90.4q-1.5 10.7-1.6 29.3" vector-effect="non-scaling-stroke"/><path stroke="#ff7c76" d="M1074.6 456q-.3.6-.8 1.1a1 1 0 0 0-.1.9q3 8.6 3.3 12.3.4 5.3 1.1 8.8c1.9 9.3 2.8 16.8 5 30.3q2.6 16.5 4.2 40.8 3.6 53.5 2 107.3-1.5 53.8-7.4 116-4.5 48.4-14.8 96.2c-8.2 38-20.3 74.5-37.6 109.3q-7.4 14.8-14.7 26l-5 7a49 49 0 0 1-21.5 16.5q-11.8 4.6-21.7-1.6l-1-.7h-.8q-.7.6-.7 1.8" vector-effect="non-scaling-stroke"/><path stroke="#cb9ca4" d="m986.4 1111.3-5.7-1.5" vector-effect="non-scaling-stroke"/><path stroke="#984e5d" d="M790.8 710q-13.3 36.4-24.1 73.5" vector-effect="non-scaling-stroke"/><path stroke="#8d3f52" d="M766.7 783.5q-21 69-29.8 140.3a352 352 0 0 0-3.6 70.2q2.2 30 15.7 62.2a128 128 0 0 0 23.2 36.1q13.6 15 33 18.7 19.5 3.7 36-7.6l.9-.3h.4l.9-.3q2-1.8 3-3.4a3 2.8 84.7 0 1 .5-.6q11.6-11.3 18.7-25.9" vector-effect="non-scaling-stroke"/><path stroke="#984e5d" d="M865.6 1072.9q6-9.9 8.9-20.4 2-7.2 5.3-22 2.5-11 3.5-29.7 1-17 .5-27.7l-.7-14.5q-.5-10.7-1-14.4-3.5-32.3-10.2-59.6-7.5-30.3-10.1-39.3l-16.9-56q-20-66.2-28.7-134.9" vector-effect="non-scaling-stroke"/><path stroke="#98656e" d="m816.2 654.4-.9-8.2a.3.3 0 0 0-.4-.3q-.3.1-.5.5L790.8 710" vector-effect="non-scaling-stroke"/><path stroke="#ff7c76" d="m816.2 654.4.7 12.5v.4q-.6 4.5 0 6.4 3.2 11.8 3.7 23.4l-.1-.1a.5.2 37.5 0 1-.2-.3l-2.8-14.7q-1.5-7.7-9-8.8a1 1 0 0 0-.9.4q-2.4 3.1-3.4 5.6-3.8 10-9.7 27.4c-.8 2.3-1.1 4.1-3 5.9a.4.4-23.6 0 1-.6-.3l-.1-2.2" vector-effect="non-scaling-stroke"/><path stroke="#f4575a" d="m865.6 1072.9-11.9 17.7v-.1l12.4-21.7a.3.3 0 0 0-.4-.3l-.9.7a.1.1 0 0 1-.2-.1c2.5-5.7 6-11 7.8-16.4q1.1-3.7 3.1-7.8a.2.2 0 0 0-.3-.3c-3.6 2.1-7.4 6-11.2 8.5q-18.5 12-39.4 5.8c-21.2-6.3-36-24.6-45.5-44.3q-4.2-8.9-5-11a273 273 0 0 1-16-89q-.5-19.7 1.3-47.4c1.6-22.7 4.4-45.7 6.4-68.9q.3-3.3 1.5-10a.9.7 49.7 0 0 0-.4l-.6-4.4" vector-effect="non-scaling-stroke"/><path stroke="#8d3f52" d="M349.8 1035.8q5.4 29.3 22.4 52.7 6.5 9 16.4 15.7a48 48 0 0 0 48 2.4A74 74 0 0 0 466 1080a174 174 0 0 0 29.3-88.7q1.2-23.2-1-44.5-8.3-76.2-29.5-151.5l-1.9-6.5" vector-effect="non-scaling-stroke"/><path stroke="#984e5d" d="M463 788.8q-4.9-18.1-11-36.1a1222 1222 0 0 0-16.4-47.1c-4.9-12.9-9.8-28.2-15-41.4l-7.2-17.5a.5.5 0 0 0-.9.1c-.3 2.9-.2 5.6-.7 9q-8.2 63.3-26 124.3l-13 43.9q-8.2 27-15.8 58.9-8.2 34.1-11.2 64-2 20.2-1.3 42.4 0 1.9 1 18.3.7 12.6 4.4 28.3" vector-effect="non-scaling-stroke"/><path stroke="#f4575a" d="M463 788.8q-1.2 3.2-.8 7.5l5.4 57.7c1.5 15.2 2.4 33 2.7 44.3q.7 31.7-5.4 66.2-3 17.1-6.7 29-5.5 17.4-16.8 35-6.2 9.6-16.3 18.6-14.4 12.6-34.1 14a45 45 0 0 1-33.2-13.4q-5.9-5.5-8-12" vector-effect="non-scaling-stroke"/><path stroke="#575f7d" d="M166 1522.2h18.7l.6-.6q-2-34.7 1.1-68.8 2.3-25.8 10.7-66.8a4.3 4.3-81.5 0 1 4.5-3.5h.2a4 4 4.8 0 1 3.4 4.1q-3.1 42.2-3 83.5c.2 18.8 1.2 29.5 2.5 51.4l.6.6h80.9l.5-.7q-1-6-3.2-22.2a636 636 0 0 0-16-79.7 598 598 0 0 0-22.6-65.9 552 552 0 0 0-27.8-60l-.4-.4" vector-effect="non-scaling-stroke"/><path stroke="#636d8b" d="m216.7 1293.2-.5-1.2-11-21.2c-3-5.8-5-11-7.6-17.1a.4.4 0 0 0-.8 0q-3.5 23.9-9.8 47.4-12.7 47.7-21 89a512 512 0 0 0-10.2 131.8l.5.4 9.6-.1" vector-effect="non-scaling-stroke"/><path stroke="#8a96b3" d="m216.7 1293.2-.1 1.4-.5.8c-.9.8-1 2.6-1.7 3.9q-5 11.3-5.7 13.4c-2 6.8-5.1 13-7.1 19.7l-6 18q-2.9 9-5.5 18.2-4.7 16-8.2 29.3-6.5 24.5-10.6 49.1a466 466 0 0 0-5.5 59.5q-.3 7.8.1 15.7" vector-effect="non-scaling-stroke"/><path stroke="#575f7d" d="M1011.5 1293q-25.6 47.1-43 101.2-10.2 32-15.4 57.6a724 724 0 0 0-8.6 48.7l-3 21 .4.6h81l.4-.4a1005 1005 0 0 0-.3-135.5 3.5 3.5 0 0 1 3.6-3.7h.1a5 5 84.8 0 1 4.6 3.8q11.7 52.7 12.2 104.2.2 16.3-.8 31.3a.4.4 0 0 0 .4.4h20.1" vector-effect="non-scaling-stroke"/><path stroke="#636d8b" d="M1063.2 1522.2h8.6a1 1 0 0 0 .7-.7q2.2-51.8-5.5-102.3-6-39-13.2-67.4l-11.6-45q-6.8-26-10.7-52.5a.4.4 0 0 0-.8 0c-5.4 13.3-12.6 26-19.2 38.7" vector-effect="non-scaling-stroke"/><path stroke="#8a96b3" d="M1063.2 1522.2q-.6-28.6-3.8-57a474 474 0 0 0-8.9-50.6q-.6-3-5.8-22.4l-2.6-9.3c-2.3-7.5-3.8-15-6.4-21.7l-3.8-12.4q-6.5-21.6-18-48.9-1.4-3.4-2.4-6.9" vector-effect="non-scaling-stroke"/><path stroke="#48506f" d="M779.7 1306.9a.8.8-56.6 0 0-1.5.3c-2.7 29.1-9.7 59.4-15 86.8q-7.2 37.1-10.7 73.6a445 445 0 0 0-1.9 53.6 1 1 89.3 0 0 .8.8h103.3l.4-.5c-.3-36.5-3.8-73.4-17.5-108.3q-7-18.1-12.6-28-16.3-29.4-20.1-35.5-14-22.3-25.2-42.9m-331.5.4q-11.2 20.5-25 42.7-3.9 6.1-20.1 35.5-5.5 10-12.6 28c-13.7 34.8-17 71.7-17.4 108.2l.5.5 103-.1a1 1-89.3 0 0 .9-.8c.3-18.3 0-34.9-2-53.5q-3.5-36.5-10.7-73.6c-5.3-27.3-12.4-57.5-15.1-86.6a.8.8 0 0 0-1.5-.3" vector-effect="non-scaling-stroke"/><path stroke="#6e7996" d="M264.7 0q14.8 16.4 31.7 30.1c8 6.5 16.5 12.2 25.4 18.3q11 7.4 23.1 10.6 6 1.5 15.7.8c11.7-.8 20.4-9.7 24-20.4q5.2-15.4 4.6-31.2-.2-4-.9-8.2" vector-effect="non-scaling-stroke"/><path stroke="#575f7d" d="M427.9 0q1.9 23.6 7.3 44.8 5.9 23.1 15 49 16.5 47.7 36.8 93c5.5 12.3 10.8 22.7 17.4 36 1.6 3 3.3 6.6 6.8 8.3 6.3 2.9 4.4-6.1 3.4-8.5-4.3-11.5-7.5-22.2-12.1-35.2l-21.8-61Q465.9 85.5 455.3 44q-4.9-19-7.4-44m153.7 0q1.7 25.6 2.8 51.3 2.8 66.4 6 157.2 0 2.5 2 4.4a2.2 1.9 49.3 0 0 2.5.4c2.2-1.6 2.6-3.5 2.7-6.4q1.3-38.7 5.4-136.2 1.6-40 3.6-70.7m153.8 0q-2.2 22.2-8 45.3-6.7 26.3-12.6 44.7-9.8 30.3-14.5 43.3-15.6 42.3-31 87.5c-.9 2.6-2 4.9-2 8 0 1.6 1.5 3 3.4 2.4q3.9-1.4 5.3-4 1.4-2.5 10.4-20.4 5.8-11.6 10-20.7 23.8-52.6 41.7-107.5 9.2-28.5 13.7-51.3 2.5-12.4 3.7-27.3" vector-effect="non-scaling-stroke"/><path stroke="#6e7996" d="M839.6 0c-1.8 19.7.3 56 26.8 59.6q10.6 1.4 18.2-.9 15.6-4.7 30.8-17.2a4 3.8-76.1 0 1 .7-.5l2.6-1.3 7.4-5.1q3.2-2.3 6.9-5.6c5-4.6 10.3-8.7 15.9-14.1L961 2.7q1.1-1 1.6-2.5" vector-effect="non-scaling-stroke"/><path stroke="#494f62" d="M962.6.2q.8 0 1.3-.2" vector-effect="non-scaling-stroke"/><path stroke="#6e7996" d="M873.4 114.8q-4.5 1.3-6.2 2.9l-37.5 33.5q-22.1 20.4-57.2 55-6.1 6-13 13.7l-12.4 14-12 14.4q-15 18-33.8 33.8-36.1 30.3-82.8 32.1-16.3.7-35.7-3.7-16.6-3.9-32-12.4c-15-8.3-27-18.3-39.8-30.5q-6.3-5.9-18.4-20.3-21.7-25.8-44.6-48.8l-22-22q-8-8-22.7-21.2-20.4-18.3-40.6-36.8-4.7-4.3-10.6-7" vector-effect="non-scaling-stroke"/><path stroke="#3a4154" d="M962.3 0q0 .2.3.2" vector-effect="non-scaling-stroke"/><path stroke="#ff7c76" d="M938.4 640.9a1 1 0 0 0 1.7.3q.6-1 1.1-2.5 2-5.5 4.9-18 2.2-9.5 5.4-29 13-76.9 2.4-155.2c-.8-5.9-1.8-15.2-4.8-18.5a1 1 0 0 0-1.7.3q-.7 1.3-.9 3-.9 6.3-1.8 19.7l-2 33q-4.5 72.5-4.5 164 0 1.9.2 2.9m-649.2.4a1 1 0 0 0 .9-.7c.5-17.8-.4-37.8-.5-53-.4-50-2.4-102.8-6.5-154.6q-.6-7.4-1.6-14.7a1.3 1.3 0 0 0-2.2-.7q-1.5 1.8-2 4.5-11.8 66-5.5 130.6 3.2 32.9 10.3 66.9 2.1 9.9 5.4 20 .5 1.6 1.7 1.7" vector-effect="non-scaling-stroke"/><path stroke="#575f7d" d="M889.7 1297.1q0-2.1-1.2-4.1c-6.3-10.7-11.8-22.6-20.4-40.8q-11.7-24.6-20.2-57-2.5-9.5-5.8-25c-.6-3-2.4-6.5-5.5-7.5-4.9-1.5-7.8 2-8.5 6.5q-.6 4.5-.6 6.3.4 14.2 3.6 30.5c1.3 7 4.5 16.4 6.4 21.5q6 15.4 13.6 30.7 8.4 17 21.9 31.3 5.7 6.2 10.6 9.6 3.6 2.6 5.8-1l.3-1m-551.1-1.1c-.1 3 2.8 4.8 5.6 3.5q1.8-1 2.9-2 13.2-11.5 23-27.2 15.3-24.7 24-53.6 6.1-20 6.8-40.2c.2-4.4-.2-9.9-3.4-12.7-5.4-4.6-10.3 1.8-11.4 6.8q-5 24.5-12.2 47.7-2 6.5-4.6 13.2c-3.5 8.9-6.5 17-10.8 25-6.7 12.8-13 26.1-19.6 38.3l-.3 1.2" vector-effect="non-scaling-stroke"/></g><g fill="#141720"><path d="M213.7 0c-1.4 2.9-2.7 6.7-3.6 9q-12.6 30.3-20.7 56.6-20.5 66.8-39.9 142.9-11.2 44-16.8 70.6-6.4 29.6-12.7 61.3c-5.7 28-9.6 55-14.3 85.5a2138 2138 0 0 0-16.1 174.6q-1.2 23.8-.9 39 1.2 51.3 5.6 111.4c2.7 36.4 8.7 71.3 15.6 107.3 4.3 22.4 9.3 42 16.3 62.1 8.5 24.6 16.4 49.5 24.6 73.9 5.5 16.4 9.3 31.7 12 47.8q7.3 43.4 8.3 82.7.8 32.3 2 50.2 1.2 20.1 1 32.3a291 291 0 0 1-6 63.4q-3.8 16.9-13 52.7-9.3 35.9-16 73.2-5 27.7-7.1 51-2.3 25.7-2.8 51.5-.3 21.2 1.4 36 1 8.5 7.9 11.7 3.2 1.5 11.8 1.5h330.5c3.2 0 10.8.3 14.4-1.6 9.3-5 8.3-13.7 8.4-23.1q.6-40.7-4-74.8-6.4-47.6-15.8-90-5.2-23.5-7.4-38.6c-3.7-24-2.2-50.9 6.1-74.3q20.8-58.5 29.7-118.3 6.8-45 9.4-82.5 4.5-63.6 5.1-70.5 5-52.6 16.4-106.7 2.5-11.4 12-50.1c7.3-29.4 14.1-58.6 20-89.7l7.5-39.7q12.7-73.2 20-146.6.7-6.3 4.6-54.7 1.3-15.2 1.8-30l1-30a2.2 2.2 0 0 1 2.2-2.3h3.6a2.3 2.3 89.6 0 1 2.3 2.3c0 3.2.6 7.1.6 10q.5 27.6 2.7 52l3.6 42.3q5.1 60 14.6 119.2 10 63 20.7 112.7 4.3 19.9 17.5 73.5 7.8 31.5 11.6 52.2 9.6 52 13.6 105.1l4.9 65.2q2.8 39.6 9.5 78.5 6.3 36.5 15.8 68.6 2.5 8.4 12.2 38.2 4.4 13.3 5.5 20 4.1 25.1 2.2 45.4-1.4 14.8-4.4 30c-5.3 26.3-11.6 51.6-15.5 77q-5.1 33.6-6.9 52.1-2.1 22.7-1.5 59.7c.2 8.6 1.4 14.4 8.7 18q3 1.5 12.3 1.5h337.6c8.6 0 14.8-6.8 14.9-15.2 0-8.2 1.1-19 1-28.3q-.1-38.6-4.7-72-4.4-32-8-50.6-6.3-31.9-21.3-90-4-15.1-6.1-26.7c-6.2-32.5-6-68.6-3.5-100.1l.6-17.6q1-38 2.2-51.2 2.6-27.7 7.3-55.7 4.2-24.4 12-47.4c7-20.7 12.3-38.3 20.5-62.1 8.4-24.1 14-43.3 18.5-65.8q5.7-29 9.9-53.8 3.4-20.2 5.1-36.9 10-95.7 5.8-192.9c-1-24.2-3.1-49.4-5-72.6q-3.2-39.4-9.7-82c-3.4-22.1-5.9-44.2-10.4-67.5q-6.5-33.4-13.5-66.8-6.7-32.3-18.2-76.8l-12.2-47.3q-8-30.8-14.3-52L1041.9 75q-6.6-22-13.7-41.3-2.7-7.3-3.9-10l-.4-1.7q-4.5-11.4-9.5-22.1H1192v1575H0V0z"/><path d="M964 0q-.6.3-1.4.2-.3 0-.4-.2z"/></g><g fill="#7d87a4"><path d="M264.7 0q14.8 16.4 31.7 30.1c8 6.5 16.5 12.2 25.4 18.3q11 7.4 23.1 10.6 6 1.5 15.7.8c11.7-.8 20.4-9.7 24-20.4q5.2-15.4 4.6-31.2-.2-4-.9-8.2h39.6q1.9 23.6 7.3 44.8 5.9 23.1 15 49 16.5 47.7 36.8 93c5.5 12.3 10.8 22.7 17.4 36 1.6 3 3.3 6.6 6.8 8.3 6.3 2.9 4.4-6.1 3.4-8.5-4.3-11.5-7.5-22.2-12.1-35.2l-21.8-61Q465.9 85.5 455.3 44q-4.9-19-7.4-44h153.7q1.7 25.6 2.8 51.3 2.8 66.4 6 157.2 0 2.5 2 4.4a2.2 1.9 49.3 0 0 2.5.4c2.2-1.6 2.6-3.5 2.7-6.4q1.3-38.7 5.4-136.2 1.6-40 3.6-70.7h153.8q-2.2 22.2-8 45.3-6.7 26.3-12.6 44.7-9.8 30.3-14.5 43.3-15.6 42.3-31 87.5c-.9 2.6-2 4.9-2 8 0 1.6 1.5 3 3.4 2.4q3.9-1.4 5.3-4 1.4-2.5 10.4-20.4 5.8-11.6 10-20.7 23.8-52.6 41.7-107.5 9.2-28.5 13.7-51.3 2.5-12.4 3.7-27.3h39.1c-1.8 19.7.3 56 26.8 59.6q10.6 1.4 18.2-.9 15.6-4.7 30.8-17.2a4 3.8-76.1 0 1 .7-.5l2.6-1.3 7.4-5.1q3.2-2.3 6.9-5.6c5-4.6 10.3-8.7 15.9-14.1L961 2.7q1.1-1 1.6-2.5.8 0 1.3-.2h22.4q-12.8 15.3-20.2 21.8l-22.2 19.5c-12.6 11-19.9 18.8-34.8 33.8q-9.5 9.6-14.5 15.5c-5.6 6.6-11.4 13.7-17.6 20l-3.6 4.2q-4.5 1.3-6.2 2.9l-37.5 33.5q-22.1 20.4-57.2 55-6.1 6-13 13.7l-12.4 14-12 14.4q-15 18-33.8 33.8-36.1 30.3-82.8 32.1-16.3.7-35.7-3.7-16.6-3.9-32-12.4c-15-8.3-27-18.3-39.8-30.5q-6.3-5.9-18.4-20.3-21.7-25.8-44.6-48.8l-22-22q-8-8-22.7-21.2-20.4-18.3-40.6-36.8-4.7-4.3-10.6-7c-4.5-5-9.6-10.2-13.5-15.1-12.8-16-26.6-29-44.4-46.2-9.3-9-20.5-18-30.9-27.5Q252 12.2 241.5 0zm713.6 39.3q2 5 4.2 9.9c2.6 5.8 3.6 11 5.6 16.7l10.2 29.9c4.9 14.2 9.2 29.8 13.9 45.2l5.3 18.1 13.4 48.5q2.6 9.2 17.1 70c3.3 13.8 5.3 25.5 8.2 38.8 2.4 10.8 5 26.3 7.8 39.3q1.4 6.4 5.2 32.3.8 6.2-.3 11-9.6-16-18.9-32-13.7-24-31.5-51.4-11.3-17.3-23-41.2-11-22.5-18.9-48-15.2-49.1-19.9-98.9-2.8-30-3-43 0-11.3 1-21.1.2-3 2.3-5.2c6.5-6.8 14-12.6 21.3-18.9M250 40q10.2 8.5 20.3 17.3c1.8 1.6 3 3 3.2 5.7q1.3 14.9.8 25.5-1.7 38.1-6.7 69.9-3.9 24.5-12 54.4-7.3 26.5-18.6 52.7-5.4 12.5-9.6 19.9c-5 8.8-9.7 17.4-15.2 26.2L191.3 345l-10.6 17.4c-6.8 11.4-14.3 25.6-21.8 38q.5-14 1.5-19.7c1.8-10.9 2.9-20.3 5-29q1-3.7 5-24.4 6.2-32.2 7.7-39.1A2011 2011 0 0 1 204.5 182q15.9-56 21-71.6 8.1-25 18.5-55.4 2.6-7.6 6-15m227.3 590.6q-.1 10 1 19.8 6.9 56.3 6.9 113.7 0 3.8-.4 11.3-.2 5.6.2 11.4l-.7.5h-.3q-11.4-39.1-19.9-63.4-15.3-43.7-32.2-86.8l-3.3-9-32.5-86.9Q379.2 495 369 461c-6.7-23-14-46.6-19.7-69.6q-10.1-39.7-18.9-81.3l-9.8-50.8q-5.4-28.1-8.8-51-8.1-53.4-10.3-72.2-3-25.7-6-47-.4-3.8-.5-7.5a.4.4 0 0 1 .5-.3q.4 0 .8.5c19.4 20.3 30.5 31.7 43.4 47.6a7.4 7.3 17.9 0 1 1.3 2.5c1 3.7 1.4 7.6 2.1 12q2.8 15.4 6.4 31.1 3.2 14.2 6.6 31.2 3.7 18.5 11 46.8 12.8 50.2 17.2 65.7 1.2 4.4 7 22.7c6.2 20 9 30.7 15.5 53.6q2.5 8.6 11.1 34.6 7.8 23.5 11.1 34.6 11.4 38.5 20.8 67.6 5.3 16.3 11.2 37.3c6.5 23.6 12.1 40.9 16.2 61.6M743.6 789l-.5-28.2q-.1-9 .2-18.3c.6-24.5 1.9-48.5 4.7-73.4l3-26.7q.6-5 .1-13.4 2.5-11.8 6.7-26.5c11-39 17.2-61.5 26.7-91q5.6-17.2 11.1-35.7 3.3-11.4 11.2-35.9 18.3-57.2 35.7-117.8 9.6-33.3 17.7-66a1660 1660 0 0 0 26.5-122.8q.4-2.6 2.2-4.7 14.9-17.6 24-27.2l19.3-20.1a.7.7 0 0 1 1.2.5q-.5 6-2 15.5-2 11.8-3.7 30.2-1 10.5-6.3 47.1l-6.7 42.8c-6.6 41.7-15.3 86.3-23.3 122.8q-3.4 15.5-14.4 58.4-3.6 14.5-6.9 25.2c-6 20.3-11.1 39-16.8 56.2-5 15.1-8.5 27.2-13.7 41.2q-11.4 30.8-19.1 51c-4.8 12.4-9.3 26-13.8 37q-3.8 9.4-5.6 14.6-2.9 8.4-5.3 14.6-14.4 36.6-30.3 81.8-11.9 33.8-21.9 68.7M797.2 403a.3.3 0 0 1-.5 0q-5-9.8-8.9-20.5a276 276 0 0 1-12.4-44.3l-3.6-21q-2.3-14.9-2-31 0-1.6 2.6-5.8c11.6-18 24.6-36 39.4-55.1l47.7-61.9a.5.5 0 0 1 .8.4l-2.5 13.7q-2 10.1-11.6 51.2-17.4 74-41.6 150zm-366.3-.3h-.3l-.5-.7-3.2-11.3q-4.2-15.6-14.7-47.8c-3.9-12-7.6-28-10.6-38-3-10.3-6.2-23.9-9.2-34.5q-6.2-22-7-26-7-32.3-14.7-64.7-2-8.5-2.8-15a.5.5 0 0 1 .7-.5l1 .8q3.4 3.8 8 10c5.8 7.7 12.6 16.3 17.5 23q5.9 8 11.6 14.8c3.6 4.1 6.4 8.7 10 13q1.7 2 4 5.3 8.5 11.5 16.5 22.7 15.3 21.3 19.6 28 2 3 1.8 8.5a276 276 0 0 1-6.5 52.2q-2.5 11.3-4.5 17.5-4.4 13-5.6 17.1c-2.4 8.5-7.2 18.7-10.4 25.2zm284.8 286.5q-1 .2-.7-1.3.2-1.2.1-1.8-.7-7.9-1.7-13.2-7.4-36.9-10.6-58.4a707 707 0 0 1-8.5-94.6q-.3-20.6 1.9-43.3 4-41 11.7-75.7 2.6-11.6 6.9-25.4.4-1.3 0-2.3l.2-.8q.9-1 1-2.4 15-19.8 26.8-41.7 3.4-6 7.5-12.5.5-.9 1.2-1.3a.6.6 0 0 1 1 .6q.7 20 5.4 39 1 4 6 20.8 2.7 9.5 7.4 20.1c5.6 12.8 9.7 22.6 16.2 32.4q1.4 2.2.6 4.6c-6.6 23.1-16 50-23.4 74.8q-21.7 73-32 111-7.4 27.6-17 71.4m-202.3-318q0 3.4.4 4.9 6.5 21 10.6 44.4 8.5 48.3 9.5 92.5.3 15.3-.3 23.7-3.7 56.2-14.2 113.7-3 16.6-6 32a3.4 3.2 48.6 0 0 0 .8q.3 3.2-1.2 5.3l-5.2-23.3q-8.2-36.5-18-70.7-14.4-50.7-27.3-93.6c-6.6-22-15-45.7-20.6-66.2q-1-3.3-1.2-4.8a2 2 54.6 0 1 .2-1.3q2.4-4.7 6.2-11 1.6-2.7 8.8-18.3 4.7-10.1 7.5-19 8-24.1 12-48.4 1-8.2 1.4-16.5a.5.5 0 0 1 1-.2c4 5.6 8.5 13.5 16.3 27.2q5.4 9.3 8.6 13.5zm498.5 731.2q.5 3.8 0 7.5-.4 3-.4 5.1.8 38 .4 44.5-.6 8.5-1 17.5-.3 6.5-1.6 17.5-3.1 25.6-6.6 43.2-1 5.6-7 27.8l-2.6 9.8q-2.5 9.4-6 18.3-.1.6.4.8l.5-.2-2.7 5.8q-30 59.4-45.6 122.7-12 48.6-18.5 98.7a1 1 3.4 0 1-.9.7H876a1 1 0 0 1-.7-.8c0-33.7-4.1-67.8-13.8-99.8l-4.7-15.3q-5.8-33-15.4-64.6-1.3-4.4-2.6-7.9c-2.2-5.8-3.5-10.9-6-17-4.8-11.5-10.8-24-21.1-46.6q-1.5-3.3-8-19.1-4-9.9-6.7-19.6-8-28-11.3-46.5-4-23.4-8.6-63.2 14.2 8.3 29.6 10.4 13.7 1.9 25.7-1.6 8.2-2.4 17-7.7.8 12.7 3.7 23.7 7.5 28 32.8 43 1.5 1 10.3 3.7 5.8 1.9 10.6 2.5 7.8 1.1 18.4-.8a54 54 0 0 0 29.7-16q10-10.3 17.9-25.9.6 19-1.8 38-3.5 28.9-11.3 56.1-2.7 9.4-6.3 18.7-7.1 18.3-10 26.3-1.4 4.1 2.5 5.4c2.3.7 4-.7 5.5-2.5q6.6-7.5 13.3-19.2 9.3-16.3 13.9-29.5 8.2-23.8 10.8-46.5 1-8.8 2.4-28.3 1.5-19.2 8.4-38.9a411 411 0 0 1 11.8-30.2m-122.2 194.7q0-2.1-1.2-4.1c-6.3-10.7-11.8-22.6-20.4-40.8q-11.7-24.6-20.2-57-2.5-9.5-5.8-25c-.6-3-2.4-6.5-5.5-7.5-4.9-1.5-7.8 2-8.5 6.5q-.6 4.5-.6 6.3.4 14.2 3.6 30.5c1.3 7 4.5 16.4 6.4 21.5q6 15.4 13.6 30.7 8.4 17 21.9 31.3 5.7 6.2 10.6 9.6 3.6 2.6 5.8-1zm-673-193.1q6.4 13.7 13.6 35.6 4.6 14 6.2 28.2l1.6 22.5q.5 7.2 2.2 19.3c2.2 14.6 6.9 28.7 12 43a143 143 0 0 0 23.8 41.4c1.7 2.1 3.8 4 6.4 3.4s3.2-3 2.4-5.3c-4.6-12.1-11-28.3-15.2-42.2q-14-46.6-14-95.4 1.3 1.7 2.3 3.4c2.6 4.7 6.3 9 8.8 12.7q3.9 5.7 7 8.7 7.1 6.5 12.9 9.7 5.3 2.8 15 5.7c13.4 3.8 29.8.6 42.3-5.9a49 49 0 0 0 12.5-10.8l9-11.1a40 40 0 0 0 8.3-15.7c1.6-5.6 2.8-9.2 3.5-14.6l1.7-11.4q.2-1-.5-2.6 8 4.4 13 6.4 7.6 3.1 16.9 3.7c14.8.8 28.3-3 41.4-9.7q.8 0 .8.5-2.8 25.7-6.2 48.8-2.4 16.9-5.9 31.2-4.5 19.1-8 30.7-3.5 12-12.3 32-6 13.8-11.8 25.6-6.7 14-11.2 25.7-9.6 24.8-16.3 53.5-4.7 19.8-7.2 34.7-13.4 38.5-17.2 79.6-1.8 19.3-2 36.3l-.6.5h-44.3l-.7-.5q-1.8-15.4-2.6-20c-3-17.6-5.3-33-8.7-49-11-53-28.7-105.1-53.8-154q-1.5-2.7-2.2-5-.3-4-2-7.6a6 5.8-65.4 0 1-.5-1.3q-2.3-10.4-4-15.2-1.7-5.6-2.4-9c-1.7-8.3-4-15.2-5.5-23q-1.2-6-2.9-15.9-1.2-6.9-2.2-16l-2.1-20.5c-.1-1-.7-2.8-.7-4.3 0-5.7-.8-11.7-1-17.2q-.7-29.3.4-59.6m121.8 192c-.1 3 2.8 4.8 5.6 3.5q1.8-1 2.9-2 13.2-11.5 23-27.2 15.3-24.7 24-53.6 6.1-20 6.8-40.2c.2-4.4-.2-9.9-3.4-12.7-5.4-4.6-10.3 1.8-11.4 6.8q-5 24.5-12.2 47.7-2 6.5-4.6 13.2c-3.5 8.9-6.5 17-10.8 25-6.7 12.8-13 26.1-19.6 38.3zm672.9-3q1 3.5 2.5 7 11.4 27.2 18 48.8l3.7 12.4c2.6 6.8 4 14.2 6.4 21.7q.7 2 2.6 9.3 5.2 19.4 5.8 22.4a474 474 0 0 1 8.9 50.7q3.2 28.3 3.8 56.9h-20a.4.4 0 0 1-.5-.4q1-15 .8-31.3-.5-51.5-12.2-104.2a5 5 84.8 0 0-4.6-3.8h-.1a3.5 3.5 0 0 0-3.6 3.7 1005 1005 0 0 1 .3 135.5l-.5.4H942l-.5-.5q1.2-7 3-21.1a724 724 0 0 1 8.7-48.7q5.2-25.7 15.4-57.6 17.4-54 43-101.2M166 1522.2q-.5-7.9-.2-15.7c.7-20 2.2-40 5.5-59.5q4.1-24.6 10.6-49.1 3.5-13.2 8.2-29.3 2.6-9.2 5.6-18.1l5.9-18c2-6.8 5-13 7-19.8q.8-2.2 5.8-13.4c.6-1.3.8-3.1 1.7-3.9l.5-.8.1-1.4.4.4a552 552 0 0 1 27.8 60 598 598 0 0 1 22.6 65.9 636 636 0 0 1 16 79.7q2.1 16.1 3.2 22.2l-.5.7h-80.9l-.6-.6c-1.3-21.9-2.3-32.6-2.4-51.4q-.2-41.3 3-83.5a4 4 4.8 0 0-3.5-4h-.2a4.3 4.3-81.5 0 0-4.5 3.4q-8.4 41-10.7 66.8-3 34.1-1 68.8a1 1 0 0 1-.7.7z"/></g><g fill="#ff6565"><path d="M1031 461.3q-1.2 11.3-1.4 14.5-1.4 40.1-3 62.7-6.1 90.6-27.2 179.2-4.5 19.1-12.7 46-9 29.6-20.6 53.7a94 94 0 0 1-17.7 27.4c-9 8.7-23 9.2-32.6 1.3a55 55 0 0 1-7.7-9q-5.6-7.7-11.6-20.5-12.9-27-21.2-60c-4.9-19.2-8.7-33.7-13-53.6-2-10.1-3.2-18.8-5.3-30.7q-2-10.9-3.6-23.1-5-37.3-6.2-75.2-.2-4 .8-10.5.2-1.6-1-3.5 39.9-107.8 65-220l8.2-39.7q4-19.4 7.6-39.7l8.4-48.4q2.7-17.7 3.4-23.2 1-9 2.4-16.7a.4.4 0 0 1 .8 0c7.8 45.5 21.9 90 44 130.5 8.2 15 20.3 32.2 28 46q2.3 4.2 3.2 10.2 7.8 51 13 102.3m-92.6 179.6a1 1 0 0 0 1.7.3q.6-1 1.1-2.5 2-5.5 4.9-18 2.2-9.5 5.4-29 13-76.9 2.4-155.2c-.8-5.9-1.8-15.2-4.8-18.5a1 1 0 0 0-1.7.3q-.7 1.3-.9 3-.9 6.3-1.8 19.7l-2 33q-4.5 72.5-4.5 164 0 1.9.2 2.9m-557.8-82.7q-.9 5.4.4 10.6a5.2 5 37.9 0 1 .1 1v7q-1.1 29.3-4.1 56-1.6 14.5-5.2 36.2l-6 36q-5.5 25.7-15.5 61-8.6 30.6-21.4 56.2-5.6 11.4-8.7 15-6.4 7.7-8.2 9c-12.3 9.2-26.5 6.5-35.8-5q-5-6.2-9-13.5-7.8-14.4-13.4-29-13.2-34.5-24.1-76.7-7-27.3-15-73.6-6-34-9-64-1.2-11.2-3.3-35.4c-.6-7.7-.6-14.3-1.3-21.9q-.6-5.5-1-16.3l-1.3-31q-.1-5.2.4-12.2v-.4l-1.8-7.2q5.2-51.8 13.4-103.2.9-5.4 3.1-8.8 11.5-17.3 20-31.8 22.2-38 34.3-74.4 11.1-33.2 17-68a.4.4 0 0 1 .8 0q3 18 6.3 39.7 2.2 14.2 6.3 36.6 3.2 18.2 6.7 36.4 15.4 81.4 37.6 157.9 16 54.5 37.7 113.8m-91.4 83.1a1 1 0 0 0 .9-.7c.5-17.8-.4-37.8-.5-53-.4-50-2.4-102.8-6.5-154.6q-.6-7.4-1.6-14.7a1.3 1.3 0 0 0-2.2-.7q-1.5 1.8-2 4.5-11.8 66-5.5 130.6 3.2 32.9 10.3 66.9 2.1 9.9 5.4 20 .5 1.6 1.7 1.7"/><path d="M264 1025.4q-2 .4-2 1.5a1.8 1.5-4.6 0 1-1.5 1.7q-1.8.1-3.1.9a2 1.7 18.7 0 1-.4.2q-5.5 1.3-8.8.8c-14.6-1.9-27-13.5-34.7-25.7q-9.6-15.3-17.8-32-7.8-16-18-43.7-4.7-13-10.4-34A765 765 0 0 1 145 758.6c-5.5-64.6-8-132.6-4.4-197.5 1.9-34 6.3-64.7 12.5-97.7q.5-2.8.3-7.3 13.8-29.6 30.2-57.7.2-.3.5-.4a.3.3 0 0 1 .4.4q-.9 7.8-2.3 16.6c-.5 3.3-.6 7.3-1 10.1q-2.1 16.8-2.8 23.7-2 22-3.8 46.6c-5 70.2-3 141.6 8.2 211.4q5.8 36.3 15.6 72 13.4 48.7 32.2 100.5c13.5 37.3 26.4 77.5 31.7 117.4q1.6 12.3 1.9 28.8M1074.6 456q-.3.6-.8 1.1a1 1 0 0 0-.1.9q3 8.6 3.3 12.3.4 5.3 1.1 8.8c1.9 9.3 2.8 16.8 5 30.3q2.6 16.5 4.2 40.8 3.6 53.5 2 107.3-1.5 53.8-7.4 116-4.5 48.4-14.8 96.2c-8.2 38-20.3 74.5-37.6 109.3q-7.4 14.8-14.7 26l-5 7a49 49 0 0 1-21.5 16.5q-11.8 4.6-21.7-1.6l-1-.7h-.8q-.7.6-.7 1.8.1-18.6 1.5-29.3a463 463 0 0 1 22.2-90.4l22-63.3q6.6-19.5 16.1-52 8.4-29 13.3-52.9 7.3-36 11.3-68.6 7.8-65 5.8-132.5-.5-15.7-1.6-33-2.7-41.3-6-69.5-3-25.9-4.9-38.4a.2.2-76.2 0 1 .3-.2l.5.4.4.4q16.7 27.6 29.6 57.2M463 788.8q-1.2 3.2-.8 7.5l5.4 57.7c1.5 15.2 2.4 33 2.7 44.3q.7 31.7-5.4 66.2-3 17.1-6.7 29-5.5 17.4-16.8 35-6.2 9.6-16.3 18.6-14.4 12.6-34.1 14a45 45 0 0 1-33.2-13.4q-5.9-5.5-8-12-3.7-15.6-4.5-28.2l-1-18.3q-.6-22.2 1.4-42.5 3-29.8 11.2-64 7.6-31.9 15.8-58.8l13.2-43.8q17.8-61 26-124.4c.4-3.3.3-6 .6-8.9a.5.5 0 0 1 1-.1l7 17.5c5.3 13.2 10.2 28.5 15.1 41.4 5.8 15.2 12.5 35.3 16.5 47.1q6 18 10.8 36.1m402.7 284.1-11.9 17.7v-.1l12.4-21.7a.3.3 0 0 0-.4-.3l-.9.7a.1.1 0 0 1-.2-.1c2.5-5.7 6-11 7.8-16.4q1.1-3.7 3.1-7.8a.2.2 0 0 0-.3-.3c-3.6 2.1-7.4 6-11.2 8.5q-18.5 12-39.4 5.8c-21.2-6.3-36-24.6-45.5-44.3q-4.2-8.9-5-11a273 273 0 0 1-16-89q-.5-19.7 1.3-47.4c1.6-22.7 4.4-45.7 6.4-68.9q.3-3.3 1.5-10a.9.7 49.7 0 0 0-.4l-.6-4.4q10.8-37.1 24-73.5l.2 2.2a.4.4-23.6 0 0 .7.3c1.8-1.8 2.1-3.6 3-6q5.8-17.3 9.6-27.3 1-2.5 3.4-5.6a1 1 0 0 1 .9-.4q7.5 1 9 8.8l2.8 14.7a.5.2 37.5 0 0 .2.3q-.4-11.5-3.7-23.3-.5-2 0-6.4v-.4l-.6-12.5q8.8 68.7 28.7 134.8l16.9 56q2.6 9 10 39.4 6.8 27.3 10.4 59.6.4 3.7.9 14.4l.7 14.5q.4 10.7-.5 27.6-1 18.8-3.5 29.8-3.3 14.8-5.3 22-2.9 10.5-8.9 20.4"/></g><g fill="#303655"><path d="M241.5 0q10.4 12.2 21.8 22.7c10.4 9.6 21.6 18.6 30.9 27.5 17.8 17.2 31.6 30.3 44.4 46.2 4 4.9 9 10 13.5 15 14.1 16.6 29.4 35.7 41.4 50.4q9.9 12 18.6 23.6 17.4 23.2 30.5 39.8 11.7 14.8 22.7 31c5.1 7.6 12.8 20.5 20.3 31.4q4.4 6.4 6 9.1 17.3 30.8 27.3 46 10.4 16 23.5 28.2 18.8 17.5 44.1 25.9 11.4 3.7 26 4 19.7.2 36.4-6.6a121 121 0 0 0 37-23.3q14.9-14.3 26.2-32.3c7.6-12 14.6-25 22-37.6q3.6-6.2 10.3-16.2l11.5-18q12.7-19.8 28.7-40.2 14.5-18.4 21.1-27.2 21-27.8 27.2-35.3 9.5-11.5 20.5-25.5 5-6.4 20-23.8 1.7-2.1 3.6-4.1c6.2-6.4 12-13.5 17.6-20.1q5-6 14.5-15.5c15-15 22.2-22.7 34.8-33.8l22.2-19.5q7.4-6.5 20.2-21.8h28.1q5 10.7 9.5 22.1l.4 1.8q1.2 2.6 3.9 10 7 19.2 13.7 41.2l12.4 41.8q6.3 21.2 14.3 52l12.2 47.3q11.5 44.5 18.2 76.8 7 33.4 13.5 66.8c4.5 23.3 7 45.4 10.4 67.4q6.5 42.8 9.7 82.1c1.9 23.2 4 48.4 5 72.6q4.3 97.2-5.8 193-1.7 16.6-5.1 36.8-4.2 24.8-10 53.8a466 466 0 0 1-18.4 65.8c-8.2 23.8-13.6 41.4-20.6 62.1q-7.7 23-11.9 47.4-4.7 28-7.3 55.7-1.2 13.2-2.2 51.2l-.6 17.6a394 394 0 0 0 3.5 100.1q2.1 11.6 6 26.7 15 58.1 21.3 90 3.7 18.6 8 50.5 4.7 33.5 4.9 72c0 9.4-1 20.2-1.1 28.4a15 15 0 0 1-14.9 15.2H745.8q-9.4 0-12.3-1.5c-7.3-3.6-8.5-9.4-8.7-18q-.6-37 1.5-59.7 1.8-18.5 7-52.2c3.8-25.3 10.1-50.5 15.4-76.8q3-15.2 4.4-30 2-20.4-2.2-45.4-1.1-6.8-5.5-20-9.7-30-12.2-38.2-9.5-32.2-15.8-68.7-6.7-39-9.5-78.5L703 994q-4-53-13.6-105.1-3.8-20.7-11.6-52.2-13.2-53.6-17.5-73.5-10.7-49.7-20.7-112.7-9.5-59.1-14.6-119.2l-3.6-42.2q-2.2-24.5-2.7-52c0-3-.6-6.9-.6-10.1a2.3 2.3 89.6 0 0-2.3-2.3h-3.6a2.2 2.2 0 0 0-2.2 2.3l-1 30q-.5 14.8-1.8 30l-4.6 54.7q-7.3 73.4-20 146.6l-7.5 39.7c-5.9 31-12.7 60.3-20 89.7q-9.5 38.7-12 50.1-11.5 54.1-16.4 106.7-.6 7-5 70.5-2.7 37.5-9.5 82.5-9 59.8-29.7 118.3a158 158 0 0 0-6.1 74.3q2.2 15 7.4 38.6 9.4 42.4 15.8 90 4.6 34.1 4 74.8c-.1 9.3 1 18-8.4 23-3.6 2-11.2 1.7-14.4 1.7H150.3q-8.6 0-11.8-1.5-7-3.2-8-11.7-1.7-14.8-1.3-36 .5-25.8 2.8-51.5 2-23.3 7-51 6.8-37.3 16-73.2 9.3-35.8 13.1-52.7a291 291 0 0 0 6-63.4q.2-12.2-1-32.3-1.2-17.9-2-50.2-1-39.3-8.3-82.7c-2.7-16-6.5-31.4-12-47.8-8.2-24.4-16.1-49.3-24.6-73.9-7-20-12-39.7-16.3-62.1-7-36-13-71-15.6-107.3q-4.4-60-5.6-111.4-.3-15.2 1-39a2138 2138 0 0 1 16-174.6c4.7-30.5 8.6-57.5 14.3-85.5q6.3-31.6 12.7-61.3 5.6-26.6 16.8-70.7 19.4-76 40-142.8 8-26.3 20.6-56.6c.9-2.3 2.2-6.1 3.6-9zm736.8 39.3c-7.2 6.3-14.8 12.1-21.3 19q-2 2-2.4 5-1 10-.8 21.2 0 13 3 43 4.6 49.8 19.9 98.9 7.9 25.5 18.9 48 11.6 24 22.9 41.2 17.8 27.3 31.5 51.3 9.3 16.2 19 32.2c13 23.7 23.2 44.7 32.6 67.9a.4.4 0 0 0 .7-.1q0-3-.4-5.9l-6.4-44.8c-4.5-31.4-11.7-68.2-16.7-93.2q-8.5-42.7-19.5-86.9-17.7-71.4-32.6-122.1-13.4-45.5-19-63.2-4.7-14.4-10.7-28.6a.7.7 55.8 0 0-1.2-.3zM158.9 400.6c7.5-12.6 15-26.7 21.8-38l10.6-17.5 20.8-33.5c5.6-8.8 10.3-17.4 15.3-26.2q4.2-7.4 9.6-19.9 11.3-26.2 18.6-52.7 8.1-29.9 12-54.4 5-31.8 6.7-69.9.5-10.6-.8-25.5a8 8 0 0 0-3.2-5.7q-10.1-8.8-20.3-17.4l-17.3-17.6a.5.5 0 0 0-.8.2q-6.2 14-10.8 27.9c-8 24.4-16.5 53.6-22.5 74.6a2412 2412 0 0 0-62.7 274.4c-3.2 19-6 40.6-8.5 56.6q-.9 6-1.3 10.6a.4.4-32.1 0 0 .9.2q9.4-23.8 22.8-49.1zM484 787.2q14 50.1 22.4 101.5c.7 4.2 1 9.2 1.9 13.6a.4.4 0 0 0 .8 0q2.9-14.8 6.3-29.8c1.3-6 1.9-11.1 1.4-16.5q-2-23.6-4.2-46.6a492 492 0 0 0-5.5-37.7c-1.4-8.6-3.1-21.7-5.3-32.8q-7.4-38.2-10-50.9c-3.6-16.5-7.8-31.3-11.6-47-.7-3-2.2-6.7-2.9-10.4-4-20.7-9.7-38-16.2-61.6q-5.9-21-11.2-37.3-9.4-29-20.8-67.6-3.3-11-11-34.6-8.7-26-11.2-34.6c-6.6-23-9.3-33.7-15.6-53.6l-7-22.7q-4.3-15.5-17.2-65.7-7.2-28.3-11-46.8-3.3-17-6.5-31.2-3.6-15.7-6.4-31.1c-.7-4.4-1-8.3-2.1-12a7.4 7.3 17.9 0 0-1.4-2.5c-12.8-15.9-23.9-27.3-43.2-47.6q-.5-.5-1-.5l-.4.3q0 3.7.6 7.5 3 21.3 5.9 47 2.2 18.8 10.3 72.2 3.4 22.9 8.8 51l9.8 50.8q8.8 41.6 18.9 81.3c5.8 23 13 46.7 19.8 69.6q10 34 26.9 80.3l32.5 87 3.3 8.9q17 43 32.2 86.8 8.5 24.3 20 63.3m267-158.2-7.3 28.2q-4 15-6.9 28.3-7.9 36.9-11.4 57.8l-5.3 32q-2.8 17.3-4.4 32-3.5 34-4.5 47.7-.5 6.9.1 10.5.4 2.6 7.8 36.6 0 .3.2.4l.4-.1q1.7-14.2 4.4-28.5 8.1-43.1 19.4-85 10-35 22-68.7 15.8-45.2 30.2-81.8 2.4-6.2 5.3-14.6 1.8-5.2 5.6-14.6c4.5-11 9-24.6 13.8-37q7.7-20.2 19.1-51c5.2-14 8.6-26 13.7-41.2 5.7-17.2 10.7-36 16.8-56.2q3.3-10.7 7-25.2 10.9-42.9 14.3-58.4c8-36.5 16.7-81.1 23.3-122.8l6.7-42.8q5.2-36.6 6.3-47.1 1.8-18.5 3.7-30.2 1.5-9.5 2-15.5a.7.7 0 0 0-1.2-.5l-19.3 20.1q-9.1 9.6-24 27.3-1.8 2-2.2 4.6c-7 41.4-16.3 81.6-26.5 122.7q-8.1 32.8-17.7 66-17.4 60.7-35.7 118-7.9 24.4-11.2 35.8-5.5 18.5-11 35.8c-9.6 29.4-15.7 51.8-26.8 91q-4.2 14.6-6.7 26.4m46.1-226 7.4-24.2q24.2-76 41.6-150 9.6-41.2 11.5-51.3l2.6-13.7a.5.5 0 0 0-.8-.4l-47.7 61.9a778 778 0 0 0-39.4 55.1q-2.6 4.2-2.7 5.9-.2 16 2.1 31l3.6 20.9c2.6 15 8 32 12.4 44.3q4 10.7 9 20.6zm-366.3-.3.7-.4c3.2-6.5 8-16.7 10.4-25.2q1.2-4 5.6-17.1 2-6.2 4.5-17.5a276 276 0 0 0 6.5-52.2q.2-5.4-1.8-8.5-4.3-6.7-19.6-28L420.8 231l-4-5.2c-3.7-4.4-6.6-9-10-13q-5.8-7-11.7-15c-4.9-6.6-11.7-15.2-17.4-22.8q-4.7-6.3-8.2-10l-.9-.9a.5.5 0 0 0-.7.5q.8 6.5 2.8 15 7.7 32.4 14.7 64.7.8 4 7 26c3 10.6 6.2 24.2 9.2 34.5 3 10 6.7 26 10.6 38q10.5 32.2 14.7 47.8L430 402l.5.6zm416 157.3q-6 16.5-12.7 32.6a22 22 0 0 0-2 11.3q.9 23.6 3.8 46.4 8.2 63.3 25 121.2 6 20.9 15.1 51.1 3 9.8 11 41 13.8 52.9 16.4 101.9 2.3 40.8-6.8 80.4c-3.4 14.7-8 28-14.7 40.6q-10 18.4-26.5 32-2.8 2.3-6.2 4.3-8.8 5.3-17 7.7-12 3.5-25.7 1.6-15.4-2.1-29.6-10.4-5.7-3.5-8.9-6a142 142 0 0 1-33-42.8.3.3 0 0 0-.6.2c1.2 13.6 4 32.6 5.3 43.5q1 8 3.3 19.3 4.5 23.2 6.5 32.3a559 559 0 0 0 29.3 91.3q12 28.5 21.6 44.5c8.5 14 13.5 22.5 23.5 38.6q18.7 30.4 32.7 63.6l4.7 15.3c9.7 32 13.9 66.1 13.8 99.8a1 1 0 0 0 .7.8h44.4a1 1 3.4 0 0 .9-.7q6.6-50 18.5-98.7 15.5-63.3 45.6-122.7l2.7-5.8q3-6.2 9.8-18.2 4-7 12-23.6 9.3-18.7 15.8-39.6 2.7-9 3-17.4 2.1-32 2.9-60.4c.8-28.8 2.3-55.8 6.8-83.2a.4.4 0 0 0-.8-.3q-13.8 25.3-25.6 51c-4.5 9.8-8.8 21.7-11.8 30.1q-6.9 19.7-8.4 38.9-1.5 19.5-2.5 28.3-2.5 22.7-10.7 46.5-4.6 13.2-14 29.5-6.6 11.7-13.2 19.2c-1.5 1.8-3.2 3.2-5.5 2.5q-4-1.3-2.4-5.4 2.8-8 9.9-26.3 3.6-9.3 6.3-18.7 7.8-27.2 11.3-56.1 2.4-19 1.8-38-1.5-11-2.7-14.2-4-10.7-6.5-16.7c-2.6-6.5-3.8-10.8-6.6-19.3-16-46.8-15.6-97-4.5-144.7q5.6-23.7 8.8-33.1 16.1-48 31.8-94 8.3-24.4 12.7-40a723 723 0 0 0 17.3-73q3-17.3 5.3-32.8c1.6-11.4 3.7-23.4 4.7-34.2q6.2-65.2 2.6-130.7l-1.6-29.6q-1-14.7-3-29.4-5.2-51.3-13-102.3-1-6-3.3-10.2c-7.6-13.8-19.7-31-27.8-46a418 418 0 0 1-44.1-130.5.4.4 0 0 0-.8 0q-1.4 7.6-2.4 16.7-.7 5.5-3.4 23.2l-8.4 48.4q-3.5 20.3-7.6 39.7l-8.3 39.6Q887 452.2 847 560M197.4 460q-2 17.7-3.3 39-3.1 51.5-1.7 98.5 1 38.7 5.3 71.6 2.9 22.1 5.8 39.4c7.8 46.6 21 91.8 36.5 136.8l23.1 67.6q5.9 17 13 45.8 5.3 23.6 7.1 47.8 3.2 42.3-7.8 83.1-5 18.5-16.3 48-1.8 4.9-3.3 16.9 0 48.8 14 95.4c4.2 14 10.6 30 15.2 42.2.8 2.2.2 4.6-2.4 5.3s-4.7-1.3-6.4-3.4a143 143 0 0 1-23.8-41.4 232 232 0 0 1-12-43q-1.7-12.1-2.2-19.3l-1.6-22.5q-1.6-14.2-6.2-28.2-7.2-22-13.6-35.6-2.6-6.7-6.5-14.5l-15.2-30.3q-3.3-6-4.3-7.5a.4.4 0 0 0-.7.3q.7 3.4 2.7 20 .8 6.4 2.8 35.2 1 15.5 1.6 35.2.5 21.2 2.5 51.6.8 11.9 2.8 17.9 11.5 35.2 29.8 67.4l7.4 14.2q.7 2.4 2.2 5.1a607 607 0 0 1 53.8 154c3.4 16 5.7 31.4 8.7 49q.8 4.6 2.6 20l.7.5H352l.5-.5q.2-17 2-36.3 3.8-41 17.2-79.6 11.1-27 25.8-51.7 13.1-22.2 21.4-35.7 8.6-14 12.6-21.4 8.4-15.7 11.2-22a585 585 0 0 0 38.4-120q4.1-20.1 5.8-30.6 4-24.4 6.7-50.9a.3.3 0 0 0-.5-.2q-5.4 10.5-12 19.8-9.2 13.4-22.7 24.4-4 3.1-8.6 5.6a79 79 0 0 1-41.4 9.7q-9.3-.6-16.9-3.7-5-2-13-6.4-25.3-18-37.5-47-8.4-20-12.6-44.8-5.9-34.7-3.6-68 2.2-33 6.5-56c7.8-42 20-82.6 32.4-123.7q4.3-14.3 7.6-27.2l7-27.4q6.1-27.8 11.2-58.7c3.6-21.9 5.6-43.5 7-64.6q.4-5.4-.6-7.7-8-19.5-15.4-39.3-21.8-59.3-37.7-113.9-22.2-76.4-37.6-157.8-3.5-18.2-6.7-36.4-4-22.4-6.3-36.6l-6.3-39.7a.4.4 0 0 0-.8 0q-5.9 34.8-17 68-12.1 36.5-34.3 74.4-8.5 14.5-20 31.8-2.2 3.4-3 8.8-8.3 51.4-13.5 103.2M716 370q-11.5 12.9-24.8 24-7.4 6-17.4 12.3-13.9 8.8-30.2 12.6a2 2 0 0 0-1.2 1.7q3.2 61.5 9.2 123.9 4.1 42.6 10.4 83.6 7.3 48.2 13.4 80 6.4 33.7 19.1 88.8.8 3 2 5.3a.2.2 0 0 0 .5-.1l4-34.2q1.7-13.2 5.4-32.1l9.3-46.6q9.6-43.8 17-71.4 10.3-38 32-111C772 482 781.5 455.1 788 432q.9-2.4-.6-4.6c-6.5-9.8-10.6-19.6-16.2-32.4q-4.7-10.6-7.5-20.1-4.9-16.7-5.9-20.7-4.7-19-5.5-39.1a.6.6 0 0 0-.9-.6q-.7.4-1.2 1.3-4.1 6.4-7.5 12.5-11.8 22-26.8 41.7M512.2 688.5q4.4 21.4 8.6 43 4 20.6 5.4 32.4l4.1 32.6.8 5.6a.4.4 0 0 0 .9 0l2.8-9.8q1.4-4.9 7.3-32.5c4.8-23 9-41.8 12.7-62.3q9.2-52 16-102 2.3-16.8 3.1-26c1.6-17.6 3.9-35 5.4-53.8q4.3-51.2 7-94.9a1.4 1.4 0 0 0-1-1.4q-5.6-1.5-11.9-3.6-5.6-2-11.3-5-13-7.2-19-11.7-14.5-11-29.7-28-5.8-7.5-11.5-15.2-3.2-4.2-8.6-13.5c-7.8-13.7-12.2-21.6-16.4-27.2a.5.5 0 0 0-.9.2q-.4 8.2-1.4 16.5-4 24.3-12 48.5-2.8 8.8-7.5 18.9-7.2 15.6-8.8 18.3-3.8 6.3-6.2 11a2 2 54.6 0 0-.2 1.3q.2 1.5 1.2 4.8c5.7 20.5 14 44.1 20.6 66.3q12.9 42.8 27.3 93.5 9.8 34.2 18 70.7zM153.3 456q-10.7 23.6-19.5 49.8-13.6 40.8-16.7 81.5-1.4 17.2-1.6 40.7-.4 34.5.4 57.5 1.7 46.4 8 97.5 8 65.1 24.5 121.2a614 614 0 0 0 45.8 110.4q10 19 36 70.2A220 220 0 0 1 244 1117a.5.5-42.8 0 0 .9 0q8.8-21.5 14.2-45.5a196 196 0 0 0 5-46q-.2-16.6-1.8-28.9c-5.3-39.9-18.2-80-31.7-117.4q-18.8-51.8-32.2-100.5-9.8-35.7-15.6-72a925 925 0 0 1-8.2-211.5q1.8-24.5 3.8-46.5.7-6.9 2.8-23.7c.4-2.8.5-6.8 1-10q1.4-8.9 2.3-16.7a.3.3 0 0 0-.4-.4q-.3 0-.5.4-16.4 28.1-30.2 57.7m810.8 572c.3 28 6.6 55.8 16.6 81.8l3 7.6a.5.5 0 0 0 .8 0l2-6q3.8-11.7 8.4-20.5 26-50.4 46-90 29.8-59 45.8-121.9 4.2-16.3 8.1-34.7 3.1-14.5 6.1-35 10-69 11.7-132.3c.5-19.1-.1-40.4 0-57a332 332 0 0 0-6.6-70.7q-4.3-20.6-8-32.6-8.7-28.7-23.4-60.8-13-29.6-29.6-57.2l-.5-.4-.4-.4a.2.2-76.2 0 0-.3.2q1.8 12.5 4.9 38.4 3.3 28.2 6 69.5 1.1 17.3 1.6 33 2 67.6-5.8 132.5-4 32.6-11.3 68.6-4.9 24-13.3 52.8-9.5 32.6-16.2 52.1l-21.9 63.3c-10 29-18 59.3-22.1 90.4q-1.5 10.7-1.6 29.3M790.8 710q-13.3 36.4-24.1 73.5-21 69-29.8 140.3a352 352 0 0 0-3.6 70.2q2.2 30 15.7 62.2a128 128 0 0 0 23.2 36.1q13.6 15 33 18.7 19.5 3.7 36-7.6l.9-.3h.4l.9-.3q2-1.8 3-3.4a3 2.8 84.7 0 1 .5-.6q11.6-11.3 18.7-25.9 6-9.9 8.9-20.4 2-7.2 5.3-22 2.5-11 3.5-29.7 1-17 .5-27.7l-.7-14.5q-.5-10.7-1-14.4-3.5-32.3-10.2-59.6-7.5-30.3-10.1-39.3l-16.9-56q-20-66.2-28.7-134.9l-.9-8.2a.3.3 0 0 0-.4-.3q-.3.1-.5.5zm-441 325.8q5.4 29.3 22.4 52.7 6.5 9 16.4 15.7a48 48 0 0 0 48 2.4A74 74 0 0 0 466 1080a174 174 0 0 0 29.3-88.7q1.2-23.2-1-44.5-8.3-76.2-29.5-151.5l-1.9-6.5q-4.8-18.1-10.8-36.1c-4-11.8-10.7-31.9-16.5-47.1-4.9-12.9-9.8-28.2-15-41.4l-7.2-17.5a.5.5 0 0 0-.9.1c-.3 2.9-.2 5.6-.7 9q-8.2 63.3-26 124.3l-13 43.9q-8.2 27-15.8 58.9-8.2 34.1-11.2 64-2 20.2-1.3 42.4 0 1.9 1 18.3.7 12.6 4.4 28.3M166 1522.3h18.8l.6-.6q-2-34.7 1.1-68.8 2.3-25.8 10.7-66.8a4.3 4.3-81.5 0 1 4.5-3.5h.2a4 4 4.8 0 1 3.4 4.1q-3.1 42.2-3 83.5c.2 18.8 1.2 29.5 2.5 51.4l.6.6h80.9l.5-.7q-1-6-3.2-22.2a636 636 0 0 0-16-79.7 598 598 0 0 0-22.6-65.9 552 552 0 0 0-27.8-60l-.4-.4-.5-1.2-11-21.2c-3-5.8-5-11-7.6-17.1a.4.4 0 0 0-.8 0q-3.5 23.9-9.8 47.4-12.7 47.7-21 89a512 512 0 0 0-10.2 131.8l.5.4zm845.6-229.2q-25.6 47.1-43 101.2-10.2 32-15.4 57.6a724 724 0 0 0-8.6 48.7l-3 21 .4.6h81l.4-.4a1005 1005 0 0 0-.3-135.5 3.5 3.5 0 0 1 3.6-3.7h.1a5 5 84.8 0 1 4.6 3.8q11.7 52.7 12.2 104.2.2 16.3-.8 31.3a.4.4 0 0 0 .4.4h28.7a1 1 0 0 0 .7-.7q2.2-51.8-5.5-102.3-6-39-13.2-67.4l-11.6-45q-6.8-26-10.7-52.5a.4.4 0 0 0-.8 0c-5.4 13.3-12.6 26-19.2 38.7m-231.8 13.8a.8.8-56.6 0 0-1.5.4c-2.7 29.1-9.7 59.4-15 86.8q-7.2 37.1-10.7 73.6a445 445 0 0 0-1.9 53.6 1 1 89.3 0 0 .8.8h103.3l.4-.5c-.3-36.5-3.8-73.4-17.5-108.3q-7-18.1-12.6-28-16.3-29.4-20.1-35.5-14-22.3-25.2-42.9m-331.5.4q-11.2 20.5-25 42.7-3.9 6.1-20.1 35.5-5.5 10-12.6 28c-13.7 34.8-17 71.7-17.4 108.2l.5.5 103-.1a1 1-89.3 0 0 .9-.8c.3-18.3 0-34.9-2-53.5q-3.5-36.5-10.7-73.6c-5.3-27.3-12.4-57.5-15.1-86.6a.8.8 0 0 0-1.5-.3"/><path d="M448 0q2.4 25 7.3 44 10.6 41.5 25.4 82.4l21.8 61c4.6 13 7.8 23.7 12.1 35.2 1 2.4 3 11.4-3.4 8.5-3.5-1.7-5.2-5.2-6.8-8.3-6.6-13.3-11.9-23.7-17.4-36q-20.3-45.3-36.9-93-9-25.9-15-49Q429.9 23.6 428 0zm178.6 0q-2 30.6-3.6 70.7-4.1 97.5-5.4 136.2c0 3-.5 4.8-2.7 6.4a2.2 1.9 49.3 0 1-2.6-.4q-1.8-2-2-4.4-3.1-90.8-6-157.2-1-25.7-2.7-51.3zm173.9 0q-1.2 15-3.7 27.3-4.5 22.8-13.7 51.3-17.9 54.9-41.8 107.5-4.1 9-10 20.7L721 227.2q-1.4 2.6-5.3 4c-1.9.7-3.3-.7-3.4-2.5 0-3 1.1-5.3 2-7.9q15.4-45.2 31-87.5 4.7-13 14.5-43.3 5.9-18.4 12.5-44.7 5.9-23.1 8-45.3zM338.9 1294.8c6.7-12.2 13-25.5 19.6-38.3 4.3-8 7.3-16.1 10.8-25q2.5-6.7 4.6-13.2 7.2-23.2 12.2-47.7c1-5 6-11.4 11.4-6.8 3.2 2.8 3.6 8.3 3.4 12.7q-.7 20.1-6.7 40.2-8.8 28.9-24.1 53.6-9.8 15.8-23 27.3-1.1 1-3 1.9c-2.7 1.3-5.6-.4-5.6-3.5zm550.5 3.4q-2.2 3.5-5.8 1-4.9-3.5-10.6-9.7-13.5-14.3-22-31.3-7.5-15.3-13.5-30.7c-2-5-5-14.4-6.4-21.5q-3.2-16.3-3.6-30.5 0-1.7.6-6.3c.7-4.5 3.6-8 8.5-6.5 3.1 1 5 4.4 5.5 7.4q3.3 15.6 5.8 25 8.5 32.5 20.2 57.1c8.6 18.2 14.1 30 20.4 40.8q1.2 2 1.2 4.1z"/></g><g fill="#5f6a88"><path d="M388.3 0q.7 4.2.9 8.2.6 15.8-4.6 31.2C381 50 372.3 59 360.6 59.8q-9.7.8-15.7-.8-12.1-3.2-23-10.6a332 332 0 0 1-25.5-18.3Q279.5 16.4 264.7 0zm574 0q0 .2.3.2-.5 1.4-1.6 2.5L948.9 15c-5.6 5.4-11 9.5-16 14q-3.6 3.4-6.8 5.7l-7.4 5.1-2.6 1.3a4 3.8-76.1 0 0-.7.5Q900.2 54 884.6 58.7q-7.6 2.3-18.2.9C840 56 837.8 19.6 839.6 0zm-88.9 114.8q-15 17.4-20 23.8-11 14-20.5 25.5-6.1 7.5-27.1 35.3-6.7 8.8-21.2 27.2-16 20.4-28.7 40.3l-11.5 18q-6.7 10-10.3 16.2c-7.4 12.6-14.4 25.5-22 37.5q-11.4 18-26.2 32.3c-10.4 9.8-24 18.1-37 23.3q-16.7 6.8-36.4 6.5-14.6-.2-26-4-25.4-8.3-44-25.8-13.2-12.3-23.6-28.2-10-15.2-27.4-46-1.5-2.7-6-9.1c-7.4-10.9-15-23.8-20.2-31.4q-11-16.2-22.7-31-13.1-16.6-30.5-39.8-8.7-11.6-18.6-23.6c-12-14.7-27.3-33.8-41.4-50.4q5.9 2.8 10.6 7.1 20.2 18.5 40.6 36.8 14.7 13.2 22.7 21.2l22 22q23 23 44.6 48.8 12.1 14.4 18.3 20.3a193 193 0 0 0 40 30.5q15.3 8.5 32 12.4 19.3 4.4 35.6 3.8 46.7-2 82.8-32.2 18.8-15.8 33.9-33.8l12-14.3 12.4-14.2q6.8-7.7 12.9-13.6 35-34.6 57.2-55 9.4-8.6 37.5-33.5 1.7-1.6 6.2-2.9M716 370q-.1 1.4-1 2.4l-.2.8q.4 1 0 2.3-4.3 13.8-7 25.4-7.6 34.7-11.6 75.7-2.2 22.7-2 43.3c.5 31.6 3.8 61.6 8.6 94.6q3.2 21.5 10.6 58.4 1 5.3 1.7 13.2v1.8q-.3 1.5.5 1.3l-9.2 46.6q-3.7 18.9-5.3 32.1l-4.1 34.2a.2.2 0 0 1-.5 0q-1.2-2.1-2-5.2-12.7-55-19.1-88.7-6-31.9-13.4-80.1-6.3-41-10.4-83.6-6-62.4-9.2-124a2 2 0 0 1 1.2-1.6q16.3-3.8 30.2-12.6 10-6.2 17.4-12.4 13.3-11 24.8-24M512.2 688.5q1.5-2.1 1.2-5.3a3.4 3.2 48.6 0 1 0-.8q3-15.4 6-32 10.5-57.5 14.2-113.7.6-8.4.3-23.7-1-44.2-9.5-92.5-4.1-23.4-10.6-44.4-.4-1.5-.4-5 15.2 17 29.8 28 6 4.5 19 11.6 5.6 3.2 11.2 5 6.3 2.2 11.9 3.7a1.4 1.4 0 0 1 1 1.5q-2.7 43.6-7 94.8c-1.5 18.8-3.8 36.2-5.4 53.8q-.8 9.2-3 26-6.9 50-16.1 102c-3.7 20.5-8 39.3-12.7 62.3q-5.9 27.6-7.3 32.5l-2.8 9.8a.4.4 0 0 1-.9 0l-.8-5.6-4-32.6q-1.6-11.8-5.5-32.3-4.2-21.7-8.6-43M751.1 629q.5 8.4 0 13.4L748 669c-2.8 25-4 48.9-4.7 73.4q-.3 9.3-.2 18.3l.5 28.1q-11.2 41.9-19.4 85-2.7 14.3-4.4 28.5l-.4.1-.2-.4q-7.4-34-7.8-36.6-.6-3.6 0-10.5.9-13.7 4.4-47.7 1.6-14.7 4.4-32l5.3-32q3.5-20.9 11.4-57.8 2.9-13.2 6.9-28.3zM484 787.2l.3.1.7-.5q-.4-5.8-.2-11.4.4-7.5.4-11.3 0-57.4-6.8-113.7-1.2-9.7-1-19.8c.6 3.7 2 7.5 2.8 10.5 3.8 15.6 8 30.4 11.5 46.9q2.7 12.7 10.1 50.9c2.2 11.1 3.9 24.3 5.3 32.8 2.6 15.2 4.1 24.2 5.5 37.7q2.3 23 4.2 46.6c.5 5.4 0 10.5-1.4 16.5q-3.4 15-6.3 29.8a.4.4 0 0 1-.8 0c-1-4.4-1.2-9.4-1.9-13.6Q498 837.3 484 787.2m293 334.5q4.6 39.8 8.6 63.2 3.2 18.5 11.3 46.5 2.8 9.7 6.8 19.6 6.4 15.8 7.9 19.1c10.3 22.5 16.3 35.1 21 46.6 2.6 6.1 4 11.2 6.1 17q1.3 3.5 2.6 8 9.6 31.6 15.4 64.5-14-33.2-32.7-63.6c-10-16.1-15-24.6-23.5-38.6q-9.6-16-21.6-44.5a559 559 0 0 1-29.2-91.3q-2.1-9-6.7-32.4-2.1-11.2-3.2-19.2c-1.4-10.9-4.1-29.9-5.3-43.5a.3.3 0 0 1 .6-.2 142 142 0 0 0 33 42.7q3.2 2.6 8.9 6.1m-405.2 284q2.5-15 7.2-34.7 6.7-28.7 16.3-53.5 4.5-11.8 11.2-25.7 5.7-11.8 11.8-25.5 8.8-20 12.4-32.1 3.4-11.6 8-30.7 3.4-14.3 5.8-31.2 3.4-23 6.2-48.8 0-.5-.8-.5 4.5-2.5 8.6-5.6 13.5-11 22.8-24.4 6.5-9.3 11.9-19.7a.3.3 0 0 1 .5.1q-2.6 26.5-6.7 51-1.7 10.4-5.8 30.6a585 585 0 0 1-38.4 119.8q-2.8 6.4-11.2 22.1-4 7.4-12.6 21.4-8.3 13.5-21.4 35.7-14.7 24.7-25.8 51.7m407.9-98.8q11.3 20.5 25.2 42.8 3.8 6 20 35.4 5.6 10 12.7 28.1c13.7 34.9 17.2 71.8 17.5 108.3l-.4.5H751.4a1 1 89.3 0 1-.8-.8 445 445 0 0 1 1.9-53.6q3.5-36.5 10.7-73.6c5.3-27.4 12.3-57.7 15-86.8a.8.8-56.6 0 1 1.5-.4m-331.5.4a.8.8 0 0 1 1.5.3c2.7 29.1 9.8 59.3 15 86.6q7.3 37.1 10.9 73.6c1.8 18.6 2.2 35.2 1.9 53.5a1 1-89.3 0 1-.8.8l-103.1.1-.5-.5c.3-36.5 3.7-73.4 17.4-108.2q7-18 12.6-28 16.2-29.4 20-35.5 13.9-22.2 25.1-42.7"/></g><g fill="#96a4c1"><path d="M1069 399q1-4.8.2-11-3.8-26-5.2-32.3c-2.9-13-5.4-28.5-7.8-39.3-2.9-13.3-5-25-8.2-38.8q-14.5-60.8-17.1-70l-13.4-48.5-5.3-18.1c-4.7-15.4-9-31-13.9-45.2l-10.2-30c-2-5.5-3-10.8-5.6-16.6q-2.2-4.9-4.2-9.9L995.8 22a.7.7 55.8 0 1 1.2.3q6 14.2 10.6 28.6 5.7 17.7 19.1 63.2 15 50.7 32.6 122.1 11 44.2 19.5 86.9c5 25 12.2 61.8 16.7 93.2l6.4 44.8q.4 2.9.4 5.9a.4.4 0 0 1-.7 0 622 622 0 0 0-32.7-67.8M250 40q-3.4 7.4-6 15-10.4 30.5-18.5 55.4-5.1 15.5-21 71.6a2011 2011 0 0 0-26.4 106.3q-1.5 6.9-7.7 39.1-4 20.7-5 24.4c-2.1 8.7-3.2 18.1-5 29q-1 5.7-1.5 19.8l-9.1 17.1Q136.4 443 127 466.8a.4.4-32.1 0 1-.9-.2q.4-4.6 1.3-10.6c2.4-16 5.3-37.5 8.5-56.6A2412 2412 0 0 1 198.6 125c6-21 14.4-50.2 22.5-74.6q4.7-14 10.8-28a.5.5 0 0 1 .8 0zm702.4 918.1c-11 47.7-11.5 98 4.5 144.7 2.8 8.5 4 12.8 6.6 19.3l6.5 16.7q1.2 3.3 2.7 14.2-7.8 15.6-17.9 25.8-12.2 12.8-29.7 16.1-10.6 2-18.4.8-4.8-.6-10.7-2.5-8.7-2.8-10.2-3.7-25.3-15-32.8-43-3-11-3.7-23.7 3.4-2 6.2-4.3 16.5-13.6 26.5-32a160 160 0 0 0 14.7-40.6q9.1-39.7 6.8-80.4-.4-1.3.1-2a.4.4 0 0 1 .7 0q1.1 1.5 2 2.2 10 9.2 24 7 8.6-1.4 15.6-8.2 2.4-2.4 3.4-4.6l-.1-.3a.3.3 0 0 0-.5.1q-1 2.2-2.5 3.6h-.1v-.1q2.3-3.1 3.8-6-.3.6-.3 1.4a.2.2 0 0 0 .4.2q1.4-1.6 2.4-.7M325 962.7q-2.4 33.4 3.5 68 4.2 25 12.6 44.9 12.2 29 37.5 47 .7 1.7.5 2.6l-1.7 11.4c-.7 5.4-2 9-3.4 14.6q-2.3 8.5-8.4 15.7l-9 11.1a47 47 0 0 1-12.5 10.8 60 60 0 0 1-42.3 5.9q-9.7-2.9-15-5.7-5.8-3.2-12.8-9.7-3.2-3-7-8.7c-2.6-3.7-6.3-8-9-12.7l-2.2-3.4q1.5-12 3.3-16.8 11.3-29.6 16.3-48 11-41 7.8-83.2-1.8-24.2-7.2-47.8l.2-.5a.8.8 0 0 1 1.4 0q4.6 6.8 11.1 11.1c2.6 1.7 9 4.1 12.2 3.7q1.5-.2 2.3 0h2.3q10.6-1 19.4-10.3M988 1294.2q-.3.3-.5.2-.5-.2-.3-.8 3.4-9 5.9-18.2l2.6-10q6-22 7-27.7 3.5-17.6 6.5-43.2 1.4-11 1.7-17.5.4-9 1-17.5.4-6.6-.4-44.5 0-2 .4-5 .5-3.8 0-7.6 11.8-25.6 25.6-50.9a.4.4 0 0 1 .8.3c-4.5 27.4-6 54.4-6.8 83.2q-.8 28.4-2.9 60.4a74 74 0 0 1-3 17.4q-6.5 21-15.7 39.6-8.2 16.6-12 23.6-6.8 12-10 18.2M216.8 1104q-1 30.3-.3 59.6c.1 5.5 1 11.5 1 17.2-.1 1.5.5 3.3.6 4.3l2.1 20.6q1 9 2.2 16l2.9 15.8c1.4 7.8 3.8 14.7 5.5 23q.7 3.4 2.5 9 1.6 4.8 4 15.2a6 5.8-65.4 0 0 .4 1.3q1.7 3.7 2 7.5l-7.4-14.2q-18.3-32.2-29.8-67.4-2-6-2.8-17.9-2-30.4-2.5-51.6-.5-19.7-1.6-35.2-2-28.8-2.8-35.2-2-16.6-2.7-20a.4.4 0 0 1 .7-.3l4.3 7.5 15.2 30.3q3.9 7.8 6.5 14.5m769.6 7.3-1.9 6a.5.5 0 0 1-.9 0l-3-7.5zm-769.7 181.9-.1 1.4-.5.8c-.9.8-1 2.6-1.7 3.9q-5 11.3-5.7 13.4c-2 6.8-5.1 13-7.1 19.7l-6 18q-2.9 9-5.5 18.2-4.7 16-8.2 29.3-6.5 24.5-10.6 49.1a466 466 0 0 0-5.5 59.5q-.3 7.8.1 15.7l-9.6.1-.5-.4c-2.6-44.4 1.4-89 10.1-131.8q8.4-41.3 21.1-89 6.3-23.5 9.8-47.3a.4.4 0 0 1 .8-.1c2.6 6.1 4.7 11.3 7.6 17.1l11 21.2zm846.5 229q-.6-28.6-3.8-57a474 474 0 0 0-8.9-50.6q-.6-3-5.8-22.4l-2.6-9.3c-2.3-7.5-3.8-15-6.4-21.7l-3.8-12.4q-6.5-21.6-18-48.9-1.4-3.4-2.4-6.9c6.6-12.7 13.8-25.4 19.2-38.8a.4.4 0 0 1 .8.1q4 26.5 10.7 52.6l11.6 45q7.2 28.3 13.2 67.3 7.7 50.5 5.5 102.3a1 1 0 0 1-.7.7z"/></g><g fill="#e9484e"><path d="M380.6 558.2q7.3 19.8 15.4 39.3 1 2.3.6 7.7c-1.4 21-3.4 42.7-7 64.6q-5 30.9-11.3 58.7l-6.9 27.4q-3.2 12.9-7.6 27.2c-12.3 41-24.6 81.7-32.4 123.7q-4.3 23-6.5 56-8.8 9.3-19.4 10.1h-2.3q-.8-.1-2.3.1c-3.2.4-9.6-2-12.2-3.7q-6.5-4.3-11-11.2a.8.8 0 0 0-1.5.1l-.2.5q-7-28.8-12.9-45.8L240 845.3a866 866 0 0 1-36.5-136.8q-3-17.2-5.8-39.4-4.2-33-5.3-71.6-1.4-47 1.7-98.5 1.3-21.3 3.3-39l1.8 7.2v.4q-.5 7-.4 12.1l1.3 31.1q.4 10.8 1 16.3c.7 7.6.7 14.1 1.3 21.9q2 24.2 3.2 35.5 3.1 29.8 9 64 8 46.2 15 73.5 11 42.2 24.2 76.7 5.6 14.6 13.4 29 4 7.3 9 13.5c9.3 11.5 23.5 14.2 35.8 5q1.8-1.3 8.2-9 3-3.6 8.7-15 12.8-25.6 21.4-56.1 10-35.4 15.4-61.1 1.3-6 6.1-36 3.6-21.7 5.2-36.1 3-26.8 4.1-56v-7.1a5.2 5 37.9 0 0-.1-1q-1.3-5.2-.4-10.6m571.8 399.9q-1-.9-2.4.7a.2.2 0 0 1-.4-.2q0-.8.3-1.5-1.5 3-3.8 6.1v.1h.1q1.6-1.4 2.5-3.6a.3.3 0 0 1 .4-.2.2.2 0 0 1 .2.4q-1 2.2-3.4 4.6-7 6.9-15.6 8.2-14 2.2-24-7-.9-.7-2-2.2a.4.4 0 0 0-.7 0q-.5.7-.1 2-2.6-49-16.4-102-8-31.1-11-40.9-9-30.2-15-51-16.9-58-25-121.3-3-22.7-4-46.4c0-4.5.2-7 2-11.3q6.9-16 12.8-32.6 1.3 1.9 1 3.5-.9 6.5-.7 10.5 1.3 37.9 6.2 75.1 1.6 12.3 3.6 23.2c2 11.9 3.2 20.6 5.4 30.7 4.2 20 8 34.4 12.9 53.5q8.3 33 21.2 60 6 12.9 11.6 20.6c2 2.9 5.1 7 7.7 9a24.6 24.6 0 0 0 32.6-1.3 93 93 0 0 0 17.7-27.4q11.5-24.1 20.6-53.7 8.2-26.9 12.7-46 21-88.6 27.2-179.2 1.6-22.6 3-62.7.2-3.2 1.5-14.5 2 14.7 2.9 29.4l1.6 29.6q3.6 65.5-2.6 130.7c-1 10.8-3 22.8-4.7 34.2q-2.2 15.5-5.3 32.7a734 734 0 0 1-17.3 73.1q-4.4 15.6-12.7 40-15.7 46-31.8 94-3.2 9.4-8.8 33.1M766.7 783.5l.6 4.4a.9.7 49.7 0 1 0 .3q-1.2 6.8-1.5 10.1c-2 23.2-4.8 46.2-6.4 69q-1.8 27.6-1.3 47.3a273 273 0 0 0 16 89q.8 2.1 5 11c9.5 19.7 24.3 38 45.5 44.3q21 6.2 39.4-5.8c3.8-2.4 7.6-6.4 11.2-8.5a.2.2 0 0 1 .3.3q-2 4.1-3.1 7.8c-1.8 5.5-5.3 10.7-7.8 16.4a.1.1 0 0 0 .2 0l.9-.6a.3.3 0 0 1 .4.3l-12.4 21.7v.1l12-17.7q-7.2 14.6-18.8 25.9a3 2.8 84.7 0 0-.5.6q-1 1.6-3 3.4l-.9.3h-.4l-.9.3q-16.5 11.3-36 7.6-19.4-3.7-33-18.7a128 128 0 0 1-23.2-36.1q-13.5-32.1-15.7-62.2c-1.7-22.7.5-45.4 3.6-70.2q8.8-71.4 29.8-140.3m-416.9 252.3q2.1 6.4 8 12A45 45 0 0 0 391 1061q19.7-1.3 34-14 10.2-8.9 16.4-18.5 11.3-17.6 16.8-35 3.7-11.9 6.7-29 6-34.5 5.4-66.2c-.3-11.3-1.2-29.1-2.7-44.3l-5.4-57.7q-.4-4.3.7-7.5l2 6.5q21 75.3 29.3 151.5 2.3 21.3 1 44.5A174 174 0 0 1 466 1080a74 74 0 0 1-29.4 26.6 48 48 0 0 1-48-2.4q-9.9-6.8-16.4-15.7-17-23.4-22.4-52.7"/></g><g fill="#ff9386"><path d="M289.2 641.3q-1.2-.1-1.7-1.6-3.3-10.2-5.4-20.1-7.1-34-10.3-67-6.3-64.5 5.5-130.5.5-2.7 2-4.5a1.3 1.3 0 0 1 2.2.7q1 7.3 1.6 14.7c4.1 51.8 6 104.5 6.5 154.5 0 15.3 1 35.3.5 53a1 1 0 0 1-1 .8m649.3-.4q-.2-1-.2-2.9 0-91.5 4.4-164l2.1-33q1-13.4 1.8-19.7.2-1.7.9-3a1 1 0 0 1 1.7-.3c3 3.3 4 12.6 4.8 18.5q10.6 78.4-2.4 155.3-3.2 19.5-5.4 28.9-3 12.5-4.9 18-.5 1.4-1.1 2.5a1 1 0 0 1-1.7-.3M264 1025.4c.3 15.5-1.7 31.4-5 46.1q-5.4 24-14.2 45.6a.5.5-42.8 0 1-1 0 220 220 0 0 0-13.6-32.3q-26-51.2-36-70.2a614 614 0 0 1-45.8-110.4q-16.6-56-24.6-121.2-6.2-51-7.9-97.5-.8-23-.4-57.5.2-23.5 1.6-40.7 3.1-40.7 16.7-81.5 8.8-26.2 19.5-49.8.2 4.5-.3 7.3a739 739 0 0 0-12.5 97.7c-3.7 65-1.1 133 4.4 197.5 4.2 48.4 10.6 93 22.4 136.7q5.7 21 10.5 34 10 27.6 18 43.6 8 16.7 17.7 32c7.7 12.2 20 23.8 34.7 25.8q3.3.4 8.8-1a2 1.7 18.7 0 0 .4-.1q1.3-.8 3-1a1.8 1.5-4.6 0 0 1.7-1.6q0-1.1 2-1.5m722.3 85.9-5.7-1.5c-10-26-16.3-53.8-16.6-81.8q0-1.2.7-1.8h.8l1 .7q9.9 6.2 21.7 1.6c7.8-3 16.3-9.2 21.4-16.6q2.6-3.2 5-6.9 7.4-11.2 14.8-26a463 463 0 0 0 37.6-109.3q10.3-47.8 14.8-96.2 5.8-62.2 7.4-116t-2-107.3q-1.6-24.3-4.3-40.8c-2.1-13.5-3-21-4.9-30.3q-.7-3.5-1.1-8.8-.3-3.7-3.3-12.3a1 1 0 0 1 .1-.9q.5-.5.8-1.2 14.7 32 23.5 60.8 3.6 12 7.9 32.5a332 332 0 0 1 6.6 70.9c-.1 16.5.5 37.8 0 56.9q-1.6 63.2-11.7 132.2-3 20.6-6 35.1-4 18.4-8.2 34.7-16 62.9-45.8 121.9-20 39.6-46 90-4.6 8.8-8.5 20.4M816.2 654.4l.7 12.5v.4q-.6 4.5 0 6.4 3.2 11.8 3.7 23.4l-.1-.1a.5.2 37.5 0 1-.2-.3l-2.8-14.7q-1.5-7.7-9-8.8a1 1 0 0 0-.9.4q-2.4 3.1-3.4 5.6-3.8 10-9.7 27.4c-.8 2.3-1.1 4.1-3 5.9a.4.4-23.6 0 1-.6-.3l-.1-2.2 23.6-63.6q.2-.4.5-.5a.3.3 0 0 1 .4.3z"/></g></svg>