<svg xmlns="http://www.w3.org/2000/svg" viewBox="0 0 1524 1521"><g fill="none" stroke-width="2"><path stroke="#232739" d="M1049.2 920q-.4 0-.6-.4-5.6-7.5-12.9-15.7c-1.8-2-3-4.4-5-6.4q-1.6-1.6-4.1-4.6-6.2-7.6-11-12.5-19.5-20-45-39.6-9.2-7-21-14.3-16-9.9-22.2-12.7-21-9.9-27.5-12.5-13.5-5.3-33.7-10.9-18-4.9-34.7-7-32.4-4-62.5-2-15.7 1-41.2 4.3c-13.2 1.7-26 5.3-39.7 8.4-2.5.5-5.5 1.7-8.5 2.4a2 2-25.2 0 1-2.4-.9c-5.2-6.9-9.6-14.6-15.1-21.2-6.8-8.1-14.4-18.2-20.2-24.6a374 374 0 0 0-38.2-37Q589.3 701 584.1 697q-7.7-6-22.8-16a337 337 0 0 0-60.8-32c-22.8-9.3-47-16.1-70.1-20.7q-29-5.9-62.9-6.5c-31.6-.6-62.1 1.5-92.7 8.3q-41.4 9.2-75 24.2-6.8 3-9.9 5.4-4.2 3.4-9.5 9.6-11.2 13.1-22.4 28T137.8 727q-18.7 30.5-32.3 60.8-6.7 15.1-11.6 29.4-8.4 24.4-9.8 29.5c-8.4 30-14.6 60.3-17.7 90.3q-8.8 82 6 162.4 2 11.7 5 27.2c2.9 16.1 6 29.4 10 43.4q7 24.4 13.5 43.2 2.5 7 12.2 32.1 6.2 15.7 13.7 31.5a619 619 0 0 0 43.4 77.5q9.6 14.6 11 16.4 18.8 25.8 32.5 40.3 17.4 18.2 30.3 30.1t31 25.4q6.9 5.1 16 5 8.3 0 10.2-.7 4.6-1.7 9.6-6.7 36.5-37 65.3-78.1a583 583 0 0 0 59.3-108.4q6-14 10.8-28 5.4-15.8 9.5-28.5a1.2 1.2-61 0 1 1.9-.6q8.1 6.8 24.7 19.9c5 4 9 6.6 13.5 10.2q4 3.2 10.1 7.7a615 615 0 0 0 201.6 93.2q20.6 5.3 50.2 11.5a742 742 0 0 0 85.5 13.1q33.2 3.2 64.7 5c20 1.3 43.7 1.2 58.6 1q12.2-.2 71.5-1.8 57.3-1.6 107.6.5 24.9 1 38.3.6c30.2-1 58.8-3.5 88.1-7.5q60-8.3 113.8-31 21.7-9.2 38-20.2 10.8-7.3 15-10.8c21.7-18.4 38.2-45.4 40-74.3q.6-10.2.5-14.5c-1-30.3-1.8-51 .4-76.2q1.8-21.6 5.5-53c2.3-19.8 4-40.7 5-56.5q3.7-70-8.6-145.2-10.3-62.8-29.3-122.2-17.4-53.9-41.5-109.2c-2.9-6.7-6.5-16.1-10.2-24.5q-18.3-41.6-32.4-76.3-9.2-22.7-17.3-45.5-11.7-33.1-15.9-46.2-13.6-43-29.1-103.7l-6-23q-4.8-18-6.5-23-11.8-35.7-36.5-61.2c-31.4-32.4-71.7-57.8-113.5-79.1q-33.5-17-59-28.5a3267 3267 0 0 0-58.7-25.3q-40.4-17-49.1-21-13.3-6-23.4-9.8-11.4-4.2-17.3-5.2-5.7-.9-7.2-1.6l-11.8-5.2c-16.2-6.1-32.4-8.7-48.2-3.4q-22.4 7.5-37.1 25.9-7.1 8.9-8.5 11-10.1 15.7-20.4 31.3-13 20-26.4 39.7c-5.7 8.4-8.8 13.6-15.4 24.3q-5.8 9.4-10.5 19.2-6 12.6-7.3 18-4.2 17.9 1.6 33.8 5.6 15.6 17.2 30l4.6 5.8a2 2-43.9 0 1 0 2 56 56 0 0 0-15 32q-1 11.2 0 16.7 4.4 27 27.4 42.4 17.1 11.5 35.8 12c18 .3 37.1-7.5 52.8-17.8q3.7-2.4 7.2-4.3a5 5 0 0 1 3.5-.4c1.8.5 4.6 1.6 7.3 2.3q21.4 5.8 33.1 9.8 3.1 1 26.7 10.3 10 4 25.6 6.5a55 55 0 0 0 32-3.9q17-7.7 27.4-23.4l5.4-8a1 1 0 0 1 1-.2 164 164 0 0 0 36.3 20.6 2.7 2.5 75.8 0 1 .7.3q1.4 1.3 1.8 2.6c1.2 3.6 2 6.9 3.3 10.2q3.1 7.5 5.9 17 18 62.6 21 127.2 1.7 41-.4 80.9-1.7 31-7.3 59.3-1.7 8.7-7.9 33.9-2.4 9.9-10 33.3c-10 30.8-18 61.7-24.2 93.6q-1 5.3-4.5 28c-1 6.4-1.5 14.6-1.6 19.5l-.6.4" vector-effect="non-scaling-stroke"/><path stroke="#525b79" d="m772.7 247.8-1.4 3.1" vector-effect="non-scaling-stroke"/><path stroke="#454e6d" d="M771.3 251q-5.3 18.2 5.4 33.3c6 8.4 8.7 13.2 14 18.5a.6.6 0 0 0 1-.2 187 187 0 0 1 14.5-36.3l7.2-14q5-9.7 10.4-19.2" vector-effect="non-scaling-stroke"/><path stroke="#525b79" d="M823.8 233q15.2-24.3 30.8-48.4 2.5-4 6.8-9.7a.4.4 0 0 1 .8.3q-.7 5-2.5 11-3.7 12.9-11 30.3A945 945 0 0 1 826 267q-5 10.6-9.3 21.5-1.6 4-2.6 8.4" vector-effect="non-scaling-stroke"/><path stroke="#454e6d" d="M814.2 296.8q-1.9 5.5-3.2 12.7c-3.1 17.6 12.8 27.3 26.4 34.3l8 4a.7.7 0 0 0 1-.6q.8-16.6 7.5-32.8 6-14.2 10-22.5 7.3-15 14-27l18-31.7q2.4-4.5 5.6-9.7l5.8-9.7" vector-effect="non-scaling-stroke"/><path stroke="#525b79" d="M907.3 213.8q1.7-1.5.6 3.4-5.8 25.5-15.5 49.7L872 318q-3.2 8-5.1 16" vector-effect="non-scaling-stroke"/><path stroke="#454e6d" d="M866.9 333.9c-3.1 11.5-5.2 28.1 7.6 35 10.4 5.5 22 7.8 33.1 10.8a.7.7 0 0 0 .9-.9 64 64 0 0 1 2.3-40q5.4-14.3 10.8-26 1.3-2.7 2.5-5.8" vector-effect="non-scaling-stroke"/><path stroke="#525b79" d="M924 307q1.6-2.3 3-5 12-23 26.7-46.7a.5.5 0 0 1 .9.2c.1 3.2-.2 6.9-1 9.8q-4.7 20.5-9.7 35.1-2.4 7.2-11.9 32.4c-2.4 6.3-4.6 13.4-6.8 20q-1.3 3.6-.6 10.6" vector-effect="non-scaling-stroke"/><path stroke="#454e6d" d="M924.6 363.4c.2 9.8 2.8 17.7 10.8 23.7q4.6 3.4 14.5 7.9 5.1 2.3 13.2 4.4 9.3 2.3 13.7 2.8 10 1.1 18.2-3.3 6.2-3.4 13.3-13.1 4.9-6.9 11.4-18.2 3.3-5.7 1.2-12.6c-2.7-8.8-13.5-8.5-19.4-3.6q-5 4.1-5.9 11l-1.4 12a1.3 1.3 18.2 0 1-1.9 1q-.8-.5-1.1-2l-2.2-9.5a2 2 0 0 0-2.3-1.4q-9 2-17.9 1.4" vector-effect="non-scaling-stroke"/><path stroke="#525b79" d="M968.9 364q10-8.9 16.4-19.6c8.6-14.4 10.6-31.4 12.4-47.7q0-.6.5-1.3a.7.7 0 0 1 1.2.2c1.6 4.5 2.6 6.6 3.5 10.4q2.6 11.3 3.9 15.9a2 2 0 0 0 1.8 1.4q15.1 0 23.6-13.2 4.2-6.7 9-15.3a.6.6 0 0 1 1.1.2q.8 7.7-.7 15.4" vector-effect="non-scaling-stroke"/><path stroke="#454e6d" d="M1041.6 310.4q-3.8 13.2-14 21.6a1 1 0 0 0 0 1 36 36 0 0 1 11.2 14.7c2 4.3 4.9 10.9 8.2 15.3q5.9 7.6 12.5 12 11.2 7.6 30.2 13.9 7 2.3 12 2.4c31.3 1 60.7-16.5 78.3-42q3-4.4 5-10" vector-effect="non-scaling-stroke"/><path stroke="#525b79" d="m1185 339.2 2.8-6.4a.8.8 0 0 1 1.6.3l.2 9.6" vector-effect="non-scaling-stroke"/><path stroke="#454e6d" d="M1189.6 342.7q-1.8 14-8 25.4-6 10.7-14.7 20.3a2 2-39.2 0 0-.2 2.1l12.7 21.3" vector-effect="non-scaling-stroke"/><path stroke="#525b79" d="M1179.4 411.8q12.7 21.4 16 27.4c9.2 17.3 16.4 34.7 24.6 53.8q5.6 13.2 10.7 27.5 13.4 37 22.1 70.7l1.8 8a.4.4 0 0 1-.8.2l-16.6-34.9q-13.7-28.8-34.6-69-7.6-14.8-26-45.6" vector-effect="non-scaling-stroke"/><path stroke="#454e6d" d="M1176.6 449.9q-7-13.7-10.4-19.3-7.3-12.4-15.8-23.6c-2-2.7-6-1.8-8.8-.8a1.2 1.2 0 0 0-.7 1.7q10.4 23.3 20.1 49.3c8 21.4 12.2 39.6 18 59.4" vector-effect="non-scaling-stroke"/><path stroke="#525b79" d="M1179 516.6q11.4 46.7 16.4 77.2 11.6 70.2 8.1 154.4-.1 3.8-1.2 7.3a.3.3 0 0 1-.5 0q-.9-18-2.4-36.6-.7-7.5-5.4-37.6c-4.8-30.2-8.7-56-14.8-82.8q-6-27.1-13.8-57.1-1.2-4.2-2.8-8.6" vector-effect="non-scaling-stroke"/><path stroke="#454e6d" d="M1162.6 532.8q-9-29.4-19.3-58.4c-2-6-5.8-17.4-9.3-25.7q-5.6-13.2-15.6-33.4a2 2 76.8 0 0-2-1.2h-10.6a1.4 1.4 89.4 0 0-1.4 1.4v.8q14.8 40.1 21.9 83.1 3.7 22.3 4 24.9 4 33.4 4.6 78.8c.5 36-1.5 70.6-8 106q-4.3 23.7-10.3 46l-2.3 8.3-14.1 48.1q-7.7 26.5-10.7 40a462 462 0 0 0-11.6 72l-.7 11.8q-1.2 25.4 2.5 50.3c.7 5 2.5 12.5 3.6 17.4q4.1 18.8 12.6 39.2 9.1 22.2 20.9 43.8a308 308 0 0 0 32.7 47q9.5 11.6 22.4 21" vector-effect="non-scaling-stroke"/><path stroke="#525b79" d="m1172 1154 12.8 13q1.8 1.8 3.2 3.8a.5.5 0 0 1-.7.8q-8.2-2.8-15.7-7.5" vector-effect="non-scaling-stroke"/><path stroke="#454e6d" d="m1171.6 1164.1-11-7.3q-23-15.4-41-36a294 294 0 0 1-40-56q-2.7-5.1-6.5-14l-6.2-14.4" vector-effect="non-scaling-stroke"/><path stroke="#90405b" d="m1066.9 1036.4-6.2-17.5q-2-5.3-5.3-8.5-10.4-10.1-25.9-22.5" vector-effect="non-scaling-stroke"/><path stroke="#994d69" d="M1029.5 988a397 397 0 0 0-71.8-46.5q-27.3-14-56-26c-1.8-.7-5.2-2.5-8-4a.3.3 0 0 1 .3-.7q12 1 20.6 3 40.1 9 79.3 27.4 17.1 8 28 15 17.5 11.3 27 17.8l.3-.3-11.2-21" vector-effect="non-scaling-stroke"/><path stroke="#996373" d="M1038 952.8q-25.2-38.3-59.1-68.7a381 381 0 0 0-33.2-26.4q-13.2-9.4-35.2-20.6-8.3-4.2-19-8.4-13.2-5-19.6-7-31.5-10.2-67-12.4c-6.3-.3-13.7 0-19.4-.1q-7.7-.2-14.5.4-25.8 2-37.5 4-35.2 5.5-71.4 18.4-39.8 14-74.8 37.6" vector-effect="non-scaling-stroke"/><path stroke="#994d69" d="M587.3 869.7q-20.3 14-38.3 30.8a.2.2 0 0 0 .2.4q55.3-17.6 113-19 16.6-.4 36 2l1.3.2a.5.5 0 0 1-.1 1l-15.2 1.8q-6.7.8-15 2.3-25.4 4.4-29.7 5.3-33.8 7.3-62.5 17.5-20.3 7.3-42.5 18.4l-16.3 8.5q-9.2 4.8-14.3 13" vector-effect="non-scaling-stroke"/><path stroke="#90405b" d="M504 951.9q-15.8 19.8-29 40l-2.7 4.5" vector-effect="non-scaling-stroke"/><path stroke="#454e6d" d="m472.3 996.4-22.7 35.2q-15.8 24.3-22 32-7.6 9.6-16 21c-2.2 2.8-5.1 6-7 8.2a1 1-61.8 0 0 .5 1.7 738 738 0 0 0 95.4 18.5q14.2 2 29.8 2.7 38.7 1.7 76.4-1.2 3.1-.3 6 0a.5.5 0 0 1 .1 1q-3.8 2.4-7.7 4-20.2 8.5-41.6 12.4-15.3 2.8-43.2 4.1-24.2 1.2-48 0a1.2 1.2-85.8 0 0-1.3 1.1c-.8 8-1.2 16.2-2.4 24.4l-3.3 22q-.5 3.4-.4 5l.5 1q2 2 4.4 4c24.8 20.5 50 40.7 78.4 58.5q32.6 20.4 65.4 35.8a597 597 0 0 0 110.2 38.9 843 843 0 0 0 85.4 16.6q14.1 2 42 5.3 41.6 5 83 5.4 34.6.4 97.5-1.5c19-.5 33.5-.8 51.6-.7a.4.4 0 0 0 .1-.8q-26.5-12.6-53.9-28.8-8.5-5-15.9-10.3-20.9-14.8-38.5-29.2-11.6-9.5-18.8-18.2l-.4-.6a.6.6-83.4 0 1 1-.7l4.6 2.5c9.2 4.6 19.7 10.8 34 19q12.2 6.8 29.7 15.8c23.8 12.3 48.3 25 72.5 34.9q22.6 9.2 47 15a98 98 0 0 0 20.5 2.8q33.2 1.2 66.3-2.8 30.7-3.6 42.3-5.7 28-4.9 35.7-6.8 17.1-4.2 32.4-9.3c9.4-3.1 17.7-5.4 26.1-9q14.8-6.3 18.8-8.3 9.4-4.6 21-11.7 11.8-7.4 18.8-14.6a84 84 0 0 0 24.5-49.2c.4-5-1.3-9-2.7-13.8q-1.7-6-4.6-12.7" vector-effect="non-scaling-stroke"/><path stroke="#525b79" d="m1443.8 1209.3-6.7-26q-10-37.7-12.5-73.3-2.2-32.6-.7-63.5.1-2.7.4-4.2a.1.1 0 0 1 .3 0q1.3 4.1 1.8 6.6 6.3 33 13.7 62.4c3 11.9 5.2 19 9.5 33.6l1.1 2.6a.5.5 0 0 0 1 0q.2-1.5.3-7.7 0-3.3.5-7.5 1-8.4 1.5-16.8" vector-effect="non-scaling-stroke"/><path stroke="#626b88" d="M1454 1115.5q5-38.3 7.6-76.7c2-30.7.9-60-1.7-92q-2.5-30.8-6.9-56-5.8-34.3-15.3-69.3c-9.6-35-16-57.9-27-84.8q-10.5-26.2-16.4-41.5c-6.3-16.3-15-35.9-24.9-59.3l-12.2-29c-10.3-23-19.9-46-29-71.3-11-30.8-18.5-51.5-26.4-78.6q-16.3-56.2-31.3-115.4l-3-11.2a101 101 0 0 0-10-25q-11.2-19.3-25.3-33.5c-27.4-27.5-60.8-47.7-97.5-66.5q-27.9-14.3-48-23.7-34.6-16-46.3-20.8c-33.1-14-60.6-25.4-86.9-37.3q-8.6-4-14-5.2-2.5-.6-8-.4-13.6.7-25.5 6c-11.6 5-18.2 16.2-23.5 27.3" vector-effect="non-scaling-stroke"/><path stroke="#525b79" d="M882.5 151.3q-4.2 7.8-9.6 14.4a.7.7 0 0 1-1.2-.4 76 76 0 0 1 8.5-39.4" vector-effect="non-scaling-stroke"/><path stroke="#626b88" d="M880.2 125.9q8.8-13.8 25.5-17.8a.4.4 0 0 0 0-.7q-23.5-9.5-43 4a52 52 0 0 0-12.5 13.5q-7 10-12.2 18.1-19.8 30.9-37.7 57.8a670 670 0 0 0-19.6 31.8q-4 6.8-8 15.2" vector-effect="non-scaling-stroke"/><path stroke="#808ead" d="M880.2 125.9q-6.8-.6-13 3.6-4.8 3.4-9.5 8.7-8.6 9.5-13 15.4l-2 2.3c-3.2 3.4-6.4 8-11.4 14.6-5.6 7.5-12.2 14.5-17.8 22.6q-12.1 17.6-24.5 34.8c-5.7 8-10.8 13.7-15.2 20.7l-.6.2q-.6 0-.5-1" vector-effect="non-scaling-stroke"/><path stroke="#637192" d="M1443.8 1209.3q-.6 23.6-13.4 40.4-11.5 15.2-29 24.1a193 193 0 0 1-54.7 18.5l-16.2 2.6-27.8 2.7c-5.5.4-12.6.2-18.2.7q-8.3.8-15-.7" vector-effect="non-scaling-stroke"/><path stroke="#525b79" d="M1269.4 1297.6a100 100 0 0 0 50.6-52.9c1.8-4.6 2.4-8.1 2.8-13.5a1 1 0 0 0-1.5-.7q-1.5 1.3-10.9 12.1c-3.6 4.2-7.3 7.4-11 11.2q-3.6 3.4-9.2 7.4-11 7.6-15.3 10.1-20.4 12.1-43.9 19.3-7.4 2.2-32.6 6.6" vector-effect="non-scaling-stroke"/><path stroke="#637192" d="M1198.4 1297.2q-3.7-1.1-7.4-1.4l-6-.5c-12.6-1.7-22.7-2.9-34.6-5.2q-52.6-10.4-103.1-26.2-4.7-1.5-9.2-3.2c-7.7-2.8-14-4.7-20.6-7.7l-11.5-4.3q-11.4-4.2-41.1-17.2-5.6-2.5-16.8-8l-16.6-8.3q-22-11.2-43.8-26.5l-17.4-12.3q-1.7-1.2-4.6-4.7a1 1 28.6 0 1-.3-1c.5-3.7 8.2-3.8 11.1-3.8q32.8 0 66-8.1 48.5-11.8 91-37.3 2.8-1.6 19-11.7 4.1-2.5 8.7-3.9 4.8-1.4 8.6 1.6l16 12.7q10.5 8.3 16.4 12.2 11 7.3 23.4 14.1a203 203 0 0 0 40 18.2q3 1 6-.6m.4-10.1q-3.7-8.4-7.7-16.3-6-11.5-8-16.1-6.2-14.2-10.6-26.5-8.7-24.7-13.6-49.6-4.4-22.5-6.2-34.7a444 444 0 0 1 10-165.6q7.2-29.9 18.5-69 .6-2 1.2-5a.7.7 0 0 1 1.1-.3q1.6 2.1 2.2 4.8 3.4 17.6 10.2 36.8a.3.3 0 0 0 .5-.1c0-2.5-.5-5.7-1.1-8.2q-4.4-18.4-6.8-31.7-1-5-1-12.2.4-83 .2-115.2-.1-19.7.7-49.2.7-29.1.2-62.3 0-.4.2-.6l.6-.2m16.4-16.2q.7-5.2 0-15l-2.5-27.4q-.7-8 .1-24.3m2.8-38.1 4.8-10.7a233 233 0 0 0 9.9-28.5c2.8-10.2.3-20.6-4.5-30m-4.6-3.4q-2.6.3-3.5.8-22 13.3-47.1 15.8a106 106 0 0 1-56.6-12q-22.4-11.9-36.2-33.4M968.9 364q-3.7.4-9.4 2.8-4.5 1.8-10.5 2-8.8 0-17-2.8l-7.4-2.6M924 307l-3 3.3q-1.7 1.8-2.9 3.4c-6.5 9.2-13 19.1-21.1 26.6q-4 3.7-5.6 4.1-5 1.6-10-.8-7.3-3.7-14.5-9.7m40.4-120.1q-4 2.7-5.1 4.4c-3.7 5.4-7.9 11-11.4 16.2q-19.3 28.5-30.8 46-9.4 14.5-14.5 21.8c-3.5 5-10.5 6.6-16.1 5.9-6.3-.9-11.8-6-15.2-11.3m9.6-63.8q-3.4 3.6-4.5 5-8.5 10.6-18.7 24c-6.1 8-15.8 2.5-21.7-3q-5.4-5-7.6-8" vector-effect="non-scaling-stroke"/><path stroke="#454e6d" d="M508.4 1025q28.7 27.6 61 50a369 369 0 0 0 42.7 25.4q16.8 8.6 42.3 18.4 19.2 7.4 41.5 12.5c30.7 7.1 61.3 12 92 12.5q38.7.8 79-6 20.4-3.6 31-6.2 23.7-6 50.6-16.9 6.6-2.7 14-6l13.9-6.6q12.2-6.2 24.1-13.6 1.2-.7 1.2-2m196.7 210.7-5.1 1.5a1 1 0 0 0-.2 1.8q2.6 1.4 5.6 2.3 16.4 5.2 34.3 4.4c9.4-.4 18.1-3 27.6-6 2.9-.8 5.9-2.4 8.8-3.7" vector-effect="non-scaling-stroke"/><path stroke="#808ead" d="M1454 1115.5q-1.2-2.7-1-5.7.6-7.5.6-10.9c-.1-19.6-.2-41.2-1.4-61q-2.7-46.3-9.5-90.5-3.9-25-9.2-47.7-6.2-26.4-12.2-47-9.3-32.2-24-69-14.4-36.5-40.3-95.7-15.6-35.6-23.7-56.3l-13.4-35.2q-5.2-13.5-8.5-23.9c-5-15.5-9-26.2-13-40.6-6.4-23.8-10.5-37.6-15-56.7q-7.1-31.1-12.5-59.8c-2.5-13.1-3.7-24.6-6-37q-2.4-12.8-4.5-18.4-11.8-30.6-31.7-57.8-11-15.1-17.5-22.5-11.4-12.6-26.7-24a364 364 0 0 0-59.2-35.7q-15.3-7.3-21.8-10-23.2-9.7-34.3-14.8c-10.8-5-24-10.6-32.4-14.9q-2.7-1.4-15.5-6.8c-11.8-4.9-19.4-8.8-32.7-14.8-14.5-6.5-34.1-16.3-46-21q-14.2-5.7-29.3-4.5c-12.3 1-21.9 7-29 17q-.3.2-.4.6l-.7.5q-.4 0-.7-.2" vector-effect="non-scaling-stroke"/><path stroke="#a15574" d="M1066.9 1036.4q-.6 1.5-1.8 1.5l-.6.2q-23.6 21.8-30.3 27-8.2 6.5-27.1 18.7-1.5 1-5.4 2.7" vector-effect="non-scaling-stroke"/><path stroke="#90405b" d="M1001.7 1086.5a37 37 0 0 0-13 2.2l-29 8.8q-63.3 18.6-130 21.5c-44.4 2-90.3-3.2-134.7-13.5q-23.2-5.4-38.6-10.7-31-10.6-70-29-12-5.8-26.5-14c-11.4-6.4-30.2-16-43.7-24.8q-3.6-2.4-7.8-2" vector-effect="non-scaling-stroke"/><path stroke="#a15574" d="M508.4 1025q-5.1-3-10-7-7.2-5.9-9.4-7.5-8.9-6.7-16.7-14.1" vector-effect="non-scaling-stroke"/><path stroke="#f65570" d="M1029.5 988q-2.6 12-4.2 14.8-7.4 13.3-19.5 21.7-13.2 9-27.9 15.1-14.5 6-25.4 9.2a416 416 0 0 1-64 12.4q-56.8 7.4-115.7 3.6-15-1-28.8-3a413 413 0 0 1-50-9.9q-43.3-12-83.9-31.3-17.8-8.5-26-12.7-30.3-16-56.7-34.8-13.5-9.5-23.5-21.2" vector-effect="non-scaling-stroke"/><path stroke="#ff7889" d="M1038 952.8q-1.5 1.3-3.9-2.1a3.8 3.6 88 0 0-.8-.9q-12.1-8.6-15.7-11.6-17.4-15-34.4-27.5-9.5-7-19.7-13.4l-20.2-12.8c-8-5-17.6-9.2-25.9-13.5q-10.3-5.4-13.3-6.5-12.3-4.8-26.4-9.8-13.3-4.7-27-8-49.7-11.6-97.7-9.1-28.5 1.4-59.4 5.8c-13 1.8-25.6 5.1-39 7.9q-3.9.8-25.3 7c-8.8 2.6-21.2 5.6-32.4 9q-4.7 1.5-9.6 2.4" vector-effect="non-scaling-stroke"/><path stroke="#525b79" d="M780.2 349.6q-1.6 2.5-1.7 5a36 36 0 0 0 15.9 32.7c5.3 3.4 11.8 7 17.6 7.2q6 .3 13.5-1.5" vector-effect="non-scaling-stroke"/><path stroke="#454e6d" d="M825.5 393a63 63 0 0 0 22.4-9 1 1-27.3 0 0 .5-1.5q-2.1-4.7-6.3-7.6a73 73 0 0 0-8.3-5q-5.3-2.6-12.7-6.7-19.2-10.5-32-27.9h-.4l-8.5 14.3" vector-effect="non-scaling-stroke"/><path stroke="#637192" d="M825.5 393q-.5-6.2-4.1-11.1-4.8-6.4-10.8-11.7-6.2-5.4-12.5-10.5-8-6.3-17.9-10" vector-effect="non-scaling-stroke"/><path stroke="#525b79" d="m169.3 730-4.8 7.3q-14 22.7-25.2 47-.8 1.6-.8 2.8a.3.3 0 0 0 .4.3q43.9-23 93.6-31.2 24.4-4 50.2-2.7 30.1 1.5 55 7.6h.3q.2.5-.3.7c-1.8.6-4.2.3-6.1.5q-30 1.8-41.7 2.9c-29.6 2.8-59.6 11-87.4 20.8q-37 13-70.4 33.4-3.6 2.2-9.2 7.2-2.6 2.4-3.6 5.2a449 449 0 0 0-21.8 86.1q-11.4 77.1-1 154.6 2.4 17.1 8 46.2 1.6 8.1 2.9 12.4" vector-effect="non-scaling-stroke"/><path stroke="#454e6d" d="M107.4 1131.1c4.5 18.2 8.2 36.9 13.8 54.4q18.7 57.7 42.9 104 2.4 4.5 12.3 20.7" vector-effect="non-scaling-stroke"/><path stroke="#525b79" d="M176.4 1310.2q9.6 18.1 21.5 34.6 10.2 14.2 17.1 23.5 19.4 25.9 43.4 49.3 7.4 7.3 24 19.8" vector-effect="non-scaling-stroke"/><path stroke="#454e6d" d="m282.4 1437.4 8.3 5.6a1 1 0 0 0 1.1 0q12-11.5 23.5-24.7 16.8-19.5 32.8-41.2 17.8-24.2 35.5-57.2l8-15q3.2-5.8 6.3-13 7.3-16.1 14-32 4.3-10 8-21.1c3.8-11.6 7.5-21.9 10.4-33.3l3.2-12q2.9-10.8 5-28l3.3-30.2a1 1-84.2 0 0-.8-1q-17.8-1.8-38-5.4-17.7-3.2-27.1-5.5a3 3-59.5 0 0-2.3.6q-15.1 14-24.2 21.9l-19.2 16a490 490 0 0 1-110.3 69.3q-17.1 7.8-38.8 15.9-5.2 2-11 2.9a.6.6 0 0 1-.6-1q3.6-3.8 8.9-7.1 18.8-11.9 25-16.2 9.7-6.8 16.2-11.1 21.4-14.5 51.3-38a894 894 0 0 0 101.7-95.6 623 623 0 0 0 39.9-48.7q20.4-28.2 39-55.5 20.9-30.7 34.1-47 19.9-24.2 27.4-32.3 14.2-15.2 29.8-29.2 4.7-4.2 10-7.7" vector-effect="non-scaling-stroke"/><path stroke="#525b79" d="M552.9 860.6q23.9-17 30-20.9 13.6-8.7 37.3-20.2 6.4-3.1 27-11" vector-effect="non-scaling-stroke"/><path stroke="#626b88" d="m647.3 808.5 3-.8a.6.6 0 0 0 .3-1q-12.9-18-27-34.5-4.7-5.7-7.9-8.7c-8.4-8.3-16-16.6-23.8-23.3-14.9-12.8-28.8-24.9-44.5-34.8q-26-16.6-51.8-27.7-49.9-21.6-105.8-26.4-58.9-5-114.6 8.1-25.9 6-49.9 14.5-7.1 2.5-14.8 6.2-4 1.9-5.2 3.2-19.5 22.2-36 46.7" vector-effect="non-scaling-stroke"/><path stroke="#808ead" d="M647.3 808.5q-14-13.1-29-24.4-7.6-5.7-12.3-9.5-7-5.6-12.3-9.5-28-20.2-59-36.2-14.2-7.4-27.1-12.7-16.6-6.7-28-10.5-46-15.1-96.5-19.8c-32.7-3-66.2-1.6-99.4 3.5q-11.1 1.7-32.5 7.5c-14.7 4-26 7.3-37.3 12.3q-20.6 9-42.2 20.8-2.1 1.2-2.4 0" vector-effect="non-scaling-stroke"/><path stroke="#637192" d="m552.9 860.6-3.5.3-1 .2q-2.6 1.6-5.5 3-3 1.6-19 11.5-10.2 6.3-18.6 12a963 963 0 0 0-96.9 76.8q-28.8 25.9-39.8 35.4-29.6 25.5-62.7 48.4-29.2 20.2-65.6 39.3a436 436 0 0 1-56.2 23.8q-10.1 3.6-20.7 6.5-9.7 2.5-21.1 5.2l-34.9 8.1m175 306.3q1.8-4.7 4.1-9l4.3-8.3q1.8-3.8 6-11.7 1.3-2.4 5.8-11.8l12.3-26.2c4.3-9.4 8.9-21 12.5-29 3.2-7.1 4.4-11.2 7.4-19.7q3.2-9 11-34.7 4.7-15.1 7-28.7 1.3-7.7 1.7-15c.7-14.3-4.8-26.2-21.4-24.1-12.3 1.5-23 6.3-35.2 12.2q-7.8 3.8-16 9l-22.5 13.8q-7.6 4.7-42.2 28.5-8.4 5.8-17.6 11.8c-8.8 5.7-16.2 10.3-23.2 15.7" vector-effect="non-scaling-stroke"/><path stroke="#525b79" d="M967.3 165.8a.5.5 0 0 0 .2-.9c-16.4-11.6-35.5-4.5-44.7 11.8a47 47 0 0 0-3 28.3 1 1 52.6 0 0 1.8.3q5-11.5 12-21.3 10.6-15 26.7-17.1l7-1.1m48.1 49.5c-.8-1.2-2.3-2-3.3-2.6-11.4-7.5-28-7.7-37.3 2.5-7.2 7.8-9.1 21-8 31.5q0 .5.3.8a1 1 36.6 0 0 1.2-.2q5.7-10.4 12.6-19 6-7.3 14.9-10.2c5.6-1.8 14-.8 19.3-2a.5.5-22.8 0 0 .3-.8" vector-effect="non-scaling-stroke"/><path stroke="#637192" d="M545.3 1152.4a2 2-18.7 0 0-1.3 2.5 33 33 0 0 0 9.8 13.9q6.8 6.5 16 14.7 7.4 6.4 17.2 13.5 22.5 16.3 42.6 28.4 29.9 18 63.3 30.1 22.8 8.3 56 16a453 453 0 0 0 84.8 10.4q23.8 1 52-1.1 18.1-1.4 33.8-6.6c4.6-1.5 9.4-4.2 10.6-9.6s-5.6-10.5-9.6-13.3q-14.6-10-34.5-22-17-10.5-44-23-17.5-8-28.7-12.5-31.4-12.6-65.4-20.1-28-6.2-70.8-12.9c-14.8-2.2-31.5-5.4-44.8-7.1q-8.8-1.2-34.2-3.8-8.6-.9-14.7-1-12 0-14.7.4-12.2 1.6-20.4 2.5-2 .2-3 .6" vector-effect="non-scaling-stroke"/></g><path fill="#12151f" d="M1524 0v1521H0V0zm-474.8 920q-.4 0-.6-.4-5.6-7.5-12.9-15.7c-1.8-2-3-4.4-5-6.4q-1.6-1.6-4.1-4.6-6.2-7.6-11-12.5-19.5-20-45-39.6-9.2-7-21-14.3-16-9.9-22.2-12.7-21-9.9-27.5-12.5-13.5-5.3-33.7-10.9-18-4.9-34.7-7-32.4-4-62.5-2-15.7 1-41.2 4.3c-13.2 1.7-26 5.3-39.7 8.4-2.5.5-5.5 1.7-8.5 2.4a2 2-25.2 0 1-2.4-.9c-5.2-6.9-9.6-14.6-15.1-21.2-6.8-8.1-14.4-18.2-20.2-24.6a374 374 0 0 0-38.2-37Q589.3 701 584.1 697q-7.7-6-22.8-16a337 337 0 0 0-60.8-32c-22.8-9.3-47-16.1-70.1-20.7q-29-5.9-62.9-6.5c-31.6-.6-62.1 1.5-92.7 8.3q-41.4 9.2-75 24.2-6.8 3-9.9 5.4-4.2 3.4-9.5 9.6-11.2 13.1-22.4 28T137.8 727q-18.7 30.5-32.3 60.8-6.7 15.1-11.6 29.4-8.4 24.4-9.8 29.5c-8.4 30-14.6 60.3-17.7 90.3q-8.8 82 6 162.4 2 11.7 5 27.2c2.9 16.1 6 29.4 10 43.4q7 24.4 13.5 43.2 2.5 7 12.2 32.1 6.2 15.7 13.7 31.5a619 619 0 0 0 43.4 77.5q9.6 14.6 11 16.4 18.8 25.8 32.5 40.3 17.4 18.2 30.3 30.1t31 25.4q6.9 5.1 16 5 8.3 0 10.2-.7 4.6-1.7 9.6-6.7 36.5-37 65.3-78.1a583 583 0 0 0 59.3-108.4q6-14 10.8-28 5.4-15.8 9.5-28.5a1.2 1.2-61 0 1 1.9-.6q8.1 6.8 24.7 19.9c5 4 9 6.6 13.5 10.2q4 3.2 10.1 7.7a615 615 0 0 0 201.6 93.2q20.6 5.3 50.2 11.5a742 742 0 0 0 85.5 13.1q33.2 3.2 64.7 5c20 1.3 43.7 1.2 58.6 1q12.2-.2 71.5-1.8 57.3-1.6 107.6.5 24.9 1 38.3.6c30.2-1 58.8-3.5 88.1-7.5q60-8.3 113.8-31 21.7-9.2 38-20.2 10.8-7.3 15-10.8c21.7-18.4 38.2-45.4 40-74.3q.6-10.2.5-14.5c-1-30.3-1.8-51 .4-76.2q1.8-21.6 5.5-53c2.3-19.8 4-40.7 5-56.5q3.7-70-8.6-145.2-10.3-62.8-29.3-122.2-17.4-53.9-41.5-109.2c-2.9-6.7-6.5-16.1-10.2-24.5q-18.3-41.6-32.4-76.3-9.2-22.7-17.3-45.5-11.7-33.1-15.9-46.2-13.6-43-29.1-103.7l-6-23q-4.8-18-6.5-23-11.8-35.7-36.5-61.2c-31.4-32.4-71.7-57.8-113.5-79.1q-33.5-17-59-28.5a3267 3267 0 0 0-58.7-25.3q-40.4-17-49.1-21-13.3-6-23.4-9.8-11.4-4.2-17.3-5.2-5.7-.9-7.2-1.6l-11.8-5.2c-16.2-6.1-32.4-8.7-48.2-3.4q-22.4 7.5-37.1 25.9-7.1 8.9-8.5 11-10.1 15.7-20.4 31.3-13 20-26.4 39.7c-5.7 8.4-8.8 13.6-15.4 24.3q-5.8 9.4-10.5 19.2-6 12.6-7.3 18-4.2 17.9 1.6 33.8 5.6 15.6 17.2 30l4.6 5.8a2 2-43.9 0 1 0 2 56 56 0 0 0-15 32q-1 11.2 0 16.7 4.4 27 27.4 42.4 17.1 11.5 35.8 12c18 .3 37.1-7.5 52.8-17.8q3.7-2.4 7.2-4.3a5 5 0 0 1 3.5-.4c1.8.5 4.6 1.6 7.3 2.3q21.4 5.8 33.1 9.8 3.1 1 26.7 10.3 10 4 25.6 6.5a55 55 0 0 0 32-3.9q17-7.7 27.4-23.4l5.4-8a1 1 0 0 1 1-.2 164 164 0 0 0 36.3 20.6 2.7 2.5 75.8 0 1 .7.3q1.4 1.3 1.8 2.6c1.2 3.6 2 6.9 3.3 10.2q3.1 7.5 5.9 17 18 62.6 21 127.2 1.7 41-.4 80.9-1.7 31-7.3 59.3-1.7 8.7-7.9 33.9-2.4 9.9-10 33.3c-10 30.8-18 61.7-24.2 93.6q-1 5.3-4.5 28c-1 6.4-1.5 14.6-1.6 19.5l-.6.4"/><g fill="#707e9e"><path d="M880.2 125.9a76 76 0 0 0-8.5 39.4.7.7 0 0 0 1.2.4q5.4-6.6 9.6-14.4l.7.1.7-.5.3-.7c7.2-10 16.8-16 29-17q15.2-1.1 29.3 4.5c12 4.8 31.6 14.6 46.1 21.1 13.3 6 20.9 10 32.6 14.8q13 5.4 15.6 6.8c8.4 4.3 21.6 10 32.4 15q11.1 5 34.3 14.7 6.5 2.7 21.8 10c20.9 10 41 22.3 59.2 35.7q15.3 11.4 26.7 24 6.5 7.4 17.5 22.5 19.9 27.2 31.7 57.8 2.1 5.6 4.5 18.4c2.3 12.4 3.5 23.9 6 37q5.4 28.7 12.6 59.8c4.4 19.1 8.5 32.9 15 56.7 3.9 14.4 7.9 25.1 12.9 40.6q3.3 10.4 8.5 23.9l13.4 35.2q8.1 20.7 23.7 56.3 25.9 59.2 40.4 95.6 14.6 36.9 24 69 5.8 20.7 12 47.1 5.4 22.8 9.3 47.7 6.8 44.2 9.5 90.5c1.1 19.8 1.3 41.4 1.4 61q0 3.4-.6 11-.2 2.9 1 5.6-.5 8.4-1.5 16.8-.5 4.2-.5 7.5 0 6.2-.3 7.6a.5.5 0 0 1-1 .1q-1-2.2-1-2.6c-4.4-14.6-6.7-21.7-9.6-33.6q-7.4-29.5-13.7-62.4-.5-2.5-1.8-6.6a.1.1 0 0 0-.2 0q-.4 1.5-.5 4.2-1.6 30.9.7 63.5 2.5 35.5 12.5 73.3l6.7 26q-.6 23.6-13.4 40.4-11.5 15.2-29 24.1a193 193 0 0 1-54.7 18.5l-16.2 2.6-27.8 2.7c-5.5.4-12.6.2-18.2.7q-8.3.8-15-.7a100 100 0 0 0 50.5-52.9c1.8-4.6 2.4-8.1 2.8-13.5a1 1 0 0 0-1.5-.7q-1.5 1.3-10.9 12.1c-3.6 4.2-7.3 7.4-11 11.2q-3.6 3.4-9.2 7.4-11 7.6-15.3 10.1-20.4 12.1-43.9 19.3-7.4 2.2-32.6 6.6-3.7-1.1-7.4-1.4l-6-.5c-12.6-1.7-22.7-2.9-34.6-5.2q-52.6-10.4-103.1-26.2-4.7-1.5-9.2-3.2c-7.7-2.8-14-4.7-20.6-7.7l-11.5-4.3q-11.4-4.2-41.1-17.2-5.6-2.5-16.8-8l-16.6-8.3q-22-11.2-43.8-26.5l-17.4-12.3q-1.7-1.2-4.6-4.7a1 1 28.6 0 1-.3-1c.5-3.7 8.2-3.8 11.1-3.8q32.8 0 66-8.1 48.5-11.8 91-37.3 2.8-1.6 19-11.7 4.1-2.5 8.7-3.9 4.8-1.4 8.6 1.6l16 12.7q10.5 8.3 16.4 12.2 11 7.3 23.4 14.1a203 203 0 0 0 40 18.2q3 1 6-.6 7.5 4.7 15.7 7.5a.5.5 0 0 0 .7-.8q-1.4-2-3.2-3.9l-12.9-13q-3.6-8.3-7.6-16.2-6-11.5-8-16.1-6.2-14.2-10.6-26.5-8.7-24.7-13.6-49.6-4.4-22.5-6.2-34.7a444 444 0 0 1 10-165.6q7.2-29.9 18.5-69 .6-2 1.2-5a.7.7 0 0 1 1.1-.3q1.6 2.1 2.2 4.8 3.4 17.6 10.2 36.8a.3.3 0 0 0 .5-.1c0-2.5-.5-5.7-1.1-8.2q-4.4-18.4-6.8-31.7-1-5-1-12.2.4-83 .2-115.2-.1-19.7.7-49.2.7-29.1.2-62.3 0-.4.2-.6l.6-.2q1.6 4.4 2.8 8.6 7.7 30 13.8 57c6 27 10 52.7 14.8 82.9q4.7 30.1 5.4 37.6 1.5 18.5 2.4 36.5a.3.3 0 0 0 .5 0q1-3.4 1.2-7.2 3.5-84.2-8-154.4-5.1-30.5-16.5-77.2.7-5.2 0-15l-2.5-27.4q-.7-8 .1-24.3 18.4 30.8 26 45.5 20.9 40.3 34.6 69.1l16.6 34.9a.4.4 0 0 0 .8-.3q-.7-3.8-1.8-8-8.7-33.6-22-70.6-5.2-14.3-10.8-27.5c-8.2-19.1-15.4-36.5-24.7-53.8q-3.2-6-16-27.4l4.9-10.7a233 233 0 0 0 9.9-28.5c2.8-10.2.3-20.6-4.5-30l-.2-9.5a.8.8 0 0 0-1.6-.3l-2.8 6.4q-2.6.3-3.5.8-22 13.3-47.1 15.8a106 106 0 0 1-56.6-12q-22.4-11.9-36.2-33.4 1.5-7.7.7-15.4a.6.6 0 0 0-1.1-.2q-4.8 8.6-9 15.3-8.5 13.2-23.6 13.2a2 2 0 0 1-1.8-1.4q-1.3-4.6-4-16c-.8-3.7-1.8-5.8-3.4-10.3a.7.7 0 0 0-1.2-.2q-.4.7-.5 1.3c-1.8 16.3-3.9 33.3-12.4 47.7q-6.4 10.7-16.4 19.5-3.7.5-9.4 2.9-4.5 1.8-10.5 2-8.8 0-17-2.8l-7.4-2.6q-.7-7 .6-10.7c2.2-6.5 4.4-13.6 6.8-20q9.5-25.1 12-32.3 4.9-14.6 9.7-35.1c.7-3 1-6.6.9-9.8a.5.5 0 0 0-.9-.2Q939 279 927 302q-1.4 2.7-3 5l-3 3.3q-1.7 1.8-2.9 3.4c-6.5 9.2-13 19.1-21.1 26.6q-4 3.7-5.6 4.1-5 1.6-10-.8-7.3-3.7-14.5-9.7 2-8 5-16l20.5-51q9.7-24.2 15.5-49.7 1.1-4.9-.6-3.4-4 2.7-5.1 4.4c-3.7 5.4-7.9 11-11.4 16.2q-19.3 28.5-30.8 46-9.4 14.5-14.5 21.8c-3.5 5-10.5 6.6-16.1 5.9-6.3-.9-11.8-6-15.2-11.3q.9-4.3 2.5-8.4 4.3-10.9 9.3-21.5c8.1-16.9 16-34.1 22.8-50.4q7.2-17.4 11-30.2 1.7-6.1 2.4-11.1a.4.4 0 0 0-.8-.3q-4.3 5.6-6.9 9.7-15.5 24.1-30.7 48.5-3.4 3.5-4.5 4.9-8.5 10.6-18.7 24c-6.1 8-15.8 2.5-21.7-3q-5.4-5-7.6-8l1.4-3.2q-.1 1 .5 1l.6-.2c4.4-7 9.5-12.7 15.3-20.7q12.3-17.2 24.4-34.8c5.6-8 12.2-15.1 17.8-22.6 5-6.7 8.2-11.2 11.4-14.6l2-2.3q4.4-5.9 13-15.4 4.7-5.3 9.6-8.7 6-4.2 12.9-3.6m87 39.9a.5.5 0 0 0 .3-.9c-16.4-11.6-35.5-4.5-44.7 11.8a47 47 0 0 0-3 28.3 1 1 52.6 0 0 1.8.3q5-11.5 12-21.3 10.6-15 26.7-17.1zm48.2 49.5c-.8-1.2-2.3-2-3.3-2.6-11.4-7.5-28-7.7-37.3 2.5-7.2 7.8-9.1 21-8 31.5q0 .5.3.8a1 1 36.6 0 0 1.2-.2q5.7-10.4 12.6-19 6-7.3 14.9-10.2c5.6-1.8 14-.8 19.3-2a.5.5-22.8 0 0 .3-.8"/><path d="M780.2 349.6q10 3.8 17.9 10.1 6.3 5.1 12.5 10.5 6 5.3 10.8 11.7 3.6 4.9 4.1 11.1-7.5 1.8-13.5 1.5a39 39 0 0 1-17.6-7.2c-11-7-16.8-20.3-16-32.8q.3-2.4 1.8-4.9M647.3 808.5q-20.7 7.9-27 11-23.8 11.5-37.3 20.2-6.2 4-30.1 20.9l-3.5.3-1 .2q-2.6 1.6-5.5 3-3 1.6-19 11.5-10.2 6.3-18.6 12a963 963 0 0 0-96.9 76.8q-28.8 25.9-39.8 35.4-29.6 25.5-62.7 48.4-29.2 20.2-65.6 39.3a436 436 0 0 1-56.2 23.8q-10.1 3.6-20.7 6.5-9.7 2.5-21.1 5.2l-34.9 8.1q-1.3-4.3-2.9-12.4-5.6-29-8-46.2-10.4-77.5 1-154.6a446 446 0 0 1 21.8-86.1q1-2.8 3.6-5.2 5.6-5 9.2-7.2 33.5-20.4 70.4-33.4c27.8-9.8 57.8-18 87.4-20.8q11.6-1.1 41.7-3c2 0 4.3.2 6.1-.4q.5-.2.3-.6l-.2-.1q-25-6.1-55-7.6-25.9-1.3-50.3 2.7-49.7 8.2-93.6 31.2a.3.3 0 0 1-.4-.3q0-1.2.8-2.9 11.2-24.2 25.2-47l4.8-7.2q.3 1.2 2.4 0 21.6-11.8 42.2-20.8c11.4-5 22.5-8.2 37.3-12.3q21.4-5.8 32.5-7.5c33.2-5.1 66.7-6.6 99.4-3.5q50.5 4.7 96.5 19.8 11.4 3.8 28 10.5 12.9 5.3 27.1 12.6 31 16.1 59 36.3 5.3 3.9 12.3 9.5 4.7 3.8 12.3 9.5 15 11.3 29 24.4m-102 343.9q1-.4 3-.6 8.2-.9 20.4-2.5 2.8-.4 14.7-.3 6.1 0 14.7.9 25.4 2.6 34.2 3.8c13.3 1.7 30 4.8 44.8 7.1q42.8 6.7 70.8 12.9 34 7.5 65.4 20.1 11.2 4.5 28.6 12.6 27 12.4 44.1 22.8 20 12.1 34.5 22.1c4 2.8 10.8 8 9.6 13.3s-6 8-10.6 9.6q-15.7 5.2-33.7 6.6-28.3 2.1-52.1 1c-28.8-1.1-57-3.8-84.9-10.3q-33-7.7-55.9-16-33.4-12-63.3-30.1-20-12.1-42.6-28.4-9.8-7.1-17.1-13.5-9.3-8.2-16.1-14.7c-4-3.8-8.4-8.5-9.8-13.9a2 2-18.7 0 1 1.3-2.5m-262.9 285q-16.6-12.5-24-19.8-24-23.4-43.4-49.3-6.9-9.3-17.1-23.5-11.9-16.5-21.5-34.6c7-5.4 14.4-10 23.2-15.7q9.2-6 17.6-11.8 34.6-23.8 42.2-28.5l22.4-13.9q8.3-5 16.1-8.9c12.1-5.9 23-10.7 35.2-12.2 16.6-2.1 22.1 9.8 21.4 24q-.4 7.4-1.7 15-2.3 13.7-7 28.8-7.8 25.8-11 34.7c-3 8.5-4.2 12.6-7.4 19.6-3.6 8.2-8.2 19.7-12.5 29l-12.3 26.3-5.8 11.8-6 11.7-4.3 8.2q-2.3 4.4-4 9"/></g><path fill="#ff627e" d="m1038 952.8 11.2 20.9a.3.3 0 0 1-.4.3q-9.4-6.5-27-17.8-10.8-7-28-15-39-18.4-79.2-27.5-8.6-2-20.6-2.9a.3.3 0 0 0-.2.7c2.7 1.5 6 3.3 7.9 4q28.7 12 56 26c26 13.5 49.7 28.2 71.8 46.4q-2.6 12-4.2 14.9-7.4 13.3-19.5 21.7-13.2 9-27.9 15.1-14.5 6-25.4 9.2a416 416 0 0 1-64 12.4q-56.8 7.4-115.7 3.6-15-1-28.8-3a413 413 0 0 1-50-9.9q-43.3-12-83.9-31.3-17.8-8.5-26-12.7-30.3-16-56.7-34.8-13.5-9.5-23.5-21.2 5.1-8.2 14.3-13l16.3-8.5q22.2-11.1 42.5-18.4 28.7-10.2 62.5-17.5 4.3-1 29.6-5.4 8.4-1.4 15-2.2 13.4-1.5 15.3-1.9a.5.5 0 0 0 .1-.9l-1.2-.2q-19.5-2.4-36-2-57.8 1.4-113.1 19a.2.2 0 0 1-.2-.4q18-16.8 38.3-30.9 4.9-.8 9.6-2.3c11.2-3.4 23.6-6.4 32.4-9q21.4-6.2 25.3-7c13.4-2.8 26-6 39-7.9q30.9-4.4 59.4-5.8 48-2.5 97.6 9.2 13.8 3.2 27 8 14.2 5 26.5 9.7 3 1.1 13.3 6.5c8.3 4.3 18 8.5 25.9 13.5l20.2 12.8q10.2 6.5 19.7 13.4 17 12.5 34.4 27.4 3.6 3.1 15.6 11.8a3.8 3.6 88 0 1 .9.8q2.4 3.4 4 2"/><g fill="#333853"><path d="m1049.2 920 .6-.4c0-4.9.6-13.1 1.6-19.4q3.5-22.8 4.5-28a796 796 0 0 1 24.2-93.7q7.6-23.4 10-33.3 6.2-25.2 8-33.9 5.5-28.3 7.2-59.3 2.1-40 .3-81-2.8-64.5-21-127.1-2.7-9.5-5.8-17c-1.3-3.3-2.1-6.6-3.3-10.2q-.4-1.3-1.8-2.6a2.7 2.5 75.8 0 0-.7-.4 164 164 0 0 1-36.2-20.5 1 1 0 0 0-1.1.2l-5.4 8Q1020 417 1003 424.8a55 55 0 0 1-32 3.9q-15.5-2.6-25.6-6.5-23.6-9.3-26.7-10.3-11.7-4-33.1-9.8c-2.7-.7-5.5-1.8-7.3-2.3a5 5 0 0 0-3.5.4l-7.2 4.3c-15.7 10.3-34.8 18.1-52.8 17.7q-18.7-.4-35.8-12-23-15.3-27.4-42.3-1-5.5 0-16.6c1-13 7-22.7 15-32.2a2 2-43.9 0 0 0-2l-4.6-5.7q-11.6-14.4-17.2-30-5.8-16-1.6-33.7 1.3-5.5 7.3-18 4.7-9.9 10.5-19.3c6.6-10.7 9.7-15.9 15.4-24.3q13.4-19.8 26.4-39.7 10.3-15.6 20.4-31.3 1.4-2.1 8.5-11 14.7-18.4 37-25.9c16-5.3 32-2.7 48.3 3.4l11.8 5.2q1.5.7 7.2 1.6 5.9 1 17.3 5.2 10 3.8 23.4 9.8 8.8 4 49.1 21a3267 3267 0 0 1 58.6 25.3q25.6 11.5 59 28.5c41.9 21.3 82.2 46.7 113.6 79.1q24.7 25.5 36.5 61.3 1.7 5 6.5 22.9l6 23q15.5 60.8 29.1 103.7 4.2 13 16 46.2 8 22.8 17.2 45.5 14.1 34.7 32.4 76.3c3.7 8.4 7.3 17.8 10.2 24.5q24.1 55.3 41.5 109.2 19 59.4 29.3 122.2 12.3 75.3 8.5 145.1c-.8 16-2.6 36.8-4.9 56.7q-3.7 31.3-5.5 52.8c-2.2 25.2-1.4 46-.4 76.3q.1 4.3-.5 14.5c-1.8 28.9-18.3 56-40 74.3q-4.2 3.5-15 10.8-16.3 11-38 20.2-53.8 22.7-113.8 31c-29.3 4-57.9 6.6-88.1 7.5q-13.4.4-38.3-.6-50.3-2.1-107.5-.5-59.4 1.6-71.6 1.8c-15 .2-38.6.3-58.6-1q-31.5-1.8-64.7-5a749 749 0 0 1-85.5-13q-29.6-6.3-50.2-11.6c-72-18.7-141-50-201.6-93.2q-6.2-4.5-10.1-7.7c-4.5-3.6-8.5-6.2-13.5-10.2q-16.6-13-24.7-19.9a1.2 1.2-61 0 0-2 .6q-4 12.7-9.4 28.5-4.8 14-10.8 28A583 583 0 0 1 310.8 1464q-5 5-9.6 6.7-2 .7-10.2.7-9.1.1-16-5-18.1-13.5-31-25.4t-30.3-30.2q-13.7-14.4-32.5-40.2-1.4-1.8-11-16.4a619 619 0 0 1-43.4-77.5q-7.5-15.8-13.7-31.5-9.7-25-12.2-32-6.5-18.9-13.5-43.3c-4-14-7.1-27.3-10-43.4q-3-15.5-5-27.2-14.8-80.4-6-162.4c3.1-30 9.3-60.3 17.7-90.3q1.4-5.1 9.8-29.5 4.8-14.3 11.6-29.4 13.6-30.3 32.3-60.8 9-14.7 20.2-29.7t22.4-28q5.3-6.2 9.5-9.6 3-2.4 9.8-5.4 33.7-15 75.1-24.2c30.6-6.8 61.1-8.9 92.7-8.3q33.9.6 62.9 6.4c23 4.7 47.3 11.5 70 20.8 21.4 8.7 41.7 19 61 32q15 10 22.7 16 5.2 4 19.6 16a374 374 0 0 1 38.2 36.9c5.8 6.4 13.4 16.5 20.2 24.6 5.5 6.6 9.9 14.3 15.1 21.2a2 2-25.2 0 0 2.4.9c3-.7 6-1.9 8.5-2.4 13.7-3 26.5-6.7 39.7-8.4q25.5-3.4 41.2-4.4 30-1.8 62.5 2.2 16.7 2 34.7 7 20.2 5.5 33.7 10.8 6.5 2.6 27.5 12.5 6.1 2.8 22.2 12.7 11.8 7.3 21 14.3 25.5 19.7 45 39.6 4.8 5 11 12.5l4 4.6c2 2 3.3 4.4 5.1 6.4q7.3 8.2 12.9 15.7.2.3.6.4M772.7 247.8l-1.4 3.1q-5.3 18.3 5.4 33.3c6 8.5 8.7 13.3 14 18.6a.6.6 0 0 0 1-.2 187 187 0 0 1 14.5-36.3l7.2-14q5-9.7 10.4-19.2 15.2-24.4 30.8-48.5 2.5-4 6.8-9.7a.4.4 0 0 1 .8.3q-.7 5-2.5 11-3.7 12.9-11 30.3A945 945 0 0 1 826 267q-5 10.6-9.3 21.5-1.6 4-2.6 8.4-1.8 5.5-3 12.7c-3.2 17.6 12.7 27.3 26.3 34.3l8 4a.7.7 0 0 0 1-.6q.8-16.6 7.5-32.8 6-14.2 10-22.5 7.3-15 14-27l18-31.7q2.4-4.5 5.6-9.7l5.8-9.7q1.7-1.5.6 3.4-5.8 25.5-15.5 49.7L872 318q-3.2 8-5.1 16c-3.1 11.5-5.2 28.1 7.6 35 10.4 5.5 22 7.8 33.1 10.8a.7.7 0 0 0 .9-.9 64 64 0 0 1 2.3-40q5.4-14.3 10.8-26 1.3-2.7 2.5-5.8 1.5-2.3 2.9-5 12-23 26.7-46.7a.5.5 0 0 1 .9.2c.1 3.2-.2 6.9-1 9.8q-4.7 20.5-9.7 35.1-2.4 7.2-11.9 32.4c-2.4 6.3-4.6 13.4-6.8 20q-1.3 3.6-.6 10.6c.2 9.8 2.8 17.7 10.8 23.7q4.6 3.4 14.5 7.9 5.1 2.3 13.2 4.4 9.3 2.3 13.7 2.8 10 1.1 18.2-3.3 6.2-3.4 13.3-13.1 4.9-6.9 11.4-18.2 3.3-5.7 1.2-12.6c-2.7-8.8-13.5-8.5-19.4-3.6q-5 4.1-5.9 11l-1.4 12a1.3 1.3 18.2 0 1-1.9 1q-.8-.5-1.1-2L989 364a2 2 0 0 0-2.3-1.4q-9 2-17.9 1.4 10.1-8.8 16.5-19.5c8.6-14.4 10.6-31.4 12.4-47.7q0-.6.5-1.3a.7.7 0 0 1 1.2.2c1.6 4.5 2.6 6.6 3.5 10.4q2.6 11.3 3.9 15.9a2 2 0 0 0 1.8 1.4q15.1 0 23.6-13.2 4.2-6.7 9-15.3a.6.6 0 0 1 1.1.2q.8 7.7-.7 15.4-3.8 13.2-14 21.6a1 1 0 0 0 0 1 36 36 0 0 1 11.2 14.7c2 4.3 4.9 10.9 8.2 15.3q5.9 7.6 12.5 12 11.2 7.6 30.2 13.9 7 2.3 12 2.4c31.3 1 60.7-16.5 78.3-42q3-4.4 5-10l2.8-6.5a.8.8 0 0 1 1.6.3l.2 9.6q-1.8 14-8 25.4-6 10.7-14.7 20.3a2 2-39.2 0 0-.2 2.1l12.7 21.3q12.7 21.4 16 27.4c9.2 17.3 16.4 34.7 24.6 53.8q5.6 13.2 10.7 27.5 13.4 37 22.1 70.7l1.8 8a.4.4 0 0 1-.8.2l-16.6-34.9q-13.7-28.8-34.6-69-7.6-14.8-26-45.6-7-13.7-10.4-19.3-7.3-12.4-15.8-23.6c-2-2.7-6-1.8-8.8-.8a1.2 1.2 0 0 0-.7 1.7q10.4 23.3 20.1 49.3c8 21.4 12.2 39.6 18 59.4q11.4 46.7 16.4 77.2 11.6 70.2 8.1 154.4-.1 3.8-1.2 7.3a.3.3 0 0 1-.5 0q-.9-18-2.4-36.6-.7-7.5-5.4-37.6c-4.8-30.2-8.7-56-14.8-82.8q-6-27.1-13.8-57.1-1.2-4.2-2.8-8.6-9-29.4-19.3-58.4c-2-6-5.8-17.4-9.3-25.7q-5.6-13.2-15.6-33.4a2 2 76.8 0 0-2-1.2h-10.6a1.4 1.4 89.4 0 0-1.4 1.4v.8q14.8 40.1 21.9 83.1 3.7 22.3 4 24.9 4 33.4 4.6 78.8c.5 36-1.5 70.6-8 106q-4.3 23.7-10.3 46l-2.3 8.3-14.1 48.1q-7.7 26.5-10.7 40a462 462 0 0 0-11.6 72l-.7 11.8q-1.2 25.4 2.5 50.3c.7 5 2.5 12.5 3.6 17.4q4.1 18.8 12.6 39.2 9.1 22.2 20.9 43.8a308 308 0 0 0 32.7 47q9.5 11.6 22.4 21l12.9 13q1.8 1.8 3.2 3.8a.5.5 0 0 1-.7.8q-8.2-2.8-15.7-7.5l-11-7.3q-23-15.4-41-36a294 294 0 0 1-40-56q-2.7-5.1-6.5-14l-6.2-14.4-6.2-17.5q-2-5.3-5.3-8.5-10.4-10.1-25.9-22.5a397 397 0 0 0-71.8-46.4q-27.3-14-56-26c-1.8-.7-5.2-2.5-8-4a.3.3 0 0 1 .3-.7q12 1 20.6 3 40.1 9 79.3 27.4 17.1 8 28 15 17.5 11.3 27 17.8l.3-.3-11.2-21q-25.2-38.2-59.1-68.6a381 381 0 0 0-33.2-26.4q-13.2-9.4-35.2-20.6-8.3-4.2-19-8.4-13.2-5-19.6-7-31.5-10.2-67-12.4c-6.3-.3-13.7 0-19.4-.1q-7.7-.2-14.5.4-25.8 2-37.5 4-35.2 5.5-71.4 18.4-39.8 14-74.8 37.6-20.3 14-38.3 31a.2.2 0 0 0 .2.3q55.3-17.6 113-19 16.6-.4 36 2l1.3.2a.5.5 0 0 1-.1 1l-15.2 1.8q-6.7.8-15 2.3-25.4 4.4-29.7 5.3-33.8 7.3-62.5 17.5-20.3 7.3-42.5 18.4l-16.3 8.5q-9.2 4.8-14.3 13-15.7 19.8-28.8 40l-2.8 4.5-22.7 35.2q-15.8 24.3-22 32-7.6 9.6-16 21c-2.2 2.8-5.1 6-7 8.2a1 1-61.8 0 0 .5 1.7 738 738 0 0 0 95.4 18.5q14.2 2 29.8 2.7 38.7 1.7 76.4-1.2 3.1-.3 6 0a.5.5 0 0 1 .1 1q-3.8 2.4-7.7 4-20.2 8.5-41.6 12.4-15.3 2.8-43.2 4.1-24.2 1.2-48 0a1.2 1.2-85.8 0 0-1.3 1.1c-.8 8-1.2 16.2-2.4 24.4l-3.3 22q-.5 3.4-.4 5l.5 1q2 2 4.4 4c24.8 20.5 50 40.7 78.4 58.5q32.6 20.4 65.4 35.8a597 597 0 0 0 110.2 38.9 843 843 0 0 0 85.4 16.6q14.1 2 42 5.3 41.6 5 83 5.4 34.6.4 97.5-1.5c19-.5 33.5-.8 51.6-.7a.4.4 0 0 0 .1-.8q-26.5-12.6-53.9-28.8-8.5-5-15.9-10.3-20.9-14.8-38.5-29.2-11.6-9.5-18.8-18.2l-.4-.6a.6.6-83.4 0 1 1-.7l4.6 2.5c9.2 4.6 19.7 10.8 34 19q12.2 6.8 29.7 15.8c23.8 12.3 48.3 25 72.5 34.9q22.6 9.2 47 15a98 98 0 0 0 20.5 2.8q33.2 1.2 66.3-2.8 30.7-3.6 42.3-5.7 28-4.9 35.7-6.8 17.1-4.2 32.4-9.3c9.4-3.1 17.7-5.4 26.1-9q14.8-6.3 18.8-8.3 9.4-4.6 21-11.7 11.8-7.4 18.8-14.6a84 84 0 0 0 24.5-49.2c.4-5-1.3-9-2.7-13.8q-1.7-6-4.6-12.7l-6.7-26q-10-37.7-12.5-73.3-2.2-32.6-.7-63.5.1-2.7.4-4.2a.1.1 0 0 1 .3 0q1.3 4.1 1.8 6.6 6.3 33 13.7 62.4c3 11.9 5.2 19 9.5 33.6l1.1 2.6a.5.5 0 0 0 1 0q.2-1.5.3-7.7 0-3.3.5-7.5 1-8.4 1.5-16.8 5-38.3 7.6-76.7c2-30.7.9-60-1.7-92q-2.5-30.8-6.9-56-5.8-34.3-15.3-69.3c-9.6-35-16-57.9-27-84.8q-10.5-26.2-16.4-41.5c-6.3-16.3-15-35.9-24.9-59.3l-12.2-29c-10.3-23-19.9-46-29-71.3-11-30.8-18.5-51.5-26.4-78.6q-16.3-56.2-31.3-115.4l-3-11.2a101 101 0 0 0-10-25q-11.2-19.3-25.3-33.5c-27.4-27.5-60.8-47.7-97.5-66.5q-27.9-14.3-48-23.7-34.6-16-46.3-20.8c-33.1-14-60.6-25.4-86.9-37.3q-8.6-4-14-5.2-2.5-.6-8-.4-13.6.7-25.5 6c-11.6 5-18.2 16.2-23.5 27.3q-4.2 7.8-9.6 14.4a.7.7 0 0 1-1.2-.4 76 76 0 0 1 8.5-39.4q8.8-13.8 25.5-17.8a.4.4 0 0 0 0-.7q-23.5-9.5-43 4a52 52 0 0 0-12.5 13.5q-7 10-12.2 18.1-19.8 30.9-37.7 57.8a670 670 0 0 0-19.6 31.8q-4 6.8-8 15.2m7.5 101.8q-1.6 2.5-1.7 5a36 36 0 0 0 15.9 32.7c5.3 3.4 11.8 7 17.6 7.2q6 .3 13.5-1.5a63 63 0 0 0 22.4-9 1 1-27.3 0 0 .5-1.5q-2.1-4.7-6.3-7.6a73 73 0 0 0-8.3-5q-5.3-2.6-12.7-6.7-19.2-10.5-32-27.9h-.4zM169.3 730l-4.8 7.3q-14 22.7-25.2 47-.8 1.6-.8 2.8a.3.3 0 0 0 .4.3q43.9-23 93.6-31.2 24.4-4 50.2-2.7 30.1 1.5 55 7.6h.3q.2.5-.3.7c-1.8.6-4.2.3-6.1.5q-30 1.8-41.7 2.9c-29.6 2.8-59.6 11-87.4 20.8q-37 13-70.4 33.4-3.6 2.2-9.2 7.2-2.6 2.4-3.6 5.2a449 449 0 0 0-21.8 86.1q-11.4 77.1-1 154.6 2.4 17.1 8 46.2 1.6 8.1 2.9 12.4c4.5 18.2 8.2 36.9 13.8 54.4q18.7 57.7 42.9 104 2.4 4.5 12.3 20.7 9.6 18.1 21.5 34.6 10.2 14.2 17.1 23.5 19.4 25.9 43.4 49.3 7.4 7.3 24 19.8l8.3 5.6a1 1 0 0 0 1.1 0q12-11.5 23.5-24.7 16.8-19.5 32.8-41.2 17.8-24.2 35.5-57.2l8-15q3.2-5.8 6.3-13 7.3-16.1 14-32 4.3-10 8-21.1c3.8-11.6 7.5-21.9 10.4-33.3l3.2-12q2.9-10.8 5-28l3.3-30.2a1 1-84.2 0 0-.8-1q-17.8-1.8-38-5.4-17.7-3.2-27.1-5.5a3 3-59.5 0 0-2.3.6q-15.1 14-24.2 21.9l-19.2 16a490 490 0 0 1-110.3 69.3q-17.1 7.8-38.8 15.9-5.2 2-11 2.9a.6.6 0 0 1-.6-1q3.6-3.8 8.9-7.1 18.8-11.9 25-16.2 9.7-6.8 16.2-11.1 21.4-14.5 51.3-38a894 894 0 0 0 101.7-95.6 623 623 0 0 0 39.9-48.7q20.4-28.2 39-55.5 20.9-30.7 34.1-47 19.9-24.2 27.4-32.3 14.2-15.2 29.8-29.2 4.7-4.2 10-7.7 24-17 30.2-20.9 13.5-8.7 37.2-20.2 6.4-3.1 27-11l3-.8a.6.6 0 0 0 .4-1q-12.9-18-27-34.5-4.7-5.7-7.9-8.7c-8.4-8.3-16-16.6-23.8-23.3-14.9-12.8-28.8-24.9-44.5-34.8q-26-16.6-51.8-27.7-49.9-21.6-105.8-26.4-58.9-5-114.6 8.1-25.9 6-49.9 14.5-7.1 2.5-14.8 6.2-4 1.9-5.2 3.2-19.5 22.2-36 46.7"/><path d="m967.3 165.8-7 1q-16.1 2.2-26.8 17.2-7 9.8-12 21.3a1 1 52.6 0 1-1.7-.3 47 47 0 0 1 3-28.3c9.3-16.3 28.4-23.4 44.7-11.8a.5.5 0 0 1-.2.9m48.1 49.5a.5.5-22.8 0 1-.3.7c-5.2 1.3-13.7.3-19.4 2.1q-8.9 3-14.8 10.3-6.9 8.5-12.6 18.9a1 1 36.6 0 1-1.2.2q-.3-.3-.3-.8c-1.1-10.6.8-23.7 8-31.5 9.3-10.2 26-10 37.3-2.4 1 .6 2.5 1.3 3.3 2.5m-507 809.7q4.2-.4 7.8 2c13.5 8.9 32.3 18.4 43.7 24.8q14.5 8.2 26.5 14 39 18.4 70 29 15.4 5.3 38.6 10.7a502 502 0 0 0 134.7 13.5q66.7-3 130-21.5l29-8.8c3.5-1 8.9-2.6 13-2.2q0 1.3-1.2 2-12 7.4-24.1 13.6l-13.9 6.5q-7.4 3.5-14 6.1-27 10.9-50.6 16.9-10.6 2.6-31 6.1-40.3 6.9-79 6.1c-30.7-.5-61.3-5.4-92-12.5q-22.3-5.1-41.5-12.5-25.5-9.8-42.3-18.4a369 369 0 0 1-42.7-25.3q-32.3-22.5-61-50.1m761 272.6c-3 1.2-5.9 2.8-8.8 3.7-9.5 3-18.2 5.5-27.6 6q-18 .7-34.3-4.5-3-1-5.6-2.3a1 1 0 0 1 .2-1.8l5-1.5q25.3-4.4 32.7-6.6 23.5-7.2 43.9-19.2 4.2-2.6 15.3-10.2 5.6-4 9.1-7.5c3.8-3.7 7.5-7 11.1-11q9.4-10.9 10.9-12.2a1 1 0 0 1 1.5.7c-.4 5.4-1 8.9-2.8 13.5a100 100 0 0 1-50.6 52.8"/></g><g fill="#566386"><path d="m907.3 213.8-5.8 9.7q-3.2 5.2-5.7 9.7Q887.1 249 878 265q-6.7 11.9-14 26.9-4 8.3-10 22.5-6.7 16.2-7.6 32.8a.7.7 0 0 1-1 .6l-7.9-4c-13.6-7-29.5-16.7-26.4-34.3q1.3-7.2 3.1-12.7c3.5 5.3 9 10.4 15.3 11.3 5.6.7 12.6-1 16-5.9q5.2-7.3 14.6-21.7 11.5-17.6 30.8-46c3.5-5.3 7.7-10.9 11.4-16.3q1-1.7 5.1-4.4M823.8 233q-5.4 9.6-10.4 19.3l-7.2 14a188 188 0 0 0-14.5 36.3.6.6 0 0 1-1 .2c-5.3-5.3-8-10-14-18.6q-10.7-15-5.4-33.3 2.2 3.1 7.6 8.2c5.9 5.4 15.6 11 21.7 3q10.2-13.5 18.7-24.1 1.1-1.4 4.5-5M924 307q-1.1 3-2.4 5.9-5.4 11.6-10.8 26c-4.8 13-6 26.5-2.3 40a.7.7 0 0 1-.9.8c-11-3-22.7-5.3-33.1-10.9-12.8-6.8-10.7-23.4-7.6-34.9q7.2 6 14.5 9.7 5 2.4 10 .8 1.5-.4 5.6-4.1c8-7.5 14.6-17.4 21.1-26.6q1.2-1.6 2.9-3.4zm117.6 3.4q13.8 21.5 36.2 33.4a106 106 0 0 0 56.6 12q25-2.5 47-15.8 1-.5 3.6-.8-2 5.7-5 10.1c-17.6 25.5-47 43-78.2 42q-5.2-.1-12.1-2.4-19-6.3-30.2-13.8-6.6-4.5-12.5-12.1c-3.3-4.4-6.3-11-8.2-15.3a36 36 0 0 0-11.2-14.6.7.7 0 0 1 0-1.1q10.2-8.4 14-21.6M825.5 393q-.5-6.2-4.1-11.1-4.8-6.4-10.8-11.7-6.2-5.4-12.5-10.5-8-6.3-17.9-10l8.5-14.4h.4q12.8 17.4 32 28 7.4 4 12.7 6.6a73 73 0 0 1 8.3 5q4.1 3 6.3 7.6a1.2 1.2-27.3 0 1-.5 1.6 63 63 0 0 1-22.4 9m353.9 18.7-12.7-21.3a2 2-39.2 0 1 .2-2.1q8.8-9.6 14.6-20.3 6.3-11.5 8-25.4a41 41 0 0 1 4.6 30c-2 7.4-5.8 19.1-10 28.4zm-254.8-48.4 7.3 2.6q8.3 2.8 17.1 2.7 6 0 10.5-2 5.7-2.3 9.4-2.8 8.8.6 17.8-1.4a2 2 0 0 1 2.3 1.4l2.1 9.4q.4 1.6 1.2 2.1a1.3 1.3 18.2 0 0 1.9-1l1.4-12q.8-6.9 5.9-11c6-5 16.7-5.2 19.4 3.6q2.1 6.9-1.2 12.6-6.5 11.3-11.5 18.2-7 9.7-13.2 13.1-8.2 4.4-18.2 3.3-4.4-.5-13.7-2.8-8.1-2-13.2-4.4-10-4.5-14.5-7.9c-8-6-10.6-14-10.8-23.7m252 86.5q-.8 16.2 0 24.4l2.3 27.2q.8 10 .1 15.1c-5.8-19.9-10-38-18-59.4q-9.7-26-20.1-49.3a1.2 1.2 0 0 1 .7-1.7c2.8-1 6.8-1.9 8.8.9q8.5 11.1 15.8 23.5 3.3 5.6 10.4 19.3m-14 82.9q-.4 0-.6.2-.3.2-.2.6.5 33.2-.2 62.3-.8 29.5-.7 49.2.2 32.1-.1 115.2 0 7.1.9 12.2 2.4 13.3 6.8 31.7c.6 2.5 1 5.7 1.1 8.2a.3.3 0 0 1-.5 0q-6.8-19-10.2-36.7-.6-2.7-2.2-4.8a.7.7 0 0 0-1.1.3q-.6 3-1.2 5-11.3 39.1-18.5 69a444 444 0 0 0-10 165.6q1.8 12.2 6.2 34.7 4.9 25 13.6 49.6 4.4 12.3 10.6 26.5 2 4.6 8 16.1 4 7.9 7.6 16.3-12.9-9.4-22.4-21a307 307 0 0 1-32.7-47q-11.8-21.6-21-43.8-8.4-20.4-12.5-39.2c-1-4.9-2.9-12.4-3.6-17.4a258 258 0 0 1-2.5-50.3l.7-11.8a462 462 0 0 1 11.6-72q3-13.5 10.7-40l14-48 2.4-8.4q6-22.3 10.4-46c6.4-35.4 8.4-70 8-106q-.6-45.4-4.7-78.8-.3-2.6-4-24.8-7.1-43-21.9-83.2v-.8a1.4 1.4 89.4 0 1 1.4-1.4h10.6a2 2 76.8 0 1 2 1.2q10 20.2 15.6 33.4c3.5 8.3 7.2 19.7 9.3 25.7q10.4 29 19.3 58.4M552.9 860.6q-5.4 3.5-10 7.7-15.7 14-29.9 29.2-7.5 8.1-27.4 32.4-13.2 16.2-34 46.9-18.7 27.3-39.1 55.5A759 759 0 0 1 310.3 1143a894 894 0 0 1-39.4 33.5q-29.9 23.5-51.3 38-6.5 4.3-16.1 11-6.3 4.5-25.1 16.3-5.3 3.3-8.9 7a.6.6 0 0 0 .5 1q5.9-.9 11.1-2.8 21.7-8.1 38.8-16a489 489 0 0 0 110.2-69.1l19.3-16.1q9-7.9 24.2-21.9a3 3-59.5 0 1 2.3-.6q9.4 2.3 27.2 5.5 20 3.6 37.9 5.4a1 1-84.2 0 1 .8 1l-3.3 30.2q-2.1 17.2-5 28l-3.2 12c-3 11.4-6.7 21.7-10.4 33.3q-3.7 11-8 21-6.7 16-14 32.2-3.1 7.1-6.3 12.9l-8 15q-17.7 33-35.5 57.2-16 21.7-32.8 41.2-11.4 13.2-23.5 24.6a1 1 0 0 1-1.1.1l-8.3-5.6q1.8-4.7 4.1-9l4.3-8.3q1.8-3.8 6-11.7 1.3-2.4 5.8-11.8l12.3-26.2c4.3-9.4 8.9-21 12.5-29 3.2-7.1 4.4-11.2 7.4-19.7q3.2-9 11-34.7 4.7-15.1 7-28.7 1.3-7.7 1.7-15c.7-14.3-4.8-26.2-21.4-24.1-12.3 1.5-23 6.3-35.2 12.2q-7.8 3.8-16 9l-22.5 13.8q-7.6 4.7-42.2 28.5-8.4 5.8-17.6 11.8c-8.8 5.7-16.2 10.3-23.2 15.7q-9.9-16.2-12.3-20.8-24.2-46.2-42.9-103.9c-5.6-17.5-9.3-36.2-13.8-54.4l34.9-8.1q11.4-2.7 21-5.2 10.7-2.9 20.8-6.5a436 436 0 0 0 56.2-23.8q36.4-19.1 65.6-39.3 33.1-23 62.7-48.4 11-9.5 39.8-35.4a963 963 0 0 1 96.9-76.8q8.4-5.7 18.6-12 16-10 19-11.4l5.6-3 .9-.3z"/><path d="M508.4 1025q28.7 27.6 61 50a369 369 0 0 0 42.7 25.4q16.8 8.6 42.3 18.4 19.2 7.4 41.5 12.5c30.7 7.1 61.3 12 92 12.5q38.7.8 79-6 20.4-3.6 31-6.2 23.7-6 50.6-16.9 6.6-2.7 14-6l13.9-6.6q12.2-6.2 24.1-13.6 1.2-.7 1.2-2 4-1.8 5.4-2.7 18.9-12.2 27-18.7 6.8-5.2 30.4-27l.6-.2q1.2 0 1.8-1.5l6.2 14.3q3.8 9 6.5 14.1a294 294 0 0 0 40 56q18 20.6 41 36l11 7.3q-3 1.6-6 .6c-14.2-4.3-26-10.3-40-18.2q-12.4-6.8-23.4-14.1-6-4-16.4-12.2l-16-12.7q-3.8-3-8.6-1.6-4.6 1.4-8.6 4l-19 11.6q-42.6 25.5-91 37.3-33.4 8-66 8c-3 0-10.7.2-11.2 4a1 1 28.6 0 0 .3.9q3 3.5 4.6 4.7l17.4 12.3q21.8 15.3 43.8 26.5l16.6 8.3q11.2 5.5 16.8 8 29.7 13 41.1 17.2l11.5 4.3c6.6 3 13 4.9 20.6 7.7q4.5 1.7 9.2 3.1 50.5 16 103.1 26.3c12 2.3 22 3.5 34.6 5.2l6 .5q3.7.3 7.4 1.4l-5.1 1.5a1 1 0 0 0-.2 1.8q2.6 1.4 5.6 2.3 16.4 5.2 34.3 4.4c9.4-.4 18.1-3 27.6-6 2.9-.8 5.9-2.4 8.8-3.7q6.8 1.5 15.1.8c5.6-.5 12.7-.3 18.2-.7q20.5-1.8 27.8-2.7l16.2-2.6a193 193 0 0 0 54.6-18.5q17.6-8.9 29.1-24.1 12.8-16.8 13.4-40.4 2.9 6.8 4.6 12.7c1.4 4.7 3.1 8.8 2.7 13.8a84 84 0 0 1-24.5 49.2q-7 7.2-18.9 14.6-11.5 7.1-20.9 11.7-4 2-18.7 8.3c-8.5 3.6-16.8 5.9-26.2 9q-15.3 5.1-32.4 9.3-7.8 2-35.7 6.8-11.6 2-42.3 5.7-33 4-66.2 2.8c-7.1-.3-13.4-1-20.7-2.8q-24.3-5.8-47-15a940 940 0 0 1-72.4-35q-17.5-9-29.7-15.8c-14.3-8-24.8-14.3-34-19l-4.7-2.4a.6.6-83.4 0 0-.9.7q0 .3.4.6 7.2 8.8 18.8 18.3 17.6 14.3 38.5 29.1 7.4 5.2 16 10.3 27.3 16.2 53.8 28.8a.4.4 0 0 1-.1.8c-18 0-32.6.2-51.6.7q-63 1.9-97.5 1.5-41.4-.5-83-5.4-27.9-3.3-42-5.3-43.1-6.1-85.4-16.6a593 593 0 0 1-110.1-38.9q-33-15.4-65.5-35.8a737 737 0 0 1-78.4-58.5q-2.5-2-4.4-4l-.4-1q-.2-1.6.3-5l3.3-22c1.2-8.2 1.6-16.3 2.4-24.4a1.2 1.2-85.8 0 1 1.3-1q23.8 1.1 48 0 28-1.4 43.2-4.2 21.4-3.9 41.5-12.3 4-1.7 7.8-4.2a.5.5 0 0 0-.2-.8q-2.7-.4-5.9-.1-37.7 2.9-76.5 1.2-15.5-.7-29.7-2.7a738 738 0 0 1-95.4-18.5 1 1-61.8 0 1-.5-1.7c1.9-2.2 4.8-5.4 7-8.3q8.4-11.3 16-20.9 6.2-7.7 22-32l22.7-35.2q7.8 7.4 16.7 14.1 2.2 1.6 9.4 7.6 4.9 4 10 6.9m36.9 127.4a2 2-18.7 0 0-1.3 2.5 33 33 0 0 0 9.8 13.9q6.8 6.5 16 14.7 7.4 6.4 17.2 13.5 22.5 16.3 42.6 28.4 29.9 18 63.3 30.1 22.8 8.3 56 16a453 453 0 0 0 84.8 10.4q23.8 1 52-1.1 18.1-1.4 33.8-6.6c4.6-1.5 9.4-4.2 10.6-9.6s-5.6-10.5-9.6-13.3q-14.6-10-34.5-22-17-10.5-44-23-17.5-8-28.7-12.5-31.4-12.6-65.4-20.1-28-6.2-70.8-12.9c-14.8-2.2-31.5-5.4-44.8-7.1q-8.8-1.2-34.2-3.8-8.6-.9-14.7-1-12 0-14.7.4-12.2 1.6-20.4 2.5-2 .2-3 .6"/></g><g fill="#909ebc"><path d="M880.2 125.9q-6.8-.6-13 3.6-4.8 3.4-9.5 8.7-8.6 9.5-13 15.4l-2 2.3c-3.2 3.4-6.4 8-11.4 14.6-5.6 7.5-12.2 14.5-17.8 22.6q-12.1 17.6-24.5 34.8c-5.7 8-10.8 13.7-15.2 20.7l-.6.2q-.6 0-.5-1 4-8.4 8-15.2a670 670 0 0 1 19.6-31.8q18-26.9 37.7-57.8l12.2-18.1a52 52 0 0 1 12.4-13.6q19.6-13.4 43.2-3.9a.4.4 0 0 1 0 .7q-16.8 4-25.6 17.8m573.8 989.6q-1.2-2.7-1-5.7.6-7.5.6-10.9c-.1-19.6-.2-41.2-1.4-61q-2.7-46.3-9.5-90.5-3.9-25-9.2-47.7-6.2-26.4-12.2-47-9.3-32.2-24-69-14.4-36.5-40.3-95.7-15.6-35.6-23.7-56.3l-13.4-35.2q-5.2-13.5-8.5-23.9c-5-15.5-9-26.2-13-40.6-6.4-23.8-10.5-37.6-15-56.7q-7.1-31.1-12.5-59.8c-2.5-13.1-3.7-24.6-6-37q-2.4-12.8-4.5-18.4-11.8-30.6-31.7-57.8-11-15.1-17.5-22.5-11.4-12.6-26.7-24a364 364 0 0 0-59.2-35.7q-15.3-7.3-21.8-10-23.2-9.7-34.3-14.8c-10.8-5-24-10.6-32.4-14.9q-2.7-1.4-15.5-6.8c-11.8-4.9-19.4-8.8-32.7-14.8-14.5-6.5-34.1-16.3-46-21q-14.2-5.7-29.3-4.5c-12.3 1-21.9 7-29 17q-.3.2-.4.6l-.7.5q-.4 0-.7-.2c5.3-11 12-22.2 23.5-27.3q12-5.2 25.5-5.9 5.5-.2 8 .3 5.4 1.3 14 5.3c26.3 12 53.8 23.4 87 37.3q11.6 4.8 46.1 20.8 20.2 9.4 48 23.7c36.8 18.8 70.2 39 97.6 66.5q14.1 14.2 25.2 33.4a101 101 0 0 1 10 25l3.1 11.3q15 59.2 31.3 115.4c8 27.1 15.4 47.8 26.5 78.6 9 25.3 18.6 48.3 28.9 71.2l12.2 29.1c9.8 23.4 18.6 43 25 59.3q5.8 15.3 16.4 41.5a707 707 0 0 1 26.9 84.8q9.5 35 15.3 69.3 4.4 25.2 6.8 56a592 592 0 0 1 1.8 92q-2.7 38.4-7.6 76.7m-806.7-307q-14-13.1-29-24.4-7.6-5.7-12.3-9.5-7-5.6-12.3-9.5-28-20.2-59-36.2-14.2-7.4-27.1-12.7-16.6-6.7-28-10.5-46-15.1-96.5-19.8c-32.7-3-66.2-1.6-99.4 3.5q-11.1 1.7-32.5 7.5c-14.7 4-26 7.3-37.3 12.3q-20.6 9-42.2 20.8-2.1 1.2-2.4 0 16.5-24.5 36-46.7 1.2-1.3 5.2-3.2 7.7-3.7 14.8-6.2 24-8.4 49.9-14.5 55.7-13 114.6-8 56 4.7 105.8 26.3 25.7 11.1 51.8 27.7c15.7 10 29.6 22 44.5 34.8 7.8 6.7 15.4 15 23.9 23.3q3 3 7.9 8.7 14 16.5 27 34.5a.6.6 0 0 1-.4 1z"/></g><path fill="#ec4762" d="M1029.5 988q15.5 12.3 25.9 22.4 3.3 3.2 5.3 8.5l6.2 17.5q-.6 1.5-1.8 1.5l-.6.2q-23.6 21.8-30.3 27-8.2 6.5-27.1 18.7-1.5 1-5.4 2.7a37 37 0 0 0-13 2.2l-29 8.8q-63.3 18.6-130 21.5c-44.4 2-90.3-3.2-134.7-13.5q-23.2-5.4-38.6-10.7-31-10.6-70-29-12-5.8-26.5-14c-11.4-6.4-30.2-16-43.7-24.8q-3.6-2.4-7.8-2-5.1-3-10-7-7.2-5.9-9.4-7.5-8.9-6.7-16.7-14.1l2.8-4.6q13.1-20 28.8-40 10 11.8 23.5 21.3 26.4 18.8 56.8 34.8 8.1 4.2 26 12.7 40.5 19.3 83.8 31.3a410 410 0 0 0 50 9.8q13.7 2.1 28.8 3 58.9 3.9 115.7-3.5a416 416 0 0 0 64-12.4q10.9-3.2 25.4-9.2 14.7-6 27.9-15.1 12.1-8.4 19.5-21.7 1.6-2.9 4.2-14.9"/><path fill="#ff8d93" d="M1038 952.8q-1.5 1.3-3.9-2.1a3.8 3.6 88 0 0-.8-.9q-12.1-8.6-15.7-11.6-17.4-15-34.4-27.5-9.5-7-19.7-13.4l-20.2-12.8c-8-5-17.6-9.2-25.9-13.5q-10.3-5.4-13.3-6.5-12.3-4.8-26.4-9.8-13.3-4.7-27-8-49.7-11.6-97.7-9.1-28.5 1.4-59.4 5.8c-13 1.8-25.6 5.1-39 7.9q-3.9.8-25.3 7c-8.8 2.6-21.2 5.6-32.4 9q-4.7 1.5-9.6 2.4 35-23.6 74.8-37.7 36.2-12.9 71.4-18.5 11.7-1.9 37.5-4 6.8-.5 14.5-.3c5.7 0 13.1-.2 19.3.1q35.6 2.2 67 12.4 6.5 2 19.7 7 10.7 4.2 19 8.4 22 11.3 35.2 20.6a381 381 0 0 1 33.2 26.4q33.9 30.4 59.1 68.7"/></svg>