<svg xmlns="http://www.w3.org/2000/svg" viewBox="0 0 942 809"><g fill="none" stroke-width="2"><path stroke="#212536" d="M480.1 760.9q9.2 0 23.1-1c22.9-1.6 36.6-3.6 64-7.8q12-1.8 22.5-4.1 20.3-4.4 22.3-5l30.7-8.3q17.7-5.1 39-14.5 5.6-2.5 6.5-8.7c3.7-26.5.1-46-3.5-79.3q-2-18.6.9-37.3 2.3-15.3 10.3-28.2 6.7-11 9-16c5.8-12.2 11-22 14.5-34.3l.4-.6a.4.4 0 0 1 .7.2q2.1 10.5 6 21.6 12.6 36.2 30.2 70.7 4.5 9 10.9 19.6 3.2 5.4 9.4 5.4c33.8-.5 64.4-16.8 86.1-42.9q13.4-16 21.1-32.8 5-10.9 4.7-23.9c-1-39.5-12.4-77.6-32.7-111.2q-6.5-10.9-13-20.9-5-7.8-4.2-15.6l2.8-20.2q1.2-8.1 1.9-22.8a174 174 0 0 0-18.9-88.3 155 155 0 0 0-48.7-56.6q-5-3.6-12-7l-12.5-6q-10.7-4.6-29.6-8.3-2.7-.5-6-2.2-13-6.7-25.6-14.4c-9.4-5.8-17.9-10-28.2-15.7-13.8-7.4-27-13.3-41.7-20.5q-3.7-1.8-14.5-6.4c-12.9-5.4-24.4-14.4-27.3-28.5-1.2-6-.7-11.4-1.2-18q-.6-7.8-7.5-7.9c-20.7-.4-50.9 0-89.9 0s-69-.4-89.8 0q-7 .1-7.5 7.8c-.6 6.7 0 12-1.2 18-3 14.1-14.5 23.2-27.3 28.6q-10.8 4.6-14.5 6.4c-14.8 7.2-28 13-41.7 20.5-10.4 5.6-18.8 9.9-28.2 15.7q-12.6 7.7-25.7 14.4-3.2 1.7-6 2.2-18.8 3.7-29.6 8.3-2.6 1.1-12.4 6-7 3.4-12 7a155 155 0 0 0-48.8 56.6 174 174 0 0 0-18.8 88.3q.7 14.6 1.9 22.7 2.2 15.3 2.7 20.2.9 7.9-4.2 15.7-6.4 10-13 20.9a225 225 0 0 0-32.7 111.2q-.3 13 4.7 23.9 7.8 16.8 21.1 32.8c21.7 26 52.3 42.4 86.1 42.8q6.2.1 9.5-5.4 6.3-10.6 10.8-19.5 17.6-34.5 30.3-70.8 3.8-11 6-21.5a.4.4 0 0 1 .6-.2l.4.6c3.6 12.3 8.8 22 14.5 34.3q2.3 5 9 16 8 12.9 10.4 28.2 2.8 18.7.8 37.3c-3.6 33.4-7.2 52.8-3.5 79.3q.9 6.2 6.5 8.7 21.3 9.4 39 14.5l30.7 8.3q2 .6 22.3 5 10.6 2.3 22.5 4.1c27.4 4.2 41.1 6.2 64 7.8q13.9 1 23.1 1" vector-effect="non-scaling-stroke"/><path stroke="#97606c" d="M400.6 77.6q-1.6-.4-3 0l-.5.6-.5 8.7a46 46 0 0 1-20.2 35q-4.6 3.5-13.7 7.5-10.8 4.7-16.9 8c-9.2 4.9-19.2 9-29.8 14.4l-21.4 11q-7.5 4-15.5 9l-12 7q-6.3 3.6-11.8 7.6" vector-effect="non-scaling-stroke"/><path stroke="#36344c" d="M255.3 186.4q-1 8 2.3 13.7c6.3 10.5 17.8 16 27.5 22.8 5.6 4 12.4 6.8 17.6 8.7 3.6 1.3 12.4 6.3 4.1 9.6q-3.8 1.5-7.8 1.7" vector-effect="non-scaling-stroke"/><path stroke="#4f5876" d="m299 243-8.5-7.5c-3.6-3-9.5-6-13-8.3l-8.3-5.4q-10.3-7.4-19.9-19.2" vector-effect="non-scaling-stroke"/><path stroke="#5d6782" d="M249.3 202.7q-3.1-5.4-4-10.6a2 2 0 0 0-2.5-1.6c-7 1.6-13 2.4-18.8 4.5q-12.8 4.6-18.4 7.3c-18.7 9-35.4 24.8-47.6 42.9q-24 35.8-26.7 78-1.6 25.3 3.8 53.8" vector-effect="non-scaling-stroke"/><path stroke="#4f5876" d="M135 377q-.1 5 1.4 10.3a1 1 0 0 0 1 .3q11.3-11.5 21.4-18.6c4.6-3.2 8.3-6.3 12.5-8.7q17.6-10 35.2-19.1 10.4-5.4 19.5-12 14.4-10.3 26.2-21.4c7.5-7 10.8-11.2 18.8-20.5a266 266 0 0 0 21.4-30.8" vector-effect="non-scaling-stroke"/><path stroke="#36344c" d="M292.4 256.5q1.7 5.6-2.1 12.6-11.4 21-23.9 37c-4.6 5.9-10.6 11.1-14.5 17.8-2.4 4.1-8.1 5.3-11.5 6.6q-1.2.5-6.3 4.3c-5.4 4-10.7 6.8-15.9 10.4q-6.8 4.8-4.1 12.3 3.5 9.8 5.3 18 1 4.3 5.3 5.5" vector-effect="non-scaling-stroke"/><path stroke="#864157" d="m224.7 381 2.4 7.2a2.2 2.1 14.6 0 0 .4.8c31.9 32.7 77.6 40.1 120.8 30.8q6-1.3 11.8-3" vector-effect="non-scaling-stroke"/><path stroke="#36344c" d="M360.2 416.9v8" vector-effect="non-scaling-stroke"/><path stroke="#984858" d="M360.2 424.8a147 147 0 0 1-86.6 4.6" vector-effect="non-scaling-stroke"/><path stroke="#864157" d="m273.6 429.4-12.8-5q-13.7-5.3-26.6-14.6l-3.8-2.6a.3.3 0 0 0-.5.3c1.8 18.4 5.7 38 9.5 55.2q5.6 25.2 13.6 47.2 10.6 29.4 27.6 56.3 16.5 26.4 36 54.1 7.7 11.1 13.7 17 9.3 9 22.2 17.7c3.6 2.4 6.6.4 10-2q10.1-6.7 22-17.5 32.8-29.4 53.5-70l2-4" vector-effect="non-scaling-stroke"/><path stroke="#984858" d="m440 561.5 11.2-23.5" vector-effect="non-scaling-stroke"/><path stroke="#444d6a" d="M451.2 538q.7-.2 1 0t.4 1q-.3 7.5-1.7 13-1.7 6.5-5.8 16.4c-.8 2-1.5 4.7-2.2 6.5q-7 15.9-17.8 31.3-7.3 10.4-16.6 19.6c-9.1 9-17.6 17.4-27.8 24.7q-9.2 6.5-17.4 11.7a.5.5 0 0 0-.1.8q9.3 8.7 17.5 18 5 5.9 7.9 10.4 8.5 14 17.7 31.4" vector-effect="non-scaling-stroke"/><path stroke="#4f5876" d="m406.3 722.8 6.4 17.3a1 1-6 0 0 .7.6q22 3 49.6 4.8c20.5 1.4 41.4-.2 62-2.3q8.8-.8 22-2.6a1 1 0 0 0 .7-.6l2.5-6.8" vector-effect="non-scaling-stroke"/><path stroke="#444d6a" d="M550.2 733.2q4-10.8 9.8-21 3.8-6.4 8.2-15l2-3.4c2-3 3.3-5.5 5.6-8.2q7.5-9 16.2-18 2.3-2.4 5.1-4.7a.6.6 0 0 0 0-1q-8.4-4.8-18.8-12.1-8.2-5.8-13-10.4l-12.1-11.5c-3.6-3.4-6.4-7-9.8-10.9q-6.3-7.2-8-10.1c-4.9-7.8-9.7-14.6-13.4-22.2q-4.4-9-5-10.5-1.4-4.6-5-13.7-1.6-4.5-3-9.7l-.4-2.3-1.3-9.3q-.2-1 2-.9" vector-effect="non-scaling-stroke"/><path stroke="#984858" d="m509.4 538.3 10.3 22.1" vector-effect="non-scaling-stroke"/><path stroke="#864157" d="M519.7 560.4q2.5 6.1 5.6 11.5 15.3 26.7 36 49.3 8.1 8.9 17 17 11.5 10.5 25.2 18.3" vector-effect="non-scaling-stroke"/><path stroke="#36344c" d="M603.5 656.5q7 1.4 11.9-2.1 5.7-4 16.6-14.3c3.7-3.5 6.3-7.2 10.2-11.2 5-5.1 9.1-13 13.4-19q1.8-2.6 6.4-10 4.5-7.4 14.8-21.9 1.8-2.6 3-4.7c2.1-3.7 4.1-9.8 7-13.7 2.5-3.3 5.6-6.7 7.2-10.4l9-20.3c3.1-6.8 7.6-14.2 9.4-21.8q3.2-13.2 5-19.3Q727 456.5 731 424a41 41 0 0 0-.5-17 2 1.8 16.1 0 0-.5-.8q-4.8-4.7.4-9.4 4.5-4.2 6-7.4 5.8-13.6 10.5-30.5c2.1-7.7-2.2-12-8-16-10-7-15.9-11.8-25-15.4-2.3-1-4.9-2.7-5.9-4.6q-6.3-11-15.4-20-1.9-2-5.1-6.2-2.2-3-13.2-19.3c-3-4.4-4.4-7.6-4.7-12.4q-.3-3.7-.6-4.4l-4-9.6" vector-effect="non-scaling-stroke"/><path stroke="#4f5876" d="M665 251q14.9 27.4 36.1 50.1c9.5 10.2 20 18.2 30.7 26.5q6 4.6 16.1 10.3 17.7 9.9 27.3 14.8 12.3 6.2 19 11 16.2 11.7 29 24.3a.5.5 0 0 0 1-.3l1.1-13.3" vector-effect="non-scaling-stroke"/><path stroke="#5d6782" d="M825.3 374.4q3.8-18 4-37.1.3-26.4-7-50a145 145 0 0 0-8.4-22q-9.3-18.7-22.9-34.6-13.5-15.7-32.7-26.4-7-3.9-22-9.2c-6-2.1-12-3-19.3-4.7a1.5 1.5 0 0 0-1.8 1.1q-1.4 5.6-4.7 11" vector-effect="non-scaling-stroke"/><path stroke="#4f5876" d="M710.5 202.4q-2 3.2-3.9 5.2a120 120 0 0 1-23 18.8l-12.5 8q-5.3 3.2-9.9 9.3" vector-effect="non-scaling-stroke"/><path stroke="#36344c" d="M661.2 243.7q-9-2.1-17.8-8a.3.3 0 0 1 0-.5l18.2-6.6q10-3.7 15.7-7.8l12.5-8.7c4-2.7 10.7-6.7 8.7-11.8" vector-effect="non-scaling-stroke"/><path stroke="#97606c" d="M698.5 200.3c2-2.2 9-13 5.1-15.2L680 170.9c-8.8-5.4-14.7-8.2-26-14.2q-8.7-4.6-19.8-10-30.1-14.4-37.1-17.6-9.6-4.3-14.3-8c-11-8.8-18.3-19.1-19-33.1l-.6-10-.5-.5-16.5.3" vector-effect="non-scaling-stroke"/><path stroke="#984858" d="M546.2 77.8H498a1 1 .7 0 0-.8.7q0 .9.4 2" vector-effect="non-scaling-stroke"/><path stroke="#97606c" d="M497.6 80.4q3 18.2 4.6 23.4l5 16q2.3 7 5.7 14.5 4.3 9.2 8.2 19.1 5.4 13.6-.8 26.7-3.8 8-5.8 10.9-9.9 13.8-15.3 29-7.2 19.9-10.7 39.8-1.4 8-1.4 12.4l-.4 78.6q0 4.6.4 10" vector-effect="non-scaling-stroke"/><path stroke="#984858" d="m487 360.9.2 46.9" vector-effect="non-scaling-stroke"/><path stroke="#933b4f" d="M487.2 407.8q0 5.8-.5 11.6-.5 6.1-.3 11.7.2 7.5 0 15" vector-effect="non-scaling-stroke"/><path stroke="#444d6a" d="m486.4 446-.8 9.7-.1.1-.2-.1a35 35 0 0 0-4.4-16 1 1 0 0 0-1.5 0l-5 8.3" vector-effect="non-scaling-stroke"/><path stroke="#864157" d="M474.4 448q-.4-3.9-.5-7.7l.2-16.8q0-4.2-1.2-16" vector-effect="non-scaling-stroke"/><path stroke="#984858" d="M472.9 407.5v-42.2" vector-effect="non-scaling-stroke"/><path stroke="#97606c" d="M472.9 365.3q.4-6.3.4-12 0-53-.3-81 0-4.8-1.6-13.4a184 184 0 0 0-16.2-52q-4.8-9.2-6.6-11.8-5-6.9-8.3-13.4-7.2-14.1-1-29 3.3-8.3 6.6-15 3.7-7.8 6.2-15 5.4-16 8.8-33" vector-effect="non-scaling-stroke"/><path stroke="#984858" d="m460.9 89.8 1.6-11.6-.4-.5h-61.6" vector-effect="non-scaling-stroke"/><path stroke="#fe7275" d="M460.9 89.8q-3.6 5.1-5.5 11.4-2 6.7-2.5 7.7-5.8 11-13 21.9c-4.1 6-6.7 10.1-9.8 15.3a41 41 0 0 0-6.1 27.2q2 10.3 7.8 18.7a193 193 0 0 1 18.5 34.5q1.2 2.9 2.4 7c3.1 10.4 6.7 23 9.3 35.8q2.5 12.6 3 16.2 2.7 15.7 3.9 29.6l2.2 28 .2 10q0 6.1 1.6 12.2" vector-effect="non-scaling-stroke"/><path stroke="#ed5360" d="m472.9 407.5-2.5 20.3" vector-effect="non-scaling-stroke"/><path stroke="#fa4d58" d="M470.4 427.8c-1 6.2-3.4 12.8-8.4 17-12.5 10.3-23-4-29.7-12.6q-2.8-3.5-6.9-9.9-13.5-21.3-24.4-45l-4.2-9.4c-3.6-9-6.2-14.9-9.6-24q-4-11.2-8.9-22.4-10-23.2-25.5-43" vector-effect="non-scaling-stroke"/><path stroke="#ed5360" d="M352.8 278.4q-2.6-3.3-5.4-6.4-1-1-4.8-5.9-4-4.9-9.5-7.1" vector-effect="non-scaling-stroke"/><path stroke="#9d4655" d="m333.1 259-15.8-16.5a.2.2 0 0 1 .2-.3 343 343 0 0 0 22.5 6c7.8 2 14.3 5 21.3 7.8q9.8 4 21.6 10.9 3.4 2 18.2 13.4c1.9 1.4 3.6 3.3 5.8 4.6a.2.2 87.2 0 0 .2-.3 90 90 0 0 0-12.3-15q-13.9-13.3-32-22.4-7.8-3.8-21.7-8.4c-14.8-4.8-31.5-9.7-45.8-15.6q-5.9-2.4-11.3-6" vector-effect="non-scaling-stroke"/><path stroke="#fe7275" d="M284 217.2q.8 0 .9-.5.2-.9-.6-1.3c-5-3.2-7.3-9.1-7.9-15-.8-8.2 4.1-14.7 10.8-19q16-10.3 34.3-18.3c14.3-6.3 20.4-9.5 36-16.9q7.7-3.7 13.7-7.5 11.5-7.2 13.2-8.6 17-13.3 25-31.5 2.6-6.2 4-17.8a1.8 1.6-29.6 0 1 .2-.7l.5-.8a1 1 0 0 0-1-1.6h-12.6" vector-effect="non-scaling-stroke"/><path stroke="#e84657" d="M352.8 278.4q-.7 3.8 0 6 .8 2.8 3.5 7.2 1.6 2.6 1.8 3.2c1 3.9 3 10.4 5.3 16q11.4 27.7 15.3 39.7 2.7 8.4 5.7 15.6c3 7 4.8 11.4 6.4 16.2q1.7 5.3 5.1 12c3.3 6.4 5 12.4 8.8 18.5q2.5 4 5.4 10.6 2 4.7 5.4 10.7 16.2 28.9 27.5 48.3c4.7 8 9.4 15.2 15.1 24.5q3 4.9 7.5 7.6a1 1 26.7 0 0 1.3-.4c2.3-5.7 1.5-12.7 2-18.8q.6-6 2.7-32.5.4-4.5.5-14 0-7.3.6-14 .4-3.2-2.3-7" vector-effect="non-scaling-stroke"/><path stroke="#995772" d="M474.4 448q.2 7.8-.5 15.7-1.8 20.4-3.3 41-.2 3.8-.7 6.5-.8 4.4-1.8 6.2l-2.5 4.5" vector-effect="non-scaling-stroke"/><path stroke="#9b5e69" d="M284 217.2q-7.6-4.9-15-10.2-4.9-3.7-8.2-7.8-4-5-5.5-12.8" vector-effect="non-scaling-stroke"/><path stroke="#8b3e54" d="M333.1 259q7 8.8 12.3 18.3c3 5.4 6.7 11.7 9.3 17.3q10.2 22.5 18 46.5 4.7 14.7 11.5 31.5 2.7 6.6 3.9 10.1c2.3 6.7 6.3 14.4 9.1 20.7 4 9 8.5 17 12.3 24.6q2.8 5.6 7.4 13.8 20.3 36.4 42.8 71.3.4.8 3 4.4 1.6 2 3 4.4" vector-effect="non-scaling-stroke"/><path stroke="#494a67" d="M465.7 522q-3.8-.4-8.1-3" vector-effect="non-scaling-stroke"/><path stroke="#9d4655" d="m457.6 519-9.2-12a632 632 0 0 1-34.3-50c-8.9-14-16.8-29.1-25.2-45l-.7-.3c-9.2 5.1-17 9.3-28 13.1" vector-effect="non-scaling-stroke"/><path stroke="#8b3e54" d="M360.2 416.9q13.1-3.6 25.5-9.5a1 1 0 0 0 .4-1.3l-7.2-16.4c-4.7-10.7-8.8-23-13.4-34.2q-2.8-6.8-10.1-29" vector-effect="non-scaling-stroke"/><path stroke="#9d4655" d="M355.4 326.5q-8.4-21.8-14.6-34-5-10-15.3-23.7a148 148 0 0 0-21.5-22.1.8.8 0 0 0-1.3.4q-4.3 15.6-12.8 30.3-14.3 24.7-34.8 44.5a1 1 0 0 0-.2 1.1 322 322 0 0 0 55.7 62.9q2.2 2 7.2 5.7l-.1.3-.3.1q-43.2-22-70.8-62.2l-.7-.1q-11.7 9.8-25 17.4" vector-effect="non-scaling-stroke"/><path stroke="#8b3e54" d="m220.9 347.1-6 3.7-.2.8q6.7 14 10 29.4" vector-effect="non-scaling-stroke"/><path stroke="#535673" d="M292.4 256.5 299 243" vector-effect="non-scaling-stroke"/><path stroke="#626f91" d="M550.2 733.2q.6-5.5 1.5-8.1 2.2-6.8 8-21.3 3.5-8.6 5-14.2 2.1-8.7 3-14.9 2-13.9-5-26.8l-1-1.6-2-2q-14-12.8-15.9-14.7c-3-3.1-6.7-6.3-9-9.4-7.1-9.7-12.6-17.8-21.2-23.9-11.9-8.5-19.2 5-21.7 14.1q-1.5 5.7-3.8 19a2.7 2-37.5 0 1-.1.5l-1.2 3a4.2 4 59.4 0 0-.2 1.1l-.5 6.5" vector-effect="non-scaling-stroke"/><path stroke="#444d6a" d="m486 640.5-.6-18q-.4-11.8-1.1-18c-1.2-9.8-1.8-19.5-3.4-29.4a.5.5 0 0 0-1 0q-1.8 9-2.7 18.2c-.8 7.4-1.7 14-1.9 20.6l-.6 21.5v4.1q-.2 13.3 0 26.7" vector-effect="non-scaling-stroke"/><path stroke="#626f91" d="M474.7 666.2q-1.2-12.6-1-25.3 0-4.4-1-8.4c-2.2-7.2-3.1-18-6-26.6-2.1-6.8-8-14-16-11.8-5 1.4-11.4 7.9-14.5 11.8-9 11.6-14.1 18-21.1 24.5l-14.6 13.4c-2.7 2.5-4 4.6-5.3 8.2q-5.8 15-1.6 30.7l3 10.6c1.5 5.1 4.5 11 6.5 16.5q2.3 6.3 3.2 13" vector-effect="non-scaling-stroke"/><path stroke="#e84657" d="M222.3 349c-7.7 5 1.3 13.9 2.7 20.1 1.7 8 3 16.6 9 22.7 9 8.9 18.7 14.8 30.4 20.1q10.7 4.8 20.5 6.4c15.6 2.6 30.7 2.5 46.7 1.3q8.3-.7 18-3 15.8-3.8 30.6-9.4 1.3-.5 1.7-2.8a.4.3-52 0 0 0-.2q-.4-1.5-3-7.5-1-2-2.6-7-3.6-10.8-9.5-21.3" vector-effect="non-scaling-stroke"/><path stroke="#ab5f73" d="m457.6 519-6.4 19" vector-effect="non-scaling-stroke"/><path stroke="#fa4d58" d="M429 571c-12.2 12-27.4 19.8-44.7 17.6-27.9-3.6-48.7-23.8-64.6-45.2q-7-9.4-16.4-26.4-4.8-8.7-7.8-14.7t-3.6-7.9c-2.7-6.9-5.5-12.1-7.8-20q-2-6.4-4.4-11.8c-1-2.3-1.4-5.5-2.5-8.3q-.4-.8.4-1.3.2-.2.9-.2" vector-effect="non-scaling-stroke"/><path stroke="#9d4655" d="M278.5 452.8q10 6.7 20.4 10.6 27.4 10.2 57.1 10.4l16-.1q.7 0 1-.3a.3.3 30.6 0 0-.1-.5l-7.4-1q-5.9-1-28-5.6-29.3-6-56.7-19.9-2.2-1.1-6.1-3.6" vector-effect="non-scaling-stroke"/><path stroke="#fa4d58" d="m274.7 442.8-1.8-12" vector-effect="non-scaling-stroke"/><path stroke="#ed5360" d="M355.4 326.5q.6 4.9 1.3 7.2 6 17.4 7.5 22.7.7 2.5 2.6 12" vector-effect="non-scaling-stroke"/><path stroke="#fa4d58" d="M366.8 368.4q.6 9.4-1.2 17.5-1.6 6.9-5.2 11c-15.1 17.2-45.2 11.8-64.2 5.8q-11-3.5-19.8-8-25.5-13.3-43.5-33.4-2-2.3-7.5-9.7-.7-1-3.1-2.7" vector-effect="non-scaling-stroke"/><path stroke="#ed5360" d="M222.3 349q-.9-.7-1.4-1.9" vector-effect="non-scaling-stroke"/><path stroke="#a6526a" d="M488.3 480.3q-.2-6.7-1.2-15.6-1-8.5-.7-18.7" vector-effect="non-scaling-stroke"/><path stroke="#995772" d="M494.5 521.4q-2.4-2.4-3-5.4-1.6-8.7-2.1-17.5l-1-18.2" vector-effect="non-scaling-stroke"/><path stroke="#e84657" d="M488.3 480.3q1.1 3.8 1.2 5.8c.5 10.1.5 19.4 3.4 28.2a1.3 1.3 0 0 0 2.1.6q2.6-2.4 4.4-5.3c4.4-7.5 6.2-11.2 11-17.8q3.4-5 6.8-11l6.5-11.2q17.6-30 20.4-35.7c7-14.5 15.3-28.5 21.3-43.3 7.1-17.8 12.9-31 17.7-46.5a476 476 0 0 1 15-39.5c1.8-4.4 3-9.7 5.6-13.4q3.4-4.6 5.4-9.1a2.4 2.2-30.2 0 0 .2-.6l1-6.2" vector-effect="non-scaling-stroke"/><path stroke="#535673" d="m661.2 243.7 3.8 7.3" vector-effect="non-scaling-stroke"/><path stroke="#8b3e54" d="M603.5 656.5q3.8-.7 8.6-4.2 12.9-9.5 21.6-19 7.2-8 15.4-20.5 5.8-9 19.4-29 4.4-6.5 8.8-13.7l8.5-13.8q5.4-9.3 11.6-22.6 7.4-15.9 10.7-26.4 6.1-19.1 9.1-29.5 3.4-12.1 6.9-30.2 4-20.6 6.1-40l-.6-.4-.8.3q-.4.1-.7.4-13.6 10.8-30.3 17.4l-9.3 3.7" vector-effect="non-scaling-stroke"/><path stroke="#9d4655" d="M688.5 429q-36.7 9.4-73.4.7c-5-1.2-9.3-3-14.2-4.5a143 143 0 0 1-28.7-13.4.6.6 30.3 0 0-.9.2c-4.1 7.2-7.3 14-11.1 20.7L547 455.3q-12.5 20.3-27 40.5-11.3 15.5-17.3 22.7" vector-effect="non-scaling-stroke"/><path stroke="#494a67" d="M502.8 518.5q-4.9 4.5-8.3 2.9" vector-effect="non-scaling-stroke"/><path stroke="#8b3e54" d="M494.5 521.4q4.6-6.3 8.8-12.6l17.8-28.6c2.1-3.5 3.9-7.3 6.4-11q2.3-3.4 5-8.3 5.1-9.3 12.3-21.4 2-3.4 8.3-16.3c3.1-6.2 6.5-11.8 9.7-19q9.4-20.8 16-37.7 4-10.2 7.3-21 3.3-10.3 4.8-14.2c3.8-9.8 6-16.8 10-26l5-12c1.2-2.6 2.9-4.4 4.4-7.5q6.5-13.7 16.5-26" vector-effect="non-scaling-stroke"/><path stroke="#4f5876" d="M486 640.5q-.7 13.4-.7 26.7 0 8.8-.2 11.6-.6 7.6-.7 11.5c-.2 13.1-2 26.2-3.8 38.4a.2.2 0 0 1-.4 0q-2.2-13.5-3.8-28.2c-.4-4.3-.3-8.4-.9-13-.7-6.2-.4-14.2-.8-21.3" vector-effect="non-scaling-stroke"/><path stroke="#fa4d58" d="m689.3 430.3-.9.8a1.3 1.2-18.2 0 0-.4.8l-1.2 10.4" vector-effect="non-scaling-stroke"/><path stroke="#9d4655" d="M686.8 442.3q-14.7 8.6-25.3 12.4c-7.9 2.9-16.4 6.2-24.5 8.3q-25 6.4-50.2 10l-.1.2v.3a.4.4 0 0 0 .4.4l18.1-.2q30.2-.4 57.7-11 9.9-3.8 20.4-11c1.9-1.3 2.2-5 3.1-7.2" vector-effect="non-scaling-stroke"/><path stroke="#fa4d58" d="M686.4 444.5c1.3 5.7-3.5 10.2-5 15.6q-1.2 4-3.2 8.7-.4.7-2.8 8.8-1.5 4.9-4.1 10.6a293 293 0 0 1-36.7 62.7Q623.2 565 609 575.3q-15.5 11.1-33.6 13.3-10.6 1.3-19.6-1.8-14.8-5.1-26.8-17.5" vector-effect="non-scaling-stroke"/><path stroke="#ab5f73" d="m509.4 538.3-6.6-19.8" vector-effect="non-scaling-stroke"/><path stroke="#7a89a9" d="M249.3 202.7q-.7.5-3.3 1-2.4.7-12.7 4.6-7 2.6-12.4 5.5-34.6 18.2-56.5 50.4-4.7 6.8-5.9 8.8-9.7 16.5-15.2 34.9-2 6.6-3 12.4c-1.5 7.4-3.7 17-4 25.6l-.5 8-.3 7.8q0 7.5-.4 15.3" vector-effect="non-scaling-stroke"/><path stroke="#ed5360" d="m273.6 429.4-.7 1.3" vector-effect="non-scaling-stroke"/><path stroke="#e84657" d="M272.9 430.7q-14.5-4-27.7-11.1-4-2.1-8.3-5.3a1 1-34.2 0 0-1.1-.2q-1.1.4-2 1.5l-.4 1q.1 4 .8 7.5 4.6 24 9 41.8 1.7 7 3.4 15.6 2 9.9 6 20 4.2 10.6 8.5 22.8c3.3 9.2 8.8 17.6 14 26.4 7.4 12.8 12.3 21.4 17.5 29q3.4 5.2 5.3 8.6 4.3 8 23.3 34.5a127 127 0 0 0 31.4 29 1 1-30.6 0 0 1 .2c6.3-.7 11.5-4 16.5-8 12.8-9.9 23-19.7 33-31.9q8.2-9.8 11-14 6.7-9.3 15-22.2a1.8 1.6 69.7 0 0 .3-.7q.3-2-.4-4.2" vector-effect="non-scaling-stroke"/><path stroke="#ed5360" d="M429 571q3.5-3.3 6.8-7 1.4-1.5 4.3-2.5" vector-effect="non-scaling-stroke"/><path stroke="#97394c" d="M274.7 442.8q.5 3.5 1.5 6.8.6 2 2.3 3.2" vector-effect="non-scaling-stroke"/><path stroke="#fe7275" d="M546.2 77.8q1.7 13.3 2.9 16.6a88 88 0 0 0 17.3 27.5q3.9 4.4 7.6 7 11.4 8.3 24.5 15.1 5.9 3 45.6 21.5 15 6.8 27 14.7c9 5.8 15.3 12.2 11.6 24q-2.3 7.5-8.3 13.6" vector-effect="non-scaling-stroke"/><path stroke="#9d4655" d="M674.4 217.8q-3 2.8-8.3 4.9c-17.2 7-35.3 12.2-52.8 18.1q-21 7.1-38.3 20.5a118 118 0 0 0-21.8 23 .3.3 0 0 0 .4.5 190 190 0 0 1 33.2-23q14.7-7.8 29.3-12.4c7.6-2.5 18.5-4.6 27.3-7.5a.1.1 0 0 1 0 .2q-9.2 8.3-16.6 17.8" vector-effect="non-scaling-stroke"/><path stroke="#ed5360" d="M626.8 259.9q-2.2-.7-3.7.7-7.3 7.2-12.8 14.7" vector-effect="non-scaling-stroke"/><path stroke="#fa4d58" d="M610.3 275.3q-4.6 5-8.4 10.8l-3.4 4.9c-7.6 10.3-11.3 18.8-18.3 34.1-2.7 6-4.7 12.1-7.4 19.4-2.9 7.7-6.6 15.7-10 24.6q-1.3 3.4-4.4 10.1-7.6 16.3-14.6 28.3a154 154 0 0 1-26.7 36.6c-4.3 4.1-9.8 5.7-15.4 3-8.7-4.2-11.5-13-13-22-.4-2.4-.2-5.5-.6-8.2q.2.4 0 .7a.2.2 0 0 1-.4 0l-.5-9.8" vector-effect="non-scaling-stroke"/><path stroke="#fe7275" d="M487 360.9q1.6-6.4 2-12.8l.5-11.2 2.7-29.3q1.5-17.2 3.9-29.1 2.8-14 6.8-30 7.4-29.7 23.4-53.7 4.5-6.9 7-12.5a40 40 0 0 0-3.5-36.7c-5.3-8.8-11.6-17.6-16.7-26q-4.4-7-8-16.4-1-2.6-2.6-10.6-.7-3.3-2.9-10.6-.7-2.2-2-1.6" vector-effect="non-scaling-stroke"/><path stroke="#9b5e69" d="M698.5 200.3q-10.2 10.3-24 17.5" vector-effect="non-scaling-stroke"/><path stroke="#ed5360" d="m519.7 560.4 9.3 8.9" vector-effect="non-scaling-stroke"/><path stroke="#e84657" d="M529 569.3c.7 6.1 3.9 10.3 8.3 17q5.9 9 22.8 30.3 10 12.6 31 28.4c5.6 4.4 12 9 18.1 4.7q2-1.5 8.8-6a93 93 0 0 0 23.4-25q12.8-19.6 16.7-25c3.8-5.4 6.2-10.1 9.5-14.7q3-3.9 7.1-11c5.8-9.9 11.6-18.3 15.9-27.6q9.6-20.7 12.4-28.2 5.5-14.9 14.5-47.7 2-7.4 3-13.2c1.4-8.6 3.1-15.3 4.3-24.2l1.6-11a1 1 0 0 0-.7-1l-2.1-.6a1 1-54.5 0 0-1.2.2q-15 10.8-33 15.6" vector-effect="non-scaling-stroke"/><path stroke="#ed5360" d="M689.3 430.3q-.2-.8-.8-1.3" vector-effect="non-scaling-stroke"/><path stroke="#97394c" d="M686.4 444.5q1-1.8.4-2.2" vector-effect="non-scaling-stroke"/><path stroke="#7a89a9" d="M825.3 374.4Q824 362 823.6 350q-.5-12.4-1.3-18a161 161 0 0 0-81-117.3q-5.2-3-12.7-6-9.7-3.7-13.3-4.8t-4.8-1.5" vector-effect="non-scaling-stroke"/><path stroke="#4f5876" d="M480.4 243.7q3.8-23.2 15.4-43.6 3.5-6.2 10.2-15.8l2.5-4c1.9-3.8 4-6.9 4.6-11q.8-6.3-1.1-11.8l-6.8-17.4q-3.7-9.7-7.8-28.3-1.2-5.6-1.8-12.1c-.8-9.2-1-13.4-2.3-20.7a1.4 1.4 84.8 0 0-1.4-1.1h-24.4a1 1 0 0 0-1.2 1c-1 11.2-2 27.4-5.2 39.3q-1.4 5-2 9.2-.4 3-4.7 13.9-3.9 10-5.8 15.5-2.2 6.5-1.7 11 .5 3.5 2.9 8.2l4.1 7.8q7 9.9 8.2 12c9 14.7 14 31 18 47.9h.3M157.1 382.4l-15.5 12.9" vector-effect="non-scaling-stroke"/><path stroke="#5d6782" d="M141.6 395.3q-6.7 6.3-11.3 13l-7 10-9.8 16.8A212 212 0 0 0 87 515q-.5 3.8-.8 17.8-.4 13.4 5.7 23.6" vector-effect="non-scaling-stroke"/><path stroke="#4f5876" d="M91.9 556.4a118 118 0 0 0 36.8 43.3" vector-effect="non-scaling-stroke"/><path stroke="#444d6a" d="M128.7 599.7q11.3 8.6 24.7 13.5c6.4 2.4 12.9 3.5 19.7 5q3.8.7 6.4.7a3 3 0 0 0 2.9-1.8q5.4-10.8 7.6-14.7c7-12.4 10-20.4 17.6-37.3 3.5-7.8 5.6-14.3 8.5-21.9a379 379 0 0 0 15.5-52.7 4 4-46.2 0 0 0-1.9q-4.7-17.5-8.4-36-1.6-8.1-4.2-25.9-2.6-18.1-5.8-37.7c-.9-5.6-2.7-13-4.8-18.8l-4.6-12.6a1.2 1.2-23.4 0 0-1.6-.6l-18.7 9.5q-7.4 3.8-26.4 16" vector-effect="non-scaling-stroke"/><path stroke="#626f91" d="M128.7 599.7c5-3.5 10.3-8.2 12.8-10.4 11.5-9.6 21-21.2 29-34q14.2-22.8 22.8-48.3c2.1-6.4 4-14.1 5.5-19q6.7-23.7 8.5-48.7 1.2-16.5-2-32.4-1.7-8.3-6.5-16.2c-2.9-4.7-7-7.7-11.7-10.3q-5.6-3-12.5-2.5-1.7.1-8.7 2.3-4.3 1.3-8.8 2.2" vector-effect="non-scaling-stroke"/><path stroke="#7a89a9" d="M91.9 556.4q.6-.8 0-2.7l-.2-1.8c.8-8 .7-15.9 1.8-23.5q2.3-16.3 5.5-30.3 2-8.3 4.8-16.2l6-15.8q8.6-19.6 20.6-42.9c2-3.8 3-7.6 4.7-11.2q2-4.2 3.4-8.3l3-8.4" vector-effect="non-scaling-stroke"/><path stroke="#4f5876" d="M832 599.7q12.7-9.3 21.8-20.7c3.4-4.2 7-10 10.6-15q3.2-4.5 4.6-9.1" vector-effect="non-scaling-stroke"/><path stroke="#5d6782" d="M869 554.9q5.5-9.3 5.2-20.4-1-45.2-19-82.6c-3.2-6.7-4.8-10.6-8-16l-8.2-14c-2.7-4.7-5.3-8.2-9.1-13.8q-2.8-4.2-10-11.9" vector-effect="non-scaling-stroke"/><path stroke="#4f5876" d="M819.8 396.2q-8.4-7.9-18.2-14.6" vector-effect="non-scaling-stroke"/><path stroke="#444d6a" d="M801.6 381.6q-16-10.1-32.7-19l-10.8-5.4a1.4 1.4-68.6 0 0-2 .9q-2.4 7.9-4 11.5-2.1 5.3-3.5 11.6-3.6 16.5-5 28.2c-.7 6.5-2 12.2-2.7 18.4a384 384 0 0 1-12.6 61.3 3 3-44.8 0 0 0 1.7l2.5 9.7c2.2 8.8 4.8 16 7.6 25.4q2.3 8 5 15.6 13.8 37.4 33.3 73 1.3 2.3 2.3 3.7a2 2 0 0 0 1.7.7c9.8-1 20.7-3 29.4-6.8q12.2-5.4 22-12.4" vector-effect="non-scaling-stroke"/><path stroke="#626f91" d="M801.6 381.6q-2.6 0-7-2-7.8-3.5-17.5-1c-3.3 1-6.2 3.2-9.6 5.2a9.7 9 5 0 0-1.7 1.4q-6.5 6.5-9 14.2-4.5 14.4-4.3 30.6.2 22.5 6.6 49.9L763 494q6 22.1 16.2 42.8 2 4.2 3.5 6.7c3.4 5.8 6.2 11.1 9.5 16q10.3 15 23.3 27 8 7.5 16.7 13.1" vector-effect="non-scaling-stroke"/><path stroke="#7a89a9" d="M819.8 396.2q-1.4.3-.7 1.8 3 7 5.1 13 1.5 4.1 10.3 21.7c5 10 9.4 20 13.2 27.7 3 6 4.6 11.4 6.8 16.3q2.3 5.2 4.3 12.5l5.5 21c1.1 4.3 1.4 8.3 2.4 12.5q.9 3.6 1.2 9.5.6 10.9 1 22.7" vector-effect="non-scaling-stroke"/><path stroke="#4f5876" d="M638.3 645.8c-4 3.5-8.1 7.8-12.2 10.4-4 2.4-7 5.1-11.5 8.3q-11.8 8.5-16.1 12.5-5.7 5.2-7.1 6.9-13.9 16.4-18.4 22.9-10 14.7-18.6 31.7a.8.7 8.3 0 0 .8 1q20-3.5 32.4-6c8-1.6 14.7-3.6 23.5-5.5 9-2 19.5-5.2 29.2-8" vector-effect="non-scaling-stroke"/><path stroke="#444d6a" d="M640.3 720q3.4-.6 7.5-2.2l19.8-7.4q3.3-1.2 5.3-2.2a3 3 0 0 0 2-3q.7-16.8-.6-37.3-.2-3.9-2.8-22.8-1.7-12-2.3-25-.2-5 0-8.3.4-4.5 1-8.2a.4.4 0 0 0-.7-.3q-13.9 22.4-31.2 42.5" vector-effect="non-scaling-stroke"/><path stroke="#626f91" d="M640.3 720a146 146 0 0 0-.2-59.6c-.9-4.9-1.1-9.7-1.8-14.6" vector-effect="non-scaling-stroke"/><path stroke="#4f5876" d="M319.6 719.7q19.1 5.7 24.4 7 6 1.6 23.8 5.7c13 3 24 4.6 37.5 7q.2.1.4 0l.3-.8q-8.4-15.8-17.2-29.3a291 291 0 0 0-16-21c-5-6-9.8-10.8-15.4-15q-9.8-7.6-24.9-18.3-4.8-3.4-11.5-10.3" vector-effect="non-scaling-stroke"/><path stroke="#444d6a" d="m321 644.7-7.7-9.7q-13.4-17.4-22.8-31.5a.4.4 0 0 0-.7.2 130 130 0 0 1-.7 37.3q-2.5 19.2-3.3 27.8-1.4 15.7-.4 35.8.1 2.8 2.6 4 13.7 5.5 31.6 11.1" vector-effect="non-scaling-stroke"/><path stroke="#626f91" d="M321 644.7q.9 7.5 0 11.7c-3.3 16-5 26.8-4.3 39.1q.5 9 2.9 24.2" vector-effect="non-scaling-stroke"/><path stroke="#97394c" d="m594.7 355.8-6.6 17" vector-effect="non-scaling-stroke"/><path stroke="#8b3e54" d="M588.2 372.7 574 406.6l.3.7c13.4 6.4 28 10.7 41.9 13.4q29.3 5.7 58 0 26.3-5 47.4-21.9l8.1-6.8a12 12 0 0 0 4.9-7.8q.4-2.1 1.1-4.3l4.7-15.4c1.3-4.7 2.7-7.3 4.9-12.2a1.3 1.3-64 0 0-.6-1.7q-16-8.8-30.1-20.8a.7.7 0 0 0-1.1.2q-25.5 36.4-64 58.6" vector-effect="non-scaling-stroke"/><path stroke="#9d4655" d="m649.4 388.7-7.6 3.9a.1.1 0 0 1-.2-.2c10-8 17.5-15.5 31-29q18.8-18.6 32.7-40.8v-.5q-21.4-20.8-36.2-46.6c-5-8.8-8.8-19-12.3-29l-.7-.2c-7.8 7-16.7 15.7-23 24.3q-12.6 17.7-20 35.5c-4.3 10.8-7.4 17.4-10.7 27.4q-3.7 11.2-7.7 22.3" vector-effect="non-scaling-stroke"/><path stroke="#ed5360" d="M649.4 388.7c4.7.4 8.5-2 12.2-4.9l11.8-8.7q5.9-4.4 11.1-9.4 11.4-11 18.4-19.4c3.5-4.3 6.6-7.2 10.6-11.8a1.3 1.3 0 0 1 1.8-.2q10.3 8 21.7 15" vector-effect="non-scaling-stroke"/><path stroke="#fa4d58" d="M737 349.2q-7.7 9.7-10 12.1-19.8 22.3-46.4 35a147 147 0 0 1-29.3 10q-15 3.3-30 1.4-10-1.2-17-6.5-5.3-4-7.2-7.8a46 46 0 0 1-2.3-30.8q.6-3.2-.1-6.8" vector-effect="non-scaling-stroke"/><path stroke="#e84657" d="M588.2 372.7q-.4 5.2-1.7 9-4.9 14.5-5.7 17.4c-2 7.6 4.6 11.5 10.9 13.2l14 4q8.6 2.8 14.2 3.2 11.9 1 16.3 1 8.4 0 26.5-.8c16.5-.7 31.2-7.7 45-15q10-5.3 19.2-14.6c4.4-4.4 5.9-11 7.4-17.4s4.7-12.8 6.8-20a2 2 28.6 0 0-.6-1.9q-1.2-1-3.5-1.6" vector-effect="non-scaling-stroke"/><path stroke="#9d4655" d="M309.5 489.6a.3.3 78.4 0 0-.3.4q9.5 9.9 21.3 15.8c20.4 10.3 42.8 16 65.6 18.5a.2.2 0 0 0 0-.4l-14.6-5.2q-36-12.6-62.7-25.2-2.6-1.2-9.3-3.9m341.6-.2q-6.7 2.6-9.2 3.9-26.7 12.6-62.5 25.2l-14.7 5.3a.2.2 0 0 0 .1.4 193 193 0 0 0 65.4-18.6q11.7-6 21.2-15.8a.2.2 0 0 0-.3-.4" vector-effect="non-scaling-stroke"/></g><path fill="#10141d" d="M942 0v809H0V0zM480.1 760.9q9.2 0 23.1-1c22.9-1.6 36.6-3.6 64-7.8q12-1.8 22.5-4.1 20.3-4.4 22.3-5l30.7-8.3q17.7-5.1 39-14.5 5.6-2.5 6.5-8.7c3.7-26.5.1-46-3.5-79.3q-2-18.6.9-37.3 2.3-15.3 10.3-28.2 6.7-11 9-16c5.8-12.2 11-22 14.5-34.3l.4-.6a.4.4 0 0 1 .7.2q2.1 10.5 6 21.6 12.6 36.2 30.2 70.7 4.5 9 10.9 19.6 3.2 5.4 9.4 5.4c33.8-.5 64.4-16.8 86.1-42.9q13.4-16 21.1-32.8 5-10.9 4.7-23.9c-1-39.5-12.4-77.6-32.7-111.2q-6.5-10.9-13-20.9-5-7.8-4.2-15.6l2.8-20.2q1.2-8.1 1.9-22.8a174 174 0 0 0-18.9-88.3 155 155 0 0 0-48.7-56.6q-5-3.6-12-7l-12.5-6q-10.7-4.6-29.6-8.3-2.7-.5-6-2.2-13-6.7-25.6-14.4c-9.4-5.8-17.9-10-28.2-15.7-13.8-7.4-27-13.3-41.7-20.5q-3.7-1.8-14.5-6.4c-12.9-5.4-24.4-14.4-27.3-28.5-1.2-6-.7-11.4-1.2-18q-.6-7.8-7.5-7.9c-20.7-.4-50.9 0-89.9 0s-69-.4-89.8 0q-7 .1-7.5 7.8c-.6 6.7 0 12-1.2 18-3 14.1-14.5 23.2-27.3 28.6q-10.8 4.6-14.5 6.4c-14.8 7.2-28 13-41.7 20.5-10.4 5.6-18.8 9.9-28.2 15.7q-12.6 7.7-25.7 14.4-3.2 1.7-6 2.2-18.8 3.7-29.6 8.3-2.6 1.1-12.4 6-7 3.4-12 7a155 155 0 0 0-48.8 56.6 174 174 0 0 0-18.8 88.3q.7 14.6 1.9 22.7 2.2 15.3 2.7 20.2.9 7.9-4.2 15.7-6.4 10-13 20.9a225 225 0 0 0-32.7 111.2q-.3 13 4.7 23.9 7.8 16.8 21.1 32.8c21.7 26 52.3 42.4 86.1 42.8q6.2.1 9.5-5.4 6.3-10.6 10.8-19.5 17.6-34.5 30.3-70.8 3.8-11 6-21.5a.4.4 0 0 1 .6-.2l.4.6c3.6 12.3 8.8 22 14.5 34.3q2.3 5 9 16 8 12.9 10.4 28.2 2.8 18.7.8 37.3c-3.6 33.4-7.2 52.8-3.5 79.3q.9 6.2 6.5 8.7 21.3 9.4 39 14.5l30.7 8.3q2 .6 22.3 5 10.6 2.3 22.5 4.1c27.4 4.2 41.1 6.2 64 7.8q13.9 1 23.1 1"/><g fill="#ff5a61"><path d="M460.9 89.8q-3.6 5.1-5.5 11.4-2 6.7-2.5 7.7-5.8 11-13 21.9c-4.1 6-6.7 10.1-9.8 15.3a41 41 0 0 0-6.1 27.2q2 10.3 7.8 18.7a193 193 0 0 1 18.5 34.5q1.2 2.9 2.4 7c3.1 10.4 6.7 23 9.3 35.8q2.5 12.6 3 16.2 2.7 15.7 3.9 29.6l2.2 28 .2 10q0 6.1 1.6 12.2v42.2l-2.5 20.3c-1 6.2-3.4 12.8-8.4 17-12.5 10.3-23-4-29.7-12.6q-2.8-3.5-6.9-9.9-13.5-21.3-24.4-45l-4.2-9.4c-3.6-9-6.2-14.9-9.6-24q-4-11.2-8.9-22.4-10-23.2-25.5-43-2.6-3.4-5.4-6.5-1-1-4.8-5.9-4-4.9-9.5-7.1l-15.8-16.5a.2.2 0 0 1 .2-.3 343 343 0 0 0 22.5 6c7.8 2 14.3 5 21.3 7.8q9.8 4 21.6 10.9 3.4 2 18.2 13.4c1.9 1.4 3.6 3.3 5.8 4.6a.2.2 87.2 0 0 .2-.3 90 90 0 0 0-12.3-15q-13.9-13.3-32-22.4-7.8-3.8-21.7-8.4c-14.8-4.8-31.5-9.7-45.8-15.6q-5.9-2.4-11.3-6 .8 0 .9-.5.2-.9-.6-1.3c-5-3.2-7.3-9.1-7.9-15-.8-8.2 4.1-14.7 10.8-19q16-10.3 34.3-18.3c14.3-6.3 20.4-9.5 36-16.9q7.7-3.7 13.7-7.5 11.5-7.2 13.2-8.6 17-13.3 25-31.5 2.6-6.2 4-17.8a1.8 1.6-29.6 0 1 .2-.7l.5-.8a1 1 0 0 0-1-1.6h-12.6 61.6l.4.5zm85.3-12q1.7 13.3 2.9 16.6a88 88 0 0 0 17.3 27.5q3.9 4.4 7.6 7 11.4 8.3 24.5 15.1 5.9 3 45.6 21.5 15 6.8 27 14.7c9 5.8 15.3 12.2 11.6 24q-2.3 7.5-8.3 13.6-3 2.8-8.3 4.9c-17.2 7-35.3 12.2-52.8 18.1q-21 7.1-38.3 20.5a118 118 0 0 0-21.8 23 .3.3 0 0 0 .4.5 190 190 0 0 1 33.2-23q14.7-7.8 29.3-12.4c7.6-2.5 18.5-4.6 27.3-7.5a.1.1 0 0 1 0 .2q-9.2 8.3-16.6 17.8-2.2-.7-3.7.7-7.3 7.2-12.8 14.7-4.6 5-8.4 10.8l-3.4 4.9c-7.6 10.3-11.3 18.8-18.3 34.1-2.7 6-4.7 12.1-7.4 19.4-2.9 7.7-6.6 15.7-10 24.6q-1.3 3.4-4.4 10.1-7.6 16.3-14.6 28.3a154 154 0 0 1-26.7 36.6c-4.3 4.1-9.8 5.7-15.4 3-8.7-4.2-11.5-13-13-22-.4-2.4-.2-5.5-.6-8.2q.2.4 0 .7a.2.2 0 0 1-.4 0l-.5-9.8-.1-47q1.5-6.3 1.8-12.7l.6-11.2 2.7-29.3q1.5-17.2 3.9-29.1 2.8-14 6.8-30 7.4-29.7 23.4-53.7 4.5-6.9 7-12.5a40 40 0 0 0-3.5-36.7c-5.3-8.8-11.6-17.6-16.7-26q-4.4-7-8-16.4-1-2.6-2.6-10.6-.7-3.3-2.9-10.6-.7-2.2-2-1.6-.4-1-.4-1.9a1 1 .7 0 1 .8-.7z"/><path d="M649.4 388.7c4.7.4 8.5-2 12.2-4.9l11.8-8.7q5.9-4.4 11.1-9.4 11.4-11 18.4-19.4c3.5-4.3 6.6-7.2 10.6-11.8a1.3 1.3 0 0 1 1.8-.2q10.3 8 21.7 15-7.7 9.6-10 12-19.8 22.3-46.4 35a147 147 0 0 1-29.3 10q-15 3.3-30 1.4-10-1.2-17-6.5-5.3-4-7.2-7.8a46 46 0 0 1-2.3-30.8q.6-3.2-.1-6.8 4-11.1 7.7-22.3c3.4-10 6.4-16.6 10.8-27.4q7.3-17.8 20-35.5a175 175 0 0 1 22.8-24.3.5.5 0 0 1 .8.2 177 177 0 0 0 12.3 29q14.8 25.8 36.2 46.6v.5q-14 22.2-32.6 40.8a386 386 0 0 1-31 29 .1.1 0 0 0 0 .2zm-294-62.2q.6 4.9 1.3 7.2 6 17.4 7.5 22.7.7 2.5 2.6 12 .6 9.4-1.2 17.5-1.6 6.9-5.2 11c-15.1 17.2-45.2 11.8-64.2 5.8q-11-3.5-19.8-8-25.5-13.3-43.5-33.4-2-2.3-7.5-9.7-.7-1-3.1-2.7-.9-.6-1.4-1.8 13.3-7.7 25-17.4h.7q27.6 40.3 70.8 62.3h.3l.1-.3v-.1q-5-3.7-7.2-5.7A322 322 0 0 1 255 323a1 1 0 0 1 .2-1.1q20.5-19.8 34.8-44.5 8.5-14.7 12.8-30.3a.8.8 0 0 1 1.3-.4c7 6 15.4 14 21.5 22.1q10.3 13.7 15.3 23.7 6.2 12.2 14.6 34M457.6 519l-6.4 19-11.1 23.5q-2.9 1-4.3 2.6-3.3 3.6-6.8 7c-12.2 12-27.4 19.7-44.7 17.5-27.9-3.6-48.7-23.8-64.6-45.2q-7-9.4-16.4-26.4-4.8-8.7-7.8-14.7t-3.6-7.9c-2.7-6.9-5.5-12.1-7.8-20q-2-6.4-4.4-11.8c-1-2.3-1.4-5.5-2.5-8.3q-.4-.8.4-1.3.2-.2.9-.2 10 6.7 20.4 10.6 27.4 10.2 57.1 10.4l16-.1q.7 0 1-.3a.3.3 30.6 0 0-.1-.5l-7.4-1q-5.9-1-28-5.6-29.3-6-56.7-19.9-2.2-1.1-6.1-3.6l-1.8-12 .7-1.4c28.8 7 58.8 5.8 86.6-4.6 11-3.9 18.8-8 28-13.1l.8.2a606 606 0 0 0 59.4 95zm-148.1-29.4a.3.3 78.4 0 0-.3.4q9.5 9.9 21.3 15.8c20.4 10.3 42.8 16 65.6 18.5a.2.2 0 0 0 0-.4l-14.6-5.2q-36-12.6-62.7-25.2-2.6-1.2-9.3-3.9m379-60.6q.5.5.8 1.3l-.9.8a1.3 1.2-18.2 0 0-.4.8l-1.2 10.4q-14.7 8.6-25.3 12.4c-7.9 2.9-16.4 6.2-24.5 8.3q-25 6.4-50.2 10l-.1.2v.3a.4.4 0 0 0 .4.4l18.1-.2q30.2-.4 57.7-11 9.9-3.8 20.4-11c1.9-1.3 2.2-5 3.1-7.2 1.3 5.7-3.5 10.2-5 15.6q-1.2 4-3.2 8.7-.4.7-2.8 8.8-1.5 4.9-4.1 10.6a293 293 0 0 1-36.7 62.7Q623.2 565 609 575.3q-15.5 11.1-33.6 13.3-10.6 1.3-19.6-1.8-14.8-5.1-26.8-17.5l-9.3-8.9-10.3-22-6.6-20q6-7.1 17.2-22.6 14.6-20.2 27-40.5 1.8-2.8 13.2-22.6c3.8-6.7 7-13.5 11.1-20.7a.6.6 30.3 0 1 .9-.2 143 143 0 0 0 28.7 13.4c4.9 1.5 9.2 3.3 14.2 4.5q36.6 8.7 73.4-.7M651 489.4q-6.7 2.6-9.2 3.9-26.7 12.6-62.5 25.2l-14.7 5.3a.2.2 0 0 0 .1.4 193 193 0 0 0 65.4-18.6q11.7-6 21.2-15.8a.2.2 0 0 0-.3-.4"/></g><g fill="#6c7a9d"><path d="M480.4 243.7a.2.2 0 0 1-.4 0 160 160 0 0 0-17.9-47.8q-1.3-2.2-8.2-12.1l-4.1-7.8q-2.4-4.7-2.9-8.2-.5-4.5 1.7-11l5.8-15.5q4.3-10.9 4.7-14 .6-4 2-9.1c3.2-12 4.1-28 5.2-39.3a1 1 0 0 1 1.2-1h24.4a1.4 1.4 84.8 0 1 1.4 1.1c1.3 7.3 1.5 11.5 2.3 20.7q.6 6.5 1.8 12 4 18.7 7.8 28.4l6.8 17.4q2 5.5 1 11.8c-.5 4.1-2.6 7.2-4.5 11l-2.5 4q-6.7 9.6-10.2 15.8-11.6 20.4-15.4 43.6m230.1-41.3q1.1.5 4.8 1.5t13.3 4.9q7.5 3 12.7 5.9a161 161 0 0 1 81 117.4q.9 5.5 1.3 18 .4 12 1.7 24.3l-1.2 13.3a.5.5 0 0 1-.9.3q-12.8-12.6-29-24.2-6.7-4.9-19-11.1-9.6-5-27.3-14.8-10-5.7-16-10.3c-10.8-8.3-21.3-16.3-30.8-26.5q-21.2-22.7-36-50.1l-3.9-7.3q4.6-6 9.9-9.4l12.5-8q13.4-8.6 23-18.7 1.9-2 3.9-5.2M299 243l-6.6 13.5a266 266 0 0 1-21.4 30.8c-8 9.3-11.3 13.6-18.8 20.5q-11.8 11-26.2 21.4-9 6.6-19.5 12-17.6 9.1-35.2 19.1c-4.2 2.4-8 5.5-12.5 8.7q-10.1 7.1-21.3 18.6a.7.7 0 0 1-1.1-.3q-1.5-5.3-1.3-10.3l.4-15.3.3-7.9q.3-3.2.4-7.9c.4-8.7 2.6-18.2 4-25.6q1.1-5.8 3-12.4 5.6-18.4 15.3-34.9 1.2-2 5.9-8.8a157 157 0 0 1 56.5-50.4q5.5-3 12.4-5.5 10.3-4 12.7-4.5 2.6-.6 3.3-1.2 9.6 11.8 20 19.2l8.1 5.4c3.6 2.3 9.6 5.2 13 8.3zm502.6 138.6q9.8 6.7 18.2 14.6-1.4.3-.7 1.8 3 7 5.1 13 1.5 4.1 10.3 21.7c5 10 9.4 20 13.2 27.7 3 6 4.6 11.4 6.8 16.3q2.3 5.2 4.3 12.5l5.5 21c1.1 4.3 1.4 8.3 2.4 12.5q.9 3.6 1.2 9.5.6 10.9 1 22.7-1.3 4.6-4.5 9c-3.5 5-7.2 10.9-10.6 15.1q-9.1 11.4-21.7 20.7-8.7-5.6-16.7-13-13-12.1-23.3-27c-3.3-5-6.1-10.3-9.5-16.1q-1.5-2.5-3.5-6.7-10.2-20.7-16.2-42.8L759 480q-6.4-27.4-6.6-50-.2-16 4.4-30.5 2.4-7.7 8.9-14.2a9.7 9 5 0 1 1.7-1.4c3.4-2 6.3-4.3 9.6-5.1q9.7-2.6 17.5 1 4.4 2 7 1.9m-672.8 218a118 118 0 0 1-36.8-43.3q.6-.8 0-2.7l-.2-1.8c.8-8 .7-15.9 1.8-23.5q2.3-16.3 5.5-30.3 2-8.3 4.8-16.2l6-15.8q8.6-19.6 20.6-42.9c2-3.8 3-7.6 4.7-11.2q2-4.2 3.4-8.3l3-8.4 15.6-12.9q4.5-.9 8.8-2.2 7-2.2 8.7-2.3 6.9-.5 12.5 2.5c4.8 2.6 8.8 5.6 11.7 10.3q4.8 7.9 6.5 16.2 3.2 15.9 2 32.4-1.8 24.9-8.5 48.6c-1.5 5-3.4 12.7-5.5 19.1q-8.6 25.5-22.8 48.3-11.9 19.4-29 34c-2.5 2.2-7.8 7-12.8 10.4m346 66.5c.4 7 0 15 .8 21.3.6 4.6.5 8.7 1 13q1.5 14.7 3.7 28.2a.2.2 0 0 0 .4 0 310 310 0 0 0 3.8-38.4q0-3.9.7-11.5.2-2.8.2-11.6 0-13.3.8-26.7l.5-6.5a4.2 4 59.4 0 1 .2-1l1.2-3a2.7 2-37.5 0 0 .1-.6q2.3-13.3 3.8-19c2.5-9 9.8-22.6 21.7-14.1 8.6 6.1 14 14.2 21.3 24 2.2 3 5.8 6.2 9 9.3l15.8 14.7 2 2 1 1.6q7 13 5 26.8-.9 6.1-3 14.8-1.5 5.7-5 14.3-5.8 14.5-8 21.3-1 2.6-1.5 8l-2.5 7a1 1 0 0 1-.8.5q-13.1 1.8-21.9 2.6c-20.6 2-41.5 3.7-62 2.3q-27.6-1.9-49.6-4.8a1 1-6 0 1-.7-.6l-6.4-17.3q-.9-6.7-3.2-13c-2-5.6-5-11.4-6.5-16.5l-3-10.6q-4.2-15.7 1.6-30.7c1.3-3.6 2.6-5.7 5.4-8.2l14.5-13.4c7-6.4 12-13 21-24.5 3.2-3.9 9.5-10.4 14.5-11.8 8-2.3 14 5 16.2 11.8 2.8 8.7 3.7 19.4 5.8 26.6q1.2 4 1.1 8.4-.2 12.7 1 25.3M321 644.7q6.7 6.9 11.5 10.3 15.1 10.7 25 18.3 8.1 6.2 15.2 15a291 291 0 0 1 16 21q9 13.5 17.3 29.3l-.3.8q-.2.1-.4 0c-13.5-2.4-24.6-4-37.5-7q-17.8-4-23.8-5.6-5.3-1.4-24.4-7.1-2.4-15.2-2.9-24.2c-.6-12.3 1-23 4.3-39q.9-4.3 0-11.8m317.3 1.1c.7 4.9.9 9.7 1.8 14.6a146 146 0 0 1 .2 59.6c-9.7 2.8-20.2 6-29.2 8-8.8 2-15.5 3.9-23.5 5.5q-12.5 2.5-32.4 6a.8.7 8.3 0 1-.8-1q8.6-17 18.6-31.7 4.5-6.5 18.4-23 1.4-1.6 7-6.8 4.4-4 16.2-12.5c4.4-3.2 7.6-5.9 11.5-8.3 4-2.6 8.1-7 12.2-10.4"/></g><g fill="#31364f"><path d="M480.1 63.2c39 0 69.1-.4 89.9 0q7 .1 7.5 7.8c.5 6.7 0 12 1.2 18 3 14.2 14.4 23.2 27.3 28.6q10.8 4.6 14.5 6.4c14.8 7.2 27.9 13.1 41.7 20.5 10.3 5.6 18.8 10 28.2 15.7q12.6 7.7 25.7 14.5 3.1 1.6 6 2.1 18.8 3.7 29.5 8.3l12.5 6q7 3.4 12 7a155 155 0 0 1 48.7 56.6 174 174 0 0 1 18.9 88.3q-.7 14.7-1.9 22.8L839 386q-.8 7.8 4.2 15.6 6.5 10 13 20.9A225 225 0 0 1 889 533.8q.4 13-4.7 23.8-7.7 16.8-21 32.8a114 114 0 0 1-86.2 42.9q-6.2 0-9.4-5.4-6.4-10.6-11-19.6-17.5-34.5-30.1-70.7-3.9-11-6-21.6a.4.4 0 0 0-.7-.2l-.4.6c-3.6 12.3-8.7 22-14.4 34.3q-2.4 5-9.1 16-8 13-10.3 28.2-3 18.7-.9 37.3c3.6 33.4 7.2 52.8 3.5 79.3q-.9 6.2-6.5 8.7-21.3 9.4-39 14.5-6.7 2-30.7 8.3-2 .6-22.3 5-10.6 2.3-22.5 4.1a683 683 0 0 1-64 7.8q-13.9 1-23.1 1t-23.1-1a684 684 0 0 1-64-7.8q-11.9-1.8-22.5-4.1-20.3-4.4-22.3-5l-30.7-8.3q-17.7-5.1-39-14.5-5.6-2.5-6.5-8.7c-3.7-26.5-.1-46 3.5-79.3q2-18.6-.8-37.3-2.4-15.3-10.4-28.2-6.7-11-9-16c-5.7-12.3-11-22-14.5-34.3q0-.4-.4-.6a.4.4 0 0 0-.6.2q-2.2 10.5-6 21.5-12.7 36.3-30.3 70.8-4.5 9-10.8 19.6-3.3 5.4-9.5 5.3a114 114 0 0 1-86.1-42.8q-13.3-16-21-32.8-5.1-11-4.8-23.9a225 225 0 0 1 32.7-111.2q6.6-11 13-21 5-7.7 4.2-15.6-.5-5-2.7-20.2-1.2-8-2-22.7a174 174 0 0 1 19-88.3 155 155 0 0 1 48.7-56.7q5-3.5 12-7 9.8-4.8 12.4-5.9 10.8-4.6 29.6-8.3 2.8-.6 6-2.2 13.1-6.7 25.7-14.4c9.4-5.8 17.8-10.1 28.2-15.7 13.8-7.4 26.9-13.3 41.7-20.5q3.7-1.8 14.5-6.4c12.8-5.4 24.4-14.5 27.3-28.6 1.2-6 .6-11.3 1.2-18q.6-7.7 7.5-7.8c20.7-.4 50.9 0 89.8 0m-79.6 14.4q-1.5-.4-2.8 0l-.6.6-.5 8.7a46 46 0 0 1-20.2 35q-4.6 3.5-13.7 7.5-10.8 4.7-16.9 8c-9.2 4.9-19.2 9-29.8 14.4l-21.4 11q-7.5 4-15.5 9l-12 7q-6.3 3.6-11.8 7.6-1 8 2.3 13.7c6.3 10.5 17.8 16 27.5 22.8 5.6 4 12.4 6.8 17.6 8.7 3.6 1.3 12.4 6.3 4.1 9.6q-3.8 1.5-7.8 1.7l-8.5-7.4c-3.6-3-9.5-6-13-8.3l-8.3-5.4q-10.3-7.4-19.9-19.2-3.1-5.3-4-10.5a2 2 0 0 0-2.5-1.6c-7 1.6-13 2.4-18.8 4.5q-12.8 4.6-18.4 7.3c-18.7 9-35.4 24.8-47.6 42.9q-24 35.8-26.7 78-1.6 25.3 3.8 53.8-.2 5 1.3 10.3a1 1 0 0 0 1 .3q11.3-11.5 21.4-18.6c4.6-3.2 8.3-6.3 12.5-8.7q17.6-10 35.2-19.1 10.4-5.4 19.5-12 14.4-10.3 26.2-21.4c7.5-7 10.8-11.2 18.8-20.5a266 266 0 0 0 21.4-30.8q1.7 5.6-2.1 12.6-11.4 21-23.9 37c-4.6 5.9-10.6 11.1-14.5 17.8-2.4 4.1-8.1 5.3-11.5 6.6q-1.2.5-6.3 4.3c-5.4 4-10.7 6.8-15.9 10.4q-6.8 4.8-4.1 12.3 3.5 9.8 5.3 18 1 4.3 5.3 5.5l2.4 7.2a2.2 2.1 14.6 0 0 .4.8c31.9 32.7 77.6 40.1 120.8 30.8q6-1.3 11.8-3v8a147 147 0 0 1-86.6 4.6l-12.7-5q-13.7-5.3-26.6-14.6l-3.8-2.6a.3.3 0 0 0-.5.3c1.8 18.4 5.7 38 9.5 55.2q5.6 25.2 13.6 47.2 10.6 29.4 27.6 56.3 16.5 26.4 36 54.1 7.7 11.1 13.7 17 9.3 9 22.2 17.7c3.6 2.4 6.6.4 10-2q10.1-6.7 22-17.5 32.8-29.4 53.5-70l2-4 11.2-23.5q.7-.2 1 0t.4 1q-.3 7.5-1.7 13-1.7 6.5-5.8 16.4c-.8 2-1.5 4.7-2.2 6.5q-7 15.9-17.8 31.3-7.3 10.4-16.6 19.6c-9.1 9-17.6 17.4-27.8 24.7q-9.2 6.5-17.4 11.7a.5.5 0 0 0-.1.8q9.3 8.7 17.5 18 5 5.9 7.9 10.4 8.5 14 17.7 31.4l6.4 17.3a1 1-6 0 0 .7.6q22 3 49.6 4.8c20.5 1.4 41.4-.2 62-2.3q8.8-.8 22-2.6a1 1 0 0 0 .7-.6l2.5-6.8q4-10.8 9.8-21 3.8-6.4 8.2-15l2-3.4c2-3 3.3-5.5 5.6-8.2q7.5-9 16.2-18 2.3-2.4 5.1-4.7a.6.6 0 0 0 0-1q-8.4-4.8-18.8-12.1-8.2-5.8-13-10.4l-12.1-11.5c-3.6-3.4-6.4-7-9.8-10.9q-6.3-7.2-8-10.1c-4.9-7.8-9.7-14.6-13.4-22.2q-4.4-9-5-10.5-1.4-4.6-5-13.7-1.6-4.5-3-9.7l-.4-2.3-1.3-9.3q-.2-1 2-.9l10.4 22.1q2.5 6.1 5.6 11.5 15.3 26.7 36 49.3 8.1 8.9 17 17 11.5 10.5 25.2 18.3 7 1.4 11.9-2.1 5.7-4 16.6-14.3c3.7-3.5 6.3-7.2 10.2-11.2 5-5.1 9.1-13 13.4-19q1.8-2.6 6.4-10 4.5-7.4 14.8-21.9 1.8-2.6 3-4.7c2.1-3.7 4.1-9.8 7-13.7 2.5-3.3 5.6-6.7 7.2-10.4l9-20.3c3.1-6.8 7.6-14.2 9.4-21.8q3.2-13.2 5-19.3Q727 456.5 731 424a41 41 0 0 0-.5-17 2 1.8 16.1 0 0-.5-.8q-4.8-4.7.4-9.4 4.5-4.2 6-7.4 5.8-13.6 10.5-30.5c2.1-7.7-2.2-12-8-16-10-7-15.9-11.8-25-15.4-2.3-1-4.9-2.7-5.9-4.6q-6.3-11-15.4-20-1.9-2-5.1-6.2-2.2-3-13.2-19.3c-3-4.4-4.4-7.6-4.7-12.4q-.3-3.7-.6-4.4l-4-9.6q14.9 27.4 36.1 50.1c9.5 10.2 20 18.2 30.7 26.5q6 4.6 16.1 10.3 17.7 9.9 27.3 14.8 12.3 6.2 19 11 16.2 11.7 29 24.3a.5.5 0 0 0 1-.3l1.1-13.3q3.8-18 4-37.1.3-26.4-7-50a145 145 0 0 0-8.4-22q-9.3-18.7-22.9-34.6-13.5-15.7-32.7-26.4-7-3.9-22-9.2c-6-2.1-12-3-19.3-4.7a1.5 1.5 0 0 0-1.8 1.1q-1.4 5.6-4.7 11-2 3.1-3.9 5.1a120 120 0 0 1-23 18.8l-12.5 8q-5.3 3.2-9.9 9.3-9-2.1-17.8-8a.3.3 0 0 1 0-.5l18.2-6.6q10-3.7 15.7-7.8l12.5-8.7c4-2.7 10.7-6.7 8.7-11.8 2-2.2 9-13 5.1-15.2L680 170.9c-8.8-5.4-14.7-8.2-26-14.2q-8.7-4.6-19.8-10-30.1-14.4-37.1-17.6-9.6-4.3-14.3-8c-11-8.8-18.3-19.1-19-33.1l-.6-10-.5-.5-16.5.3H498a1 1 .7 0 0-.8.7q0 .9.4 2 3 18 4.6 23.3l5 16q2.3 7 5.7 14.5 4.3 9.2 8.2 19.1 5.4 13.6-.8 26.7-3.8 8-5.8 10.9-9.9 13.8-15.3 29-7.2 19.9-10.7 39.8-1.4 8-1.4 12.4l-.4 78.6q0 4.6.4 10l.1 47q0 5.8-.5 11.6-.5 6.1-.3 11.7.2 7.5 0 15l-.8 9.6-.1.1-.2-.1a35 35 0 0 0-4.4-16 1 1 0 0 0-1.5 0l-5 8.3q-.4-3.9-.5-7.7l.2-16.8q0-4.2-1.2-16v-42.2q.4-6.3.4-12 0-53-.3-81 0-4.8-1.6-13.4a184 184 0 0 0-16.2-52q-4.8-9.2-6.6-11.8-5-6.9-8.3-13.4-7.2-14.1-1-29 3.3-8.3 6.6-15 3.7-7.8 6.2-15 5.4-16 8.8-33l1.6-11.5-.4-.5zm79.9 166q3.8-23 15.4-43.5 3.5-6.2 10.2-15.8l2.5-4c1.9-3.8 4-6.9 4.6-11q.8-6.3-1.1-11.8l-6.8-17.4q-3.7-9.7-7.8-28.3-1.2-5.6-1.8-12.1c-.8-9.2-1-13.4-2.3-20.7a1.4 1.4 84.8 0 0-1.4-1.1h-24.4a1 1 0 0 0-1.2 1c-1 11.2-2 27.4-5.2 39.3q-1.4 5-2 9.2-.4 3-4.7 13.9-3.9 10-5.8 15.5-2.2 6.5-1.7 11 .5 3.5 2.9 8.2l4.1 7.8q7 9.9 8.2 12c9 14.7 14 31 18 47.9zM157.1 382.5l-15.5 12.9q-6.7 6.3-11.3 13l-7 10-9.8 16.8A212 212 0 0 0 87 515q-.5 3.8-.8 17.8-.4 13.4 5.7 23.6a118 118 0 0 0 36.8 43.3q11.3 8.6 24.7 13.5c6.4 2.4 12.9 3.5 19.7 5q3.8.7 6.4.7a3 3 0 0 0 2.9-1.8q5.4-10.8 7.6-14.7c7-12.4 10-20.4 17.6-37.3 3.5-7.8 5.6-14.3 8.5-21.9a379 379 0 0 0 15.5-52.7 4 4-46.2 0 0 0-1.9q-4.7-17.5-8.4-36-1.6-8.1-4.2-25.9-2.6-18.1-5.8-37.7c-.9-5.6-2.7-13-4.8-18.8l-4.6-12.6a1.2 1.2-23.4 0 0-1.6-.6l-18.7 9.5q-7.4 3.8-26.4 16m675 217.3q12.6-9.3 21.7-20.7c3.4-4.2 7-10 10.6-15q3.2-4.5 4.6-9.1 5.5-9.3 5.2-20.4-1-45.2-19-82.6c-3.2-6.7-4.8-10.6-8-16l-8.2-14c-2.7-4.7-5.3-8.2-9.1-13.8q-2.8-4.2-10-11.9-8.5-7.9-18.3-14.6-16-10.1-32.7-19l-10.8-5.4a1.4 1.4-68.6 0 0-2 .9q-2.4 7.9-4 11.5-2.1 5.3-3.5 11.6-3.6 16.5-5 28.2c-.7 6.5-2 12.2-2.7 18.4a384 384 0 0 1-12.6 61.3 3 3-44.8 0 0 0 1.7l2.5 9.7c2.2 8.8 4.8 16 7.6 25.4q2.3 8 5 15.6 13.8 37.4 33.3 73 1.3 2.3 2.3 3.7a2 2 0 0 0 1.7.7c9.8-1 20.7-3 29.4-6.8q12.2-5.4 22-12.4m-193.8 46.1c-4 3.5-8.1 7.8-12.2 10.4-4 2.4-7 5.1-11.5 8.3q-11.8 8.5-16.1 12.5-5.7 5.2-7.1 6.9-13.9 16.4-18.4 22.9-10 14.7-18.6 31.7a.8.7 8.3 0 0 .8 1q20-3.5 32.4-6c8-1.6 14.7-3.6 23.5-5.5 9-2 19.5-5.2 29.2-8q3.4-.6 7.5-2.2l19.8-7.4q3.3-1.2 5.3-2.2a3 3 0 0 0 2-3q.7-16.8-.6-37.3-.2-3.9-2.8-22.8-1.7-12-2.3-25-.2-5 0-8.3.4-4.5 1-8.2a.4.4 0 0 0-.7-.3q-13.9 22.4-31.2 42.5m-318.7 73.9q19.1 5.7 24.4 7 6 1.6 23.8 5.7c13 3 24 4.6 37.5 7q.2.1.4 0l.3-.8q-8.4-15.8-17.2-29.3a291 291 0 0 0-16-21c-5-6-9.8-10.8-15.4-15q-9.8-7.6-24.9-18.3-4.8-3.4-11.5-10.3l-7.7-9.7q-13.4-17.4-22.8-31.5a.4.4 0 0 0-.7.2 130 130 0 0 1-.7 37.3q-2.5 19.2-3.3 27.8-1.4 15.7-.4 35.8.1 2.8 2.6 4 13.7 5.5 31.6 11.1"/><path d="M486 640.5q-.7 13.4-.7 26.7 0 8.8-.2 11.6-.6 7.6-.7 11.5c-.2 13.1-2 26.2-3.8 38.4a.2.2 0 0 1-.4 0q-2.2-13.5-3.8-28.2c-.4-4.3-.3-8.4-.9-13-.7-6.2-.4-14.2-.8-21.3q-.2-13.4 0-26.7v-4l.6-21.6q.4-9.7 1.8-20.6 1-9.2 2.9-18.2a.5.5 0 0 1 .9 0c1.6 9.9 2.3 19.6 3.4 29.4q.6 6.2 1 18z"/></g><g fill="#576385"><path d="M128.7 599.7c5-3.5 10.3-8.2 12.8-10.4 11.5-9.6 21-21.2 29-34q14.2-22.8 22.8-48.3c2.1-6.4 4-14.1 5.5-19q6.7-23.7 8.5-48.7 1.2-16.5-2-32.4-1.7-8.3-6.5-16.2c-2.9-4.7-7-7.7-11.7-10.3q-5.6-3-12.5-2.5-1.7.1-8.7 2.3-4.3 1.3-8.8 2.2 19-12 26.4-15.9l18.7-9.5a1.2 1.2-23.4 0 1 1.6.6l4.6 12.6c2.1 5.7 4 13.2 4.8 18.8q3.2 19.6 5.8 37.7 2.6 17.8 4.2 25.9 3.7 18.5 8.4 36a4 4-46.2 0 1 0 1.9 379 379 0 0 1-15.5 52.7c-2.9 7.6-5 14.1-8.5 21.9-7.6 17-10.6 25-17.6 37.3q-2.2 4-7.6 14.7a3 3 0 0 1-2.9 1.8q-2.6 0-6.4-.8c-6.8-1.4-13.3-2.5-19.7-4.9q-13.4-4.9-24.7-13.6m672.9-218q-2.6 0-7-2-7.8-3.5-17.5-1c-3.3 1-6.2 3.2-9.6 5.2a9.7 9 5 0 0-1.7 1.4q-6.5 6.5-9 14.2-4.5 14.4-4.3 30.6.2 22.5 6.6 49.9L763 494q6 22.1 16.2 42.8 2 4.2 3.5 6.7c3.4 5.8 6.2 11.1 9.5 16q10.3 15 23.3 27 8 7.5 16.7 13.1-9.8 7-22 12.4c-8.7 3.7-19.6 5.7-29.4 6.8a2 2 0 0 1-1.7-.7q-1-1.4-2.3-3.7-19.5-35.6-33.2-73-2.8-7.5-5.1-15.6c-2.8-9.4-5.4-16.6-7.6-25.4l-2.5-9.7a3 3-44.8 0 1 0-1.7 384 384 0 0 0 12.6-61.3c.7-6.2 2-11.9 2.8-18.4q1.3-11.7 5-28.2 1.3-6.3 3.5-11.6 1.5-3.6 4-11.6a1.4 1.4-68.6 0 1 1.9-.8q4 1.9 10.8 5.5 16.7 8.8 32.7 18.9M486.4 446q-.2 10.2.7 18.8 1 8.8 1.2 15.4l1 18.3q.6 8.8 2.2 17.5.6 3 3 5.4 3.4 1.6 8.3-3l6.6 20q-2.3-.2-2.1.8l1.3 9.3q0 .9.4 2.3 1.4 5 3 9.7 3.6 9.1 5 13.7.6 1.6 5 10.5c3.7 7.6 8.5 14.4 13.4 22.2q1.7 2.9 8 10.1c3.4 3.9 6.2 7.5 9.8 10.9l12 11.5q4.9 4.6 13 10.4 10.5 7.3 18.9 12.2a.6.6 0 0 1 0 1q-2.8 2.2-5 4.5-8.8 9-16.3 18c-2.3 2.8-3.7 5.3-5.6 8.3l-2 3.4q-4.5 8.6-8.2 15-5.7 10.2-9.8 21 .6-5.5 1.5-8.1 2.2-6.8 8-21.3 3.5-8.6 5-14.2 2.1-8.7 3-14.9 2-13.9-5-26.8l-1-1.6-2-2q-14-12.8-15.9-14.7c-3-3.1-6.7-6.3-9-9.4-7.1-9.7-12.6-17.8-21.2-23.9-11.9-8.5-19.2 5-21.7 14.1q-1.5 5.7-3.8 19a2.7 2-37.5 0 1-.1.5l-1.2 3a4.2 4 59.4 0 0-.2 1.1l-.5 6.5-.7-18q-.4-11.8-1.1-18c-1.2-9.8-1.8-19.5-3.4-29.4a.5.5 0 0 0-1 0q-1.8 9-2.7 18.2c-.8 7.4-1.7 14-1.9 20.6l-.6 21.5v4.1q-.2 13.3 0 26.7-1.2-12.6-1-25.3 0-4.4-1-8.4c-2.2-7.2-3.1-18-6-26.6-2.1-6.8-8-14-16-11.8-5 1.4-11.4 7.9-14.5 11.8-9 11.6-14.1 18-21.1 24.5l-14.6 13.4c-2.7 2.5-4 4.6-5.3 8.2q-5.8 15-1.6 30.7l3 10.6c1.5 5.1 4.5 11 6.5 16.5q2.3 6.3 3.2 13-9.2-17.4-17.7-31.4-2.8-4.5-8-10.4-8.1-9.3-17.4-18a.5.5 0 0 1 0-.8q8.3-5.2 17.5-11.7a229 229 0 0 0 27.8-24.7q9.3-9.2 16.6-19.6 10.8-15.4 17.8-31.3l2.2-6.5q4-10 5.8-16.5 1.4-5.4 1.7-12.9 0-.7-.3-1-.4-.2-1 0l6.3-19q4.3 2.6 8 3l2.5-4.6q1-1.8 1.8-6.2.5-2.7.7-6.5 1.4-20.6 3.3-41 .7-7.9.5-15.7l5-8.3a1 1 0 0 1 1.5 0 35 35 0 0 1 4.4 16l.2.1.1-.1zm153.9 274a146 146 0 0 0-.2-59.6c-.9-4.9-1.1-9.7-1.8-14.6q17.3-20.1 31.2-42.5a.4.4 0 0 1 .6.3l-.9 8.2q-.2 3.3 0 8.4.6 13 2.3 25 2.6 18.8 2.8 22.7 1.3 20.5.5 37.4a3 3 0 0 1-1.9 2.9q-2 1-5.3 2.1l-19.8 7.5q-4 1.6-7.5 2.2M321 644.7q.9 7.5 0 11.7c-3.3 16-5 26.8-4.3 39.1q.5 9 2.9 24.2-17.9-5.6-31.6-11.2a4 4 0 0 1-2.6-3.9q-1-20 .4-35.8.8-8.6 3.3-27.8a130 130 0 0 0 .7-37.3.4.4 0 0 1 .7-.2q9.4 14.1 22.8 31.5 3.8 5 7.7 9.7"/></g><g fill="#f4404e"><path d="m610.3 275.3-1 6.2a2.4 2.2-30.2 0 1-.2.6q-2 4.5-5.4 9.1c-2.6 3.7-3.8 9-5.6 13.4a460 460 0 0 0-15 39.5c-4.8 15.6-10.6 28.7-17.7 46.5-6 14.8-14.4 28.8-21.3 43.3q-2.8 5.6-20.4 35.7l-6.5 11.2q-3.4 6-6.9 11c-4.7 6.6-6.5 10.3-11 17.8q-1.7 3-4.3 5.3a1.3 1.3 0 0 1-2.1-.6c-3-8.8-3-18-3.4-28.2q0-2-1.2-5.9-.2-6.6-1.2-15.4-1-8.6-.7-18.8.2-7.4 0-15-.2-5.5.3-11.6.4-5.8.5-11.6l.5 9.7a.2.2 0 0 0 .4.1q.2-.3 0-.7c.4 2.7.2 5.8.6 8.1 1.5 9.1 4.3 17.9 13 22 5.6 2.8 11.1 1.2 15.4-2.9 11-10.5 18.3-22.1 26.7-36.6q7-12 14.6-28.3 3.1-6.7 4.4-10c3.4-9 7.1-17 10-24.7 2.7-7.3 4.7-13.4 7.4-19.4 7-15.4 10.7-23.8 18.3-34.1q2.2-3 3.4-5c2.5-4 5.4-7.2 8.4-10.7M470.4 427.8q2.7 3.8 2.4 7-.7 6.7-.7 14-.1 9.5-.5 14-2 26.6-2.6 32.5c-.6 6 .2 13.1-2 18.8a1 1 26.7 0 1-1.4.4q-4.4-2.7-7.5-7.6c-5.7-9.3-10.4-16.5-15-24.5q-11.4-19.4-27.6-48.3-3.4-6-5.4-10.7-3-6.5-5.4-10.6c-3.7-6-5.6-12.1-8.8-18.5q-3.4-6.7-5.1-12c-1.6-4.8-3.4-9.1-6.4-16.2q-3-7.2-5.7-15.6-4-12-15.3-39.7c-2.3-5.6-4.4-12.1-5.3-16q-.2-.6-1.8-3.2-2.7-4.5-3.5-7.2-.7-2.2 0-6 15.6 20 25.5 43 4.8 11.3 9 22.4c3.3 9.2 6 15 9.5 24q1 2.6 4.2 9.6 11 23.6 24.4 45 4 6.3 6.9 9.8c6.8 8.5 17.2 22.9 29.7 12.5 5-4.1 7.4-10.7 8.4-17m117.8-55 6.5-16.9q.7 3.6 0 6.8c-2 11-2.4 21 2.4 30.8q1.9 3.8 7.2 7.8 7 5.3 17 6.5 15 2 30-1.5a147 147 0 0 0 29.3-9.9q26.6-12.7 46.5-35l10-12q2.2.5 3.4 1.5a2 2 28.6 0 1 .6 2c-2.1 7.1-5.3 13.6-6.8 19.9s-3 13-7.4 17.4q-9.1 9.3-19.2 14.6c-13.8 7.3-28.5 14.3-45 15q-18.1.8-26.5.8-4.4 0-16.3-1-5.6-.4-14.2-3.1l-14-4c-6.3-1.8-12.9-5.7-10.9-13.3q.8-3 5.7-17.4 1.3-3.8 1.6-9M222.3 349q2.4 1.7 3 2.6 5.6 7.4 7.6 9.7 18 20 43.5 33.3 8.8 4.6 19.8 8.1c19 6 49 11.4 64.2-5.7q3.7-4.2 5.2-11.1 1.8-8.1 1.2-17.5 6 10.5 9.5 21.4 1.6 5 2.5 6.9 2.7 6 3 7.5a.4.3-52 0 1 0 .2q-.3 2.3-1.6 2.8-14.8 5.6-30.6 9.4-9.7 2.3-18 3c-16 1.2-31 1.3-46.7-1.3q-9.8-1.6-20.5-6.4a97 97 0 0 1-30.3-20.1c-6.1-6-7.4-14.7-9.1-22.7-1.4-6.2-10.4-15.2-2.7-20.2m50.6 81.8 1.8 12q.5 3.6 1.5 7 .6 2 2.3 3.1-.7 0-1 .2-.7.5-.3 1.3c1 2.8 1.5 6 2.6 8.3q2.4 5.4 4.3 11.8c2.3 7.9 5.1 13.1 7.8 20q.7 1.8 3.6 7.9 3 6 7.8 14.7 9.4 17 16.4 26.4c15.9 21.4 36.8 41.6 64.6 45.2 17.3 2.2 32.5-5.6 44.7-17.6q.7 2.1.4 4.2a1.8 1.6 69.7 0 1-.2.7q-8.4 12.9-15 22.3-2.9 4-11 14c-10 12-20.3 22-33.1 31.9a34 34 0 0 1-16.6 8l-.9-.3c-11.9-8.4-23-17.2-31.4-29q-19-26.6-23.3-34.5-1.9-3.4-5.3-8.5c-5.2-7.7-10-16.3-17.6-29.1-5-8.8-10.6-17.2-13.9-26.4q-4.3-12.2-8.5-22.7-4-10.2-6-20.1-1.7-8.7-3.4-15.6-4.4-17.8-9-41.8-.7-3.5-.7-7.4l.3-1q.9-1.2 2-1.6a1 1-34.2 0 1 1 .2q4.3 3.2 8.3 5.3 13.3 7 27.8 11.1M529 569.3q12 12.4 26.8 17.5 9 3 19.6 1.8 18.1-2.2 33.6-13.4 14.2-10.1 25.6-24.3a288 288 0 0 0 36.6-62.7q2.7-5.7 4.2-10.6 2.4-8 2.8-8.8 2-4.8 3.1-8.7c1.6-5.4 6.4-10 5.1-15.7q1-1.7.4-2.1l1.2-10.4a1.3 1.2-18.2 0 1 .4-.8l1-.8q18-4.8 33-15.6a1 1-54.5 0 1 1.2-.2l2.1.6a1 1 0 0 1 .7 1l-1.6 11c-1.2 9-2.9 15.6-4.3 24.2q-1 5.8-3 13.2-9 32.8-14.5 47.7-2.8 7.5-12.4 28.2c-4.3 9.3-10.1 17.7-15.9 27.6q-4.1 7.1-7 11c-3.4 4.6-5.8 9.4-9.6 14.7q-3.9 5.4-16.7 25a93 93 0 0 1-23.4 25l-8.8 6c-6.2 4.3-12.5-.4-18.1-4.7q-21-15.8-31-28.4-17-21.3-22.9-30.4c-4.3-6.6-7.5-10.8-8.2-17"/></g><g fill="#8897b4"><path d="M249.3 202.7q-.7.5-3.3 1-2.4.7-12.7 4.6-7 2.6-12.4 5.5-34.6 18.2-56.5 50.4-4.7 6.8-5.9 8.8-9.7 16.5-15.2 34.9-2 6.6-3 12.4c-1.5 7.4-3.7 17-4 25.6l-.5 8-.3 7.8q0 7.5-.4 15.3-5.4-28.5-3.8-53.7Q134 281 158 245.2a125 125 0 0 1 47.6-42.8q5.6-2.8 18.4-7.4c5.9-2 11.9-3 18.8-4.5a2 2 0 0 1 2.5 1.6q.9 5.2 4 10.6m576 171.7Q824 362 823.6 350q-.5-12.4-1.3-18a161 161 0 0 0-81-117.3q-5.2-3-12.7-6-9.7-3.7-13.3-4.8t-4.8-1.5q3.3-5.3 4.7-10.9a1.5 1.5 0 0 1 1.8-1c7.3 1.6 13.3 2.5 19.3 4.6q15 5.3 22 9.2 19.2 10.7 32.7 26.4 13.6 15.9 22.9 34.7c3.7 7.4 5.8 13.7 8.4 22q7.3 23.6 7 49.9-.2 19-4 37.1m-683.7 20.9-3 8.4q-1.6 4.1-3.5 8.3c-1.7 3.6-2.7 7.4-4.7 11.2q-12 23.3-20.6 42.9l-6 15.8Q101 489.8 99 498q-3.2 14-5.5 30.3c-1.1 7.6-1 15.5-1.8 23.5l.2 1.8q.6 1.9 0 2.7-6-10.2-5.7-23.6.3-14 .8-17.8a212 212 0 0 1 26.5-80l9.8-16.6q1.2-2 7-10.1 4.6-6.7 11.3-13m678.2 1q7.3 7.7 10.1 12c3.8 5.5 6.4 9 9.1 13.7l8.2 14c3.2 5.4 4.8 9.3 8 16q18 37.4 19 82.6.3 11.1-5.2 20.4l-1-22.6q-.4-6-1.3-9.6c-1-4.2-1.3-8.2-2.4-12.5l-5.5-21q-2-7.3-4.3-12.5c-2.2-4.9-3.9-10.4-6.8-16.3-3.8-7.8-8.2-17.7-13.2-27.7q-8.8-17.6-10.2-21.7-2.2-6-5.2-13-.7-1.5.7-1.8"/></g><g fill="#fc8a88"><path d="M400.6 77.6H413a1 1 0 0 1 1 1.7l-.5.8a1.8 1.6-29.6 0 0-.2.7q-1.4 11.6-4 17.8-8 18.2-25 31.5-1.7 1.4-13.2 8.6-6 3.8-13.8 7.5c-15.5 7.4-21.6 10.6-36 16.9q-18.2 8-34.2 18.3c-6.7 4.3-11.6 10.8-10.8 19 .6 5.9 3 11.8 8 15q.7.4.5 1.3-.1.5-1 .5-7.5-4.9-14.9-10.2-4.9-3.7-8.2-7.8-4-5-5.5-12.8 5.5-4 11.8-7.6l12-7q8-5 15.5-9l21.4-11c10.6-5.5 20.6-9.5 29.8-14.4q6.1-3.3 17-8 9-4 13.6-7.6A46 46 0 0 0 396.6 87l.5-8.7.6-.6q1.3-.4 2.9 0m297.9 122.6q-10.2 10.3-24 17.5 5.9-6 8.2-13.5c3.7-11.9-2.6-18.3-11.5-24.2q-12.2-7.7-27-14.6-39.8-18.4-45.7-21.5-13-6.8-24.5-15-3.7-2.7-7.6-7A88 88 0 0 1 549 94.3q-1.2-3.3-3-16.6l16.6-.3.5.5.5 10c.8 14 8.1 24.3 19.1 33q4.7 3.8 14.3 8.1 7 3.2 37.1 17.7 11.1 5.3 19.8 10c11.3 5.9 17.2 8.7 26 14.1q5.2 3.3 23.6 14.2c4 2.3-3.2 13-5.1 15.2M487 360.9q-.3-5.5-.3-10.1l.4-78.6q0-4.3 1.4-12.4 3.5-20 10.7-39.9 5.4-15 15.3-28.9 2-2.9 5.8-10.9 6.2-13.1.8-26.7-4-10-8.2-19.1-3.4-7.5-5.6-14.4l-5.1-16.1q-1.7-5.2-4.6-23.4 1.3-.6 2 1.6 2.2 7.3 2.9 10.6 1.6 8 2.6 10.6 3.6 9.4 8 16.5c5.1 8.3 11.4 17 16.7 25.9a40 40 0 0 1 3.5 36.7q-2.5 5.6-7 12.5-16 24-23.4 53.8-4 15.9-6.8 29.9-2.4 12-4 29.1 0 1.6-2.6 29.3l-.6 11.2q-.3 6.4-1.8 12.8M460.9 89.8q-3.4 16.8-8.8 32.8-2.5 7.3-6.2 15.1-3.2 6.7-6.7 15-6 14.9 1.1 29 3.4 6.5 8.3 13.4 1.8 2.6 6.6 11.7a184 184 0 0 1 16.2 52.1q1.6 8.6 1.6 13.4.4 28 .3 81 0 5.7-.4 12-1.5-6-1.6-12.3l-.2-10-2.2-28q-1.2-13.8-3.8-29.5l-3.1-16.2a405 405 0 0 0-9.3-35.8q-1.2-4.1-2.4-7c-4.7-11.3-11-23.6-18.5-34.5q-5.9-8.4-7.8-18.7a41 41 0 0 1 6.1-27.2 329 329 0 0 1 9.7-15.3q7.3-10.9 13-21.9.6-1 2.6-7.7 1.9-6.3 5.5-11.5"/></g><g fill="#3a3149"><path d="M255.3 186.4q1.5 7.8 5.5 12.8 3.3 4.1 8.2 7.8 7.4 5.3 15 10.2 5.4 3.6 11.3 6c14.3 6 31 10.8 45.8 15.6q13.9 4.6 21.7 8.4 18.1 9 32 22.3c4.9 4.6 8.5 9.5 12.3 15.1a.2.2 87.2 0 1-.2.3c-2.1-1.2-4-3.2-5.8-4.6q-14.8-11.4-18.2-13.4-11.8-7-21.6-11c-7-2.8-13.5-5.7-21.3-7.7a343 343 0 0 1-22.5-6 .2.2 0 0 0-.2.3l15.8 16.5q7 8.8 12.3 18.3c3 5.4 6.7 11.7 9.3 17.3q10.2 22.5 18 46.5 4.7 14.7 11.5 31.5 2.7 6.6 3.9 10.1c2.3 6.7 6.3 14.4 9.1 20.7 4 9 8.5 17 12.3 24.6q2.8 5.6 7.4 13.8 20.3 36.4 42.8 71.3.4.8 3 4.4 1.6 2 3 4.4-3.8-.3-8.1-3l-9.2-12a632 632 0 0 1-34.3-50c-8.9-13.9-16.8-29-25.2-45l-.7-.2c-9.2 5.1-17 9.3-28 13.1v-8q13.1-3.5 25.5-9.4a1 1 0 0 0 .4-1.3l-7.2-16.4c-4.7-10.7-8.8-23-13.4-34.2q-2.8-6.8-10.1-29-8.4-21.8-14.6-34-5-10-15.3-23.7a148 148 0 0 0-21.5-22.1.8.8 0 0 0-1.3.4q-4.3 15.6-12.8 30.3-14.3 24.7-34.8 44.5a1 1 0 0 0-.2 1.1 322 322 0 0 0 55.7 62.9q2.2 2 7.2 5.7l-.1.3-.3.1q-43.2-22-70.8-62.2l-.7-.1q-11.7 9.8-25 17.4l-6 3.7-.2.8q6.7 14 10 29.4-4.3-1.2-5.3-5.4-1.8-8.3-5.3-18-2.7-7.6 4.1-12.4c5.2-3.6 10.5-6.4 15.9-10.4q5.1-3.8 6.3-4.3c3.4-1.3 9.1-2.5 11.5-6.6 3.9-6.7 10-12 14.5-17.9q12.6-16 23.9-36.9 3.8-7 2.1-12.6L299 243q4-.2 7.8-1.7c8.3-3.3-.5-8.3-4.1-9.6-5.1-2-12-4.7-17.6-8.7-9.7-6.7-21.2-12.3-27.5-22.8q-3.3-5.6-2.3-13.7m443.2 13.8c2 5-4.8 9-8.7 11.8l-12.5 8.7q-5.7 4.1-15.7 7.8l-18.1 6.6a.3.3 0 0 0-.1.6q8.8 5.8 17.8 7.9l3.8 7.3 4 9.6q.3.7.5 4.4c.4 4.8 1.8 8 4.8 12.4q11 16.3 13.2 19.3 3.2 4.3 5.1 6.2 9 9 15.4 20c1 1.9 3.6 3.7 6 4.6 9 3.6 14.8 8.4 24.9 15.4 5.8 4 10.1 8.3 8 16q-4.7 16.9-10.6 30.5-1.4 3.2-6 7.4-5.1 4.7-.3 9.4a2 1.8 16.1 0 1 .5.8 41 41 0 0 1 .5 17 372 372 0 0 1-13.5 63.8q-1.9 6-5 19.3c-2 7.6-6.4 15-9.4 21.8l-9.1 20.3c-1.6 3.7-4.7 7.1-7.1 10.4-3 4-5 10-7 13.7l-3.1 4.7q-10.2 14.5-14.7 21.8-4.7 7.5-6.5 10.1c-4.3 6-8.5 13.9-13.4 19-3.9 4-6.5 7.7-10.2 11.2q-11 10.2-16.6 14.3-5 3.5-11.9 2 3.8-.6 8.6-4 12.9-9.6 21.6-19.1 7.2-8 15.4-20.5 5.8-9 19.4-29 4.4-6.5 8.8-13.7l8.5-13.8q5.4-9.3 11.6-22.6 7.4-15.9 10.7-26.4 6.1-19.1 9.1-29.5 3.4-12.1 6.9-30.2 4-20.6 6.1-40l-.6-.4-.8.3q-.4.1-.7.4-13.6 10.8-30.3 17.4l-9.3 3.7q-36.7 9.4-73.4.7c-5-1.2-9.3-3-14.2-4.5a143 143 0 0 1-28.7-13.4.6.6 30.3 0 0-.9.2c-4.1 7.2-7.3 14-11.1 20.7L547 455.3q-12.5 20.3-27 40.5-11.3 15.5-17.3 22.7-4.9 4.5-8.3 2.9 4.6-6.3 8.8-12.6l17.8-28.6c2.1-3.5 3.9-7.3 6.4-11q2.3-3.4 5-8.3 5.1-9.3 12.3-21.4 2-3.4 8.3-16.3c3.1-6.2 6.5-11.8 9.7-19q9.4-20.8 16-37.7 4-10.2 7.3-21 3.3-10.3 4.8-14.2c3.8-9.8 6-16.8 10-26l5-12c1.2-2.6 2.9-4.4 4.4-7.5q6.5-13.7 16.5-26 7.4-9.4 16.7-17.7a.1.1 0 0 0-.1-.2c-8.8 3-19.7 5-27.3 7.5q-14.6 4.6-29.3 12.4a190 190 0 0 0-33.2 23 .3.3 0 0 1-.4-.4c6.4-8.6 13.5-16.7 21.8-23.1q17.2-13.4 38.3-20.5c17.5-5.9 35.6-11.1 52.8-18.1q5.2-2.1 8.3-4.9 14-7.2 24-17.5M594.7 355.8l-6.6 17-14 33.8.2.7c13.4 6.4 28 10.7 41.9 13.4q29.3 5.7 58 0 26.3-5 47.4-21.9l8.1-6.8a12 12 0 0 0 4.9-7.8q.4-2.1 1.1-4.3l4.7-15.4c1.3-4.7 2.7-7.3 4.9-12.2a1.3 1.3-64 0 0-.6-1.7q-16-8.8-30.1-20.8a.7.7 0 0 0-1.1.2q-25.5 36.4-64 58.6l-7.7 4a.1.1 0 0 1-.2-.2c10-8 17.5-15.5 31-29q18.8-18.6 32.7-40.8v-.5q-21.4-20.8-36.2-46.6c-5-8.8-8.8-19-12.3-29l-.7-.2c-7.8 7-16.7 15.7-23 24.3q-12.6 17.7-20 35.5c-4.3 10.8-7.4 17.4-10.7 27.4q-3.7 11.2-7.7 22.3"/><path d="M686.8 442.3q.7.4-.4 2.1c-.9 2.2-1.2 6-3.1 7.3q-10.5 7.2-20.4 11-27.5 10.6-57.7 11-16.6.3-18.1.2a.4.4 0 0 1-.4-.4v-.3l.1-.1Q612 469.4 637 463c8-2 16.6-5.4 24.5-8.3q10.6-3.8 25.3-12.4m-412.1.5q3.9 2.5 6.1 3.6 27.4 14 56.6 20 22.2 4.5 28 5.4l7.5 1a.3.3 30.6 0 1 .1.6q-.3.3-1 .3-8.4.2-16 .1-29.7-.2-57.1-10.4-10.4-4-20.4-10.6-1.7-1.1-2.3-3.2-1-3.3-1.5-6.8m376.4 46.6a.2.2 0 0 1 .3.4q-9.5 9.8-21.2 15.8a193 193 0 0 1-65.4 18.6.2.2 0 0 1 0-.5l14.6-5.2q35.8-12.6 62.5-25.2 2.5-1.3 9.2-3.9m-341.6.2q6.7 2.6 9.3 3.9 26.7 12.6 62.7 25.2l14.7 5.2a.2.2 0 0 1-.1.4 194 194 0 0 1-65.6-18.5q-11.8-6-21.3-15.8a.3.3 78.4 0 1 .3-.4"/></g><g fill="#db4b5f"><path d="M352.8 278.4q-.7 3.8 0 6 .8 2.8 3.5 7.2 1.6 2.6 1.8 3.2c1 3.9 3 10.4 5.3 16q11.4 27.7 15.3 39.7 2.7 8.4 5.7 15.6c3 7 4.8 11.4 6.4 16.2q1.7 5.3 5.1 12c3.3 6.4 5 12.4 8.8 18.5q2.5 4 5.4 10.6 2 4.7 5.4 10.7 16.2 28.9 27.5 48.3c4.7 8 9.4 15.2 15.1 24.5q3 4.9 7.5 7.6a1 1 26.7 0 0 1.3-.4c2.3-5.7 1.5-12.7 2-18.8q.6-6 2.7-32.5.4-4.5.5-14 0-7.3.6-14 .4-3.2-2.3-7l2.5-20.3q1.3 11.8 1.2 16l-.2 16.8q.1 3.9.5 7.7.2 7.8-.5 15.7-1.8 20.4-3.3 41-.2 3.8-.7 6.5-.8 4.4-1.8 6.2l-2.5 4.5q-1.3-2.4-2.8-4.4-2.7-3.6-3.1-4.4-22.5-35-42.8-71.3-4.6-8.2-7.4-13.8c-3.8-7.7-8.3-15.6-12.3-24.6-2.8-6.3-6.8-14-9.1-20.6q-1.2-3.6-3.9-10.2-6.8-16.8-11.5-31.5-7.8-24-18-46.5c-2.6-5.6-6.2-11.9-9.3-17.3q-5.3-9.5-12.3-18.3 5.5 2.2 9.5 7.1 3.8 5 4.8 5.9 2.8 3.1 5.4 6.4m274-18.5q-10 12.2-16.5 25.9c-1.5 3.1-3.2 4.9-4.3 7.6l-5.1 11.8c-4 9.3-6.2 16.3-10 26q-1.5 4-4.8 14.4-3.4 10.7-7.4 21-6.5 16.8-16 37.7c-3.1 7-6.5 12.7-9.6 19q-6.3 12.8-8.3 16.2-7.2 12.1-12.3 21.4-2.7 5-5 8.3c-2.5 3.7-4.3 7.5-6.4 11l-17.8 28.6q-4.1 6.3-8.8 12.6-2.4-2.4-3-5.4-1.6-8.7-2.1-17.5l-1-18.2q1 3.8 1.1 5.8c.5 10.1.5 19.4 3.4 28.2a1.3 1.3 0 0 0 2.1.6q2.6-2.4 4.4-5.3c4.4-7.5 6.2-11.2 11-17.8q3.4-5 6.8-11l6.5-11.2q17.6-30 20.4-35.7c7-14.5 15.3-28.5 21.3-43.3 7.1-17.8 12.9-31 17.7-46.5a476 476 0 0 1 15-39.5c1.8-4.4 3-9.7 5.6-13.4q3.4-4.6 5.4-9.1a2.4 2.2-30.2 0 0 .2-.6l1-6.2q5.5-7.5 12.8-14.7 1.5-1.4 3.7-.7m-266.6 157q-6 1.6-11.9 2.9c-43.2 9.3-89 1.9-120.8-30.8a2.2 2.1 14.6 0 1-.4-.8l-2.4-7.2q-3.3-15.4-10-29.4l.2-.8 6-3.7q.5 1.2 1.4 1.8c-7.7 5 1.3 14 2.7 20.3 1.7 7.9 3 16.5 9 22.6 9 8.9 18.7 14.8 30.4 20.1q10.7 4.8 20.5 6.4c15.6 2.6 30.7 2.5 46.7 1.3q8.3-.7 18-3 15.8-3.8 30.6-9.4 1.3-.5 1.7-2.8a.4.3-52 0 0 0-.2q-.4-1.5-3-7.5-1-2-2.6-7-3.6-10.8-9.5-21.3l-2.6-12q-1.5-5.3-7.5-22.7-.7-2.3-1.3-7.2 7.3 22.2 10 29c4.7 11.3 8.8 23.5 13.5 34.2L386 406a1 1 0 0 1-.4 1.3q-12.4 6-25.6 9.5m228.2-44.1q-.4 5.2-1.7 9-4.9 14.5-5.7 17.4c-2 7.6 4.6 11.5 10.9 13.2l14 4q8.6 2.8 14.2 3.2 11.9 1 16.3 1 8.4 0 26.5-.8c16.5-.7 31.2-7.7 45-15q10-5.3 19.2-14.6c4.4-4.4 5.9-11 7.4-17.4s4.7-12.8 6.8-20a2 2 28.6 0 0-.6-1.9q-1.2-1-3.5-1.6-11.4-6.9-21.7-14.9a1.3 1.3 0 0 0-1.8.2c-4 4.6-7.1 7.5-10.6 11.8q-7 8.5-18.4 19.4-5.2 5-11.1 9.4l-11.8 8.7c-3.7 2.8-7.5 5.3-12.2 4.8q38.6-22.2 64.1-58.6a1 1 0 0 1 1-.2q14.1 12 30.2 20.8a1.3 1.3-64 0 1 .6 1.6c-2.2 5-3.6 7.6-5 12.3q-3.5 12.4-4.6 15.4-.7 2.2-1.1 4.3a12 12 0 0 1-4.9 7.8q-5.6 4.9-8 6.8-21.2 16.9-47.5 22-28.7 5.6-58-.1c-14-2.7-28.5-7-42-13.4l-.2-.7zm-314.6 56.7-.7 1.3q-14.5-4-27.7-11.1-4-2.1-8.3-5.3a1 1-34.2 0 0-1.1-.2q-1.1.4-2 1.5l-.4 1q.1 4 .8 7.5 4.6 24 9 41.8 1.7 7 3.4 15.6 2 9.9 6 20 4.2 10.6 8.5 22.8c3.3 9.2 8.8 17.6 14 26.4 7.4 12.8 12.3 21.4 17.5 29q3.4 5.2 5.3 8.6 4.3 8 23.3 34.5a127 127 0 0 0 31.4 29 1 1-30.6 0 0 1 .2c6.3-.7 11.5-4 16.5-8 12.8-9.9 23-19.7 33-31.9q8.2-9.8 11-14 6.7-9.3 15-22.2a1.8 1.6 69.7 0 0 .3-.7q.3-2-.4-4.2 3.5-3.3 6.8-7 1.4-1.5 4.3-2.5l-2 4q-20.9 40.6-53.6 70-11.9 10.8-22 17.6c-3.4 2.3-6.4 4.3-10 2q-12.9-8.7-22.2-17.8-6-5.9-13.8-17-19.4-27.7-36-54-16.9-27-27.5-56.4-8-22-13.6-47.2a472 472 0 0 1-9.5-55.2.3.3 0 0 1 .5-.3l3.8 2.6q12.9 9.3 26.6 14.6zm329.9 227.1q-13.7-7.8-25.2-18.3-8.9-8.1-17-17-20.7-22.6-36-49.3-3.1-5.4-5.6-11.5l9.3 8.9c.7 6.1 3.9 10.3 8.3 17q5.9 9 22.8 30.3 10 12.6 31 28.4c5.6 4.4 12 9 18.1 4.7q2-1.5 8.8-6a93 93 0 0 0 23.4-25q12.8-19.6 16.7-25c3.8-5.4 6.2-10.1 9.5-14.7q3-3.9 7.1-11c5.8-9.9 11.6-18.3 15.9-27.6q9.6-20.7 12.4-28.2 5.5-14.9 14.5-47.7 2-7.4 3-13.2c1.4-8.6 3.1-15.3 4.3-24.2l1.6-11a1 1 0 0 0-.7-1l-2.1-.6a1 1-54.5 0 0-1.2.2q-15 10.8-33 15.6-.4-.8-1-1.3l9.4-3.7q16.7-6.6 30.3-17.4.3-.3.7-.4l.8-.3a.5.5 0 0 1 .6.5q-2.2 19.3-6.1 40-3.5 18-6.9 30-3 10.5-9 29.6-3.5 10.6-10.8 26.4-6.2 13.3-11.6 22.6l-8.5 13.8q-4.4 7.2-8.8 13.7-13.6 20-19.4 29-8.2 12.6-15.4 20.5-8.7 9.5-21.6 19-4.8 3.5-8.6 4.2"/></g></svg>