<svg xmlns="http://www.w3.org/2000/svg" viewBox="0 0 1665 1505"><g fill="none" stroke-width="2"><path stroke="#25283a" d="m363.7 971 1.5 3q4.9 14.8 8 24.7c3.4 11 10.9 24.4 14.6 32.6q2.3 5 9 16.7 8.1 14.5 12.8 22 8.4 14 12 22.4 5.7 13 8.4 26.6c7 35.2 6.3 72.4 1.9 108.3l-4.3 35q-3.5 30-4 61.7 0 10.4 1 23.6.8 8.8 2.5 15.4c2.5 9.1 6 14.7 14.5 18.7a524 524 0 0 0 74.3 28q70.5 21 143.8 33.9c46.1 8 89.5 14.1 133.3 17.1q63.2 4.4 127-1.9 103.5-10.2 206.2-36.5 39.1-10 78-23.5 18.7-6.5 36.8-15a31 31 0 0 0 13.3-9.5c5-7.5 6.8-15.9 7.8-25.4q1-9 1.1-18.4c.3-24.7-2-49.2-5.5-76.5q-3.5-26.8-4.4-34.8a318 318 0 0 1 4.5-105.4q2.3-10 5.3-17.1 4.6-10.9 7.7-16.2 21-35.8 23-39.5 4.3-8.5 14.3-29.7 4-8.4 7.7-19.7 5-15.1 6.4-20.3a.5.5-44.7 0 1 1 0q5.3 21 11.5 40.6c3.8 12.3 8 23 11.8 33.8q4.7 13.2 9.9 25c6.1 14 11.5 28 18.3 42.4q11.7 25.2 25.8 52.4 8 15.2 14 25.2c4.1 6.7 11.3 16.6 19.5 16.8a209 209 0 0 0 101.7-25.3q37.9-19.9 67.8-53.2 21-23.4 38.2-53 10.6-18.2 16.1-38.2 4.5-16.2 3.3-34.8-2.2-34-8.4-67.5-12-65.1-44.5-126-10-18.5-15.1-26.9-6.6-10.7-19.7-30.7c-3-4.5-6.2-10.4-8.5-14.5a45 45 0 0 1-4.6-22.2q0-5.3 2.2-15.3t4.1-25q2.1-17 3.1-29.9 2.9-37.5-1-72-3.2-29.7-13.9-67.5c-3.4-12.1-8.6-25-14-36.3q-9-18.6-15.4-30.9-6.8-13.2-16.4-26.5-14-19.5-26.3-33.2-7.2-8-20.7-20.7-7.5-7-15.8-13-12.9-9.2-16.8-11.8c-33.8-21.7-72.3-33.5-111.2-41q-1-.2-3-1.2-9.3-4.6-16.5-9c-46-28-91-53.5-137.7-75.8q-30.4-14.5-64-29.6-12.2-5.4-23.5-12.2-15.3-9.5-24.5-23.5-5.2-8-7.4-16.8c-3.1-12.8-2.8-21.8-2.9-37 0-10.2-5.1-20.6-17-20-9 .3-20 0-28.9 0h-331q-2.3 0-3.7.7-9.4 4.8-10.3 15.6c-.7 7.4.3 18.2-.7 26.6a77 77 0 0 1-7 25.9q-3.9 7.5-7.9 12-13.5 14.8-32.1 23.9-5.4 2.6-15.6 7.1-22.7 10-78.1 36.9c-23.1 11.2-48 25.3-67.6 36.2q-21.3 11.8-34.9 20.6-6.3 4.1-10.7 6.4-4.7 2.4-10.7 6.4a51 51 0 0 1-13.6 6.6q-7.4 1.7-16.5 3.5c-13.6 2.7-28 7.7-38.6 11.1-28.8 9.3-55.7 24-79.1 42.7a300 300 0 0 0-53.5 57.2A359 359 0 0 0 119.3 558q-3.4 21.6-3.8 44-.4 26.4 1.3 44.3c1.6 18 4 38.1 8.2 57.7a52 52 0 0 1-4.6 35.6q-6 10.4-8 13.4A790 790 0 0 0 81 804.4q-8 14.4-10.3 19.3-4.2 8.8-10.4 22.9-5.5 12.5-9.3 23.3-20.8 59.3-25.4 123.8c-1 14-1.3 27.4 1.8 40 2.3 8.7 5.7 18.7 10.1 27.6q20.5 41.4 52 74.5 14 14.6 29.3 25.8 17 12.6 33 21.1 38.9 21 87.8 24.4c4.3.3 10 .8 14.4 0 8.8-1.3 15-10 19-17.2q19.2-35.1 38.3-75.1c7.2-15.3 12.1-27.5 18.3-41.6 7-16 11.4-28.8 18.1-48.2q9.4-26.9 15.4-54a.3.3 0 0 1 .6 0" vector-effect="non-scaling-stroke"/><path stroke="#464c67" d="M677.4 119.5q-1.2 38-2 48.8-1.9 25.7-7.5 58.4-1.6 9.9-3.8 17.5c-2.6 9.6-4.5 18-7.6 27a231 231 0 0 1-26.3 51.3c-8.9 12.6-22 23.5-36.4 32.7a.6.6 37.7 0 0 .1 1.1q3.8 1.2 8.4 2.3a2898 2898 0 0 0 55.7 13.2q27.5 6.1 50.9 12.4l22.5 5.8a.4.4 0 0 0 .5-.4q-1.5-8-6.6-37.9c-2.6-15.2-4.4-30.3-7.1-45.8Q712 271 707 235.6" vector-effect="non-scaling-stroke"/><path stroke="#515972" d="M707 235.6q2.1 3.2 4 8.3 9.4 24.6 19 50.4 3.8 10.6 19.2 62.9 5 17.1 8.4 36.2a3 3 0 0 0 2 2.3 124 124 0 0 1 29.4 12q20.2 13 35.2 31.3a.6.6-76.5 0 0 1-.6l-3-6.7q-1-2-2.7-6.9c-5.8-16-12.6-32.2-18.2-49.3l-14.9-43.9q-8.5-25.2-23.1-76.6c-4-13.7-7.5-28.1-10.8-42-4-17.6-9.5-37.2-13-55.7q-2.1-11.2-3.8-18.5c-2.5-10.5-4-20-6.5-30.6q-1.2-5.2-2.2-12a2 2 85.7 0 0-1.9-1.6h-45.8a1 1 0 0 0-1 .9l-.9 24" vector-effect="non-scaling-stroke"/><path stroke="#626c89" d="M707 235.6q-5.2-20.7-11.6-41.8c-3.4-11.4-6.9-30.9-10.3-44.9q-2.6-10.5-4.3-18.2c-.8-3.6-2.2-7.4-3.4-11.2" vector-effect="non-scaling-stroke"/><path stroke="#515972" d="M802.4 313c4 12.2 8.1 26 12.1 36.5 3.4 8.8 5.2 15.9 8.7 25.4l19.7 56a.5.5 0 0 0 .8 0l.9-1.8q4.4-11.7 8.4-25.2c4.3-14.3 9.3-25.9 13.7-39.2q2.6-7.8 10-28.7 1.8-5.2 7.6-24.2" vector-effect="non-scaling-stroke"/><path stroke="#464c67" d="M884.3 311.8c5.4-16.2 11.2-33 15.2-48.7 4.5-17.2 9.4-30.4 13.2-47.5q2.3-10.5 9.5-39 5.6-22 13.7-64.4 1.4-7 2.7-16a1.2 1.2-85.8 0 0-1.2-1.4H749.2a1 1 0 0 0-1 1.2q6.2 41.8 16.7 84.6 3.9 16 7.4 31.2l2 8.3q8.9 30.5 11.5 40c4.8 17.2 11 35.3 16.6 53" vector-effect="non-scaling-stroke"/><path stroke="#626c89" d="m884.3 311.8-7.4-.2-.7-.2q-2-1.1-2.6-2.5a2.5 2.4 34.9 0 1-.2-1 92 92 0 0 1 1.2-13.8c1.9-10.6 3.2-21.1 5.2-31.7 1.3-7.1 1.8-14.6 2.7-21.7q.8-6.2 1.1-16l.9-27.1a1 1 0 0 0-1.1-1q-2 .2-3 .7-18.3 8.9-37.7 8.9-13.4 0-24.2-3.7-5.9-2-13.9-5-.8-.3-2.5-.4l-.6.6.6 22.3q.6 21.5 5.6 48.5 3.4 18.1 5.1 33.6c.4 3.1.4 7.4-3 8.8q-2 .8-4.5 1.4h-1l-.8-.3h-.6q-.5.4-.5 1" vector-effect="non-scaling-stroke"/><path stroke="#464c67" d="m977.2 237.4.7-.3a.5.5-86.4 0 1 .5.6q0 4.5-.6 8.3c-7.6 46.3-11.6 70.2-16 99.8q-3.1 20.2-7.7 42.8a1 1 0 0 0 1.1 1.1c11.3-3.1 20.2-4.8 30.9-8 9.2-2.8 21-4.8 31-7.3l17.1-3.6q7.1-1.5 21.5-5.3c10.4-2.7 25.4-5.4 36.4-9a.8.8 0 0 0 .4-1.3q-1.4-1.4-3.8-3.1-9.3-6.6-15.7-11.7a88 88 0 0 1-16-16.7l-7.2-11q-4-6-6.6-11.2-7.7-15.3-11.1-24-4.6-11.4-9.6-31-3.7-14.1-6.4-31.8-5.5-36.3-6.5-72l-1-36.2" vector-effect="non-scaling-stroke"/><path stroke="#515972" d="m1008.7 106.5-.3-10.8a1 1 0 0 0-1-1h-46.6a1.3 1.3 5.6 0 0-1.3 1.1l-6.8 31.9c-5.7 25.3-9.5 45.6-15.8 71.2-8 32.5-15.5 62.4-24.4 92.6q-10.3 34.8-26.9 82c-1.7 5-3.4 11.8-5.6 17.4l-10.8 28.7c-2.5 6.6-6.3 13-8.7 19.8a.5.5 0 0 0 .9.6l11-12.4q2.6-3 15.2-13 11.4-9.1 26.4-14.4 3.5-1.1 13-4.6a2 2 0 0 0 1.4-1.6l4.2-19q2.4-10.4 4.8-18.8 7-24.2 12.4-42 3.6-11.9 13.5-38.4l14-38.4" vector-effect="non-scaling-stroke"/><path stroke="#626c89" d="m1008.7 106.5-.6 13.8q-.1 2.5-1.5 5-.6 1-1.2 4.9c-1.2 6.7-3.5 13.2-5 20.4l-1.6 9-6 26.3q-2.3 10.3-5.5 20.5L983 221q-2.4 8.3-5.8 16.3" vector-effect="non-scaling-stroke"/><path stroke="#515972" d="M458.5 306.2q14 4 20.5 7.8 24.1 13.5 39 20.9 3.5 1.8 5.9 2.6 17.5 5.9 29.2 9c3.6 1 8 2.4 11.2 1a113 113 0 0 0 43-29q11.2-12.5 17.9-25.2 7.3-13.7 14.4-35 2.6-7.8 6.5-26.4c4.1-19.4 6.3-27.5 7.6-42" vector-effect="non-scaling-stroke"/><path stroke="#5d667f" d="m653.7 190 2.7-26.1a.4.4-25.3 0 0-.7-.3q-5.5 8.5-13.7 15.6c-3.8 3.3-6.8 5.1-11.7 8.6q-4.1 3-9.2 5.7-8.4 4.5-13.7 7L569 218.1c-3.4 1.6-7.2 3.8-10.6 5.4Q526.7 238 505 249.3q-22.1 11.4-55.1 30c-10.4 5.8-19.9 12.9-30.7 18.3a.5.5 0 0 0 .2.9q19.4.8 39 7.7" vector-effect="non-scaling-stroke"/><path stroke="#7986a1" d="M653.7 190q-1.7 1.4-5.6 5.6-6.6 7.2-16.2 15c-6.4 5.3-14.3 9.5-20 13.7q-4.4 3.1-9.1 5.4c-8 3.8-14.9 6.5-22.9 10.5l-13.1 6q-30.2 13.9-63.2 31.9-11.8 6.4-30.7 19.8-6.3 4.4-14.4 8.3" vector-effect="non-scaling-stroke"/><path stroke="#515972" d="M1032.6 189c1.7 17.7 5.4 32.4 9.8 52 3.5 15.7 8.3 31 15.2 45.5 4.6 9.7 10.9 18.8 16.8 26.6 10 13.1 23.3 22.5 38.2 30.3q6.3 3.4 10.5 4.3a7.9 7.7 49.3 0 0 2.2.2q3.6-.2 7.2-1.2 12.3-3.4 30.1-9.1 4.5-1.5 7-2.8l35.4-19.6q8.5-4.8 22.8-9" vector-effect="non-scaling-stroke"/><path stroke="#5d667f" d="M1227.8 306.1a116 116 0 0 1 38.7-7.3q.9 0 1.4-.4a.5.5-50.1 0 0 0-.8c-3.6-1.9-9.7-5-14.8-8.3q-16-10.4-39.7-23.2-26.9-14.5-42.2-22.2c-18.8-9.4-33-16-57.2-27.6q-18.2-8.7-33-15.1c-19.8-8.7-38.2-19.8-50.5-37.3a.3.3 0 0 0-.5.2q.5 12.5 2.6 25" vector-effect="non-scaling-stroke"/><path stroke="#7986a1" d="M1227.8 306.1q-4-1.6-9.6-5.3l-11.1-7.3q-7.9-5.4-11.2-7.3-26.2-15.8-45.8-25.2c-26.7-13-47.7-22.7-70.8-34q-8.2-4.1-22.6-14.2-12.9-9-24-23.7" vector-effect="non-scaling-stroke"/><path stroke="#3d3446" d="M401.4 316.7q-1.9.3-8 .2-3.8 0-8.5.5-7 .7-17.8 1.5-2.8.2-5.3.8l-32.4 7.6q-4.2 1-7.6 2.3-6.1 2.5-23.9 10.4c-6.3 2.9-11.5 6.3-17 9.1q-4.7 2.5-12 7.9a221 221 0 0 0-35 30q-2.9 3.4-6.2 6.4-5 4.6-6.3 6.2-9.2 10.8-18 21.7c-4.5 5.7-8.5 13-12 18.1-3.3 4.8-5.2 9.8-8.4 15.2-7 11.7-12 23.8-17.2 35.1-5 11.4-9.7 24-12.1 31.4-2.1 6.3-3.1 15-4.4 20.8-1.6 6.7-2.4 10-3.1 15.6l-2.3 19c-2 16.5-1.7 40.4-2 53.7q0 5.1.8 10.5.6 4.1 1.2 12.9.4 4.6 2.6 23.8c1 8.4 2.7 16 4 24.6q1.2 7.2 3.8 18.4l8.5 37.4q3 12 6 18.5c2.2 4.7 6.2 8.6 11.4 5.2q3.3-2 4.8-3.9c6.8-8.2 14.3-19 23.1-27.3q15.2-14.1 18.9-17a311 311 0 0 1 33.8-24.2l11.8-6.8 5-3 5.2-2.6q22-10.3 36.2-17.2 1.4-.6 6.8-3.5c5-2.7 8.7-5.5 13.8-8.6q2.2-1.4 7-5 6.5-5 12.3-8.7a105 105 0 0 0 16.2-12.4c6.8-6.2 11.8-11.7 18.5-17.8a242 242 0 0 0 22.5-24.3c3.4-4.2 8.7-9 12-13.3q11.6-15.3 22.2-29.8 11.6-16 17.4-26 8.5-14.7 14.7-27.6c7.4-15.2 13-25.7 17.7-38.4q7.5-20.6 13-43.7 2.5-11 2-26.6a9.5 9.2 35 0 0-.5-2.8q-1.6-4.3-3-13-1.2-6.9-4.4-14.3a53 53 0 0 0-22-23.4q-8.2-5-10.1-5.9-13.2-5.4-20-8c-7.3-3-16.2-3.6-21.7-5q-5.8-1.4-12.9-2-4.8-.4-18.2-2.7a3 2.8-42.8 0 0-1 0" vector-effect="non-scaling-stroke"/><path stroke="#843f43" d="M1174.9 388q-1.3 9-.3 18" vector-effect="non-scaling-stroke"/><path stroke="#3d3446" d="M1174.6 406c-.2 7.6-.8 15.7.8 22.8q2.2 9.6 5 18 6.3 19.3 14.3 36.8c3.6 7.8 10.6 18.3 14.7 27q5 10.7 11.8 21l10.2 16c7.3 11.4 14.6 20.5 26 35 5 6.2 10.1 11.5 14.4 17.2q4 5.5 9.9 11c10.5 10.3 16.7 16 25.5 25 6.2 6.3 13 11.7 21.7 18.6 7 5.5 14.3 9.9 20.8 15 5.4 4.4 12 8 17.8 11q13.4 6.4 29.8 13.6 7.9 3.5 14 7.3 7.8 4.6 13.6 7.6 5.5 2.8 18.6 10.9 6.5 4 12.4 9.8c5.2 5 10.7 8.5 15.9 13.7q6.5 6.7 12.3 12.2c2.7 2.6 4.7 5.2 7 7.8 4.3 4.9 8.6 12 11.9 15.9 9.5 10.7 15.6-2.8 17.6-10.7q2.8-11.4 7-24.9c2.8-8.3 3.4-17.4 5.4-26.4 2.2-10.7 4.9-24.1 5.9-37.2q.3-5.1 2.9-20 1.5-9 2.2-26.9c.3-8.8-2.1-20.6-1.2-29q1.3-11.2 1.2-13-2-29.6-9-58-6.7-27-16-47.6-9.6-21.2-28.3-52.7-4.1-6.9-17.4-24-1.5-2-2.7-4.2-1.5-2.6-2.7-3.8a235 235 0 0 0-25.3-24.1 350 350 0 0 0-37.7-27.3q-15.1-9.1-29.2-14.4-16-6.1-23.8-8.5-8.5-2.5-24.6-6c-12.3-2.5-26-3.8-36.3-3l-29 1.8q-7.5.4-13.1 2.6c-6.5 2.4-15.2 3.3-22 6q-14.9 6.1-24.3 11.7-5 3-13.3 11a42 42 0 0 0-12 16.5q-3.7 10.1-2.4 20.9" vector-effect="non-scaling-stroke"/><path stroke="#8c3a39" d="M1174.6 406q1 12 3 18.8 12.5 44.3 34.7 85.2c14.9 27.3 32.6 54 53.1 77.7q12.6 14.6 18 20.4 10.1 10.6 27 26 17.4 15.6 36.9 29 9.2 6.4 19.3 11.6 15.2 7.7 37.8 18.8c8.6 4.2 14.6 8 23.5 12.5q8.2 4.4 16.8 10.4 22.1 15.7 40.9 35.8 7.3 7.8 12.7 14.8 6.4 8.5 12.4 15.2a.5.5 0 0 0 .9-.2c2-5.2 3.5-9 5-14.6l9.4-34.6" vector-effect="non-scaling-stroke"/><path stroke="#a15e58" d="M1526 732.8q1.6-5.1 2.7-10.3 7.3-32.3 10.7-65 6.2-59-5.2-114.7-5.4-25.9-14-47-8.6-21.3-22.7-46.4a271 271 0 0 0-43-57.5q-11.6-11.8-31.1-26.7a217 217 0 0 0-34.4-21q-31.7-15.3-68-21.5c-22.7-3.9-45.5-2-68 1q-3.3.5-6.5 1.6" vector-effect="non-scaling-stroke"/><path stroke="#8c3a39" d="M1246.5 325.3q-16.6 4-32 11.2-7.7 3.6-14.7 8.5a64 64 0 0 0-25 43" vector-effect="non-scaling-stroke"/><path stroke="#e86956" d="M1526 732.8q-1 .7-1.2.3-.4-.7-.3-1.5 5.3-37.8 6.3-75.1.9-29-3-58.8-5.1-39.4-20.9-75.9" vector-effect="non-scaling-stroke"/><path stroke="#fd7a65" d="M1507 521.9q-2.3-6.7-5.3-13c-4.5-9.2-7.5-16-11.5-23q-16.6-29.5-37.8-54.8-17.2-20.5-38.3-37.8-20.1-16.5-45-29.5-25.3-13.2-52.5-22.1-6.7-2.2-15.4-3.8-2.5-.5-5-.3" vector-effect="non-scaling-stroke"/><path stroke="#e86956" d="M1296.2 337.6q-18.1-7-29.2-9.6c-7.2-1.7-14-3-20-1.8a.5.5 0 0 1-.6-.5v-.4" vector-effect="non-scaling-stroke"/><path stroke="#e95646" d="M1296.2 337.6c8.2 4 17.2 7.8 24.7 11.7q29.6 15.8 55 39.4 14.4 13.3 25.2 28.2 2 2.7 2.8 4.7a.4.4-12.2 0 1-.3.6q-.6 0-1.1-.6a172 172 0 0 0-26.8-23.2q-43.5-32.8-97.9-49.5a176 176 0 0 0-41.6-8c-7.8-.5-13.8-2-18.2 1.8a34 34 0 0 0-11.8 20.8 81 81 0 0 0 3.6 36q6.5 20.6 16.6 39.4 10.2 19 17.3 29.9 11 16.8 26.3 38.4c5 7 11.1 14.6 15.4 19.9a.6.6-10.2 0 1-.7.9q-1.3-.4-2.8-1.7-13-11.4-29-25.8c-8.8-8-15.2-16-23.8-26.2a.2.2 0 0 0-.3.2c17.6 34.3 37.3 68.3 62.7 97.5q5 5.7 8 8.8c6.5 6.7 11.5 12.1 17.8 17.8q17.3 15.4 33 26.6 13.8 10 38 25.4c11.7 7.5 23.6 13.7 34.6 20.8a.3.3 0 0 0 .4-.4c-.6-1-2-2.3-3-3.5q-8.7-11.8-16-20.8c-2.9-3.4-5-6.6-8.1-10.6q-2.2-2.9-6.3-7.8-24.7-29.2-40-50-17.6-23.9-34-50a.4.4 0 0 1 .5-.5q.7.3 1.7 1.3 38.4 38 71 73a833 833 0 0 1 63 74.2q11.4 15.4 36.5 53.3 4 6 7.6 12.8a.6.6 0 0 0 1 0l.1-.1q-.3-8-.4-17.2 0-10.1-.5-17-2-32.6-6.7-68.7-1.5-11.1-3-19.1c-2-10.6-3.9-20.8-7-31q-1.3-4-3.3-11.9-4.1-15.9-8.1-25-.8-2-2.1-4.2a5.7 5.6 21 0 1-.4-1q-9.3-29-12-34.8c-3.8-8.7-6.6-16.8-10.8-25q-8-15.3-11.5-21.5a.4.4 0 0 1 .6-.5q1.8 1.3 3.3 3a306 306 0 0 1 54.6 101.1q7.7 23.9 14.4 51.8 4.6 19.5 6.4 37.3l.3.2.2-.2q1.4-48-.8-90.8-.6-11.6-4.6-45.3a.5.5 0 0 1 .5-.7h.5" vector-effect="non-scaling-stroke"/><path stroke="#515972" d="M534.3 379.1q3 12.5 2.3 24.6" vector-effect="non-scaling-stroke"/><path stroke="#464c67" d="M536.6 403.7q-1 10.8-3.1 19.5-3.4 13.8-9.1 31.4-2 6-3.6 10c-3.4 8.6-5.8 16.3-9.6 24.8q-21 46.6-50 87a465 465 0 0 1-51.6 60q-18.1 17.6-25 23.6-8.8 7.6-20 16.6a3 3 0 0 0-.9 2.8q2.1 6.8 7.4 21.3 13 35.5 36 67.2 9 12.3 14 18.3c8.6 10.3 21 24 32.4 33.5a343 343 0 0 0 25.2 19q16.8 11.3 19.2 12.7 19.6 12 40.8 18.5 30.1 9 64.3 10.6 19.8 1 37.8-2 34.7-5.7 64.5-12 20.2-4.3 43-12.5a160 160 0 0 0 39.3-20.5q8.2-6 12.5-10.7l11.8-13.9c5.9-7 8.9-15 12-23.2l1.8-6.3" vector-effect="non-scaling-stroke"/><path stroke="#515972" d="M825.7 779.4q3.2-9.2 3.8-17.4 1.3-15.5 1.6-40c.4-35.3 1.2-69.5 1-105.3l-.5-88-.1-7.3" vector-effect="non-scaling-stroke"/><path stroke="#5d667f" d="M831.5 521.4q.3-9.2-.5-21.2-.6-10.3-4-19a71 71 0 0 0-12.2-20.6q-12.6-13.7-24-23.4-7-6-13.7-10c-8.9-5-16.8-9-26.9-12-18.8-5.3-38.1-9.3-59.4-13.9-26.6-5.6-50.7-11.6-78.2-17.6q-4.4-1-71.6-18.3l-10.2-2.4a1 1 87.8 0 0-1.1 1.2l4.6 15" vector-effect="non-scaling-stroke"/><path stroke="#7986a1" d="m831.5 521.4-.4 3.6a.5.5 0 0 1-1 0c-.5-1.8-.7-3.6-1.5-5.7l-2.9-8.2a80 80 0 0 0-16.1-28.6l-9.4-11q-4.2-4.8-16.7-15.7-1.1-1-13-8.3a136 136 0 0 0-36.1-15.3q-19.2-5.2-52-12c-25.4-5.3-46.8-11.8-67.4-17q-16.5-4-34.3-9.7-23.6-7.6-41.5-13.6-2.4-.9-5-.8" vector-effect="non-scaling-stroke"/><path stroke="#626c89" d="M825.7 779.4c-8.9 4.2-16.5 9-26.2 11.9-7 2-16.3 6.5-24.1 9.1q-26.5 8.8-53.4 14.8-34.4 7.7-69.5 8.5-25.2.7-47-2.3-53.3-7.3-98.2-38-13.1-9-18-13-38.5-32.1-60.8-77.2c-3.3-6.7-8-19.3-2.7-25.4q22-24.7 33-39.5 11.6-15.5 20.5-29.4 29.4-46.1 46-98.5l1.9-6.8c1.3-6 2.9-10.7 4-17q5.7-29.7 6.7-54.2.3-8-1.3-18.7" vector-effect="non-scaling-stroke"/><path stroke="#515972" d="M854.7 521.5c0 7.7-.4 16.7-.4 23 0 42.8-.5 82.4.1 124.7l1.3 78.8q.4 16.1 4.8 32.7" vector-effect="non-scaling-stroke"/><path stroke="#464c67" d="M860.6 780.7q.6 3.1 1.3 4.7 2.9 6.8 7.2 15 1.6 3.2 11.2 16.1 3 4.2 6.8 7 4.2 3.3 13 11 3.7 3.2 10.7 7 20 10.7 40.5 17 16.6 5 32.7 8.3c24.6 5 33 6.6 55.6 10.4q15.5 2.5 26.3 3 43 2.2 84-11.2 23.7-7.7 41.9-19.3 16.2-10.4 24.9-17 34-26 60.6-62.2 15.8-21.5 25.3-41c5.6-11.6 9.5-19.5 13.2-30q3.8-10.8 6.7-20a2.4 2.4 27.5 0 0-.8-2.6q-13.2-10.1-27.1-22.8c-4.3-3.9-7.4-7.1-12-11.6q-8.8-8.4-15.4-15.5-35.6-37.6-62-80.6-18.3-29.7-31.4-60.2-2.3-5.3-4.5-11.7l-4.4-11.8q-10-26.4-15-54.2" vector-effect="non-scaling-stroke"/><path stroke="#515972" d="M1149.9 408.5q-1.2-15.5 3-30.7" vector-effect="non-scaling-stroke"/><path stroke="#5d667f" d="m1152.8 377.8 4-13.5a1 1 16.8 0 0-.5-1q-.5-.2-1 0c-32.6 8.6-60 15.6-87.3 21.7-40.7 9-67 15.2-109.1 24.4q-19.9 4.3-29 7.8-22.1 8.2-40.8 25.7-10.5 9.7-16.8 16.7a60 60 0 0 0-15.3 27.7q-1.1 4.9-1.6 14-.5 10.1-.7 20.2" vector-effect="non-scaling-stroke"/><path stroke="#7986a1" d="M1152.8 377.8q-6.4 1.7-12.5 4l-12.3 4.5q-30.8 10.1-54 16.3-22.7 6.1-45.7 11.9c-19.7 5-34.3 7.9-56.6 12.8q-9.4 2-16.4 4.1c-13.5 4-23.4 7.1-33.2 12.5q-4.3 2.3-14.3 8.9-7 4.6-11.7 9-8.1 7.6-10.4 10.4l-11.5 14.3a82 82 0 0 0-13.4 22.8L856 523a.4.4-45.5 0 1-.8 0l-.6-1.5" vector-effect="non-scaling-stroke"/><path stroke="#626c89" d="M1149.9 408.5q-1.7 5-1.6 10.2.3 10.5 1.2 21.6t5.6 36.7q2.8 15 6.6 26.1 5.1 15 8.8 25.2c5.4 14.8 14.2 32 23 48.2q13.3 24.5 31.2 47.8l14.6 19.2q3 4.2 20.4 23 4 4.4 3.4 9.7-.7 5.7-2 9-7.1 16.8-17.3 32c-4.3 6.3-9.9 14.8-15.4 21.2q-10 11.8-19.7 21.3-9.8 9.6-22.3 18.5Q1170 790 1155 798q-39.8 20.9-85.7 24.8-52 4.3-107.2-8.2-20.2-4.5-45.4-12.6-13.1-4.2-21.7-7.6-20.2-8-21.5-8.4-3.8-1.6-6.2-2.2a2 1 24.9 0 1-.3 0l-6.5-3" vector-effect="non-scaling-stroke"/><path stroke="#515972" d="M186 813.5q-3.5 5.3-4.7 8-2.7 5.6-10.3 23.1c-8.4 19.3-15 40.1-21 59.2-4.3 14.3-6.8 27-10.5 41.5a451 451 0 0 0-8.9 43.6c-2.2 14.8-6.4 35.4-7.8 53.4q-1.7 23.3-2.5 31.7a.2.2 0 0 1-.4 0q-.4-1.7-.5-3a451 451 0 0 1-.5-71.8q1.8-33.4 7.3-62.8l6.7-35.7q2.6-12.4 4.9-20c3.4-11.4 5.7-21.2 9-31q6.1-18 13-34 .6-1.7 1-3.7a3 3-54.2 0 0-.3-1.7c-1.4-3-3.9-7-5.4-10.8q-3.9-9.8-6.6-19.2" vector-effect="non-scaling-stroke"/><path stroke="#5d667f" d="m148.5 780.3-5-21.8a.2.2 0 0 0-.4 0q-1 2-2.3 3.6c-9.8 13.5-15 22.9-27.5 43.5q-5.8 9.6-18.1 34.5-8.5 17.2-13.9 32.2-8.5 24-10.8 32-8.1 28.6-12.4 59.6-3.4 24.7-2.3 52.6.8 20.7 11 38" vector-effect="non-scaling-stroke"/><path stroke="#515972" d="M66.8 1054.5q21.5 40.9 55 71.1 8 7 18.3 14.3" vector-effect="non-scaling-stroke"/><path stroke="#464c67" d="M140.1 1139.9q32.8 26 73.4 34.6 15.3 3.2 29.3 4.8a2 2-70.2 0 0 2-1q3.7-5.5 7.2-12 13.4-24.8 20-37.5 1.7-3.3 10.1-21 5.6-11.6 9.5-21.1c5.2-12.6 11-24 16.1-37.7q12.5-33 14.9-41.1 5.1-17.1 10.5-33 2.4-7.5 4.4-16l10.4-45.4a600 600 0 0 0 11.3-75.5q2.4-24.5 1.4-53-.2-3.8-3.5-30.2-1.4-11.5-4-20.4-3.1-10.7-8.3-24.6a106 106 0 0 1-4.7-16 1 1-20.2 0 0-1.6-.6c-4.5 2.4-8.7 4-13.1 6.4q-9.7 5-21 10.1-12.7 5.7-19.6 9.5a294 294 0 0 0-38.7 24.5q-13 10.3-15.8 12.8c-4.6 4.1-8 8.1-12 12.5q-3.9 3.9-7.4 8.1-14.2 17-24.8 36.4" vector-effect="non-scaling-stroke"/><path stroke="#626c89" d="M140.1 1139.9q31.3-21.7 56-50.3 19.5-22.6 35.7-50.8 19-32.7 28-57.4c3.8-10.4 7.6-19.5 10.8-29.7q10.8-34.4 18-67.8 2.5-11.2 4-21.3 4.1-28 6-58.4a175 175 0 0 0-.7-34.2c-.6-4.5-1-8.1-2.6-11.6q-4-8.1-12.1-5-13.8 5.3-27.4 13.4-16.9 10-19.3 11.7-13.3 9-25.4 17.8c-6.3 4.6-14.3 9.6-21.1 15q-1 .7-4 2.2" vector-effect="non-scaling-stroke"/><path stroke="#7986a1" d="M66.8 1054.5q.9.4 1.3-.4v-.6q-1.4-2.2-1.5-5.7c-.2-11.9-.3-18.1 1-28.7l1.5-14.8c1-9.7 3.2-24 5.7-36q6.4-29.8 8.4-37.9 3.8-15.1 7.4-24.5 6.8-17.6 9.8-26.1 2.8-7.8 5.6-14.3 5.1-11.5 6-14.1 1.4-3.5 2.9-6.1t2.2-4.4q1.5-4 10-19.2 2.7-4.7 6.8-13.2 1.3-2.6 7-12.5 4.5-7.7 7.6-15.7" vector-effect="non-scaling-stroke"/><path stroke="#515972" d="M1546.8 1140q12.2-8.6 19.3-15.4a242 242 0 0 0 32-35.4q5.4-7.7 12.4-18.2 5.7-8.4 9.3-16.7" vector-effect="non-scaling-stroke"/><path stroke="#5d667f" d="M1619.8 1054.3q10.4-16.8 11-36.5.8-27-2.2-51.4-2.4-20-9.7-52a314 314 0 0 0-13.4-41.1q-24-60.7-61.9-114.4a.3.3 0 0 0-.6.1q-.5 4.2-1.5 8.3l-3.9 15" vector-effect="non-scaling-stroke"/><path stroke="#515972" d="M1537.6 782.3c-2.9 8.8-6.2 18.3-11 25.6q-1.5 2.6-.8 4.7l5.2 13.1q13 32.5 21.7 69.6 1.5 6.7 4.4 23 2.9 15.8 4 23a550 550 0 0 1 7.4 78.9l.3 21.8q0 3.3-1.6 32l-.2.2h-.2a.4.4 0 0 1-.4-.4q-2-30.3-6.2-58l-5.5-33.3a701 701 0 0 0-13.3-59.5q-9-35.2-22.8-71-6.6-17.2-17.8-37.2" vector-effect="non-scaling-stroke"/><path stroke="#464c67" d="M1500.8 814.8a86 86 0 0 0-8.9-16q-3.5-5.7-8-11c-9.9-11.4-17.6-21.4-28-31q-7.3-6.9-24-19-7.5-5.5-19.6-12.3-16.3-9.2-20.3-11-21.2-9.5-37.1-17.5-4.1-2-7.3-3a1.2 1.2 14.4 0 0-1.5.9c-2.2 10-8.4 22-12.2 35.2q-2.4 8.3-2.7 10-2.4 12.6-5 37.9c-2.7 27.4.2 58.1 4.1 89.7a700 700 0 0 0 18 89.2c2.5 9.7 5.4 18 9.1 29.7 3.5 10.9 7 23.1 11.3 35q9.7 27.1 14.5 38.2l12.7 29.3a920 920 0 0 0 42.6 84.1l3.1 5a2 2 70.1 0 0 1.5.7q16-1.4 30.5-4.4a177 177 0 0 0 73.2-34.4" vector-effect="non-scaling-stroke"/><path stroke="#626c89" d="M1500.8 814.8q-6-3.8-11.3-7.7l-9.3-6.9q-10.9-7.7-17.5-12.6-7.8-5.7-15-10c-14.8-9.3-24.7-15.6-38.9-21.9q-5.2-2.4-9.4-3.3h-1c-6.5 1-8 5-9 10.8q-1.7 11-1.8 18.5a527 527 0 0 0 6.8 81.8q2 15.7 6.5 34.4 8.1 34.6 18.1 63.3 10.1 29.1 18.7 46.4c14.9 30 32.8 59.9 55 84.6q10.8 12 15 16 8.4 8.1 21.3 18.8 7 5.9 17.8 13" vector-effect="non-scaling-stroke"/><path stroke="#7986a1" d="m1537.6 782.3 7.8 13.3q5.5 9 7.6 13.3 1.8 3.8 6.3 12.2c2.8 5.3 4.7 10.2 7.3 15q2.3 4.2 5.4 11.2c5.8 13 10.3 23 15 35.7 4 10.8 8 20.7 12 32.8q6.7 20.8 11.8 43 1.7 7.2 3.2 15.4 2.3 13 2.6 15.6 4.2 28.3 3.2 64.5" vector-effect="non-scaling-stroke"/><path stroke="#515972" d="M535 1384.3q2.5 1 5.2 1.7 33.6 9.3 69 17.7c15.2 3.6 31.4 6.2 48.2 10q2.4.5 4.9.4a1 1 0 0 0 .9-1.2q-7-24.2-12-43.6-3.6-14.2-6.2-28-7.5-38.5-10.4-78-4-55.8 3.7-111.8.7-5.3 2.3-9.7a.6.6 0 0 1 1 0q.5 1.4.6 3.1 4.4 80 17.4 160.7c6.2 39 13.7 73.6 23.3 111.4a1 1-1.8 0 0 1 .9q59.3 10.6 120.6 14.4 38 2.3 79-.1 59.4-3.6 119.2-13.9a1.4 1.4.9 0 0 1.1-1.1q3-14.2 4.6-20.8a1372 1372 0 0 0 32.8-209.2q.8-10.4 1.4-21 1-16.6 1.4-21 .2-2.3.6-3.7a.7.7 0 0 1 1.1-.3q.3.3.5 1 2.1 7.1 3.3 20.8 1.9 21.8 2.8 41.5.8 15.6.4 29-2 80.6-23.6 158.4l-6.3 22.1a.6.6 0 0 0 .7.8q22.8-4.7 42.5-8.3 4.8-.9 15-3.4c23.9-6 47.3-11.5 70.5-18.5" vector-effect="non-scaling-stroke"/><path stroke="#464c67" d="M1151.5 1384.6q29.5-8 45.8-14.5 12.4-5 29-11.2c4.8-1.9 6.9-3.1 7-8.4q.5-23.4 0-44.5a609 609 0 0 0-6.6-71c-6-42.1-6-86.1 3.2-127.7 2-9.5 5.1-20.7 8.5-28.7q3.7-8.8 7-13.9 16.4-24.4 29.6-51c7-14.2 12.2-28.4 18.6-43.4q2.4-5.8 5.2-15.2 4.5-15.2 7-25.8 1-4.8 1.5-9.3.3-3.2-.9-9.4a521 521 0 0 1-10-117.3.7.7-24.8 0 0-1.2-.4l-6.4 8.2q-2.3 3-20.1 22.8c-7.3 8-16.3 17-22.9 22.4q-7.8 6.4-22.6 17a264 264 0 0 1-33.4 20.2 197 197 0 0 1-53.2 18.4c-21.3 4-44.2 6-66.3 4.3q-14.8-1.2-21.3-2.2-26.6-4.3-31.5-5.3-16.9-3.3-36.1-8.6c-18.6-5.1-31.5-8.1-45.4-13.6-9.7-4-18.5-6.7-27.2-11.1q-1.5-.8-10.2-6.3-5.3-3.4-11.2-6" vector-effect="non-scaling-stroke"/><path stroke="#515972" d="M887.4 853.2q-12.4-9.6-22.7-21.6-5.8-6.7-9-11.1c-4.6-6.6-8.6-16-11.5-22a.8.8 0 0 0-1.5 0c-3.5 8.4-8.8 17.6-15 25.5l-8 9.9-18.8 17.8" vector-effect="non-scaling-stroke"/><path stroke="#464c67" d="M800.9 851.7q-3.8 2.3-7.6 4.3-4.2 2.3-7.6 4.5-11.3 7.2-21 10.7a481 481 0 0 1-48.7 15.9q-8 2-28.3 7.6-8.5 2.3-38.9 7.6a254 254 0 0 1-59.1 4q-19-1.2-34.5-3.8-36.8-6.1-71-25.7-6.6-3.8-18.4-12-15-10.2-18.1-12.7-18-14-35-33-2.5-2.7-15.4-18c-2.8-3.4-4.7-6.5-7-9.1a.6.6 0 0 0-1 .4q.9 8 .8 15.9-.6 38.5-6.3 77.2l-5 29.2a13 12.4 50.6 0 0-.2 2.5q0 3.2.2 4 4.6 22.3 11.2 41 1.3 3.7 10.1 26.1 6.1 15.5 11 25a486 486 0 0 0 24.6 43.9q7.3 11.4 10.5 18.7 5.1 11.7 8.7 25.2 6.6 25.3 8.3 48.7 2.2 31.3-1 64-1.6 15.6-4 32.5-6.7 47.8-5.3 98.7c.1 4.7-1 10 4.4 12.2q25.8 10.9 51.1 19.4 8.2 2.7 26.6 7.7" vector-effect="non-scaling-stroke"/><path stroke="#626c89" d="m800.9 851.7-4.1 5.7-.5.5q-5.1 3.7-11.1 8.6c-2.6 2-6.4 3.4-9.4 5.2a238 238 0 0 1-27.2 15q-4.5 2-11.9 6.1-4.2 2.4-14.1 6.8-58.8 26-122.4 32.6-13.1 1.3-27.7 1.2l-36.7-.5q-11.3-.3-20 5.2-6.7 4.3-10.8 8.4c-5 5-7 11.1-9.3 18.4a229 229 0 0 0-9.6 48.3q-2.8 30.1-1.3 59.8c2 41 6.5 74 12.6 122.3 3 23.3 7.3 49.7 11 69.5q9 46.2 9 46.8 3 15 12.2 52.6 1.7 7 2.5 12.4.3 1.8 2.9 7.7m616.5.3c.6-3.2 2-6.4 2.6-9.1 2.3-10.7 4.4-20.2 7-30q4.5-17.8 6.4-27.5 7-36 13.3-70.2 6-32.2 10.2-71c3.3-29.8 8.5-59.8 10-93l.8-19.5q.4-16.7-1-41.8-2-33.9-12.2-62.9-2.3-6.7-4.8-10a44 44 0 0 0-22.6-15.7q-6.4-1.5-13.5-1.2c-24 1-48.7 1.8-72.5-1.8q-21.6-3.2-31.7-5.5a418 418 0 0 1-62.8-19.2q-17-6.8-25.9-11.3c-15.2-7.7-21.8-10.6-33.6-17.8q-5.9-3.5-16.3-9-6.7-3.6-13.5-10-2.3-2.1-4-5" vector-effect="non-scaling-stroke"/><path stroke="#8c3a39" d="M161.2 733.3q2 10.3 5.1 20.4c3 10.1 4.6 19.6 8.6 28.4a.5.5 0 0 0 .8.2c8.1-8.6 14.2-18.1 22.2-26.8 14.8-16 31.5-31.3 50.1-43a348 348 0 0 1 38.4-21.2l22.3-10.9q14.4-7 21-11.1 11.7-7.1 19.8-13.3c8.8-6.7 15.8-11.5 22.8-17.7q13.8-12.3 29-27.7c6.8-6.8 13.4-15 19.7-22q8.5-9.9 13.8-17.2 14.6-20 20.6-29.2 18.1-27.6 34.6-64.4 11.2-25 18.4-52.1 3.5-12.8 3.9-23c.7-16-4-35.3-14.3-47.5l-.1-.3v-.1l-.4-.6q-1-.3-1.4-1.5a.8.7 13.6 0 0-.2-.4q-.8-.5-8-6.4-3-2.4-8.5-5.2-9.8-5-20.5-9.3-9-3.7-18-5.5" vector-effect="non-scaling-stroke"/><path stroke="#a15e58" d="M441 326q-4.3-1.8-8.5-2.2l-25.2-2.7q-16-1.6-39.4 1.6-35 4.8-67.5 20C250.6 365.9 210 409.4 184 458.1q-8.3 15.7-14.6 30.1-10.4 23.8-15.9 48.9-3.5 16.4-4.7 25-5.4 39-3 78c.9 13 2.7 27 4 37.9q1.5 12.9 6.1 34.7 2.2 10.4 5.2 20.6" vector-effect="non-scaling-stroke"/><path stroke="#e86956" d="M441 326q-11-.6-21.6 2.4-17 4.8-30.6 9.7" vector-effect="non-scaling-stroke"/><path stroke="#fd7a65" d="M388.8 338.1q-9.6 0-19.2 3.2-26.2 9-51.8 22.3-49 25.5-84.4 68.8c-14.7 18-28.2 37-39.2 57.6q-5.3 10-15 31.5" vector-effect="non-scaling-stroke"/><path stroke="#e86956" d="M179.1 521.5q-13 30.5-18.2 61Q151.7 637 158 694q2.1 19.4 4.5 38.8 0 .8-1.3.5" vector-effect="non-scaling-stroke"/><path stroke="#e95646" d="m179.1 521.5 1-1a.5.5 0 0 1 .8.5q-1.4 7-2 13-2 25-3 49c-1 24.5-.4 48-.6 78l.2.5a.2.2 37 0 0 .4 0q.5-15.2 5.8-37.3 6.4-27 9.6-38.2 4-14 7.4-23c3.8-10.3 9-23.6 14-34q16.8-34.8 41.7-63.5a.4.4 0 0 1 .7.5q-16.3 27.8-26.9 57.5c-3.7 10.3-5.4 17.5-9.7 27.9q-2.3 5.4-5.1 15.2a520 520 0 0 0-14.2 58.5c-2.5 14.9-4.1 28.5-6 42.6q-1.4 11-1.7 16.6c-.4 7.9-1.6 23.8-1.8 35q-.1 10.5-.7 23.8a.4.4 0 0 0 .7.4l.4-.6q5-8.9 9.8-15.7l5-7.6c6-9.9 14.3-21.6 17.2-26q6-8.7 12.8-17.8 22.1-29.3 46.5-56l22-24.1c8.6-9.4 19.2-19.8 28-28.8 10.9-11 26-27.8 37.9-38.6l.6-.4a.3.3 0 0 1 .3.4q-2.2 4.2-5.3 9.3L345 566.8a753 753 0 0 1-48.2 61c-5 5.8-9.8 12.6-14.4 18.2-6.1 7.5-12.2 16.5-17.4 23.4a.3.3 0 0 0 .4.4q23.4-12.2 46.5-27.8 20.5-13.8 27.6-18.9 3-2 18.2-14.6c17.3-14.2 33-30.8 46.9-47.8q7.5-9.2 15.3-21.2 11.3-17.2 19.5-31.3 5.6-9.8 18.6-34.4v-.2l-.2-.2a.4.4 0 0 0-.6 0q-12.7 16.7-25.7 29.2-6.3 6-17.1 15.5c-4.3 3.8-8.8 7.3-12.4 10.2h-.5l-.1-.8q3.4-4 7.3-9.4 15.4-21.3 24.8-35.2 21.3-31.6 35.7-63.6A109 109 0 0 0 481 366a31 31 0 0 0-13.5-23.1c-4-3-11-2.8-15.6-2.4q-16.3 1.4-29.7 4.6-12.2 3-28.7 8.8-35.7 12.8-66.7 33.6-18.8 12.6-36.2 27.5-1.6 1.4-6.5 6.4h-.7v-.5c19.5-29 47.9-51.4 78-69.1q5.2-3 13.7-7l13.8-6.7" vector-effect="non-scaling-stroke"/><path stroke="#fd7a65" d="M1280.7 380.9a.4.4 0 0 0-.2.7q19.7 9.8 37.5 22.8 23 16.8 31.3 23.5c18.7 15 38.3 37.3 54.1 56.7q6.7 8.2 14.3 21.5 12.1 21.2 22.3 42.2l1.3 2.3a.4.4 0 0 0 .8-.3q-3.8-24.3-13.5-47-1.7-4-2.8-6c-2.6-5.1-4.5-10-7.3-15q-7.5-13.3-11.5-19.8-3-4.6-10.1-13.8l-.8-.7q-1-.5-1.3-1.6a2.2 2 18.6 0 0-.5-1 255 255 0 0 0-36.9-33q-12.5-9.6-27.1-16a248 248 0 0 0-49.6-15.5m138.7 227.8a.5.5 85 0 0 .7-.8q-1.7-1.7-2.8-3.4a313 313 0 0 0-39.7-46 714 714 0 0 1-46.4-47.7c-4.8-5.5-10-10.5-15.2-16.1-5.5-6.1-12-13-17.3-19.6q-8.4-10.2-12.3-14.6a2.2 2.1-5.2 0 0-.6-.4q-2-1.2-2.6-3.1l-.4-.6-11-12.1a.4.4 0 0 0-.6.2q-.1 1.1.5 2.6l7.2 17.5q4.3 9.3 6.8 13 5.3 8 14.3 19.6l17 21.5q8.1 9.8 21.3 22 31.7 29.5 55.9 49.2 13.5 11 25.2 18.8M405 381.6a.3.3 0 0 0-.3-.5q-17.3 4-36.5 10.6-12 4-23.4 10.8-23.3 13.8-41.8 31.9-8 7.7-15.2 17.4-7 9.3-13.1 19.1a241 241 0 0 0-12.7 22.5q-12.6 27.4-18.1 57.2a.3.3 0 0 0 .6.2q1.4-1.9 2.2-3.6c10-20.3 21.2-41.2 34.4-60.2l2.9-4c2.8-3.2 4.7-6.1 7.8-9.7q19.3-22 40.7-41.4 8-7.2 18.2-14.5l21.6-15.4a229 229 0 0 1 31-19.2q1-.5 1.7-1.2m10.4 62.2a.5.5 0 0 0-.8-.3c-4.8 6.7-10.8 13-15.7 19-4.5 5.8-7.9 9-12.7 15q-2.2 2.8-5.5 6.4-19 20.3-24.4 26.4a672 672 0 0 1-41.9 43.1q-25.3 24.1-44.6 51a14.9 14.1-5.6 0 1-1.7 2l-3 2.9v.7l.3.3h.7q36.8-27 68.7-57l23.1-22.2c3-2.9 5.6-5.9 7.7-8.1 5.1-5.6 10.2-12.8 14.5-17.7 2.9-3.3 4.6-6.5 7.3-9.4 3.3-3.7 6-8.3 9.2-12.6q1.4-2 3.5-5.8 9.6-17.1 14.9-31.8.4-1.2.4-1.9" vector-effect="non-scaling-stroke"/><path stroke="#515972" d="M887.1 962a.3.3-29.5 0 0-.1.5q7.2 4 15.3 6.7 21.7 7.5 33.6 11.8c13.6 5 24.6 11 38 17.7q9 4.4 27.6 16.8 5.8 3.9 7.9 5.5c6.4 5.1 12.5 9 18.8 14.4q14.7 12.5 22.8 19.8 3.2 3 6.6 5.6a1 1 25.7 0 0 1.5-.6l.1-.4v-.5q-3.1-10.4-9.2-20.3-15.5-25-39.3-41.6-20.5-14.3-52.3-23.6-34.6-10.2-71.3-11.9m-88.3.1q-36.6 1.7-71.2 11.8-31.6 9.3-52.1 23.6-23.8 16.6-39.2 41.4-6.1 9.9-9.3 20.2v.6l.1.4a1 1 0 0 0 1.6.5q3.3-2.6 6.5-5.5 8.1-7.3 22.8-19.8c6.3-5.3 12.4-9.2 18.8-14.3q2-1.6 7.9-5.5 18.6-12.4 27.5-16.8c13.3-6.5 24.3-12.6 37.9-17.6q11.8-4.3 33.6-11.7 8-2.8 15.2-6.6a.3.3 0 0 0-.1-.7m44.2 418.1q.4 0 .6-.6a135 135 0 0 0 4.4-23.7q1.3-9 2.2-18.7 5.3-54.8 6-115.7.5-34.4-2-76.2c-2.4-42-4.5-73-8.1-107.4q-.7-6.9-2.3-13.2 0-.5-.5-.5t-.6.5q-1.5 6.3-2.2 13.2c-3.7 34.4-5.8 65.5-8.3 107.4q-2.5 41.8-2.1 76.2.7 61 5.9 115.7.9 9.7 2.1 18.7c1.6 11.2 2.4 17.5 4.4 23.7q.3.6.6.6" vector-effect="non-scaling-stroke"/></g><g fill="#6d7894"><path d="M707 235.6q-5.2-20.7-11.6-41.8c-3.4-11.4-6.9-30.9-10.3-44.9q-2.6-10.5-4.3-18.2c-.8-3.6-2.2-7.4-3.4-11.2l1-24a1 1 0 0 1 .9-.9H725a2 2 85.7 0 1 1.9 1.6q1 6.8 2.2 12c2.6 10.7 4 20 6.5 30.6q1.7 7.3 3.8 18.5c3.5 18.5 9 38 13 55.6q5 21.2 10.8 42.1 14.6 51.4 23.1 76.6l14.9 44c5.6 17 12.4 33.2 18.2 49.2q1.7 5 2.7 6.9l3 6.7a.6.6-76.5 0 1-1 .6q-15-18.3-35.2-31.2c-8-5.2-19.1-9-29.3-12.1a3 3 0 0 1-2-2.3q-3.5-19-8.5-36.2-15.4-52.3-19.3-62.9-9.5-25.8-18.8-50.4-2-5-4.1-8.3m301.8-129.1-.6 13.8q-.1 2.5-1.5 5-.6 1-1.2 4.9c-1.2 6.7-3.5 13.2-5 20.4l-1.6 9-6 26.3q-2.3 10.3-5.5 20.5L983 221q-2.4 8.3-5.8 16.3l-14 38.4q-9.8 26.5-13.4 38.5-5.4 17.7-12.4 42-2.4 8.3-4.8 18.8l-4.2 19a2 2 0 0 1-1.4 1.5q-9.5 3.5-13 4.6a87 87 0 0 0-26.4 14.4q-12.6 10-15.2 13l-11 12.4a.5.5 0 0 1-1-.6c2.5-6.7 6.3-13.2 8.8-19.8L880 391c2.2-5.6 3.9-12.4 5.6-17.4q16.6-47.2 26.9-82c9-30.2 16.4-60 24.4-92.6 6.3-25.6 10.1-45.9 15.8-71.2l6.8-31.9a1.3 1.3 5.6 0 1 1.3-1h46.6a1 1 0 0 1 1 .9zm219.1 199.6q-14.3 4.3-22.8 9.1-17.2 9.7-35.4 19.6-2.5 1.3-7 2.8-17.8 5.7-30.1 9.1-3.6 1-7.2 1.2a7.9 7.7 49.3 0 1-2.2-.2q-4.2-1-10.5-4.3a112 112 0 0 1-38.2-30.3c-6-7.8-12.2-16.9-16.8-26.6a217 217 0 0 1-15.2-45.6c-4.4-19.5-8-34.2-9.8-51.8q11.2 14.7 24 23.7 14.5 10.1 22.7 14.1c23.1 11.4 44 21.1 70.8 34q19.6 9.5 45.8 25.3 3.3 2 11.2 7.3l11 7.3q5.6 3.7 9.7 5.3M653.7 190c-1.3 14.4-3.5 22.5-7.6 42q-3.9 18.5-6.5 26.4-7.1 21.2-14.4 35-6.7 12.6-17.8 25c-12 13.5-27 22.7-43.1 29.2-3.2 1.3-7.6 0-11.2-1q-11.7-3.2-29.2-9.2-2.4-.7-6-2.5-14.8-7.4-38.9-21-6.6-3.6-20.5-7.7 8-3.9 14.4-8.3 18.9-13.4 30.7-19.8 33-18 63.2-31.8 10.8-5 13.1-6.2c8-4 14.8-6.6 22.9-10.4q4.7-2.3 9-5.4c5.8-4.2 13.7-8.4 20.1-13.6q9.6-8 16.2-15 3.9-4.3 5.6-5.8m230.6 121.9q-5.7 19-7.6 24.2l-10 28.7c-4.4 13.3-9.4 24.9-13.7 39.2q-4 13.5-8.4 25.2l-.9 1.8a.5.5 0 0 1-.8 0l-19.7-56c-3.5-9.5-5.4-16.6-8.7-25.4-4-10.4-8-24.3-12.1-36.4q0-.7.5-1l.6-.1.8.3h1q2.6-.6 4.5-1.4c3.4-1.4 3.4-5.6 3-8.8q-1.7-15.5-5-33.6-5.2-26.9-5.7-48.5l-.6-22.3.6-.6q1.7 0 2.5.4 8 3 14 5 10.7 3.7 24.1 3.7 19.4 0 37.6-8.9 1-.5 3.1-.7a1 1 0 0 1 1 1l-.8 27.1q-.3 9.8-1.1 16c-1 7.1-1.4 14.6-2.7 21.7-2 10.6-3.3 21.2-5.2 31.7-1 5-1 9.2-1.2 13.8a2.5 2.4 34.9 0 0 .2 1q.6 1.4 2.6 2.5l.7.2zm268.5 66q-4 15.2-3 30.6-1.6 5-1.5 10.3.3 10.5 1.2 21.6t5.6 36.7q2.8 15 6.6 26.1 5.1 15 8.8 25.2c5.4 14.8 14.2 32 23 48.2q13.3 24.5 31.2 47.8l14.6 19.2q3 4.2 20.4 23 4 4.4 3.4 9.7-.7 5.7-2 9-7.1 16.8-17.3 32c-4.3 6.3-9.9 14.8-15.4 21.2q-10 11.8-19.7 21.3-9.8 9.6-22.3 18.5Q1170 790 1155 798q-39.8 20.9-85.7 24.8-52 4.3-107.2-8.2-20.2-4.5-45.4-12.6-13.1-4.2-21.7-7.6-20.2-8-21.5-8.4-3.8-1.6-6.2-2.2a2 1 24.9 0 1-.3 0l-6.5-3q-4.4-16.7-4.8-32.8l-1.3-78.8c-.6-42.3-.1-81.9 0-124.7 0-6.3.3-15.3.3-23l.5 1.6a.4.4-45.5 0 0 .8 0l4.8-13.8c3-8.3 7.6-15.4 13.4-22.8l11.5-14.3q2.3-2.8 10.4-10.4 4.7-4.4 11.7-9 10-6.6 14.3-9c9.8-5.3 19.7-8.4 33.2-12.4q7-2 16.4-4.1c22.3-5 37-7.8 56.6-12.8q23-5.8 45.7-11.9 23.2-6.2 54-16.3l12.3-4.5q6.1-2.3 12.5-4M831.5 521.4l.1 7.4.5 87.9c.2 35.8-.6 70-1 105.3q-.3 24.5-1.6 40-.6 8.2-3.9 17.4c-8.8 4.2-16.4 9-26.1 11.9-7 2-16.3 6.5-24.1 9.1q-26.5 8.8-53.4 14.8-34.4 7.7-69.5 8.5-25.2.7-47-2.3-53.3-7.3-98.2-38-13.1-9-18-13-38.5-32.1-60.8-77.2c-3.3-6.7-8-19.3-2.7-25.4q22-24.7 33-39.5 11.6-15.5 20.5-29.4 29.4-46.1 46-98.5l1.9-6.8c1.3-6 2.9-10.7 4-17q5.7-29.7 6.7-54.2.3-8-1.3-18.7.6-12-2.3-24.6 2.5 0 5 .8 17.8 6 41.4 13.6 17.8 5.7 34.3 9.8c20.6 5 42 11.6 67.3 16.8q33 6.8 52.1 12c12.1 3.4 24.5 8.2 36.1 15.4q11.9 7.3 13 8.3 12.5 10.9 16.7 15.7l9.4 11c7.3 8.6 13 18.4 16.1 28.6q.5 1.7 3 8.2.9 3.1 1.4 5.7a.5.5 0 0 0 1 0zm669.3 293.4q11.2 20 17.8 37.1 13.8 36 22.8 71.1c5.1 19.9 9.7 38.3 13.3 59.5q3.6 20.9 5.5 33.3 4.2 27.7 6.2 58a.4.4 0 0 0 .4.4h.2l.2-.2q1.6-28.7 1.6-32l-.3-21.8a550 550 0 0 0-7.3-79l-4-23q-3-16.2-4.5-22.9-8.7-37.1-21.7-69.6l-5.2-13q-.7-2.2.9-4.8a125 125 0 0 0 11-25.6q3.8 6.8 7.7 13.3 5.5 9 7.6 13.3 1.8 3.8 6.3 12.2c2.8 5.3 4.7 10.2 7.3 15q2.3 4.2 5.4 11.2c5.8 13 10.3 23 15 35.7 4 10.8 8 20.7 12 32.8q6.7 20.8 11.8 43 1.7 7.2 3.2 15.4 2.3 13 2.6 15.6 4.2 28.3 3.2 64.5-3.6 8.3-9.3 16.7l-12.3 18.2a242 242 0 0 1-32 35.4q-7.2 6.8-19.4 15.5-10.8-7.2-17.8-13-12.9-10.8-21.2-18.9-4.2-4-15-16a375 375 0 0 1-55.1-84.6q-8.6-17.3-18.7-46.4-10-28.7-18.1-63.3-4.4-18.7-6.5-34.4c-4-30.2-7.3-55.4-6.8-81.7q.1-7.5 1.8-18.6c1-5.7 2.5-9.8 9-10.8h1q4.1 1 9.4 3.3c14.2 6.3 24 12.6 39 21.8q7.1 4.4 14.9 10.1 6.6 4.9 17.5 12.6l9.3 7q5.3 3.8 11.3 7.6M140.1 1139.9q-10.4-7.2-18.2-14.3-33.6-30.2-55-71.1.8.4 1.2-.4v-.6q-1.4-2.2-1.5-5.7c-.2-11.9-.3-18.1 1-28.7l1.5-14.8c1-9.7 3.2-24 5.7-36q6.4-29.8 8.4-37.9 3.8-15.1 7.4-24.5 6.8-17.6 9.8-26.1 2.8-7.8 5.6-14.3 5.1-11.5 6-14.1 1.4-3.5 2.9-6.1t2.2-4.4q1.5-4 10-19.2 2.7-4.7 6.8-13.2 1.3-2.6 7-12.5 4.5-7.7 7.6-15.7 2.7 9.4 6.6 19.2c1.5 3.8 4 7.7 5.4 10.8a3 3-54.2 0 1 .2 1.7q-.2 2-1 3.7-6.8 16-12.9 34c-3.3 9.8-5.6 19.6-9 31q-2.3 7.6-4.9 20l-6.7 35.7q-5.5 29.4-7.3 62.8a448 448 0 0 0 .5 71.8q.1 1.3.5 3a.2.2 0 0 0 .4 0q.8-8.4 2.5-31.7c1.4-18 5.6-38.6 7.8-53.4a451 451 0 0 1 9-43.6c3.6-14.4 6.1-27.2 10.5-41.5 5.8-19 12.5-39.9 20.9-59.1q7.6-17.6 10.3-23.2 1.2-2.7 4.8-8 3-1.5 3.9-2.3c6.8-5.4 14.8-10.3 21.1-14.9q12.1-8.9 25.4-17.8 2.4-1.7 19.3-11.7 13.6-8 27.4-13.4 8.2-3.1 12 5c1.8 3.5 2 7.1 2.7 11.6a175 175 0 0 1 .7 34.3q-1.9 30.2-6 58.3-1.5 10.1-4 21.3-7.2 33.4-18 67.8c-3.2 10.2-7 19.3-10.8 29.7q-9 24.7-28 57.4-16.2 28.2-35.7 50.8-24.7 28.7-56 50.3m747.3-286.7q1.7 2.7 4 5 6.8 6.3 13.5 9.9 10.5 5.5 16.3 9c11.8 7.1 18.4 10 33.6 17.8q9 4.5 25.9 11.3a418 418 0 0 0 62.8 19.2q10 2.3 31.7 5.5c23.8 3.6 48.5 2.9 72.5 1.8q7.1-.3 13.5 1.2a44 44 0 0 1 22.6 15.8q2.5 3.2 4.8 10 10.3 29 12.2 62.8 1.4 25 1 41.8l-.8 19.5c-1.5 33.2-6.7 63.2-10 93q-4.3 38.8-10.2 71-6.3 34.2-13.3 70.2-1.9 9.7-6.5 27.5c-2.5 9.8-4.6 19.3-6.9 30-.6 2.7-2 5.9-2.6 9-23.2 7-46.6 12.6-70.5 18.6q-10.2 2.5-15 3.4-19.7 3.6-42.5 8.3a.6.6 0 0 1-.7-.8l6.3-22q21.7-78 23.6-158.5.4-13.4-.4-29-.9-19.7-2.8-41.5-1.2-13.7-3.3-20.8-.2-.7-.5-1a.7.7 0 0 0-1.1.3q-.4 1.4-.6 3.8-.5 4.3-1.4 21l-1.4 21a1372 1372 0 0 1-32.8 209l-4.5 20.9a1.4 1.4.9 0 1-1.2 1.1q-59.8 10.3-119.2 13.9-41 2.4-79 0-61.3-3.7-120.6-14.3a1 1-1.8 0 1-1-.9c-9.6-37.8-17-72.3-23.3-111.4q-13-80.8-17.4-160.7-.1-1.7-.5-3a.6.6 0 0 0-1.1-.1q-1.6 4.4-2.3 9.7-7.7 56-3.6 111.7 2.8 39.6 10.3 78.2 2.6 13.6 6.2 27.9 5 19.4 12 43.6a1 1 0 0 1-.9 1.2q-2.5 0-5-.5c-16.7-3.7-32.9-6.3-48.1-10q-35.4-8.3-69-17.6-2.7-.7-5.2-1.7-2.6-5.9-2.9-7.7-.8-5.4-2.5-12.4-9.1-37.6-12.1-52.6l-9-46.8a1148 1148 0 0 1-11-69.5c-6.2-48.3-10.7-81.2-12.7-122.3q-1.5-29.7 1.3-59.8c1.4-16.5 4.8-33.2 9.6-48.3a43 43 0 0 1 9.3-18.4q4.1-4.1 10.9-8.4 8.6-5.5 19.9-5.2l36.7.5q14.6.1 27.7-1.2 63.6-6.6 122.4-32.7 10-4.4 14.1-6.7 7.4-4 11.9-6.1c10-4.7 16.5-8.5 27.2-15 3-1.9 6.8-3.1 9.4-5.2q6-5 11-8.6l.6-.5 4-5.7q9.6-8.8 18.8-17.8 1.1-1.1 8.1-10c6.2-7.8 11.5-17 15-25.4a.8.8 0 0 1 1.5 0c2.9 6 7 15.4 11.6 22q3.1 4.4 8.9 11.1 10.3 12 22.7 21.6m-.3 108.7a.3.3-29.5 0 0-.1.6q7.2 4 15.3 6.7 21.7 7.5 33.6 11.8c13.6 5 24.6 11 38 17.7q9 4.4 27.6 16.8 5.8 3.9 7.9 5.5c6.4 5.1 12.5 9 18.8 14.4q14.7 12.5 22.8 19.8 3.2 3 6.6 5.6a1 1 25.7 0 0 1.5-.6l.1-.4v-.5q-3.1-10.4-9.2-20.3-15.5-25-39.3-41.6-20.5-14.3-52.3-23.6-34.6-10.2-71.3-11.9m-88.3.1q-36.6 1.7-71.2 11.8-31.6 9.3-52.1 23.6-23.8 16.6-39.2 41.4-6.1 9.9-9.3 20.2v.6l.1.4a1 1 0 0 0 1.6.5q3.3-2.6 6.5-5.5 8.1-7.3 22.8-19.8c6.3-5.3 12.4-9.2 18.8-14.3q2-1.6 7.9-5.5 18.6-12.4 27.5-16.8c13.3-6.5 24.3-12.6 37.9-17.6q11.8-4.3 33.6-11.7 8-2.8 15.2-6.6a.3.3 0 0 0-.1-.7m44.3 418.1q.3 0 .5-.6a135 135 0 0 0 4.4-23.7q1.3-9 2.2-18.7 5.3-54.8 6-115.7.5-34.4-2-76.2c-2.4-42-4.5-73-8.1-107.4q-.7-6.9-2.3-13.2 0-.5-.5-.5t-.6.5q-1.5 6.3-2.2 13.2c-3.7 34.4-5.8 65.5-8.3 107.4q-2.5 41.8-2.1 76.2.7 61 5.9 115.7.9 9.7 2.1 18.7c1.6 11.2 2.4 17.5 4.4 23.7q.3.6.6.6"/></g><path fill="#151723" d="M1665 0v1505H0V0zM363.7 971l1.5 3q4.9 14.8 8 24.7c3.4 11 10.9 24.4 14.6 32.6q2.3 5 9 16.7 8.1 14.5 12.8 22 8.4 14 12 22.4 5.7 13 8.4 26.6c7 35.2 6.3 72.4 1.9 108.3l-4.3 35q-3.5 30-4 61.7 0 10.4 1 23.6.8 8.8 2.5 15.4c2.5 9.1 6 14.7 14.5 18.7a524 524 0 0 0 74.3 28q70.5 21 143.8 33.9c46.1 8 89.5 14.1 133.3 17.1q63.2 4.4 127-1.9 103.5-10.2 206.2-36.5 39.1-10 78-23.5 18.7-6.5 36.8-15a31 31 0 0 0 13.3-9.5c5-7.5 6.8-15.9 7.8-25.4q1-9 1.1-18.4c.3-24.7-2-49.2-5.5-76.5q-3.5-26.8-4.4-34.8a318 318 0 0 1 4.5-105.4q2.3-10 5.3-17.1 4.6-10.9 7.7-16.2 21-35.8 23-39.5 4.3-8.5 14.3-29.7 4-8.4 7.7-19.7 5-15.1 6.4-20.3a.5.5-44.7 0 1 1 0q5.3 21 11.5 40.6c3.8 12.3 8 23 11.8 33.8q4.7 13.2 9.9 25c6.1 14 11.5 28 18.3 42.4q11.7 25.2 25.8 52.4 8 15.2 14 25.2c4.1 6.7 11.3 16.6 19.5 16.8a209 209 0 0 0 101.7-25.3q37.9-19.9 67.8-53.2 21-23.4 38.2-53 10.6-18.2 16.1-38.2 4.5-16.2 3.3-34.8-2.2-34-8.4-67.5-12-65.1-44.5-126-10-18.5-15.1-26.9-6.6-10.7-19.7-30.7c-3-4.5-6.2-10.4-8.5-14.5a45 45 0 0 1-4.6-22.2q0-5.3 2.2-15.3t4.1-25q2.1-17 3.1-29.9 2.9-37.5-1-72-3.2-29.7-13.9-67.5c-3.4-12.1-8.6-25-14-36.3q-9-18.6-15.4-30.9-6.8-13.2-16.4-26.5-14-19.5-26.3-33.2-7.2-8-20.7-20.7-7.5-7-15.8-13-12.9-9.2-16.8-11.8c-33.8-21.7-72.3-33.5-111.2-41q-1-.2-3-1.2-9.3-4.6-16.5-9c-46-28-91-53.5-137.7-75.8q-30.4-14.5-64-29.6-12.2-5.4-23.5-12.2-15.3-9.5-24.5-23.5-5.2-8-7.4-16.8c-3.1-12.8-2.8-21.8-2.9-37 0-10.2-5.1-20.6-17-20-9 .3-20 0-28.9 0h-331q-2.3 0-3.7.7-9.4 4.8-10.3 15.6c-.7 7.4.3 18.2-.7 26.6a77 77 0 0 1-7 25.9q-3.9 7.5-7.9 12-13.5 14.8-32.1 23.9-5.4 2.6-15.6 7.1-22.7 10-78.1 36.9c-23.1 11.2-48 25.3-67.6 36.2q-21.3 11.8-34.9 20.6-6.3 4.1-10.7 6.4-4.7 2.4-10.7 6.4a51 51 0 0 1-13.6 6.6q-7.4 1.7-16.5 3.5c-13.6 2.7-28 7.7-38.6 11.1-28.8 9.3-55.7 24-79.1 42.7a300 300 0 0 0-53.5 57.2A359 359 0 0 0 119.3 558q-3.4 21.6-3.8 44-.4 26.4 1.3 44.3c1.6 18 4 38.1 8.2 57.7a52 52 0 0 1-4.6 35.6q-6 10.4-8 13.4A790 790 0 0 0 81 804.4q-8 14.4-10.3 19.3-4.2 8.8-10.4 22.9-5.5 12.5-9.3 23.3-20.8 59.3-25.4 123.8c-1 14-1.3 27.4 1.8 40 2.3 8.7 5.7 18.7 10.1 27.6q20.5 41.4 52 74.5 14 14.6 29.3 25.8 17 12.6 33 21.1 38.9 21 87.8 24.4c4.3.3 10 .8 14.4 0 8.8-1.3 15-10 19-17.2q19.2-35.1 38.3-75.1c7.2-15.3 12.1-27.5 18.3-41.6 7-16 11.4-28.8 18.1-48.2q9.4-26.9 15.4-54a.3.3 0 0 1 .6 0"/><g fill="#fe6755"><path d="M1507 521.9h-.6a.5.5 0 0 0-.5.6q4 33.6 4.6 45.3 2.2 42.8.8 90.8l-.2.2-.3-.2q-1.8-17.8-6.4-37.3-6.7-28-14.4-51.8a306 306 0 0 0-54.6-101.1q-1.5-1.7-3.3-3a.4.4 0 0 0-.6.5q3.5 6.2 11.5 21.5c4.2 8.2 7 16.3 10.9 25q2.6 5.9 11.9 34.9a5.7 5.6 21 0 0 .4 1q1.3 2.2 2 4 4 9.2 8.2 25.1 2 8 3.2 11.9c3.2 10.2 5 20.4 7 31q1.6 8 3.1 19.1 4.8 36.1 6.7 68.6.4 7 .5 17 0 9.4.4 17.2l-.1.3a.6.6 0 0 1-1-.1q-3.6-6.8-7.6-12.8-25-38-36.4-53.3c-19.3-26-37.9-47-63.1-74.2q-32.6-35-71-73-1-1-1.7-1.3a.4.4 0 0 0-.5.5q16.4 26.1 34 50 15.3 20.8 40 50l6.3 7.8c3 4 5.2 7.2 8 10.6q7.4 9 16.1 20.8c1 1.2 2.4 2.4 3 3.5a.3.3 0 0 1-.4.4c-11-7-22.9-13.3-34.7-20.8q-24-15.4-38-25.4-15.6-11.2-32.9-26.6c-6.3-5.7-11.2-11.1-17.8-17.8q-3-3.1-8-8.8c-25.5-29.2-45.1-63.2-62.7-97.5a.2.2 0 0 1 .3-.2c8.6 10.2 15 18.1 23.9 26.2q16 14.4 29 25.8 1.4 1.3 2.7 1.7a.6.6-10.2 0 0 .7-1 391 391 0 0 1-15.4-19.8q-15.4-21.6-26.3-38.4-7-11-17.3-30-10-18.7-16.6-39.4a81 81 0 0 1-3.6-36 34 34 0 0 1 11.8-20.7c4.4-3.8 10.4-2.3 18.2-1.9 13.9.9 27.2 3.6 41.6 8q54.4 16.8 97.9 49.6a172 172 0 0 1 26.8 23.2q.5.6 1 .6a.4.4-12.2 0 0 .4-.6q-.8-2-2.8-4.7-10.8-15-25.1-28.2-25.5-23.6-55.1-39.4c-7.5-4-16.5-7.7-24.7-11.7q2.5-.2 5 .3 8.7 1.6 15.4 3.8 27.2 9 52.5 22.1 24.9 13 45 29.5 21.1 17.3 38.3 37.8 21.2 25.3 37.8 54.7c4 7 7 13.9 11.5 23q3 6.4 5.2 13m-226.3-141a.4.4 0 0 0-.2.7q19.7 9.8 37.5 22.8 23 16.8 31.3 23.5c18.7 15 38.3 37.3 54.1 56.7q6.7 8.2 14.3 21.5 12.1 21.2 22.3 42.2l1.3 2.3a.4.4 0 0 0 .8-.3q-3.8-24.3-13.5-47-1.7-4-2.8-6c-2.6-5.1-4.5-10-7.3-15q-7.5-13.3-11.5-19.8-3-4.6-10.1-13.8l-.8-.7q-1-.5-1.3-1.6a2.2 2 18.6 0 0-.5-1 255 255 0 0 0-36.9-33q-12.5-9.6-27.1-16a248 248 0 0 0-49.6-15.5m138.7 227.8a.5.5 85 0 0 .7-.8q-1.7-1.7-2.8-3.4a313 313 0 0 0-39.7-46 714 714 0 0 1-46.4-47.7c-4.8-5.5-10-10.5-15.2-16.1-5.5-6.1-12-13-17.3-19.6q-8.4-10.2-12.3-14.6a2.2 2.1-5.2 0 0-.6-.4q-2-1.2-2.6-3.1l-.4-.6-11-12.1a.4.4 0 0 0-.6.2q-.1 1.1.5 2.6l7.2 17.5q4.3 9.3 6.8 13 5.3 8 14.3 19.6l17 21.5q8.1 9.8 21.3 22 31.7 29.5 55.9 49.2 13.5 11 25.2 18.8M388.8 338.1l-13.8 6.6q-8.5 4-13.6 7c-30.2 17.8-58.6 40.1-78.2 69.2a.4.4 36.8 0 0 .1.6h.7l6.5-6.5q17.4-14.9 36.2-27.5 31-20.9 66.7-33.6 16.5-5.9 28.7-8.8 13.4-3.2 29.6-4.6c4.8-.4 11.6-.6 15.7 2.4a31 31 0 0 1 13.5 23.1 109 109 0 0 1-11.6 53.3q-14.4 32-35.7 63.6-9.4 13.9-24.8 35.2-3.9 5.3-7.3 9.4v.8a.4.4-41.9 0 0 .6 0l12.4-10.2q10.8-9.6 17-15.5 13.1-12.5 25.8-29.1a.4.4 0 0 1 .6 0l.2.1v.2q-13 24.6-18.6 34.4-8.2 14.1-19.5 31.3-7.8 12-15.3 21.2a340 340 0 0 1-46.9 47.8q-15.2 12.5-18.2 14.6-7.1 5-27.6 18.9-23.1 15.6-46.5 27.8a.3.3 0 0 1-.4-.4c5.2-6.9 11.3-16 17.4-23.4 4.6-5.6 9.4-12.4 14.4-18.3a753 753 0 0 0 48.2-60.9l19.8-29.2c2.2-3.2 3.7-6.6 5.3-9.3a.3.3 0 0 0-.3-.4q-.2 0-.6.4c-12 10.8-27 27.5-37.9 38.6-8.8 9-19.4 19.4-28 28.8l-22 24.2q-24.4 26.6-46.5 55.9-6.9 9.1-12.8 17.9c-3 4.3-11.3 16-17.2 25.9l-5 7.6q-4.7 6.8-9.8 15.7l-.4.6a.4.4 0 0 1-.7-.4q.6-13.3.7-23.8c.2-11.2 1.4-27.1 1.8-35q.3-5.7 1.7-16.5c1.9-14.2 3.5-27.8 6-42.7a520 520 0 0 1 14.2-58.5q2.8-9.9 5-15.2c4.4-10.4 6.1-17.6 9.8-28q10.6-29.6 26.9-57.4a.4.4 0 0 0-.7-.5q-24.9 28.7-41.7 63.5c-5 10.4-10.2 23.7-14 34q-3.3 9-7.4 23-3.2 11.2-9.7 38.2-5.2 22-5.7 37.3a.2.2 37 0 1-.4 0l-.2-.5c.2-30-.4-53.5.6-78q1-24 3-49 .6-6 2-13a.5.5 0 0 0-.9-.4l-.9 1q9.8-21.7 15.1-31.6c11-20.5 24.5-39.6 39.2-57.6q35.5-43.3 84.4-68.8 25.6-13.4 51.8-22.3 9.6-3.3 19.2-3.2m16.2 43.5a.3.3 0 0 0-.3-.5q-17.3 4-36.5 10.6-12 4-23.4 10.8-23.3 13.8-41.8 31.9-8 7.7-15.2 17.4-7 9.3-13.1 19.1a241 241 0 0 0-12.7 22.5q-12.6 27.4-18.1 57.2a.3.3 0 0 0 .6.2q1.4-1.9 2.2-3.6c10-20.3 21.2-41.2 34.4-60.2l2.9-4c2.8-3.2 4.7-6.1 7.8-9.7q19.3-22 40.7-41.4 8-7.2 18.2-14.5l21.6-15.4a229 229 0 0 1 31-19.2q1-.5 1.7-1.2m10.4 62.2a.5.5 0 0 0-.8-.3c-4.8 6.7-10.8 13-15.7 19-4.5 5.8-7.9 9-12.7 15q-2.2 2.8-5.5 6.4-19 20.3-24.4 26.4a672 672 0 0 1-41.9 43.1q-25.3 24.1-44.6 51a14.9 14.1-5.6 0 1-1.7 2l-3 2.9v.7l.3.3h.7q36.8-27 68.7-57l23.1-22.2c3-2.9 5.6-5.9 7.7-8.1 5.1-5.6 10.2-12.8 14.5-17.7 2.9-3.3 4.6-6.5 7.3-9.4 3.3-3.7 6-8.3 9.2-12.6q1.4-2 3.5-5.8 9.6-17.1 14.9-31.8.4-1.2.4-1.9"/></g><g fill="#353950"><path d="M363.7 971a.3.3 0 0 0-.6 0q-6 27.1-15.4 54c-6.6 19.4-11 32.2-18 48.2-6.3 14-11.2 26.3-18.4 41.6q-19 40-38.4 75.1c-4 7.2-10.1 15.9-19 17.3-4.3.6-10 .1-14.3-.1q-49-3.4-87.9-24.4-15.9-8.5-32.9-21-15.3-11.3-29.2-26-31.6-33-52-74.4a137 137 0 0 1-10.2-27.7 128 128 0 0 1-1.8-39.9Q30.2 929.1 51 870q3.8-10.8 9.3-23.3 6.2-14.1 10.4-22.9 2.3-4.9 10.3-19.4a790 790 0 0 1 31.5-51.3q1.9-3 7.9-13.4c6-10.5 7-23.9 4.6-35.6a518 518 0 0 1-8.2-57.7q-1.7-17.9-1.3-44.4.4-22.3 3.8-44a359 359 0 0 1 61.8-151.6 300 300 0 0 1 53.6-57.1 251 251 0 0 1 79-42.7c10.7-3.4 25-8.4 38.7-11.1q9.1-1.8 16.5-3.5c3.8-1 9.5-4 13.6-6.6q6-4 10.7-6.4 4.4-2.2 10.7-6.4 13.6-8.8 35-20.7c19.5-10.8 44.4-25 67.5-36.1q55.4-26.8 78.1-36.9 10.2-4.5 15.6-7.1c12.5-6.2 23-13.9 32.1-24q4-4.4 8-12a77 77 0 0 0 7-25.8c1-8.5 0-19.2.6-26.6q.9-10.8 10.3-15.6 1.4-.7 3.7-.7h331c8.9 0 20 .3 29 0 11.8-.6 16.9 9.8 17 20 0 15.2-.3 24.2 2.8 37q2.2 8.8 7.4 16.8 9.2 14 24.5 23.5 11.2 6.8 23.6 12.2 33.5 15 63.9 29.6c46.7 22.3 91.8 47.8 137.7 75.8q7.2 4.4 16.4 9 2.1 1 3.2 1.2c38.8 7.5 77.3 19.3 111 41q4 2.6 16.9 11.8 8.3 6 15.8 13 13.5 12.6 20.7 20.7 12.3 13.7 26.3 33.2 9.6 13.3 16.4 26.5 6.4 12.3 15.3 31a234 234 0 0 1 14.1 36.2q10.7 37.8 14 67.5 3.8 34.5 1 72-1 12.9-3.2 29.8-1.9 15.1-4 25-2.3 10.1-2.3 15.4c0 7.9 1 15.5 4.6 22.2 2.3 4 5.5 10 8.5 14.5q13 20 19.7 30.7 5.2 8.4 15 27 32.7 60.8 44.6 126 6.2 33.4 8.4 67.4 1.2 18.6-3.3 34.8-5.5 20-16.1 38.2-17.3 29.6-38.2 53-30 33.3-67.8 53.2a209 209 0 0 1-101.7 25.3c-8.2-.2-15.4-10-19.5-16.8q-6-10-14-25.2-14-27.2-25.8-52.4c-6.8-14.4-12.2-28.4-18.3-42.4q-5.2-11.8-9.9-25c-3.8-10.9-8-21.5-11.8-33.8q-6.2-19.7-11.6-40.6a.5.5-44.7 0 0-1 0q-1.4 5.2-6.3 20.3-3.7 11.3-7.7 19.7-10 21.2-14.3 29.7-2 3.7-23 39.5-3.1 5.3-7.7 16.2-3 7.1-5.3 17c-8 34.4-8.2 70.4-4.5 105.5l4.4 34.8c3.5 27.3 5.8 51.8 5.5 76.5q0 9.3-1 18.4c-1 9.5-2.8 18-7.9 25.4-3 4.5-8.5 7.3-13.2 9.5q-18.2 8.5-36.8 15-39 13.5-78.1 23.5-102.7 26.3-206.2 36.5-63.8 6.3-127 2c-43.8-3.1-87.2-9.1-133.3-17.2q-73.3-12.9-143.8-34c-26.5-7.9-50-16.4-74.3-28-8.5-3.9-12-9.5-14.5-18.6q-1.7-6.6-2.5-15.4-1-13.2-1-23.6.5-31.8 4-61.7l4.3-35c4.4-36 5-73-2-108.3q-2.6-13.5-8.2-26.6-3.7-8.5-12.1-22.4-4.7-7.5-12.8-22-6.7-11.8-9-16.7c-3.7-8.2-11.2-21.6-14.6-32.6q-3.1-10-8-24.7-.4-1.2-1.5-3m313.7-851.5q-1.2 38-2 48.8-1.9 25.7-7.5 58.4-1.6 9.9-3.8 17.5c-2.6 9.6-4.5 18-7.6 27a231 231 0 0 1-26.3 51.3c-8.9 12.6-22 23.5-36.4 32.7a.6.6 37.7 0 0 .1 1.1q3.8 1.2 8.4 2.3a2898 2898 0 0 0 55.7 13.2q27.5 6.1 50.9 12.4l22.5 5.8a.4.4 0 0 0 .5-.4q-1.5-8-6.6-37.9c-2.6-15.2-4.4-30.3-7.1-45.8q-6.2-35-11.2-70.4 2.1 3.2 4 8.3 9.4 24.6 19 50.4 3.8 10.6 19.2 62.9 5 17.1 8.4 36.2a3 3 0 0 0 2 2.3 124 124 0 0 1 29.4 12q20.2 13 35.2 31.3a.6.6-76.5 0 0 1-.6l-3-6.7q-1-2-2.7-6.9c-5.8-16-12.6-32.2-18.2-49.3l-14.9-43.9q-8.5-25.2-23.1-76.6c-4-13.7-7.5-28.1-10.8-42-4-17.6-9.5-37.2-13-55.7q-2.1-11.2-3.8-18.5c-2.5-10.5-4-20-6.5-30.6q-1.2-5.2-2.2-12a2 2 85.7 0 0-1.9-1.6h-45.8a1 1 0 0 0-1 .9zm125 193.6c4 12 8.1 26 12.1 36.4 3.4 8.8 5.2 15.9 8.7 25.4l19.7 56a.5.5 0 0 0 .8 0l.9-1.8q4.4-11.7 8.4-25.2c4.3-14.3 9.3-25.9 13.7-39.2q2.6-7.8 10-28.7 1.8-5.2 7.6-24.2c5.4-16.2 11.2-33 15.2-48.7 4.5-17.2 9.4-30.4 13.2-47.5q2.3-10.5 9.5-39 5.6-22 13.7-64.4 1.4-7 2.7-16a1.2 1.2-85.8 0 0-1.2-1.4H749.2a1 1 0 0 0-1 1.2q6.2 41.8 16.7 84.6 3.9 16 7.4 31.2l2 8.3q8.9 30.5 11.5 40c4.8 17.2 11 35.3 16.6 53m174.8-75.7.7-.3a.5.5-86.4 0 1 .5.6q0 4.5-.6 8.3c-7.6 46.3-11.6 70.2-16 99.8q-3.1 20.2-7.7 42.8a1 1 0 0 0 1.1 1.1c11.3-3.1 20.2-4.8 30.9-8 9.2-2.8 21-4.8 31-7.3l17.1-3.6q7.1-1.5 21.5-5.3c10.4-2.7 25.4-5.4 36.4-9a.8.8 0 0 0 .4-1.3q-1.4-1.4-3.8-3.1-9.3-6.6-15.7-11.7a88 88 0 0 1-16-16.7l-7.2-11q-4-6-6.6-11.2-7.7-15.3-11.1-24-4.6-11.4-9.6-31-3.7-14.1-6.4-31.8-5.5-36.3-6.5-72l-1-36.2-.2-10.8a1 1 0 0 0-1-1h-46.6a1.3 1.3 5.6 0 0-1.3 1.1l-6.8 31.9c-5.7 25.3-9.5 45.6-15.8 71.2-8 32.5-15.5 62.4-24.4 92.6q-10.3 34.8-26.9 82c-1.7 5-3.4 11.8-5.6 17.4l-10.8 28.7c-2.5 6.6-6.3 13-8.7 19.8a.5.5 0 0 0 .9.6l11-12.4q2.6-3 15.2-13 11.4-9.1 26.4-14.4 3.5-1.1 13-4.6a2 2 0 0 0 1.4-1.6l4.2-19q2.4-10.4 4.8-18.8 7-24.2 12.4-42 3.6-11.9 13.5-38.4zm-518.7 68.8q14 4 20.5 7.8 24.1 13.5 39 20.9 3.5 1.8 5.9 2.6 17.5 5.9 29.2 9c3.6 1 8 2.4 11.2 1a113 113 0 0 0 43-29q11.2-12.5 17.9-25.2 7.3-13.7 14.4-35 2.6-7.8 6.5-26.4c4.1-19.4 6.3-27.5 7.6-42l2.7-26a.4.4-25.3 0 0-.7-.3q-5.5 8.5-13.7 15.6c-3.8 3.3-6.8 5.1-11.7 8.6q-4.1 3-9.2 5.7-8.4 4.5-13.7 7L569 218.1c-3.4 1.6-7.2 3.8-10.6 5.4Q526.7 238 505 249.3q-22.1 11.4-55.1 30c-10.4 5.8-19.9 12.9-30.7 18.3a.5.5 0 0 0 .2.9q19.4.8 39 7.7M1032.6 189c1.7 17.6 5.4 32.3 9.8 51.8 3.5 15.8 8.3 31.1 15.2 45.6 4.6 9.7 10.9 18.8 16.8 26.6 10 13.1 23.3 22.5 38.2 30.3q6.3 3.4 10.5 4.3a7.9 7.7 49.3 0 0 2.2.2q3.6-.2 7.2-1.2 12.3-3.4 30.1-9.1 4.5-1.5 7-2.8l35.4-19.6q8.5-4.8 22.8-9a116 116 0 0 1 38.7-7.4q.9 0 1.4-.4a.5.5-50.1 0 0 0-.8c-3.6-1.9-9.7-5-14.8-8.3q-16-10.4-39.7-23.2-26.9-14.5-42.2-22.2c-18.8-9.4-33-16-57.2-27.6q-18.2-8.7-33-15.1c-19.8-8.7-38.2-19.8-50.5-37.3a.3.3 0 0 0-.5.2q.5 12.5 2.6 25M401.4 316.7q-1.9.3-8 .2-3.8 0-8.5.5-7 .7-17.8 1.5-2.8.2-5.3.8l-32.4 7.6q-4.2 1-7.6 2.3-6.1 2.5-23.9 10.4c-6.3 2.9-11.5 6.3-17 9.1q-4.7 2.5-12 7.9a221 221 0 0 0-35 30q-2.9 3.4-6.2 6.4-5 4.6-6.3 6.2-9.2 10.8-18 21.7c-4.5 5.7-8.5 13-12 18.1-3.3 4.8-5.2 9.8-8.4 15.2-7 11.7-12 23.8-17.2 35.1-5 11.4-9.7 24-12.1 31.4-2.1 6.3-3.1 15-4.4 20.8-1.6 6.7-2.4 10-3.1 15.6l-2.3 19c-2 16.5-1.7 40.4-2 53.7q0 5.1.8 10.5.6 4.1 1.2 12.9.4 4.6 2.6 23.8c1 8.4 2.7 16 4 24.6q1.2 7.2 3.8 18.4l8.5 37.4q3 12 6 18.5c2.2 4.7 6.2 8.6 11.4 5.2q3.3-2 4.8-3.9c6.8-8.2 14.3-19 23.1-27.3q15.2-14.1 18.9-17a311 311 0 0 1 33.8-24.2l11.8-6.8 5-3 5.2-2.6q22-10.3 36.2-17.2 1.4-.6 6.8-3.5c5-2.7 8.7-5.5 13.8-8.6q2.2-1.4 7-5 6.5-5 12.3-8.7a105 105 0 0 0 16.2-12.4c6.8-6.2 11.8-11.7 18.5-17.8a242 242 0 0 0 22.5-24.3c3.4-4.2 8.7-9 12-13.3q11.6-15.3 22.2-29.8 11.6-16 17.4-26 8.5-14.7 14.7-27.6c7.4-15.2 13-25.7 17.7-38.4q7.5-20.6 13-43.7 2.5-11 2-26.6a9.5 9.2 35 0 0-.5-2.8q-1.6-4.3-3-13-1.2-6.9-4.4-14.3a53 53 0 0 0-22-23.4q-8.2-5-10.1-5.9-13.2-5.4-20-8c-7.3-3-16.2-3.6-21.7-5q-5.8-1.4-12.9-2-4.8-.4-18.2-2.7a3 2.8-42.8 0 0-1 0m773.5 71.3q-1.3 9-.3 18c-.2 7.6-.8 15.7.8 22.8q2.2 9.6 5 18 6.3 19.3 14.3 36.8c3.6 7.8 10.6 18.3 14.7 27q5 10.7 11.8 21l10.2 16c7.3 11.4 14.6 20.5 26 35 5 6.2 10.1 11.5 14.4 17.2q4 5.5 9.9 11c10.5 10.3 16.7 16 25.5 25 6.2 6.3 13 11.7 21.7 18.6 7 5.5 14.3 9.9 20.8 15 5.4 4.4 12 8 17.8 11q13.4 6.4 29.8 13.6 7.9 3.5 14 7.3 7.8 4.6 13.6 7.6 5.5 2.8 18.6 10.9 6.5 4 12.4 9.8c5.2 5 10.7 8.5 15.9 13.7q6.5 6.7 12.3 12.2c2.7 2.6 4.7 5.2 7 7.8 4.3 4.9 8.6 12 11.9 15.9 9.5 10.7 15.6-2.8 17.6-10.7q2.8-11.4 7-24.9c2.8-8.3 3.4-17.4 5.4-26.4 2.2-10.7 4.9-24.1 5.9-37.2q.3-5.1 2.9-20 1.5-9 2.2-26.9c.3-8.8-2.1-20.6-1.2-29q1.3-11.2 1.2-13-2-29.6-9-58-6.7-27-16-47.6-9.6-21.2-28.3-52.7-4.1-6.9-17.4-24-1.5-2-2.7-4.2-1.5-2.6-2.7-3.8a235 235 0 0 0-25.3-24.1 350 350 0 0 0-37.7-27.3q-15.1-9.1-29.2-14.4-16-6.1-23.8-8.5-8.5-2.5-24.6-6c-12.3-2.5-26-3.8-36.3-3l-29 1.8q-7.5.4-13.1 2.6c-6.5 2.4-15.2 3.3-22 6q-14.9 6.1-24.3 11.7-5 3-13.3 11a42 42 0 0 0-12 16.5q-3.7 10.1-2.4 20.9m-640.5-9q3 12.5 2.3 24.6-1 10.8-3.1 19.5-3.4 13.8-9.1 31.4-2 6-3.6 10c-3.4 8.6-5.8 16.3-9.6 24.8q-21 46.6-50 87a465 465 0 0 1-51.6 60q-18.1 17.6-25 23.6-8.8 7.6-20 16.6a3 3 0 0 0-.9 2.8q2.1 6.8 7.4 21.3 13 35.5 36 67.2 9 12.3 14 18.3c8.6 10.3 21 24 32.4 33.5a343 343 0 0 0 25.2 19q16.8 11.3 19.2 12.7 19.6 12 40.8 18.5 30.1 9 64.3 10.6 19.8 1 37.8-2 34.7-5.7 64.5-12 20.2-4.3 43-12.5a160 160 0 0 0 39.3-20.5q8.2-6 12.5-10.7l11.8-13.9c5.9-7 8.9-15 12-23.2l1.8-6.3q3.2-9.2 3.8-17.4 1.3-15.5 1.6-40c.4-35.3 1.2-69.5 1-105.3l-.5-88-.1-7.3q.3-9.2-.5-21.2-.6-10.3-4-19a71 71 0 0 0-12.2-20.6q-12.6-13.7-24-23.4-7-6-13.7-10c-8.9-5-16.8-9-26.9-12-18.8-5.3-38.1-9.3-59.4-13.9-26.6-5.6-50.7-11.6-78.2-17.6q-4.4-1-71.6-18.3l-10.2-2.4a1 1 87.8 0 0-1.1 1.2zm320.4 142.4c0 7.7-.4 16.7-.4 23 0 42.8-.5 82.4.1 124.7l1.3 78.8q.4 16.1 4.8 32.7.7 3.1 1.4 4.7 2.9 6.8 7.2 15 1.6 3.2 11.2 16.1 3 4.2 6.8 7 4.2 3.3 13 11 3.7 3.2 10.7 7 20 10.7 40.5 17 16.6 5 32.7 8.3c24.6 5 33 6.6 55.6 10.4q15.5 2.5 26.3 3 43 2.2 84-11.2 23.7-7.7 41.9-19.3 16.2-10.4 24.9-17 34-26 60.6-62.2 15.8-21.5 25.3-41c5.6-11.6 9.5-19.5 13.2-30q3.8-10.8 6.7-20a2.4 2.4 27.5 0 0-.8-2.6q-13.2-10.1-27.1-22.8c-4.3-3.9-7.4-7.1-12-11.6q-8.8-8.4-15.4-15.5-35.6-37.6-62-80.6-18.3-29.7-31.4-60.2-2.3-5.3-4.5-11.7l-4.4-11.8q-10-26.4-15-54.2-1.2-15.5 3-30.7l4-13.5a1 1 16.8 0 0-.6-1q-.5-.2-1 0c-32.6 8.6-60 15.6-87.3 21.7-40.7 9-67 15.2-109.1 24.4q-19.9 4.3-29 7.8-22.1 8.2-40.8 25.7-10.5 9.7-16.8 16.7a60 60 0 0 0-15.3 27.7q-1.1 4.9-1.6 14-.5 10.1-.7 20.2M186 813.5q-3.6 5.3-4.8 8-2.7 5.6-10.3 23.1c-8.4 19.3-15 40.1-21 59.2-4.3 14.3-6.8 27-10.5 41.5a451 451 0 0 0-8.9 43.6c-2.2 14.8-6.4 35.4-7.8 53.4q-1.7 23.3-2.5 31.7a.2.2 0 0 1-.4 0q-.4-1.7-.5-3a451 451 0 0 1-.5-71.8q1.8-33.4 7.3-62.8l6.7-35.7q2.6-12.4 4.9-20c3.4-11.4 5.7-21.2 9-31q6.1-18 13-34 .6-1.7 1-3.7a3 3-54.2 0 0-.3-1.7c-1.4-3-3.9-7-5.4-10.8q-3.9-9.8-6.6-19.2l-5-21.8a.2.2 0 0 0-.4 0q-1 2-2.3 3.6c-9.8 13.5-15 22.9-27.5 43.5q-5.8 9.6-18.1 34.5-8.5 17.2-13.9 32.2-8.5 24-10.8 32-8.1 28.6-12.4 59.6-3.4 24.7-2.3 52.6.8 20.7 11 38 21.5 40.9 55 71.1 8 7 18.3 14.3 32.8 26 73.4 34.6 15.3 3.2 29.3 4.8a2 2-70.2 0 0 2-1q3.7-5.5 7.2-12 13.4-24.8 20-37.5 1.7-3.3 10.1-21 5.6-11.6 9.5-21.1c5.2-12.6 11-24 16.1-37.7q12.5-33 14.9-41.1 5.1-17.1 10.5-33 2.4-7.5 4.4-16l10.4-45.4a600 600 0 0 0 11.3-75.5q2.4-24.5 1.4-53-.2-3.8-3.5-30.2-1.4-11.5-4-20.4-3.1-10.7-8.3-24.6a106 106 0 0 1-4.7-16 1 1-20.2 0 0-1.6-.6c-4.5 2.4-8.7 4-13.1 6.4q-9.7 5-21 10.1-12.7 5.7-19.6 9.5a294 294 0 0 0-38.7 24.5q-13 10.3-15.8 12.8c-4.6 4.1-8 8.1-12 12.5q-3.9 3.9-7.4 8.1-14.2 17-24.8 36.4m1360.7 326.6q12.2-8.7 19.3-15.5a242 242 0 0 0 32-35.4q5.4-7.7 12.4-18.2 5.7-8.4 9.3-16.7 10.4-16.8 11-36.5.8-27-2.2-51.4-2.4-20-9.7-52a314 314 0 0 0-13.4-41.1q-24-60.7-61.9-114.4a.3.3 0 0 0-.6.1q-.5 4.2-1.5 8.3l-3.9 15c-2.9 8.8-6.2 18.3-11 25.6q-1.5 2.6-.8 4.7l5.2 13.1q13 32.5 21.7 69.6 1.5 6.7 4.4 23 2.9 15.8 4 23a550 550 0 0 1 7.4 78.9l.3 21.8q0 3.3-1.6 32l-.2.2h-.2a.4.4 0 0 1-.4-.4q-2-30.3-6.2-58l-5.5-33.3a701 701 0 0 0-13.3-59.5q-9-35.2-22.8-71-6.6-17.2-17.8-37.2a86 86 0 0 0-8.9-16q-3.5-5.7-8-11c-9.9-11.4-17.6-21.4-28-31q-7.3-6.9-24-19-7.5-5.5-19.6-12.3-16.3-9.2-20.3-11-21.2-9.5-37.1-17.5-4.1-2-7.3-3a1.2 1.2 14.4 0 0-1.5.9c-2.2 10-8.4 22-12.2 35.2q-2.4 8.3-2.7 10-2.4 12.6-5 37.9c-2.7 27.4.2 58.1 4.1 89.7a700 700 0 0 0 18 89.2c2.5 9.7 5.4 18 9.1 29.7 3.5 10.9 7 23.1 11.3 35q9.7 27.1 14.5 38.2l12.7 29.3a920 920 0 0 0 42.6 84.1l3.1 5a2 2 70.1 0 0 1.5.7q16-1.4 30.5-4.4a177 177 0 0 0 73.2-34.4M535 1384.3q2.5 1 5.2 1.7 33.6 9.3 69 17.7c15.2 3.6 31.4 6.2 48.2 10q2.4.5 4.9.4a1 1 0 0 0 .9-1.2q-7-24.2-12-43.6-3.6-14.2-6.2-28-7.5-38.5-10.4-78-4-55.8 3.7-111.8.7-5.3 2.3-9.7a.6.6 0 0 1 1 0q.5 1.4.6 3.1 4.4 80 17.4 160.7c6.2 39 13.7 73.6 23.3 111.4a1 1-1.8 0 0 1 .9q59.3 10.6 120.6 14.4 38 2.3 79-.1 59.4-3.6 119.2-13.9a1.4 1.4.9 0 0 1.1-1.1q3-14.2 4.6-20.8a1372 1372 0 0 0 32.8-209.2q.8-10.4 1.4-21 1-16.6 1.4-21 .2-2.3.6-3.7a.7.7 0 0 1 1.1-.3q.3.3.5 1 2.1 7.1 3.3 20.8 1.9 21.8 2.8 41.5.8 15.6.4 29-2 80.6-23.6 158.4l-6.3 22.1a.6.6 0 0 0 .7.8q22.8-4.7 42.5-8.3 4.8-.9 15-3.4c23.9-6 47.3-11.5 70.5-18.5q29.5-8 45.8-14.5 12.4-5 29-11.2c4.8-1.9 6.9-3.1 7-8.4q.5-23.4 0-44.5a609 609 0 0 0-6.6-71c-6-42.1-6-86.1 3.2-127.7 2-9.5 5.1-20.7 8.5-28.7q3.7-8.8 7-13.9 16.4-24.4 29.6-51c7-14.2 12.2-28.4 18.6-43.4q2.4-5.8 5.2-15.2 4.5-15.2 7-25.8 1-4.8 1.5-9.3.3-3.2-.9-9.4a521 521 0 0 1-10-117.3.7.7-24.8 0 0-1.2-.4l-6.4 8.2q-2.3 3-20.1 22.8c-7.3 8-16.3 17-22.9 22.4q-7.8 6.4-22.6 17a264 264 0 0 1-33.4 20.2 197 197 0 0 1-53.2 18.4c-21.3 4-44.2 6-66.3 4.3q-14.8-1.2-21.3-2.2-26.6-4.3-31.5-5.3-16.9-3.3-36.1-8.6c-18.6-5.1-31.5-8.1-45.4-13.6-9.7-4-18.5-6.7-27.2-11.1q-1.5-.8-10.2-6.3-5.3-3.4-11.2-6-12.4-9.5-22.7-21.5-5.8-6.7-9-11.1c-4.6-6.6-8.6-16-11.5-22a.8.8 0 0 0-1.5 0c-3.5 8.4-8.8 17.6-15 25.5l-8 9.9-18.8 17.8q-3.8 2.3-7.6 4.3-4.2 2.3-7.6 4.5-11.3 7.2-21 10.7a481 481 0 0 1-48.7 15.9q-8 2-28.3 7.6-8.5 2.3-38.9 7.6a254 254 0 0 1-59.1 4q-19-1.2-34.5-3.8-36.8-6.1-71-25.7-6.6-3.8-18.4-12-15-10.2-18.1-12.7-18-14-35-33-2.5-2.7-15.4-18c-2.8-3.4-4.7-6.5-7-9.1a.6.6 0 0 0-1 .4q.9 8 .8 15.9-.6 38.5-6.3 77.2l-5 29.2a13 12.4 50.6 0 0-.2 2.5q0 3.2.2 4 4.6 22.3 11.2 41 1.3 3.7 10.1 26.1 6.1 15.5 11 25a486 486 0 0 0 24.6 43.9q7.3 11.4 10.5 18.7 5.1 11.7 8.7 25.2 6.6 25.3 8.3 48.7 2.2 31.3-1 64-1.6 15.6-4 32.5-6.7 47.8-5.3 98.7c.1 4.7-1 10 4.4 12.2q25.8 10.9 51.1 19.4 8.2 2.7 26.6 7.7"/><path d="M887.1 962q36.7 1.6 71.3 11.8 31.8 9.3 52.3 23.6 23.8 16.7 39.3 41.6 6 9.9 9.2 20.3v.9a1 1 25.7 0 1-1.6.6q-3.4-2.6-6.6-5.5-8.1-7.4-22.8-20c-6.3-5.3-12.4-9.2-18.8-14.3q-2-1.6-8-5.5-18.6-12.4-27.5-16.8c-13.4-6.6-24.4-12.7-38-17.7q-11.9-4.3-33.6-11.8-8-2.8-15.3-6.7a.3.3-29.5 0 1 .1-.6m-88.3.1a.3.3 0 0 1 .1.6q-7.2 4-15.2 6.7-21.8 7.4-33.6 11.7c-13.6 5-24.6 11-37.9 17.6q-9 4.4-27.5 16.8-5.9 3.9-8 5.5c-6.3 5.1-12.4 9-18.7 14.3q-14.7 12.5-22.8 19.8-3.2 3-6.5 5.5a1 1 0 0 1-1.6-.5v-1q3-10.3 9.2-20.2 15.4-24.8 39.2-41.4 20.5-14.3 52.1-23.6 34.6-10.1 71.2-11.8m44.5 62.1q.4 0 .5.5 1.6 6.3 2.3 13.2c3.6 34.4 5.7 65.5 8.1 107.4q2.5 41.8 2 76.2-.7 61-6 115.7-.9 9.7-2.2 18.7c-1.5 11.2-2.3 17.5-4.4 23.7q-.2.6-.5.6t-.6-.6c-2-6.2-2.8-12.5-4.4-23.7q-1.2-9-2.1-18.7-5.2-54.8-6-115.7-.3-34.4 2.2-76.2c2.5-42 4.6-73 8.3-107.4q.7-6.9 2.2-13.2.1-.5.6-.5"/></g><g fill="#565f7d"><path d="m884.3 311.8-7.4-.2-.7-.2q-2-1.1-2.6-2.5a2.5 2.4 34.9 0 1-.2-1 92 92 0 0 1 1.2-13.8c1.9-10.6 3.2-21.1 5.2-31.7 1.3-7.1 1.8-14.6 2.7-21.7q.8-6.2 1.1-16l.9-27.1a1 1 0 0 0-1.1-1q-2 .2-3 .7-18.3 8.9-37.7 8.9-13.4 0-24.2-3.7-5.9-2-13.9-5-.8-.3-2.5-.4l-.6.6.6 22.3q.6 21.5 5.6 48.5 3.4 18.1 5.1 33.6c.4 3.1.4 7.4-3 8.8q-2 .8-4.5 1.4h-1l-.8-.3h-.6q-.5.4-.5 1c-5.7-17.6-11.8-35.7-16.6-53l-11.4-39.9q-.8-2.6-2.1-8.3l-7.4-31.2Q754.4 137.8 748 96a1 1 0 0 1 1.1-1.2h188.2a1.2 1.2-85.8 0 1 1.2 1.3q-1.3 9.1-2.7 16.1-8.1 42.3-13.7 64.3-7.2 28.6-9.5 39c-3.9 17.2-8.7 30.4-13.2 47.6-4 15.7-9.8 32.5-15.2 48.7m124.5-205.3.9 36.3q1 35.6 6.5 71.9 2.7 17.7 6.4 31.8 5 19.6 9.6 31 3.4 8.7 11 24 2.6 5.1 6.7 11.3l7.3 10.9a88 88 0 0 0 15.9 16.7q6.4 5.1 15.7 11.7 2.4 1.7 3.8 3.1a.8.8 0 0 1-.4 1.4c-11 3.5-26 6.2-36.4 9q-14.4 3.7-21.5 5.2l-17.2 3.6c-10 2.5-21.7 4.5-31 7.3-10.6 3.2-19.5 4.9-30.7 8a1 1 0 0 1-1.2-1q4.6-22.7 7.7-43c4.4-29.5 8.4-53.4 16-99.7q.5-4 .6-8.3a.5.5-86.4 0 0-.5-.6l-.7.3q3.4-8 5.8-16.3l4.3-14.7q3.2-10.2 5.5-20.5l6-26.3q.5-3.3 1.7-9c1.4-7.2 3.7-13.7 4.9-20.4q.6-3.8 1.2-5 1.4-2.4 1.5-5 .4-6.8.6-13.7M707 235.6q5 35.4 11.2 70.3c2.7 15.5 4.4 30.6 7 45.9l6.7 37.8a.4.4 0 0 1-.5.4l-22.5-5.8q-23.4-6.3-50.9-12.4a2898 2898 0 0 1-55.7-13.2q-4.6-1-8.4-2.3a.6.6 37.7 0 1-.1-1.1 130 130 0 0 0 50.3-55.6c5-10.2 9.1-18.6 12.4-28.4 3.1-9 5-17.4 7.6-27q2.1-7.6 3.8-17.5 5.6-32.7 7.5-58.4.8-10.8 2-48.8 2 5.8 3.4 11.2 1.7 7.7 4.3 18.2c3.4 14 6.9 33.5 10.3 45q6.4 21 11.6 41.7M536.6 403.7q1.6 10.8 1.3 18.7-1 24.5-6.6 54.2c-1.2 6.3-2.8 11-4.1 17l-2 6.8q-16.5 52.4-45.9 98.5-8.9 13.9-20.5 29.4-11 14.8-33 39.5c-5.4 6-.6 18.8 2.7 25.4q22.3 45 60.9 77.2 4.8 4 18 13 44.8 30.7 98.2 38 21.6 3 46.9 2.4 35.1-1 69.5-8.6 27-6 53.4-14.8c7.8-2.6 17-7 24-9.1 9.8-2.9 17.4-7.7 26.3-11.9-.7 2.2-1 4.5-1.8 6.3a74 74 0 0 1-12 23.2l-11.8 14q-4.3 4.7-12.5 10.6a162 162 0 0 1-39.2 20.5q-23 8.2-43.1 12.5-29.8 6.3-64.5 12-18 3-37.8 2-34.1-1.5-64.3-10.6-21.2-6.4-40.8-18.5-2.4-1.4-19.2-12.7c-9-6.1-18.5-13.5-25.1-19a272 272 0 0 1-32.5-33.5q-5-6-14-18.3-23-31.7-36-67.2-5.3-14.5-7.4-21.4a3 3 0 0 1 .9-2.7q11.2-9 20-16.6 6.9-6 25-23.7c18.7-18.4 36.6-39 51.6-59.8q29-40.5 50-87.1c3.8-8.5 6.2-16.2 9.6-24.7q1.7-4.2 3.6-10 5.7-17.7 9-31.5 2.2-8.7 3.2-19.5m613.3 4.8q5 27.8 15 54.2 1.4 3.5 4.3 11.8 2.3 6.4 4.6 11.7 13 30.5 31.4 60.2 26.4 43 62 80.6 6.6 7 15.4 15.5c4.6 4.5 7.7 7.7 12 11.6q13.9 12.7 27 22.8a2.4 2.4 27.5 0 1 1 2.6q-3 9.2-6.8 20c-3.7 10.5-7.6 18.4-13.2 30q-9.5 19.5-25.3 41-26.6 36.2-60.6 62.2-8.7 6.6-25 17-18.1 11.6-41.8 19.3-41 13.4-84 11.3-10.9-.6-26.3-3.1c-22.7-3.8-31-5.5-55.6-10.4q-16.1-3.3-32.7-8.4-20.4-6.2-40.5-17-7-3.7-10.7-6.9-8.8-7.7-13-11-3.8-2.8-6.8-7-9.6-12.9-11.2-16-4.4-8.3-7.2-15.1-.7-1.5-1.4-4.7l6.5 3a2 1 24.9 0 0 .3.1q2.4.6 6.2 2.2l21.5 8.4q8.6 3.4 21.7 7.6 25.2 8 45.4 12.6 55.3 12.5 107.1 8.2 46-4 85.8-24.8 15-8 31.4-19.7 12.5-9 22.3-18.6 9.7-9.6 19.7-21.3c5.5-6.4 11-14.9 15.4-21.3q10.2-15 17.3-32 1.3-3.2 2-8.9.6-5.3-3.4-9.7-17.3-18.8-20.4-23l-14.6-19.2q-18-23.3-31.2-47.8a391 391 0 0 1-23-48.2q-3.7-10.1-8.8-25.2-3.8-11.2-6.6-26.1-4.8-25.5-5.6-36.7-.9-11.1-1.2-21.6 0-5.3 1.6-10.2M140.1 1139.9q31.3-21.7 56-50.3 19.5-22.6 35.7-50.8 19-32.7 28-57.4c3.8-10.4 7.6-19.5 10.8-29.7q10.8-34.4 18-67.8 2.5-11.2 4-21.3 4.1-28 6-58.4a175 175 0 0 0-.7-34.2c-.6-4.5-1-8.1-2.6-11.6q-4-8.1-12.1-5-13.8 5.3-27.4 13.4-16.9 10-19.3 11.7-13.3 9-25.4 17.8c-6.3 4.6-14.3 9.6-21.1 15q-1 .7-4 2.2 10.7-19.4 24.9-36.4 3.5-4.2 7.3-8.1c4.2-4.4 7.5-8.4 12-12.5l16-12.8c10.5-8.4 23.4-16 38.6-24.5q6.9-3.8 19.6-9.5 11.3-5 21-10.1c4.4-2.4 8.6-4 13.1-6.4a1 1-20.2 0 1 1.6.7 105 105 0 0 0 4.7 15.9q5.2 13.9 8.3 24.6 2.6 8.9 4 20.4 3.3 26.4 3.5 30.2 1 28.5-1.4 53a600 600 0 0 1-11.3 75.5L337.5 959q-1.9 8.4-4.4 15.8-5.4 16-10.5 33-2.4 8.2-14.9 41.2c-5.1 13.6-10.9 25-16 37.7q-4 9.5-9.6 21.2-8.4 17.6-10.1 20.8-6.6 12.8-20 37.6-3.5 6.5-7.1 12a2 2-70.2 0 1-2.1 1q-14-1.6-29.3-4.8-40.6-8.6-73.4-34.6m1360.7-325.1q-6-3.8-11.3-7.7l-9.3-6.9q-10.9-7.7-17.5-12.6-7.8-5.7-15-10c-14.8-9.3-24.7-15.6-38.9-21.9q-5.2-2.4-9.4-3.3h-1c-6.5 1-8 5-9 10.8q-1.7 11-1.8 18.5a527 527 0 0 0 6.8 81.8q2 15.7 6.5 34.4 8.1 34.6 18.1 63.3 10.1 29.1 18.7 46.4c14.9 30 32.8 59.9 55 84.6q10.8 12 15 16 8.4 8.1 21.3 18.8 7 5.9 17.8 13a177 177 0 0 1-73.2 34.5q-14.6 3-30.5 4.4a2 2 70.1 0 1-1.5-.7q-1.7-2.6-3-5a920 920 0 0 1-42.7-84l-12.7-29.4q-4.8-11.1-14.5-38.2c-4.3-11.9-7.8-24.1-11.3-35-3.7-11.8-6.6-20-9-29.7a700 700 0 0 1-18-89.2c-4-31.6-7-62.3-4.1-89.7q2.5-25.3 4.9-37.8.3-1.8 2.7-10c3.8-13.3 10-25.3 12.2-35.3a1.2 1.2 14.4 0 1 1.5-.9q3.2 1 7.3 3 16 8 37 17.4 4.1 1.9 20.4 11 12 7 19.6 12.4 16.7 12.1 24 19c10.4 9.6 18.1 19.6 28 31q4.5 5.3 8 11a98 98 0 0 1 9 16"/><path d="m800.9 851.7-4.1 5.7-.5.5q-5.1 3.7-11.1 8.6c-2.6 2-6.4 3.4-9.4 5.2a238 238 0 0 1-27.2 15q-4.5 2-11.9 6.1-4.2 2.4-14.1 6.8-58.8 26-122.4 32.6-13.1 1.3-27.7 1.2l-36.7-.5q-11.3-.3-20 5.2-6.7 4.3-10.8 8.4c-5 5-7 11.1-9.3 18.4a229 229 0 0 0-9.6 48.3q-2.8 30.1-1.3 59.8c2 41 6.5 74 12.6 122.3 3 23.3 7.3 49.7 11 69.5q9 46.2 9 46.8 3 15 12.2 52.6 1.7 7 2.5 12.4.3 1.8 2.9 7.7-18.4-5-26.6-7.7-25.3-8.5-51.1-19.4c-5.4-2.2-4.3-7.5-4.4-12.2q-1.4-51 5.4-98.7 2.3-16.9 3.9-32.5 3.2-32.7 1-64-1.7-23.4-8.3-48.7-3.6-13.5-8.7-25.2-3.2-7.3-10.5-18.7a486 486 0 0 1-24.7-43.9q-4.7-9.5-10.9-25l-10.1-26q-6.6-18.8-11.2-41-.2-1-.2-4.1a13 12.4 50.6 0 1 .2-2.5l5-29.2q5.8-38.7 6.3-77.2 0-8-.9-15.9a.6.6 0 0 1 1.2-.4c2.2 2.6 4.1 5.7 6.9 9q13 15.4 15.4 18 17 19 35 33 3.2 2.6 18 12.8 11.9 8.2 18.5 12 34.2 19.6 71 25.7 15.4 2.6 34.5 3.8c19.5 1.3 40.3-.7 59.1-4q30.4-5.3 39-7.6Q708 889 716 887a481 481 0 0 0 48.8-15.9q9.6-3.5 20.9-10.7 3.4-2.2 7.5-4.5 4-2 7.7-4.3m350.6 533c.6-3.2 2-6.4 2.6-9.1 2.3-10.7 4.4-20.2 7-30q4.5-17.8 6.4-27.5 7-36 13.3-70.2 6-32.2 10.2-71c3.3-29.8 8.5-59.8 10-93l.8-19.5q.4-16.7-1-41.8-2-33.9-12.2-62.9-2.3-6.7-4.8-10a44 44 0 0 0-22.6-15.7q-6.4-1.5-13.5-1.2c-24 1-48.7 1.8-72.5-1.8q-21.6-3.2-31.7-5.5a418 418 0 0 1-62.8-19.2q-17-6.8-25.9-11.3c-15.2-7.7-21.8-10.6-33.6-17.8q-5.9-3.5-16.3-9-6.7-3.6-13.5-10-2.3-2.1-4-5 5.9 2.6 11.2 6 8.7 5.5 10.2 6.3c8.8 4.4 17.5 7.1 27.2 11 13.9 5.6 26.8 8.6 45.4 13.7q19.2 5.3 36.1 8.6 4.9 1 31.5 5.3 6.5 1 21.3 2.1c22.1 1.7 45-.2 66.3-4.2 19-3.5 37-10.1 53.2-18.4a264 264 0 0 0 33.4-20.2q14.8-10.6 22.6-17c6.6-5.3 15.6-14.3 22.9-22.4q17.8-19.8 20.1-22.8l6.4-8.2a.7.7-24.8 0 1 1.3.4 521 521 0 0 0 10 117.3q1.1 6.2.8 9.4-.5 4.5-1.6 9.3-2.4 10.6-6.9 25.8-2.8 9.4-5.2 15.2c-6.4 15-11.6 29.2-18.6 43.4q-13.2 26.6-29.5 51-3.4 5.1-7.1 14c-3.4 7.9-6.5 19.1-8.5 28.6a361 361 0 0 0-3.2 127.7c3.5 24.2 6 49 6.6 71q.5 21.1 0 44.5c-.1 5.3-2.2 6.5-7 8.4q-16.6 6.2-29 11.2-16.3 6.5-45.8 14.5"/></g><g fill="#d34536"><path d="m1246.5 325.3-.1.4.5.5c6.2-1.2 13 0 20.1 1.8q11.1 2.7 29.2 9.6c8.2 4 17.2 7.8 24.7 11.7q29.6 15.8 55 39.4 14.4 13.3 25.2 28.2 2 2.7 2.8 4.7a.4.4-12.2 0 1-.3.6q-.6 0-1.1-.6a172 172 0 0 0-26.8-23.2q-43.5-32.8-97.9-49.5a176 176 0 0 0-41.6-8c-7.8-.5-13.8-2-18.2 1.8a34 34 0 0 0-11.8 20.8 81 81 0 0 0 3.6 36q6.5 20.6 16.6 39.4 10.2 19 17.3 29.9 11 16.8 26.3 38.4c5 7 11.1 14.6 15.4 19.9a.6.6-10.2 0 1-.7.9q-1.3-.4-2.8-1.7-13-11.4-29-25.8c-8.8-8-15.2-16-23.8-26.2a.2.2 0 0 0-.3.2c17.6 34.3 37.3 68.3 62.7 97.5q5 5.7 8 8.8c6.5 6.7 11.5 12.1 17.8 17.8q17.3 15.4 33 26.6 13.8 10 38 25.4c11.7 7.5 23.6 13.7 34.6 20.8a.3.3 0 0 0 .4-.4c-.6-1-2-2.3-3-3.5q-8.7-11.8-16-20.8c-2.9-3.4-5-6.6-8.1-10.6q-2.2-2.9-6.3-7.8-24.7-29.2-40-50-17.6-23.9-34-50a.4.4 0 0 1 .5-.5q.7.3 1.7 1.3 38.4 38 71 73a833 833 0 0 1 63 74.2q11.4 15.4 36.5 53.3 4 6 7.6 12.8a.6.6 0 0 0 1 0l.1-.1q-.3-8-.4-17.2 0-10.1-.5-17-2-32.6-6.7-68.7-1.5-11.1-3-19.1c-2-10.6-3.9-20.8-7-31q-1.3-4-3.3-11.9-4.1-15.9-8.1-25-.8-2-2.1-4.2a5.7 5.6 21 0 1-.4-1q-9.3-29-12-34.8c-3.8-8.7-6.6-16.8-10.8-25q-8-15.3-11.5-21.5a.4.4 0 0 1 .6-.5q1.8 1.3 3.3 3a306 306 0 0 1 54.6 101.1q7.7 23.9 14.4 51.8 4.6 19.5 6.4 37.3l.3.2.2-.2q1.4-48-.8-90.8-.6-11.6-4.6-45.3a.5.5 0 0 1 .5-.7h.5q15.8 36.5 20.9 76 3.9 29.7 3 58.7-1 37.3-6.3 75.1 0 .8.3 1.5.3.4 1.2-.3l-9.3 34.6c-1.6 5.5-3 9.4-5.1 14.6a.5.5 0 0 1-.9.2q-6-6.7-12.4-15.2-5.4-7-12.7-14.8-18.7-20.1-41-35.8-8.5-6-16.7-10.4c-8.9-4.6-14.9-8.3-23.5-12.5q-22.7-11.1-37.8-18.8-10.1-5.2-19.3-11.5-19.5-13.5-36.8-29.2-17-15.3-27-26-5.5-5.7-18-20.3a443 443 0 0 1-53.2-77.7q-22.2-40.9-34.7-85.2-2-6.8-3-18.8-1-9 .3-18a64 64 0 0 1 24.9-43q7-4.9 14.8-8.5 15.3-7.3 31.9-11.2m-1085.3 408q1.4.3 1.3-.5-2.4-19.4-4.5-38.8-6.3-57 3-111.6 5-30.4 18.1-60.9l1-1a.5.5 0 0 1 .8.5q-1.4 7-2 13-2 25-3 49c-1 24.5-.4 48-.6 78l.2.5a.2.2 37 0 0 .4 0q.5-15.2 5.8-37.3 6.4-27 9.6-38.2 4-14 7.4-23c3.8-10.3 9-23.6 14-34q16.8-34.8 41.7-63.5a.4.4 0 0 1 .7.5q-16.3 27.8-26.9 57.5c-3.7 10.3-5.4 17.5-9.7 27.9q-2.3 5.4-5.1 15.2a520 520 0 0 0-14.2 58.5c-2.5 14.9-4.1 28.5-6 42.6q-1.4 11-1.7 16.6c-.4 7.9-1.6 23.8-1.8 35q-.1 10.5-.7 23.8a.4.4 0 0 0 .7.4l.4-.6q5-8.9 9.8-15.7l5-7.6c6-9.9 14.3-21.6 17.2-26q6-8.7 12.8-17.8 22.1-29.3 46.5-56l22-24.1c8.6-9.4 19.2-19.8 28-28.8 10.9-11 26-27.8 37.9-38.6l.6-.4a.3.3 0 0 1 .3.4q-2.2 4.2-5.3 9.3L345 566.8a753 753 0 0 1-48.2 61c-5 5.8-9.8 12.6-14.4 18.2-6.1 7.5-12.2 16.5-17.4 23.4a.3.3 0 0 0 .4.4q23.4-12.2 46.5-27.8 20.5-13.8 27.6-18.9 3-2 18.2-14.6c17.3-14.2 33-30.8 46.9-47.8q7.5-9.2 15.3-21.2 11.3-17.2 19.5-31.3 5.6-9.8 18.6-34.4v-.2l-.2-.2a.4.4 0 0 0-.6 0q-12.7 16.7-25.7 29.2-6.3 6-17.1 15.5c-4.3 3.8-8.8 7.3-12.4 10.2h-.5l-.1-.8q3.4-4 7.3-9.4 15.4-21.3 24.8-35.2 21.3-31.6 35.7-63.6A109 109 0 0 0 481 366a31 31 0 0 0-13.5-23.1c-4-3-11-2.8-15.6-2.4q-16.3 1.4-29.7 4.6-12.2 3-28.7 8.8-35.7 12.8-66.7 33.6-18.8 12.6-36.2 27.5-1.6 1.4-6.5 6.4h-.7v-.5c19.5-29 47.9-51.4 78-69.1q5.2-3 13.7-7l13.8-6.7q13.6-5 30.6-9.7 10.6-3 21.6-2.5 8.9 1.8 17.9 5.5 10.7 4.3 20.5 9.3 5.5 2.8 8.5 5.2 7.2 5.9 8 6.4a.8.7 13.6 0 1 .2.4q.3 1.2 1.4 1.5l.4.6v.4a73 73 0 0 1 14.4 47.6q-.4 10-3.9 22.9-7.2 27.1-18.4 52.1-16.5 36.8-34.6 64.3-6 9.2-20.6 29.3-5.3 7.3-13.8 17.1c-6.3 7.2-13 15.3-19.6 22Q386 626 372.3 638.4c-7 6.2-14 11-22.8 17.7q-8.1 6.1-19.8 13.3-6.6 4-21 11.1l-22.3 10.9a348 348 0 0 0-38.4 21.2 254 254 0 0 0-50 43c-8 8.7-14.2 18.2-22.2 26.8a.5.5 0 0 1-.9-.1c-4-8.9-5.6-18.4-8.6-28.5q-3-10-5-20.4"/></g><g fill="#8493ad"><path d="M653.7 190q-1.7 1.4-5.6 5.6-6.6 7.2-16.2 15c-6.4 5.3-14.3 9.5-20 13.7q-4.4 3.1-9.1 5.4c-8 3.8-14.9 6.5-22.9 10.5l-13.1 6q-30.2 13.9-63.2 31.9-11.8 6.4-30.7 19.8-6.3 4.4-14.4 8.3-19.7-6.9-39-7.7a.5.5 0 0 1-.3-1c10.8-5.3 20.3-12.4 30.7-18.2q33-18.6 55-30 21.8-11.3 53.4-25.7c3.4-1.6 7.2-3.8 10.6-5.4l38.5-17.8q5.3-2.4 13.7-7 5-2.6 9.2-5.6c4.9-3.5 8-5.3 11.7-8.6q8.2-7 13.7-15.6a.4.4-25.3 0 1 .7.3zm574.1 116.1q-4-1.6-9.6-5.3l-11.1-7.3q-7.9-5.4-11.2-7.3-26.2-15.8-45.8-25.2c-26.7-13-47.7-22.7-70.8-34q-8.2-4.1-22.6-14.2-12.9-9-24-23.7-2.2-12.5-2.7-25a.3.3 0 0 1 .5-.2c12.3 17.5 30.7 28.6 50.6 37.3q14.7 6.4 32.9 15.1c24.2 11.7 38.4 18.2 57.2 27.6q15.3 7.7 42.2 22.2 23.8 12.8 39.7 23.2c5.1 3.4 11.2 6.4 14.7 8.3a.5.5-50.1 0 1 .1.8q-.5.4-1.4.4a116 116 0 0 0-38.7 7.3M831.5 521.4l-.4 3.6a.5.5 0 0 1-1 0c-.5-1.8-.7-3.6-1.5-5.7l-2.9-8.2a80 80 0 0 0-16.1-28.6l-9.4-11q-4.2-4.8-16.7-15.7-1.1-1-13-8.3a136 136 0 0 0-36.1-15.3q-19.2-5.2-52-12c-25.4-5.3-46.8-11.8-67.4-17q-16.5-4-34.3-9.7-23.6-7.6-41.5-13.6-2.4-.9-5-.8l-4.6-15a1 1 87.8 0 1 1.1-1.1l10.3 2.4q67.2 17.3 71.6 18.3c27.5 6 51.6 12 78.2 17.6 21.3 4.6 40.6 8.6 59.4 14 10 2.9 18 6.8 27 12q6.5 3.8 13.6 9.9 11.4 9.7 24 23.4c5.5 6 9.2 13.5 12.1 20.7q3.5 8.6 4.1 19 .8 11.9.5 21.1m321.3-143.6q-6.4 1.7-12.5 4l-12.3 4.5q-30.8 10.1-54 16.3-22.7 6.1-45.7 11.9c-19.7 5-34.3 7.9-56.6 12.8q-9.4 2-16.4 4.1c-13.5 4-23.4 7.1-33.2 12.5q-4.3 2.3-14.3 8.9-7 4.6-11.7 9-8.1 7.6-10.4 10.4l-11.5 14.3a82 82 0 0 0-13.4 22.8L856 523a.4.4-45.5 0 1-.8 0l-.6-1.5.8-20.1q.5-9.2 1.6-14.1c2.6-11.1 7.6-19 15.3-27.7q6.3-7 16.8-16.7 18.7-17.5 40.7-25.7 9.2-3.5 29-7.8c42.2-9.2 68.5-15.4 109.2-24.4 27.3-6 54.7-13 87.3-21.7q.5-.2 1 0a1 1 16.8 0 1 .5 1zM148.5 780.3q-3.1 8-7.6 15.7-5.7 9.9-7 12.5-4.1 8.5-6.7 13.2-8.6 15.1-10.1 19.2-.7 1.8-2.2 4.4t-2.8 6q-1 2.7-6 14.2-3 6.5-5.7 14.3-3 8.5-9.8 26-3.6 9.5-7.4 24.6-2 8-8.4 38a387 387 0 0 0-5.7 35.9l-1.5 14.8a174 174 0 0 0-1 28.7q.1 3.5 1.4 5.7v.6q-.3.8-1.2.4-10.2-17.3-11-38-1-28 2.3-52.6 4.3-31 12.4-59.7 2.3-7.9 10.8-31.9 5.4-15 13.9-32.1 12.3-25 18.1-34.6c12.5-20.6 17.7-30 27.5-43.5q1.3-1.7 2.3-3.7h.3zm1471.3 274q1-36.2-3.2-64.5-.3-2.5-2.6-15.6-1.5-8.2-3.2-15.5-5.1-22-11.8-42.9c-4-12-8-22-12-32.8-4.7-12.7-9.2-22.6-15-35.7q-3.1-7-5.4-11.2c-2.6-4.8-4.5-9.7-7.3-15q-4.5-8.4-6.3-12.2-2.1-4.2-7.6-13.4-4-6.4-7.8-13.2l3.9-15q1-4.1 1.5-8.3a.3.3 0 0 1 .6-.1q37.9 53.6 61.9 114.4c4.7 12 10.3 27.8 13.4 41.2q7.3 32 9.7 52 3 24.3 2.2 51.3-.6 19.7-11 36.5"/></g><g fill="#fc8d75"><path d="M1526 732.8q-1 .7-1.2.3-.4-.7-.3-1.5 5.3-37.8 6.3-75.1.9-29-3-58.8-5.1-39.4-20.9-75.9-2.2-6.6-5.2-13c-4.5-9.1-7.5-16-11.5-23q-16.6-29.4-37.8-54.7-17.2-20.5-38.3-37.8-20.1-16.5-45-29.5-25.3-13.2-52.5-22.1-6.7-2.2-15.4-3.8-2.5-.5-5-.3-18.1-7-29.2-9.6c-7.2-1.7-14-3-20-1.8a.5.5 0 0 1-.6-.5v-.4q3.3-1 6.6-1.5c22.5-3 45.3-5 68-1q36.3 6.1 68 21.5c10.5 5 24.1 13 34.4 20.9q19.5 14.9 31.2 26.7c15.9 16.1 30.8 36 42.9 57.5q14.1 25.1 22.7 46.3t14 47q11.4 55.9 5.2 114.7-3.5 32.8-10.7 65.1-1.1 5.2-2.7 10.3M441 326q-11-.6-21.6 2.4-17 4.8-30.6 9.7-9.6 0-19.2 3.2-26.2 9-51.8 22.3-49 25.5-84.4 68.8c-14.7 18-28.2 37-39.2 57.6q-5.3 10-15 31.5-13.1 30.5-18.3 61Q151.7 637 158 694q2.1 19.4 4.5 38.8 0 .8-1.3.5-3-10.2-5.2-20.6-4.6-21.8-6.1-34.7c-1.3-11-3.1-24.9-4-37.9q-2.4-39 3-78 1.2-8.6 4.7-25 5.5-25 16-48.9 6.2-14.4 14.5-30c25.9-48.8 66.5-92.3 116.3-115.5q32.6-15.2 67.5-20 23.5-3.2 39.4-1.6l25.2 2.7q4.2.4 8.5 2.1"/><path d="M1280.7 380.9a248 248 0 0 1 49.6 15.4q14.6 6.5 27.1 16c13.3 10.1 26.3 21 37 33.2a2.2 2 18.6 0 1 .4.9q.3 1.1 1.3 1.6l.8.7q7.2 9.2 10 13.8 4.1 6.5 11.5 19.8c2.9 5 4.8 9.9 7.4 15l2.8 6q9.7 22.7 13.5 47a.4.4 0 0 1-.7.3q-.7-.9-1.4-2.3-10.2-21-22.3-42.2-7.6-13.3-14.3-21.5a402 402 0 0 0-54.1-56.7q-8.3-6.7-31.3-23.5-17.8-13-37.5-22.8a.4.4 0 0 1 .2-.7m-875.7.7q-.7.7-1.7 1.2c-11.4 6-20.9 11.7-31 19.2l-21.6 15.4q-10.2 7.3-18.2 14.5-21.4 19.3-40.7 41.4c-3.1 3.6-5 6.5-7.8 9.7l-3 4c-13 19-24.2 40-34.3 60.2q-.8 1.7-2.2 3.6a.3.3 0 0 1-.6-.2q5.5-29.8 18.1-57.2a241 241 0 0 1 12.7-22.5q6-9.8 13-19.1 7.3-9.7 15.3-17.4 18.5-18.1 41.8-31.9 11.5-6.7 23.4-10.8 19.2-6.6 36.5-10.6a.3.3 0 0 1 .3.5m10.4 62.2q0 .7-.4 1.9-5.3 14.7-14.9 31.8-2 3.8-3.5 5.8c-3.3 4.3-5.9 8.9-9.2 12.6-2.7 3-4.4 6-7.3 9.4-4.3 4.9-9.4 12-14.6 17.7-2 2.2-4.6 5.2-7.6 8.1l-23.1 22.2q-32 30-68.7 57h-.7l-.3-.3v-.7l3-3a14.9 14.1-5.6 0 0 1.7-1.9q19.3-26.9 44.6-51c14.4-13.7 28.7-28 42-43.1q5.3-6.1 24.3-26.4 3.3-3.6 5.5-6.4c4.8-6 8.2-9.2 12.7-15 4.9-6 10.9-12.3 15.7-19a.5.5 0 0 1 .8.3m1004 164.9q-11.7-7.8-25.2-18.8-24.2-19.7-55.9-49.1-13.2-12.3-21.2-22.1-5.8-7-17-21.5-9.1-11.6-14.4-19.6-2.5-3.7-6.8-13-.7-1.4-7.2-17.6-.6-1.4-.5-2.5a.4.4 0 0 1 .6-.2l11 12.1.4.6q.6 1.9 2.6 3a2.2 2.1-5.2 0 1 .6.5q3.9 4.4 12.3 14.6c5.3 6.5 11.8 13.5 17.3 19.6 5.2 5.6 10.4 10.6 15.2 16.1a714 714 0 0 0 46.4 47.6c14.6 14 28.2 29.7 39.7 46.1q1.1 1.6 2.8 3.4a.5.5 85 0 1-.7.8"/></g><g fill="#452f3b"><path d="M402.3 316.7q13.4 2.3 18.2 2.7 7 .6 13 2c5.4 1.4 14.3 2 21.6 5q6.8 2.6 20 8 2 .9 10.2 5.9a53 53 0 0 1 22 23.4q3 7.4 4.2 14.2 1.5 8.8 3 13.1a9.5 9.2 35 0 1 .6 2.8q.5 15.6-2 26.6-5.5 23.1-13 43.8c-4.7 12.6-10.3 23.1-17.7 38.3q-6.2 12.9-14.7 27.6-5.8 10-17.4 26-10.6 14.5-22.2 29.8c-3.3 4.4-8.6 9-12 13.3-7 8.6-15 17.6-22.5 24.3-6.7 6-11.7 11.6-18.5 17.8-5 4.5-9 7.8-16.2 12.4q-5.8 3.7-12.3 8.6-4.8 3.7-7 5c-5.1 3.2-8.7 6-13.8 8.7q-5.4 2.9-6.8 3.5-14.2 7-36.2 17.2-2.6 1.2-5.1 2.7l-5.1 2.9q-6 3.3-11.8 6.8c-11.9 7-25 17-33.8 24.1q-3.7 3-18.9 17.1c-8.8 8.3-16.3 19-23.1 27.3q-1.5 1.8-4.8 4c-5.2 3.3-9.2-.6-11.4-5.4q-3-6.5-6-18.5l-8.5-37.4q-2.6-11.1-3.7-18.3c-1.4-8.6-3.2-16.2-4.1-24.6q-2.2-19.2-2.6-23.8-.6-8.7-1.2-13-.8-5.3-.7-10.4c.2-13.3-.1-37.2 1.9-53.7l2.3-19c.7-5.6 1.5-8.9 3-15.6 1.4-5.7 2.4-14.5 4.5-20.8 2.5-7.3 7-20 12.1-31.4s10.1-23.4 17.2-35.1c3.2-5.4 5.1-10.4 8.3-15.2 3.6-5.2 7.6-12.4 12.1-18q8.8-11 18-21.8 1.2-1.6 6.3-6.2 3.3-3 6.3-6.3c10-11.4 22.3-20.8 34.9-30.1q7.3-5.4 12-7.9c5.5-2.8 10.7-6.2 17-9q17.8-8 24-10.5c2-.8 4.8-1.7 7.5-2.3l32.4-7.6q2.5-.6 5.3-.8 10.9-.8 17.8-1.5 4.7-.5 8.5-.5 6.1 0 8-.2a3 2.8-42.8 0 1 1 0m-241 416.6q2 10.3 5 20.4c3 10.1 4.6 19.6 8.6 28.4a.5.5 0 0 0 .8.2c8.1-8.6 14.2-18.1 22.2-26.8 14.8-16 31.5-31.3 50.1-43a348 348 0 0 1 38.4-21.2l22.3-10.9q14.4-7 21-11.1 11.7-7.1 19.8-13.3c8.8-6.7 15.8-11.5 22.8-17.7q13.8-12.3 29-27.7c6.8-6.8 13.4-15 19.7-22q8.5-9.9 13.8-17.2 14.6-20 20.6-29.2 18.1-27.6 34.6-64.4 11.2-25 18.4-52.1 3.5-12.8 3.9-23c.7-16-4-35.3-14.3-47.5l-.1-.3v-.1l-.4-.6q-1-.3-1.4-1.5a.8.7 13.6 0 0-.2-.4q-.8-.5-8-6.4-3-2.4-8.5-5.2-9.8-5-20.5-9.3-9-3.7-18-5.5-4.2-1.7-8.4-2.1l-25.2-2.7q-16-1.6-39.4 1.6-35 4.8-67.5 20C250.6 365.9 210 409.4 184 458.1q-8.3 15.7-14.6 30.1-10.4 23.8-15.9 48.9-3.5 16.4-4.7 25-5.4 39-3 78c.9 13 2.7 27 4 37.9q1.5 12.9 6.1 34.7 2.2 10.4 5.2 20.6M1174.6 406q1 12 3 18.8 12.5 44.3 34.7 85.2c14.9 27.3 32.6 54 53.1 77.7q12.6 14.6 18 20.4 10.1 10.6 27 26 17.4 15.6 36.9 29 9.2 6.4 19.3 11.6 15.2 7.7 37.8 18.8c8.6 4.2 14.6 8 23.5 12.5q8.2 4.4 16.8 10.4 22.1 15.7 40.9 35.8 7.3 7.8 12.7 14.8 6.4 8.5 12.4 15.2a.5.5 0 0 0 .9-.2c2-5.2 3.5-9 5-14.6l9.4-34.6q1.6-5.1 2.7-10.3 7.3-32.3 10.7-65 6.2-59-5.2-114.7-5.4-25.9-14-47-8.6-21.3-22.7-46.4a271 271 0 0 0-43-57.5q-11.6-11.8-31.1-26.7a217 217 0 0 0-34.4-21q-31.7-15.3-68-21.5c-22.7-3.9-45.5-2-68 1q-3.3.5-6.5 1.6-16.6 4-32 11.2-7.7 3.6-14.7 8.5a64 64 0 0 0-25 43q-1.2-10.8 2.5-21a42 42 0 0 1 12-16.4q8.2-8 13.3-11 9.4-5.6 24.3-11.6c6.8-2.8 15.5-3.7 22-6.1q5.6-2.2 13.2-2.6l29-1.9c10.2-.7 24 .6 36.2 3.2q16.2 3.4 24.6 6 7.8 2.3 23.8 8.3 14 5.4 29.2 14.5a350 350 0 0 1 37.7 27.3c9.2 7.3 18.2 16.3 25.3 24q1.2 1.3 2.7 4l2.7 4q13.3 17.2 17.4 24 18.7 31.6 28.3 52.8 9.3 20.6 16 47.5 7 28.5 9 58 0 1.9-1.2 13c-1 8.5 1.5 20.3 1.2 29.1q-.7 18-2.2 26.8-2.5 15-3 20.1c-1 13-3.6 26.5-5.8 37.2-2 9-2.7 18-5.3 26.4q-4.3 13.5-7.1 25c-2 7.8-8.1 21.3-17.6 10.6-3.3-3.8-7.6-11-11.9-15.9-2.3-2.6-4.3-5.2-7-7.8q-5.8-5.5-12.3-12.2c-5.2-5.2-10.7-8.7-15.9-13.7q-5.9-5.8-12.4-9.8-13-8-18.6-10.9-5.9-3-13.5-7.6-6.2-3.8-14.1-7.3-16.4-7.2-29.8-13.7a96 96 0 0 1-17.8-10.8c-6.5-5.2-13.7-9.6-20.8-15.1a215 215 0 0 1-21.7-18.6c-8.8-9-15-14.7-25.5-25q-5.8-5.5-9.9-11c-4.3-5.7-9.3-11-14.3-17.3-11.5-14.4-18.8-23.5-26-35l-10.2-15.9q-6.9-10.3-12-21c-4-8.7-11-19.2-14.6-27q-8-17.6-14.3-36.7-2.8-8.5-5-18c-1.6-7.2-1-15.3-.8-22.9"/></g></svg>