<svg xmlns="http://www.w3.org/2000/svg" viewBox="0 0 1110 1569"><g fill="none" stroke-width="2"><path stroke="#24283c" d="M746.6 1569a703 703 0 0 0 150.7-26.2q25-7.3 52.5-18.2a481 481 0 0 0 51.7-23.4l18.1-9.6q5.9-3 8-5.3 6.5-7.5 3.4-18.7l-4-14q-1.7-5.3-3.9-14-3.8-15-8-29.5l-3.3-11q-3.8-12.5-8.6-31.7a7 7-44.8 0 1 0-3c6.7-25.9 12-51.6 15-78.7q2.3-20.4 2-39c-.5-25-4.7-47.7-10-77-2.1-11-3.8-19.2-1.6-28q4-15.3 10-35.3 5.1-17.2 10-43.3 4-21.6 3.2-42.3-.7-19-2-29.5a762 762 0 0 0-12.2-69l-2-8-2-8a2.1 2-29.4 0 1 .5-1.9q8.5-8.7 16.4-18.1 6.3-7.4 15.4-23 8.7-14.8 13.8-33.4 6.3-23.1 8.2-41.4 2.3-22.2 2-40.2-1.5-70.4-21.8-137a628 628 0 0 0-29.1-75.5q-10.6-23-29.3-55.7-3.4-6-5.7-9.3-14-21.2-23.2-34.3-7-10-22.3-29.9a2.5 1.8 81.7 0 0-.3-.3q-1.1-1-1.8-2c-1-2-2-2.7-3-4.1l-1.4-1.9q-23-26-35.5-39.6c-6.4-7-15.2-15.3-19.8-20q-4.3-4.2-6.8-9.1a295 295 0 0 0-18.2-33q-16.8-25.3-36.2-46a260 260 0 0 0-65.8-49.3q-22.4-12.2-45.7-19-16.2-4.9-31-8a5 5 74.5 0 1-2.6-1.4q-6.1-6.7-15.7-16-4-3.9-6-5.4l-6.4-5.3q-5.4-4.8-9.6-8-20.4-15.4-45.2-29.2-31.4-17.4-62.7-28.5-47.4-17-95.5-23.3c-35.2-4.6-70.4-3.5-102.6 9q-13.4 5.3-27.6 14.3c-6.7 4.3-11.8 7.3-14.8 12.8-5.6 10.3-9.2 18-14.2 27.6a777 777 0 0 1-56.6 89.4q-17.5 24.3-24.3 35-21.8 34.7-31 51.7-12.3 23.2-18.4 36-12.5 27-25.2 60.3-4.7 12.3-12 35-13.8 43.4-22.2 87a695 695 0 0 0-2.9 244q5.3 32.5 11.7 61.6l6.5 29.4q8 36.4 17.6 71 11.5 41.6 16.3 57.8 10.9 36.7 25 76.6c6.2 17.8 12.2 36.9 19.1 56 6.6 18 14.7 38.9 22.9 62.4l13 37.1q10.4 31.1 19.5 66.8 13.8 54.3 20.5 105.3 4.6 35.2 5.6 66.5.5 19 0 29.7c-.6 12-1 22.7 13 26.8q35.8 10.3 44.2 12.5 44.4 11.8 92.8 22 45.1 9.4 94 16 61.7 8.3 124 12.2" vector-effect="non-scaling-stroke"/><path stroke="#626c89" d="M329.5 95.8q-9 4-16.5 8.8-3.3 2-5.3 6.2-8 16.7-22.9 42.8-13.3 23.3-34.7 53.6Q222 247 209 268q-16.8 26.9-31 54c-17 32.2-32 67.7-43.6 101.5Q114.7 481 105 541a643 643 0 0 0-6.5 145.8q1.9 26.5 4 43c7.6 58.6 20.4 114 36.2 175" vector-effect="non-scaling-stroke"/><path stroke="#535c7b" d="M138.7 904.8q11.6 43.7 22.8 79.5 21.8 69.4 48 141 13.8 37.7 27.6 78.6 9.3 27.5 13.9 44 11.6 42.3 20 83.5c3.7 18.4 5.6 35 8 53.7q5.7 46.5 5 95.3a1 1 8 0 0 1 1.2l47.8 12.6q51.5 13.2 103.2 23" vector-effect="non-scaling-stroke"/><path stroke="#47506f" d="M436 1517.1q76.5 14.1 152 20a.5.5 0 0 0 .4-.8q-31.8-55.6-44.6-119.7c-1.1-5.7-8.5-13-12-18.8-10.2-18-12.4-38.9-16.1-59q-1.7-8.5-5.3-15.9-5-10.7-11-22-12.4-23.4-23.4-42.7a329 329 0 0 1-19.4-39.1q-9-22.3-10.8-26.4-17-36-42.7-73l-20.2-29.1a474 474 0 0 1-48.3-91.2q-8.3-20.1-16.8-48.3-20.1-66.2-26-132.7c-1.3-15.5-1.4-32.2-2-47.9a.7.7 0 0 0-1.2-.5L262 791.8" vector-effect="non-scaling-stroke"/><path stroke="#535c7b" d="M262 791.8q-17 12.3-32.8 19.7-15 7-37.2 13.3-5.7 1.6-17.4 2.3h-.4q3.3-2.5 5.4-2.4" vector-effect="non-scaling-stroke"/><path stroke="#47506f" d="M179.6 824.8q21.3-11 40.9-22.8a184 184 0 0 0 49.6-46.1q3.4-4.4 6.7-9.7l6.3-10c3.3-5.7 6.5-10.9 7.1-15.7q5.3-39.4 7.3-77.7 1.4-28.3-.7-54.3-1.4-16-10.6-30.2-5.2-8.2-6.5-10.5a222 222 0 0 1-23.3-139q1.2-8.3 3.8-16a.3.3 0 0 1 .6 0q.5 2.3.6 3.7.9 13.3 1.7 21.7 4.5 45.3 22.6 86.9 9.6 22 23 40.4a234 234 0 0 0 55.2 53.7q15.3 10.6 25.5 16.4 20.3 11.5 44.6 22.1 12.5 5.5 46.1 18.8l42.4 16.6q10.9 4.1 20.5 8.4l20.3 9c4.1 1.4 7.7 3.6 12.4 5.9a.4.4 0 0 0 .5-.7c-2.9-3-6-6.1-8.2-8.9q-9-10.7-17.5-21.7-9-11.7-22.4-33.2-7-11.3-12.5-22.4" vector-effect="non-scaling-stroke"/><path stroke="#535c7b" d="M515.7 609.5q-15.1-28.5-18.9-37.4-14.3-34-24.2-66.7-8-26.6-13-56-1-7-1.5-12.1a.3.3 0 0 1 .6-.2l8.8 23" vector-effect="non-scaling-stroke"/><path stroke="#47506f" d="M467.5 460.2q8 24.1 13.7 38.4 10.2 25.3 26.6 56.4 9.2 17.7 12 22.6a547 547 0 0 0 70.9 99.4q7.6 8.4 11.3 12.2 7.1 7 19.5 18.4a358 358 0 0 0 40.4 32c5.5 3.8 19.7 12.4 30 19.9l9.2 6.2 11.6 8.1q7 5 11.2 9l17.2 15.6q2 1.8 3-.3 11.2-22.6 19.3-47.6 6.6-20.2 11.1-36.2a549 549 0 0 0 14.8-66.5q2.8-17.8 4.5-31 3.9-29.5 3.4-59.4" vector-effect="non-scaling-stroke"/><path stroke="#535c7b" d="M797.2 557.4q0-12.5-1-33.9-1-25.3-2.2-35.3a1 1 81.7 0 1 .5-.8.4.4 0 0 1 .5.3q6 20.4 10.7 44 1.9 9.4 2.7 17.2c2.3 22.3 2.6 44.5 2 69.4" vector-effect="non-scaling-stroke"/><path stroke="#47506f" d="m810.4 618.3-.9 17c-.2 5.9-1 11-1.2 16.5q-.2 5-1.4 12.3c-2.4 15.7-4.4 32.1-9 48l.5.7q.3 0 .6-.3 10.4-12.2 19.7-27 20.9-33 34.4-68.9 4.6-12.2 6.7-18.7 4.3-13.3 9-33.4 5.6-25 7.1-52.2.5-9.2.4-12.5" vector-effect="non-scaling-stroke"/><path stroke="#535c7b" d="M876.3 499.8v-1.6" vector-effect="non-scaling-stroke"/><path stroke="#626c89" d="M876.2 498.2q1.2-27.2-2.8-53.7-4.5-30-12.9-58.5-3.6-12.4-10.7-30.2-9.6-24.1-21.7-43.4-12.3-19.5-30.8-39.7-9.6-10.6-21.7-20.2-13.7-11-24-17.5a269 269 0 0 0-81.6-33l-2-.3a.6.6 0 0 0-.3 1.1q10.8 7.4 19.9 16 13.4 12.6 24.3 25.6" vector-effect="non-scaling-stroke"/><path stroke="#535c7b" d="M712 244.5q14.1 19 23.7 37 13.6 25.8 24.3 55.6 3.1 8.7 4.7 15c3 12.1 5 20.4 5.4 31.6a.3.3 0 0 1-.7.2l-9.5-23.5q-4-9.9-15.8-31.4" vector-effect="non-scaling-stroke"/><path stroke="#626c89" d="M744 329q-4.9-10.5-7.4-15.1c-17-30.6-37-58.6-62.5-79.8a206 206 0 0 0-57-33q-11.8-4.5-24.9-4.4t-26 2.2a202 202 0 0 0-34.7 8.4q-19.8 7-34 14.7-16.4 8.8-32.5 23" vector-effect="non-scaling-stroke"/><path stroke="#535c7b" d="m465 245-13.1 10.6a.5.5-6.5 0 1-.7-.6q7.3-14.7 18.3-26.8 34.8-38 84.5-50.4l22.8-5.4q5.4-1.2 13.8-1.7c12-.7 22.8-1.8 34.3-1a.4.4 0 0 0 .4-.6c-1.8-2.3-5.7-4.9-11.4-9.4q-4.6-3.6-10-7.1-20.3-13.1-34-20.5a487 487 0 0 0-52.3-24q-8.9-3.5-34.6-10.6a418 418 0 0 0-64.4-12.8 205 205 0 0 0-61.4 2.3q-14.9 2.8-27.7 8.8" vector-effect="non-scaling-stroke"/><path stroke="#7f8eac" d="M465 245c4.1-1.3 8.3-4.2 11.5-5.5 6-2.5 11-5.4 16.8-7.3a214 214 0 0 1 48.8-11.5c25.4-2 50.5 0 75 8.7 42.1 15 78.5 42.3 107.3 76.2q.7.7 8.9 11 5 6.4 10.8 12.3M712 244.5q20.6 9.8 31.4 17.6 9.2 6.8 14.1 10.2 4.1 2.8 7.5 5.8l6.1 5.2q14.1 11.7 25.8 24.6c15 16.9 27.9 36.3 38.6 57q14.3 27.6 25.6 59 3.1 8.7 5.5 17.7 2.7 10.1 4 18l3 20.4c.8 4.9 1 11 1 14.4q.1 3.1 1.6 3.8" vector-effect="non-scaling-stroke"/><path stroke="#647292" d="M876.3 499.8c-.8 3-2.4 6.3-3.2 8.5q-6 16.4-11.5 32.8-6.5 19-17.4 38a126 126 0 0 1-33.8 39.2m-13.2-60.9q-1.1 3.1-4.2 14.3-1.8 6.8-8.5 22.6c-9.3 22-22 40-40.5 52.9q-26.5 18.4-59.4 12.7-13.1-2.3-21.2-5.1-16.5-5.6-32.8-15.1-26-15.2-48.2-34-18.8-16-32.3-30.6-15.3-16.6-21.6-24.5-19.5-24.3-35.4-48.7c-7-10.7-13.5-22.6-20.4-34.8q-2.5-4.3-5.2-7m48.2 149.4q-1.7 1.1-6.7-.5-27.3-8.8-39.8-13.4-48.5-17.8-88.3-50a304 304 0 0 1-54-55.8q-11.8-16.2-19.1-28.6-10-16.8-15.5-29.7L281 403.6c-6.4-15.6-11-31.5-11.5-48.6a.4.4-25.1 0 0-.6-.2l-.3.4c-2.8 9.4-7.8 23.2-10.6 35q-8.2 34-12.6 66.4-1.7 12.2-1.8 22.5 0 14 .2 22.5.8 25.5 7 52.3 6.3 27 9.4 42.2 5.2 24.6 4.3 49.4-1.1 31.2-8.9 59.8-5.2 19-14 39.4-3.9 8.8-7.7 15.2-10.4 17.6-19.6 28.8c-4.1 5-11.3 13.7-18.2 20.5q-7.7 7.6-16.4 15.5m82.3-32.9c1.6 19.2.6 40.2 1 54.2q.6 23.4 4 50.5a728 728 0 0 0 36.1 154q9.3 26 20.1 51.3c17.8 41.3 37.9 81.4 55.7 119.3q15.2 32.5 22.2 50.5 11.5 29.5 19.5 61.4 17.5 69.9 17.4 139.5 0 23.7-2 44.6" vector-effect="non-scaling-stroke"/><path stroke="#7f8eac" d="M138.7 904.8q.6-3.6.2-5.5-3-14.5-3.5-29.4-.2-7.3-1-12.5-4.3-27.2-7.2-63.1a1771 1771 0 0 1-6.5-99.8q-1.3-43.5 2.8-86.2 2.8-29 6.1-57 1.2-10.3 3.3-22.7 7.1-40.5 18.2-77.5 8.3-27.7 16.3-47.4A703 703 0 0 1 233.5 280q9.2-13.9 16.7-26.4l16-26.7q18-30 35.5-66.5 8.4-17.4 19.4-44.5.6-1.7 4.3-10 2.1-5 4-10.2" vector-effect="non-scaling-stroke"/><path stroke="#535c7b" d="m904.1 463.4.4 9.4q1.8 38.8-4.6 77.2-3.8 22.5-6 32.3" vector-effect="non-scaling-stroke"/><path stroke="#47506f" d="M893.9 582.3q-5.9 21.4-13 41.5-4.3 12-8.7 21.7-8.2 17.7-10 21.1-1.4 2.6-.7 4.9l14 40.5a936 936 0 0 1 15.3 49.7q8.2 29.4 19 84.1 1.4 6.8 3.5 10.5a63 63 0 0 0 39 29.9c13 3.7 28.4 6.8 39.8-1q3.7-2.4 9-9.1l8.3-10q16.5-19.5 23.2-43.7 3.6-13.2 4.8-20.7" vector-effect="non-scaling-stroke"/><path stroke="#535c7b" d="M1037.4 801.7q3.6-20 3.3-40" vector-effect="non-scaling-stroke"/><path stroke="#626c89" d="M1040.7 761.6c1.6-49-6.5-96.5-20.8-144q-11.7-39-33.2-83.5-5.2-10.6-13.1-24.4-9.9-17.1-14.1-24-7-11.1-24.4-36.4-3.8-5.6-10.6-14.4c-10.4-13.6-18.7-22.9-30.7-36.8a.5.5 0 0 0-.9.2l.1 1q3 9.8 4.8 20.2 3.3 18.4 5.3 37.6.4 3.4 1 6.3" vector-effect="non-scaling-stroke"/><path stroke="#7f8eac" d="M1040.7 761.6q-1.9-5.8-1.8-12.2v-9.5q-.4-7.3-2-14.4l-2.7-12.2q-2.3-13-8-32.5-15.6-53.6-41-104.4-16.4-32.8-38.3-62.3-7.2-9.8-17-22.5c-4.8-6.3-10.8-12.8-16.2-19.2q-2.4-2.8-9.6-9" vector-effect="non-scaling-stroke"/><path stroke="#647292" d="M1037.4 801.7c-7 .9-13.3 2.2-20.8 1.1q-4.6-.6-9.8-2.4-21.2-7.2-36.6-24-11.3-12.4-19.5-25-10.7-16.6-13.8-22-9.6-17.3-20.1-39.6-11.5-24.4-16.9-50.7-2-10-3.6-28.4-1.3-14-2.4-28.4" vector-effect="non-scaling-stroke"/><path stroke="#94435b" d="M323.7 667.2q-3.6 40.3-4.7 62.3-.6 12.2-1 48.3l.3.7q.3.4.3.8l2 38.6q.5 8 1.5 15.6c1.9 13.6 3.4 27.6 5.5 38.9q12.3 66.3 36.2 123.3 11.5 27.3 31.3 60.8 6.4 10.8 21.4 32.3 7.1 10.1 21.9 32a.3.3 30.9 0 0 .5 0v-2.3q-.8-5.5-.7-7 .2-2.3-.1-7-1.5-23.2-1-40.2.7-18.4 5.2-39 5.4-25 12.5-46.7v-1.2l-6.2-14A281 281 0 0 1 429 900q-6.8-34-8.2-66.1c-.5-9.7.2-19.3-.7-28l.3-.4h.1l.3.3q.8 5.6 2.2 11.2 9 36.2 18 67.6l7.1 23q3.7 11.7 7 20.1a276 276 0 0 0 20.4 42.7q8.3 13.6 14.5 21.8 10.2 13.5 23.3 24.4 5.6 4.8 22.7 18.3 8 6.4 18 16.4 15 15.1 24.3 31.4 5 8.9 10 20.2 12.4 28.7 19.6 59.4 5.8 25 9 40.7 1 3.9 3.7 20.7 1.6 10.3 3.8 20.6" vector-effect="non-scaling-stroke"/><path stroke="#47506f" d="M624.3 1244.2q-1.2-1.2-1.6-2.8v.1q1 6.3 3.2 12.3" vector-effect="non-scaling-stroke"/><path stroke="#9a5364" d="M626 1253.8q0 .8.3 1.4a.3.3 0 0 0 .5 0l4-12.7" vector-effect="non-scaling-stroke"/><path stroke="#9a656e" d="M630.7 1242.5q1.8-5.5 4-14.8 2-8 8.4-30.5 6.5-22.4 8.5-30.5 15.4-60.6 20.8-115.8 4.3-45 .4-91.5a442 442 0 0 0-28.4-121q-18.5-47.9-50-89.9-2.6-3.6-13.2-15.3a54 54 0 0 0-19-13c-19.5-9-36.8-17-55.6-23.9q-37.9-13.9-74.7-28.7-43-17.3-82-43.6" vector-effect="non-scaling-stroke"/><path stroke="#9a5364" d="m350 624-24.2-19.1a.3.3 0 0 0-.6.3q1.2 31.1-1.5 62" vector-effect="non-scaling-stroke"/><path stroke="#ff7d7b" d="M350 624q8.8 9 20 15.8 2.1 1.3 5.8 3.2c4.7 2.4 9.3 4.5 14.9 7.6q16 9 22.5 11.7c16.7 6.9 33 13.8 50 20.2 24.9 9.5 47.8 18 74.8 28.6q3.6 1.4 5.8 4.1 18.8 22.8 34 48.6a570 570 0 0 1 55 126.8q4 13.1 5.4 19.7 4.2 18.7 8.3 43.5 2.7 15.8 3.4 25l2 25.2q1.4 16.1 1.1 37.6-.2 22.3-.8 37.7 0 1.4-2 27.4-1 13.5-2.6 27.4-2 17.7-4.1 40.4-.6 5.8-3.7 22.5c-2 10.4-6.5 22-8.6 33-.5 2.5-1.5 4.5-2.7 6.8a4.2 4.1 59.7 0 0-.4 1.6q-.2 4.4 2.6 4.1" vector-effect="non-scaling-stroke"/><path stroke="#ac697c" d="M626 1253.8q-.1-6-1.5-11.8" vector-effect="non-scaling-stroke"/><path stroke="#f95c68" d="M624.5 1242c-.3-4.6 1.3-9 .9-13.6q-1.1-11.9-1.5-28.4-.1-8.3-3.5-32-2.1-15.2-5.1-32a333 333 0 0 0-13.1-53.3q-4.7-13.1-8.2-22.2c-4.9-12.8-11.7-25-18.9-36.9q-9.4-15.4-23.9-27.6-10.3-8.6-15-12.3-9-7.2-14.8-12.6a231 231 0 0 1-44.6-56.6c-3.4-6-7-11.8-10.2-18.3l-8.7-18c-6.7-14-10.3-24-17-41.3q-4-10.7-6-18.6-2.7-11.8-7.8-32.6c-2.5-10.3-4-21-6-31.3q-.4-2.3-1.6-13.3l-.4-2.7a.7.7 0 0 0-1.3-.2q-.3.3-.5 1-3 9.5-4.7 22-2 13-3.7 32.5c-1.3 15.3-2.2 25.1-2 36.8q.2 17.2 1 38.3.4 7.8.8 11 4.9 35.4 6.9 45.4c1.8 8.8 5 19.6 7.3 29q4.4 18.4 5.8 22.1 5 13.4 5.7 15.8.5 1.4.5 2.9a.3.3 0 0 1-.5.2q-6-4.6-7.8-6.6-5-5.5-11-11.7-10.7-10.8-17.9-23.5c-4-7.1-7.3-12.4-10.5-19.5q-4-8.6-5-11.1c-4.5-12-8.2-20.5-11.3-31q-9.2-31-12.4-47.5-4.3-21.8-8-57.2-1-9.3-3.4-46.2c-.9-13.4-.4-24.7-.5-39.9-.1-17.4 1.2-34.7 3.5-50.9q1.2-8.6 3-19.7a1.1 1 28.9 0 0-.2-.9c-4.6-4.9-10.9-9-16.2-12.5q-3.1-2-6.4-3l-.6.4q-.4 3-.4 5.4.1 22-1 46.3.2-8.8-.7-17.5-.5 15.4-3.8 30.3l-.4.3h-.3v-.1l.6-11.9" vector-effect="non-scaling-stroke"/><path stroke="#a55973" d="M624.5 1242q.4 2.9.4 5.9v-.2q-.7-1.9-.6-3.5" vector-effect="non-scaling-stroke"/><path stroke="#535c7b" d="M824.7 725.5c-7 9-14.8 18.3-21.1 27.3-7.8 11-15 21-21.4 32.5q-4 7.2-12 25.2-2.4 5.3-3.8 11.3c-1 3.5-.6 6.1.6 9.5q2.6 7.5 8.1 20.3 7.6 17.8 12.1 31.1c10 29.7 15 59.7 16 90.6q.4 14.5-1.2 26.5a.6.6 0 0 1-1.1.3q-.6-1-.8-2.3-2.5-17.8-6.4-32.3c-8.3-31.1-19-62-33.5-91.5-5-10.2-12-21.4-17.5-30.8a67 67 0 0 0-6.6-9.3l-13.4-15.1q-10.5-11-21.6-19.6-14.1-11-25.3-18.2-7.8-5.1-24.7-14.8c-6.2-3.6-13.2-7-19-10.8a.3.3 0 0 0-.6.3l.1.3a1.4.8 46 0 0 0 .2q9 14.3 16.7 27.5 17.6 30.6 28.7 64.6 16.8 51.7 22.6 107a476 476 0 0 1 .5 86q-3.2 39.4-10.7 81.1-3.6 20.6-11 48.6-2 7.1-1.5 11.8 3.4 32 12 57.4 4.6 14 13.7 29.6a140 140 0 0 0 23.9 29.2q16.3 15.8 36.4 29.4 18.3 12.3 35.9 23c27.7 17 54 36.3 78 58.4q23.5 21.8 45.7 52.4 2.9 4 5 8.7a.7.7 0 0 1-.7 1q-.4-.1-1-.6-1.7-1.4-12-11c-8.6-8.2-18.6-15.8-28-23.3q-28.3-22.3-59.6-40.4-39.1-22.6-54.5-30.5c-3-1.5-6.7-4-10.3-6.1a.3.3 0 0 0-.4.4c5.3 10.3 9.8 20.8 15.6 31.3l19 33.3q13.7 23.9 23.2 37.8 20 29.6 41.6 59.8a1 1 64.9 0 0 1 .3q26.5-6.9 53-15.7c11.5-3.9 19.7-7.5 31.9-12q8.3-3 19.7-8.6 11.2-5.5 22.3-11.2" vector-effect="non-scaling-stroke"/><path stroke="#626c89" d="m988.3 1475.4 12.4-6.8a1 1 0 0 0 .5-1.2c-10-39.2-20.5-73.5-33.8-116q-6.5-20.8-12.2-35-11.3-28.3-28.2-60.6c-9-17-19.4-33-30.4-49q-9.5-13.8-22.7-29.9c-23.1-28.3-46.6-54-71-80.1q-11-11.9-27-25.2-3.7-3-8.4-6" vector-effect="non-scaling-stroke"/><path stroke="#535c7b" d="M767.5 1065.7q-.4-1.6-.2-3.1a1 1 0 0 1 1.5-.8q10.4 4.8 20.5 11.2l18 12.1q8.8 6 17.5 12.9 19.4 15.3 33.3 26.9 3.6 3 16.6 15.5" vector-effect="non-scaling-stroke"/><path stroke="#626c89" d="m874.7 1140.5 1.1.8a.6.6-63.8 0 0 .9-.3q6-22.7 10.7-45.5a460 460 0 0 0 9.1-82.7q1.6-60.3-7.3-119-4.8-31-7.8-46.1-9.2-46.3-23-96.4a723 723 0 0 0-16.1-49.5.8.8 52.4 0 0-1.4-.2l-16.2 23.9" vector-effect="non-scaling-stroke"/><path stroke="#7f8eac" d="M874.7 1140.5c-1.1-9.7-.5-18.3.7-27.8q2.4-19.3 3.6-42.3a576 576 0 0 0-1.8-70.6q-6.7-92.3-28.5-181.7-3.9-15.8-12.1-46.6a76 76 0 0 1-3.2-21.5c0-3.5-.3-7.3.4-11q.9-5.2 1.2-10.6l-.5-.6-9.8-2.3m-57.2 340.2q.5 2.5 2.3 5c17.5 23.8 35.2 46.3 55.4 72.6q24.7 32 39 53.8 34.2 51.5 58.8 102.2 9.5 19.6 25.1 56.7 10 23.8 20.6 55.3 10.9 32.4 18.3 56 1 3.2 1.3 8" vector-effect="non-scaling-stroke"/><path stroke="#535c7b" d="m932.9 1210.7 11.6 20.2q8.4 14.3 11.6 20.3 16.8 31.6 29.2 64.4a.3.3 0 0 0 .5 0q.3-.7.4-1.9 2.8-21.2 4.6-41.2a322 322 0 0 0-3.4-70.8c-1.6-11.6-4.5-23.2-6.7-35.1q-3.4-18.1 1.5-35.6c3-10.6 6.6-21.2 9-31.8l5.3-22.4c6.4-28.1 8.4-57.9 4.7-87q-2-15.8-4.8-31-1.9-10.2-4.5-19.5" vector-effect="non-scaling-stroke"/><path stroke="#47506f" d="m992 939.3-4.5-20.8a2 2 0 0 0-2.4-1.7q-12.1 1-24.2-1-9.2-1.5-12.6-2.2-11.9-2.5-24.1-8.8-3-1.5-5.5-3.6a.4.3-77.1 0 0-.5.3q.4 1.8.6 4 2 17.5 4.4 44a565 565 0 0 1-6 138.7c-3.4 21.7-9 43.6-15 66.3q-1 3.8-2.7 8.8a3 3 0 0 0 .5 2.7q12.2 14.7 22.6 29.5c2.6 3.6 6.5 10.1 10.3 15.2" vector-effect="non-scaling-stroke"/><path stroke="#647292" d="M992 939.3q-9.2 4-15.7 11-3.4 3.8-6.8 9.9-3 5.3-5.2 10.8c-10 24.3-18 49-22.8 74.7q-8.2 43.4-10 87.7-.4 13.2.3 38.6.6 19 1 38.7" vector-effect="non-scaling-stroke"/><path stroke="#94435b" d="M461.6 1021.2q-4.2 28.8-4.4 57.8-.1 12.2 1.5 24 .5 4 .4 8.3a2.8 2.6-55.9 0 0 .2 1q.9 2.5 1.8 7.7 2 11.7 4.1 21.8 2.8 13.4 7.8 32 8.6 31.2 22.7 59.2 2.7 5.5 17 31 8.3 15 17.2 34.8l13.5 30.2" vector-effect="non-scaling-stroke"/><path stroke="#9a5364" d="M543.4 1329q3 18.9 7.8 37.5l2.6 9.7" vector-effect="non-scaling-stroke"/><path stroke="#535c7b" d="M553.8 1376.2q13.6 28.7 44 39 4.1 1.5 14 4.1" vector-effect="non-scaling-stroke"/><path stroke="#47506f" d="M611.7 1419.3q2 .9 2.6 2c1 1.8 2.6 3.6 3.7 5.3 8.1 13 13.5 22.5 21.4 32.5 14.5 18.2 29.2 33.2 42.8 50.7q8.9 11.4 14 18.8 2.1 3.2 6 7.4a.4.4 0 0 1-.5.6q-1.3-.8-2.8-2.2a5 4.7-6.6 0 0-.7-.5q-10.5-6.4-18.4-12.5-10.7-8.4-25.5-22.4-8.3-8-18.4-20.2l-17.4-21.3q-5.4-6.6-11.8-16.3a5 5 77.7 0 0-3.5-2.2q-11.9-2-19.5-3.7-2.2-.5-4.8-1.5-.7-.3-1 .3-.1.3 0 .4c2.4 10.3 5.1 22.6 9.5 33.9q6 15.8 8.4 21.4c1.4 3.4 3.3 6.6 4.2 8.8q.7 1.8 3.4 6.5c6.5 11.3 11.8 21.2 18.2 31.7q1.5 2.4 4.4 2.5c13.8.5 32 1.8 48.3 2q43 .3 84-2.2 5.8-.3 10.3-1" vector-effect="non-scaling-stroke"/><path stroke="#535c7b" d="M768.6 1538.2q23.6-2.7 29.6-3.8l24.2-3.9q15.7-2.4 30.9-6a1 1 63 0 0 .4-1.4l-4.7-5.4" vector-effect="non-scaling-stroke"/><path stroke="#47506f" d="M849 1517.7q-2.6-3.3-4-4.7-13.5-14.3-24.7-26.8-5-5.7-8.8-10.4l-17.8-22.3c-5.9-7.2-10.6-14.5-15.6-21.8-6.7-9.7-12-20.3-19.1-31.4q-1-1.6-1.1-2.3t-1.6-2.5a7.7 6.8-81.4 0 1-.5-.8q-10-18.5-14.8-30.4-4.4-10.6-9-23.1a7 7 9.6 0 0-2-2.9q-14-11.5-24.5-23.7a187 187 0 0 1-35.4-57.9c-2.8-7.6-5.1-18-7.6-27" vector-effect="non-scaling-stroke"/><path stroke="#535c7b" d="M662.5 1229.8q.1-2-.5-3.6a.3.3 0 0 0-.6 0q-4.5 15.6-9.5 31-7.7 23-12.7 46.4c-.8 4.3-.5 7.4.3 11.7q2.8 16 8.4 32.4c1.4 4 2.5 9.1 3.7 13.6q1.6 6.1 2.1 10.3 1.7 14-1.2 28" vector-effect="non-scaling-stroke"/><path stroke="#47506f" d="m652.6 1399.7-3.1 7.7a.3.3 0 0 1-.6 0c-1.4-2.1-1.7-6.8-2.4-9.4q-.8-3-1.4-7.6-.9-6.6-3-13" vector-effect="non-scaling-stroke"/><path stroke="#535c7b" d="M642 1377.5q-1-7.4-4.3-14l-9.1-17.6" vector-effect="non-scaling-stroke"/><path stroke="#9a656e" d="M628.6 1345.9q-4.9-10.9-7-18.7-2.9-10.4-6.3-28.7l-10.2-55.3q-1.9-11-5.2-26.5l-5.6-26.4q-7-28.8-19.2-67.3" vector-effect="non-scaling-stroke"/><path stroke="#94435b" d="M575.1 1123q-5-17-13.1-32.7a68 68 0 0 0-18.3-23l-7-5q-1.2-1-5-2.1" vector-effect="non-scaling-stroke"/><path stroke="#9a656e" d="m531.6 1060.2-8.9-6.7" vector-effect="non-scaling-stroke"/><path stroke="#9a5364" d="M522.8 1053.6q-23-18.3-36.5-32.9-10.4-11.1-19.7-23a.4.4 0 0 0-.7.2l-4.3 23.3" vector-effect="non-scaling-stroke"/><path stroke="#ff7d7b" d="m522.8 1053.6-3.5 2.8-.2.6q6.9 17.7 14.5 38.3l19.5 51.4q3.2 8.6 11.2 31.6 2.8 8.4 4.6 12.8c4.2 10.2 7 20 10.8 30.3l16.5 46.6q2.9 8.1 11.1 26.4 3 6.2 5 12.7l10.8 32.5c2.1 6.6 2.9 11.2.8 17.2q-4.2 11.8-16.4 15.3-22 6.3-44.9 2c-5.5-1-7-4.3-9.3-8.9l-3-6a.1.1 30.2 0 0-.2 0q.7 5.8 2.7 11t7.8 5.9c6.2.6 15.8 2.6 23.3 2.4q7.5-.1 15-1.5" vector-effect="non-scaling-stroke"/><path stroke="#b87588" d="M599 1377q-6.7 1.9-10.5 2.1-2.9.2-11 0-4.8-.2-11-1.2-6.1-1-12.7-1.7" vector-effect="non-scaling-stroke"/><path stroke="#f95c68" d="M543.4 1329q.2-1.5 1.4-.5a.3.3-62.5 0 0 .5-.1q.5-2.3.3-5.1-1-18.9-2.7-33.7a269 269 0 0 0-4.4-24.4q-5.2-23.3-12.3-49c-4-14.7-10.2-33-13.5-42.7q-3.7-11.1-8.2-22.7l-16.4-45.3c-2.2-6-3.3-11.2-5.7-17q-1.3-3-1.7-5c-.7-3-2.6-6.3-3.7-9.5q-3.8-10.7-7.4-19.5-3.5-8.7-4.2-13.5-1-7.2-1-14 0-2.3-1.3-3.8h-.7l-.3.6a.2.2-31.8 0 1-.4 0v-2.6" vector-effect="non-scaling-stroke"/><path stroke="#f96e72" d="M531.6 1060.2q24.4 22.3 35.6 53l.3.4 7.6 9.4" vector-effect="non-scaling-stroke"/><path stroke="#b88791" d="M628.6 1345.9q0 1.1-.7 1.2a1 .8 68.5 0 0-.4 1.5l.6-.2-1.5 2.7v.4q-.5 3.7-2 8-3 9.3-12 13.1-8 3.5-13.6 4.4" vector-effect="non-scaling-stroke"/><path stroke="#647292" d="M642 1377.5q0 8.5-1 17-1.3 10.9-1.3 13.4.1 5.5.5 13.6a1 1 0 0 1-1 1q-9.7.2-19.6-2.2-3.9-.8-7.9-1m50.8-189.5q-1 8.4-.3 10.6 1 3 2 8 1.1 6.4 4.2 18c1.8 7 3 13.3 5.3 20q4.2 11.6 7.6 18.5c3.9 7.8 10.4 21 16.8 30.9q3 4.9 7.4 13c6 11 12 20.3 19.3 31.3q9.6 14 18.2 25.7c3.9 5.4 7.6 9.5 10.7 14.3q2.8 4.5 7.7 10.5 10.8 13.3 15.2 18.1 9 10 27 28.9a537 537 0 0 0 37.6 35.5q1.2 1 6.2 6a.6.6 21.2 0 0 1-.5v-.3l.3-.5.3-.1m-80.4 20.5q-12.2-7.2-23.8-17c-8.1-7-16.7-14-24.1-21.3q-24.5-23.6-38.3-39.8-17.3-20.2-26.4-47c-1.5-4.3-2.3-8.9-3.5-13.4" vector-effect="non-scaling-stroke"/></g><g fill="#707e9e"><path d="M465 245c4.1-1.3 8.3-4.2 11.5-5.5 6-2.5 11-5.4 16.8-7.3a214 214 0 0 1 48.8-11.5c25.4-2 50.5 0 75 8.7 42.1 15 78.5 42.3 107.3 76.2q.7.7 8.9 11 5 6.4 10.8 12.3 11.9 21.6 15.8 31.5l9.5 23.5a.3.3 0 0 0 .7-.2c-.4-11.1-2.4-19.5-5.4-31.5q-1.6-6.4-4.7-15-10.7-29.9-24.3-55.7-9.6-18-23.7-37 20.6 9.8 31.4 17.6 9.2 6.8 14.1 10.2 4.1 2.8 7.5 5.8l6.1 5.2q14.1 11.7 25.8 24.6c15 16.9 27.9 36.3 38.6 57q14.3 27.6 25.6 59 3.1 8.7 5.5 17.7 2.7 10.1 4 18l3 20.4c.8 4.9 1 11 1 14.4q.1 3.1 1.6 3.8.2.4 0 1.6c-.7 3-2.3 6.3-3 8.5q-6 16.4-11.6 32.8-6.5 19-17.4 38a126 126 0 0 1-33.8 39.2c.6-24.9.3-47-2-69.4q-.8-7.7-2.7-17.2-4.7-23.6-10.7-44a.4.4 0 0 0-.5-.3 1 1 81.7 0 0-.5.8q1.1 10 2.3 35.3 1 21.4.9 34-1.1 3-4.2 14.2-1.8 6.8-8.5 22.6c-9.3 22-22 40-40.5 52.9q-26.5 18.4-59.4 12.7-13.1-2.3-21.2-5.1-16.5-5.6-32.8-15.1-26-15.2-48.2-34-18.8-16-32.3-30.6-15.3-16.6-21.6-24.5-19.5-24.3-35.4-48.7c-7-10.7-13.5-22.6-20.4-34.8q-2.5-4.3-5.2-7l-8.8-23a.3.3 0 0 0-.6.2q.4 5.2 1.6 12 4.8 29.5 13 56.1 9.8 32.6 24.1 66.7 3.8 9 18.8 37.4-1.6 1.1-6.6-.5-27.3-8.8-39.8-13.4-48.5-17.8-88.3-50a304 304 0 0 1-54-55.8q-11.8-16.2-19.1-28.6-10-16.8-15.5-29.7L281 403.6c-6.4-15.6-11-31.5-11.5-48.6a.4.4-25.1 0 0-.6-.2l-.3.4c-2.8 9.4-7.8 23.2-10.6 35q-8.2 34-12.6 66.4-1.7 12.2-1.8 22.5 0 14 .2 22.5.8 25.5 7 52.3 6.3 27 9.4 42.2 5.2 24.6 4.3 49.4-1.1 31.2-8.9 59.8-5.2 19-14 39.4-3.9 8.8-7.7 15.2-10.4 17.6-19.6 28.8c-4.1 5-11.3 13.7-18.2 20.5q-7.7 7.6-16.4 15.5-2.1-.1-5.4 2.4h.3q11.8-.7 17.5-2.3 22.2-6.2 37.2-13.3 15.8-7.4 32.8-19.7c1.6 19.2.6 40.2 1 54.2q.6 23.4 4 50.5a728 728 0 0 0 36.1 154q9.3 26 20.1 51.3c17.8 41.3 37.9 81.4 55.7 119.3q15.2 32.5 22.2 50.5 11.5 29.5 19.5 61.4 17.5 69.9 17.4 139.5 0 23.7-2 44.6-51.7-9.7-103.2-23-17.8-4.5-47.9-12.5a1 1 8 0 1-.8-1.2q.6-48.8-5.2-95.3c-2.3-18.7-4.2-35.3-8-53.7q-8.2-41.2-19.9-83.4-4.6-16.6-13.9-44.1-13.8-41-27.6-78.5-26.2-71.7-48-141.1-11.2-35.8-22.8-79.5.6-3.6.2-5.5-3-14.5-3.5-29.4-.2-7.3-1-12.5-4.3-27.2-7.2-63.1a1771 1771 0 0 1-6.5-99.8q-1.3-43.5 2.8-86.2 2.8-29 6.1-57 1.2-10.3 3.3-22.7 7.1-40.5 18.2-77.5 8.3-27.7 16.3-47.4a703 703 0 0 1 66-123.7q9.2-13.9 16.7-26.4l16-26.7q18-30 35.5-66.5 8.4-17.4 19.4-44.5.6-1.7 4.3-10 2.1-5 4-10.2 13-6 27.9-8.8 29.7-5.7 61.3-2.3c22.1 2.5 43 7 64.4 12.8q25.7 7 34.6 10.7A461 461 0 0 1 570 132q13.6 7.4 33.9 20.5 5.4 3.5 10 7.1c5.7 4.5 9.6 7.1 11.4 9.4a.4.4 0 0 1-.4.7c-11.5-1-22.2.2-34.4.9q-8.3.5-13.7 1.7l-22.8 5.4q-49.7 12.3-84.5 50.4-11 12-18.4 26.8a.5.5-6.5 0 0 .8.6zm575.7 516.6q.3 20.1-3.3 40.1c-7 .9-13.3 2.2-20.8 1.1q-4.6-.6-9.8-2.4-21.2-7.2-36.6-24-11.3-12.4-19.5-25-10.7-16.6-13.8-22-9.6-17.3-20.1-39.6-11.5-24.4-16.9-50.7-2-10-3.6-28.4-1.3-14-2.4-28.4 2.2-9.8 6-32.3 6.4-38.4 4.6-77.2l-.4-9.4q7.2 6.2 9.5 9c5.5 6.4 11.5 12.9 16.4 19.2l17 22.5q21.8 29.5 38.2 62.3 25.4 50.8 41 104.4 5.7 19.6 8 32.5l2.7 12.2q1.6 7 2 14.4v9.5q0 6.4 1.8 12.2"/><path d="m824.7 725.5 9.8 2.3.5.6q-.3 5.4-1.2 10.6c-.7 3.7-.4 7.5-.4 11a76 76 0 0 0 3.2 21.5q8.2 30.8 12 46.6 21.9 89.4 28.6 181.7a576 576 0 0 1 1.8 70.6q-1.2 23-3.6 42.3c-1.2 9.5-1.8 18.1-.7 27.8q-13-12.6-16.6-15.6-14-11.6-33.3-27-8.7-6.8-17.5-12.8l-18-12.1q-10.1-6.4-20.5-11.2a1 1 0 0 0-1.5.8q-.2 1.5.2 3 .5 2.6 2.3 5c17.5 24 35.2 46.4 55.4 72.7q24.7 32 39 53.8 34.2 51.5 58.8 102.2 9.5 19.6 25.1 56.7 10 23.8 20.6 55.3 10.9 32.4 18.3 56 1 3.2 1.3 8-11.1 5.8-22.3 11.3-11.4 5.6-19.7 8.6c-12.2 4.5-20.4 8.1-32 12q-26.4 8.8-53 15.7a1 1 64.9 0 1-1-.3q-21.4-30.2-41.5-59.8-9.5-14-23.2-37.8l-19-33.3c-5.8-10.5-10.3-21-15.6-31.3a.3.3 0 0 1 .4-.4c3.6 2.2 7.3 4.6 10.3 6.1q15.4 7.9 54.5 30.5 31.3 18 59.6 40.4c9.4 7.5 19.4 15 28 23.3q10.3 9.6 12 11 .6.5 1 .5a.7.7 0 0 0 .7-.9q-2.1-4.8-5-8.7-22.2-30.6-45.8-52.4a488 488 0 0 0-78-58.4 987 987 0 0 1-35.8-23q-20.1-13.6-36.4-29.4a140 140 0 0 1-24-29.2q-9-15.6-13.7-29.6-8.5-25.4-11.9-57.4-.5-4.7 1.4-11.8 7.5-28 11.1-48.6 7.5-41.7 10.7-81a476 476 0 0 0-.5-86.1q-5.8-55.3-22.6-107-11.1-34-28.7-64.6-7.6-13.2-16.6-27.5a1.4.8 46 0 1 0-.2l-.2-.3a.3.3 0 0 1 .5-.3c6 3.9 12.9 7.2 19.1 10.8Q668 776 675.8 781q11.2 7.2 25.3 18.2 11.1 8.7 21.6 19.6l13.4 15.1a67 67 0 0 1 6.6 9.3c5.4 9.4 12.6 20.6 17.5 30.8a510 510 0 0 1 33.5 91.5q3.9 14.5 6.4 32.3.2 1.2.8 2.3a.6.6 0 0 0 1.1-.3q1.6-12 1.2-26.5c-1-31-6-60.9-16-90.5q-4.5-13.4-12-31.2-5.6-12.8-8.2-20.3c-1.2-3.4-1.5-6-.6-9.5q1.4-6 3.8-11.3 8-18 12-25.2c6.4-11.4 13.6-21.5 21.4-32.5 6.3-9 14-18.2 21-27.3"/><path d="M992 939.3q2.5 9.3 4.4 19.6 2.8 15.1 4.8 30.9c3.7 29.1 1.7 58.9-4.7 87l-5.2 22.4c-2.5 10.5-6.2 21.2-9.1 31.8q-5 17.5-1.5 35.6c2.2 11.9 5.1 23.5 6.7 35 3.5 25.2 5.3 49.7 3.4 70.9q-1.8 20-4.6 41.2-.1 1.1-.4 2a.3.3 0 0 1-.5-.1q-12.4-32.8-29.2-64.4-3.2-6-11.6-20.3l-11.6-20.2-1-38.7q-.8-25.4-.3-38.6 1.7-44.3 9.9-87.7a383 383 0 0 1 22.8-74.7q2.2-5.5 5.2-10.8 3.4-6.1 6.8-9.8 6.5-7 15.6-11.1m-329.4 290.5q-1 8.4-.3 10.6 1 3 2 8 1.1 6.4 4.2 18c1.8 7 3 13.3 5.3 20q4.2 11.6 7.6 18.5c3.9 7.8 10.4 21 16.8 30.9q3 4.9 7.4 13c6 11 12 20.3 19.3 31.3q9.6 14 18.2 25.7c3.9 5.4 7.6 9.5 10.7 14.3q2.8 4.5 7.7 10.5 10.8 13.3 15.2 18.1 9 10 27 28.9a537 537 0 0 0 37.6 35.5q1.2 1 6.2 6a.6.6 21.2 0 0 1-.5v-.3l.3-.5.3-.1 4.7 5.4a1 1 63 0 1-.4 1.4q-15.2 3.6-30.9 6l-24.2 4q-6 1-29.7 3.7-12.1-7.2-23.7-17c-8.1-7-16.7-14-24.1-21.3q-24.5-23.6-38.3-39.8-17.3-20.2-26.4-47c-1.5-4.3-2.3-8.9-3.5-13.4q2.9-14 1.2-28.1-.5-4.2-2.1-10.3c-1.2-4.5-2.4-9.5-3.7-13.6q-5.6-16.5-8.4-32.4c-.8-4.3-1.1-7.4-.3-11.7q5-23.5 12.7-46.3 5-15.5 9.5-31.1a.3.3 0 0 1 .6 0q.6 1.6.5 3.6M642 1377.5q0 8.5-1 17-1.3 10.9-1.3 13.4.1 5.5.5 13.6a1 1 0 0 1-1 1q-9.7.2-19.6-2.2-3.9-.8-7.9-1-9.8-2.6-14-4-30.3-10.4-43.9-39 6.6.7 12.7 1.6 6.2 1 11 1.2 8.1.2 11 0 3.8-.2 10.5-2 5.7-1 13.6-4.5 9-3.8 12-13 1.5-4.4 2-8.1v-.4l1.6-2.6q-.6.2-.7 0a1 .8 68.5 0 1 .4-1.4q.7-.1.7-1.2l9.1 17.6q3.4 6.6 4.4 14"/></g><path fill="#121520" d="M1110 0v1569H746.6a703 703 0 0 0 150.7-26.2q25-7.3 52.5-18.2a481 481 0 0 0 51.7-23.4l18.1-9.6q5.9-3 8-5.3 6.5-7.5 3.4-18.7l-4-14q-1.7-5.3-3.9-14-3.8-15-8-29.5l-3.3-11q-3.8-12.5-8.6-31.7a7 7-44.8 0 1 0-3c6.7-25.9 12-51.6 15-78.7q2.3-20.4 2-39c-.5-25-4.7-47.7-10-77-2.1-11-3.8-19.2-1.6-28q4-15.3 10-35.3 5.1-17.2 10-43.3 4-21.6 3.2-42.3-.7-19-2-29.5a762 762 0 0 0-12.2-69l-2-8-2-8a2.1 2-29.4 0 1 .5-1.9q8.5-8.7 16.4-18.1 6.3-7.4 15.4-23 8.7-14.8 13.8-33.4 6.3-23.1 8.2-41.4 2.3-22.2 2-40.2-1.5-70.4-21.8-137a628 628 0 0 0-29.1-75.5q-10.6-23-29.3-55.7-3.4-6-5.7-9.3-14-21.2-23.2-34.3-7-10-22.3-29.9a2.5 1.8 81.7 0 0-.3-.3q-1.1-1-1.8-2c-1-2-2-2.7-3-4.1l-1.4-1.9q-23-26-35.5-39.6c-6.4-7-15.2-15.3-19.8-20q-4.3-4.2-6.8-9.1a295 295 0 0 0-18.2-33q-16.8-25.3-36.2-46a260 260 0 0 0-65.8-49.3q-22.4-12.2-45.7-19-16.2-4.9-31-8a5 5 74.5 0 1-2.6-1.4q-6.1-6.7-15.7-16-4-3.9-6-5.4l-6.4-5.3q-5.4-4.8-9.6-8-20.4-15.4-45.2-29.2-31.4-17.4-62.7-28.5-47.4-17-95.5-23.3c-35.2-4.6-70.4-3.5-102.6 9q-13.4 5.3-27.6 14.3c-6.7 4.3-11.8 7.3-14.8 12.8-5.6 10.3-9.2 18-14.2 27.6a777 777 0 0 1-56.6 89.4q-17.5 24.3-24.3 35-21.8 34.7-31 51.7-12.3 23.2-18.4 36-12.5 27-25.2 60.3-4.7 12.3-12 35-13.8 43.4-22.2 87a695 695 0 0 0-2.9 244q5.3 32.5 11.7 61.6l6.5 29.4q8 36.4 17.6 71 11.5 41.6 16.3 57.8 10.9 36.7 25 76.6c6.2 17.8 12.2 36.9 19.1 56 6.6 18 14.7 38.9 22.9 62.4l13 37.1q10.4 31.1 19.5 66.8 13.8 54.3 20.5 105.3 4.6 35.2 5.6 66.5.5 19 0 29.7c-.6 12-1 22.7 13 26.8q35.8 10.3 44.2 12.5 44.4 11.8 92.8 22 45.1 9.4 94 16 61.7 8.3 124 12.2H0V0z"/><g fill="#ff6b71"><path d="M350 624q8.8 9 20 15.8 2.1 1.3 5.8 3.2c4.7 2.4 9.3 4.5 14.9 7.6q16 9 22.5 11.7c16.7 6.9 33 13.8 50 20.2 24.9 9.5 47.8 18 74.8 28.6q3.6 1.4 5.8 4.1 18.8 22.8 34 48.6a570 570 0 0 1 55 126.8q4 13.1 5.4 19.7 4.2 18.7 8.3 43.5 2.7 15.8 3.4 25l2 25.2q1.4 16.1 1.1 37.6-.2 22.3-.8 37.7 0 1.4-2 27.4-1 13.5-2.6 27.4-2 17.7-4.1 40.4-.6 5.8-3.7 22.5c-2 10.4-6.5 22-8.6 33-.5 2.5-1.5 4.5-2.7 6.8a4.2 4.1 59.7 0 0-.4 1.6q-.2 4.4 2.6 4.1l-4 12.6-.4.1q-.4-.6-.4-1.4 0-6-1.4-11.8c-.3-4.6 1.3-9 .9-13.6q-1.1-11.9-1.5-28.4-.1-8.3-3.5-32-2.1-15.2-5.1-32a333 333 0 0 0-13.1-53.3q-4.7-13.1-8.2-22.2c-4.9-12.8-11.7-25-18.9-36.9q-9.4-15.4-23.9-27.6-10.3-8.6-15-12.3-9-7.2-14.8-12.6a231 231 0 0 1-44.6-56.6c-3.4-6-7-11.8-10.2-18.3l-8.7-18c-6.7-14-10.3-24-17-41.3q-4-10.7-6-18.6-2.7-11.8-7.8-32.6c-2.5-10.3-4-21-6-31.3q-.4-2.3-1.6-13.3l-.4-2.7a.7.7 0 0 0-1.3-.2q-.3.3-.5 1-3 9.5-4.7 22-2 13-3.7 32.5c-1.3 15.3-2.2 25.1-2 36.8q.2 17.2 1 38.3.4 7.8.8 11 4.9 35.4 6.9 45.4c1.8 8.8 5 19.6 7.3 29q4.4 18.4 5.8 22.1 5 13.4 5.7 15.8.5 1.4.5 2.9a.3.3 0 0 1-.5.2q-6-4.6-7.8-6.6-5-5.5-11-11.7-10.7-10.8-17.9-23.5c-4-7.1-7.3-12.4-10.5-19.5q-4-8.6-5-11.1c-4.5-12-8.2-20.5-11.3-31q-9.2-31-12.4-47.5-4.3-21.8-8-57.2-1-9.3-3.4-46.2c-.9-13.4-.4-24.7-.5-39.9-.1-17.4 1.2-34.7 3.5-50.9q1.2-8.6 3-19.7a1.1 1 28.9 0 0-.2-.9c-4.6-4.9-10.9-9-16.2-12.5q-3.1-2-6.4-3l-.6.4q-.4 3-.4 5.4.1 22-1 46.3.2-8.8-.7-17.5-.5 15.4-3.8 30.3l-.4.3h-.3v-.1l.6-11.9q2.7-30.9 1.5-62a.3.3 0 0 1 .6-.3z"/><path d="m522.8 1053.6-3.5 2.8-.2.6q6.9 17.7 14.5 38.3l19.5 51.4q3.2 8.6 11.2 31.6 2.8 8.4 4.6 12.8c4.2 10.2 7 20 10.8 30.3l16.5 46.6q2.9 8.1 11.1 26.4 3 6.2 5 12.7l10.8 32.5c2.1 6.6 2.9 11.2.8 17.2q-4.2 11.8-16.4 15.3-22 6.3-44.9 2c-5.5-1-7-4.3-9.3-8.9l-3-6a.1.1 30.2 0 0-.2 0q.7 5.8 2.7 11t7.8 5.9c6.2.6 15.8 2.6 23.3 2.4q7.5-.1 15-1.5-6.6 1.9-10.4 2.1-2.9.2-11 0-4.8-.2-11-1.2-6.1-1-12.7-1.7l-2.6-9.7q-4.9-18.6-7.8-37.5.2-1.5 1.4-.5a.3.3-62.5 0 0 .5-.1q.5-2.3.3-5.1-1-18.9-2.7-33.7a269 269 0 0 0-4.4-24.4q-5.2-23.3-12.3-49c-4-14.7-10.2-33-13.5-42.7q-3.7-11.1-8.2-22.7l-16.4-45.3c-2.2-6-3.3-11.2-5.7-17q-1.3-3-1.7-5c-.7-3-2.6-6.3-3.7-9.5q-3.8-10.7-7.4-19.5-3.5-8.7-4.2-13.5-1-7.2-1-14 0-2.3-1.3-3.8h-.7l-.3.6a.2.2-31.8 0 1-.4 0v-2.6l4.2-23.3a.4.4 0 0 1 .7-.2q9.3 11.9 19.7 23 13.6 14.6 36.4 32.8"/></g><path fill="#353a57" d="M746.6 1569H623.1q-62.2-3.9-124-12.2-48.8-6.6-94-16-48.3-10.2-92.7-22-8.4-2.2-44.1-12.5c-14.2-4.1-13.7-14.8-13.1-26.8q.5-10.6 0-29.7-1-31.3-5.6-66.5-6.7-51-20.5-105.3-9.1-35.7-19.6-66.8-2.6-7.8-12.9-37.1c-8.2-23.5-16.3-44.3-22.9-62.4-6.9-19.1-12.9-38.2-19.2-56q-14-39.9-24.9-76.6-4.8-16.2-16.3-57.8-9.6-34.6-17.6-71L89.2 821q-6.4-29.1-11.7-61.7a695 695 0 0 1 2.8-243.8q8.5-43.7 22.3-87 7.3-22.8 12-35 12.7-33.4 25.2-60.3 6-13 18.5-36 9.1-17.1 31-51.7 6.7-10.8 24.2-35.1a777 777 0 0 0 56.6-89.5c5-9.4 8.6-17.2 14.2-27.5 3-5.5 8.1-8.5 14.8-12.8q14.2-9 27.6-14.2c32.2-12.5 67.4-13.7 102.6-9q48.1 6.2 95.5 23.2 31.3 11.1 62.7 28.5 24.8 13.8 45.2 29.2 4.2 3.2 9.6 8l6.4 5.3q2 1.5 6 5.4 9.6 9.3 15.7 16a5 5 74.5 0 0 2.7 1.5q14.7 3 31 7.8 23.2 7 45.6 19.1a259 259 0 0 1 65.8 49.2q19.4 20.8 36.2 46c7 10.4 12.5 21.4 18.2 33q2.5 5 6.8 9.3c4.6 4.6 13.4 12.9 19.8 19.9q12.5 13.7 35.5 39.6l1.4 1.9c1 1.4 2 2 3 4q.7 1.2 1.8 2.1a2.5 1.8 81.7 0 1 .3.3q15.2 19.9 22.3 30 9.1 13 23.2 34.2 2.3 3.3 5.7 9.3 18.7 32.7 29.3 55.6c11 24 21.5 50.8 29 75.5q20.4 66.7 21.8 137.1.4 18-2 40.2-1.8 18.3-8.1 41.4-5 18.6-13.8 33.5-9.1 15.5-15.4 22.9-8 9.4-16.4 18.1a2.1 2-29.4 0 0-.5 2l2 8 2 8c5 22.8 9.5 46.1 12.3 68.9q1.2 10.4 2 29.5.7 20.7-3.3 42.3-4.9 26-10 43.3-6 20-10 35.3c-2.2 8.8-.5 17 1.5 28 5.4 29.3 9.6 52 10 77q.4 18.6-1.9 39c-3 27-8.3 52.8-15 78.6a7 7-44.8 0 0 0 3.1q4.8 19.2 8.6 31.7l3.3 11q4.2 14.5 8 29.6 2.2 8.6 3.9 14l4 13.8q3 11.3-3.4 18.8-2.1 2.4-8 5.3l-18.1 9.6a481 481 0 0 1-51.7 23.4q-27.5 10.9-52.5 18.2a703 703 0 0 1-150.7 26.2M329.5 95.8q-9 4-16.5 8.8-3.3 2-5.3 6.2-8 16.7-22.9 42.8-13.3 23.3-34.7 53.6Q222 247 209 268q-16.8 26.9-31 54c-17 32.2-32 67.7-43.6 101.5Q114.7 481 105 541a643 643 0 0 0-6.5 145.8q1.9 26.5 4 43c7.6 58.6 20.4 114 36.2 175q11.6 43.7 22.8 79.5 21.8 69.4 48 141 13.8 37.7 27.6 78.6 9.3 27.5 13.9 44 11.6 42.3 20 83.5c3.7 18.4 5.6 35 8 53.7q5.7 46.5 5 95.3a1 1 8 0 0 1 1.2l47.8 12.6q51.5 13.2 103.2 23 76.5 14 152 19.8a.5.5 0 0 0 .4-.7q-31.8-55.6-44.6-119.7c-1.1-5.7-8.5-13-12-18.8-10.2-18-12.4-38.9-16.1-59q-1.7-8.5-5.3-15.9-5-10.7-11-22-12.4-23.4-23.4-42.7a329 329 0 0 1-19.4-39.1q-9-22.3-10.8-26.4-17-36-42.7-73l-20.2-29.1a474 474 0 0 1-48.3-91.2q-8.3-20.1-16.8-48.3-20.1-66.2-26-132.7c-1.3-15.5-1.4-32.2-2-47.9a.7.7 0 0 0-1.2-.5L262 791.8q-17 12.3-32.8 19.7-15 7-37.2 13.3-5.7 1.6-17.4 2.3h-.4q3.3-2.5 5.4-2.4Q201 814 220.5 802a184 184 0 0 0 49.6-46.1q3.4-4.4 6.7-9.7l6.3-10c3.3-5.7 6.5-10.9 7.1-15.7q5.3-39.4 7.3-77.7 1.4-28.3-.7-54.3-1.4-16-10.6-30.2-5.2-8.2-6.5-10.5a222 222 0 0 1-23.3-139q1.2-8.3 3.8-16a.3.3 0 0 1 .6 0q.5 2.3.6 3.7.9 13.3 1.7 21.7 4.5 45.3 22.6 86.9 9.6 22 23 40.4a234 234 0 0 0 55.2 53.7q15.3 10.6 25.5 16.4 20.3 11.5 44.6 22.1 12.5 5.5 46.1 18.8l42.4 16.6q10.9 4.1 20.5 8.4l20.3 9c4.1 1.4 7.7 3.6 12.4 5.9a.4.4 0 0 0 .5-.7c-2.9-3-6-6.1-8.2-8.9q-9-10.7-17.5-21.7-9-11.7-22.4-33.2-7-11.3-12.5-22.4-15-28.5-18.8-37.4-14.3-34-24.2-66.7-8-26.6-13-56-1-7-1.5-12.1a.3.3 0 0 1 .6-.2l8.8 23q8 24.2 13.7 38.5 10.2 25.3 26.6 56.4 9.2 17.7 12 22.6a547 547 0 0 0 70.9 99.4q7.6 8.4 11.3 12.2 7.1 7 19.5 18.4a358 358 0 0 0 40.4 32c5.5 3.8 19.7 12.4 30 19.9l9.2 6.2 11.6 8.1q7 5 11.2 9l17.2 15.6q2 1.8 3-.3 11.2-22.6 19.3-47.6 6.6-20.2 11.1-36.2a549 549 0 0 0 14.8-66.5q2.8-17.8 4.5-31 3.9-29.5 3.4-59.4 0-12.5-1-33.9-1-25.3-2.2-35.3a1 1 81.7 0 1 .5-.8.4.4 0 0 1 .5.3q6 20.4 10.7 44 1.9 9.4 2.7 17.2c2.3 22.3 2.6 44.5 2 69.4l-.9 17c-.2 5.9-1 11-1.2 16.5q-.2 5-1.4 12.3c-2.4 15.7-4.4 32.1-9 48l.5.7q.3 0 .6-.3 10.4-12.2 19.7-27 20.9-33 34.4-68.9 4.6-12.2 6.7-18.7 4.3-13.3 9-33.4 5.6-25 7.1-52.2.5-9.2.4-12.5v-1.6q1-27.2-2.9-53.7-4.5-30-12.9-58.5-3.6-12.4-10.7-30.2-9.6-24.1-21.7-43.4-12.3-19.5-30.8-39.7-9.6-10.6-21.7-20.2-13.7-11-24-17.5a269 269 0 0 0-81.6-33l-2-.3a.6.6 0 0 0-.3 1.1q10.8 7.4 19.9 16 13.4 12.6 24.3 25.6 14.1 19 23.7 37 13.6 25.8 24.3 55.6 3.1 8.7 4.7 15c3 12.1 5 20.4 5.4 31.6a.3.3 0 0 1-.7.2l-9.5-23.5q-4-9.9-15.8-31.4-5-10.5-7.5-15.1c-17-30.6-37-58.6-62.5-79.8a206 206 0 0 0-57-33q-11.8-4.5-24.9-4.4t-26 2.2a202 202 0 0 0-34.7 8.4q-19.8 7-34 14.7-16.4 8.8-32.5 23l-13.1 10.6a.5.5-6.5 0 1-.7-.6q7.3-14.7 18.3-26.8 34.8-38 84.5-50.4l22.8-5.4q5.4-1.2 13.8-1.7c12-.7 22.8-1.8 34.3-1a.4.4 0 0 0 .4-.6c-1.8-2.3-5.7-4.9-11.4-9.4q-4.6-3.6-10-7.1-20.3-13.1-34-20.5a487 487 0 0 0-52.3-24q-8.9-3.5-34.6-10.6a418 418 0 0 0-64.4-12.8 205 205 0 0 0-61.4 2.3q-14.9 2.8-27.7 8.8M904 463.4l.4 9.4q1.8 38.8-4.6 77.2-3.8 22.5-6 32.3-5.9 21.4-13 41.5-4.3 12-8.7 21.7-8.2 17.7-10 21.1-1.4 2.6-.7 4.9l14 40.5a936 936 0 0 1 15.3 49.7q8.2 29.4 19 84.1 1.4 6.8 3.5 10.5a63 63 0 0 0 39 29.9c13 3.7 28.4 6.8 39.8-1q3.7-2.4 9-9.1l8.3-10q16.5-19.5 23.2-43.7 3.6-13.2 4.8-20.7 3.6-20 3.3-40a447 447 0 0 0-20.8-144.2q-11.7-38.8-33.2-83.4-5.2-10.6-13.1-24.4-9.9-17.1-14.1-24-7-11.1-24.4-36.4-3.8-5.6-10.6-14.4c-10.4-13.6-18.7-22.9-30.7-36.8a.5.5 0 0 0-.9.2l.1 1q3 9.8 4.8 20.2 3.3 18.4 5.3 37.6.4 3.4 1 6.3M323.7 667.2q-3.6 40.3-4.7 62.3-.6 12.2-1 48.3l.3.7q.3.4.3.8l2 38.6q.5 8 1.5 15.6c1.9 13.6 3.4 27.6 5.5 38.9q12.3 66.3 36.2 123.3 11.5 27.3 31.3 60.8 6.4 10.8 21.4 32.3 7.1 10.1 21.9 32a.3.3 30.9 0 0 .5 0v-2.3q-.8-5.5-.7-7 .2-2.3-.1-7-1.5-23.2-1-40.2.7-18.4 5.2-39 5.4-25 12.5-46.7v-1.2l-6.2-14A281 281 0 0 1 429 900q-6.8-34-8.2-66.1c-.5-9.7.2-19.3-.7-28l.3-.4h.1l.3.3q.8 5.6 2.2 11.2 9 36.2 18 67.6l7.1 23q3.7 11.7 7 20.1a276 276 0 0 0 20.4 42.7q8.3 13.6 14.5 21.8 10.2 13.5 23.3 24.4 5.6 4.8 22.7 18.3 8 6.4 18 16.4 15 15.1 24.3 31.4 5 8.9 10 20.2 12.4 28.7 19.6 59.4 5.8 25 9 40.7 1 3.9 3.7 20.7 1.6 10.3 3.8 20.6-1.2-1.2-1.6-2.8v.1q1 6.3 3.2 12.3 0 .8.4 1.4a.3.3 0 0 0 .5 0l4-12.7q1.7-5.5 3.9-14.8 2-8 8.4-30.5 6.5-22.4 8.5-30.5 15.4-60.6 20.8-115.8 4.3-45 .4-91.5a442 442 0 0 0-28.4-121q-18.5-47.9-50-89.9-2.6-3.6-13.2-15.3a54 54 0 0 0-19-13c-19.5-9-36.8-17-55.6-23.9q-37.9-13.9-74.7-28.7-43-17.3-82-43.6L325.9 605a.3.3 0 0 0-.6.3q1.2 31.1-1.5 62m501 58.3c-7 9-14.8 18.3-21.1 27.3-7.8 11-15 21-21.4 32.5q-4 7.2-12 25.2-2.4 5.3-3.8 11.3c-1 3.5-.6 6.1.6 9.5q2.6 7.5 8.1 20.3 7.6 17.8 12.1 31.1c10 29.7 15 59.7 16 90.6q.4 14.5-1.2 26.5a.6.6 0 0 1-1.1.3q-.6-1-.8-2.3-2.5-17.8-6.4-32.3c-8.3-31.1-19-62-33.5-91.5-5-10.2-12-21.4-17.5-30.8a67 67 0 0 0-6.6-9.3l-13.4-15.1q-10.5-11-21.6-19.6-14.1-11-25.3-18.2-7.8-5.1-24.7-14.8c-6.2-3.6-13.2-7-19-10.8a.3.3 0 0 0-.6.3l.1.3a1.4.8 46 0 0 0 .2q9 14.3 16.7 27.5 17.6 30.6 28.7 64.6 16.8 51.7 22.6 107a476 476 0 0 1 .5 86q-3.2 39.4-10.7 81.1-3.6 20.6-11 48.6-2 7.1-1.5 11.8 3.4 32 12 57.4 4.6 14 13.7 29.6a140 140 0 0 0 23.9 29.2q16.3 15.8 36.4 29.4 18.3 12.3 35.9 23c27.7 17 54 36.3 78 58.4q23.5 21.8 45.7 52.4 2.9 4 5 8.7a.7.7 0 0 1-.7 1q-.4-.1-1-.6-1.7-1.4-12-11c-8.6-8.2-18.6-15.8-28-23.3q-28.3-22.3-59.6-40.4-39.1-22.6-54.5-30.5c-3-1.5-6.7-4-10.3-6.1a.3.3 0 0 0-.4.4c5.3 10.3 9.8 20.8 15.6 31.3l19 33.3q13.7 23.9 23.2 37.8 20 29.6 41.6 59.8a1 1 64.9 0 0 1 .3q26.5-6.9 53-15.7c11.5-3.9 19.7-7.5 31.9-12q8.3-3 19.7-8.6 11.2-5.5 22.3-11.2l12.4-6.8a1 1 0 0 0 .5-1.2c-10-39.2-20.5-73.5-33.8-116q-6.5-20.8-12.2-35-11.3-28.3-28.2-60.6c-9-17-19.4-33-30.4-49q-9.5-13.8-22.7-29.9c-23.1-28.3-46.6-54-71-80.1q-11-11.9-27-25.2-3.7-3-8.4-6-.4-1.5-.2-3a1 1 0 0 1 1.5-.8q10.4 4.8 20.5 11.2l18 12.1q8.8 6 17.5 12.9 19.4 15.3 33.3 26.9 3.6 3 16.6 15.5l1.1.9a.6.6-63.8 0 0 .9-.3q6-22.7 10.7-45.5a460 460 0 0 0 9.1-82.7q1.6-60.3-7.3-119-4.8-31-7.8-46.1-9.2-46.3-23-96.4a723 723 0 0 0-16.1-49.5.8.8 52.4 0 0-1.4-.2zM933 1210.8l11.6 20.2q8.4 14.3 11.6 20.3 16.8 31.6 29.2 64.4a.3.3 0 0 0 .5 0q.3-.7.4-1.9 2.8-21.2 4.6-41.2a322 322 0 0 0-3.4-70.8c-1.6-11.6-4.5-23.2-6.7-35.1q-3.4-18.1 1.5-35.6c3-10.6 6.6-21.2 9-31.8l5.3-22.4c6.4-28.1 8.4-57.9 4.7-87q-2-15.8-4.8-31-1.9-10.2-4.5-19.5l-4.4-20.8a2 2 0 0 0-2.4-1.7q-12.1 1-24.2-1-9.2-1.5-12.6-2.2-11.9-2.5-24.1-8.8-3-1.5-5.5-3.6a.4.3-77.1 0 0-.5.3q.4 1.8.6 4 2 17.5 4.4 44a565 565 0 0 1-6 138.7c-3.4 21.7-9 43.6-15 66.3q-1 3.8-2.7 8.8a3 3 0 0 0 .5 2.7q12.2 14.7 22.6 29.5c2.6 3.6 6.5 10.1 10.3 15.2m-471.3-189.5q-4.2 28.8-4.4 57.8-.1 12.2 1.5 24 .5 4 .4 8.3a2.8 2.6-55.9 0 0 .2 1q.9 2.5 1.8 7.7 2 11.7 4.1 21.8 2.8 13.4 7.8 32 8.6 31.2 22.7 59.2 2.7 5.5 17 31 8.3 15 17.2 34.8l13.5 30.2q3 18.9 7.8 37.5l2.6 9.7q13.6 28.7 44 39 4.1 1.5 14 4.1 1.8.9 2.5 2c1 1.8 2.6 3.6 3.7 5.3 8.1 13 13.5 22.5 21.4 32.5 14.5 18.2 29.2 33.2 42.8 50.7q8.9 11.4 14 18.8 2.1 3.2 6 7.4a.4.4 0 0 1-.5.6q-1.3-.8-2.8-2.2a5 4.7-6.6 0 0-.7-.5q-10.5-6.4-18.4-12.5-10.7-8.4-25.5-22.4-8.3-8-18.4-20.2l-17.4-21.3q-5.4-6.6-11.8-16.3a5 5 77.7 0 0-3.5-2.2q-11.9-2-19.5-3.7-2.2-.5-4.8-1.5-.7-.3-1 .3-.1.3 0 .4c2.4 10.3 5.1 22.6 9.5 33.9q6 15.8 8.4 21.4c1.4 3.4 3.3 6.6 4.2 8.8q.7 1.8 3.4 6.5c6.5 11.3 11.8 21.2 18.2 31.7q1.5 2.4 4.4 2.5c13.8.5 32 1.8 48.3 2q43 .3 84-2.2 5.8-.3 10.3-1 23.6-2.6 29.6-3.7l24.2-3.9q15.7-2.4 30.9-6a1 1 63 0 0 .4-1.4l-4.7-5.4q-2.6-3.3-4-4.7-13.5-14.3-24.7-26.8-5-5.7-8.8-10.4l-17.8-22.3c-5.9-7.2-10.6-14.5-15.6-21.8-6.7-9.7-12-20.3-19.1-31.4q-1-1.6-1.1-2.3t-1.6-2.5a7.7 6.8-81.4 0 1-.5-.8q-10-18.5-14.8-30.4-4.4-10.6-9-23.1a7 7 9.6 0 0-2-2.9q-14-11.5-24.5-23.7a187 187 0 0 1-35.4-57.9c-2.8-7.6-5.1-18-7.6-27q.1-2-.5-3.5a.3.3 0 0 0-.6 0q-4.5 15.6-9.5 31-7.7 23-12.7 46.4c-.8 4.3-.5 7.4.3 11.7q2.8 16 8.4 32.4c1.4 4 2.5 9.1 3.7 13.6q1.6 6.1 2.1 10.3 1.7 14-1.2 28l-3 7.8a.3.3 0 0 1-.6 0c-1.4-2.1-1.7-6.8-2.4-9.4q-.8-3-1.4-7.6-.9-6.6-3-13-1-7.3-4.4-13.9l-9.1-17.6q-4.9-10.9-7-18.7-2.9-10.4-6.3-28.7l-10.2-55.3q-1.9-11-5.2-26.5l-5.6-26.4q-7-28.8-19.2-67.3-5-17-13.1-32.7a68 68 0 0 0-18.3-23l-7-5q-1.2-1-5-2.1l-9-6.7q-22.8-18.2-36.4-32.8-10.4-11.1-19.7-23a.4.4 0 0 0-.7.2z"/><g fill="#586686"><path d="M515.7 609.5Q521 620.6 528 632q13.4 21.5 22.4 33.1 8.5 11 17.5 21.8c2.3 2.8 5.4 6 8.2 8.9a.4.4 0 0 1-.5.7c-4.7-2.3-8.3-4.5-12.4-6q-3.4-1.3-20.3-8.9-9.6-4.3-20.5-8.4L480 656.6q-33.6-13.3-46-18.8-24.4-10.6-44.7-22-10.2-5.9-25.5-16.5a234 234 0 0 1-55.1-53.7q-13.5-18.5-23-40.4-18.2-41.6-22.7-86.9-.9-8.4-1.7-21.7-.1-1.4-.6-3.6a.3.3 0 0 0-.6 0q-2.6 7.6-3.8 16c-6.7 47.7-.1 96.6 23.3 139l6.5 10.4q9.2 14.3 10.6 30.2 2.1 26 .7 54.3-2 38.3-7.3 77.7c-.6 4.8-3.8 10-7 15.6l-6.4 10q-3.3 5.4-6.7 9.8a184 184 0 0 1-49.6 46q-19.6 12-40.9 22.9 8.7-8 16.4-15.6c6.8-6.8 14-15.5 18.2-20.5q9.2-11.2 19.7-28.8 3.7-6.4 7.5-15.2 9-20.5 14.1-39.4 7.8-28.6 8.9-59.8.9-24.8-4.3-49.4-3.2-15.2-9.4-42.2-6.2-26.8-7-52.3-.3-8.6-.2-22.5.1-10.3 1.8-22.5 4.4-32.5 12.6-66.4c2.8-11.8 7.8-25.6 10.6-35l.3-.4a.4.4-25.1 0 1 .6.2c.4 17 5.1 33 11.5 48.6l11.4 27.8q5.4 13 15.5 29.8 7.3 12.4 19.1 28.6a304 304 0 0 0 54 55.8q39.8 32.2 88.3 50 12.5 4.6 39.8 13.4 5 1.6 6.6.5m281.7-52.2q.4 30-3.4 59.4-1.7 13.2-4.5 31a549 549 0 0 1-14.8 66.5q-4.5 16-11 36.2-8.2 25-19.4 47.6-1 2.1-3 .3L724 782.7q-4.3-4-11.2-8.9-7-5-11.6-8-4.8-3.2-9.1-6.3c-10.4-7.5-24.6-16.1-30.1-19.9-13-8.9-27.2-19.8-40.4-32Q609 696.2 602 689.2q-3.7-3.8-11.3-12.2a547 547 0 0 1-71-99.4l-12-22.6q-16.3-31.1-26.5-56.4-5.8-14.3-13.7-38.4 2.7 2.6 5.2 6.9c7 12.2 13.4 24.1 20.4 34.8q16 24.4 35.4 48.7 6.3 8 21.6 24.5 13.5 14.6 32.3 30.6 22.2 18.8 48.2 34 16.3 9.5 32.8 15.1 8 2.8 21.2 5 33 5.8 59.4-12.6c18.4-13 31.2-31 40.5-52.9q6.7-15.8 8.5-22.6 3-11.2 4.2-14.3m79.1-57.6q.1 3.3-.4 12.4-1.5 27.3-7.2 52.3-4.6 20-9 33.4-2 6.5-6.6 18.7-13.5 36-34.4 69-9.3 14.7-19.7 26.9-.3.3-.6.3l-.5-.7c4.6-15.9 6.6-32.3 9-48q1.2-7.4 1.4-12.3c.2-5.5 1-10.6 1.2-16.4l.9-17.1a125 125 0 0 0 33.8-39.3q10.9-18.9 17.4-38 5.6-16.3 11.5-32.7c.8-2.2 2.4-5.6 3.2-8.5m17.6 82.5q1.1 14.5 2.4 28.5 1.6 18.4 3.6 28.3 5.4 26.3 16.9 50.7 10.5 22.3 20.1 39.6 3 5.4 13.8 22 8.2 12.6 19.5 25 15.4 16.8 36.6 24 5.2 1.8 9.8 2.4c7.5 1.1 13.8-.2 20.8-1q-1.2 7.4-4.8 20.6-6.7 24.2-23.2 43.8-6 7-8.3 9.9-5.3 6.7-9 9.1c-11.4 7.8-26.8 4.7-39.9 1a63 63 0 0 1-39-29.9q-2-3.7-3.4-10.5-10.8-54.6-19-84.1a908 908 0 0 0-15.3-49.7l-14-40.5q-.7-2.3.7-4.9 1.8-3.4 10-21 4.4-9.8 8.7-21.8 7.1-20.1 13-41.5"/><path d="M436 1517.1q2-21 2-44.6.1-69.6-17.4-139.5-8-31.9-19.5-61.5-7-17.9-22.2-50.4c-17.8-37.9-38-78-55.6-119.3q-10.9-25.2-20.2-51.3a728 728 0 0 1-36-154q-3.5-27.1-4.1-50.5c-.4-14 .6-35-1-54.2l26.6-21.8a.7.7 0 0 1 1.1.5c.7 15.7.8 32.4 2.2 48q5.8 66.4 25.9 132.6 8.5 28.2 16.8 48.3c13 32.1 28.7 62.7 48.3 91.2l20.2 29q25.8 37.2 42.7 73.1 1.9 4.1 10.8 26.4c4.5 11.4 12 26.2 19.3 39.2q11 19.2 23.5 42.6 6 11.3 11 22a65 65 0 0 1 5.3 16c3.6 20 6 40.8 16.2 58.8 3.4 6 10.8 13.2 12 18.9q12.7 64 44.5 119.7a.5.5 0 0 1-.5.8c-50-4-101-10.5-152-20M992 939.3q-9.2 4-15.7 11-3.4 3.8-6.8 9.9-3 5.3-5.2 10.8c-10 24.3-18 49-22.8 74.7q-8.2 43.4-10 87.7-.4 13.2.3 38.6.6 19 1 38.7c-3.7-5-7.6-11.6-10.1-15.2q-10.5-14.8-22.7-29.5a3 3 0 0 1-.5-2.7q1.7-5 2.7-8.8a646 646 0 0 0 15-66.3c7.3-46 10.1-92 6-138.7q-2.4-26.5-4.4-44-.2-2.2-.6-4a.4.3-77.1 0 1 .5-.3q2.5 2.1 5.5 3.6 12.2 6.4 24 8.8l12.7 2.2q12.1 2 24.2 1a2 2 0 0 1 2.4 1.7zm-143 578.4-.3.1-.3.5v.3a.6.6 21.2 0 1-1 .5q-5-5-6.2-6a537 537 0 0 1-37.6-35.5q-18-18.8-27-28.9-4.4-4.8-15.2-18-4.9-6.1-7.7-10.6c-3-4.8-6.8-8.9-10.7-14.3q-8.6-11.8-18.2-25.7c-7.3-11-13.4-20.2-19.3-31.4q-4.3-8-7.5-12.9c-6.3-10-12.9-23-16.7-30.9q-3.4-6.9-7.6-18.6c-2.3-6.6-3.5-12.9-5.3-20q-3.1-11.5-4.3-17.9-.9-5-2-8-.7-2.2.4-10.6c2.5 9 4.8 19.3 7.6 27a187 187 0 0 0 35.4 57.8q10.5 12.3 24.5 23.7a7 7 9.6 0 1 2 2.9q4.6 12.5 9 23.1 4.9 11.9 14.8 30.4a7.7 6.8-81.4 0 0 .5.8q1.4 1.8 1.6 2.5 0 .7 1 2.3c7.1 11 12.5 21.7 19.2 31.4 5 7.3 9.8 14.6 15.6 21.8l17.8 22.3q3.7 4.7 8.8 10.4 11.2 12.5 24.8 26.8zm-224.7-273.5q-.1 1.6.5 3.5v.2q.1-2.9-.3-5.9 1.4 5.8 1.4 11.8-2.2-6-3.3-12.3.5 1.5 1.6 2.7m28.4 155.5q1.3 6.8 3.4 13.4 9 26.8 26.4 47 13.8 16.2 38.3 39.8c7.4 7.2 16 14.3 24.1 21.3q11.6 9.8 23.8 17-4.5.6-10.2 1-41.2 2.4-84 2c-16.4-.1-34.6-1.4-48.4-1.9q-2.9 0-4.4-2.5c-6.4-10.5-11.7-20.4-18.2-31.7q-2.7-4.7-3.4-6.5c-.9-2.2-2.8-5.4-4.2-8.8q-2.4-5.6-8.4-21.4c-4.4-11.3-7.1-23.6-9.6-33.9l.1-.4q.3-.6 1-.3 2.6 1 4.9 1.5 7.5 1.7 19.4 3.7a5 5 77.7 0 1 3.5 2.2q6.4 9.7 11.8 16.3l17.4 21.3q10 12.3 18.4 20.2 14.8 14 25.5 22.4 7.9 6.1 18.4 12.5a5 4.7-6.6 0 1 .7.5q1.5 1.4 2.8 2.2a.4.4 0 0 0 .5-.6q-3.9-4.2-6-7.4-5.1-7.4-14-18.8c-13.6-17.5-28.3-32.5-42.8-50.7-8-10-13.3-19.5-21.4-32.5-1-1.7-2.6-3.5-3.7-5.3q-.7-1.1-2.6-2 4 .2 7.9 1 9.9 2.4 19.6 2.3a1 1 0 0 0 1-1q-.4-8.2-.5-13.7 0-2.5 1.3-13.5 1-8.4 1-17 2.2 6.4 3.1 13 .6 4.7 1.4 7.6c.7 2.6 1 7.3 2.4 9.4a.3.3 0 0 0 .6 0z"/></g><g fill="#8e9dba"><path d="M329.5 95.8q-2 5.3-4.1 10.1l-4.3 10q-11 27.2-19.4 44.6-17.6 36.6-35.5 66.5l-16 26.7q-7.5 12.5-16.7 26.4a703 703 0 0 0-66 123.6q-8 19.7-16.4 47.4-11.1 37-18.2 77.5-2 12.4-3.3 22.7-3.3 28-6 57-4.2 42.7-2.9 86.2a1771 1771 0 0 0 6.5 99.8q3 36 7.1 63 .8 5.3 1 12.6.6 15 3.6 29.4.4 2-.2 5.5a1403 1403 0 0 1-36.2-175q-2.1-16.5-4-43A643 643 0 0 1 105 541q9.7-60 29.3-117.5A729 729 0 0 1 177.8 322q14.3-27.1 31.1-54 13.1-21 41.3-60.8 21.3-30.3 34.6-53.6 14.8-26 23-42.8 1.9-4.1 5.2-6.2 7.6-4.8 16.5-8.8M744 329q-5.7-6-10.7-12.3-8.2-10.4-8.9-11.1a254 254 0 0 0-107.3-76.2 180 180 0 0 0-75-8.7 212 212 0 0 0-48.8 11.5c-5.8 2-10.9 4.8-16.8 7.3-3.2 1.3-7.4 4.2-11.5 5.5q16-14.2 32.5-23 14.2-7.7 34-14.7c11.1-4 23.3-6.5 34.7-8.4q13-2.1 26-2.2t24.9 4.4a207 207 0 0 1 57 33c25.4 21.2 45.4 49.2 62.5 79.8q2.5 4.6 7.5 15m132.1 169.3q-1.5-.7-1.6-3.8c0-3.3-.2-9.5-1-14.4l-3-20.3q-1.3-8-4-18-2.4-9-5.5-17.7-11.4-31.5-25.6-59a272 272 0 0 0-38.6-57q-11.7-13-25.8-24.7l-6-5.2q-3.5-3-7.6-5.8-4.9-3.4-14.1-10.2-10.8-7.8-31.4-17.6-11-13-24.3-25.7-9.1-8.5-20-15.9a.6.6 0 0 1 .4-1.1l2 .3c29 7 56.8 17.3 81.4 32.9q10.4 6.6 24.1 17.5 12 9.6 21.7 20.2 18.5 20.2 30.8 39.8 12.1 19.2 21.7 43.3 7 17.8 10.7 30.2 8.4 28.5 13 58.5 3.9 26.5 2.7 53.7m164.5 263.4q-1.9-5.8-1.8-12.2v-9.5q-.4-7.3-2-14.4l-2.7-12.2q-2.3-13-8-32.5-15.6-53.6-41-104.4-16.4-32.8-38.3-62.3-7.2-9.8-17-22.5c-4.8-6.3-10.8-12.8-16.2-19.2q-2.4-2.8-9.6-9-.6-3-1-6.2-2-19.3-5.3-37.7-1.9-10.4-4.8-20.2-.2-.7 0-1a.5.5 0 0 1 .8-.2c12 14 20.3 23.2 30.7 36.8q6.8 8.8 10.6 14.4 17.4 25.3 24.4 36.5 4.2 6.8 14 24 8 13.7 13.2 24.3 21.5 44.6 33.2 83.4a446 446 0 0 1 20.8 144.1m-166 378.9c-1.1-9.7-.5-18.3.7-27.8q2.4-19.3 3.6-42.3a576 576 0 0 0-1.8-70.6q-6.7-92.3-28.5-181.7-3.9-15.8-12.1-46.6a76 76 0 0 1-3.2-21.5c0-3.5-.3-7.3.4-11q.9-5.2 1.2-10.6l-.5-.6-9.8-2.3 16.2-24a.8.8 52.4 0 1 1.4.3 723 723 0 0 1 16 49.5q13.9 50.1 23 96.4 3 15.1 7.9 46.2 9 58.6 7.3 118.9a460 460 0 0 1-9.1 82.7q-4.7 22.8-10.7 45.5a.6.6-63.8 0 1-.9.3zm-107.2-74.8q4.7 2.8 8.4 6 16 13.2 27 25c24.4 26.2 47.9 51.9 71 80.2q13.2 16.1 22.7 30c11 16 21.5 32 30.4 48.9q16.9 32.3 28.2 60.5 5.7 14.3 12.2 35c13.3 42.6 23.7 77 33.8 116.1a1 1 0 0 1-.5 1.2l-12.4 6.8q-.3-4.9-1.3-8.1-7.4-23.6-18.3-56-10.6-31.5-20.6-55.3-15.6-37.1-25.1-56.7-24.6-50.7-58.8-102.2-14.3-21.7-39-53.8c-20.2-26.3-37.9-48.7-55.4-72.6q-1.8-2.5-2.3-5"/></g><g fill="#f24c5f"><path d="M624.5 1242q.4 2.9.4 5.9v-.2q-.7-1.9-.6-3.5-2.2-10.3-3.8-20.6-2.8-16.8-3.6-20.7-3.3-15.7-9.1-40.7-7.2-30.7-19.6-59.4-5-11.3-10-20.2-9.3-16.3-24.4-31.4-9.8-10-18-16.4-17-13.5-22.6-18.3-13-10.9-23.3-24.4-6.2-8.2-14.5-21.8a276 276 0 0 1-20.3-42.7q-3.4-8.4-7-20l-7.1-23q-9-31.5-18.1-67.7-1.4-5.6-2.2-11.2l-.3-.3a.4.4 0 0 0-.4.4c.9 8.7.2 18.3.7 28q1.4 32 8.2 66.1a281 281 0 0 0 19.7 63.6l6.2 13.9v1.1q-7 21.8-12.5 46.8-4.5 20.6-5.1 39-.6 17 .9 40.2.3 4.7.1 7 0 1.5.6 7 .2 1.1 0 2.2l-.4.1q-14.8-21.9-21.9-32-15-21.5-21.4-32.3-19.8-33.5-31.3-60.8-23.9-57-36.2-123.3c-2.1-11.3-3.6-25.3-5.5-39q-1-7.6-1.5-15.5l-2-38.6q0-.4-.3-.8l-.2-.7q.3-36.1 1-48.3 1-22 4.6-62.3l-.6 11.9.3.1.4-.3q3.3-15 3.8-30.3 1 8.7.8 17.5 1-24.2 1-46.3 0-2.3.3-5.4l.6-.4q3.3 1 6.4 3c5.3 3.5 11.6 7.6 16.2 12.5a1.1 1 28.9 0 1 .2 1q-1.8 11-3 19.6a352 352 0 0 0-3.5 51c0 15-.4 26.4.5 39.8q2.4 37 3.4 46.2 3.7 35.4 8 57.2 3.2 16.5 12.4 47.4c3.1 10.6 6.8 19.1 11.4 31q1 2.6 4.9 11.2c3.2 7.1 6.6 12.4 10.5 19.5a115 115 0 0 0 17.9 23.5q6 6.2 11 11.7 1.9 2 7.8 6.6a.3.3 0 0 0 .5-.2q0-1.5-.5-2.9l-5.7-15.8q-1.4-3.7-5.8-22.2c-2.3-9.3-5.5-20.1-7.3-29q-2-10-6.9-45.4-.4-3-.7-10.9-1-21-1.2-38.3c-.1-11.7.8-21.5 2.1-36.8q1.8-19.4 3.7-32.4 1.8-12.6 4.7-22 .2-.7.5-1.1a.7.7 0 0 1 1.3.2l.4 2.7q1.2 11 1.7 13.3c2 10.4 3.4 21 6 31.3l7.8 32.6q1.8 7.9 6 18.6c6.6 17.3 10.1 27.2 17 41.4l8.6 17.9c3.3 6.5 6.8 12.2 10.2 18.3 11.6 21 27.1 40.3 44.6 56.6q5.8 5.4 14.8 12.6 4.7 3.7 15 12.3 14.5 12.2 24 27.6c7.1 11.8 14 24.1 18.8 36.9q3.5 9 8.1 22.2a333 333 0 0 1 13.2 53.2q3 17 5.1 32.1 3.4 23.7 3.5 32 .4 16.5 1.5 28.4c.4 4.6-1.2 9-1 13.6"/><path d="m461.6 1021.2.1 2.5a.2.2-31.8 0 0 .4.1l.3-.5h.7q1.3 1.4 1.3 3.7 0 6.8 1 14 .7 4.8 4.2 13.5 3.6 8.8 7.4 19.5c1 3.2 3 6.4 3.7 9.5q.4 2 1.7 5c2.4 5.8 3.5 11 5.7 17l16.4 45.3q4.5 11.6 8.3 22.7c3.2 9.6 9.4 28 13.4 42.6q7 25.8 12.3 49c1.8 8 3.5 17.3 4.4 24.5q1.7 14.8 2.7 33.7.2 2.8-.4 5a.3.3-62.5 0 1-.5.2q-1.1-1-1.3.5-6.7-15.3-13.5-30.2-8.9-19.8-17.2-34.7-14.3-25.6-17-31-14.1-28.1-22.7-59.4-5-18.5-7.8-32-2-10-4-21.7-1-5.2-2-7.7a2.8 2.6-55.9 0 1 0-1q0-4.2-.5-8.3-1.6-11.8-1.5-24 .2-29 4.4-57.8M575.1 1123l-7.6-9.4-.3-.4q-11.2-30.7-35.6-53 3.9 1.2 5.2 2l6.9 5.1a68 68 0 0 1 18.3 23q8 15.7 13 32.7"/></g><g fill="#ff8f84"><path d="M630.7 1242.5q-2.8.3-2.6-4.1a4.2 4.1 59.7 0 1 .4-1.6c1.2-2.3 2.2-4.3 2.7-6.8 2-11 6.6-22.6 8.6-33q3.1-16.7 3.7-22.5 2.2-22.7 4.1-40.4 1.6-14 2.6-27.4 2-26 2-27.5.6-15.3.8-37.6.3-21.5-1-37.6l-2.1-25.2q-.7-9.2-3.4-25-4.1-24.8-8.3-43.5-1.5-6.6-5.3-19.7a572 572 0 0 0-55-126.8 378 378 0 0 0-34.1-48.6 13 13 0 0 0-5.8-4c-27-10.8-50-19.2-74.8-28.7-17-6.5-33.3-13.4-50-20.2q-6.5-2.6-22.5-11.7c-5.6-3.1-10.2-5.2-14.9-7.6l-5.9-3.2q-11-6.9-20-15.8 39 26.3 82 43.6 36.8 14.8 74.7 28.7c18.8 7 36.1 15 55.6 24a54 54 0 0 1 19 12.9q10.6 11.7 13.3 15.3 31.4 42 50 89.9a443 443 0 0 1 28.3 121q3.9 46.6-.4 91.5-5.4 55.2-20.8 115.8-2 8-8.5 30.5-6.5 22.4-8.4 30.5-2.2 9.3-4 14.8"/><path d="M531.6 1060.2q24.4 22.3 35.6 53l.3.4 7.6 9.4q12.3 38.5 19.2 67.3l5.6 26.4q3.3 15.6 5.2 26.5 2.4 14 10.2 55.3 3.4 18.3 6.3 28.7 2.1 7.8 7 18.7 0 1.1-.7 1.2a1 .8 68.5 0 0-.4 1.5l.6-.2-1.5 2.7v.4q-.5 3.7-2 8-3 9.3-12 13.1-8 3.5-13.6 4.4-7.6 1.4-15.1 1.5c-7.5.2-17-1.8-23.3-2.4q-5.7-.6-7.8-5.9-2-5.2-2.7-11a.1.1 30.2 0 1 .2 0l3 6c2.3 4.6 3.8 8 9.3 9q22.9 4.2 45-2.1 12.1-3.5 16.3-15.3c2-6 1.3-10.6-.9-17.2l-10.6-32.5q-2.2-6.5-5-12.7-8.3-18.3-11.2-26.4-10.4-29.7-16.5-46.6c-3.7-10.3-6.6-20.2-10.8-30.3q-1.8-4.4-4.6-12.8-8-23-11.2-31.6l-19.5-51.4q-7.6-20.6-14.5-38.3l.1-.7 3.5-2.7z"/></g></svg>